<svg width="23" height="25" viewBox="0 0 23 25" fill="none" xmlns="http://www.w3.org/2000/svg">
<path d="M0.631653 0.198676V0.13245C0.631653 0.13245 0.631653 0.0331126 0.631653 0H22.6317C22.6317 0 22.6317 0.0662253 22.6317 0.0993379C22.6317 0.231788 22.5987 0.397351 22.5987 0.529801C22.5987 0.695364 22.5987 0.860927 22.5657 1.02649C22.5657 1.15894 22.5657 1.3245 22.5327 1.45695C22.5327 1.52318 22.5327 1.5894 22.5327 1.65563C22.4667 1.68874 22.4668 1.75497 22.4668 1.82119C22.4668 1.92053 22.4668 2.01987 22.4668 2.11921C22.4668 2.28477 22.4338 2.41722 22.4338 2.58278C22.4338 2.78146 22.4008 2.98013 22.3678 3.17881C22.3678 3.31126 22.3348 3.47682 22.3348 3.60927C22.3348 3.80795 22.3018 4.00662 22.3018 4.2053C22.3018 4.4702 22.2358 4.70199 22.2688 4.96689C22.2688 4.96689 22.2688 4.96689 22.2688 5C22.2358 5.09934 22.2359 5.19868 22.2359 5.2649C22.2359 5.46358 22.2029 5.66225 22.1699 5.86093C22.1699 6.12583 22.104 6.42384 22.104 6.68874C22.104 6.8543 22.1039 7.01987 22.0709 7.18543C22.0709 7.35099 22.071 7.51656 22.038 7.64901C22.038 8.01324 21.972 8.4106 21.939 8.77483C21.939 8.90728 21.939 9.03973 21.906 9.17219C21.906 9.17219 21.906 9.2053 21.906 9.23841C21.906 9.23841 21.906 9.27152 21.906 9.30464C21.84 9.43709 21.8731 9.53642 21.8401 9.66887C21.8401 9.83444 21.84 10 21.8071 10.1656C21.8071 10.3311 21.7741 10.4967 21.7741 10.6623C21.7741 10.894 21.7411 11.1258 21.7081 11.3907C21.7081 11.5563 21.7081 11.7219 21.6752 11.8874C21.6752 12.0199 21.6752 12.1854 21.6422 12.3179C21.6422 12.4503 21.6422 12.5828 21.6092 12.7152C21.6092 12.8477 21.6092 13.0132 21.6092 13.1457C21.6092 13.2781 21.6092 13.4106 21.5762 13.543C21.5762 13.7086 21.5432 13.8742 21.5432 14.0728C21.5432 14.2715 21.5432 14.4702 21.4773 14.6689C21.4773 14.7351 21.4773 14.8344 21.4773 14.9007C21.4773 15.0662 21.4442 15.2318 21.4442 15.3974C21.4442 15.7616 21.3783 16.1258 21.3453 16.457C21.3453 16.6225 21.3123 16.7881 21.3123 16.9536C21.3123 17.1192 21.3124 17.2517 21.2794 17.4172C21.2794 17.5497 21.2464 17.6821 21.2464 17.8477C21.2464 17.947 21.2464 18.0464 21.2464 18.1126C21.2464 18.245 21.1804 18.4106 21.2464 18.543C21.1804 18.543 21.2464 18.6093 21.2464 18.6755C21.2464 18.8742 21.2134 19.0397 21.2134 19.2384C21.2134 19.2715 21.2134 19.3377 21.2134 19.3709C21.1804 19.404 21.1474 19.4702 21.2134 19.5364C21.2134 19.5695 21.2134 19.6026 21.2134 19.6358V19.702C21.2134 19.8013 21.2134 19.9007 21.2134 19.9669C21.2134 20.0993 21.1474 20.2318 21.2134 20.3642C21.2134 20.3642 21.2134 20.3642 21.2134 20.3974C21.2134 20.4967 21.1804 20.596 21.1804 20.6954C21.1804 20.7616 21.1804 20.7947 21.1804 20.8609C21.1804 20.8609 21.1804 20.894 21.1804 20.9272C21.1804 21.0596 21.1804 21.1589 21.1804 21.2914C21.1804 21.3576 21.1804 21.3907 21.1804 21.4238C21.1804 21.4238 21.1474 21.4901 21.1474 21.5232C21.1804 21.6225 21.1474 21.7219 21.1474 21.8212C21.1474 21.8874 21.1144 21.9868 21.1474 22.053C21.1144 22.1854 21.1474 22.351 21.0814 22.5166C20.8835 22.6159 20.6526 22.649 20.4218 22.7152C20.2898 22.7483 20.1579 22.7815 19.993 22.8146C19.8281 22.8146 19.6961 22.9139 19.5642 22.947C19.3993 22.9801 19.2343 23.0464 19.0694 23.0795C18.9045 23.1126 18.7396 23.1788 18.6077 23.2119C18.4757 23.245 18.3438 23.2781 18.2119 23.3113C18.047 23.3113 17.915 23.4106 17.7501 23.4437C17.6512 23.4437 17.5522 23.4768 17.4203 23.5099C15.936 23.9073 14.4518 24.3377 12.9675 24.7682C12.7036 24.8344 12.4068 24.9007 12.1429 25H12.1099C12.1099 25 12.077 25 12.044 25C11.2524 24.7682 10.4608 24.5695 9.66916 24.3377C7.62418 23.7748 5.57921 23.1788 3.50125 22.6159C3.36932 22.5828 3.23738 22.5497 3.13843 22.5166C3.07247 22.351 3.10543 22.1854 3.07245 22.0199C3.07245 21.8543 3.07242 21.6887 3.03944 21.5232C3.03944 21.3576 3.00649 21.1921 2.9735 21.0265C2.9735 20.8609 2.97347 20.6954 2.94049 20.5298C2.94049 20.4967 2.94049 20.4305 2.94049 20.3974C2.94049 20.2649 2.94049 20.1325 2.94049 20C2.94049 19.9338 2.94049 19.8675 2.94049 19.8344C2.94049 19.7682 2.94053 19.6689 2.87456 19.6026C2.87456 19.5695 2.87456 19.5033 2.87456 19.4702C2.87456 19.3377 2.87456 19.2384 2.87456 19.106C2.87456 18.9735 2.87453 18.8079 2.84154 18.6755C2.84154 18.543 2.84156 18.4437 2.80858 18.3113C2.80858 18.245 2.8086 18.2119 2.77561 18.1457C2.77561 18.0132 2.77558 17.8477 2.7426 17.7152C2.7426 17.5828 2.7426 17.4503 2.7426 17.351C2.7426 17.2185 2.7426 17.1192 2.7426 16.9868C2.7426 16.8543 2.74261 16.7219 2.70963 16.5894C2.70963 16.3907 2.67663 16.1921 2.64365 15.9934C2.64365 15.8609 2.64365 15.6954 2.64365 15.5629C2.64365 15.3642 2.61065 15.1656 2.57767 14.9669C2.57767 14.702 2.51174 14.404 2.51174 14.1391C2.51174 13.9404 2.47874 13.7417 2.44576 13.543C2.44576 13.4437 2.44576 13.3113 2.44576 13.2119C2.44576 13.0132 2.41276 12.8146 2.37978 12.6159C2.37978 12.4503 2.34683 12.2848 2.31384 12.0861C2.31384 11.7881 2.24786 11.5232 2.24786 11.2252C2.24786 11.0927 2.21485 10.9934 2.21485 10.8609C2.21485 10.4967 2.14888 10.1656 2.1159 9.80132C2.1159 9.66887 2.11592 9.53642 2.08294 9.40397C2.08294 9.27152 2.08295 9.13907 2.04997 9.03973C2.04997 8.97351 2.01699 8.9404 2.04997 8.87417C2.04997 8.74172 2.04997 8.60927 2.04997 8.47682C2.04997 8.24503 2.01697 8.01324 1.98399 7.78146C1.98399 7.58278 1.91804 7.38411 1.95102 7.18543C1.95102 7.08609 1.91801 7.01987 1.91801 6.92053C1.91801 6.85431 1.91801 6.78808 1.91801 6.68874C1.91801 6.49007 1.88506 6.29139 1.85208 6.09272C1.85208 5.86093 1.81908 5.62914 1.7861 5.39735C1.7861 5.2649 1.75308 5.13245 1.75308 5C1.75308 4.90066 1.75308 4.80132 1.75308 4.70199C1.75308 4.63576 1.75308 4.56954 1.75308 4.4702C1.75308 4.37086 1.75308 4.27152 1.75308 4.17219C1.75308 3.87417 1.72013 3.57616 1.68715 3.27815C1.68715 3.07947 1.68714 2.91391 1.62117 2.71523C1.62117 2.58278 1.62119 2.48344 1.5882 2.35099C1.5882 2.28477 1.5882 2.25166 1.5882 2.18543C1.5882 2.08609 1.5882 1.98676 1.5882 1.88742C1.5882 1.78808 1.58817 1.72185 1.55519 1.62252C1.55519 1.55629 1.55519 1.45695 1.55519 1.39073C1.55519 1.25828 1.5222 1.09272 1.55519 0.960265C1.55519 0.927152 1.55519 0.860927 1.55519 0.827815C1.5222 0.728477 1.55521 0.596027 1.52222 0.496689C1.52222 0.397351 1.48924 0.298013 1.52222 0.198676C1.52222 0.198676 1.52224 0.198676 1.48926 0.165563L0.631653 0.198676ZM17.3873 17.1854C17.3873 17.1854 17.4203 17.1192 17.4203 17.0861C17.4203 16.7881 17.4862 16.4901 17.4862 16.1921C17.4862 15.894 17.5192 15.6291 17.5522 15.3311C17.5852 14.9007 17.6182 14.4702 17.6512 14.0728C17.6512 13.8411 17.6842 13.6093 17.7171 13.4106C17.7171 13.1126 17.7831 12.7815 17.8161 12.4834C17.8161 12.3179 17.8161 12.1192 17.8491 11.9536C17.8491 11.7881 17.849 11.6225 17.882 11.4901C17.882 11.2252 17.915 10.9272 17.948 10.6623C17.981 10.3311 18.014 9.96689 18.0469 9.63576C18.0469 9.27152 18.1129 8.90728 18.1459 8.54305C18.1789 8.07947 18.2449 7.61589 18.2779 7.11921C18.2779 6.95364 18.2778 6.82119 18.3108 6.65563C18.3108 6.3245 18.3768 6.02649 18.4098 5.69536C18.4098 5.43046 18.4757 5.13245 18.4757 4.86755C18.4757 4.80132 18.4757 4.70199 18.4757 4.63576H4.68861C4.78756 5.56291 4.85354 6.45695 4.95249 7.38411H15.4742C15.4742 7.38411 15.4413 7.61589 15.4742 7.71523C15.4742 7.74834 15.4742 7.81457 15.4742 7.84768C15.4742 8.07947 15.4412 8.31126 15.4083 8.57616C15.3753 8.97351 15.3423 9.37086 15.3093 9.80132C15.3093 9.93377 15.3093 10.0662 15.2763 10.2318H5.24938C5.34833 11.1589 5.41425 12.0861 5.5132 13.0132H15.0455C14.9465 14.2053 14.8476 15.4305 14.7156 16.6225C14.6826 16.6225 14.6497 16.6225 14.6167 16.6225C14.3858 16.6887 14.1549 16.755 13.924 16.8212C13.1984 17.0199 12.5057 17.2185 11.7801 17.3841C11.7141 17.3841 11.6152 17.4172 11.5492 17.3841C11.5162 17.3841 11.4832 17.3841 11.4173 17.351C11.2194 17.3179 11.0214 17.2517 10.8235 17.1854C10.6256 17.1192 10.4607 17.0861 10.2628 17.0199C10.0649 16.9536 9.86706 16.9205 9.66916 16.8543C9.40529 16.7881 9.14143 16.7219 8.91055 16.6556C8.8116 16.6556 8.71263 16.5894 8.58069 16.5563C8.58069 16.4901 8.58069 16.4238 8.58069 16.3576C8.58069 16.2583 8.58069 16.1589 8.58069 16.0265C8.58069 15.9603 8.58069 15.8609 8.58069 15.7947C8.58069 15.6954 8.58069 15.6291 8.58069 15.5298C8.58069 15.4305 8.58069 15.298 8.58069 15.1987C8.58069 15.0993 8.58069 15.0331 8.58069 14.9338C8.58069 14.8344 8.58069 14.7351 8.58069 14.6689C8.58069 14.5695 8.54771 14.4371 8.58069 14.3377H5.81009C5.94202 15.7947 6.07394 17.2185 6.20588 18.6755C6.27184 18.6755 6.3378 18.7086 6.40377 18.7417C6.50272 18.7417 6.63467 18.7748 6.73362 18.8411C6.83257 18.8742 6.96448 18.8742 7.06343 18.9404C7.16238 18.9735 7.29433 18.9735 7.39328 19.0397C7.49223 19.0728 7.62419 19.0728 7.72314 19.1391C7.82209 19.1722 7.95399 19.1722 8.05294 19.2384C8.1519 19.2715 8.28385 19.2715 8.3828 19.3377C8.48175 19.3709 8.61365 19.3709 8.7126 19.4371C8.81155 19.4702 8.94351 19.4702 9.04246 19.5364C9.14141 19.5695 9.27337 19.5695 9.37232 19.6358C9.43828 19.6358 9.53721 19.6358 9.60317 19.6689C9.73511 19.7351 9.90002 19.7351 10.0649 19.8013C10.1309 19.8013 10.2299 19.8013 10.2628 19.8344C10.4278 19.9007 10.6257 19.9338 10.7906 20C10.8236 20 10.8895 20 10.9555 20C11.0874 20.0662 11.2853 20.0662 11.4173 20.1325C11.5162 20.1656 11.6152 20.1656 11.7141 20.1987C11.8131 20.2318 11.945 20.2649 12.0769 20.1987C12.2089 20.1325 12.3408 20.1325 12.5057 20.0662C14.0889 19.6358 15.6722 19.1722 17.2554 18.7417C17.3543 18.7417 17.4532 18.6755 17.5852 18.6424C17.5852 18.543 17.5852 18.4768 17.5852 18.4106C17.6511 18.2781 17.6182 18.1126 17.6182 17.9801C17.6182 17.9801 17.6512 17.9139 17.6182 17.8808C17.6182 17.8477 17.6182 17.7815 17.6182 17.7483C17.6512 17.6159 17.6182 17.5166 17.6182 17.351C17.6512 17.2848 17.6182 17.2185 17.6182 17.1523L17.3873 17.1854Z" fill="#A2A2A2"/>
</svg>
