<svg width="25" height="21" viewBox="0 0 25 21" fill="none" xmlns="http://www.w3.org/2000/svg">
<path d="M24.3867 3.29691C24.3867 3.29691 24.3234 3.58252 24.2601 3.70945C23.9434 4.6932 23.0252 5.29614 21.8854 5.29614C20.9355 5.29614 20.1757 4.94707 19.7007 4.05852C19.0042 2.75744 19.5741 0.631276 21.7904 0.536075C23.0886 0.504341 24.1651 1.29768 24.3234 2.50357C24.3234 2.50357 24.3234 2.5353 24.3551 2.56703V3.26518L24.3867 3.29691Z" fill="#A2A2A2"/>
<path d="M11.5002 15.7047H6.59259C6.43428 16.3394 6.24431 16.9424 6.086 17.577C5.86436 18.4338 5.61107 19.2907 5.38943 20.1475C5.32611 20.3696 5.19946 20.4648 4.97782 20.4648C3.61635 20.4648 2.25488 20.4648 0.89341 20.4648C0.545126 20.4648 0.450138 20.3379 0.545124 19.9888C2.41319 13.8959 4.24959 7.80303 6.11766 1.67842C6.21265 1.36108 6.27597 1.32935 6.59259 1.32935C8.30235 1.32935 10.0438 1.32935 11.7535 1.32935C12.0701 1.32935 12.1335 1.36108 12.2285 1.67842C14.0965 7.7713 15.9962 13.8324 17.8643 19.9253C17.991 20.3379 17.9276 20.4648 17.4844 20.4648C16.6928 20.4648 15.9329 20.4648 15.1414 20.4648C14.5081 20.4648 13.8749 20.4648 13.2416 20.4648C13.02 20.4648 12.925 20.3696 12.8617 20.1792C12.4184 18.7194 12.0068 17.2914 11.5635 15.8317C11.5635 15.7999 11.5635 15.7682 11.5319 15.7047H11.5002ZM8.99891 5.89901C8.46066 7.89823 7.9224 9.92919 7.38414 11.9919H10.7403C10.1387 9.92919 9.56883 7.89823 8.99891 5.89901Z" fill="#A2A2A2"/>
<path d="M24.26 13.4518C24.26 15.6414 24.26 17.831 24.26 20.0207C24.26 20.4015 24.2284 20.4649 23.8168 20.4649C22.5186 20.4649 21.2521 20.4649 19.954 20.4649C19.6057 20.4649 19.5424 20.4015 19.5424 20.0524C19.5424 15.6731 19.5424 11.2621 19.5424 6.88288C19.5424 6.5338 19.6374 6.47034 19.9857 6.47034C21.2838 6.47034 22.5819 6.47034 23.8801 6.47034C24.1967 6.47034 24.2917 6.5338 24.2917 6.85114C24.2917 9.04077 24.2917 11.2621 24.2917 13.4518H24.26Z" fill="#A2A2A2"/>
</svg>
