<svg width="27" height="21" viewBox="0 0 27 21" fill="none" xmlns="http://www.w3.org/2000/svg">
<path d="M26.5104 16.3565C26.4154 16.7056 26.3521 17.0864 26.2255 17.4355C25.7822 18.6096 24.9273 19.3713 23.8192 19.879C22.3944 20.5137 20.9062 20.6406 19.3865 20.5454C18.3099 20.4819 17.2334 20.2915 16.2202 19.8473C15.2704 19.4347 15.397 19.5617 15.6187 18.6731C15.8086 17.8798 15.9986 17.0864 16.1886 16.2931C16.2836 15.944 16.4102 15.8805 16.7268 16.0392C17.7084 16.547 18.7532 16.8643 19.8297 16.9595C20.3363 17.023 20.8112 16.9595 21.2862 16.8008C21.5395 16.7056 21.7294 16.5152 21.7611 16.1979C21.7928 15.8805 21.6978 15.5632 21.4128 15.4045C21.0645 15.2141 20.6846 15.0237 20.3047 14.8651C19.3548 14.516 18.4366 14.1669 17.5817 13.564C14.9221 11.7234 15.4603 8.26444 17.55 6.70949C18.5949 5.94788 19.7664 5.56707 21.0329 5.47187C22.616 5.34493 24.1358 5.56707 25.5922 6.20175C25.9089 6.32868 25.9405 6.39215 25.8455 6.74122C25.6239 7.62976 25.4023 8.51831 25.1806 9.40686C25.0856 9.78766 24.959 9.85113 24.6107 9.69246C23.6292 9.21645 22.6477 8.93085 21.5395 9.02605C21.3178 9.02605 21.0645 9.12125 20.8429 9.21645C20.368 9.47032 20.3363 10.0733 20.7479 10.3589C21.0329 10.5493 21.3178 10.7079 21.6345 10.8349C22.4893 11.2157 23.3442 11.5013 24.1674 11.9138C25.2439 12.485 26.0355 13.3418 26.3521 14.5795C26.4154 14.7699 26.4471 14.992 26.4788 15.1824V16.2613L26.5104 16.3565Z" fill="#A2A2A2"/>
<path d="M5.29682 13.4371C5.29682 13.4371 5.29682 13.691 5.29682 13.7862C5.29682 15.8171 5.29682 17.8164 5.29682 19.8473C5.29682 20.2281 5.2335 20.2599 4.85355 20.2916C3.52374 20.2916 2.22559 20.2916 0.895784 20.2916C0.515839 20.2916 0.452515 20.2281 0.452515 19.8473C0.484177 13.6592 0.484177 7.47116 0.484177 1.28308C0.484177 0.902276 0.515839 0.838808 0.895784 0.807075C2.00396 0.68014 3.11213 0.553205 4.18865 0.489737C5.17017 0.426269 6.18336 0.42627 7.16489 0.42627C8.58968 0.42627 9.98282 0.648406 11.281 1.21961C13.149 2.07643 14.2889 3.50444 14.6371 5.5354C14.9221 7.21729 14.6371 8.83572 13.7823 10.2955C13.244 11.184 12.4841 11.8504 11.5659 12.3582C10.3944 12.9928 9.09628 13.3419 7.76647 13.4371C6.94325 13.4688 6.12004 13.4371 5.26516 13.4371H5.29682ZM5.29682 9.56559C5.96173 9.56559 6.62663 9.62906 7.29154 9.56559C8.62135 9.40692 9.72952 8.64531 9.88783 7.18556C10.0461 5.97968 9.57121 4.869 8.20974 4.42472C7.25987 4.13912 6.27835 4.20259 5.29682 4.32952V9.56559Z" fill="#A2A2A2"/>
</svg>
