<svg width="26" height="23" viewBox="0 0 26 23" fill="none" xmlns="http://www.w3.org/2000/svg">
<path d="M13.1123 3.1449C13.1123 3.1449 13.3023 2.98623 13.3656 2.89103C13.9039 2.38329 14.4738 1.93902 15.0754 1.52648C15.6136 1.17741 16.1835 0.860072 16.7851 0.637935C17.2917 0.447533 17.83 0.352332 18.3682 0.384065C19.0648 0.447533 19.603 0.764871 19.983 1.33608C20.2679 1.74862 20.4263 2.22462 20.5529 2.70063C20.6479 3.08143 20.6796 3.46224 20.6796 3.84305C20.6796 4.09692 20.6796 4.35079 20.6796 4.57292C20.6796 5.1124 20.6163 5.62014 20.5213 6.15961C20.458 6.54042 20.3629 6.88949 20.2996 7.27029C20.2996 7.27029 20.2996 7.27029 20.2996 7.30202C20.2996 7.30202 20.3313 7.30202 20.363 7.30202C21.0912 7.52416 21.7877 7.77803 22.4526 8.09537C23.0859 8.38097 23.6558 8.73004 24.1941 9.17432C24.5423 9.45992 24.8906 9.80899 25.1439 10.1898C25.3972 10.5706 25.5239 10.9831 25.5239 11.4591C25.5239 11.7765 25.4289 12.0621 25.3022 12.3477C25.1123 12.7285 24.859 13.0776 24.5423 13.3949C24.0357 13.9026 23.4342 14.2835 22.8326 14.6325C22.231 14.9499 21.5978 15.2355 20.9329 15.4576C20.7429 15.5211 20.5529 15.5845 20.3313 15.648C20.3313 15.7749 20.3946 15.9019 20.4263 16.0288C20.5212 16.5048 20.6162 17.0126 20.6796 17.5203C20.6796 17.7424 20.7112 17.9646 20.7112 18.1867C20.7112 18.4406 20.7112 18.6627 20.7112 18.9166C20.7112 19.583 20.5846 20.2494 20.363 20.9158C20.2047 21.3283 20.0147 21.7092 19.698 21.9948C19.3498 22.3438 18.9698 22.5342 18.4949 22.5977C17.9883 22.6612 17.5134 22.5977 17.0068 22.439C16.3735 22.2486 15.8036 21.963 15.2337 21.614C14.6321 21.2331 14.0622 20.7889 13.5239 20.3129C13.3973 20.1859 13.239 20.059 13.0807 19.9321C12.9857 20.0273 12.8907 20.0907 12.7957 20.1859C12.4791 20.5033 12.0991 20.7889 11.7509 21.0427C11.3393 21.3601 10.9276 21.614 10.4843 21.8678C9.91443 22.1534 9.34452 22.4073 8.71128 22.5342C8.39465 22.5977 8.07802 22.6294 7.7614 22.5977C7.28647 22.566 6.87488 22.4073 6.49494 22.1217C6.20998 21.8996 6.01998 21.5822 5.83001 21.2649C5.60838 20.8206 5.48176 20.3129 5.41844 19.8051C5.38677 19.5195 5.38676 19.2339 5.3551 18.9483C5.3551 18.7579 5.3551 18.5992 5.3551 18.4088C5.3551 18.0598 5.41842 17.7107 5.45008 17.3616C5.5134 16.8222 5.60838 16.3144 5.73503 15.8067C5.73503 15.8067 5.73503 15.7749 5.73503 15.7432C5.60838 15.7115 5.51339 15.6797 5.38674 15.648C4.84849 15.4893 4.31023 15.2672 3.80364 15.0451C3.29704 14.8229 2.82214 14.5373 2.3472 14.22C1.99892 13.9661 1.68229 13.7122 1.39733 13.3949C1.14403 13.141 0.954071 12.8554 0.764099 12.5381C0.574126 12.1573 0.447472 11.7448 0.510796 11.3005C0.542458 10.9197 0.700784 10.5389 0.922419 10.2215C1.23904 9.71379 1.68231 9.33299 2.15724 8.98392C2.88547 8.44444 3.70865 8.06364 4.59519 7.7463C4.94347 7.61936 5.32345 7.49243 5.67174 7.39723C5.67174 7.39723 5.73506 7.39723 5.76672 7.36549C5.76672 7.27029 5.73504 7.17509 5.70338 7.11162C5.57673 6.57215 5.48176 6.03268 5.41844 5.4932C5.41844 5.2076 5.3551 4.92199 5.3551 4.63639C5.3551 4.44599 5.3551 4.25558 5.3551 4.09692C5.3551 3.46224 5.4501 2.82756 5.67174 2.22462C5.79839 1.84382 6.02001 1.46301 6.30497 1.14568C6.55827 0.860072 6.90654 0.669669 7.28649 0.574468C7.63477 0.479267 7.98306 0.479266 8.33135 0.511C8.93293 0.574468 9.50282 0.796604 10.0411 1.05047C10.896 1.46301 11.6559 2.00249 12.3524 2.60543C12.5741 2.79583 12.7957 3.01797 13.049 3.20837L13.1123 3.1449ZM10.8643 15.4576C12.3841 15.5528 13.8722 15.5528 15.392 15.4576C16.2469 14.1883 16.9751 12.8872 17.6717 11.5226C17.0068 10.1581 16.2469 8.85698 15.392 7.58763C13.8722 7.49243 12.3841 7.49243 10.8643 7.58763C10.0094 8.82525 9.24954 10.1581 8.61629 11.5226C8.90125 12.2208 10.421 14.9181 10.896 15.4893L10.8643 15.4576ZM6.1783 8.38097C6.1783 8.38097 6.14667 8.38097 6.11501 8.38097C5.92503 8.44444 5.73504 8.50791 5.54506 8.57138C4.91182 8.76178 4.31026 9.01565 3.74035 9.33299C3.3604 9.55512 2.98044 9.77726 2.63215 10.0629C2.37886 10.285 2.12555 10.5389 1.93558 10.8245C1.8406 10.9831 1.7773 11.1418 1.71397 11.3005C1.65065 11.5861 1.71393 11.84 1.87224 12.0938C2.03055 12.4112 2.28386 12.6968 2.56881 12.9189C2.98042 13.2997 3.42372 13.5853 3.93031 13.8392C4.50023 14.1565 5.13345 14.3787 5.73503 14.6008C5.86168 14.6325 6.02 14.696 6.14665 14.7277C6.49493 13.617 6.90654 12.5698 7.38147 11.5226C6.90654 10.5071 6.49492 9.45992 6.1783 8.38097ZM6.90656 16.0288C6.90656 16.0288 6.90653 16.124 6.87487 16.1557C6.74822 16.6635 6.65324 17.1712 6.58992 17.679C6.55826 17.9963 6.52658 18.3454 6.52658 18.6627C6.52658 18.9483 6.52661 19.2339 6.55827 19.4878C6.55827 19.7734 6.62161 20.059 6.71659 20.3446C6.81158 20.6302 6.90655 20.9158 7.09652 21.1379C7.19151 21.2649 7.28647 21.3284 7.41312 21.4235C7.63475 21.5505 7.88808 21.5505 8.14138 21.5505C8.48966 21.5505 8.83795 21.4236 9.18624 21.2966C9.85114 21.0427 10.421 20.6937 10.991 20.2811C11.3709 19.9955 11.7509 19.7099 12.0991 19.3926C12.1941 19.2974 12.2575 19.2339 12.3524 19.1387C12.3524 19.1387 12.3208 19.107 12.2891 19.0753C11.9408 18.6627 11.5925 18.2819 11.2443 17.8694C10.896 17.4568 10.5794 17.0126 10.2627 16.5683C10.1994 16.5048 10.1678 16.4731 10.0728 16.4731C10.0728 16.4731 10.0727 16.4731 10.0411 16.4731C9.59781 16.4096 9.1229 16.3779 8.67963 16.3144C8.26802 16.2509 7.85639 16.1875 7.41312 16.124C7.22314 16.0923 7.03319 16.0605 6.84322 15.9971L6.90656 16.0288ZM13.9039 19.1387C13.9039 19.1387 14.0622 19.2974 14.1255 19.3609C14.4421 19.6465 14.7904 19.9321 15.107 20.2177C15.6453 20.6302 16.2152 20.9793 16.8485 21.2649C17.2284 21.4235 17.64 21.5505 18.0516 21.5822C18.5265 21.5822 18.9065 21.4553 19.1598 21.0427C19.3498 20.7571 19.4447 20.4398 19.5397 20.1225C19.6664 19.583 19.6981 19.0435 19.6664 18.4723C19.6664 18.1867 19.6664 17.9328 19.6031 17.6472C19.5397 17.1078 19.4448 16.6 19.3181 16.0605C19.3181 16.0605 19.3181 15.9971 19.3181 15.9653C18.2099 16.2192 17.0701 16.3779 15.9619 16.4731C15.3287 17.3934 14.6321 18.2819 13.8722 19.1387H13.9039ZM12.3841 3.93825C12.3841 3.93825 12.1941 3.74784 12.0675 3.65264C11.5609 3.20837 11.0226 2.79583 10.4527 2.41503C9.94611 2.09769 9.43951 1.84382 8.8696 1.65342C8.52131 1.55821 8.20472 1.49475 7.85643 1.49475C7.57147 1.49475 7.34983 1.62168 7.15986 1.81208C7.03321 1.93902 6.93819 2.09769 6.87487 2.28809C6.65323 2.79583 6.58994 3.33531 6.55827 3.90651C6.55827 4.35079 6.55826 4.76332 6.58992 5.2076C6.65324 5.6836 6.71659 6.15961 6.81158 6.63562C6.81158 6.76255 6.8749 6.92122 6.90656 7.04816C6.93822 7.04816 6.96988 7.04816 7.00154 7.04816C7.38149 6.98469 7.76144 6.88949 8.14138 6.82602C8.80628 6.69908 9.47116 6.60388 10.1361 6.57215C10.1994 6.57215 10.2311 6.57215 10.2944 6.47695C10.3577 6.38175 10.421 6.28655 10.4843 6.19134C10.9909 5.4932 11.5292 4.82679 12.0991 4.19212C12.1941 4.09692 12.2575 4.00171 12.3524 3.90651L12.3841 3.93825ZM19.3181 7.07989C19.3181 7.07989 19.3181 7.01642 19.3181 6.98469C19.3498 6.82602 19.3814 6.66735 19.4131 6.54041C19.5397 6.00094 19.603 5.46147 19.6347 4.89026C19.6347 4.60466 19.6347 4.35079 19.6347 4.06518C19.6347 3.65264 19.5714 3.27184 19.5081 2.89103C19.4447 2.5737 19.3181 2.25636 19.1281 1.97075C18.9698 1.74862 18.7798 1.58995 18.4949 1.52648C18.3365 1.49475 18.1783 1.49475 18.0199 1.49475C17.64 1.49475 17.26 1.62168 16.9118 1.78035C16.2469 2.06595 15.6453 2.41503 15.107 2.8593C14.7588 3.11317 14.4421 3.39877 14.1255 3.68438C14.0305 3.77958 13.9356 3.84305 13.8406 3.93825C14.6005 4.76332 15.297 5.65187 15.9302 6.57215C17.0384 6.66735 18.1466 6.85775 19.2548 7.11162L19.3181 7.07989ZM18.8748 11.4909C19.3498 12.5064 19.793 13.5536 20.1413 14.6325C20.173 14.6325 20.2363 14.6325 20.268 14.6325C20.8062 14.4739 21.3128 14.2835 21.8194 14.0613C22.421 13.7757 23.0226 13.4584 23.5608 13.0458C23.8774 12.792 24.1941 12.4746 24.4157 12.0938C24.6057 11.713 24.6373 11.3639 24.4157 10.9831C24.2574 10.6658 24.0041 10.4119 23.7508 10.1898C23.3392 9.84073 22.8959 9.55512 22.421 9.30125C21.8194 8.98391 21.1545 8.73004 20.4896 8.50791C20.3629 8.47617 20.2363 8.44444 20.1097 8.38097C19.7614 9.45992 19.3814 10.4754 18.9065 11.4909H18.8748ZM16.7851 15.2989C17.5767 15.2037 18.3366 15.0768 19.0964 14.9181C18.8432 14.1883 18.5899 13.4584 18.2733 12.7285C18.02 13.1728 17.7983 13.5853 17.545 14.0296C17.2917 14.4421 17.0384 14.8547 16.7851 15.2989ZM9.50283 15.2989C8.96457 14.4739 8.48967 13.617 8.0464 12.792C7.76144 13.4901 7.47648 14.22 7.25484 14.9499C8.01474 15.1085 8.74297 15.2355 9.53452 15.3307L9.50283 15.2989ZM14.6004 16.5366C14.5371 16.5366 14.4421 16.5366 14.3788 16.5366C14.0622 16.5366 13.7456 16.5366 13.4289 16.5366C13.1757 16.5366 12.8907 16.5366 12.6374 16.5366C12.3208 16.5366 12.0358 16.5366 11.7192 16.5366C12.1941 17.1712 12.669 17.7424 13.2073 18.3136C13.7139 17.7424 14.1889 17.1395 14.6321 16.5366H14.6004ZM14.6004 6.41348C14.4738 6.19134 13.3023 4.76332 13.144 4.66812C12.6374 5.2076 12.1624 5.81054 11.7192 6.41348C11.8142 6.41348 11.8775 6.41348 11.9408 6.41348C12.2574 6.41348 12.5424 6.41348 12.859 6.41348C13.239 6.41348 13.6189 6.41348 14.0305 6.41348C14.0305 6.41348 14.0622 6.41348 14.0938 6.41348C14.2521 6.41348 14.4421 6.41348 14.6004 6.41348ZM16.7851 7.68283C17.3234 8.50791 17.7983 9.33299 18.2416 10.2215C18.5582 9.52339 18.8115 8.79351 19.0332 8.09537C18.2733 7.9367 17.545 7.80977 16.7851 7.71456V7.68283ZM9.50283 7.68283C8.74294 7.77803 7.98307 7.90497 7.25484 8.06364C7.47648 8.79351 7.72978 9.49166 8.0464 10.2215C8.48967 9.33299 8.96457 8.50791 9.50283 7.68283Z" fill="#A2A2A2"/>
<path d="M15.2971 11.4909C15.2971 12.7285 14.2839 13.7122 13.0807 13.7122C11.8776 13.7122 10.8644 12.7602 10.8644 11.4591C10.8644 10.158 11.9409 9.1743 13.1757 9.23777C14.3472 9.2695 15.3287 10.2532 15.2971 11.4909Z" fill="#A2A2A2"/>
</svg>
