<svg width="30" height="23" viewBox="0 0 30 23" fill="none" xmlns="http://www.w3.org/2000/svg">
<path d="M29.5384 16.8819C29.3519 17.5716 28.9788 18.0643 28.3571 18.3599C28.2327 18.4256 28.1084 18.4256 27.9529 18.4584C27.9529 18.4256 27.9218 18.3927 27.8907 18.3599C27.9529 18.2613 28.0151 18.1628 28.1084 18.0971C29.3208 17.276 29.041 16.0608 28.326 15.2725C27.7975 14.6813 27.1136 14.4186 26.3675 14.2872C25.3105 14.123 24.2845 14.123 23.2275 14.5828C23.2586 14.7142 23.3208 14.8456 23.3519 14.9769C23.5695 15.798 23.4763 16.5206 22.9167 17.1446C22.3882 17.703 21.7664 18.0971 21.0514 18.2942C20.3986 18.4913 19.9944 18.13 20.0566 17.4074C20.0877 16.6848 20.4607 16.0608 20.8959 15.5024C21.1447 15.174 21.4245 14.8784 21.7043 14.6156C21.4556 13.8602 21.2068 13.1048 20.9581 12.3494C20.4296 13.3019 19.8701 14.32 19.3105 15.3054C19.4037 15.6338 19.5281 15.9951 19.5592 16.3564C19.6835 17.1446 19.4659 17.8672 18.8752 18.3927C18.2535 18.9511 17.5074 19.2795 16.668 19.3124C16.3571 19.3124 16.0152 19.378 15.8286 19.0168C15.6732 18.6555 15.8908 18.3927 16.0773 18.1628C16.5436 17.5388 17.01 16.9147 17.5074 16.3564C17.8493 15.9623 17.8804 15.6338 17.6317 15.1412C17.3519 14.5828 17.1965 13.9259 16.9789 13.3019C16.668 14.0245 16.3882 14.7799 16.0462 15.5024C15.5488 16.5863 14.9893 17.6702 14.4608 18.754C14.3053 19.0168 14.1188 19.2795 13.9012 19.5094C13.3727 20.0349 12.7198 19.8379 12.5955 19.0496C12.5022 18.6226 12.5022 18.1957 12.4711 17.703C12.2846 18.0971 12.1602 18.4256 11.9737 18.7869C11.8183 19.0825 11.6629 19.4109 11.5074 19.7065C11.1033 20.3962 10.1085 20.3634 9.70431 19.6736C9.11364 18.6226 8.95818 17.5059 9.14471 16.3235C9.20688 15.9294 9.30015 15.5024 9.39341 15.0098C8.86492 15.3382 8.36754 15.6338 7.9634 15.8966C8.05666 16.5863 8.21206 17.2432 8.21206 17.8672C8.21206 20.1663 6.93748 22.0713 4.88567 22.7938C4.13956 23.0566 3.36238 23.0566 2.61626 22.8595C2.02559 22.6953 1.59034 21.9727 1.52817 21.1516C1.4349 19.8379 1.99448 18.8197 2.92712 17.9986C3.79758 17.2103 4.7613 16.5863 5.7872 16.0279C5.91155 15.9623 6.067 15.8637 6.28462 15.7652C5.84939 15.4367 5.47634 15.1083 5.07219 14.8127C3.98411 14.0245 2.89602 13.269 1.99447 12.2509C1.62141 11.8239 1.27947 11.3312 0.999678 10.8057C0.409007 9.72187 0.595531 8.60517 1.09294 7.55415C1.77687 6.10901 2.80278 4.99231 4.01521 4.00699C6.31572 2.16771 8.89601 0.853948 11.725 0.197065C12.0981 0.0985325 12.4711 0.0656883 12.8752 0C13.497 0 14.0877 0 14.7095 0C15.2069 0.131377 15.7353 0.164221 16.2328 0.361286C16.7613 0.55835 17.2898 0.821104 17.7561 1.14955C18.8442 1.97065 19.1239 3.15304 18.9063 4.4668C18.5022 6.76589 17.1654 8.34241 15.3001 9.39343C13.5281 10.4116 11.6007 10.7729 9.57994 10.4773C8.80274 10.3788 8.11883 9.98462 7.62143 9.29489C7.49707 9.13067 7.43486 8.90076 7.3416 8.7037C7.3416 8.63801 7.34161 8.53948 7.40379 8.50663C7.46596 8.50663 7.55925 8.50663 7.62143 8.50663C8.77168 9.75471 10.1706 9.62334 11.6007 9.32774C13.4038 8.93361 14.9582 8.07966 16.2017 6.63452C16.7613 5.97764 17.1965 5.25506 17.3209 4.36827C17.4763 3.21873 17.0411 2.529 16.0152 2.16771C14.8649 1.77358 13.6835 1.77358 12.5333 2.03634C9.54884 2.66038 6.93747 4.10552 4.63696 6.20754C4.10847 6.70021 3.61105 7.35709 3.26908 8.01397C2.49189 9.49196 2.8028 10.9371 4.0774 12.1523C4.76134 12.8092 5.50743 13.3676 6.19136 13.9916C6.5955 14.3529 6.99963 14.747 7.43486 15.1412C8.3675 14.6156 9.30013 14.123 10.2017 13.4989C10.6058 13.2362 10.9167 12.7107 11.2898 12.3822C11.7561 11.9881 12.2535 11.6597 12.8752 11.6597C13.3416 11.6597 13.6524 11.9224 13.7457 12.4151C13.7768 12.5793 13.8079 12.7764 13.8079 12.9406C13.8079 13.1048 13.8079 13.3019 13.7768 13.4989C13.8701 13.4989 13.9634 13.4333 14.0255 13.4333C14.554 13.3347 14.8027 13.6632 14.6784 14.1887C14.4607 15.1412 14.212 16.0936 13.9944 17.079C13.9322 17.3089 13.9634 17.6045 13.9323 17.8344C13.9634 17.8344 13.9944 17.8344 14.0255 17.8672C14.1188 17.6702 14.2431 17.4402 14.3364 17.2432C15.1136 15.4039 15.8908 13.5975 16.668 11.7582C16.7612 11.5283 16.7924 11.2327 16.8856 11.0028C16.9478 10.8386 17.1032 10.6415 17.2276 10.6415C17.6006 10.5758 18.0048 10.543 18.3778 10.543C18.7198 10.543 18.8131 10.7729 18.6887 11.1013C18.44 11.8239 18.3157 12.5465 18.4711 13.3019C18.5644 13.6303 18.6887 13.9588 18.782 14.3201C18.8131 14.3201 18.8442 14.3201 18.8752 14.3201C19.2794 13.5318 19.7146 12.7764 20.0877 11.9881C20.3675 11.3641 20.554 10.7072 20.7716 10.0503C20.8027 9.95178 20.8959 9.75471 20.9892 9.75471C21.4555 9.68902 21.8908 9.65618 22.3571 9.65618C22.6058 9.65618 22.6991 9.85324 22.6058 10.116C22.3882 10.74 22.2328 11.3969 22.326 12.0866C22.3882 12.7435 22.668 13.269 22.9167 13.7617C23.5385 13.5975 24.1291 13.3676 24.7509 13.269C25.9633 13.1048 27.1446 13.2362 28.2016 13.9588C28.9167 14.4514 29.3829 15.174 29.6317 16.0279V16.9476L29.5384 16.8819ZM6.8753 16.3564C5.78722 17.0461 4.73024 17.703 3.92195 18.7212C3.5489 19.181 3.30017 19.7065 3.26908 20.2977C3.26908 20.9874 3.61108 21.3159 4.26392 21.1516C5.352 20.8889 6.12918 20.1663 6.62659 19.1153C7.06182 18.2613 7.15509 17.3417 6.8753 16.3564ZM10.8235 18.3599C11.01 18.13 11.1654 17.9986 11.2276 17.8344C11.6006 16.8819 12.0048 15.9623 12.3468 14.9769C12.5644 14.3857 12.7198 13.7617 12.8442 13.1377C12.9374 12.8092 12.782 12.6778 12.4711 12.8421C12.2535 12.9406 12.0359 13.072 11.8805 13.269C10.8546 14.5171 10.3882 15.9623 10.5748 17.6045C10.5748 17.8344 10.7302 18.0314 10.8235 18.3599ZM20.9892 17.2432C21.9218 16.9804 22.4504 15.9623 22.0773 15.174C21.5488 15.7323 21.1136 16.3564 20.9892 17.2432ZM18.2224 16.6191C17.7872 17.1775 17.3519 17.703 16.8856 18.2613C17.6006 18.0643 18.2224 17.276 18.2224 16.6191Z" fill="#A2A2A2"/>
</svg>
