<?xml version="1.0" encoding="utf-8"?>
<!-- Generator: Adobe Illustrator 27.5.0, SVG Export Plug-In . SVG Version: 6.00 Build 0)  -->
<svg version="1.1" id="Layer_1" xmlns="http://www.w3.org/2000/svg" xmlns:xlink="http://www.w3.org/1999/xlink" x="0px" y="0px"
	 viewBox="0 0 24 25" style="enable-background:new 0 0 24 25;" xml:space="preserve">
<style type="text/css">
	.st0{fill:#A2A2A2;}
</style>
<path class="st0" d="M23.3,11.8v1.4c0,0.1,0,0.2,0,0.2c-0.1,0.5-0.1,1-0.2,1.5c-0.4,2-1.2,3.9-2.6,5.4c-1.9,2.3-4.4,3.7-7.3,4
	c-0.2,0-0.5,0.1-0.7,0.1h-1.3c-0.1,0-0.1,0-0.2,0c-0.4-0.1-0.8-0.1-1.1-0.1c-2.4-0.4-4.4-1.6-6.1-3.3c-2-2.1-3.1-4.6-3.3-7.6
	c-0.1-1.4,0-2.7,0.4-4c0.7-2.7,2.2-4.9,4.4-6.6c1.7-1.3,3.7-2,5.8-2.2c1.1-0.1,2.1,0,3.1,0.2c1.9,0.4,3.7,1.3,5.1,2.7
	c2.2,2,3.5,4.6,3.9,7.6C23.2,11.3,23.3,11.6,23.3,11.8L23.3,11.8z M11.8,23c5.5,0,10-4.7,10-10.5c0-5.8-4.5-10.5-10-10.5
	c-5.5,0-10,4.7-10,10.5C1.8,18.3,6.3,23,11.8,23z"/>
<path class="st0" d="M17.9,5.5c-0.5,0-0.9,0.2-1.2,0.6c-0.4,0.5-0.4,1.1-0.3,1.7C16.5,8.3,16.7,8.7,17,9c0.3,0.5,0.6,1,0.7,1.5
	c0.3,0.9,0.3,1.7,0.1,2.6c-0.2,0.7-0.4,1.4-0.6,2.1c-0.3,0.9-0.5,1.8-0.8,2.7c0,0,0,0.1-0.1,0.2c-1.1-3.4-2.2-6.7-3.2-10.1
	c0.3,0,0.5,0,0.8-0.1C14,8,14.1,8,14.2,8c0.2-0.1,0.3-0.2,0.3-0.4c0-0.2-0.1-0.3-0.4-0.3c-0.4,0-0.8,0-1.1,0.1c-1.1,0.1-2.2,0-3.2,0
	c-0.2,0-0.3,0-0.5,0c-0.2,0-0.3,0.1-0.4,0.3C8.9,7.8,9,7.9,9.2,8C9.4,8,9.7,8,9.9,8.1c0.1,0,0.2,0,0.3,0c0.5,1.3,0.9,2.7,1.4,4
	c-0.6,2-1.3,4.1-1.9,6.1c0,0,0,0,0,0c-1.1-3.4-2.2-6.7-3.3-10.1c0.3,0,0.5,0,0.7-0.1c0.1,0,0.2,0,0.3,0c0.2-0.1,0.3-0.2,0.3-0.4
	c0-0.2-0.2-0.3-0.4-0.3c-0.4,0-0.8,0.1-1.2,0.1c-0.6,0-1.2,0-1.7,0C7.2,2.6,13.8,1.6,17.9,5.5L17.9,5.5z"/>
<path class="st0" d="M9.3,21.5c0.9-2.7,1.8-5.5,2.7-8.2c0.9,2.7,1.9,5.4,2.8,8.1C13,22.1,11.2,22.1,9.3,21.5L9.3,21.5z"/>
<path class="st0" d="M3.6,8.7c1.4,4.1,2.8,8.2,4.3,12.3C3.9,19.1,1.6,13.6,3.6,8.7z"/>
<path class="st0" d="M19.7,8c2.2,4.2,1,10-3.4,12.6c0-0.1,0-0.2,0.1-0.2c1-3,2-5.9,2.9-8.9C19.7,10.4,19.9,9.3,19.7,8L19.7,8z"/>
</svg>
