<?xml version="1.0" encoding="utf-8"?>
<!-- Generator: Adobe Illustrator 27.5.0, SVG Export Plug-In . SVG Version: 6.00 Build 0)  -->
<svg version="1.1" id="Layer_1" xmlns="http://www.w3.org/2000/svg" xmlns:xlink="http://www.w3.org/1999/xlink" x="0px" y="0px"
	 viewBox="0 0 91 90" style="enable-background:new 0 0 91 90;" xml:space="preserve">
<style type="text/css">
	.st0{fill:#C0C4C9;}
	.st1{fill:url(#SVGID_1_);}
	.st2{fill:url(#SVGID_00000054267109818148567410000004775000261343173528_);}
	.st3{fill:url(#SVGID_00000054264645146008659760000010352902050641441453_);}
	.st4{fill:url(#SVGID_00000113331753030367928830000001356595277433426565_);}
	.st5{fill:url(#SVGID_00000090270824922918896740000011164745911136117668_);}
	.st6{fill:url(#SVGID_00000130627698923359430060000010132804100273006731_);}
	.st7{fill:url(#SVGID_00000150065728305097059270000001759796365062670728_);}
	.st8{fill:url(#SVGID_00000174571229669768902800000011693546255278680476_);}
	.st9{fill:url(#SVGID_00000023269834666598665220000015974567456861555901_);}
	.st10{fill:url(#SVGID_00000093871085258613113440000008878062751552247947_);}
	.st11{fill:url(#SVGID_00000057125571314823218300000018047294186667294606_);}
	.st12{fill:url(#SVGID_00000073681441287696488730000005221022987329426620_);}
	.st13{fill:url(#SVGID_00000127013208420226150970000008132389683773217152_);}
	.st14{fill:url(#SVGID_00000121264823283793923910000005588928539996704438_);}
	.st15{fill:url(#SVGID_00000085956916444410855130000009872394770063416996_);}
	.st16{fill:url(#SVGID_00000019668657570872721070000014284837380767876519_);}
	.st17{fill:url(#SVGID_00000102523206604249737710000001221456595310675081_);}
	.st18{fill:url(#SVGID_00000054262609638439844540000018175844629119915428_);}
	.st19{fill:url(#SVGID_00000094607306330383252160000018362127687712328851_);}
	.st20{fill:url(#SVGID_00000105400569535360049640000014730775257214062246_);}
	.st21{fill:url(#SVGID_00000100351866109700467700000000799444685382855310_);}
	.st22{fill:url(#SVGID_00000132795476298049120040000007195382585047841166_);}
	.st23{fill:url(#SVGID_00000125603731289804419720000012260679327145229957_);}
	.st24{fill:url(#SVGID_00000138551129594966974390000003561656896723991426_);}
	.st25{fill:url(#SVGID_00000107590371796805760520000003460852611568118917_);}
	.st26{fill:url(#SVGID_00000158726568318892809720000015074714647565172141_);}
	.st27{fill:url(#SVGID_00000095297184587477437170000008911299450263064226_);}
	.st28{fill:url(#SVGID_00000113341983560273559850000012108502012393579663_);}
	.st29{fill:url(#SVGID_00000093857851724802293200000008444747586775259828_);}
	.st30{fill:url(#SVGID_00000039845800815995750940000003653405140821259153_);}
	.st31{fill:url(#SVGID_00000009582638139537885390000004199587830323579570_);}
	.st32{fill:url(#SVGID_00000145749666214812437700000001412999205366509957_);}
	.st33{fill:url(#SVGID_00000065046522108852016290000012358056435887397272_);}
	.st34{fill:url(#SVGID_00000103950789614660326420000001301650198251738300_);}
	.st35{fill:url(#SVGID_00000085216240803372182900000018373660843566054035_);}
	.st36{fill:url(#SVGID_00000172441508677772871840000014212030955299523486_);}
	.st37{fill:url(#SVGID_00000155854324420613262320000007967962233392663442_);}
	.st38{fill:url(#SVGID_00000071541933976765879380000008320037654974889614_);}
	.st39{fill:url(#SVGID_00000039118389725714744750000004405225234875190685_);}
	.st40{fill:url(#SVGID_00000145021985130483736600000007759658450855622574_);}
	.st41{fill:url(#SVGID_00000157268758478803348610000006625233747592605086_);}
	.st42{fill:url(#SVGID_00000038379739703536897950000005435277986451721349_);}
	.st43{fill:url(#SVGID_00000010288344885165265280000001362658288064659893_);}
	.st44{fill:url(#SVGID_00000025408735294151235600000000579871319022157729_);}
	.st45{fill:url(#SVGID_00000041297687292641751310000001125667222191572878_);}
	.st46{fill:url(#SVGID_00000128451470898774971810000011054090669806552471_);}
	.st47{fill:url(#SVGID_00000152250125290262014040000011041106095907437974_);}
	.st48{fill:url(#SVGID_00000065040035397963634350000018178839628197356984_);}
	.st49{fill:url(#SVGID_00000137837177356324235510000004592254982147363260_);}
	.st50{fill:url(#SVGID_00000012448146919184890740000010686094584931575469_);}
	.st51{fill:url(#SVGID_00000069391211411288100600000003298427871808553882_);}
	.st52{fill:url(#SVGID_00000106830849058033427260000010448170750950399139_);}
	.st53{fill:url(#SVGID_00000102537693009931207840000005029581460884421760_);}
	.st54{fill:url(#SVGID_00000132767002397082044120000007979416615447848092_);}
	.st55{fill:url(#SVGID_00000042721092563010941300000000458684530868657824_);}
	.st56{fill:url(#SVGID_00000111912947195948419830000017561991021373508015_);}
	.st57{fill:url(#SVGID_00000109721580291988721760000003711515480560711596_);}
	.st58{fill:url(#SVGID_00000001636799511414334400000010145933257676659889_);}
	.st59{fill:url(#SVGID_00000060004227528277044110000006662208360669538480_);}
</style>
<g>
	<g>
		<path class="st0" d="M43.8,35.2c0.5,0.7,1,1.4,1.4,2c-0.5,0.8-1,1.6-1.4,2.4c-0.5,0.8-1,1.5-1.5,2.3c-0.2,0.3-0.6,0.6-0.9,0.9
			c-0.6,0.5-1.2,1-2,1.3c-1.3,0.4-2.4,0.2-3.5-0.6c-0.5-0.4-0.8-0.9-1-1.4c-0.2-0.6-0.3-1.3-0.4-1.9c-0.1-0.5-0.1-1-0.2-1.5
			c-0.1-0.5-0.3-1-0.7-1.3c-0.2-0.2-0.5-0.4-0.8-0.4c-0.8,0-1.5,0.4-2,1c-0.8,0.9-1.4,1.9-1.8,3c-1.1,2.8-1.4,5.8-1,8.8
			c0.4,2.9,1.4,5.5,3,7.9c1,1.4,2.2,2.7,3.5,3.7c1.9,1.5,3.9,2.5,6.2,3.2c1.5,0.4,3.1,0.7,4.7,0.7c1.6,0,3.1-0.1,4.6-0.6
			c1.6-0.5,3.1-1.2,4.5-2.2c0.7-0.5,1.3-1.1,1.9-1.7c0.5-0.6,1-1.1,1.5-1.7c0.8-1,1.4-2,1.9-3.1c0.7-1.5,1.2-3.1,1.5-4.8
			c0-0.1,0-0.2,0.1-0.4c0.2,0.1,0.4,0.3,0.5,0.4c0.5,0.3,0.9,0.7,1.4,1c0.1,0.1,0.2,0.1,0.1,0.3c-0.4,2.1-1.2,4.1-2.2,6
			c-0.8,1.3-1.7,2.6-2.7,3.7c-2.1,2.1-4.5,3.7-7.4,4.6c-2.1,0.6-4.3,0.9-6.5,0.7c-2.6-0.2-5.1-0.9-7.5-2c-1.1-0.5-2.2-1.2-3.2-1.9
			c-1-0.7-1.9-1.5-2.7-2.4c-2.1-2.3-3.7-4.9-4.6-7.9c-0.8-2.5-1-5-0.8-7.6c0.2-2.5,0.9-4.9,2-7.1c0.7-1.4,1.7-2.5,3.1-3.3
			c0.8-0.4,1.8-0.6,2.7-0.5c0.7,0.1,1.2,0.4,1.7,0.8c0.8,0.6,1.2,1.5,1.4,2.5c0.2,0.8,0.2,1.6,0.4,2.3c0.1,0.4,0.2,0.8,0.4,1.2
			c0.2,0.3,0.5,0.5,0.9,0.5c0.6,0,1-0.3,1.5-0.7c0.3-0.2,0.5-0.4,0.8-0.7c0.4-0.5,0.8-1,1.1-1.5c0.7-1.2,1.4-2.3,2.1-3.5
			C43.7,35.4,43.7,35.3,43.8,35.2L43.8,35.2z"/>
		<path class="st0" d="M50.5,38.4c0.9-0.7,1.7-1.4,2.5-2.3c0.8-0.8,1.4-1.7,1.9-2.7c0.4,0.4,0.7,0.7,1,1.1c0.9,1,1.8,1.9,2.8,2.9
			c1.1,1.1,2.1,2.2,3.2,3.3c0.8,0.9,1.7,1.7,2.5,2.6c0.9,1,1.9,2,2.8,3c0.7,0.8,1.4,1.5,2.1,2.2c0.6,0.6,0.6,1.5,0.1,2.2
			c-0.4,0.5-1.1,0.9-1.9,0.6c-0.3-0.1-0.6-0.3-0.9-0.5c-1-0.7-2-1.5-3-2.3c-0.8-0.6-1.7-1.3-2.5-1.9c-0.8-0.6-1.5-1.2-2.3-1.8
			c-0.8-0.6-1.6-1.2-2.4-1.8c-0.8-0.6-1.6-1.3-2.4-1.9c-0.9-0.7-1.7-1.3-2.6-2C51.2,38.9,50.9,38.7,50.5,38.4L50.5,38.4z"/>
		<path class="st0" d="M35.7,20.6c0.3,0,0.5,0,0.8,0c1.6,0.1,3.3,0.3,4.8,0.9c1.4,0.5,2.7,1.2,3.7,2.3c1,1.1,1.7,2.5,1.4,4.1
			c-0.1,0.7-0.4,1.4-0.9,1.9c-0.4,0.4-0.9,0.7-1.5,0.8c-1.5,0.5-2.9,0.2-4.1-0.6c-0.8-0.5-1.2-1.2-1.6-2.1c-0.4-1-0.6-2-0.8-3
			c-0.2-0.9-0.4-1.7-0.7-2.6c-0.3-0.6-0.6-1.2-1-1.7C35.7,20.7,35.7,20.7,35.7,20.6L35.7,20.6z"/>
		<path class="st0" d="M43.4,60c-1.2,1.4-3.4,1.5-4.7,0.2c-1.4-1.2-1.5-3.3-0.3-4.7c1.2-1.4,3.3-1.6,4.8-0.3
			C44.8,56.7,44.6,58.9,43.4,60L43.4,60z"/>
		<path class="st0" d="M50,58.5c-1.3-1.1-1.6-3.3-0.3-4.7c1.4-1.6,3.5-1.4,4.8-0.2c1.4,1.3,1.4,3.4,0.1,4.8
			C53.4,59.6,51.3,59.7,50,58.5z"/>
		<path class="st0" d="M37.2,47.2c1.3,1.2,1.4,3.4,0.2,4.7c-1.2,1.3-3.3,1.5-4.7,0.2c-1.6-1.5-1.3-3.6-0.2-4.7
			C33.8,46,35.8,45.9,37.2,47.2z"/>
		<path class="st0" d="M45.7,32.1c1.1-0.5,1.8-1.4,2.3-2.5c1.2,0.9,2.5,1.4,3.8,1.9c0.7,0.3,1.4,0.6,2.2,1c0.1,0,0.1,0.1,0.1,0.1
			c-1,2.1-2.7,3.6-4.5,5c-0.1-0.1-0.1-0.1-0.2-0.2c-1.1-1.6-2.2-3.1-3.3-4.7C46,32.5,45.9,32.3,45.7,32.1z"/>
		<path class="st0" d="M49.5,41.9c0.4,0.3,0.7,0.6,1.1,0.8c0.7,0.6,1.5,1.1,2.2,1.7c0.8,0.6,1.6,1.2,2.3,1.8
			c0.1,0.1,0.2,0.2,0.3,0.3c0.1,0.1,0.1,0.2,0,0.3c-0.4,0.5-0.8,1-1.5,1.4c-1.3,0.6-2.6,0.6-3.9-0.1c-1.9-1.2-2.3-3.5-1.2-5.2
			C49.1,42.4,49.3,42.2,49.5,41.9z"/>
	</g>
	<g>
		<linearGradient id="SVGID_1_" gradientUnits="userSpaceOnUse" x1="-12.8574" y1="18.5448" x2="41.5166" y2="94.5628">
			<stop  offset="0" style="stop-color:#F34B2C"/>
			<stop  offset="1" style="stop-color:#D5CE47"/>
		</linearGradient>
		<path class="st1" d="M39.5,87.2c-0.3-0.1-0.6-0.1-0.8-0.2c-0.3-0.1-0.5-0.1-0.8-0.2c-0.3-0.1-0.5-0.1-0.7-0.2
			c-0.2-0.1-0.5-0.1-0.7-0.2c-0.9-0.2-1.5-0.4-1.9-0.5c-0.3-0.1-0.7-0.2-1.3-0.4c-0.1,0-0.3-0.1-0.4-0.1c-0.1,0-0.2,0-0.2-0.1
			c-0.1,0-0.2-0.1-0.2-0.1c-0.3-0.1-0.7-0.3-1.1-0.4c-0.2-0.1-0.4-0.1-0.6-0.2c-0.2-0.1-0.3-0.2-0.5-0.2c-0.3-0.1-0.6-0.3-0.9-0.4
			c-0.6-0.2-1-0.5-1.4-0.6c-0.4-0.2-0.7-0.3-0.9-0.4c-0.2-0.1-0.4-0.2-0.5-0.2c-0.2-0.1-0.1,0,0.3,0.3c0.4,0.2,1,0.5,1.7,0.9
			c0.2,0.1,0.4,0.2,0.6,0.3c0.2,0.1,0.4,0.2,0.6,0.3c0.4,0.2,0.8,0.3,1.1,0.5c0.4,0.1,0.8,0.3,1.2,0.4c0.2,0.1,0.4,0.1,0.6,0.2
			c0.2,0.1,0.4,0.1,0.6,0.2c0.5,0.2,1,0.3,1.5,0.5c0.4,0.1,0.8,0.2,1,0.2c0.2,0,0.4,0.1,0.7,0.1c0.2,0.1,0.5,0.1,0.9,0.2
			c0.4,0.1,0.8,0.2,1.3,0.3c0.1,0,0.3,0.1,0.4,0.1c0.1,0,0.3,0.1,0.5,0.1c0.3,0.1,0.7,0.1,1,0.2c0.2,0,0.3,0.1,0.5,0.1
			c0.2,0,0.3,0,0.5,0.1c0.3,0,0.6,0.1,0.9,0.1c0.3,0,0.5,0.1,0.8,0.1c0.2,0,0.4,0,0.5,0c0.1,0,0.1,0-0.1-0.1c-0.2,0-0.5-0.1-0.9-0.2
			c-0.4-0.1-0.9-0.2-1.4-0.2c-0.2,0-0.5-0.1-0.7-0.1C40,87.2,39.7,87.2,39.5,87.2z"/>
		
			<linearGradient id="SVGID_00000055677758219820422260000001102454564349129090_" gradientUnits="userSpaceOnUse" x1="-18.1794" y1="22.3515" x2="36.1945" y2="98.3695">
			<stop  offset="0" style="stop-color:#F34B2C"/>
			<stop  offset="1" style="stop-color:#D5CE47"/>
		</linearGradient>
		<path style="fill:url(#SVGID_00000055677758219820422260000001102454564349129090_);" d="M24.4,82.2c-0.5-0.3-0.9-0.6-1.3-0.8
			c-0.1-0.1-0.2-0.1-0.3-0.2c-0.1-0.1-0.2-0.1-0.3-0.2c-0.2-0.1-0.4-0.3-0.6-0.4c-0.3-0.2-0.6-0.4-0.8-0.6c-0.2-0.2-0.4-0.4-0.6-0.5
			c-0.4-0.3-0.7-0.6-1.1-0.9c-0.3-0.3-0.7-0.6-1-0.9c-0.3-0.3-0.7-0.6-1-0.9c-0.3-0.3-0.7-0.6-1-0.9L16,75.5
			c-0.1-0.1-0.2-0.2-0.2-0.2c-0.2-0.2-0.3-0.3-0.5-0.5c-0.6-0.6-0.9-0.9-1-0.9c0,0,0,0,0,0.1c0.1,0.1,0.2,0.2,0.4,0.4
			c0.7,0.9,1.7,2,3.6,3.6c0.3,0.2,0.5,0.4,0.7,0.6c0.2,0.2,0.4,0.3,0.6,0.5c0.4,0.3,0.7,0.6,1,0.8c0.1,0.1,0.1,0.1,0.2,0.2
			c0.1,0.1,0.1,0.1,0.2,0.2c0.1,0.1,0.3,0.2,0.4,0.3c0.3,0.2,0.6,0.4,0.9,0.7c0.2,0.2,0.5,0.4,0.8,0.5c0.3,0.2,0.5,0.4,0.8,0.6
			c0.1,0.1,0.3,0.2,0.4,0.3c0.1,0.1,0.3,0.2,0.4,0.3c0.3,0.2,0.6,0.4,0.9,0.5l0.5,0.3c0.2,0.1,0.3,0.2,0.5,0.2
			c0.3,0.2,0.6,0.3,0.9,0.5c0.6,0.3,1.3,0.6,1.8,0.8c0.2,0.1,0.5,0.2,0.7,0.3c0.2,0.1,0.4,0.1,0.5,0.2c0.3,0.1,0.5,0.2,0.7,0.2
			c0.2,0,0-0.1-0.6-0.4c-0.2-0.1-0.4-0.2-0.6-0.3c-0.2-0.1-0.4-0.2-0.7-0.3c-0.2-0.1-0.5-0.2-0.8-0.4c-0.1-0.1-0.3-0.1-0.4-0.2
			c-0.1-0.1-0.3-0.1-0.4-0.2c-0.3-0.1-0.6-0.3-0.9-0.5c-0.1-0.1-0.3-0.2-0.5-0.2c-0.2-0.1-0.3-0.2-0.4-0.2c-0.3-0.2-0.6-0.3-0.9-0.5
			c-0.1-0.1-0.3-0.2-0.4-0.2c-0.1,0-0.1-0.1-0.2-0.1C24.6,82.3,24.5,82.3,24.4,82.2z"/>
		
			<linearGradient id="SVGID_00000131332836960366533170000011249989193174748803_" gradientUnits="userSpaceOnUse" x1="41.2663" y1="-20.1687" x2="95.6403" y2="55.8493">
			<stop  offset="0" style="stop-color:#F34B2C"/>
			<stop  offset="1" style="stop-color:#D5CE47"/>
		</linearGradient>
		<path style="fill:url(#SVGID_00000131332836960366533170000011249989193174748803_);" d="M61.9,8.8c-0.5-0.2-0.9-0.3-1.2-0.4
			c-0.1,0-0.2-0.1-0.2-0.1c-0.1,0-0.1,0-0.2-0.1c-0.1,0-0.2-0.1-0.3-0.1C59.6,8,59.4,8,59.3,8c-0.1,0,0.3,0.2,1.2,0.5
			c0.4,0.2,0.9,0.4,1.5,0.6c0.2,0.1,0.3,0.1,0.5,0.2c0.2,0.1,0.3,0.1,0.5,0.2c0.3,0.2,0.7,0.3,1.1,0.5c0.6,0.3,0.9,0.5,1.1,0.5
			c0.2,0.1,0.2,0.1,0.2,0.1C65.5,10.6,64.2,9.7,61.9,8.8z"/>
		
			<linearGradient id="SVGID_00000024692729482597076030000012853384812217161388_" gradientUnits="userSpaceOnUse" x1="46.7128" y1="-24.0644" x2="101.0867" y2="51.9535">
			<stop  offset="0" style="stop-color:#F34B2C"/>
			<stop  offset="1" style="stop-color:#D5CE47"/>
		</linearGradient>
		<path style="fill:url(#SVGID_00000024692729482597076030000012853384812217161388_);" d="M82.2,25.8c0,0,0-0.1-0.1-0.3
			c0-0.1-0.1-0.2-0.2-0.3c0-0.1-0.1-0.1-0.1-0.2c0-0.1-0.1-0.1-0.1-0.2c-0.2-0.3-0.4-0.6-0.5-1c-0.1-0.2-0.2-0.3-0.3-0.5
			c-0.1-0.2-0.2-0.3-0.3-0.5c-0.5-0.7-0.8-1.2-1.1-1.5c-0.3-0.3-0.4-0.4-0.4-0.4c0,0.1,0.2,0.4,0.5,0.8c0.2,0.2,0.3,0.5,0.5,0.8
			c0.1,0.1,0.2,0.3,0.3,0.5c0.1,0.1,0.1,0.2,0.2,0.2c0.1,0.1,0.1,0.2,0.2,0.3c0.3,0.5,0.7,1.1,1,1.5C81.9,25.5,82.1,25.8,82.2,25.8z
			"/>
		
			<linearGradient id="SVGID_00000124846416953452027560000016155028995359079337_" gradientUnits="userSpaceOnUse" x1="43.4272" y1="-21.7144" x2="97.8012" y2="54.3036">
			<stop  offset="0" style="stop-color:#F34B2C"/>
			<stop  offset="1" style="stop-color:#D5CE47"/>
		</linearGradient>
		<path style="fill:url(#SVGID_00000124846416953452027560000016155028995359079337_);" d="M87.4,40c0,0.3,0.1,0.7,0.1,1
			c0,0.2,0,0.3,0.1,0.5c0,0.1,0,0.3,0,0.4c0.1,0.5,0.1,0.8,0.1,0.8c0-0.1,0-0.4,0-0.9c0-0.3,0-0.6-0.1-0.9c0-0.3-0.1-0.7-0.1-1
			c0-0.3-0.1-0.6-0.1-0.8c0-0.3-0.1-0.6-0.1-0.8c0-0.3-0.1-0.5-0.1-0.7c0-0.2-0.1-0.3-0.1-0.4c0-0.1,0,0,0,0.2c0,0.1,0,0.2,0,0.3
			c0,0.1,0,0.3,0,0.4c0,0.3,0.1,0.6,0.1,1c0,0.2,0,0.3,0.1,0.5C87.4,39.6,87.4,39.8,87.4,40z"/>
		
			<linearGradient id="SVGID_00000104683289985646498620000005472813749011128732_" gradientUnits="userSpaceOnUse" x1="-13.8768" y1="19.2739" x2="40.4972" y2="95.2919">
			<stop  offset="0" style="stop-color:#F34B2C"/>
			<stop  offset="1" style="stop-color:#D5CE47"/>
		</linearGradient>
		<path style="fill:url(#SVGID_00000104683289985646498620000005472813749011128732_);" d="M8.6,50.1c0.1,0.5,0.1,0.9,0.2,1.3
			c0,0.2,0.1,0.4,0.1,0.7c0,0.2,0.1,0.4,0.1,0.7c0.1,0.3,0.1,0.5,0.2,0.7c0,0.1,0,0.2,0.1,0.3c0,0.1,0.1,0.2,0.1,0.3
			c0.1,0.3,0.2,0.6,0.2,0.8c0.1,0.5,0.3,0.8,0.3,0.9c0,0,0,0,0-0.1c0-0.1-0.1-0.3-0.1-0.6c-0.1-0.3-0.1-0.6-0.2-0.8
			c0-0.1-0.1-0.3-0.1-0.4c0-0.1-0.1-0.3-0.1-0.4c-0.1-0.5-0.2-1-0.3-1.5c-0.1-0.8-0.2-1.7-0.4-3.1c-0.1-0.6-0.1-1.1-0.2-1.4
			c0-0.3-0.1-0.4-0.1-0.3c0,0.1,0,0.5,0,1.1C8.5,48.8,8.6,49.5,8.6,50.1z"/>
		
			<linearGradient id="SVGID_00000002359922017585111570000004117681734584908424_" gradientUnits="userSpaceOnUse" x1="36.3508" y1="-16.6527" x2="90.7248" y2="59.3652">
			<stop  offset="0" style="stop-color:#F34B2C"/>
			<stop  offset="1" style="stop-color:#D5CE47"/>
		</linearGradient>
		<path style="fill:url(#SVGID_00000002359922017585111570000004117681734584908424_);" d="M85.1,57.2c0,0,0.1-0.2,0.2-0.5
			c0.1-0.2,0.2-0.5,0.2-0.8c0.1-0.4,0.2-0.8,0.3-1.3c0.1-0.4,0.2-0.9,0.3-1.3c0-0.1,0-0.2,0.1-0.3c0-0.1,0-0.2,0.1-0.3
			c0-0.2,0.1-0.4,0.1-0.7c0-0.2,0.1-0.4,0.1-0.7c0-0.1,0-0.2,0.1-0.3c0-0.1,0-0.2,0-0.3c0.2-1.7,0.2-2.9,0.2-2.7c0,0,0,0.2-0.1,0.4
			c0,0.2,0,0.6-0.1,1.1c0,0.5-0.1,1-0.1,1.5c-0.1,0.5-0.2,1.1-0.3,1.7c-0.1,0.6-0.3,1.3-0.4,1.9c-0.1,0.3-0.2,0.7-0.3,1
			c0,0.2-0.1,0.4-0.1,0.5c0,0.1-0.1,0.2-0.1,0.3c0,0.1-0.1,0.2-0.1,0.3C85.1,57,85,57.3,85.1,57.2z"/>
		
			<linearGradient id="SVGID_00000065770380955531245870000011285453198372255117_" gradientUnits="userSpaceOnUse" x1="30.1977" y1="-12.2515" x2="84.5716" y2="63.7664">
			<stop  offset="0" style="stop-color:#F34B2C"/>
			<stop  offset="1" style="stop-color:#D5CE47"/>
		</linearGradient>
		<path style="fill:url(#SVGID_00000065770380955531245870000011285453198372255117_);" d="M83.5,61.6c0.1-0.3,0.3-0.6,0.4-0.9
			c0.1-0.1,0.1-0.3,0.2-0.4c0-0.1,0.1-0.2,0.1-0.3c0.1-0.4,0.2-0.6,0.1-0.5c-0.1,0.1-0.2,0.4-0.4,0.8c-0.2,0.5-0.5,1.1-0.8,1.8
			c-0.3,0.6-0.6,1.1-0.7,1.5c-0.1,0.2-0.2,0.3-0.2,0.4c0,0.1-0.1,0.2-0.1,0.2c0.1-0.1,0.3-0.4,0.5-0.8c0.1-0.2,0.3-0.5,0.4-0.8
			c0.1-0.1,0.2-0.3,0.2-0.5C83.3,62,83.4,61.8,83.5,61.6z"/>
		
			<linearGradient id="SVGID_00000051353203909320146410000017547659915714269841_" gradientUnits="userSpaceOnUse" x1="46.0561" y1="-23.5947" x2="100.4301" y2="52.4232">
			<stop  offset="0" style="stop-color:#F34B2C"/>
			<stop  offset="1" style="stop-color:#D5CE47"/>
		</linearGradient>
		<path style="fill:url(#SVGID_00000051353203909320146410000017547659915714269841_);" d="M86.3,34.2c0.3,0.9,0.3,0.7,0-0.4
			c-0.1-0.6-0.3-1.1-0.5-1.6c0-0.1-0.1-0.3-0.1-0.4c0-0.1-0.1-0.3-0.1-0.4c-0.1-0.3-0.2-0.6-0.3-0.8c-0.1-0.2-0.2-0.5-0.2-0.7
			c-0.1-0.2-0.2-0.4-0.2-0.6c-0.2-0.3-0.3-0.6-0.4-0.8c0-0.1-0.1-0.2-0.1-0.3c0-0.1-0.1-0.1-0.1-0.2c-0.1-0.1-0.1-0.2-0.1-0.2
			c-0.1-0.1-0.1-0.1,0,0c0,0.1,0.1,0.1,0.1,0.3c0,0.1,0,0.1,0.1,0.2c0,0.1,0.1,0.1,0.1,0.2c0.1,0.3,0.3,0.6,0.4,1
			c0,0.1,0.1,0.3,0.1,0.4L85,30c0,0.1,0,0.1,0.1,0.2c0.1,0.3,0.2,0.5,0.3,0.9c0.1,0.3,0.2,0.6,0.3,0.9c0.1,0.3,0.2,0.6,0.3,0.8
			C86,33.3,86.2,33.8,86.3,34.2z"/>
		
			<linearGradient id="SVGID_00000168833966557175871630000003333663861333634973_" gradientUnits="userSpaceOnUse" x1="-12.7492" y1="18.4674" x2="41.6247" y2="94.4854">
			<stop  offset="0" style="stop-color:#F34B2C"/>
			<stop  offset="1" style="stop-color:#D5CE47"/>
		</linearGradient>
		<path style="fill:url(#SVGID_00000168833966557175871630000003333663861333634973_);" d="M33,81.6c-0.8-0.3-1.7-0.7-2.4-1
			c-0.2-0.1-0.4-0.2-0.5-0.2c-0.1-0.1-0.3-0.1-0.4-0.2c-0.2-0.1-0.3-0.1-0.3-0.1c0,0,0.2,0.1,0.5,0.3c0.1,0.1,0.3,0.2,0.5,0.3
			c0.2,0.1,0.4,0.2,0.7,0.3c0.2,0.1,0.4,0.2,0.6,0.3c0.1,0,0.2,0.1,0.3,0.1c0.1,0,0.1,0,0.2,0.1l0.2,0.1c0.4,0.2,0.9,0.3,1.3,0.5
			c0.4,0.2,0.8,0.2,1,0.3c0.3,0.1,0.4,0.1,0.4,0.1c0,0-0.2-0.1-0.5-0.2C34.3,82,34,82,33.8,81.9C33.6,81.8,33.3,81.7,33,81.6z"/>
		
			<linearGradient id="SVGID_00000134970535249885999960000017913498001223515535_" gradientUnits="userSpaceOnUse" x1="43.2091" y1="-21.5583" x2="97.583" y2="54.4597">
			<stop  offset="0" style="stop-color:#F34B2C"/>
			<stop  offset="1" style="stop-color:#D5CE47"/>
		</linearGradient>
		<path style="fill:url(#SVGID_00000134970535249885999960000017913498001223515535_);" d="M85.9,38.3c-0.2-1.4-0.6-2.8-0.7-2.7
			c0,0,0,0.2,0.1,0.6c0.1,0.3,0.1,0.8,0.2,1.3c0,0.2,0.1,0.4,0.1,0.6c0,0.2,0.1,0.4,0.1,0.5c0.1,0.3,0.1,0.6,0.1,0.8
			c0,0.2,0.1,0.4,0.1,0.5c0,0.1,0.1,0.2,0.1,0.3c0-0.1,0-0.2,0-0.3c0-0.1,0-0.2,0-0.3C86,39.2,86,38.8,85.9,38.3z"/>
		
			<linearGradient id="SVGID_00000063615203409530235900000013600486768884110219_" gradientUnits="userSpaceOnUse" x1="26.564" y1="-9.6524" x2="80.9379" y2="66.3655">
			<stop  offset="0" style="stop-color:#F34B2C"/>
			<stop  offset="1" style="stop-color:#D5CE47"/>
		</linearGradient>
		<path style="fill:url(#SVGID_00000063615203409530235900000013600486768884110219_);" d="M33.3,3.5c0.4-0.1,1-0.3,1.5-0.5
			c0.1,0,0.3-0.1,0.4-0.1c0.2,0,0.3-0.1,0.5-0.1c0.3-0.1,0.6-0.2,0.9-0.3c0.6-0.2,1.1-0.3,1.6-0.4c0.4-0.1,0.7-0.2,0.7-0.2
			c0.1-0.1-0.6,0.1-1.5,0.3c-0.1,0-0.1,0-0.2,0c-0.1,0-0.2,0-0.3,0.1c-0.2,0.1-0.4,0.1-0.7,0.2c-0.3,0.1-0.6,0.2-0.9,0.2
			c-0.2,0-0.3,0.1-0.5,0.1c-0.2,0.1-0.3,0.1-0.5,0.2c-0.3,0.1-0.6,0.2-0.9,0.3c-0.1,0-0.3,0.1-0.4,0.1c-0.1,0-0.2,0.1-0.3,0.1
			c-0.4,0.2-0.7,0.3-0.7,0.3C32.2,3.8,32.5,3.7,33.3,3.5z"/>
		
			<linearGradient id="SVGID_00000039102135306148085560000003101170934522890411_" gradientUnits="userSpaceOnUse" x1="-7.2413" y1="14.5277" x2="47.1327" y2="90.5457">
			<stop  offset="0" style="stop-color:#F34B2C"/>
			<stop  offset="1" style="stop-color:#D5CE47"/>
		</linearGradient>
		<path style="fill:url(#SVGID_00000039102135306148085560000003101170934522890411_);" d="M10.2,39.1C10.1,40.6,10,41,10.1,41
			c0,0,0.2-0.6,0.3-1.9c0.2-1.4,0.3-1.8,0.3-1.9c0,0,0,0.1-0.1,0.2c0,0.1-0.1,0.2-0.1,0.3C10.4,38.1,10.3,38.5,10.2,39.1z"/>
		
			<linearGradient id="SVGID_00000129169558145467091150000016216710377628444094_" gradientUnits="userSpaceOnUse" x1="40.2293" y1="-19.427" x2="94.6033" y2="56.591">
			<stop  offset="0" style="stop-color:#F34B2C"/>
			<stop  offset="1" style="stop-color:#D5CE47"/>
		</linearGradient>
		<path style="fill:url(#SVGID_00000129169558145467091150000016216710377628444094_);" d="M86.6,44.8c0-0.5,0-0.9,0-1.2
			c0-0.2,0-0.3-0.1-0.3c0,0,0,0.1,0,0.2c0,0.1,0,0.2,0,0.4c0,0.3,0,0.7,0,1.3c0,0.1,0,0.1,0,0.2c0,0.1,0,0.2,0,0.2
			c0,0.2,0,0.3,0,0.5c0,0.3,0,0.7-0.1,1.1c0,0.1,0.1,0.1,0.1,0c0-0.1,0.1-0.2,0.1-0.5c0-0.2,0.1-0.5,0.1-0.8c0-0.2,0-0.3,0-0.5
			C86.7,45.2,86.6,45,86.6,44.8z"/>
		
			<linearGradient id="SVGID_00000097481737823585288150000012206621136450764424_" gradientUnits="userSpaceOnUse" x1="46.6514" y1="-24.0205" x2="101.0254" y2="51.9974">
			<stop  offset="0" style="stop-color:#F34B2C"/>
			<stop  offset="1" style="stop-color:#D5CE47"/>
		</linearGradient>
		<path style="fill:url(#SVGID_00000097481737823585288150000012206621136450764424_);" d="M82.8,26c-0.2-0.3-0.3-0.6-0.4-0.8
			c-0.1-0.2-0.2-0.4-0.3-0.5c-0.2-0.2-0.2-0.3-0.2-0.2c0,0.1,0.2,0.3,0.4,0.7c0.2,0.4,0.5,0.9,0.8,1.4c0.3,0.6,0.6,1.2,0.8,1.7
			c0.2,0.5,0.4,0.9,0.5,1c0.1,0.1-0.1-0.4-0.4-1.1c-0.2-0.3-0.3-0.7-0.5-1.1c-0.1-0.2-0.2-0.4-0.3-0.6C83,26.3,82.9,26.2,82.8,26z"
			/>
		
			<linearGradient id="SVGID_00000175293711076747686610000015427768989012630407_" gradientUnits="userSpaceOnUse" x1="35.2136" y1="-15.8393" x2="89.5875" y2="60.1787">
			<stop  offset="0" style="stop-color:#F34B2C"/>
			<stop  offset="1" style="stop-color:#D5CE47"/>
		</linearGradient>
		<path style="fill:url(#SVGID_00000175293711076747686610000015427768989012630407_);" d="M45.6,1.2c0.4,0,1.2,0,1.4,0
			c0.6,0,1.3,0,1.9,0c0.6,0,1,0,0.8-0.1c0.1,0-0.1,0-0.4-0.1c-0.2,0-0.4,0-0.8,0c-0.2,0-0.3,0-0.5,0c-0.2,0-0.4,0-0.6,0
			c-1.6,0-2,0.1-1.5,0.1c0.2,0,0.3,0,0.3,0c-0.1,0-0.3,0-0.8,0.1C44.8,1.2,44.8,1.3,45.6,1.2z"/>
		
			<linearGradient id="SVGID_00000123402000930748917680000005369221283554168501_" gradientUnits="userSpaceOnUse" x1="47.2043" y1="-24.416" x2="101.5783" y2="51.6019">
			<stop  offset="0" style="stop-color:#F34B2C"/>
			<stop  offset="1" style="stop-color:#D5CE47"/>
		</linearGradient>
		<path style="fill:url(#SVGID_00000123402000930748917680000005369221283554168501_);" d="M79.8,21c-0.3-0.4-0.7-0.9-0.9-1.1
			c-0.2-0.3-0.4-0.4-0.3-0.3c0,0,0.1,0.1,0.1,0.2c0.1,0.1,0.2,0.2,0.3,0.4c0.2,0.3,0.5,0.7,0.9,1.3c0.2,0.2,0.3,0.5,0.5,0.7
			c0.1,0.2,0.3,0.4,0.4,0.5c0.2,0.3,0.3,0.4,0.3,0.4c0-0.1-0.1-0.3-0.3-0.6C80.4,21.9,80.2,21.5,79.8,21z"/>
		
			<linearGradient id="SVGID_00000029747738673917570310000005249168432565987741_" gradientUnits="userSpaceOnUse" x1="23.2753" y1="-7.3001" x2="77.6492" y2="68.7179">
			<stop  offset="0" style="stop-color:#F34B2C"/>
			<stop  offset="1" style="stop-color:#D5CE47"/>
		</linearGradient>
		<path style="fill:url(#SVGID_00000029747738673917570310000005249168432565987741_);" d="M34.2,8.2c-0.3,0.1-0.5,0.2-0.8,0.3
			c-0.2,0.1-0.5,0.2-0.6,0.3C32.4,8.9,32.2,9,32.2,9c0,0,0.3-0.1,0.7-0.3c0.4-0.1,0.9-0.3,1.5-0.5c0.1-0.1,0.3-0.1,0.4-0.2
			C35,8.1,35.2,8,35.3,8c0.3-0.1,0.5-0.2,0.7-0.2c0.4-0.1,0.6-0.2,0.6-0.2c0,0-0.4,0.1-0.9,0.2C35.3,7.8,34.7,8,34.2,8.2z"/>
		
			<linearGradient id="SVGID_00000079458627106538894260000016846406063353187723_" gradientUnits="userSpaceOnUse" x1="22.1747" y1="-6.5129" x2="76.5487" y2="69.5051">
			<stop  offset="0" style="stop-color:#F34B2C"/>
			<stop  offset="1" style="stop-color:#D5CE47"/>
		</linearGradient>
		<path style="fill:url(#SVGID_00000079458627106538894260000016846406063353187723_);" d="M33.4,9.6c-0.8,0.3-1.3,0.6-1.4,0.7
			c-0.1,0.1,0.2,0,0.6-0.2c0.2-0.1,0.5-0.2,0.7-0.3c0.3-0.1,0.6-0.2,0.9-0.3c0.4-0.1,0.7-0.3,0.9-0.4C35.3,9,35.4,9,35.5,8.9
			c0,0-0.1,0-0.2,0c-0.1,0-0.1,0-0.2,0c-0.1,0-0.2,0-0.2,0.1C34.5,9.2,34,9.4,33.4,9.6z"/>
		
			<linearGradient id="SVGID_00000060001371533816754390000010515318274230522251_" gradientUnits="userSpaceOnUse" x1="17.4444" y1="-3.1294" x2="71.8184" y2="72.8885">
			<stop  offset="0" style="stop-color:#F34B2C"/>
			<stop  offset="1" style="stop-color:#D5CE47"/>
		</linearGradient>
		<path style="fill:url(#SVGID_00000060001371533816754390000010515318274230522251_);" d="M29.5,10.8c-0.1,0-0.4,0.2-1.4,0.7
			c-1.1,0.7-1.5,1-1.6,1c0,0,0.4-0.2,1.1-0.6c0.1-0.1,0.3-0.2,0.4-0.2c0.1-0.1,0.2-0.1,0.3-0.2c0.2-0.1,0.4-0.2,0.5-0.3
			C29.2,11,29.4,10.9,29.5,10.8z"/>
		
			<linearGradient id="SVGID_00000060713805044219621990000017991917848339663524_" gradientUnits="userSpaceOnUse" x1="2.2212" y1="7.7594" x2="56.5951" y2="83.7774">
			<stop  offset="0" style="stop-color:#F34B2C"/>
			<stop  offset="1" style="stop-color:#D5CE47"/>
		</linearGradient>
		<path style="fill:url(#SVGID_00000060713805044219621990000017991917848339663524_);" d="M58,85c-1.1,0.3-2.5,0.6-2.7,0.7
			c-0.1,0,0.5-0.1,1.2-0.2l0.3-0.1c0.1,0,0.2,0,0.3-0.1c0.2,0,0.4-0.1,0.5-0.1c0.4-0.1,0.7-0.2,1-0.3c0.6-0.2,1-0.4,1.2-0.4
			c0.1,0-0.1,0-0.4,0.1c-0.2,0-0.4,0.1-0.6,0.2C58.6,84.9,58.3,85,58,85z"/>
		
			<linearGradient id="SVGID_00000023994718177081482130000000893992598068715929_" gradientUnits="userSpaceOnUse" x1="46.1679" y1="-23.6747" x2="100.5418" y2="52.3433">
			<stop  offset="0" style="stop-color:#F34B2C"/>
			<stop  offset="1" style="stop-color:#D5CE47"/>
		</linearGradient>
		<path style="fill:url(#SVGID_00000023994718177081482130000000893992598068715929_);" d="M82,26.1c-0.2-0.4-0.3-0.6-0.4-0.8
			c-0.1-0.2-0.2-0.3-0.2-0.3c-0.1-0.1,0,0-0.1,0c0,0.1,0,0,0,0.1c0,0,0,0.1,0.1,0.3c0.1,0.1,0.2,0.3,0.3,0.6
			c0.1,0.3,0.3,0.5,0.4,0.8c0.1,0.1,0.1,0.2,0.2,0.4c0.1,0.1,0.1,0.2,0.2,0.3c0.6,1.1,0.1,0,0.1-0.1C82.6,27.4,82.5,27.1,82,26.1z"
			/>
		
			<linearGradient id="SVGID_00000013900280353635073420000008380046379284363411_" gradientUnits="userSpaceOnUse" x1="22.7942" y1="-6.956" x2="77.1682" y2="69.062">
			<stop  offset="0" style="stop-color:#F34B2C"/>
			<stop  offset="1" style="stop-color:#D5CE47"/>
		</linearGradient>
		<path style="fill:url(#SVGID_00000013900280353635073420000008380046379284363411_);" d="M77,71c0.3-0.3,0.4-0.4,0.7-0.7
			c0.3-0.3,0.6-0.7,1.2-1.5c0.1-0.1,0.2-0.2,0.2-0.4c0-0.1,0.1-0.1,0.1-0.1c0,0,0-0.1,0-0.1c0,0-0.1,0.1-0.4,0.4
			c-0.2,0.3-0.5,0.6-0.9,1c-0.1,0.1-0.2,0.3-0.4,0.4c-0.1,0.1-0.1,0.2-0.2,0.2c-0.1,0.1-0.1,0.2-0.2,0.2c-0.3,0.3-0.6,0.7-1.1,1.2
			C76.2,71.9,76.7,71.3,77,71z"/>
		
			<linearGradient id="SVGID_00000007401995091460074200000001642736780971571858_" gradientUnits="userSpaceOnUse" x1="-10.1391" y1="16.6005" x2="44.2349" y2="92.6184">
			<stop  offset="0" style="stop-color:#F34B2C"/>
			<stop  offset="1" style="stop-color:#D5CE47"/>
		</linearGradient>
		<path style="fill:url(#SVGID_00000007401995091460074200000001642736780971571858_);" d="M9.1,43.6c0,1,0,1.9,0,1.9
			c0,0,0-0.2,0.1-0.6c0-0.1,0-0.2,0-0.3c0-0.1,0-0.3,0-0.4c0-0.3,0-0.6,0-0.9c0-0.1,0-0.3,0-0.4c0-0.1,0-0.2,0-0.3
			c0-0.2,0-0.4,0-0.5c0-0.2,0-0.3,0-0.3c0,0-0.1,0.1-0.1,0.4c0,0.2,0,0.4-0.1,0.6C9.1,43,9.1,43.3,9.1,43.6z"/>
		
			<linearGradient id="SVGID_00000108306655007792425390000003695638826061450686_" gradientUnits="userSpaceOnUse" x1="-2.7174" y1="11.2919" x2="51.6566" y2="87.3098">
			<stop  offset="0" style="stop-color:#F34B2C"/>
			<stop  offset="1" style="stop-color:#D5CE47"/>
		</linearGradient>
		<path style="fill:url(#SVGID_00000108306655007792425390000003695638826061450686_);" d="M11.8,31.2c-0.1,0.3-0.2,0.6-0.3,0.9
			c-0.1,0.3-0.1,0.5-0.2,0.6c-0.1,0.3-0.1,0.5-0.1,0.5c0,0,0.1-0.1,0.2-0.4c0.1-0.3,0.2-0.7,0.5-1.3c0.2-0.6,0.4-0.9,0.4-1.2
			c0.1-0.2,0.1-0.3,0.1-0.3c0,0-0.1,0-0.2,0.2C12.2,30.4,12,30.7,11.8,31.2z"/>
		
			<linearGradient id="SVGID_00000061465771880510004990000008633880765639024062_" gradientUnits="userSpaceOnUse" x1="-14.1609" y1="19.4772" x2="40.2131" y2="95.4951">
			<stop  offset="0" style="stop-color:#F34B2C"/>
			<stop  offset="1" style="stop-color:#D5CE47"/>
		</linearGradient>
		<path style="fill:url(#SVGID_00000061465771880510004990000008633880765639024062_);" d="M8.8,52.7c-0.1-0.6-0.2-1.1-0.3-1.7
			c0-0.3-0.1-0.6-0.1-0.9c0-0.3-0.1-0.6-0.1-0.9c0,0.5,0,1,0.1,1.5c0,0.2,0.1,0.4,0.1,0.7c0,0.3,0.1,0.6,0.2,0.9
			c0.1,0.7,0.2,1,0.3,1.1C9,53.6,9,53.3,8.8,52.7z"/>
		
			<linearGradient id="SVGID_00000026140056750615466630000002460392115094156160_" gradientUnits="userSpaceOnUse" x1="-15.8447" y1="20.6816" x2="38.5292" y2="96.6995">
			<stop  offset="0" style="stop-color:#F34B2C"/>
			<stop  offset="1" style="stop-color:#D5CE47"/>
		</linearGradient>
		<path style="fill:url(#SVGID_00000026140056750615466630000002460392115094156160_);" d="M22.8,74.7c0.8,0.6,1.5,1.2,1.5,1.1
			c0,0-0.2-0.2-0.6-0.5c-0.2-0.1-0.4-0.3-0.6-0.5c-0.1-0.1-0.2-0.2-0.4-0.3c-0.1-0.1-0.3-0.2-0.4-0.3c-0.8-0.7-1.1-1-1.2-1
			c0,0,0.2,0.2,0.5,0.5c0.1,0.1,0.3,0.3,0.5,0.5c0.1,0.1,0.2,0.2,0.3,0.3c0.1,0,0.1,0.1,0.2,0.1C22.6,74.6,22.7,74.7,22.8,74.7z"/>
		
			<linearGradient id="SVGID_00000156551996326228549980000010535109461191364515_" gradientUnits="userSpaceOnUse" x1="2.6718" y1="7.4371" x2="57.0458" y2="83.4551">
			<stop  offset="0" style="stop-color:#F34B2C"/>
			<stop  offset="1" style="stop-color:#D5CE47"/>
		</linearGradient>
		<path style="fill:url(#SVGID_00000156551996326228549980000010535109461191364515_);" d="M59.5,83.5c-0.4,0.1-0.8,0.2-1.1,0.4
			c-0.4,0.1-0.8,0.2-1.2,0.3c-0.2,0.1-0.4,0.1-0.6,0.2c-0.2,0-0.4,0.1-0.7,0.1c-0.2,0.1-0.5,0.1-0.7,0.2c-0.2,0.1-0.5,0.1-0.7,0.2
			c0.2,0,0.5-0.1,0.7-0.1c0.2,0,0.5-0.1,0.7-0.1c0.2,0,0.4-0.1,0.7-0.1c0.2,0,0.4-0.1,0.7-0.2c0.4-0.1,0.9-0.2,1.3-0.3
			c0.4-0.1,0.9-0.3,1.3-0.4c0.3-0.1,0.6-0.2,0.6-0.2c0,0-0.1,0-0.2,0.1C60,83.3,59.8,83.4,59.5,83.5z"/>
		
			<linearGradient id="SVGID_00000142874935745367521090000013506104157766831502_" gradientUnits="userSpaceOnUse" x1="-12.4944" y1="18.2852" x2="41.8796" y2="94.3031">
			<stop  offset="0" style="stop-color:#F34B2C"/>
			<stop  offset="1" style="stop-color:#D5CE47"/>
		</linearGradient>
		<path style="fill:url(#SVGID_00000142874935745367521090000013506104157766831502_);" d="M34.1,81.6c0.9,0.3,1.2,0.4,0.9,0.2
			c-0.1,0-0.3-0.1-0.6-0.2c-0.1,0-0.3-0.1-0.4-0.1c-0.1-0.1-0.3-0.1-0.4-0.1c-0.4-0.1-0.8-0.3-1.3-0.5c-0.4-0.2-0.9-0.4-1.3-0.6
			c-0.4-0.2-0.8-0.4-1.2-0.5c-0.3-0.2-0.6-0.3-0.7-0.3c0.4,0.2,0.8,0.4,1.2,0.6l0.2,0.1l0.2,0.1c0.1,0,0.2,0.1,0.3,0.1
			c0.2,0.1,0.4,0.2,0.6,0.3l0.6,0.3c0.2,0.1,0.4,0.2,0.6,0.2C33.2,81.2,33.6,81.4,34.1,81.6z"/>
		
			<linearGradient id="SVGID_00000042723238661338538870000015327485824129992887_" gradientUnits="userSpaceOnUse" x1="-13.8955" y1="19.2873" x2="40.4785" y2="95.3053">
			<stop  offset="0" style="stop-color:#F34B2C"/>
			<stop  offset="1" style="stop-color:#D5CE47"/>
		</linearGradient>
		<path style="fill:url(#SVGID_00000042723238661338538870000015327485824129992887_);" d="M29.1,79.4
			C29.1,79.4,29.1,79.4,29.1,79.4C29.1,79.4,29.1,79.4,29.1,79.4L29.1,79.4C29.1,79.4,29.1,79.4,29.1,79.4L29.1,79.4z"/>
		
			<linearGradient id="SVGID_00000172441870136061114200000016366406652335256732_" gradientUnits="userSpaceOnUse" x1="-8.6872" y1="15.562" x2="45.6867" y2="91.5799">
			<stop  offset="0" style="stop-color:#F34B2C"/>
			<stop  offset="1" style="stop-color:#D5CE47"/>
		</linearGradient>
		<path style="fill:url(#SVGID_00000172441870136061114200000016366406652335256732_);" d="M42.8,87.2c1,0.1,1.5,0.1,1.3,0.1
			c-0.1,0-0.2-0.1-0.5-0.1c-0.3,0-0.7-0.1-1.3-0.2c-1-0.1-1.3-0.1-1.5-0.1C41.1,87,41.6,87.1,42.8,87.2z"/>
		
			<linearGradient id="SVGID_00000054961118949909595650000018191888653657649086_" gradientUnits="userSpaceOnUse" x1="32.8864" y1="-14.1747" x2="87.2604" y2="61.8432">
			<stop  offset="0" style="stop-color:#F34B2C"/>
			<stop  offset="1" style="stop-color:#D5CE47"/>
		</linearGradient>
		<path style="fill:url(#SVGID_00000054961118949909595650000018191888653657649086_);" d="M84.6,58c0.1-0.4,0.3-0.9,0.4-1.3
			c0.1-0.2,0.1-0.3,0.1-0.5c0-0.1,0-0.2,0-0.2c0,0-0.1,0.2-0.2,0.5c-0.1,0.3-0.3,0.8-0.4,1.2c-0.2,0.6-0.4,1.1-0.5,1.4
			c-0.1,0.4-0.2,0.6-0.2,0.6c0,0.1,0.1-0.1,0.2-0.4c0.1-0.2,0.2-0.4,0.3-0.6c0-0.1,0.1-0.3,0.2-0.4C84.5,58.3,84.5,58.1,84.6,58z"/>
		
			<linearGradient id="SVGID_00000172421661493963499860000002062466308690314145_" gradientUnits="userSpaceOnUse" x1="44.7761" y1="-22.6791" x2="99.15" y2="53.3388">
			<stop  offset="0" style="stop-color:#F34B2C"/>
			<stop  offset="1" style="stop-color:#D5CE47"/>
		</linearGradient>
		<path style="fill:url(#SVGID_00000172421661493963499860000002062466308690314145_);" d="M71.8,14.9c-0.5-0.4-0.9-0.7-1.2-0.9
			c-0.3-0.2-0.5-0.3-0.4-0.2c0.1,0.1,0.3,0.2,0.6,0.5c0.3,0.3,0.7,0.6,1.2,1c0.8,0.7,1.3,1.1,1.3,1.1c-0.1-0.1-0.2-0.2-0.5-0.5
			c-0.1-0.1-0.3-0.2-0.4-0.4c-0.1-0.1-0.2-0.2-0.3-0.3C72,15.1,71.9,15,71.8,14.9z"/>
		
			<linearGradient id="SVGID_00000131344211613280422550000007538999906256293817_" gradientUnits="userSpaceOnUse" x1="46.8168" y1="-24.1389" x2="101.1908" y2="51.8791">
			<stop  offset="0" style="stop-color:#F34B2C"/>
			<stop  offset="1" style="stop-color:#D5CE47"/>
		</linearGradient>
		<path style="fill:url(#SVGID_00000131344211613280422550000007538999906256293817_);" d="M86.3,31.1c0.2,0.6,0.3,1,0.4,1.2
			c0.1,0.3,0.1,0.4,0.2,0.4c0,0,0-0.1-0.1-0.4c0-0.1-0.1-0.3-0.2-0.6c0-0.1,0-0.1-0.1-0.2c0-0.1,0-0.1-0.1-0.2
			c-0.1-0.1-0.1-0.3-0.2-0.5c-0.2-0.4-0.3-0.8-0.4-1c-0.1-0.3-0.2-0.4-0.2-0.4c0,0,0,0.1,0.1,0.4C86,30.2,86.1,30.6,86.3,31.1z"/>
		
			<linearGradient id="SVGID_00000153706668839675817000000013354074522888377497_" gradientUnits="userSpaceOnUse" x1="-15.7993" y1="20.6491" x2="38.5747" y2="96.667">
			<stop  offset="0" style="stop-color:#F34B2C"/>
			<stop  offset="1" style="stop-color:#D5CE47"/>
		</linearGradient>
		<path style="fill:url(#SVGID_00000153706668839675817000000013354074522888377497_);" d="M31.1,84.5c0.1,0-0.1-0.1-0.3-0.2
			c-0.3-0.1-0.7-0.3-1.2-0.6c-0.3-0.1-0.5-0.2-0.7-0.3c-0.2-0.1-0.4-0.2-0.6-0.3c-0.3-0.2-0.5-0.2-0.7-0.3c-0.2-0.1,0.3,0.2,1.2,0.7
			c0.7,0.3,1.2,0.5,1.6,0.7c0.2,0.1,0.3,0.1,0.5,0.2C30.9,84.5,31,84.5,31.1,84.5z"/>
		
			<linearGradient id="SVGID_00000141429276132642923420000000025360235565147281_" gradientUnits="userSpaceOnUse" x1="21.4387" y1="-5.9864" x2="75.8126" y2="70.0315">
			<stop  offset="0" style="stop-color:#F34B2C"/>
			<stop  offset="1" style="stop-color:#D5CE47"/>
		</linearGradient>
		<path style="fill:url(#SVGID_00000141429276132642923420000000025360235565147281_);" d="M29.2,4.3c0.9-0.4,1.2-0.5,1.3-0.6
			c0.2-0.1,0-0.1-1.3,0.4c-0.2,0.1-0.4,0.2-0.6,0.3c-0.2,0.1-0.4,0.2-0.6,0.3c-0.3,0.2-0.6,0.3-0.7,0.4c-0.2,0.1,0.1,0,0.5-0.2
			c0.2-0.1,0.4-0.2,0.7-0.3C28.7,4.6,28.9,4.4,29.2,4.3z"/>
		
			<linearGradient id="SVGID_00000064331500326647187820000015654217031437170604_" gradientUnits="userSpaceOnUse" x1="44.2132" y1="-22.2765" x2="98.5871" y2="53.7415">
			<stop  offset="0" style="stop-color:#F34B2C"/>
			<stop  offset="1" style="stop-color:#D5CE47"/>
		</linearGradient>
		<path style="fill:url(#SVGID_00000064331500326647187820000015654217031437170604_);" d="M63.4,4.5c0.2,0.1,0.5,0.2,0.7,0.3
			c0.2,0.1,0.3,0.1,0.5,0.2c0.2,0.1,0.4,0.1,0.3,0.1c-0.1-0.1-0.6-0.4-1.6-0.7c-0.5-0.2-0.9-0.3-1.1-0.4c-0.3-0.1-0.4-0.1-0.4-0.1
			c0.1,0,0.2,0.1,0.5,0.2C62.6,4.2,63,4.3,63.4,4.5z"/>
		
			<linearGradient id="SVGID_00000152978321567404792740000001445183161607640499_" gradientUnits="userSpaceOnUse" x1="31.1307" y1="-12.9189" x2="85.5046" y2="63.0991">
			<stop  offset="0" style="stop-color:#F34B2C"/>
			<stop  offset="1" style="stop-color:#D5CE47"/>
		</linearGradient>
		<path style="fill:url(#SVGID_00000152978321567404792740000001445183161607640499_);" d="M41.2,1.4c0.9-0.1,1.5-0.2,1.7-0.2
			c0.3-0.1-0.3,0-1.5,0.1c-0.8,0.1-1.5,0.2-1.6,0.3C39.4,1.6,40.1,1.5,41.2,1.4z"/>
		
			<linearGradient id="SVGID_00000011734672297375180960000002221881111844063651_" gradientUnits="userSpaceOnUse" x1="5.7784" y1="5.215" x2="60.1524" y2="81.233">
			<stop  offset="0" style="stop-color:#F34B2C"/>
			<stop  offset="1" style="stop-color:#D5CE47"/>
		</linearGradient>
		<path style="fill:url(#SVGID_00000011734672297375180960000002221881111844063651_);" d="M59.1,82.5c0,0,0.1,0,0.3-0.1
			c0.1,0,0.2-0.1,0.4-0.1c0.1,0,0.1,0,0.2-0.1c0.1,0,0.2-0.1,0.2-0.1c0.7-0.2,1.2-0.5,1.6-0.6c0.3-0.2,0.5-0.2,0.4-0.2
			c0,0-0.2,0.1-0.4,0.2c-0.2,0.1-0.6,0.2-0.9,0.3c-0.3,0.1-0.5,0.2-0.7,0.3c-0.1,0-0.1,0-0.2,0.1c-0.1,0-0.1,0-0.1,0
			c-0.1,0-0.2,0.1-0.3,0.1C59.2,82.4,59.1,82.4,59.1,82.5z"/>
		
			<linearGradient id="SVGID_00000085949130235752362770000001640241903785390509_" gradientUnits="userSpaceOnUse" x1="14.2666" y1="-0.8564" x2="68.6405" y2="75.1616">
			<stop  offset="0" style="stop-color:#F34B2C"/>
			<stop  offset="1" style="stop-color:#D5CE47"/>
		</linearGradient>
		<path style="fill:url(#SVGID_00000085949130235752362770000001640241903785390509_);" d="M79.5,22.2c-0.3-0.3,0.1,0.3-1.1-1.2
			c-1.6-1.9-3.3-3.7-5.1-5.3c-0.2-0.2-0.4-0.4-0.6-0.6c-0.1-0.1-0.2-0.2-0.3-0.3c-0.1-0.1-0.2-0.2-0.3-0.3c-0.4-0.4-0.8-0.7-1.3-1
			c-0.4-0.3-0.8-0.6-1.2-0.9c-0.1-0.1-0.2-0.1-0.3-0.2c-0.1-0.1-0.2-0.1-0.3-0.2c-0.2-0.1-0.4-0.3-0.5-0.4c-0.2-0.1-0.3-0.2-0.5-0.3
			c-0.2-0.1-0.3-0.2-0.5-0.3c-0.3-0.2-0.7-0.4-1-0.6c-0.3-0.2-0.6-0.4-0.8-0.5c-0.2-0.1-0.3-0.2-0.4-0.2c-0.1-0.1,0.1,0,0.5,0.2
			c1.1,0.5,1.6,0.8,1.6,0.8c0,0-0.2-0.2-0.6-0.4c-0.2-0.1-0.4-0.2-0.7-0.4c-0.3-0.2-0.6-0.3-1-0.5c0,0-0.1,0-0.1,0
			c0,0-0.2,0-0.6-0.2c-0.2-0.1-0.5-0.2-0.8-0.4c-0.4-0.2-0.8-0.4-1.3-0.6C62,8.2,61.6,8,61.3,7.9c-0.2-0.1-0.3-0.1-0.5-0.2
			c-0.1-0.1-0.3-0.1-0.4-0.1c-0.5-0.2-0.8-0.3-1-0.4C58.9,7.1,59,7,59.1,7c-1.9-0.6-1.8-0.6-1.4-0.5l-0.5-0.2l-0.5-0.1
			c-1.3-0.3-1.5-0.3-0.8,0c0.4,0.1,0.5,0.2-0.4,0c-0.1,0-0.2,0-0.3-0.1c-0.1,0-0.2,0-0.3,0c-0.2,0-0.3-0.1-0.5-0.1
			c-0.3-0.1-0.5-0.1-0.7-0.2c-0.1,0-0.2-0.1-0.4-0.1c-0.1,0-0.3,0-0.4-0.1c-0.3,0-0.5-0.1-0.8-0.1c-0.1,0-0.3,0-0.4,0
			c-0.1,0-0.2,0-0.3,0c-0.1,0-0.2,0-0.3,0c-0.2,0-0.6,0-0.9,0c-0.2,0-0.4,0-0.6,0c-0.2,0-0.5,0-0.8,0c-0.7,0-1,0-1.1,0
			c0,0-0.1,0-0.1,0c0,0-0.2,0.1-1.1,0.1c-0.2,0-0.5,0-0.8,0c-0.3,0-0.6,0-0.8,0c-0.5,0-1,0.1-1,0.1c0,0-0.3,0.1-0.2,0.1
			c0.1,0,0.5,0,1.7,0c0.1,0,0.3,0,0.4,0c0.1,0,0.3,0,0.4,0c0.3,0,0.5,0,0.7,0c0.4,0,0.7,0,0.4,0.1c-0.2,0-0.5,0-0.9,0
			c-0.3,0-0.7,0-1.1,0c-0.3,0-0.6,0-0.9,0c-0.3,0-0.6,0-0.9,0.1C43.2,6,42.9,6,42.6,6c-0.3,0-0.6,0.1-0.9,0.1
			c-1.3,0.2-2.6,0.4-4,0.8L37,7.1l-0.3,0.1c-0.1,0-0.2,0.1-0.3,0.1c-0.4,0.2-1,0.4-1.7,0.6c-0.3,0.1-0.7,0.3-1.1,0.4
			c-0.2,0.1-0.4,0.1-0.6,0.2c-0.2,0.1-0.4,0.1-0.6,0.2c-0.6,0.2-0.4,0.1,0.1-0.1C32.6,8.5,32,8.7,31.4,9C31.3,9,31.1,9.1,31,9.1
			c-0.1,0.1-0.2,0.1-0.3,0.1c-0.2,0.1-0.3,0.2-0.5,0.2c-0.2,0.1-0.3,0.1-0.3,0.1c0,0,0.2-0.2,0-0.1c0.1-0.1,0.3-0.1,0.5-0.3
			c0.2-0.1,0.4-0.2,0.6-0.4c0.3-0.1,0.7-0.3,1-0.4c0.3-0.1,0.7-0.3,1.1-0.4c-0.4,0.1-0.7,0.3-1.1,0.4l-1,0.4c-0.2,0-0.2,0-0.7,0.2
			c0.5-0.2,0.5-0.2,0.7-0.2c-0.2,0.1-0.4,0.2-0.6,0.4c-0.2,0.1-0.4,0.2-0.5,0.3l-0.4,0.2c-0.1,0-0.1,0.1-0.2,0.1L29,9.9l-0.9,0.5
			c-0.1,0.1,0,0.1-0.4,0.3c-0.2,0.1-0.3,0.2-0.5,0.3c-0.2,0.1-0.4,0.2-0.5,0.3c-0.4,0.2-0.7,0.4-0.9,0.5c-0.2,0.1-0.5,0.3-0.9,0.5
			c-0.2,0.1-0.4,0.3-0.6,0.4c-0.2,0.2-0.5,0.4-0.8,0.6c-0.2,0.1-0.5,0.4-0.7,0.5c-0.1,0.1-0.2,0.2-0.3,0.3c-0.1,0.1-0.2,0.2-0.4,0.3
			c-0.2,0.2-0.5,0.4-0.7,0.6c-0.2,0.2-0.4,0.4-0.6,0.5c-0.2,0.2-0.3,0.3-0.3,0.3c-0.2,0.3-0.1,0.3,0.6-0.3c0.1-0.1,0.1-0.1,0.2-0.2
			c0.1-0.1,0.1-0.1,0.2-0.2c0.1-0.1,0.3-0.2,0.4-0.3c0.3-0.2,0.6-0.5,0.9-0.7c0.3-0.2,0.6-0.5,0.9-0.7c0.3-0.2,0.6-0.5,0.9-0.7
			c0.2-0.2,0.3-0.3,1.1-0.8c0.2-0.1,0.3-0.2,0.4-0.2c0.1-0.1,0.2-0.1,0.3-0.2c0.1-0.1,0.2-0.1,0.3-0.1c0.1,0,0,0,0,0
			c0.3-0.2,0.6-0.3,0.8-0.5c0.2-0.1,0.4-0.2,0.5-0.2c0.2-0.1,0.2-0.1,0.1,0.1c0.2-0.1,0.4-0.2,0.5-0.2c0.1,0,0.1,0,0,0.1
			c-0.1,0.1-0.2,0.1-0.4,0.3c-0.1,0.1-0.2,0.1-0.4,0.2c-0.1,0.1-0.3,0.2-0.4,0.3c-1.3,0.8-1.4,0.8-1,0.5c0.1-0.1,0.4-0.3,0.6-0.4
			c-0.3,0.2-0.8,0.4-1,0.5c-0.3,0.2-0.6,0.3-0.9,0.5c-0.1,0.1-0.3,0.2-0.4,0.3c-0.1,0.1-0.3,0.2-0.4,0.3c-0.3,0.2-0.6,0.4-0.9,0.7
			c-0.1,0.1-0.3,0.2-0.5,0.4c-0.2,0.1-0.3,0.3-0.4,0.4c-0.3,0.3-0.6,0.6-1,0.9c-0.4,0.3-0.8,0.7-1.2,1.1c-0.2,0.2-0.3,0.3-0.5,0.5
			c0.3-0.3,0,0.1-0.4,0.6c0,0-0.1,0.2-0.3,0.4c-0.1,0.1-0.2,0.3-0.4,0.4c-0.2,0.2-0.3,0.4-0.5,0.6c-0.2,0.2-0.4,0.5-0.6,0.7l0.6-0.7
			c0.1-0.1,0.2-0.1,0.3-0.2c0.1-0.1,0.2-0.2,0.3-0.3c0.1-0.1,0.2-0.2,0.3-0.3c0.2-0.2,0.3-0.3,0.5-0.5c0.3-0.3,0.5-0.5,0.7-0.7
			c0.8-0.8,1.7-1.5,1.8-1.5c0,0-0.2,0.2-0.5,0.5c-0.3,0.3-0.8,0.7-1.1,1.1c-0.3,0.4-0.9,1-1.3,1.4c-0.2,0.2-0.3,0.4-0.3,0.4
			c0,0,0.1-0.1,0.4-0.3c0.3-0.3,1.3-1.2,0.1,0.1c-1.5,1.7-1.4,1.5-1.5,1.5c-0.7,0.8-1.1,1.3-1.1,1.3c-0.2,0.2-0.3,0.4-0.4,0.5
			c-0.1,0.2-0.2,0.3-0.3,0.4c-0.2,0.3-0.4,0.5-0.5,0.6c-0.1,0.1-0.2,0.2-0.3,0.3c-0.1,0.1-0.1,0.1-0.1,0.1c-0.3,0.4-0.5,0.8-0.8,1.2
			c-0.1,0.1-0.1,0.2-0.2,0.3c-0.1,0.1-0.1,0.2-0.2,0.3c-0.1,0.2-0.3,0.5-0.4,0.7c-0.1,0.2-0.2,0.4-0.2,0.5c0,0.1-0.1,0.2-0.1,0.3
			c-0.1,0.2-0.2,0.4-0.4,0.9c-0.1,0.2-0.2,0.4-0.2,0.5c-0.1,0.2-0.1,0.3-0.2,0.5c-0.1,0.3-0.3,0.7-0.5,1c-0.1,0.1-0.1,0.2-0.2,0.3
			c0,0.1-0.1,0.2-0.1,0.3c-0.3,0.7-0.5,1.1-0.4,0.9c0-0.1,0.1-0.3,0.3-0.7c0.1-0.4,0.4-0.9,0.7-1.6l0,0c0.1-0.3,0.3-0.6,0.4-0.9
			c0,0,0,0,0-0.1c0,0,0,0.1,0,0.1c-0.2,0.3-0.3,0.6-0.4,0.9c-0.1,0.3-0.3,0.5-0.4,0.8c-0.1,0.1-0.1,0.3-0.2,0.4
			c-0.1,0.1-0.1,0.3-0.2,0.4c-0.2,0.5-0.4,1-0.6,1.5c-0.2,0.5-0.3,0.9-0.4,1.4c0,0.1-0.1,0.2-0.1,0.3c0,0.1-0.1,0.2-0.1,0.3
			c-0.1,0.2-0.1,0.4-0.1,0.6c-0.1,0.3-0.1,0.6-0.2,1c-0.1,0.4-0.2,0.8-0.3,1.5c-0.1,0.3-0.1,0.5-0.2,0.8c-0.1,0.2-0.1,0.4-0.1,0.6
			c-0.1,0.3-0.1,0.3,0-0.1C9.4,36,9,37.9,8.9,37.8C8.7,38.6,8.6,39,8.6,39c0,0,0-0.5,0.2-1.5c0.1-0.4,0.1-0.5,0-0.5c0,0,0,0,0-0.1
			c-0.1,0.7-0.2,0.7-0.2,0.6c0,0.1-0.1,0.3-0.1,0.5c-0.1,0.4-0.2,0.8-0.2,1c0,0.2-0.1,0.3-0.1,0.1c0-0.2,0-0.4,0-0.5
			c0-0.1,0-0.1,0-0.1c0,0-0.1,0.1-0.2,0.1l0-0.2c0,0.1,0,0.1,0,0.2c-0.2,1.1-0.3,2.1-0.4,3.2c0,0.2,0,0.3,0,0.5c0,0.2,0,0.3,0,0.5
			c0,0.3,0,0.7,0,1.1c0,0.2,0,0.4,0,0.5c0,0.2,0,0.4,0,0.6c0,0.4,0,0.7,0,1.1c0,0.1,0,0.3,0,0.4c0,0.2,0,0.3,0,0.5
			c0,0.3,0.1,0.7,0.1,1c0,0.1,0,0.2,0,0.3c0,0.1,0,0.2,0,0.3c0,0.2,0,0.4,0.1,0.6c0,0.2,0,0.5,0.1,0.7c0,0.1,0,0.2,0,0.4
			c0,0.1,0,0.3,0.1,0.4c0.1,0.4,0.1,0.8,0.2,1.2c0,0.1,0,0.2,0,0.3c0,0.1,0,0.2,0.1,0.3c0,0.2,0.1,0.4,0.1,0.5
			c0.1,0.4,0.2,0.7,0.2,1.1c0.1,0.3,0.2,0.7,0.3,1.1c0,0,0.1,0,0-0.5c-0.2-0.6-0.3-1.2-0.4-1.8c-0.1-0.3-0.1-0.5-0.1-0.7
			c0-0.2,0-0.3,0-0.3c0,0,0,0.1,0,0.2c0,0,0,0.1,0,0.1c0,0.1,0,0.1,0,0.2c0.1,0.3,0.1,0.6,0.2,0.9c0.1,0.4,0.2,0.8,0.3,1.2
			C8.9,54.7,9,54.9,9,55.1c-0.1-0.4-0.2-0.8-0.3-1.1c-0.1-0.3-0.1-0.5,0-0.4c0.1,0.3,0.2,0.7,0.3,1.2c0.1,0.5,0.2,1,0.4,1.5
			c0,0,0.1,0.2,0.1,0.2c-0.1-0.6-0.1-0.9-0.1-0.7c0,0.1,0.1,0.3,0.3,0.7c0.1,0.2,0.1,0.4,0.2,0.7c0,0.1,0.1,0.3,0.1,0.4
			c0.1,0.1,0.1,0.3,0.2,0.5c0.4,0.8,0.4,0.9,1.8,3.9c0.1,0.2,0.3,0.5,0.4,0.8c0.2,0.3,0.4,0.7,0.6,1c-0.1-0.4-0.2-0.5,0.5,0.6
			l0.7,0.9c-0.1-0.2-0.4-0.8,0.2,0.2c0.1,0.1,0.2,0.2,0.2,0.4c0.1,0.1,0.1,0.2,0.2,0.3c0.1,0.2,0.2,0.3,0.3,0.4
			c0.1,0.2,0.2,0.3,0.2,0.4c0.1,0.2,0.3,0.4,0.4,0.6c0.1,0.2,0.3,0.4,0.4,0.6c0.1,0.2,0.3,0.4,0.4,0.6c0.1,0.2,0.3,0.4,0.4,0.5
			c0.5,0.6,0.9,1.1,1,1.3c0.3,0.3,0.5,0.6,0.8,0.9c0.3,0.3,0.5,0.5,0.6,0.7c0.1,0.1,0.2,0.2,0.2,0.2c0,0-0.1-0.1-0.2-0.2
			c-0.2-0.1-0.4-0.4-0.6-0.7c-0.2-0.2-0.4-0.4-0.6-0.6c1.3,1.4,1.3,1.5,0.3,0.5l0.7,0.8c0.4,0.4,0.8,0.8,1.2,1.2
			c0.1,0.1,0.2,0.2,0.3,0.2c0.1,0.1,0.2,0.2,0.3,0.2c0.2,0.2,0.4,0.3,0.6,0.5c0.4,0.3,0.7,0.6,1,0.9c0.2,0.2,0.1,0.2,0.1,0.1
			c-0.3-0.1-0.3,0,0.2,0.5c0.1,0.1,0.3,0.3,0.5,0.4c0.1,0.1,0.2,0.2,0.3,0.3c0.1,0.1,0.2,0.2,0.4,0.3c0.5,0.4,1.2,0.9,2,1.5
			c0.5,0.3,0.7,0.5,0.9,0.6c0.2,0.1,0.2,0.1,0,0.1l0.4,0.3c0.3,0.2,0.6,0.4,0.9,0.6c0.2,0.1,0.3,0.2,0.5,0.3
			c0.2,0.1,0.3,0.2,0.5,0.3c0.3,0.2,0.7,0.3,1,0.5c0.4,0.2,0.7,0.3,1.1,0.5c0.2,0.1,0.5,0.2,0.6,0.2c0.2,0.1,0.3,0.1,0.3,0
			c-0.3-0.1-0.4-0.2-0.4-0.2c0,0,0,0,0.1,0c0.2,0.1,0.8,0.3,1.4,0.5l0.5,0.2c0.2,0.1,0.3,0.1,0.5,0.1l0.9,0.3c0.1,0,0.2,0,0.4,0
			l0.2,0c0.1,0,0.1,0,0.2,0c0.3,0,0.4,0,0.4-0.1c0,0,0.2,0,1,0.2c0.1,0,0.2,0.1,0.3,0.1c0.1,0,0.2,0,0.3,0.1c0.2,0,0.4,0.1,0.5,0.1
			c0.3,0.1,0.6,0.2,0.8,0.2c0.2,0.1,0.3,0.1,0.5,0.1c0.2,0,0.4,0.1,0.7,0.1c0.2,0,0.5,0.1,0.8,0.2c0.3,0,0.6,0.1,0.9,0.1
			c-0.4-0.1-0.1-0.1,0.9,0c0.1,0,0.2,0,0.4,0c0.1,0,0.3,0,0.4,0c0.3,0,0.6,0,0.9,0.1c0.2,0,0.3,0,0.5,0c0.2,0,0.3,0,0.5,0
			c0.3,0,0.7,0,1,0c0.4,0,0.6,0,0.8,0c0.2,0,0.3,0,0.3,0c0,0-0.2,0.1-0.6,0.1c-0.1,0-0.3,0-0.4,0c-0.2,0-0.3,0-0.5,0
			c-0.3,0-0.7,0-1.1,0c-0.4,0-0.8-0.1-1.2-0.1c-0.2,0-0.4,0-0.6,0c-0.2,0-0.4,0-0.6-0.1c0.2,0-0.3,0-0.8-0.1l0.8,0.1l-0.8-0.1
			c-0.1,0-0.3,0-0.4,0c-0.2,0-0.3-0.1-0.5-0.1c-0.4-0.1-0.8-0.1-1.2-0.2c0,0-0.1,0-0.1,0c-0.1,0-0.1,0-0.1,0c0.8,0.2,1,0.3,0.6,0.4
			l0.9,0.2l0.4,0.1c0.1,0,0.3,0,0.4,0.1c0.3,0,0.8,0.1,1.3,0.1c0.2,0,0.5,0,0.7,0.1c0.2,0,0.4,0,0.5,0.1c0.2,0,0.3,0,0.5,0.1
			c0.1,0,0.2,0,0.3,0c0.1,0,0.2,0,0.3,0c0.4,0,0.8,0,1.3,0.1c0.2,0,0.4,0,0.6,0c0.2,0,0.4,0,0.6,0c0.4,0,0.7,0,0.9,0
			c0.3,0,0.6,0,0.9,0c0.5,0,1-0.1,1.4-0.1c0.4,0,0.8-0.1,1.1-0.1c0.3,0,0.6-0.1,0.8-0.1c0.2,0,0.3,0,0.4,0c0.2,0,0.1,0,0.1,0l0,0
			l0.9-0.1l0.5-0.1l0.5-0.1c0.5-0.1,1-0.2,1.5-0.3l1.5-0.4c0.3-0.1,0.6-0.2,0.8-0.3c0.2-0.1,0.5-0.1,0.6-0.2
			c0.4-0.1,0.7-0.2,0.8-0.3c0.4-0.1,0.5-0.1,0.5-0.1c0.7-0.2,1-0.3,1.2-0.4c0.3-0.1,0.5-0.2,0.8-0.3c0.4-0.2,0.7-0.3,1-0.4
			c0.2-0.1,0.3-0.1,0.3-0.1c0,0-0.1,0-0.2,0.1c-0.2,0.1-0.4,0.2-0.8,0.4c-0.3,0.2-0.7,0.3-0.9,0.4c-0.3,0.1-0.5,0.2-0.8,0.3
			c-0.5,0.2-0.8,0.3-1.1,0.4c-0.6,0.2-0.8,0.2-1.1,0.3l-0.7,0.2c-0.2,0.1-0.5,0.1-0.7,0.2L57,83.9c-0.2,0.1-0.5,0.1-0.7,0.2
			c-0.3,0.1-0.7,0.2-1,0.2c-0.3,0.1-0.6,0.2-0.9,0.2c-0.6,0.1-1.1,0.2-1.6,0.3c-0.5,0.1-0.9,0.2-1.3,0.2c-0.4,0.1-0.7,0.1-1,0.2
			c0.1,0,0.2,0,0.3,0c0.1,0,0.2,0,0.3,0c0.2,0,0.4,0,0.6,0c0.4,0,1-0.1,1.8-0.2c0.5-0.1,0.9-0.1,1.3-0.2c0.3-0.1,0.6-0.1,0.8-0.1
			c0.4-0.1,0.5-0.1,0.4,0c-0.1,0-0.3,0.1-0.6,0.2c-0.1,0-0.2,0.1-0.3,0.1c-0.1,0-0.3,0.1-0.4,0.1c-0.3,0.1-0.7,0.1-1.3,0.2
			c-0.2,0-0.4,0.1-0.6,0.1c-0.2,0-0.3,0-0.4,0c-0.2,0-0.4,0-0.5,0c-0.2,0-0.2,0-0.1-0.1c0.1,0-0.2,0-0.8,0c-0.5,0-1.1,0-1.5,0
			c-0.5,0-1,0-1.4,0.1c-0.2,0-0.5,0-0.7,0c-0.1,0-0.2,0-0.3,0c-0.1,0-0.2,0-0.3,0c-0.4,0-1.5,0-1.6,0c-0.1,0-0.5-0.1-1-0.2
			c-0.3,0-0.6-0.1-0.9-0.1c-0.3,0-0.7-0.1-1-0.2c-0.2,0-0.4-0.1-0.6-0.1c-0.2,0-0.4-0.1-0.6-0.1c-0.4-0.1-0.8-0.2-1.2-0.2
			c-0.2,0-0.4-0.1-0.6-0.1c-0.2,0-0.4-0.1-0.5-0.1c-0.4-0.1-0.7-0.2-1-0.3c-0.3-0.1-0.6-0.2-0.9-0.2c-0.3-0.1-0.6-0.2-0.9-0.3
			c-0.1,0-0.3-0.1-0.4-0.1c-0.1,0-0.3-0.1-0.4-0.1c-0.3-0.1-0.6-0.2-0.8-0.3c-0.3-0.1-0.2,0-0.3,0.1c0,0,0,0-0.2,0
			c-0.1,0-0.4-0.1-0.8-0.2l0,0.1c-0.1,0-0.1,0,0.2,0.2c0.1,0,0.2,0.1,0.3,0.1c0.1,0.1,0.3,0.1,0.5,0.2c0.2,0.1,0.5,0.2,0.7,0.3
			c0.3,0.1,0.6,0.2,1,0.3c-0.1-0.1,0-0.1,0.4,0c0.2,0,0.4,0.1,0.6,0.1c0.3,0.1,0.6,0.1,0.9,0.2c0.1,0,0.5,0.1,1.4,0.3
			c0.3,0.1,0.5,0.1,0.7,0.1c0.2,0,0.4,0.1,0.5,0.1c0.3,0.1,0.4,0.1,0.4,0.1c0.2,0,0.4,0.1,0.6,0.1l0.6,0.1c0.4,0.1,0.9,0.1,1.3,0.2
			c0.4,0,0.9,0.1,1.3,0.1c0.2,0,0.4,0,0.6,0.1c0.2,0,0.4,0,0.6,0c0.4,0,0.9,0,1.3,0.1c0.4,0,0.8,0,1.2,0c0.7,0,1.3,0,1.6,0
			c0.3,0,1.8,0-0.5,0.2c-2,0.1-3.5,0.1-5.3-0.1c-0.5-0.1-1-0.1-1.5-0.2c-0.3,0-0.5-0.1-0.8-0.1c-0.1,0-0.3,0-0.4-0.1
			c-0.1,0-0.3,0-0.4-0.1c-0.6-0.1-1.2-0.2-1.8-0.4c-0.3-0.1-0.7-0.2-1-0.3c-0.2,0-0.4-0.1-0.6-0.1c-0.1,0-0.2,0-0.3-0.1
			c-0.1,0-0.2-0.1-0.3-0.1c-0.3,0-0.8-0.2-1.6-0.4l-1.8-0.6c-0.6-0.2-1.2-0.4-1.7-0.7l0,0c0.6,0.2,1.2,0.5,1.7,0.7l1.8,0.6
			c0.4,0.1,0.4,0.2,0.2,0.2c0.1,0.1,0.4,0.1,0.7,0.2c0.2,0.1,0.4,0.1,0.5,0.2c0.1,0,0.2,0.1,0.3,0.1c0.1,0,0.2,0.1,0.3,0.1
			c0.8,0.2,1.4,0.4,1.2,0.4c0.1,0,0.2,0.1,0.4,0.1c1.2,0.3,2,0.4,0.2,0.2l0.1,0.1c0.6,0.1,0.7,0.1,0.5,0.1c0.5,0.2,0.6,0.2,0,0.1
			c-0.3,0-0.8-0.1-1.5-0.3c-0.4-0.1-0.8-0.2-1.3-0.3c-0.5-0.1-1-0.3-1.6-0.4c-0.1,0-0.3-0.1-0.4-0.1c-0.1,0-0.2,0-0.3-0.1
			c-0.2,0-0.3-0.1-0.5-0.1c-0.2,0-0.4-0.1-0.7-0.2c-0.1,0-0.3-0.1-0.5-0.2c-0.2-0.1-0.4-0.2-0.7-0.3c-0.3-0.1-0.5-0.2-0.8-0.3
			l-0.4-0.1c-0.1-0.1-0.3-0.1-0.4-0.2c-0.5-0.2-1-0.4-1.5-0.7c-0.5-0.3-1-0.5-1.5-0.8c-0.1-0.1-0.2-0.1-0.4-0.2
			c-0.1-0.1-0.2-0.1-0.3-0.2c-0.2-0.1-0.5-0.3-0.7-0.4c-0.4-0.2-0.7-0.4-0.8-0.5c-0.2-0.1-0.2-0.2-0.2-0.2c0,0,0.1,0,0.3,0.1
			c0.2,0.1,0.5,0.2,0.8,0.4c0.2,0.1,0.5,0.2,1.1,0.5c0.3,0.1,0.6,0.3,1,0.5c0.2,0.1,0.4,0.2,0.6,0.3c0.1,0.1,0.2,0.1,0.3,0.2
			c0.1,0.1,0.2,0.1,0.3,0.2l0.9,0.4c0.3,0.1,0.6,0.3,0.9,0.4c0,0,0,0,0.2,0c0-0.1-0.6-0.4,1.2,0.3l-0.1-0.1
			c-0.5-0.2-0.9-0.4-1.4-0.5c-0.4-0.2-0.9-0.4-1.3-0.6c-0.4-0.2-0.7-0.3-1-0.4c-0.3-0.1-0.5-0.2-0.6-0.3c-0.3-0.2-0.4-0.2-0.5-0.3
			c-0.1-0.1,0.2,0.1,0.2,0c0-0.1,0.2,0,0.6,0.2c0.2,0.1,0.5,0.2,0.8,0.4c0.3,0.1,0.7,0.3,1.1,0.5l0.6,0.2c0.2,0.1,0.4,0.1,0.6,0.2
			l-0.3-0.2c-0.6-0.2-1.1-0.5-1.7-0.7c-0.2-0.1-0.4-0.2-0.6-0.3c-0.2-0.1-0.3-0.2-0.4-0.2c-0.3-0.1-0.4-0.2-0.5-0.3
			c-0.2-0.1-0.1-0.1,0.2,0c1.3,0.6,1.5,0.6,3.3,1.3l-0.2-0.1l-0.2-0.1l-0.4-0.2l-0.8-0.4c-0.1-0.1-0.2-0.1-0.4-0.2
			c-0.1-0.1-0.2-0.1-0.3-0.2c-0.2-0.1-0.4-0.2-0.6-0.3c-0.4-0.2-0.7-0.3-1-0.5c-0.6-0.3-1-0.5-1.3-0.7c-0.2-0.1-0.3-0.2-0.5-0.3
			c-0.1-0.1-0.3-0.2-0.4-0.3c-0.3-0.2-0.6-0.4-0.9-0.7c-0.1-0.1-0.2-0.1-0.3-0.2c-0.1-0.1-0.2-0.2-0.4-0.3c-0.3-0.2-0.6-0.4-0.9-0.7
			c-0.1-0.1,0,0-0.1,0c0,0-0.2-0.1-0.8-0.6c0.4,0.4,0.2,0.3,0,0.2c-0.1-0.1-0.1,0,0.1,0.2c0.1,0.1,0.2,0.2,0.3,0.3
			c0.1,0.1,0.3,0.2,0.4,0.3c0.3,0.2,0.7,0.5,1.1,0.8c0.4,0.3,0.8,0.6,1.2,0.8c0.2,0.1,0.3,0.2,0.5,0.3c0.2,0.1,0.3,0.2,0.5,0.3
			c0.3,0.2,0.4,0.3,0.3,0.2c-0.1,0-0.3-0.1-0.6-0.3c-0.1,0-0.1-0.1-0.2-0.1c-0.1,0-0.2-0.1-0.2-0.1c-0.2-0.1-0.3-0.2-0.5-0.3
			c-0.3-0.2-0.7-0.4-1-0.7c-0.3-0.2-0.7-0.5-1-0.7c-0.7-0.5-1.2-0.9-1.7-1.4c-0.1-0.1-0.3-0.2-0.4-0.4c-0.2-0.1-0.3-0.3-0.5-0.4
			c-0.3-0.3-0.7-0.6-1.1-0.9c-0.5-0.5-0.9-0.8-1.2-1.1c-0.1-0.1-0.3-0.3-0.4-0.4c-0.1-0.1-0.2-0.2-0.2-0.3c-0.2-0.2-0.5-0.7-1-1.2
			c-0.1-0.1-0.1-0.1-0.2-0.2c-0.1-0.1-0.1-0.1-0.2-0.2c-0.1-0.1-0.3-0.3-0.4-0.5c-0.3-0.3-0.5-0.6-0.8-1c-0.2-0.2-0.4-0.5-0.5-0.7
			c0.2,0.2,0.4,0.4,0.5,0.6c0.1,0.2,0.3,0.3,0.5,0.6c-0.2-0.2-0.3-0.4-0.5-0.6c-0.1-0.2-0.3-0.3-0.5-0.6c0.2,0.2,0.3,0.5,0.5,0.7
			l-0.3-0.2c0.1,0.2,0.2,0.3,0.3,0.5c0.1,0.1,0.2,0.3,0.3,0.4c0.2,0.2,0.3,0.4,0.5,0.6c0.2,0.3,0.4,0.5,0.4,0.5
			c0.3,0.4,0.7,0.8,1.1,1.2c0.2,0.2,0.3,0.4,0.5,0.5c0.2,0.2,0.3,0.3,0.4,0.4c0.2,0.2,0.1,0.2-0.1,0c-0.1-0.1-0.3-0.3-0.5-0.5
			c-0.2-0.2-0.5-0.5-0.7-0.8c-1.1-1.1,0,0.2-0.2,0.2c0.1,0.2,0.3,0.4,0.6,0.7c0.1,0.2,0.3,0.3,0.5,0.5c0.2,0.2,0.3,0.4,0.5,0.5
			c0.2,0.2,0.5,0.4,0.7,0.7c0.4,0.3,0.9,0.8,1.4,1.2c0.2,0.2,0.4,0.4,0.6,0.5c0.2,0.1,0.2,0.2,0.3,0.2c0,0-0.1,0-0.2-0.1
			c-0.1-0.1-0.2-0.1-0.3-0.2c-0.1,0-0.1-0.1-0.2-0.1c-0.1,0-0.1-0.1-0.2-0.1c-0.5-0.4-1-0.9-1.4-1.3l-0.2,0c0.6,0.6,1.2,1.1,1.7,1.5
			c0.5,0.4,0.9,0.8,1.4,1.1c0.1,0.1,0.2,0.2,0.3,0.3c0.1,0.1,0.2,0.2,0.3,0.2c0.2,0.2,0.4,0.3,0.6,0.5c0.2,0.2,0.4,0.3,0.7,0.5
			c0.2,0.2,0.5,0.3,0.8,0.5c1,0.7,0.8,0.6,0.1,0.2c-1.3-0.8-0.1,0,0.3,0.4c0.1,0.1,0.2,0.1,0.3,0.2c0.1,0,0.1,0.1,0.2,0.1
			c0.1,0,0.1,0.1,0.1,0.1c0.2,0.1,0.4,0.2,0.5,0.3c0.3,0.2,0.6,0.4,0.8,0.5c0.2,0.1,0.4,0.2,0.5,0.3c0.1,0.1,0.2,0.1,0.2,0.1
			c0,0-0.1,0-0.2-0.1c-0.1,0-0.1-0.1-0.2-0.1c-0.1,0-0.2-0.1-0.3-0.2c-0.2-0.1-0.5-0.3-0.9-0.5c-0.2-0.1-0.4-0.2-0.6-0.3
			c-0.2-0.1-0.4-0.2-0.7-0.4c-0.6-0.3-1.3-0.7-2-1.2c-0.3-0.2-0.7-0.5-1.1-0.7c-0.3-0.3-0.7-0.5-1-0.8c-0.7-0.5-1.3-1.1-1.9-1.6
			c-0.1-0.1-0.3-0.2-0.4-0.4c-0.1-0.1-0.2-0.2-0.3-0.3c-0.2-0.2-0.4-0.4-0.6-0.6l-0.1-0.2c-0.4-0.4-0.6-0.6-0.6-0.7
			c-0.1-0.1,0-0.1,0-0.1l-1.3-1.4c-1.8-2-1.8-1.7-1.5-1.2c0.4,0.5,1,1.3,0.8,1c-0.1-0.1-0.2-0.3-0.4-0.5c-0.1-0.1-0.2-0.2-0.3-0.4
			c-0.1-0.1-0.2-0.3-0.3-0.4c-0.2-0.3-0.4-0.5-0.5-0.7c-0.2-0.3-0.4-0.6-0.6-0.8c-0.1-0.1-0.1-0.1-0.1-0.2c0,0,0.1,0.1,0.1,0.2
			c0.1,0.2,0.3,0.5,0.6,0.8c-0.1-0.1,0,0-0.1,0c0,0-0.1-0.1-0.2-0.2c-0.1-0.1-0.1-0.2-0.2-0.3c-0.1-0.1-0.2-0.2-0.3-0.4
			c0,0.1,0.5,0.8,0.9,1.4c0.1,0.1,0.2,0.2,0.3,0.4c0,0.1,0.1,0.1,0.1,0.2c0,0.1,0.1,0.1,0.1,0.2c0.2,0.2,0.3,0.4,0.5,0.6
			c0.3,0.3,0.4,0.5,0.3,0.4c-0.1-0.1-0.4-0.4-0.7-0.8c-0.1-0.1-0.2-0.2-0.3-0.3c-0.1-0.1-0.2-0.2-0.2-0.3c-0.2-0.2-0.3-0.4-0.5-0.6
			c-0.2-0.3-0.4-0.6-0.6-0.8c-0.2-0.3-0.4-0.5-0.5-0.8c-0.3-0.5-0.5-0.8-0.6-1c-0.1-0.2-0.2-0.4-0.4-0.6l-0.4-0.7
			c-0.1-0.2-0.3-0.5-0.4-0.7l-0.5-0.8c0.2,0.5,0.2,0.7,0.3,0.8c0,0.2,0.1,0.3,0.4,1c0.2,0.4,0,0.2-0.3-0.3c-0.2-0.3-0.4-0.7-0.7-1.1
			c-0.1-0.2-0.3-0.5-0.4-0.7c-0.1-0.3-0.3-0.5-0.4-0.8c-0.5-1-0.6-1-0.8-1.2c-0.1-0.2-0.2-0.3-0.4-0.8c-0.1-0.2-0.2-0.6-0.4-1.1
			c-0.2-0.5-0.4-1.1-0.7-2C5,56.6,5,56.5,5.6,58.2c-0.1-0.4-0.1-0.7-0.2-1.2c-0.1-0.4-0.2-0.9-0.3-1.5L5.4,56c0.1,0.3,0.2,0.7,0.3,1
			c0.1,0.3,0.2,0.6,0.3,0.9c0.1,0.3,0.2,0.6,0.3,0.8c0,0.1,0.1,0.3,0.1,0.4c0,0.1,0.1,0.3,0.1,0.4c0-0.1-0.1-0.3-0.1-0.4
			c-0.1-0.1-0.1-0.3-0.1-0.4c-0.1-0.3-0.2-0.5-0.3-0.8c-0.1-0.3-0.2-0.6-0.3-0.9c-0.1-0.3-0.2-0.6-0.3-1l-0.3-0.5
			c-0.2-0.6-0.3-1.1-0.4-1.7c0-0.2-0.1-0.4-0.1-0.6c0-0.2-0.1-0.4-0.1-0.6c-0.1-0.4-0.1-0.8-0.2-1.2c-0.1-0.7-0.2-1.4-0.2-2
			c0-0.3-0.1-0.5-0.1-0.8c0-0.2,0-0.4,0-0.6c0-0.3,0-0.4,0-0.3c0,0.1,0.1,0.4,0.1,0.8c0,0.4,0.1,0.8,0.1,1.3c0,0.2,0.1,0.5,0.1,0.7
			l0.1,0c0,0.2,0.1,0.4,0.1,0.6c0,0.2,0.1,0.4,0.1,0.6c0.1,0.4,0.1,0.7,0.1,1c0-0.3-0.1-0.6-0.1-1c0-0.2-0.1-0.4-0.1-0.6
			c0-0.2-0.1-0.4-0.1-0.6c0-0.3,0-0.6-0.1-0.9l-0.1-0.8c0-0.3,0-0.5-0.1-0.8l-0.1-0.8l0-0.4l0-0.2l0-0.2c0-0.4,0-0.8,0-1.3
			c0-0.2,0-0.5,0-0.7c0-0.2,0-0.5,0-0.8c0,0,0,0.1,0,0.6c0-0.5,0-0.6,0-0.6c0-1-0.1-0.8-0.1-0.2c-0.1,0.7-0.1,0.9-0.1,0.5
			c0-0.2,0-0.4,0-0.8c0-0.2,0-0.4,0-0.6c0-0.2,0-0.5,0-0.8c0,0.1-0.1,0.2-0.1,0.1c0-0.1,0-0.2,0-0.5c0-0.1,0-0.3,0-0.5
			c0-0.2,0-0.5,0.1-0.7c0.3-2.2,0.8-4.5,1.3-6.3l0.4-1.6c0.2-0.5,0.3-1,0.5-1.5c0-0.3,0.1-0.6,0.1-0.8c-0.1,0.3-0.2,0.6-0.3,0.9
			c-0.1,0.3-0.2,0.6-0.3,1c-0.1,0.2-0.1,0.3-0.2,0.5c0,0.1-0.1,0.3-0.1,0.4c-0.1,0.3-0.2,0.5-0.2,0.6c0.1-0.3,0.1-0.5,0.2-0.8
			c0-0.1,0.1-0.3,0.1-0.4l0.1-0.4c0.2-0.5,0.3-1,0.5-1.5c0.4-1,0.7-2,1.2-3c0.1-0.3,0.2-0.6,0.4-0.9c0.1-0.3,0.3-0.6,0.4-0.8
			c0.3-0.5,0.5-1,0.7-1.2c0.2-0.3,0.4-0.6,0.6-1c0.1-0.2,0.2-0.4,0.3-0.6c0.1-0.1,0.1-0.2,0.2-0.3c0.1-0.1,0.1-0.2,0.2-0.3
			c0.3-0.4,0.6-0.9,0.8-1.3l0.1-0.2l0.1-0.2c0.1-0.1,0.2-0.2,0.2-0.3c0.2-0.2,0.3-0.4,0.5-0.7c-0.5,0.6-0.7,0.8-0.8,0.9
			c-0.1,0.2-0.2,0.4-0.4,0.5c-0.1,0.2-0.2,0.4-0.3,0.5c-0.2,0.4-0.5,0.7-0.7,1.1c-0.3,0.6-0.6,1-0.6,0.9c0,0,0.1-0.2,0.2-0.5
			c0.1-0.1,0.1-0.3,0.2-0.4c0-0.1,0.1-0.2,0.1-0.2c0-0.1,0.1-0.2,0.1-0.2l1-1.5c0.3-0.5,0.7-1,1.1-1.5c0.1-0.1,0.2-0.3,0.3-0.4
			c0.1-0.1,0.2-0.2,0.3-0.3c0.2-0.2,0.3-0.4,0.4-0.5c0.3-0.3,0.4-0.5,0.5-0.6c0.2-0.3,0.3-0.3,0.5-0.4c0.5-0.5,0.9-1.1,1-1.1
			c0.1,0-0.4,0.5-0.9,1c-0.1,0.1-0.2,0.2-0.2,0.3c-0.1,0.1,0.2,0.3,0.3,0.2c0,0,0,0,0,0c0,0,0,0,0,0l0,0c0,0,0,0,0,0l0,0
			c0,0,0,0,0,0.1c0-0.1,0-0.1,0-0.1c1.1-1.3,2.3-2.6,3.6-3.7c0.2-0.2,0.5-0.4,0.7-0.6c0.1-0.1,0.2-0.2,0.3-0.3
			c0.1-0.1,0.2-0.2,0.3-0.3c0.4-0.4,0.8-0.7,1.2-1c0.5-0.4,0.7-0.6,0.6-0.5c-0.1,0.1-0.3,0.2-0.5,0.3c-0.2,0.2-0.5,0.4-0.8,0.6
			c-0.3,0.2-0.5,0.4-0.8,0.7c-0.2,0.2-0.4,0.4-0.6,0.6c-0.2,0.2-0.3,0.3-0.5,0.4c-0.3,0.2-0.4,0.4-0.5,0.4c-0.1,0,0.5-0.5,1.1-1.1
			c2.1-1.9,4.1-3.3,5.2-3.9c0.2-0.1,0.4-0.2,0.6-0.4l0.9-0.6l0.4-0.3c0.2-0.1,0.3-0.2,0.5-0.3l0.9-0.5l0.5-0.3
			c0.2-0.1,0.3-0.2,0.5-0.2c0.3-0.1,0.6-0.3,0.8-0.4c0.1-0.1,0.3-0.1,0.4-0.2c0.1-0.1,0.3-0.1,0.4-0.2c0.6-0.2,1.1-0.5,1.7-0.7
			c0.4-0.2,0.8-0.3,1.2-0.4c0.4-0.1,0.7-0.3,1-0.3C34,3.7,34.2,3.6,34,3.7c-0.4,0.2-0.4,0.2,0,0.2c0.2,0,0.5-0.1,0.9-0.2
			c0.2,0,0.4-0.1,0.6-0.2c0.2,0,0.5-0.1,0.7-0.2c0.3-0.1,0.7-0.2,1.3-0.3C38,3,38.6,2.9,39.1,2.8c2.3-0.5,4.7-0.8,7-0.9
			c0.5-0.1,0.9-0.1-0.6-0.1c-0.5,0-1.1,0.1-1.7,0.1c-0.1,0-0.3,0-0.4,0l-0.4,0c-0.3,0-0.6,0.1-0.8,0.1c-1.3,0.1,0.2-0.1,0.1-0.1
			c0,0,0.1,0,0.3-0.1c0.3,0,0.7-0.1,1.5-0.2l1.4-0.1l1.4,0c-0.2,0-1-0.1,0.7-0.1c0.5,0,0.9,0,1.4,0c0.2,0,0.5,0,0.7,0
			c0.2,0,0.5,0,0.7,0c0.2,0,0.5,0,0.7,0.1c0.1,0,0.2,0,0.4,0l0.2,0l0.2,0c0.5,0.1,1,0.1,1.5,0.2c0.3,0,0.6,0.1,0.8,0.1
			c0.2,0,0.3,0.1,0.4,0.1c0.1,0-0.1,0-0.8-0.1c-2.4-0.3-1.5-0.1-1,0c0.3,0,0.7,0.1,1,0.1l1,0.2c0.3,0,0.6,0.1,1,0.1
			c0.4,0.1,0.7,0.2,1.1,0.2c0.2,0,0.4,0.1,0.6,0.1c0.1,0,0.2,0,0.3,0.1c0.1,0,0.2,0.1,0.3,0.1c0.4,0.1,0.7,0.2,1.1,0.3
			c0,0,0.1,0,0.2,0c0.2,0,0.5,0.1,0.9,0.3c1.2,0.4,1.6,0.5,1.7,0.6c-0.1,0-0.3-0.1-0.5-0.1C61.5,4,61.4,4,61.3,4c-0.1,0,0,0,0.1,0.1
			c0.1,0,0.2,0.1,0.4,0.2c0.2,0.1,0.4,0.2,0.7,0.3c1.4,0.6,1.4,0.6,0.8,0.5c-1.2-0.3-0.8-0.3-4-1.1L58,3.5c0,0-0.1,0-0.1,0.1
			c0,0.1,0.1,0.2,0.9,0.4c0.4,0.1,0.9,0.2,1.6,0.5c0.4,0.1,0.8,0.3,1.2,0.4c0.5,0.2,1,0.4,1.6,0.6c0.2,0.1,0.3,0.1,0.5,0.2
			c0.1,0.1,0.3,0.1,0.4,0.2c0.2,0.1,0.5,0.2,0.6,0.3l0.5,0.2c0.2,0.1,0.3,0.1,0.5,0.2l0.9,0.5c0.3,0.2,0.6,0.3,0.9,0.5l0.9,0.5
			c0.2,0.1,0.5,0.3,0.8,0.4c0.3,0.2,0.6,0.4,0.9,0.6c0.3,0.2,0.7,0.4,1,0.6c0.3,0.2,0.7,0.5,1,0.7l0.8,0.5c0.1,0.1-0.3-0.4,1,0.6
			c0.1,0-0.1-0.1-0.4-0.4c-0.1-0.1-0.3-0.3-0.5-0.4c-0.2-0.1-0.4-0.3-0.6-0.5c-1.2-0.9-2.1-1.5-1.6-1.2c0.1,0.1,0.3,0.2,0.5,0.3
			c0.2,0.1,0.5,0.3,0.8,0.5c0.3,0.2,0.6,0.4,0.9,0.6c0.3,0.2,0.6,0.5,1,0.7c0.3,0.2,0.5,0.4,0.8,0.6c0.6,0.5,1.1,0.9,1.5,1.3
			c0.1,0.1,0.2,0.2,0.3,0.3c0.1,0.1,0.2,0.2,0.2,0.2c0.1,0.1,0.3,0.3,0.3,0.4c2,1.9,3.6,3.9,5,5.9c0.3,0.4,0.6,0.8,0.9,1.3
			c0.1,0.2,0.3,0.4,0.4,0.6c0.1,0.2,0.3,0.5,0.4,0.7c0.3,0.4,0.5,0.8,0.5,0.9c0,0.1-0.2-0.2-0.4-0.6c-0.1-0.2-0.3-0.4-0.4-0.7
			c-0.1-0.1-0.1-0.2-0.2-0.3c-0.1-0.1-0.1-0.2-0.2-0.3c0.2,0.3,0.3,0.5,0.3,0.7c0.1,0.2,0.1,0.3,0,0.3s-0.1-0.1-0.3-0.2
			c-0.1-0.2-0.4-0.4-0.7-0.8l0,0.2c0.3,0.4,0.6,0.9,0.7,1.2c0.2,0.3,0.2,0.4,0.2,0.4c-0.1-0.1-0.2-0.3-0.5-0.8
			c-0.1-0.1-0.2-0.3-0.2-0.4c-0.1-0.1-0.1-0.2-0.2-0.3c-0.1-0.2-0.2-0.3-0.3-0.4c-0.1-0.2-0.2-0.3-0.2-0.3c-0.2-0.4-0.4-0.6-0.5-0.8
			c-0.1-0.2-0.1-0.2-0.1-0.2c-0.3-0.4-0.6-0.8-0.9-1.2l-0.1-0.1l-0.1-0.1c-0.1-0.1-0.2-0.2-0.2-0.3c-0.2-0.2-0.3-0.4-0.4-0.5
			c-0.6-0.7-1.2-1.4-1.7-2c-0.3-0.3-0.6-0.6-0.8-0.9c-0.3-0.3-0.5-0.5-0.8-0.8c-0.1-0.1-0.1-0.1-0.2-0.2c-0.1-0.1-0.1-0.1-0.2-0.2
			c-0.1-0.1-0.2-0.2-0.4-0.3c-0.2-0.2-0.4-0.4-0.6-0.6c-0.1-0.1-0.2-0.2-0.4-0.4c-0.1-0.1-0.3-0.3-0.5-0.4c-0.4-0.3-0.8-0.6-1.2-1
			c-0.4-0.3-1-0.6-1.5-1.1c-0.3-0.2-0.6-0.4-0.9-0.6c-0.3-0.2-0.6-0.4-0.9-0.6c0.1,0.1,0.4,0.3,0,0.1c0.5,0.4-0.2-0.1-1.3-0.7
			c0,0,0,0,0.1,0.1L67.8,8c0.6,0.4,1,0.6,1.3,0.8c0.3,0.2,0.4,0.3,0.3,0.3c0,0-0.1,0-0.4-0.2c-0.2-0.1-0.5-0.3-0.9-0.4
			c-0.1,0-0.1,0-0.9-0.4C67.2,8,67.1,7.9,67,7.8c-0.1-0.1-0.2-0.1-0.3-0.2c-0.2-0.1-0.2-0.1-0.3-0.2c-0.2-0.1-0.3-0.2-0.6-0.3
			C65.7,7.1,65.5,7,65.4,7C65,6.8,64.4,6.5,64,6.4c-0.2-0.1-0.4-0.2-0.5-0.2C63.3,6,63.3,6,63.2,6c0-0.1,1.3,0.5,2.1,0.9
			c0.1,0,0.3,0.1,0.4,0.1c-0.1-0.1-0.2-0.1-0.3-0.2c-0.1,0-0.2-0.1-0.3-0.1c-0.2-0.1-0.4-0.2-0.7-0.3C64,6.2,63.5,6,63.1,5.8
			c-0.4-0.2-0.9-0.3-1.3-0.5c-0.2-0.1-0.4-0.1-0.6-0.2C61.1,5,60.9,5,60.8,4.9l0,0c-0.4-0.1-0.8-0.3-1.2-0.4l-1.2-0.3L57.8,4
			l-0.6-0.1l-1.2-0.3c-0.1,0-0.3,0-0.6-0.1c-0.3,0-0.6-0.1-1-0.2c-0.5-0.1,0,0,0.7,0.1l0-0.1c0,0-0.3-0.1-0.7-0.2
			c-0.2,0-0.4-0.1-0.7-0.1c-0.3,0-0.5-0.1-0.8-0.1l-1-0.1c-0.3,0-0.7-0.1-1-0.1l-1-0.1l-1,0c-0.1,0-0.3,0-0.4,0c0.1,0,0.3,0,0.4,0
			c-0.9,0-2.1,0-3.2,0c0,0.1,0.7,0.1-1.6,0.2c-0.1,0-0.2,0-0.2,0c-0.1,0-0.1,0-0.2,0c-0.1,0-0.2,0-0.3,0c-0.2,0-0.2,0-0.3,0
			c0,0,0.1,0,0.4,0c0.1,0,0.3,0,0.4,0c0.2,0,0.3,0,0.5,0c0.4,0,0.9,0,1.5-0.1c0.4,0,0.8,0,1.2,0c0.4,0,0.8,0,1.2,0
			c0.8,0,1.6,0,2.5,0.1c0.4,0,0.8,0.1,1.2,0.1c0.4,0.1,0.6,0.1,0.8,0.1c0.2,0-0.1,0-0.8,0c-1.1-0.1-1.5-0.1-2-0.1
			c-0.5,0-0.9,0-2.1,0c0,0,0.1,0.1,0.1,0.1c0.4,0,0.9,0,1.3,0.1c-0.4,0-0.7,0-1,0c-0.1,0-0.3,0-0.4,0c-0.1,0-0.3,0-0.4,0
			c0.1,0,0.2,0,0.4,0c0.1,0,0.3,0,0.4,0c0.3,0,0.6,0,1,0c0.6,0,1.2,0,1.8,0.1c-0.1,0-0.2-0.1,0-0.1c0.2,0,0.7,0,1.8,0.1l0,0
			c0,0,0.2,0,1,0.1c0.8,0.1,1.1,0.2,1.2,0.3c0.6,0.1,0.6,0.1,0.6,0.2c0,0,0.1,0,0.2,0.1c0.1,0,0.4,0.1,0.9,0.2
			c1.1,0.2,2.2,0.6,3.1,0.8c0.4,0.1,0.7,0.2,1.1,0.3c0.4,0.1,0.8,0.2,1.2,0.4c0.4,0.2,0.8,0.3,1.2,0.5c0.1,0,0.2,0.1,0.3,0.1
			c0.1,0,0.2,0.1,0.3,0.1c0.2,0.1,0.4,0.2,0.6,0.3c1.4,0.7,1.2,0.6-0.6-0.1c-0.1-0.1-0.2-0.1-0.4-0.2c-0.1-0.1-0.2-0.1-0.4-0.1
			c-0.2-0.1-0.5-0.2-0.7-0.3c-0.5-0.2-0.9-0.3-1.2-0.4c-0.6-0.2-0.8-0.2,0,0.1c0.3,0.1,0.6,0.2,0.8,0.3c0.2,0.1,0.4,0.1,0.5,0.2
			c0.3,0.1,0.5,0.2,0.8,0.3c0.6,0.2,1.1,0.4,1.5,0.6c0.4,0.2,0.8,0.4,1.1,0.6c0.3,0.2,0.3,0.2,0.7,0.4c0.1,0.1,0.3,0.2,0.4,0.2
			c0.2,0.1,0.3,0.2,0.5,0.3c0.4,0.2,0.8,0.5,1.2,0.7c1.4,0.9,0.4,0.2,0.4,0.2c0,0,0.4,0.2,1.1,0.6l0.4,0.2l0.4,0.2l0,0
			c-0.4-0.3-0.2-0.2,0.2,0c0.2,0.1,0.5,0.3,0.7,0.5c0.3,0.2,0.6,0.4,0.8,0.6c0.2,0.2,0.6,0.4,0.9,0.7c0.2,0.1,0.3,0.3,0.5,0.4
			c0.1,0.1,0.3,0.2,0.4,0.3c0.2,0.2,0.5,0.5,0.8,0.7c0.1,0.1,0.3,0.3,0.4,0.4c0.1,0.1,0.3,0.3,0.4,0.4c0.3,0.3,0.6,0.6,0.8,0.8
			c0.1,0.1,0.3,0.3,0.4,0.4c0.1,0.1,0.3,0.3,0.4,0.4c1,1.1,1.8,2.1,1.9,2.4l-0.1,0c0.1,0.1,0.2,0.2,0.3,0.4c0.1,0.1,0.2,0.3,0.3,0.4
			c0.2,0.3,0.4,0.5,0.6,0.9c0.1,0.2,0.2,0.3,0.4,0.5c0.1,0.2,0.3,0.4,0.4,0.6c0.3,0.5,0.7,1,1.1,1.7c0.2,0.3,0.3,0.6,0.5,0.8
			c0.1,0.2,0.2,0.4,0.3,0.5c0.1,0.3,0.2,0.4,0.1,0.3c0,0-0.1-0.1-0.1-0.2c-0.1-0.1-0.2-0.3-0.3-0.4c-0.2-0.4-0.6-0.9-1-1.6
			c0,0.1-0.5-0.6-1.1-1.3c-0.1-0.1-0.1-0.2-0.2-0.3c-0.1-0.1-0.1-0.2-0.2-0.3c-0.1-0.2-0.3-0.3-0.4-0.5c-0.2-0.3-0.4-0.4-0.4-0.4
			c0.3,0.5,0.7,1.1,0.9,1.4c0.1,0.2,0.1,0.3,0.1,0.2c0,0-0.1-0.1-0.1-0.1c0,0-0.1-0.1-0.1-0.1c0-0.1-0.1-0.1-0.2-0.2
			c-0.2-0.2,0,0,0.2,0.4c0.2,0.3,0.5,0.7,0.4,0.7c-0.2-0.2-0.3-0.4-0.4-0.6c-0.1-0.1-0.1-0.2-0.2-0.3c-0.1-0.1-0.1-0.2-0.2-0.3
			c-0.3-0.4-0.5-0.7-0.7-0.9c-0.2-0.3-0.4-0.5-0.6-0.7c-0.2-0.2-0.3-0.4-0.4-0.5c-0.4-0.5-0.5-0.6-0.3-0.5c0.1,0,0-0.1-0.2-0.3
			c-0.2-0.2-0.4-0.5-0.7-0.8c-0.2-0.3-0.5-0.6-0.7-0.7c-0.2-0.2-0.3-0.3-0.2-0.2c-0.2-0.2-0.5-0.5-0.7-0.7c-0.1-0.1-0.2-0.2-0.3-0.3
			c-0.1-0.1-0.2-0.2-0.3-0.3c-0.5-0.4-0.9-0.8-1.3-1.2c-0.4-0.4-0.9-0.7-1.3-1.1c-0.4-0.3-0.8-0.6-1.2-0.9c-0.2-0.1-0.4-0.3-0.6-0.4
			c-0.1-0.1-0.2-0.1-0.3-0.2c-0.1-0.1-0.2-0.1-0.3-0.2c-0.4-0.2-0.7-0.4-0.8-0.5c-0.4-0.2-0.2-0.1,0.8,0.6c0.2,0.1,0.2,0.2,0.2,0.2
			c0,0-0.1,0,0,0c0.6,0.4,1.1,0.8,1.7,1.2c0.3,0.2,0.7,0.5,1,0.8c0.2,0.1,0.3,0.3,0.5,0.4c0.1,0.1,0.3,0.2,0.4,0.3
			c0.2,0.2,0.1,0.1-0.2-0.1c-0.3-0.2-0.7-0.6-1-0.8c-0.1-0.1-0.2-0.1-0.3-0.2c0.4,0.4,0.5,0.5,0.1,0.3c-0.4-0.3-1.3-0.9-2.8-1.8
			c0.1,0.1,0.2,0.1,0.3,0.2c0.1,0.1,0.2,0.2,0.3,0.2c0.2,0.2,0.4,0.3,0.6,0.5c0.2,0.1,0.4,0.3,0.6,0.4c0,0,0.1,0.1,0.1,0.1
			c0,0,0.1,0.1,0.1,0.1c0.1,0.1,0.2,0.1,0.3,0.2c0.4,0.3,0.7,0.6,1.1,0.8c0,0,0.1,0.1,0.1,0.1c0,0,0.1,0.1,0.1,0.1
			c0.1,0.1,0.2,0.1,0.2,0.2c0.2,0.1,0.3,0.3,0.4,0.4c0.3,0.3,0.6,0.5,0.8,0.8c0.3,0.3,0.5,0.5,0.7,0.7c0.2,0.2,0.4,0.5,0.6,0.7
			c0.2,0.2,0.4,0.4,0.6,0.6c0.6,0.7,0.9,1-0.2,0l0,0.1c-0.1-0.1-0.4-0.3-1.4-1.4c-0.6-0.6-1.1-1-1.5-1.4c-0.2-0.2-0.4-0.4-0.7-0.5
			c-0.2-0.2-0.5-0.3-0.7-0.5c-0.2-0.1-0.3-0.1-0.5-0.2c-0.1,0-0.2-0.1-0.4-0.3c-0.2-0.2-0.5-0.4-0.9-0.6c-0.9-0.7-1.4-1-1.8-1.2
			c-0.6-0.5-0.4-0.4-0.5-0.6c-0.1-0.1-0.3-0.2-0.4-0.3c-0.5-0.3-0.9-0.5-0.9-0.5c0.1,0,0-0.1-0.3-0.3c-0.2-0.1-0.4-0.2-0.7-0.4
			c-0.3-0.1-0.7-0.3-1.1-0.6c-0.6-0.3-1.1-0.5-1.4-0.7C63,8,62.8,7.9,62.7,7.9c-0.2-0.1-0.3-0.1-0.5-0.2c-0.3-0.1-0.5-0.2-0.8-0.3
			C61.2,7.2,61,7.1,60.7,7c-0.5-0.2-0.9-0.3-1.3-0.5c-0.1,0-0.2-0.1-0.3-0.1c-0.1,0-0.2-0.1-0.3-0.1c-0.2-0.1-0.5-0.1-0.7-0.2
			C57.7,6.1,57.5,6,57.2,6c-0.3,0-0.6-0.1-0.9-0.2l-0.4,0c0.2,0.1,0.5,0.1,0.8,0.2c0.1,0,0.3,0.1,0.5,0.1c0.2,0,0.3,0.1,0.5,0.2
			c0.3,0.1,0.7,0.2,1.1,0.3c0.1,0,0.2,0.1,0.3,0.1c0.1,0,0.2,0.1,0.3,0.1c0.2,0.1,0.3,0.1,0.5,0.2c0.2,0.1,0.5,0.2,0.7,0.3
			c0.1,0,0.2,0.1,0.4,0.1c0.1,0,0.2,0.1,0.3,0.1c0.4,0.2,0.7,0.3,0.7,0.3L62.4,8l0.3,0.1l0.2,0.1l1,0.5c0.3,0.1,0.5,0.2,0.6,0.3
			c0.2,0.1,0.3,0.2,0.4,0.2c0.2,0.1,0.3,0.2,0.3,0.2c0.1,0.1-0.1,0-0.1,0c0.1,0.1,0.2,0.1,0.3,0.2c0.1,0.1,0.3,0.1,0.4,0.2
			C66,9.9,66.2,10,66.3,10c0.2,0.1,0.5,0.3,0.7,0.4c0.2,0.1,0.4,0.2,0.6,0.3c0.2,0.1,0.3,0.2,0.5,0.3c0.6,0.4,1,0.7,1.3,0.9
			c0.1,0.1,0.1,0.1,0.2,0.1c0.1,0,0.1,0.1,0.2,0.1c0.1,0.1,0.2,0.1,0.2,0.2c0.1,0.1,0.2,0.2,0.4,0.4l0,0c0.3,0.2,0.5,0.3,0.7,0.5
			c0.2,0.2,0.5,0.4,0.7,0.5c0.2,0.2,0.4,0.4,0.7,0.5c0.1,0.1,0.2,0.2,0.3,0.3c0.1,0.1,0.2,0.2,0.3,0.3c0.4,0.4,0.8,0.7,1.2,1
			c0.4,0.4,0.7,0.7,1,1c0.2,0.2,0.3,0.3,0.5,0.5c0.2,0.2,0.3,0.3,0.4,0.5c0.3,0.3,0.6,0.6,0.8,1c0.3,0.3,0.5,0.6,0.7,0.9
			c0.2,0.3,0.5,0.6,0.7,0.9c0.3,0.3,0.6,0.8,0.9,1.2C79.5,22.2,79.7,22.5,79.5,22.2z M72.3,13.3c0.2,0.2,0.4,0.3,0.6,0.4
			c0.1,0.1,0.2,0.1,0.3,0.2c0.1,0.1,0.2,0.1,0.2,0.2c-0.1-0.1-0.2-0.1-0.2-0.2c-0.1-0.1-0.2-0.1-0.3-0.2
			C72.7,13.6,72.5,13.5,72.3,13.3z M72.1,13.2c0.1,0.1,0.2,0.1,0.2,0.1C72.3,13.4,72.2,13.3,72.1,13.2z M75.9,14.9L75.9,14.9
			l0.2,0.1L75.9,14.9z M71.4,12.7c-0.5-0.3-0.9-0.6-1.3-0.9C70.5,12.1,70.9,12.4,71.4,12.7C71.4,12.7,71.3,12.7,71.4,12.7
			C71.3,12.7,71.4,12.7,71.4,12.7z M69.5,11c0.1,0,0.1,0.1,0.2,0.1l0,0C69.6,11.1,69.6,11,69.5,11z M71.2,10.9
			c0.3,0.2,0.6,0.5,1,0.8C71.8,11.4,71.5,11.2,71.2,10.9z M69.7,10.6c0.2,0.1,0.3,0.2,0.5,0.3c0.2,0.1,0.3,0.2,0.5,0.4
			c-0.2-0.1-0.3-0.2-0.5-0.4C70,10.8,69.8,10.7,69.7,10.6z M67.4,9.9c0.1,0.1,0.3,0.2,0.5,0.3c0.2,0.1,0.3,0.2,0.5,0.3
			c0.3,0.2,0.6,0.4,0.9,0.6c0.2,0.1,0.4,0.3,0.7,0.5c-0.2-0.2-0.5-0.3-0.7-0.5c-0.3-0.2-0.6-0.4-0.9-0.6c-0.2-0.1-0.3-0.2-0.5-0.3
			C67.7,10.1,67.5,10,67.4,9.9z M64.3,7.9C64.1,7.8,64.1,7.8,64.3,7.9c0.2,0,0.3,0.1,0.5,0.2c0.2,0.1,0.4,0.2,0.7,0.3
			c0,0,0.2,0.1,0.2,0.1l-0.2-0.1c-0.3-0.1-0.5-0.3-0.7-0.3C64.6,8,64.4,7.9,64.3,7.9C64.1,7.8,64.1,7.8,64.3,7.9z M61.1,5.9L61.4,6
			l0.2,0.1l0,0L61.4,6L61.1,5.9z M48,2.2c0.5,0,1,0,1.4,0.1c0.1,0,0.2,0,0.3,0c0.1,0,0.2,0,0.3,0c0.2,0,0.3,0,0.5,0.1
			c0.4,0,0.9,0.1,1.3,0.1l1.3,0.2l-1.3-0.2c-0.4,0-0.9-0.1-1.3-0.1c-0.1,0-0.3,0-0.5-0.1c-0.1,0-0.2,0-0.3,0c-0.1,0-0.2,0-0.3,0
			C49,2.3,48.5,2.2,48,2.2z M46.5,2.2c0.1,0,0.1,0,0.1,0C46.6,2.2,46.6,2.2,46.5,2.2z M46.3,2.2c0.2,0,0.4,0,0.6,0
			C46.7,2.2,46.5,2.2,46.3,2.2z M33.8,84.2l0.1-0.1c0.2,0.1,0.4,0.1,0.5,0.1c-0.1,0-0.2-0.1-0.5-0.1L33.8,84.2z M27,79.4l0.8,0.4
			c0.3,0.1,0.5,0.3,0.8,0.4c0.5,0.3,1.1,0.5,1.6,0.8c0.6,0.3,1.5,0.7,1.8,0.9c-0.3-0.2-1.2-0.6-1.8-0.9c-0.5-0.3-1.1-0.5-1.6-0.8
			c-0.3-0.1-0.5-0.3-0.8-0.4L27,79.4z M22.5,76.7c0.1,0.1,0.2,0.2,0.4,0.3c0.1,0.1,0.1,0.1,0.2,0.2c0.1,0.1,0.2,0.1,0.3,0.2
			c0.3,0.2,0.6,0.4,0.7,0.5c-0.2-0.1-0.4-0.3-0.7-0.5c-0.1-0.1-0.2-0.1-0.3-0.2C23,77.1,22.9,77,22.8,77
			C22.7,76.9,22.6,76.8,22.5,76.7z M21.5,76C21.6,76.1,21.6,76.1,21.5,76C21.6,76.1,21.6,76.1,21.5,76z M20.2,75.2l-0.4-0.3
			c-0.1,0-0.1,0-0.1,0c0,0,0,0,0.1,0L20.2,75.2z M20.2,74.8c0.1,0.1,0.1,0.1,0.1,0.1c0.3,0.2,0.5,0.5,0.7,0.6
			c-0.2-0.2-0.4-0.4-0.7-0.6L20.2,74.8z M19.8,74.5c0,0,0.1,0.1,0.1,0.1c0,0,0.1,0.1,0.1,0.1C19.9,74.6,19.9,74.6,19.8,74.5z
			 M19.6,74.2c0.2,0.2,0.1,0.2,0.2,0.3l0,0C19.7,74.4,19.7,74.3,19.6,74.2z M18.7,72.4c0.1,0.2,0.5,0.6,1,1.1
			c0.2,0.2,0.1,0.2-0.3-0.1c0.4,0.3,0.5,0.3,0.3,0.1C19.2,73,18.8,72.6,18.7,72.4z M7.2,58.7L7.2,58.7C7.1,58.5,7,58.4,7,58.5
			C7,58.4,7.1,58.5,7.2,58.7z M8.4,61.6c0,0,0-0.1,0-0.1C8.4,61.5,8.4,61.5,8.4,61.6L8.4,61.6z M9.9,62.5c0.5,1.1,0.7,1.5,0.4,0.9
			C10.6,64,10.4,63.6,9.9,62.5c-0.1-0.1-0.1-0.3-0.2-0.4c-0.1-0.1-0.1-0.3-0.2-0.4c-0.1-0.3-0.2-0.5-0.3-0.8
			c-0.1-0.3-0.2-0.6-0.3-0.9c-0.1-0.3-0.2-0.7-0.4-1c0.1,0.4,0.3,0.7,0.4,1c0.1,0.3,0.2,0.6,0.3,0.9c0.1,0.3,0.2,0.5,0.3,0.8
			c0,0.1,0.1,0.3,0.2,0.4C9.8,62.3,9.9,62.4,9.9,62.5z M12.4,67.9c-0.1-0.1-0.1-0.2-0.2-0.3c-0.1-0.1-0.1-0.2-0.2-0.3
			c-0.1-0.2-0.2-0.4-0.3-0.6c0-0.1,0-0.1,0.1,0c-0.1-0.1-0.2-0.2-0.1,0c0.1,0.2,0.2,0.4,0.3,0.6c0.1,0.1,0.1,0.2,0.2,0.3
			C12.3,67.7,12.3,67.8,12.4,67.9z M14.2,69.9c0-0.1-0.1-0.1-0.2-0.3c-0.1-0.2-0.2-0.3-0.3-0.5c-0.1-0.1-0.2-0.3-0.3-0.4
			c-0.2-0.2-0.3-0.4-0.4-0.6c-0.2-0.3-0.3-0.5-0.3-0.6c0.1,0.1,0.1,0.3,0.3,0.6c0.1,0.2,0.2,0.4,0.4,0.6c0.1,0.1,0.2,0.3,0.3,0.4
			c0.1,0.1,0.2,0.3,0.3,0.5C14.1,69.8,14.1,69.9,14.2,69.9z M13.8,68.6c-0.2-0.2-0.3-0.4-0.3-0.3c0,0,0,0.1,0.1,0.2
			c0.1,0.1,0.2,0.3,0.4,0.6c0.3,0.4,0.4,0.6,0.2,0.4c0.1,0.1,0,0-0.2-0.4c-0.2-0.3-0.3-0.5-0.4-0.6c-0.1-0.1-0.1-0.2-0.1-0.2
			C13.5,68.2,13.6,68.4,13.8,68.6z M13.8,70L13.8,70c0.2,0.3,0.5,0.6,0.7,0.9c0.2,0.3,0.5,0.6,0.7,0.8c0.2,0.3,0.5,0.5,0.7,0.8
			c0.2,0.3,0.5,0.5,0.7,0.8c-0.2-0.3-0.5-0.5-0.7-0.8c-0.2-0.3-0.5-0.5-0.7-0.8c-0.2-0.3-0.5-0.5-0.7-0.8C14.2,70.6,14,70.3,13.8,70
			z M13.1,65c0.2,0.2,0.5,0.6,1,1.4c0.3,0.4,0.5,0.7,0.7,1c0.1,0.2,0.2,0.3,0.3,0.4c0.1,0.1,0.2,0.3,0.3,0.4
			c0.4,0.5,0.6,0.8,0.9,1.1c-0.2-0.3-0.5-0.7-0.9-1.1c-0.1-0.1-0.2-0.2-0.3-0.4c-0.1-0.1-0.2-0.3-0.3-0.4c-0.2-0.3-0.5-0.6-0.7-1
			C13.5,65.6,13.2,65.2,13.1,65z M12.9,64.9l0.1,0.2c0.2,0.3,0.4,0.6,0.5,0.9c-0.2-0.3-0.4-0.6-0.5-0.9L12.9,64.9
			C12.9,64.9,12.9,64.9,12.9,64.9C12.9,64.9,12.9,64.9,12.9,64.9z M10.2,63.8c-0.4-0.9-0.3-0.9-0.3-1.1C9.9,63,9.8,62.9,10.2,63.8
			c0.2,0.5,0.4,0.8,0.6,1.2c0.1,0.2,0.2,0.3,0.2,0.5c0,0.1,0.1,0.2,0.1,0.2c0,0.1,0.1,0.2,0.1,0.2c0-0.1-0.1-0.2-0.1-0.2
			c0-0.1-0.1-0.2-0.1-0.2c-0.1-0.2-0.2-0.3-0.2-0.5C10.6,64.7,10.4,64.3,10.2,63.8z M12.2,64c0.1,0.3,0.3,0.5,0.4,0.6
			c0-0.1,0,0,0.1,0c-0.1-0.1-0.1-0.1-0.1,0C12.5,64.5,12.4,64.3,12.2,64z M12.3,62.9c0.2,0.3,0.3,0.6,0.5,0.9
			C12.6,63.5,12.5,63.2,12.3,62.9z M11,60.5C11.1,60.5,11.1,60.5,11,60.5C11.1,60.5,11.1,60.5,11,60.5z M10.7,59.4
			c0,0.1,0.1,0.1,0.1,0.1l0,0C10.7,59.5,10.7,59.5,10.7,59.4z M9.4,57c0,0.2,0.1,0.3,0.1,0.5c0,0.1,0,0.2,0.1,0.2
			c0,0.1,0.1,0.2,0.1,0.2c0.1,0.3,0.2,0.7,0.4,1c0.1,0.2,0.1,0.4,0.2,0.5c0.1,0.2,0.1,0.4,0.2,0.5c0.2,0.4,0.3,0.7,0.5,1.1
			c0.1,0.1,0.1,0.3,0.2,0.4l0.2,0.4l0.5,0.9c0.2,0.3,0.1-0.1,0-0.6l0,0c0.2,0.5,0.3,0.9,0,0.6L11.4,62l-0.2-0.4
			c-0.1-0.1-0.2-0.3-0.2-0.4c-0.2-0.4-0.3-0.8-0.5-1.1c-0.1-0.2-0.2-0.4-0.2-0.5c-0.1-0.2-0.1-0.4-0.2-0.5c-0.1-0.3-0.2-0.7-0.4-1
			c0-0.1-0.1-0.2-0.1-0.2c0-0.1,0-0.2-0.1-0.2C9.5,57.3,9.4,57.2,9.4,57z M5.6,55c0-0.2,0-0.3-0.1-0.6c-0.1-0.6-0.2-1.2-0.3-1.8
			c0.1,0.6,0.2,1.2,0.3,1.8C5.6,54.8,5.6,54.9,5.6,55z M7.9,56c0,0.1,0,0.1,0,0.1C8,56.1,8,56.1,7.9,56z M7.2,52.5
			c0-0.1-0.1-0.2-0.1-0.3c0.1,0.7,0.1,0.9,0.1,1c0,0,0-0.3-0.1-1C7.1,52.3,7.2,52.4,7.2,52.5c0.1,0.5,0.2,0.9,0.3,1.2
			c0,0.2,0.1,0.4,0.1,0.5c0,0.2,0.1,0.3,0.1,0.4c0.1,0.6,0.2,0.9,0.3,1.2c0-0.2-0.1-0.6-0.3-1.2c0-0.1-0.1-0.3-0.1-0.4
			c0-0.2-0.1-0.3-0.1-0.5C7.4,53.4,7.3,53,7.2,52.5c0-0.2,0-0.2,0-0.2c0,0.1,0.1,0.2,0.1,0.5l0,0c-0.1-0.3-0.1-0.4-0.1-0.5
			C7.2,52.3,7.2,52.3,7.2,52.5z M7.2,49.1c0,0.3,0.1,0.6,0.1,1c0-0.1,0-0.1-0.1-0.1c0-0.1,0,0,0.1,0.1C7.2,49.7,7.2,49.4,7.2,49.1z
			 M6.3,47.9c0,0.1,0,0.3,0,0.4c0,0.1,0,0.3,0,0.4c0,0.3,0.1,0.5,0.1,0.8c0,0.3,0.1,0.6,0.1,0.9c0,0.3,0.1,0.6,0.2,0.9
			c0,0.1,0,0.4,0.1,0.8c0,0.2,0.1,0.5,0.1,0.8C7,53.2,7,53.6,7.1,54c0.1,0.4,0.2,0.8,0.3,1.3c-0.1-0.5-0.2-0.9-0.3-1.3
			c-0.1-0.4-0.1-0.7-0.2-1c-0.1-0.3-0.1-0.6-0.1-0.8c-0.1-0.4-0.1-0.7-0.1-0.8c-0.1-0.3-0.1-0.6-0.2-0.9c0-0.3-0.1-0.6-0.1-0.9
			c0-0.3-0.1-0.6-0.1-0.8c0-0.1,0-0.3,0-0.4C6.3,48.1,6.3,48,6.3,47.9z M5.4,45.5L5.4,45.5c0-0.1,0,0.2,0,0.7
			C5.4,45.7,5.4,45.4,5.4,45.5z M6.4,42.1c0,0.1,0,0.2-0.1,0.2c0,0.1,0,0.2,0,0.3c0,0.1,0,0.2,0,0.3c0,0.2,0,0.3,0,0.5
			c0,0.3,0,0.7,0,1c0-0.3,0-0.6,0-1c0-0.2,0-0.3,0-0.5c0-0.1,0-0.2,0-0.3c0-0.1,0-0.2,0-0.3C6.3,42.3,6.3,42.2,6.4,42.1z M6.9,41.8
			c0,0.1,0,0.2,0,0.4C6.8,42.1,6.8,41.9,6.9,41.8z M5.7,36l-0.2,0L5.7,36c0,0.2-0.1,0.3-0.1,0.5L5.5,37l-0.2,1
			c-0.1,0.2-0.1,0.4-0.2,0.6C5,39.1,5,39.7,4.9,40.3c0,0,0,0,0,0.1C4.9,40,4.9,39.5,5,39c-0.1,0.6-0.1,1.1-0.2,1.4
			c0,0.5-0.1,1-0.1,1.5c0-0.5,0.1-1,0.1-1.5c0-0.1,0-0.1,0-0.1c0,0.2,0,0.3,0,0.5c0,0.2,0,0.3,0,0.5c0,0.3,0,0.7-0.1,1
			c0,0.7,0,1.4-0.1,2.1c0-0.7,0-1.4,0.1-2.1c0-0.4,0.1-0.7,0.1-1c0-0.2,0-0.3,0-0.5c0-0.2,0-0.3,0-0.5C5,39.7,5,39.1,5.1,38.6
			c0.1-0.2,0.1-0.4,0.2-0.6l0,0.2c0,0.2-0.1,0.4-0.1,0.5c0,0.1,0,0.3,0,0.3c0-0.1,0-0.2,0-0.3c0-0.1,0-0.3,0.1-0.5l0-0.2l0.2-1
			l0.1-0.5C5.6,36.4,5.6,36.2,5.7,36l0,0.1L5.7,36z M8.7,32.7c-0.1,0.3-0.1,0.7-0.2,1c-0.1,0.5-0.3,0.9-0.4,1.4l-0.3,1.4l0.3-1.4
			c0.1-0.5,0.2-0.9,0.4-1.4C8.5,33.4,8.6,33,8.7,32.7z M8.9,31.8L8.9,31.8c-0.1,0.3-0.2,0.8-0.2,0.9C8.7,32.6,8.8,32.1,8.9,31.8
			L8.9,31.8z M10.7,29.2c0,0.2-0.1,0.3-0.1,0.5C10.6,29.5,10.7,29.4,10.7,29.2L10.7,29.2z M11.6,27.7c0,0.1-0.1,0.1-0.1,0.2
			c0,0.1-0.1,0.1-0.1,0.2c-0.1,0.1-0.1,0.2-0.2,0.4c-0.1,0.2-0.2,0.4-0.3,0.6c0.1-0.2,0.2-0.4,0.3-0.6c0.1-0.1,0.1-0.2,0.2-0.4
			c0-0.1,0.1-0.1,0.1-0.2C11.5,27.8,11.6,27.7,11.6,27.7c0,0.1-0.1,0.1-0.1,0.2c0,0.1-0.1,0.2-0.1,0.2c0-0.1,0.1-0.2,0.1-0.2
			C11.5,27.8,11.6,27.7,11.6,27.7z M8.3,25.5c-0.1,0.1-0.2,0.3-0.3,0.4c-0.1,0.1-0.2,0.3-0.2,0.4C7.8,26.1,7.9,26,8,25.9
			C8.1,25.8,8.2,25.6,8.3,25.5L8.3,25.5z M32.9,6.6l0.2,0l0,0L32.9,6.6z M30,6.9c0.5-0.2,1.2-0.5,1.9-0.8c0.2,0,0.5-0.1,0.4-0.1
			c0.1,0-0.3,0-0.4,0.1C31.1,6.4,30.4,6.7,30,6.9z M30.6,6.8L30.6,6.8c0.3-0.1,0.6-0.3,0.8-0.3C31.2,6.5,30.9,6.6,30.6,6.8z
			 M30.2,7.5c0.2-0.1,0.4-0.2,0.8-0.3l0,0C30.7,7.4,30.4,7.5,30.2,7.5z M22.8,12c0.2-0.2,0.4-0.3,0.6-0.5c0.2-0.2,0.4-0.3,0.7-0.5
			c0.5-0.3,0.9-0.7,1.5-1c0.3-0.2,0.5-0.3,0.8-0.5c0.1-0.1,0.3-0.2,0.4-0.2c0.1-0.1,0.3-0.2,0.4-0.2C27.4,9,27.7,8.8,28,8.7
			c0.3-0.2,0.6-0.3,0.9-0.4c-0.3,0.1-0.6,0.3-0.9,0.4c-0.3,0.2-0.6,0.3-0.8,0.5c-0.1,0.1-0.3,0.1-0.4,0.2c-0.1,0.1-0.3,0.2-0.4,0.2
			c-0.3,0.2-0.5,0.3-0.8,0.5c-0.5,0.3-1,0.7-1.5,1c-0.2,0.2-0.5,0.3-0.7,0.5C23.2,11.7,23,11.9,22.8,12z M24.5,11.1L24,11.5
			c-0.2,0.1-0.4,0.3-0.6,0.4c0,0,0,0,0,0c0,0,0,0,0,0c0.2-0.2,0.4-0.3,0.6-0.4L24.5,11.1z M23.8,12.7L23.8,12.7c0,0,0.1-0.1,0.2-0.2
			C23.9,12.6,23.8,12.7,23.8,12.7z M23.7,8.8c0.1-0.1,0.2-0.1,0.3-0.2c0.1-0.1,0.2-0.1,0.3-0.2c0.2-0.1,0.5-0.3,0.7-0.4l0.4-0.4
			L24.9,8c-0.2,0.1-0.5,0.3-0.7,0.4c-0.1,0.1-0.2,0.1-0.3,0.2C23.8,8.6,23.7,8.7,23.7,8.8z M23.6,10.9L23.6,10.9
			c0.2-0.1,0.5-0.3,0.9-0.5C24.1,10.6,23.8,10.8,23.6,10.9C23.7,10.8,23.7,10.9,23.6,10.9z M18.9,14L18.9,14
			c0.1-0.1,0.3-0.3,0.4-0.4c0.1-0.1,0.2-0.2,0.4-0.3c0.3-0.2,0.5-0.4,0.7-0.6c-0.2,0.2-0.5,0.4-0.7,0.6c-0.1,0.1-0.3,0.2-0.4,0.3
			C19.2,13.7,19,13.9,18.9,14z M18.6,14.3l0.3-0.2C18.7,14.1,18.6,14.3,18.6,14.3z M19.8,15.9L19.8,15.9c0.2-0.3,0.3-0.3,0.7-0.7
			C20.1,15.6,20,15.7,19.8,15.9z M16.4,18c0.1-0.1,0.3-0.4,0.7-0.9c0.1-0.2,0.6-0.8,1.2-1.4c-0.6,0.7-1.1,1.2-1.2,1.4
			C16.7,17.6,16.5,17.9,16.4,18z M18.6,17L18.6,17l0.4-0.4L18.6,17z M16.2,20c0.1-0.1,0.2-0.2,0.3-0.4c0.1-0.1,0.2-0.2,0.3-0.3
			c0.2-0.2,0.3-0.4,0.5-0.6c0.3-0.3,0.5-0.6,0.7-0.9c-0.2,0.2-0.4,0.5-0.7,0.9c-0.1,0.2-0.3,0.4-0.5,0.6c-0.1,0.1-0.2,0.2-0.3,0.3
			C16.4,19.7,16.3,19.8,16.2,20c0.1-0.1,0.2-0.2,0.3-0.3c0.2-0.2,0.3-0.4,0.5-0.5c0.1-0.1,0.2-0.2,0.2-0.2c0.1-0.1,0.2-0.1,0.3-0.2
			c-0.1,0.1-0.2,0.1-0.3,0.2c-0.1,0-0.1,0.1-0.2,0.2c-0.1,0.1-0.3,0.3-0.5,0.5L16.2,20z M15.7,21.2c0.3-0.3,0.6-0.7,0.8-1
			C16.3,20.5,16,20.9,15.7,21.2z M13.9,19.4L13.9,19.4c-0.1,0.1-0.2,0.2-0.3,0.4c-0.1,0.1-0.2,0.2-0.2,0.3c-0.1,0.2-0.3,0.4-0.4,0.5
			c0.1-0.1,0.2-0.3,0.4-0.5c0.1-0.1,0.1-0.2,0.2-0.3C13.7,19.6,13.8,19.5,13.9,19.4z M14.5,18.5L14.5,18.5c-0.2,0.3-0.4,0.6-0.7,0.8
			C14.1,19.1,14.3,18.8,14.5,18.5z M13.6,18c0.1-0.2,0.3-0.4,0.4-0.6C13.8,17.6,13.7,17.8,13.6,18L13.6,18z M12.5,20.8
			c0.2-0.3,0.5-0.6,0.7-0.9c0.1-0.2,0.2-0.3,0.4-0.5c0.1-0.2,0.2-0.3,0.4-0.5c0.2-0.3,0.5-0.6,0.7-0.9l0.2-0.2l0.2-0.2
			c0.1-0.1,0.3-0.3,0.4-0.4c-0.1,0.1-0.3,0.3-0.4,0.4l-0.2,0.2l-0.2,0.2c-0.2,0.3-0.5,0.6-0.7,0.9c-0.1,0.2-0.2,0.3-0.4,0.5
			c-0.1,0.2-0.2,0.3-0.4,0.5C12.9,20.2,12.7,20.5,12.5,20.8c-0.1,0.1-0.2,0.1-0.1,0C12.3,21,12.3,21,12.5,20.8z M9,24
			c0.2-0.3,0.3-0.5,0.4-0.7C9.3,23.5,9.2,23.7,9,24z M11.2,24.5L11.2,24.5c-0.1,0.2-0.3,0.5-0.4,0.7c-0.1,0.3-0.3,0.5-0.4,0.7
			c0.1-0.2,0.3-0.5,0.4-0.7C10.9,25,11,24.8,11.2,24.5z M13.7,23.3c0,0-0.1,0,0-0.1C13.6,23.4,13.7,23.3,13.7,23.3
			c-0.2,0.3-0.4,0.7-0.6,1c-0.2,0.3-0.3,0.6-0.4,0.8c0.1-0.2,0.3-0.5,0.4-0.8C13.3,24,13.5,23.7,13.7,23.3z M16.5,21.2
			c-0.1,0.1-0.2,0.3-0.3,0.4l-0.3,0.4c-0.1,0.2-0.3,0.5-0.6,0.9c-0.1,0.1-0.1,0.2-0.2,0.3c-0.1,0.1-0.1,0.2-0.2,0.3
			c-0.1,0.2-0.3,0.4-0.4,0.6c0.1-0.2,0.3-0.4,0.4-0.6c0.1-0.1,0.1-0.2,0.2-0.3c0.1-0.1,0.1-0.2,0.2-0.3c0.2-0.4,0.5-0.7,0.6-0.9
			l0.3-0.4C16.3,21.5,16.4,21.4,16.5,21.2z M17.9,18.8c-0.3,0.3-0.6,0.6-0.8,0.9c-0.2,0.3-0.4,0.5-0.7,0.8c-0.3,0.4-0.6,0.8-0.9,1.3
			c0.3-0.4,0.6-0.8,0.9-1.3c0.2-0.3,0.5-0.5,0.7-0.8C17.3,19.4,17.6,19.2,17.9,18.8z M18.2,19.1L18.2,19.1c-0.1,0.1-0.3,0.3-0.4,0.5
			c-0.6,0.6-0.2,0.1,0.2-0.5c-0.4,0.5-0.8,1.1-0.2,0.5C17.9,19.4,18.1,19.2,18.2,19.1c0,0,0,0.1-0.1,0.2
			C18.1,19.2,18.2,19.1,18.2,19.1z M21,15.3c-0.5,0.5-1,0.9-1.4,1.4c-0.5,0.5-0.9,1-1.4,1.4l-0.9,1.1l0.9-1.1c0.5-0.5,0.9-1,1.4-1.4
			C20,16.2,20.5,15.8,21,15.3z M22.5,12.2c-0.2,0.1-0.3,0.3-0.5,0.4l-0.3,0.2L21.5,13c-0.3,0.3-0.6,0.6-1,0.8l0,0
			c0.3-0.3,0.6-0.6,1-0.8l0.2-0.2l0.3-0.2C22.1,12.4,22.3,12.3,22.5,12.2z M32.9,7.9c-0.1,0-0.2,0-0.2,0.1C32.6,8,32.6,8,32.5,8
			c-0.2,0.1-0.3,0.1-0.5,0.2c-0.3,0.1-0.7,0.3-1,0.4c-0.4,0.2-0.7,0.3-1.1,0.5c-0.4,0.2-0.7,0.3-1.1,0.5c-0.4,0.2-0.9,0.5-1.3,0.7
			c-0.4,0.2-0.8,0.5-1.2,0.7l-0.4,0.2l-0.2,0.1l-0.2,0.1l-0.7,0.5c-0.3,0.2-0.5,0.4-0.8,0.7c0,0.1-0.3,0.3-0.8,0.6
			c0.4-0.3,0.7-0.6,0.8-0.6c0.2-0.2,0.5-0.5,0.8-0.7l0.7-0.5l0.2-0.1l0.2-0.1l0.4-0.2c0.4-0.2,0.8-0.5,1.2-0.7
			c0.4-0.2,0.9-0.5,1.3-0.7c0.4-0.2,0.7-0.4,1.1-0.5c0.4-0.2,0.7-0.3,1.1-0.5c0.4-0.1,0.7-0.3,1-0.4c0.2-0.1,0.3-0.1,0.5-0.2
			C32.6,8,32.6,8,32.7,8C32.8,7.9,32.9,7.9,32.9,7.9c0.5-0.2,0.8-0.2,0.8-0.2C33.8,7.7,33.5,7.7,32.9,7.9z M34.9,6.8
			c-0.2,0.1-0.5,0.1-0.7,0.2C34.4,7,34.7,6.9,34.9,6.8z M42.7,4.4c0.1,0,0.2,0,0.4-0.1c0.1,0,0.2,0,0.4-0.1c0.1,0,0.2,0,0.2,0
			c0.1,0,0.2,0,0.3,0c-0.1,0-0.2,0-0.3,0c-0.1,0-0.2,0-0.2,0c-0.1,0-0.3,0-0.4,0.1C42.9,4.3,42.7,4.4,42.7,4.4z M42.7,4.5
			C42.7,4.5,42.7,4.4,42.7,4.5C42.7,4.4,42.7,4.5,42.7,4.5z M41.2,3.4c0,0,0.1,0,0.4,0C41.4,3.4,41.2,3.4,41.2,3.4L41.2,3.4z
			 M41.7,2.8L41.7,2.8c-0.1,0-0.3,0-0.4,0.1C41.4,2.9,41.5,2.8,41.7,2.8z M39.4,3.7c0.1,0,0.2,0,0.3-0.1C39.6,3.6,39.5,3.6,39.4,3.7
			z M37.4,3.5c0.1,0,0.1-0.1,0.2-0.1l0,0C37.5,3.4,37.4,3.4,37.4,3.5z M38.3,4C38.3,4,38.3,4,38.3,4C38.3,4,38.3,4,38.3,4
			c-0.8,0.1-0.9,0.2-0.9,0.1C37.4,4.2,37.5,4.2,38.3,4z M36.3,3.6c0.2,0,0.3-0.1,0.5-0.1l0,0C36.6,3.5,36.5,3.5,36.3,3.6z M38.5,5.1
			c0,0,0.1,0,0.1,0C38.6,5.1,38.5,5.1,38.5,5.1c-0.1,0-0.2,0-0.4,0.1c-0.1,0-0.2,0-0.3,0.1c-0.2,0-0.5,0.1-0.7,0.1
			c-0.5,0.1-1,0.2-1.7,0.4c0.7-0.2,1.3-0.3,1.7-0.4c0.2,0,0.5-0.1,0.7-0.1c0.1,0,0.1,0,0.2,0c0.1,0,0.1,0,0.2,0
			C38.2,5.2,38.4,5.2,38.5,5.1z M38.4,5.4c-0.4,0.1-0.7,0.1-0.9,0.2c-0.2,0-0.3,0.1-0.3,0.1c0,0,0.1,0,0.3-0.1
			C37.7,5.6,38,5.5,38.4,5.4l0.7-0.1C38.9,5.4,38.6,5.4,38.4,5.4z M36.7,5.6c0.1,0,0.3-0.1,0.6-0.1c0.1,0,0.3-0.1,0.4-0.1
			c0.2,0,0.3-0.1,0.5-0.1l0.1,0.1l-0.1-0.1c-0.2,0-0.3,0.1-0.5,0.1c-0.2,0-0.3,0.1-0.4,0.1C37,5.5,36.8,5.6,36.7,5.6z M41.1,5.5
			c-0.3,0-0.5,0.1-0.7,0.1c-0.1,0-0.2,0-0.3,0c-0.1,0-0.2,0-0.3,0.1c-0.4,0.1-0.8,0.2-1.2,0.2C38.4,6,38.2,6,38,6
			c-0.2,0-0.3,0.1-0.5,0.1c0.2,0,0.4-0.1,0.5-0.1c0.2,0,0.4-0.1,0.5-0.1c0.4-0.1,0.7-0.1,1.2-0.2c0.1,0,0.2,0,0.3-0.1
			c0.1,0,0.2,0,0.3,0C40.6,5.6,40.8,5.5,41.1,5.5z M43,5.6l-0.9,0.1c-0.3,0-0.6,0.1-0.9,0.1l0.3-0.3l-0.3,0.3c0.3,0,0.6-0.1,0.9-0.1
			L43,5.6L43,5.6z M43.5,4.5c-0.1,0-0.3,0.1-0.7,0.1c-0.6,0-1,0.1-1.3,0.1c0.3,0,0.7,0,1.3-0.1C43.2,4.6,43.4,4.5,43.5,4.5z
			 M43.7,5.2C43.6,5.2,43.6,5.2,43.7,5.2L43.7,5.2C43.6,5.2,43.6,5.2,43.7,5.2z M45.7,4c-0.2,0-0.5,0-0.8,0C45.2,4,45.5,4,45.7,4
			L45.7,4z M54.2,5.4c-0.3,0-0.5-0.1-0.8-0.1l-0.8-0.1l-0.8-0.1l-0.2,0l-0.2,0l-0.4,0c-0.3,0-0.6,0-1-0.1c-0.1,0-0.2,0-0.3,0
			c-0.1,0-0.2,0-0.3,0c-0.2,0-0.4,0-0.6,0c0.2,0,0.4,0,0.6,0c0.1,0,0.2,0,0.3,0c0.1,0,0.2,0,0.3,0c0.4,0,0.7,0,1,0.1l0.4,0l0.2,0
			l0.2,0l0.8,0.1l0.8,0.1C53.6,5.3,53.9,5.4,54.2,5.4z M54.6,5.3C54.7,5.3,54.6,5.3,54.6,5.3C54.6,5.3,54.7,5.3,54.6,5.3z M57.3,5.9
			C57,5.8,56.5,5.7,56,5.6c-0.2-0.1-0.5-0.1-0.7-0.2c-0.2,0-0.5-0.1-0.7-0.1l0,0c0.2,0,0.5,0.1,0.7,0.1c0.2,0,0.5,0.1,0.7,0.2
			C56.5,5.7,57,5.8,57.3,5.9z"/>
		
			<linearGradient id="SVGID_00000165949748463662471720000010792079527182628280_" gradientUnits="userSpaceOnUse" x1="-11.0497" y1="17.2518" x2="43.3243" y2="93.2697">
			<stop  offset="0" style="stop-color:#F34B2C"/>
			<stop  offset="1" style="stop-color:#D5CE47"/>
		</linearGradient>
		<path style="fill:url(#SVGID_00000165949748463662471720000010792079527182628280_);" d="M8.8,43.6c0,0-0.1,0.4-0.1,1.1
			c0,0.8,0,1.5,0.1,1.6c0,0.1,0-0.5,0-1.4c0-0.4,0-0.8,0-1C8.8,43.7,8.8,43.6,8.8,43.6z"/>
		
			<linearGradient id="SVGID_00000049934559645187822110000013125392820940511667_" gradientUnits="userSpaceOnUse" x1="22.0313" y1="-6.4103" x2="76.4052" y2="69.6077">
			<stop  offset="0" style="stop-color:#F34B2C"/>
			<stop  offset="1" style="stop-color:#D5CE47"/>
		</linearGradient>
		<path style="fill:url(#SVGID_00000049934559645187822110000013125392820940511667_);" d="M28.2,5.2c-0.1,0.1-0.1,0.1,0.1,0
			c0.1,0,0.2-0.1,0.4-0.2c0.2-0.1,0.4-0.2,0.6-0.3c0.5-0.2,1-0.4,1.4-0.6c0.4-0.2,0.7-0.3,0.8-0.4c0,0-0.2,0-0.4,0.1
			c-0.2,0.1-0.5,0.2-1,0.4c-0.3,0.1-0.6,0.2-0.8,0.3c-0.1,0.1-0.2,0.1-0.3,0.1c-0.1,0-0.2,0.1-0.3,0.1C28.5,5,28.3,5.1,28.2,5.2z"/>
		
			<linearGradient id="SVGID_00000114047271991685244260000014297962984743733140_" gradientUnits="userSpaceOnUse" x1="46.9494" y1="-24.2337" x2="101.3233" y2="51.7843">
			<stop  offset="0" style="stop-color:#F34B2C"/>
			<stop  offset="1" style="stop-color:#D5CE47"/>
		</linearGradient>
		<path style="fill:url(#SVGID_00000114047271991685244260000014297962984743733140_);" d="M84.9,28.4c-0.1-0.3-0.3-0.7-0.5-1
			c-0.2-0.4-0.4-0.7-0.5-0.9c-0.1-0.2-0.2-0.3-0.2-0.3c0,0,0,0,0,0.1c0,0.1,0.1,0.1,0.1,0.2c0.1,0.2,0.2,0.5,0.4,0.9
			c0.9,1.9,1.2,2.9,1.3,2.8c0.1,0.3,0.3,0.7,0.4,0.9c0.1,0.3,0.6,1.3,0.1,0c-0.1-0.4-0.3-0.8-0.4-1.1c-0.1-0.2-0.1-0.3-0.2-0.5
			c-0.1-0.1-0.1-0.3-0.2-0.4C85.1,28.7,85,28.6,84.9,28.4z"/>
		
			<linearGradient id="SVGID_00000034069253349932763320000014305815680464108184_" gradientUnits="userSpaceOnUse" x1="-8.2816" y1="15.2718" x2="46.0924" y2="91.2898">
			<stop  offset="0" style="stop-color:#F34B2C"/>
			<stop  offset="1" style="stop-color:#D5CE47"/>
		</linearGradient>
		<path style="fill:url(#SVGID_00000034069253349932763320000014305815680464108184_);" d="M44.7,88.9c-1.1-0.1-1.9-0.1-2.1-0.1
			c0,0,0.6,0.1,1.5,0.2c0.3,0,0.6,0.1,0.8,0.1c0.2,0,0.4,0,0.6,0c0.3,0,0.5,0,0.6,0C46.3,89,45.7,88.9,44.7,88.9z"/>
		
			<linearGradient id="SVGID_00000013901459891445006360000001223043862961609399_" gradientUnits="userSpaceOnUse" x1="19.3596" y1="-4.4993" x2="73.7336" y2="71.5186">
			<stop  offset="0" style="stop-color:#F34B2C"/>
			<stop  offset="1" style="stop-color:#D5CE47"/>
		</linearGradient>
		<path style="fill:url(#SVGID_00000013901459891445006360000001223043862961609399_);" d="M30.3,11.2c-0.1,0-0.1,0.1-0.2,0.1
			c-0.1,0-0.1,0.1-0.2,0.1c-0.1,0.1-0.2,0.1-0.3,0.2c-0.2,0.1-0.3,0.2-0.3,0.2c0,0,0.1,0,0.3-0.1c0.2-0.1,0.6-0.3,1-0.5
			c0.4-0.2,0.7-0.4,1-0.5c0.2-0.1,0.3-0.2,0.3-0.2C31.9,10.5,31.2,10.8,30.3,11.2z"/>
		
			<linearGradient id="SVGID_00000143596165723357595930000015343699681618260146_" gradientUnits="userSpaceOnUse" x1="-3.3534" y1="11.7468" x2="51.0206" y2="87.7647">
			<stop  offset="0" style="stop-color:#F34B2C"/>
			<stop  offset="1" style="stop-color:#D5CE47"/>
		</linearGradient>
		<path style="fill:url(#SVGID_00000143596165723357595930000015343699681618260146_);" d="M48,83.9c0.8,0,1.6-0.1,1.8-0.1
			c0.1,0-0.1,0-0.4,0c-0.1,0-0.3,0-0.5,0c-0.2,0-0.5,0-0.7,0c-0.5,0-0.9,0-1.2,0c-0.3,0-0.5,0-0.5,0c0,0,0.1,0,0.4,0
			C47.1,83.9,47.5,83.9,48,83.9z"/>
		
			<linearGradient id="SVGID_00000047042655891794812570000012619369973512899456_" gradientUnits="userSpaceOnUse" x1="48.0615" y1="-25.0292" x2="102.4355" y2="50.9888">
			<stop  offset="0" style="stop-color:#F34B2C"/>
			<stop  offset="1" style="stop-color:#D5CE47"/>
		</linearGradient>
		<path style="fill:url(#SVGID_00000047042655891794812570000012619369973512899456_);" d="M83.7,24.3c0.3,0.7,0.6,1.2,0.8,1.6
			c0.2,0.4,0.4,0.8,0.7,1.3l0.1,0.1c0.1,0.1,0.1,0.2,0.2,0.3c0.1,0.1,0.1,0.3,0.2,0.4c0.1,0.3,0.3,0.5,0.3,0.7
			c0.2,0.4,0.2,0.4-0.2-0.7c-0.2-0.5-0.4-0.9-0.5-1.2c-0.2-0.4-0.3-0.7-0.5-1c-0.1-0.1-0.2-0.3-0.2-0.4c-0.1-0.1-0.2-0.3-0.2-0.4
			c-0.1-0.2-0.3-0.5-0.4-0.7c0-0.1-0.1-0.1-0.1-0.1c-0.2-0.4-0.4-0.6-0.5-0.9c-0.1-0.2-0.2-0.4-0.3-0.5c-0.1-0.2-0.2-0.2-0.1-0.1
			c0.1,0.1,0.2,0.4,0.3,0.6C83.4,23.8,83.6,24.1,83.7,24.3z"/>
		
			<linearGradient id="SVGID_00000027562785999006844560000007836712749018192518_" gradientUnits="userSpaceOnUse" x1="-12.7695" y1="18.482" x2="41.6044" y2="94.4999">
			<stop  offset="0" style="stop-color:#F34B2C"/>
			<stop  offset="1" style="stop-color:#D5CE47"/>
		</linearGradient>
		<path style="fill:url(#SVGID_00000027562785999006844560000007836712749018192518_);" d="M3.4,40.7c0-0.4,0.1-0.8,0.1-1.1
			c0-0.3,0-0.4,0-0.3c-0.1,0.2-0.2,1-0.2,1.9c0,0.6-0.1,1.1-0.1,1.4c0,0.3,0,0.4,0,0.2c0-0.1,0-0.2,0-0.3c0-0.1,0-0.3,0-0.5
			C3.3,41.6,3.4,41.1,3.4,40.7z"/>
		
			<linearGradient id="SVGID_00000175320319457963799520000007597557478330146983_" gradientUnits="userSpaceOnUse" x1="-7.575218e-02" y1="9.4024" x2="54.2982" y2="85.4203">
			<stop  offset="0" style="stop-color:#F34B2C"/>
			<stop  offset="1" style="stop-color:#D5CE47"/>
		</linearGradient>
		<path style="fill:url(#SVGID_00000175320319457963799520000007597557478330146983_);" d="M53.3,84c0.4-0.1,0.7-0.1,1-0.2
			c0.2,0,0.4-0.1,0.3-0.1C54.5,83.7,53.9,83.8,53.3,84c-0.3,0-0.5,0-0.6,0c-0.2,0-0.3,0-0.4,0.1c-0.2,0-0.4,0.1-0.4,0.1
			c0.1,0,0.3,0,0.6,0c0.1,0,0.1,0,0.2,0c0.1,0,0.1,0,0.2,0C53,84,53.1,84,53.3,84z"/>
		
			<linearGradient id="SVGID_00000148656283654418737000000010711476266022843319_" gradientUnits="userSpaceOnUse" x1="19.9422" y1="-4.916" x2="74.3162" y2="71.1019">
			<stop  offset="0" style="stop-color:#F34B2C"/>
			<stop  offset="1" style="stop-color:#D5CE47"/>
		</linearGradient>
		<path style="fill:url(#SVGID_00000148656283654418737000000010711476266022843319_);" d="M76.6,73.6c0.5-0.5,0.9-0.9,0.8-0.9
			c-0.1,0.1-0.6,0.5-1.2,1.1c-0.1,0.1-0.2,0.2-0.3,0.3c-0.1,0.1-0.2,0.2-0.3,0.3c-0.2,0.2-0.3,0.3-0.4,0.4
			C75.4,74.8,75.8,74.4,76.6,73.6z"/>
		
			<linearGradient id="SVGID_00000041260164771143935910000005671442177781338010_" gradientUnits="userSpaceOnUse" x1="5.0773" y1="5.7165" x2="59.4513" y2="81.7344">
			<stop  offset="0" style="stop-color:#F34B2C"/>
			<stop  offset="1" style="stop-color:#D5CE47"/>
		</linearGradient>
		<path style="fill:url(#SVGID_00000041260164771143935910000005671442177781338010_);" d="M59.3,82.2c0.2-0.1,0.5-0.1,0.7-0.2
			c0.2-0.1,0.4-0.1,0.5-0.2c0.3-0.1,0.5-0.2,0.5-0.2c0,0-0.3,0.1-0.9,0.3c-0.3,0.1-0.5,0.2-0.7,0.2c-0.2,0.1-0.4,0.1-0.6,0.2
			c-0.3,0.1-0.5,0.2-0.5,0.2C58.3,82.5,58.7,82.4,59.3,82.2z"/>
		
			<linearGradient id="SVGID_00000143584164999531284670000015555583185125660047_" gradientUnits="userSpaceOnUse" x1="42.4839" y1="-21.0396" x2="96.8579" y2="54.9783">
			<stop  offset="0" style="stop-color:#F34B2C"/>
			<stop  offset="1" style="stop-color:#D5CE47"/>
		</linearGradient>
		<path style="fill:url(#SVGID_00000143584164999531284670000015555583185125660047_);" d="M87.4,41.5c-0.1-0.8-0.1-1.1-0.2-1.1
			c0,0,0,0.2,0,0.4c0,0.2,0.1,0.6,0.1,0.9c0.1,0.8,0.1,1,0.1,1.1C87.5,42.8,87.4,42.2,87.4,41.5z"/>
		
			<linearGradient id="SVGID_00000174577863935819536320000013405119470954776250_" gradientUnits="userSpaceOnUse" x1="-10.9797" y1="17.2017" x2="43.3943" y2="93.2197">
			<stop  offset="0" style="stop-color:#F34B2C"/>
			<stop  offset="1" style="stop-color:#D5CE47"/>
		</linearGradient>
		<path style="fill:url(#SVGID_00000174577863935819536320000013405119470954776250_);" d="M38.7,86.8c0.9,0.2,1.5,0.3,1.4,0.2
			C40,86.9,39.4,86.8,38.7,86.8c-0.9-0.3-1.5-0.4-1.4-0.4C37.4,86.4,38,86.6,38.7,86.8z"/>
		
			<linearGradient id="SVGID_00000042733218233874974590000017494246749198229175_" gradientUnits="userSpaceOnUse" x1="-12.9315" y1="18.5978" x2="41.4425" y2="94.6157">
			<stop  offset="0" style="stop-color:#F34B2C"/>
			<stop  offset="1" style="stop-color:#D5CE47"/>
		</linearGradient>
		<path style="fill:url(#SVGID_00000042733218233874974590000017494246749198229175_);" d="M22.8,75.3c-0.5-0.4-0.9-0.7-1.1-0.9
			c-0.2-0.2-0.2-0.1,0,0.1c0.1,0.1,0.2,0.2,0.4,0.3c0.1,0.1,0.1,0.1,0.2,0.2c0.1,0.1,0.2,0.1,0.3,0.2c0.1,0.1,0.3,0.3,0.5,0.4
			c0.1,0.1,0.2,0.2,0.4,0.3c0.1,0.1,0.1,0.1,0.2,0.2c0.1,0.1,0.2,0.1,0.3,0.2c-0.1,0,0,0.1,0.3,0.3c0.1,0.1,0.3,0.3,0.6,0.4
			c0.2,0.2,0.5,0.4,0.9,0.6c0.7,0.4,1.3,0.9,2,1.2c0.3,0.2,0.6,0.4,1,0.6c0.3,0.2,0.6,0.3,0.9,0.5c0.2,0.1,0.4,0.2,0.6,0.3
			c0.1,0.1,0.2,0.1,0.3,0.2c0.1,0,0.2,0.1,0.3,0.1c0.4,0.2,0.8,0.3,1.1,0.5c0.9,0.3,2.1,0.8,3.8,1.3c0.2,0.1,0.4,0.1,0.5,0.2
			c0.2,0,0.3,0.1,0.5,0.1c0.3,0.1,0.6,0.2,0.8,0.2c0.1,0,0.1,0,0.2,0c0.1,0,0.1,0,0.2,0c0.1,0,0.2,0,0.3,0.1c0.2,0,0.3,0,0.4,0.1
			c0.1,0-0.2-0.1-0.4-0.1c-0.2,0-0.3-0.1-0.5-0.1c-0.1,0-0.3-0.1-0.4-0.1c-0.3-0.1-0.6-0.2-0.8-0.2c-0.6-0.1-1.1-0.3-1.6-0.5
			c-0.2-0.1-0.4-0.1-0.7-0.2c-0.2-0.1-0.4-0.2-0.7-0.2c-0.2-0.1-0.4-0.2-0.7-0.2c-0.1,0-0.2-0.1-0.3-0.1l-0.2-0.1L32,81
			c-0.5-0.2-0.9-0.4-1.4-0.6c-0.1,0-0.1-0.1-0.2-0.1c-0.1,0-0.1-0.1-0.2-0.1c-0.1-0.1-0.2-0.1-0.4-0.2c-0.2-0.1-0.5-0.3-0.8-0.4
			l-0.1-0.2c-0.3-0.2-0.6-0.3-0.9-0.5c-0.3-0.1-0.5-0.3-0.6-0.4c-0.2-0.1-0.3-0.2-0.5-0.2c-0.1-0.1-0.2-0.1-0.3-0.2
			C26.5,78,26.5,78,26.3,78c-0.3-0.2-0.4-0.3-0.6-0.4l0.1,0.1l-0.1-0.1c-0.1-0.1-0.3-0.2-0.4-0.2L25,77.1c-0.1-0.1-0.2-0.2-0.5-0.4
			c-0.1-0.1-0.3-0.2-0.4-0.3c-0.1-0.1-0.2-0.1-0.2-0.2c-0.1-0.1-0.2-0.1-0.3-0.2C23.5,75.9,23.7,76,22.8,75.3z"/>
		
			<linearGradient id="SVGID_00000139998697938372911970000004734065866416284344_" gradientUnits="userSpaceOnUse" x1="-6.2369" y1="13.8093" x2="48.1371" y2="89.8272">
			<stop  offset="0" style="stop-color:#F34B2C"/>
			<stop  offset="1" style="stop-color:#D5CE47"/>
		</linearGradient>
		<path style="fill:url(#SVGID_00000139998697938372911970000004734065866416284344_);" d="M45.6,86.9c-0.5,0-0.7,0-0.7,0
			c0.2,0,0.8,0.1,1.5,0.1c0.2,0,0.4,0,0.5,0c0.1,0,0.2,0,0.3,0c0.1,0,0.1,0,0,0c-0.1,0-0.2,0-0.3,0c-0.1,0-0.2,0-0.4,0
			C46.3,86.9,45.9,86.9,45.6,86.9z"/>
		
			<linearGradient id="SVGID_00000183959615557553281350000012668582210869574789_" gradientUnits="userSpaceOnUse" x1="-9.2307" y1="15.9507" x2="45.1432" y2="91.9687">
			<stop  offset="0" style="stop-color:#F34B2C"/>
			<stop  offset="1" style="stop-color:#D5CE47"/>
		</linearGradient>
		<path style="fill:url(#SVGID_00000183959615557553281350000012668582210869574789_);" d="M3.5,35.7c0.1-0.2,0.1-0.4,0.2-0.7
			c0-0.1,0.1-0.3,0.1-0.6c0-0.1,0.1-0.2,0.1-0.4c0-0.1,0.1-0.3,0.1-0.4c0.3-1,0.2-1,0.2-1.1c0-0.2,0.1-0.3,0.1-0.3
			c0.3-1.2,0-0.3-0.3,0.8c-0.1,0.3-0.2,0.6-0.3,0.9c-0.1,0.3-0.1,0.5-0.2,0.8C3.5,35.2,3.4,35.5,3.5,35.7c-0.1,0.2-0.1,0.3-0.2,0.4
			c0,0.1,0,0.2,0,0.3c0,0.2,0,0.2,0,0.3c0,0,0-0.1,0.1-0.2c0-0.1,0-0.2,0.1-0.3c0-0.1,0-0.1,0-0.2C3.4,35.9,3.4,35.8,3.5,35.7z"/>
		
			<linearGradient id="SVGID_00000181765688026894820710000017976474578348629390_" gradientUnits="userSpaceOnUse" x1="-16.6283" y1="21.242" x2="37.7457" y2="97.26">
			<stop  offset="0" style="stop-color:#F34B2C"/>
			<stop  offset="1" style="stop-color:#D5CE47"/>
		</linearGradient>
		<path style="fill:url(#SVGID_00000181765688026894820710000017976474578348629390_);" d="M12.5,62.1c0.1,0.2,0.2,0.4,0.3,0.5
			c0.1,0.1,0.1,0.3,0.2,0.3c0.1,0.2,0.1,0.2,0.1,0.2c0.1,0.1,0.1,0.1,0.1,0c0-0.1-0.1-0.2-0.2-0.4c-0.1-0.2-0.2-0.4-0.3-0.7
			c-0.7-1.5-0.6-1.1-0.7-1.3c0,0,0,0,0,0.2C12.1,61.2,12.2,61.5,12.5,62.1z"/>
		
			<linearGradient id="SVGID_00000167378104398162281640000014673561214119382175_" gradientUnits="userSpaceOnUse" x1="41.1195" y1="-20.0637" x2="95.4935" y2="55.9543">
			<stop  offset="0" style="stop-color:#F34B2C"/>
			<stop  offset="1" style="stop-color:#D5CE47"/>
		</linearGradient>
		<path style="fill:url(#SVGID_00000167378104398162281640000014673561214119382175_);" d="M86.8,50l0,0.3c0,0.2,0,0.3,0,0.5
			c0,0.2,0,0.3,0,0.5c0,0.4-0.1,0.7,0,0.7c0,0,0-0.1,0.1-0.2c0-0.1,0-0.2,0.1-0.3c0-0.1,0.1-0.3,0.1-0.5c0.3-1.7,0.3-2.9,0.3-3.9
			l0.1-1.4c0-0.2,0-0.5,0-0.7l0-0.7c0-0.7,0-1.2,0-1.5c0-0.3-0.1-0.4-0.1-0.5c0-0.2,0-0.4-0.1-0.6c0-0.2-0.1-0.5-0.1-0.7
			c-0.1-0.5-0.1-1.1-0.3-1.7c-0.1-0.3-0.1-0.6-0.2-0.9c0-0.2-0.1-0.3-0.1-0.5l-0.1-0.5c-0.1-0.3-0.1-0.6-0.2-0.9
			c0-0.2-0.1-0.3-0.1-0.5c0-0.1-0.1-0.3-0.1-0.4c-0.2-0.6-0.3-1.1-0.4-1.4c0-0.1-0.1-0.2-0.1-0.1c0,0,0,0.1,0,0.2
			c0,0.1,0,0.2,0.1,0.4c0,0.1,0,0.3,0.2,1l0,0c0,0.1-0.1,0,0,0.5c0,0.3,0.1,0.7,0.2,1.2c0,0.1,0,0.3,0.1,0.4c0,0.1,0.1,0.3,0.1,0.5
			c0.1,0.4,0.1,0.8,0.2,1.3c0,0.2,0.1,0.3,0.1,0.5l0.1,0.5l0.1,1c0,0.3,0.1,0.7,0.1,1l0.1,1c0,0.1,0,0.2,0,0.2c0,0.1,0,0.2,0,0.3
			c0,0.2,0,0.3,0,0.5c0,0.3,0,0.6,0,0.7c0.1,0.5,0.2,0.9,0.2,1.3l0,0.9c0,0.3,0,0.6-0.1,0.9c-0.1,0.7-0.1,1.2-0.1,1.4
			C86.8,49.7,86.8,49.8,86.8,50z"/>
		
			<linearGradient id="SVGID_00000110444391929424966030000001153375469334385850_" gradientUnits="userSpaceOnUse" x1="3.5282" y1="6.8245" x2="57.9022" y2="82.8425">
			<stop  offset="0" style="stop-color:#F34B2C"/>
			<stop  offset="1" style="stop-color:#D5CE47"/>
		</linearGradient>
		<path style="fill:url(#SVGID_00000110444391929424966030000001153375469334385850_);" d="M11,19.9l0.6-0.8l0.3-0.4l0.2-0.2
			l0.2-0.2c0.2-0.3,0.5-0.6,0.8-0.9c0.1-0.2,0.3-0.3,0.4-0.5c0.1-0.2,0.3-0.3,0.4-0.5c0.2-0.3,0.2-0.2,0-0.1
			c-0.2,0.2-0.4,0.4-0.6,0.7c-0.3,0.3-0.6,0.7-0.9,1.1c-0.1,0.1-0.1,0.2-0.2,0.2c-0.1,0.1-0.1,0.2-0.2,0.3c-0.1,0.2-0.3,0.3-0.4,0.5
			c-0.3,0.4-0.5,0.7-0.7,1.1c-0.4,0.6-0.7,1.2-0.7,1.1c0,0,0.2-0.2,0.3-0.5c0.1-0.1,0.2-0.3,0.3-0.4C10.8,20.2,10.9,20.1,11,19.9z"
			/>
	</g>
</g>
</svg>
