<svg width="91" height="90" viewBox="0 0 91 90" fill="none" xmlns="http://www.w3.org/2000/svg">
<path d="M37.6676 27.5392C38.6067 28.854 39.4989 30.1218 40.4027 31.3778C39.4754 32.9039 38.6067 34.4064 37.6676 35.8855C36.7402 37.3294 35.7894 38.7733 34.7799 40.1584C34.3103 40.8041 33.6412 41.3088 33.0543 41.8606C31.9391 42.8936 30.7065 43.7388 29.2626 44.2435C26.8679 45.077 24.6728 44.6779 22.6654 43.1636C21.7498 42.471 21.1863 41.5084 20.7872 40.4519C20.3529 39.278 20.2003 38.0337 20.0242 36.8011C19.8951 35.8855 19.7659 34.9699 19.5781 34.0543C19.3903 33.1034 19.0264 32.2348 18.3455 31.507C17.9112 31.0491 17.4182 30.8026 16.7726 30.8261C15.1878 30.8731 13.967 31.6478 12.9105 32.7395C11.361 34.3477 10.328 36.2729 9.52972 38.3507C7.47543 43.7036 6.80632 49.2208 7.54586 54.9024C8.26193 60.314 10.1284 65.2912 13.2627 69.7872C15.1409 72.4636 17.336 74.8349 19.8951 76.8539C23.405 79.636 27.3375 81.6081 31.6339 82.8642C34.5099 83.7094 37.4446 84.1555 40.4497 84.2259C43.3961 84.2963 46.2956 83.9676 49.1247 83.1342C52.1533 82.242 54.9823 80.8921 57.5414 79.0373C58.8444 78.0982 60.0535 77.0417 61.1335 75.8326C62.0843 74.7644 63.0821 73.7197 63.9742 72.6045C65.4181 70.785 66.5568 68.7776 67.5076 66.6529C68.8224 63.7534 69.738 60.7366 70.2545 57.5906C70.2897 57.3675 70.3132 57.1445 70.3601 56.851C70.724 57.1327 71.0293 57.391 71.358 57.6258C72.2149 58.2714 73.0718 58.9053 73.9405 59.5392C74.14 59.6801 74.2339 59.8092 74.1753 60.0792C73.3418 64.0704 71.9684 67.862 69.9493 71.4071C68.5172 73.931 66.8268 76.2787 64.8077 78.38C60.8987 82.4416 56.2971 85.435 50.8738 87.0784C46.8356 88.2993 42.7153 88.7101 38.5128 88.4049C33.5825 88.041 28.8753 86.7967 24.4145 84.672C22.2898 83.6624 20.2942 82.4533 18.3925 81.0681C16.5495 79.7299 14.8239 78.2508 13.2627 76.5839C9.21277 72.2523 6.31329 67.2516 4.61116 61.57C3.19077 56.851 2.69774 52.0498 3.15555 47.1313C3.58989 42.4358 4.81072 37.9633 6.95892 33.7843C8.2854 31.2135 10.1401 29.0183 12.7579 27.6097C14.3426 26.7645 16.08 26.471 17.8525 26.6588C19.0851 26.788 20.1416 27.4336 21.1042 28.2084C22.595 29.4174 23.3463 31.0609 23.7102 32.8921C24.0036 34.3595 24.1797 35.8386 24.4262 37.3059C24.5554 38.0924 24.7549 38.8672 25.2245 39.5363C25.6353 40.135 26.1871 40.4167 26.9266 40.3932C28.0418 40.358 28.8987 39.7828 29.6852 39.0902C30.1783 38.6676 30.7065 38.2568 31.1174 37.7637C31.8804 36.8246 32.6434 35.862 33.289 34.8408C34.6625 32.6574 35.9772 30.4152 37.3037 28.2084C37.4211 28.0205 37.5385 27.821 37.6793 27.5745L37.6676 27.5392Z" fill="#C0C4C9"/>
<path d="M50.4042 33.6199C52.1533 32.3639 53.6559 30.9083 55.088 29.347C56.5201 27.7975 57.7175 26.0954 58.7505 24.2524C59.4313 24.9567 60.0887 25.6258 60.7343 26.3067C62.4717 28.1144 64.209 29.9222 65.9464 31.73C67.9772 33.843 70.008 35.9442 72.0388 38.0572C73.6001 39.6772 75.1731 41.2736 76.7226 42.8936C78.5069 44.7601 80.2794 46.6265 82.052 48.493C83.402 49.9134 84.7637 51.322 86.1136 52.7307C87.1819 53.8459 87.3345 55.6419 86.3601 56.8393C85.5854 57.7784 84.1885 58.471 82.7681 57.9075C82.1694 57.6727 81.5942 57.3323 81.0777 56.9449C79.1877 55.5363 77.3213 54.0807 75.4431 52.6603C73.8583 51.4629 72.2618 50.289 70.6889 49.0917C69.245 48 67.8246 46.873 66.3924 45.7813C64.8547 44.6192 63.3051 43.4688 61.7791 42.3067C60.2296 41.1328 58.7035 39.9354 57.1658 38.7615C55.5458 37.529 53.9024 36.3081 52.2707 35.0756C51.6603 34.6177 51.0733 34.1364 50.4159 33.6317L50.4042 33.6199Z" fill="#C0C4C9"/>
<path d="M22.325 0C22.8885 0.0234776 23.358 0.0234789 23.8276 0.0586953C26.9384 0.269994 30.0139 0.716068 32.9838 1.71387C35.672 2.61775 38.1019 3.96771 40.0271 6.0807C41.9875 8.24063 43.1496 10.741 42.7153 13.7579C42.5157 15.143 42.0344 16.4108 41.0014 17.4204C40.1914 18.2069 39.2171 18.6882 38.1606 19.0169C35.3668 19.8855 32.7373 19.4512 30.3309 17.8547C28.9105 16.9156 28.0066 15.5069 27.3727 13.9339C26.6214 12.091 26.2223 10.1423 25.7997 8.20542C25.4358 6.56199 25.0601 4.9303 24.4028 3.38077C23.9215 2.24211 23.3345 1.17388 22.4893 0.258255C22.4541 0.223039 22.4307 0.164343 22.3485 0.0117391L22.325 0Z" fill="#C0C4C9"/>
<path d="M36.9868 74.471C34.6625 77.0418 30.6478 77.2296 28.0653 74.8701C25.5062 72.534 25.3067 68.5663 27.5488 66.0425C29.8848 63.413 33.8408 63.0608 36.5759 65.5495C39.4871 68.2024 39.1115 72.2875 36.9985 74.4827L36.9868 74.471Z" fill="#C0C4C9"/>
<path d="M49.3008 71.5245C46.8708 69.3528 46.2604 65.3616 48.8195 62.5913C51.5311 59.6566 55.4754 60.0322 57.8466 62.2508C60.4057 64.6573 60.5348 68.6367 58.0931 71.2662C55.851 73.6727 51.7659 73.8018 49.3008 71.5245Z" fill="#C0C4C9"/>
<path d="M25.1658 50.2186C27.6779 52.4607 27.8892 56.5693 25.5414 59.0462C23.2289 61.4996 19.3903 61.8987 16.6669 59.3749C13.6148 56.5458 14.2839 52.6016 16.3147 50.4651C18.6977 47.953 22.6419 47.8356 25.1658 50.2186Z" fill="#C0C4C9"/>
<path d="M41.2949 21.7285C43.4666 20.7894 44.7813 19.0521 45.6969 16.9391C47.9273 18.5473 50.4159 19.5803 52.9515 20.5312C54.3484 21.0594 55.6867 21.752 57.0601 22.3859C57.1658 22.4328 57.2479 22.5033 57.3301 22.562C55.358 26.5062 52.3059 29.4174 48.7608 31.953C48.6434 31.8356 48.5143 31.73 48.4203 31.5891C46.3074 28.6309 44.2061 25.6728 42.0931 22.7263C41.8584 22.3859 41.5766 22.0807 41.2949 21.7285Z" fill="#C0C4C9"/>
<path d="M48.4673 40.1937C49.1834 40.7454 49.8407 41.2502 50.4981 41.7432C51.9068 42.8114 53.3272 43.8562 54.7241 44.9244C56.2032 46.0631 57.6705 47.2135 59.1496 48.3521C59.3726 48.5165 59.5957 48.6808 59.807 48.8452C59.9713 48.9743 60.0652 49.1386 59.9009 49.3264C59.0557 50.2656 58.3044 51.2986 57.1071 51.8855C54.6067 53.0946 52.1063 53.1063 49.782 51.6155C46.2369 49.3382 45.4387 45.03 47.4343 41.7197C47.7512 41.2032 48.1151 40.7219 48.4673 40.1937Z" fill="#C0C4C9"/>
</svg>
