<svg width="91" height="90" viewBox="0 0 91 90" fill="none" xmlns="http://www.w3.org/2000/svg">
<path d="M77.1005 24.3624C78.9844 22.6365 80.8197 20.9471 82.6671 19.2455C83.4936 19.6587 84.0891 20.2664 84.6239 20.8984C86.5199 23.1591 87.5044 25.7722 87.5044 28.75C87.5044 40.6853 87.5409 52.6205 87.4801 64.5558C87.4558 68.4451 85.0858 73.0029 79.9081 74.6437C78.5833 75.0691 77.2221 75.2028 75.8365 75.2028C67.9364 75.2028 60.0362 75.2028 52.1361 75.2028C39.7876 75.2028 27.4512 75.2028 15.1027 75.2028C13.1337 75.2028 11.262 74.8989 9.48751 74.0238C5.97498 72.2858 4.12756 69.3567 3.59279 65.5525C3.43478 64.41 3.44694 63.2432 3.44694 62.0764C3.44694 50.9554 3.44694 39.8466 3.43478 28.7257C3.43478 25.8087 4.3828 23.2806 6.21806 21.0686C7.51855 19.5129 9.1715 18.4676 11.1526 17.9329C12.5868 17.5439 14.0331 17.3859 15.5159 17.3859C28.3871 17.3981 41.2704 17.3859 54.1415 17.3859C55.6365 17.3859 57.1314 17.3859 58.6385 17.3981C58.7722 17.3981 58.9181 17.4345 59.2219 17.471C58.0916 18.6986 57.0463 19.8289 56.0011 20.9714C54.968 22.1139 53.9349 23.2685 52.8897 24.4353C52.5858 24.4353 52.2941 24.4353 52.0024 24.4353C39.508 24.4353 27.0258 24.4353 14.5314 24.4353C12.0642 24.4353 10.4234 26.0396 10.3748 28.5312C10.3504 29.856 10.3748 31.1929 10.3748 32.5177C10.3748 42.8608 10.3748 53.2039 10.3748 63.547C10.3748 64.0089 10.3748 64.4707 10.4598 64.9204C10.9217 67.0596 12.4409 68.2628 14.653 68.2628C26.7584 68.2628 38.8517 68.2628 50.9572 68.2628C59.2948 68.2628 67.6204 68.2628 75.9581 68.2628C76.505 68.2628 77.0762 68.202 77.5989 68.0562C79.3855 67.5579 80.4672 66.1358 80.528 64.2763C80.528 63.9846 80.528 63.6929 80.528 63.4012C80.528 51.9521 80.528 40.4908 80.528 29.0417C80.528 28.5434 80.4915 28.0207 80.4064 27.5346C80.0904 25.8208 78.9966 24.8607 77.3436 24.4596C77.2829 24.4474 77.2221 24.411 77.0519 24.3502L77.1005 24.3624Z" fill="#C0C4C9"/>
<path d="M45.4757 81.2555C57.3867 81.2555 69.2976 81.2555 81.1965 81.2555C82.0229 81.2555 82.8372 81.2069 83.6637 81.2312C84.9277 81.2677 86.0338 81.6566 86.8238 82.7019C88.1486 84.4521 87.4801 87.0287 85.4382 87.8552C84.8427 88.0983 84.1742 88.1469 83.5422 88.2684C83.4085 88.2927 83.2505 88.2684 83.1046 88.2684C58.0551 88.2684 33.0056 88.2684 7.9561 88.2684C7.31193 88.2684 6.65561 88.1591 6.0236 88.0375C4.52865 87.7337 3.39833 86.0807 3.50771 84.5007C3.6171 82.8842 4.79604 81.5959 6.48546 81.3285C6.93516 81.2555 7.39701 81.2312 7.85887 81.2312C20.3897 81.2312 32.9327 81.2312 45.4635 81.2312C45.4635 81.2312 45.4635 81.2555 45.4635 81.2677L45.4757 81.2555Z" fill="#C0C4C9"/>
<path d="M71.6555 10.0692C72.6643 10.7498 78.4739 16.7539 78.6441 17.2401C76.3105 19.3428 73.9769 21.4454 71.6555 23.5481C69.2612 25.7236 66.8668 27.8992 64.4725 30.0748C61.5069 32.773 58.5291 35.459 55.5635 38.1573C54.8586 38.8014 54.0443 38.8136 53.2664 38.4854C51.9295 37.9263 50.9571 36.9054 50.3616 35.5927C49.9484 34.6812 50.1185 33.8182 50.8356 33.0647C52.1725 31.6427 53.4852 30.1963 54.7978 28.7379C56.3657 26.9998 57.9214 25.2375 59.4893 23.5116C63.2935 19.3063 67.1099 15.101 70.9141 10.8957C71.1572 10.6283 71.4003 10.3731 71.6677 10.0814L71.6555 10.0692Z" fill="#C0C4C9"/>
<path d="M34.5005 53.8481C34.5005 53.7023 34.4641 53.6172 34.4884 53.5564C35.485 51.0527 35.7403 48.3667 36.3723 45.7778C36.7855 44.1127 37.2352 42.4719 38.0495 40.9527C40.1765 36.9662 44.7707 36.3949 47.8579 37.8169C49.9605 38.7771 51.2245 40.4179 51.8444 42.5813C52.2819 44.0884 51.9295 45.4861 51.2124 46.8352C49.9119 49.2661 47.8943 50.8825 45.3784 51.8913C42.9233 52.8758 40.3345 53.3498 37.7214 53.6172C36.6761 53.7266 35.6187 53.7752 34.5005 53.8603V53.8481Z" fill="#C0C4C9"/>
<path d="M72.64 8.99965C74.694 6.72684 76.663 4.56342 78.6076 2.39999C79.1789 1.76798 79.8352 1.54921 80.6252 1.86521C81.1357 2.05968 81.6705 2.2663 82.108 2.59446C83.7123 3.7734 85.1222 5.15897 86.2647 6.78761C86.605 7.27377 86.8238 7.85717 87.0061 8.41625C87.2127 9.04827 87.0912 9.60735 86.5321 10.0935C84.9278 11.4912 83.372 12.9254 81.792 14.3474C81.1478 14.9308 80.5158 15.5264 79.8838 16.1098C77.4652 13.7276 75.0587 11.3818 72.6278 8.99965H72.64Z" fill="#C0C4C9"/>
</svg>
