<?xml version="1.0" encoding="utf-8"?>
<!-- Generator: Adobe Illustrator 27.5.0, SVG Export Plug-In . SVG Version: 6.00 Build 0)  -->
<svg version="1.1" id="Layer_1" xmlns="http://www.w3.org/2000/svg" xmlns:xlink="http://www.w3.org/1999/xlink" x="0px" y="0px"
	 viewBox="0 0 99 90" style="enable-background:new 0 0 99 90;" xml:space="preserve">
<style type="text/css">
	.st0{fill:url(#SVGID_1_);}
	.st1{fill:url(#SVGID_00000183227714313813438080000018054780158543458979_);}
	.st2{fill:url(#SVGID_00000048503189695964080270000002792848980177719954_);}
	.st3{fill:url(#SVGID_00000016775619001813387300000013297539775143670410_);}
	.st4{fill:url(#SVGID_00000152955624730827835670000012647871984209846917_);}
	.st5{fill:url(#SVGID_00000085214849624526931820000016687421561254971287_);}
	.st6{fill:url(#SVGID_00000138543370759543502000000001659868722675311788_);}
	.st7{fill:url(#SVGID_00000016046112093977716220000018087924397534552474_);}
	.st8{fill:url(#SVGID_00000118360882585122671950000008719508582467588745_);}
	.st9{fill:url(#SVGID_00000127022052107499389670000000945834596212645781_);}
	.st10{fill:url(#SVGID_00000167365396261892328000000006800709379733487026_);}
	.st11{fill:url(#SVGID_00000149364242908856169390000016637502710655319987_);}
	.st12{fill:url(#SVGID_00000016055880332047842470000000136215081799275910_);}
	.st13{fill:url(#SVGID_00000141431539657713116240000008981647460948027049_);}
	.st14{fill:url(#SVGID_00000112618471589701404460000009378706229326433190_);}
	.st15{fill:url(#SVGID_00000178888089654456824070000016669007037802181802_);}
	.st16{fill:url(#SVGID_00000098182473311128330420000004435197495702068909_);}
	.st17{fill:url(#SVGID_00000100345017052226933610000007314076527880537741_);}
	.st18{fill:url(#SVGID_00000023241919778063668270000014480287453684323740_);}
	.st19{fill:url(#SVGID_00000096038032363767481200000011973926648245592197_);}
	.st20{fill:url(#SVGID_00000033357073611891243390000016006251378359294121_);}
	.st21{fill:url(#SVGID_00000147190472976407114130000012481291491066909110_);}
	.st22{fill:url(#SVGID_00000084525155733031020290000000649104998279748779_);}
	.st23{fill:url(#SVGID_00000002344903023556412760000004540734398012929458_);}
	.st24{fill:url(#SVGID_00000170241394396317813580000007979449800649324448_);}
	.st25{fill:url(#SVGID_00000064329581066439970400000014110069507890299056_);}
	.st26{fill:url(#SVGID_00000021101633604222448170000011663999923474858887_);}
	.st27{fill:url(#SVGID_00000148621323469906523970000013263863311565929096_);}
	.st28{fill:url(#SVGID_00000023279094549887343650000013078459026831061163_);}
	.st29{fill:url(#SVGID_00000035508424993503143830000010230617891069552306_);}
	.st30{fill:url(#SVGID_00000074442828749751850130000013338694037985630385_);}
	.st31{fill:url(#SVGID_00000058577965077401205850000003149773295224030862_);}
	.st32{fill:url(#SVGID_00000029733424545350427320000016021250552832055442_);}
	.st33{fill:url(#SVGID_00000070806813060832471390000007532157499205505442_);}
	.st34{fill:url(#SVGID_00000173841894987343013770000005721753727631489452_);}
	.st35{fill:url(#SVGID_00000016777703700085095840000000784679184645279657_);}
	.st36{fill:url(#SVGID_00000152951968824403476810000008828241147560156855_);}
	.st37{fill:url(#SVGID_00000133495602715509237000000015006033179597943214_);}
	.st38{fill:url(#SVGID_00000173875314880143784150000012738692479888694969_);}
	.st39{fill:url(#SVGID_00000119087030673033197320000015790247442782491325_);}
	.st40{fill:url(#SVGID_00000140729379998407403290000010059075096942092930_);}
	.st41{fill:url(#SVGID_00000061450997241028908820000006646631412043135673_);}
	.st42{fill:url(#SVGID_00000019643942549309321190000001545040011459916971_);}
	.st43{fill:url(#SVGID_00000038375793743859066160000007640290205183376299_);}
	.st44{fill:url(#SVGID_00000061450983244799484390000017737392204676947840_);}
	.st45{fill:url(#SVGID_00000034051478928771630290000016401692139356717476_);}
	.st46{fill:url(#SVGID_00000044153404669134085570000017914696550219498897_);}
	.st47{fill:url(#SVGID_00000096048892634103905470000017444687615974549122_);}
	.st48{fill:url(#SVGID_00000101806333533972563810000017127949588857969804_);}
	.st49{fill:url(#SVGID_00000021076961935065320370000002554153892241584822_);}
	.st50{fill:url(#SVGID_00000146459766273639244070000010695968566493074320_);}
	.st51{fill:url(#SVGID_00000052788458429174058680000016538351875309594006_);}
	.st52{fill:url(#SVGID_00000005244365753330549770000003263350701078581177_);}
	.st53{fill:url(#SVGID_00000159446061202484767800000005229324323181722240_);}
	.st54{fill:url(#SVGID_00000104683048601196460950000007466288757025792156_);}
	.st55{fill:url(#SVGID_00000038414042385238427170000014269114223938328235_);}
	.st56{fill:url(#SVGID_00000056426779632529197970000003950844776030115205_);}
	.st57{fill:url(#SVGID_00000008856729050050167160000004020240781073000895_);}
	.st58{fill:url(#SVGID_00000054238689415183413280000007805117362990731179_);}
	.st59{clip-path:url(#SVGID_00000069371658712377326430000017788597434425765265_);}
	.st60{fill:#C3C3C3;}
</style>
<g>
	<g>
		<linearGradient id="SVGID_1_" gradientUnits="userSpaceOnUse" x1="-12.8574" y1="18.5448" x2="41.5166" y2="94.5628">
			<stop  offset="0" style="stop-color:#F34B2C"/>
			<stop  offset="1" style="stop-color:#D5CE47"/>
		</linearGradient>
		<path class="st0" d="M39.5,87.2c-0.3-0.1-0.6-0.1-0.8-0.2c-0.3-0.1-0.5-0.1-0.8-0.2c-0.3-0.1-0.5-0.1-0.7-0.2
			c-0.2-0.1-0.5-0.1-0.7-0.2c-0.9-0.2-1.5-0.4-1.9-0.5c-0.3-0.1-0.7-0.2-1.3-0.4c-0.1,0-0.3-0.1-0.4-0.1c-0.1,0-0.2,0-0.2-0.1
			c-0.1,0-0.2-0.1-0.2-0.1c-0.3-0.1-0.7-0.3-1.1-0.4c-0.2-0.1-0.4-0.1-0.6-0.2c-0.2-0.1-0.3-0.2-0.5-0.2c-0.3-0.1-0.6-0.3-0.9-0.4
			c-0.6-0.2-1-0.5-1.4-0.6c-0.4-0.2-0.7-0.3-0.9-0.4c-0.2-0.1-0.4-0.2-0.5-0.2c-0.2-0.1-0.1,0,0.3,0.3c0.4,0.2,1,0.5,1.7,0.9
			c0.2,0.1,0.4,0.2,0.6,0.3c0.2,0.1,0.4,0.2,0.6,0.3c0.4,0.2,0.8,0.3,1.1,0.5c0.4,0.1,0.8,0.3,1.2,0.4c0.2,0.1,0.4,0.1,0.6,0.2
			c0.2,0.1,0.4,0.1,0.6,0.2c0.5,0.2,1,0.3,1.5,0.5c0.4,0.1,0.8,0.2,1,0.2c0.2,0,0.4,0.1,0.7,0.1c0.2,0.1,0.5,0.1,0.9,0.2
			c0.4,0.1,0.8,0.2,1.3,0.3c0.1,0,0.3,0.1,0.4,0.1c0.1,0,0.3,0.1,0.5,0.1c0.3,0.1,0.7,0.1,1,0.2c0.2,0,0.3,0.1,0.5,0.1
			c0.2,0,0.3,0,0.5,0.1c0.3,0,0.6,0.1,0.9,0.1c0.3,0,0.5,0.1,0.8,0.1c0.2,0,0.4,0,0.5,0c0.1,0,0.1,0-0.1-0.1c-0.2,0-0.5-0.1-0.9-0.2
			c-0.4-0.1-0.9-0.2-1.4-0.2c-0.2,0-0.5-0.1-0.7-0.1C40,87.2,39.7,87.2,39.5,87.2z"/>
		
			<linearGradient id="SVGID_00000146467232776684002200000013736008596179630259_" gradientUnits="userSpaceOnUse" x1="-18.1794" y1="22.3515" x2="36.1945" y2="98.3695">
			<stop  offset="0" style="stop-color:#F34B2C"/>
			<stop  offset="1" style="stop-color:#D5CE47"/>
		</linearGradient>
		<path style="fill:url(#SVGID_00000146467232776684002200000013736008596179630259_);" d="M24.4,82.2c-0.5-0.3-0.9-0.6-1.3-0.8
			c-0.1-0.1-0.2-0.1-0.3-0.2c-0.1-0.1-0.2-0.1-0.3-0.2c-0.2-0.1-0.4-0.3-0.6-0.4c-0.3-0.2-0.6-0.4-0.8-0.6c-0.2-0.2-0.4-0.4-0.6-0.5
			c-0.4-0.3-0.7-0.6-1.1-0.9c-0.3-0.3-0.7-0.6-1-0.9c-0.3-0.3-0.7-0.6-1-0.9c-0.3-0.3-0.7-0.6-1-0.9L16,75.5
			c-0.1-0.1-0.2-0.2-0.2-0.2c-0.2-0.2-0.3-0.3-0.5-0.5c-0.6-0.6-0.9-0.9-1-0.9c0,0,0,0,0,0.1c0.1,0.1,0.2,0.2,0.4,0.4
			c0.7,0.9,1.7,2,3.6,3.6c0.3,0.2,0.5,0.4,0.7,0.6c0.2,0.2,0.4,0.3,0.6,0.5c0.4,0.3,0.7,0.6,1,0.8c0.1,0.1,0.1,0.1,0.2,0.2
			c0.1,0.1,0.1,0.1,0.2,0.2c0.1,0.1,0.3,0.2,0.4,0.3c0.3,0.2,0.6,0.4,0.9,0.7c0.2,0.2,0.5,0.4,0.8,0.5c0.3,0.2,0.5,0.4,0.8,0.6
			c0.1,0.1,0.3,0.2,0.4,0.3c0.1,0.1,0.3,0.2,0.4,0.3c0.3,0.2,0.6,0.4,0.9,0.5l0.5,0.3c0.2,0.1,0.3,0.2,0.5,0.2
			c0.3,0.2,0.6,0.3,0.9,0.5c0.6,0.3,1.3,0.6,1.8,0.8c0.2,0.1,0.5,0.2,0.7,0.3c0.2,0.1,0.4,0.1,0.5,0.2c0.3,0.1,0.5,0.2,0.7,0.2
			c0.2,0,0-0.1-0.6-0.4c-0.2-0.1-0.4-0.2-0.6-0.3c-0.2-0.1-0.4-0.2-0.7-0.3c-0.2-0.1-0.5-0.2-0.8-0.4c-0.1-0.1-0.3-0.1-0.4-0.2
			c-0.1-0.1-0.3-0.1-0.4-0.2c-0.3-0.1-0.6-0.3-0.9-0.5c-0.1-0.1-0.3-0.2-0.5-0.2c-0.2-0.1-0.3-0.2-0.4-0.2c-0.3-0.2-0.6-0.3-0.9-0.5
			c-0.1-0.1-0.3-0.2-0.4-0.2c-0.1,0-0.1-0.1-0.2-0.1C24.6,82.3,24.5,82.3,24.4,82.2z"/>
		
			<linearGradient id="SVGID_00000003801912286669601450000012262198250956908202_" gradientUnits="userSpaceOnUse" x1="41.2663" y1="-20.1687" x2="95.6403" y2="55.8493">
			<stop  offset="0" style="stop-color:#F34B2C"/>
			<stop  offset="1" style="stop-color:#D5CE47"/>
		</linearGradient>
		<path style="fill:url(#SVGID_00000003801912286669601450000012262198250956908202_);" d="M61.9,8.8c-0.5-0.2-0.9-0.3-1.2-0.4
			c-0.1,0-0.2-0.1-0.2-0.1c-0.1,0-0.1,0-0.2-0.1c-0.1,0-0.2-0.1-0.3-0.1C59.6,8,59.4,8,59.3,8c-0.1,0,0.3,0.2,1.2,0.5
			c0.4,0.2,0.9,0.4,1.5,0.6c0.2,0.1,0.3,0.1,0.5,0.2c0.2,0.1,0.3,0.1,0.5,0.2c0.3,0.2,0.7,0.3,1.1,0.5c0.6,0.3,0.9,0.5,1.1,0.5
			c0.2,0.1,0.2,0.1,0.2,0.1C65.5,10.6,64.2,9.7,61.9,8.8z"/>
		
			<linearGradient id="SVGID_00000163050176962747492030000017316137924307730344_" gradientUnits="userSpaceOnUse" x1="46.7128" y1="-24.0644" x2="101.0867" y2="51.9535">
			<stop  offset="0" style="stop-color:#F34B2C"/>
			<stop  offset="1" style="stop-color:#D5CE47"/>
		</linearGradient>
		<path style="fill:url(#SVGID_00000163050176962747492030000017316137924307730344_);" d="M82.2,25.8c0,0,0-0.1-0.1-0.3
			c0-0.1-0.1-0.2-0.2-0.3c0-0.1-0.1-0.1-0.1-0.2c0-0.1-0.1-0.1-0.1-0.2c-0.2-0.3-0.4-0.6-0.5-1c-0.1-0.2-0.2-0.3-0.3-0.5
			c-0.1-0.2-0.2-0.3-0.3-0.5c-0.5-0.7-0.8-1.2-1.1-1.5c-0.3-0.3-0.4-0.4-0.4-0.4c0,0.1,0.2,0.4,0.5,0.8c0.2,0.2,0.3,0.5,0.5,0.8
			c0.1,0.1,0.2,0.3,0.3,0.5c0.1,0.1,0.1,0.2,0.2,0.2c0.1,0.1,0.1,0.2,0.2,0.3c0.3,0.5,0.7,1.1,1,1.5C81.9,25.5,82.1,25.8,82.2,25.8z
			"/>
		
			<linearGradient id="SVGID_00000155860112269084676670000002820340500274324895_" gradientUnits="userSpaceOnUse" x1="43.4272" y1="-21.7144" x2="97.8012" y2="54.3036">
			<stop  offset="0" style="stop-color:#F34B2C"/>
			<stop  offset="1" style="stop-color:#D5CE47"/>
		</linearGradient>
		<path style="fill:url(#SVGID_00000155860112269084676670000002820340500274324895_);" d="M87.4,40c0,0.3,0.1,0.7,0.1,1
			c0,0.2,0,0.3,0.1,0.5c0,0.1,0,0.3,0,0.4c0.1,0.5,0.1,0.8,0.1,0.8c0-0.1,0-0.4,0-0.9c0-0.3,0-0.6-0.1-0.9c0-0.3-0.1-0.7-0.1-1
			c0-0.3-0.1-0.6-0.1-0.8c0-0.3-0.1-0.6-0.1-0.8c0-0.3-0.1-0.5-0.1-0.7c0-0.2-0.1-0.3-0.1-0.4c0-0.1,0,0,0,0.2c0,0.1,0,0.2,0,0.3
			c0,0.1,0,0.3,0,0.4c0,0.3,0.1,0.6,0.1,1c0,0.2,0,0.3,0.1,0.5C87.4,39.6,87.4,39.8,87.4,40z"/>
		
			<linearGradient id="SVGID_00000001650166769455595970000013707587993837163174_" gradientUnits="userSpaceOnUse" x1="-13.8768" y1="19.2739" x2="40.4972" y2="95.2919">
			<stop  offset="0" style="stop-color:#F34B2C"/>
			<stop  offset="1" style="stop-color:#D5CE47"/>
		</linearGradient>
		<path style="fill:url(#SVGID_00000001650166769455595970000013707587993837163174_);" d="M8.6,50.1c0.1,0.5,0.1,0.9,0.2,1.3
			c0,0.2,0.1,0.4,0.1,0.7c0,0.2,0.1,0.4,0.1,0.7c0.1,0.3,0.1,0.5,0.2,0.7c0,0.1,0,0.2,0.1,0.3c0,0.1,0.1,0.2,0.1,0.3
			c0.1,0.3,0.2,0.6,0.2,0.8c0.1,0.5,0.3,0.8,0.3,0.9c0,0,0,0,0-0.1c0-0.1-0.1-0.3-0.1-0.6c-0.1-0.3-0.1-0.6-0.2-0.8
			c0-0.1-0.1-0.3-0.1-0.4c0-0.1-0.1-0.3-0.1-0.4c-0.1-0.5-0.2-1-0.3-1.5c-0.1-0.8-0.2-1.7-0.4-3.1c-0.1-0.6-0.1-1.1-0.2-1.4
			c0-0.3-0.1-0.4-0.1-0.3c0,0.1,0,0.5,0,1.1C8.5,48.8,8.6,49.5,8.6,50.1z"/>
		
			<linearGradient id="SVGID_00000122690223659676282230000011638923820828599434_" gradientUnits="userSpaceOnUse" x1="36.3508" y1="-16.6527" x2="90.7248" y2="59.3652">
			<stop  offset="0" style="stop-color:#F34B2C"/>
			<stop  offset="1" style="stop-color:#D5CE47"/>
		</linearGradient>
		<path style="fill:url(#SVGID_00000122690223659676282230000011638923820828599434_);" d="M85.1,57.2c0,0,0.1-0.2,0.2-0.5
			c0.1-0.2,0.2-0.5,0.2-0.8c0.1-0.4,0.2-0.8,0.3-1.3c0.1-0.4,0.2-0.9,0.3-1.3c0-0.1,0-0.2,0.1-0.3c0-0.1,0-0.2,0.1-0.3
			c0-0.2,0.1-0.4,0.1-0.7c0-0.2,0.1-0.4,0.1-0.7c0-0.1,0-0.2,0.1-0.3c0-0.1,0-0.2,0-0.3c0.2-1.7,0.2-2.9,0.2-2.7c0,0,0,0.2-0.1,0.4
			c0,0.2,0,0.6-0.1,1.1c0,0.5-0.1,1-0.1,1.5c-0.1,0.5-0.2,1.1-0.3,1.7c-0.1,0.6-0.3,1.3-0.4,1.9c-0.1,0.3-0.2,0.7-0.3,1
			c0,0.2-0.1,0.4-0.1,0.5c0,0.1-0.1,0.2-0.1,0.3c0,0.1-0.1,0.2-0.1,0.3C85.1,57,85,57.3,85.1,57.2z"/>
		
			<linearGradient id="SVGID_00000084527875849312882340000003944522806862618018_" gradientUnits="userSpaceOnUse" x1="30.1977" y1="-12.2515" x2="84.5716" y2="63.7664">
			<stop  offset="0" style="stop-color:#F34B2C"/>
			<stop  offset="1" style="stop-color:#D5CE47"/>
		</linearGradient>
		<path style="fill:url(#SVGID_00000084527875849312882340000003944522806862618018_);" d="M83.5,61.6c0.1-0.3,0.3-0.6,0.4-0.9
			c0.1-0.1,0.1-0.3,0.2-0.4c0-0.1,0.1-0.2,0.1-0.3c0.1-0.4,0.2-0.6,0.1-0.5c-0.1,0.1-0.2,0.4-0.4,0.8c-0.2,0.5-0.5,1.1-0.8,1.8
			c-0.3,0.6-0.6,1.1-0.7,1.5c-0.1,0.2-0.2,0.3-0.2,0.4c0,0.1-0.1,0.2-0.1,0.2c0.1-0.1,0.3-0.4,0.5-0.8c0.1-0.2,0.3-0.5,0.4-0.8
			c0.1-0.1,0.2-0.3,0.2-0.5C83.3,62,83.4,61.8,83.5,61.6z"/>
		
			<linearGradient id="SVGID_00000088127095097973994360000000012999881982621846_" gradientUnits="userSpaceOnUse" x1="46.0561" y1="-23.5947" x2="100.4301" y2="52.4232">
			<stop  offset="0" style="stop-color:#F34B2C"/>
			<stop  offset="1" style="stop-color:#D5CE47"/>
		</linearGradient>
		<path style="fill:url(#SVGID_00000088127095097973994360000000012999881982621846_);" d="M86.3,34.2c0.3,0.9,0.3,0.7,0-0.4
			c-0.1-0.6-0.3-1.1-0.5-1.6c0-0.1-0.1-0.3-0.1-0.4c0-0.1-0.1-0.3-0.1-0.4c-0.1-0.3-0.2-0.6-0.3-0.8c-0.1-0.2-0.2-0.5-0.2-0.7
			c-0.1-0.2-0.2-0.4-0.2-0.6c-0.2-0.3-0.3-0.6-0.4-0.8c0-0.1-0.1-0.2-0.1-0.3c0-0.1-0.1-0.1-0.1-0.2c-0.1-0.1-0.1-0.2-0.1-0.2
			c-0.1-0.1-0.1-0.1,0,0c0,0.1,0.1,0.1,0.1,0.3c0,0.1,0,0.1,0.1,0.2c0,0.1,0.1,0.1,0.1,0.2c0.1,0.3,0.3,0.6,0.4,1
			c0,0.1,0.1,0.3,0.1,0.4L85,30c0,0.1,0,0.1,0.1,0.2c0.1,0.3,0.2,0.5,0.3,0.9c0.1,0.3,0.2,0.6,0.3,0.9c0.1,0.3,0.2,0.6,0.3,0.8
			C86,33.3,86.2,33.8,86.3,34.2z"/>
		
			<linearGradient id="SVGID_00000063608095645944107950000000112679422448204975_" gradientUnits="userSpaceOnUse" x1="-12.7492" y1="18.4674" x2="41.6247" y2="94.4854">
			<stop  offset="0" style="stop-color:#F34B2C"/>
			<stop  offset="1" style="stop-color:#D5CE47"/>
		</linearGradient>
		<path style="fill:url(#SVGID_00000063608095645944107950000000112679422448204975_);" d="M33,81.6c-0.8-0.3-1.7-0.7-2.4-1
			c-0.2-0.1-0.4-0.2-0.5-0.2c-0.1-0.1-0.3-0.1-0.4-0.2c-0.2-0.1-0.3-0.1-0.3-0.1c0,0,0.2,0.1,0.5,0.3c0.1,0.1,0.3,0.2,0.5,0.3
			c0.2,0.1,0.4,0.2,0.7,0.3c0.2,0.1,0.4,0.2,0.6,0.3c0.1,0,0.2,0.1,0.3,0.1c0.1,0,0.1,0,0.2,0.1l0.2,0.1c0.4,0.2,0.9,0.3,1.3,0.5
			c0.4,0.2,0.8,0.2,1,0.3c0.3,0.1,0.4,0.1,0.4,0.1c0,0-0.2-0.1-0.5-0.2C34.3,82,34,82,33.8,81.9C33.6,81.8,33.3,81.7,33,81.6z"/>
		
			<linearGradient id="SVGID_00000170270338507662847770000011095183373460968094_" gradientUnits="userSpaceOnUse" x1="43.2091" y1="-21.5583" x2="97.583" y2="54.4597">
			<stop  offset="0" style="stop-color:#F34B2C"/>
			<stop  offset="1" style="stop-color:#D5CE47"/>
		</linearGradient>
		<path style="fill:url(#SVGID_00000170270338507662847770000011095183373460968094_);" d="M85.9,38.3c-0.2-1.4-0.6-2.8-0.7-2.7
			c0,0,0,0.2,0.1,0.6c0.1,0.3,0.1,0.8,0.2,1.3c0,0.2,0.1,0.4,0.1,0.6c0,0.2,0.1,0.4,0.1,0.5c0.1,0.3,0.1,0.6,0.1,0.8
			c0,0.2,0.1,0.4,0.1,0.5c0,0.1,0.1,0.2,0.1,0.3c0-0.1,0-0.2,0-0.3c0-0.1,0-0.2,0-0.3C86,39.2,86,38.8,85.9,38.3z"/>
		
			<linearGradient id="SVGID_00000165957337944624605800000001789363454409974949_" gradientUnits="userSpaceOnUse" x1="26.564" y1="-9.6524" x2="80.9379" y2="66.3655">
			<stop  offset="0" style="stop-color:#F34B2C"/>
			<stop  offset="1" style="stop-color:#D5CE47"/>
		</linearGradient>
		<path style="fill:url(#SVGID_00000165957337944624605800000001789363454409974949_);" d="M33.3,3.5c0.4-0.1,1-0.3,1.5-0.5
			c0.1,0,0.3-0.1,0.4-0.1c0.2,0,0.3-0.1,0.5-0.1c0.3-0.1,0.6-0.2,0.9-0.3c0.6-0.2,1.1-0.3,1.6-0.4c0.4-0.1,0.7-0.2,0.7-0.2
			c0.1-0.1-0.6,0.1-1.5,0.3c-0.1,0-0.1,0-0.2,0c-0.1,0-0.2,0-0.3,0.1c-0.2,0.1-0.4,0.1-0.7,0.2c-0.3,0.1-0.6,0.2-0.9,0.2
			c-0.2,0-0.3,0.1-0.5,0.1c-0.2,0.1-0.3,0.1-0.5,0.2c-0.3,0.1-0.6,0.2-0.9,0.3c-0.1,0-0.3,0.1-0.4,0.1c-0.1,0-0.2,0.1-0.3,0.1
			c-0.4,0.2-0.7,0.3-0.7,0.3C32.2,3.8,32.5,3.7,33.3,3.5z"/>
		
			<linearGradient id="SVGID_00000094609126382719916830000001213409300484518059_" gradientUnits="userSpaceOnUse" x1="-7.2413" y1="14.5277" x2="47.1327" y2="90.5457">
			<stop  offset="0" style="stop-color:#F34B2C"/>
			<stop  offset="1" style="stop-color:#D5CE47"/>
		</linearGradient>
		<path style="fill:url(#SVGID_00000094609126382719916830000001213409300484518059_);" d="M10.2,39.1C10.1,40.6,10,41,10.1,41
			c0,0,0.2-0.6,0.3-1.9c0.2-1.4,0.3-1.8,0.3-1.9c0,0,0,0.1-0.1,0.2c0,0.1-0.1,0.2-0.1,0.3C10.4,38.1,10.3,38.5,10.2,39.1z"/>
		
			<linearGradient id="SVGID_00000111872498933427029690000008974038378684245391_" gradientUnits="userSpaceOnUse" x1="40.2293" y1="-19.427" x2="94.6033" y2="56.591">
			<stop  offset="0" style="stop-color:#F34B2C"/>
			<stop  offset="1" style="stop-color:#D5CE47"/>
		</linearGradient>
		<path style="fill:url(#SVGID_00000111872498933427029690000008974038378684245391_);" d="M86.6,44.8c0-0.5,0-0.9,0-1.2
			c0-0.2,0-0.3-0.1-0.3c0,0,0,0.1,0,0.2c0,0.1,0,0.2,0,0.4c0,0.3,0,0.7,0,1.3c0,0.1,0,0.1,0,0.2c0,0.1,0,0.2,0,0.2
			c0,0.2,0,0.3,0,0.5c0,0.3,0,0.7-0.1,1.1c0,0.1,0.1,0.1,0.1,0c0-0.1,0.1-0.2,0.1-0.5c0-0.2,0.1-0.5,0.1-0.8c0-0.2,0-0.3,0-0.5
			C86.7,45.2,86.6,45,86.6,44.8z"/>
		
			<linearGradient id="SVGID_00000057858808792965507120000015932542151211423131_" gradientUnits="userSpaceOnUse" x1="46.6514" y1="-24.0205" x2="101.0254" y2="51.9974">
			<stop  offset="0" style="stop-color:#F34B2C"/>
			<stop  offset="1" style="stop-color:#D5CE47"/>
		</linearGradient>
		<path style="fill:url(#SVGID_00000057858808792965507120000015932542151211423131_);" d="M82.8,26c-0.2-0.3-0.3-0.6-0.4-0.8
			c-0.1-0.2-0.2-0.4-0.3-0.5c-0.2-0.2-0.2-0.3-0.2-0.2c0,0.1,0.2,0.3,0.4,0.7c0.2,0.4,0.5,0.9,0.8,1.4c0.3,0.6,0.6,1.2,0.8,1.7
			c0.2,0.5,0.4,0.9,0.5,1c0.1,0.1-0.1-0.4-0.4-1.1c-0.2-0.3-0.3-0.7-0.5-1.1c-0.1-0.2-0.2-0.4-0.3-0.6C83,26.3,82.9,26.2,82.8,26z"
			/>
		
			<linearGradient id="SVGID_00000132790628990453859710000014581234575601979798_" gradientUnits="userSpaceOnUse" x1="35.2136" y1="-15.8393" x2="89.5875" y2="60.1787">
			<stop  offset="0" style="stop-color:#F34B2C"/>
			<stop  offset="1" style="stop-color:#D5CE47"/>
		</linearGradient>
		<path style="fill:url(#SVGID_00000132790628990453859710000014581234575601979798_);" d="M45.6,1.2c0.4,0,1.2,0,1.4,0
			c0.6,0,1.3,0,1.9,0c0.6,0,1,0,0.8-0.1c0.1,0-0.1,0-0.4-0.1c-0.2,0-0.4,0-0.8,0c-0.2,0-0.3,0-0.5,0c-0.2,0-0.4,0-0.6,0
			c-1.6,0-2,0.1-1.5,0.1c0.2,0,0.3,0,0.3,0c-0.1,0-0.3,0-0.8,0.1C44.8,1.2,44.8,1.3,45.6,1.2z"/>
		
			<linearGradient id="SVGID_00000016765993617225366060000012016361287381374891_" gradientUnits="userSpaceOnUse" x1="47.2043" y1="-24.416" x2="101.5783" y2="51.6019">
			<stop  offset="0" style="stop-color:#F34B2C"/>
			<stop  offset="1" style="stop-color:#D5CE47"/>
		</linearGradient>
		<path style="fill:url(#SVGID_00000016765993617225366060000012016361287381374891_);" d="M79.8,21c-0.3-0.4-0.7-0.9-0.9-1.1
			c-0.2-0.3-0.4-0.4-0.3-0.3c0,0,0.1,0.1,0.1,0.2c0.1,0.1,0.2,0.2,0.3,0.4c0.2,0.3,0.5,0.7,0.9,1.3c0.2,0.2,0.3,0.5,0.5,0.7
			c0.1,0.2,0.3,0.4,0.4,0.5c0.2,0.3,0.3,0.4,0.3,0.4c0-0.1-0.1-0.3-0.3-0.6C80.4,21.9,80.2,21.5,79.8,21z"/>
		
			<linearGradient id="SVGID_00000159459571627183131320000004013743492394080132_" gradientUnits="userSpaceOnUse" x1="23.2753" y1="-7.3001" x2="77.6492" y2="68.7179">
			<stop  offset="0" style="stop-color:#F34B2C"/>
			<stop  offset="1" style="stop-color:#D5CE47"/>
		</linearGradient>
		<path style="fill:url(#SVGID_00000159459571627183131320000004013743492394080132_);" d="M34.2,8.2c-0.3,0.1-0.5,0.2-0.8,0.3
			c-0.2,0.1-0.5,0.2-0.6,0.3C32.4,8.9,32.2,9,32.2,9c0,0,0.3-0.1,0.7-0.3c0.4-0.1,0.9-0.3,1.5-0.5c0.1-0.1,0.3-0.1,0.4-0.2
			C35,8.1,35.2,8,35.3,8c0.3-0.1,0.5-0.2,0.7-0.2c0.4-0.1,0.6-0.2,0.6-0.2c0,0-0.4,0.1-0.9,0.2C35.3,7.8,34.7,8,34.2,8.2z"/>
		
			<linearGradient id="SVGID_00000085216575529735948000000007500548481816716932_" gradientUnits="userSpaceOnUse" x1="22.1747" y1="-6.5129" x2="76.5487" y2="69.5051">
			<stop  offset="0" style="stop-color:#F34B2C"/>
			<stop  offset="1" style="stop-color:#D5CE47"/>
		</linearGradient>
		<path style="fill:url(#SVGID_00000085216575529735948000000007500548481816716932_);" d="M33.4,9.6c-0.8,0.3-1.3,0.6-1.4,0.7
			c-0.1,0.1,0.2,0,0.6-0.2c0.2-0.1,0.5-0.2,0.7-0.3c0.3-0.1,0.6-0.2,0.9-0.3c0.4-0.1,0.7-0.3,0.9-0.4C35.3,9,35.4,9,35.5,8.9
			c0,0-0.1,0-0.2,0c-0.1,0-0.1,0-0.2,0c-0.1,0-0.2,0-0.2,0.1C34.5,9.2,34,9.4,33.4,9.6z"/>
		
			<linearGradient id="SVGID_00000157994965013291216440000014723722176643726002_" gradientUnits="userSpaceOnUse" x1="17.4444" y1="-3.1294" x2="71.8184" y2="72.8885">
			<stop  offset="0" style="stop-color:#F34B2C"/>
			<stop  offset="1" style="stop-color:#D5CE47"/>
		</linearGradient>
		<path style="fill:url(#SVGID_00000157994965013291216440000014723722176643726002_);" d="M29.5,10.8c-0.1,0-0.4,0.2-1.4,0.7
			c-1.1,0.7-1.5,1-1.6,1c0,0,0.4-0.2,1.1-0.6c0.1-0.1,0.3-0.2,0.4-0.2c0.1-0.1,0.2-0.1,0.3-0.2c0.2-0.1,0.4-0.2,0.5-0.3
			C29.2,11,29.4,10.9,29.5,10.8z"/>
		
			<linearGradient id="SVGID_00000109027729828460651910000017810480275193685923_" gradientUnits="userSpaceOnUse" x1="2.2212" y1="7.7594" x2="56.5951" y2="83.7774">
			<stop  offset="0" style="stop-color:#F34B2C"/>
			<stop  offset="1" style="stop-color:#D5CE47"/>
		</linearGradient>
		<path style="fill:url(#SVGID_00000109027729828460651910000017810480275193685923_);" d="M58,85c-1.1,0.3-2.5,0.6-2.7,0.7
			c-0.1,0,0.5-0.1,1.2-0.2l0.3-0.1c0.1,0,0.2,0,0.3-0.1c0.2,0,0.4-0.1,0.5-0.1c0.4-0.1,0.7-0.2,1-0.3c0.6-0.2,1-0.4,1.2-0.4
			c0.1,0-0.1,0-0.4,0.1c-0.2,0-0.4,0.1-0.6,0.2C58.6,84.9,58.3,85,58,85z"/>
		
			<linearGradient id="SVGID_00000048497290861016119080000007202116319062353576_" gradientUnits="userSpaceOnUse" x1="46.1679" y1="-23.6747" x2="100.5418" y2="52.3433">
			<stop  offset="0" style="stop-color:#F34B2C"/>
			<stop  offset="1" style="stop-color:#D5CE47"/>
		</linearGradient>
		<path style="fill:url(#SVGID_00000048497290861016119080000007202116319062353576_);" d="M82,26.1c-0.2-0.4-0.3-0.6-0.4-0.8
			c-0.1-0.2-0.2-0.3-0.2-0.3c-0.1-0.1,0,0-0.1,0c0,0.1,0,0,0,0.1c0,0,0,0.1,0.1,0.3c0.1,0.1,0.2,0.3,0.3,0.6
			c0.1,0.3,0.3,0.5,0.4,0.8c0.1,0.1,0.1,0.2,0.2,0.4c0.1,0.1,0.1,0.2,0.2,0.3c0.6,1.1,0.1,0,0.1-0.1C82.6,27.4,82.5,27.1,82,26.1z"
			/>
		
			<linearGradient id="SVGID_00000081634490719564322650000015824535936633426349_" gradientUnits="userSpaceOnUse" x1="22.7942" y1="-6.956" x2="77.1682" y2="69.062">
			<stop  offset="0" style="stop-color:#F34B2C"/>
			<stop  offset="1" style="stop-color:#D5CE47"/>
		</linearGradient>
		<path style="fill:url(#SVGID_00000081634490719564322650000015824535936633426349_);" d="M77,71c0.3-0.3,0.4-0.4,0.7-0.7
			c0.3-0.3,0.6-0.7,1.2-1.5c0.1-0.1,0.2-0.2,0.2-0.4c0-0.1,0.1-0.1,0.1-0.1c0,0,0-0.1,0-0.1c0,0-0.1,0.1-0.4,0.4
			c-0.2,0.3-0.5,0.6-0.9,1c-0.1,0.1-0.2,0.3-0.4,0.4c-0.1,0.1-0.1,0.2-0.2,0.2c-0.1,0.1-0.1,0.2-0.2,0.2c-0.3,0.3-0.6,0.7-1.1,1.2
			C76.2,71.9,76.7,71.3,77,71z"/>
		
			<linearGradient id="SVGID_00000010312518766392474050000000363319483820316559_" gradientUnits="userSpaceOnUse" x1="-10.1391" y1="16.6005" x2="44.2349" y2="92.6184">
			<stop  offset="0" style="stop-color:#F34B2C"/>
			<stop  offset="1" style="stop-color:#D5CE47"/>
		</linearGradient>
		<path style="fill:url(#SVGID_00000010312518766392474050000000363319483820316559_);" d="M9.1,43.6c0,1,0,1.9,0,1.9
			c0,0,0-0.2,0.1-0.6c0-0.1,0-0.2,0-0.3c0-0.1,0-0.3,0-0.4c0-0.3,0-0.6,0-0.9c0-0.1,0-0.3,0-0.4c0-0.1,0-0.2,0-0.3
			c0-0.2,0-0.4,0-0.5c0-0.2,0-0.3,0-0.3c0,0-0.1,0.1-0.1,0.4c0,0.2,0,0.4-0.1,0.6C9.1,43,9.1,43.3,9.1,43.6z"/>
		
			<linearGradient id="SVGID_00000101798491840842135470000011066414388809878207_" gradientUnits="userSpaceOnUse" x1="-2.7174" y1="11.2919" x2="51.6566" y2="87.3098">
			<stop  offset="0" style="stop-color:#F34B2C"/>
			<stop  offset="1" style="stop-color:#D5CE47"/>
		</linearGradient>
		<path style="fill:url(#SVGID_00000101798491840842135470000011066414388809878207_);" d="M11.8,31.2c-0.1,0.3-0.2,0.6-0.3,0.9
			c-0.1,0.3-0.1,0.5-0.2,0.6c-0.1,0.3-0.1,0.5-0.1,0.5c0,0,0.1-0.1,0.2-0.4c0.1-0.3,0.2-0.7,0.5-1.3c0.2-0.6,0.4-0.9,0.4-1.2
			c0.1-0.2,0.1-0.3,0.1-0.3c0,0-0.1,0-0.2,0.2C12.2,30.4,12,30.7,11.8,31.2z"/>
		
			<linearGradient id="SVGID_00000093889701364651472740000002440730572150473902_" gradientUnits="userSpaceOnUse" x1="-14.1609" y1="19.4772" x2="40.2131" y2="95.4951">
			<stop  offset="0" style="stop-color:#F34B2C"/>
			<stop  offset="1" style="stop-color:#D5CE47"/>
		</linearGradient>
		<path style="fill:url(#SVGID_00000093889701364651472740000002440730572150473902_);" d="M8.8,52.7c-0.1-0.6-0.2-1.1-0.3-1.7
			c0-0.3-0.1-0.6-0.1-0.9c0-0.3-0.1-0.6-0.1-0.9c0,0.5,0,1,0.1,1.5c0,0.2,0.1,0.4,0.1,0.7c0,0.3,0.1,0.6,0.2,0.9
			c0.1,0.7,0.2,1,0.3,1.1C9,53.6,9,53.3,8.8,52.7z"/>
		
			<linearGradient id="SVGID_00000062191588800503860190000014677340624186142376_" gradientUnits="userSpaceOnUse" x1="-15.8447" y1="20.6816" x2="38.5292" y2="96.6995">
			<stop  offset="0" style="stop-color:#F34B2C"/>
			<stop  offset="1" style="stop-color:#D5CE47"/>
		</linearGradient>
		<path style="fill:url(#SVGID_00000062191588800503860190000014677340624186142376_);" d="M22.8,74.7c0.8,0.6,1.5,1.2,1.5,1.1
			c0,0-0.2-0.2-0.6-0.5c-0.2-0.1-0.4-0.3-0.6-0.5c-0.1-0.1-0.2-0.2-0.4-0.3c-0.1-0.1-0.3-0.2-0.4-0.3c-0.8-0.7-1.1-1-1.2-1
			c0,0,0.2,0.2,0.5,0.5c0.1,0.1,0.3,0.3,0.5,0.5c0.1,0.1,0.2,0.2,0.3,0.3c0.1,0,0.1,0.1,0.2,0.1C22.6,74.6,22.7,74.7,22.8,74.7z"/>
		
			<linearGradient id="SVGID_00000139257408148741966730000017579236043238810502_" gradientUnits="userSpaceOnUse" x1="2.6718" y1="7.4371" x2="57.0458" y2="83.4551">
			<stop  offset="0" style="stop-color:#F34B2C"/>
			<stop  offset="1" style="stop-color:#D5CE47"/>
		</linearGradient>
		<path style="fill:url(#SVGID_00000139257408148741966730000017579236043238810502_);" d="M59.5,83.5c-0.4,0.1-0.8,0.2-1.1,0.4
			c-0.4,0.1-0.8,0.2-1.2,0.3c-0.2,0.1-0.4,0.1-0.6,0.2c-0.2,0-0.4,0.1-0.7,0.1c-0.2,0.1-0.5,0.1-0.7,0.2c-0.2,0.1-0.5,0.1-0.7,0.2
			c0.2,0,0.5-0.1,0.7-0.1c0.2,0,0.5-0.1,0.7-0.1c0.2,0,0.4-0.1,0.7-0.1c0.2,0,0.4-0.1,0.7-0.2c0.4-0.1,0.9-0.2,1.3-0.3
			c0.4-0.1,0.9-0.3,1.3-0.4c0.3-0.1,0.6-0.2,0.6-0.2c0,0-0.1,0-0.2,0.1C60,83.3,59.8,83.4,59.5,83.5z"/>
		
			<linearGradient id="SVGID_00000018919731109266433160000010353609932218419635_" gradientUnits="userSpaceOnUse" x1="-12.4944" y1="18.2852" x2="41.8796" y2="94.3031">
			<stop  offset="0" style="stop-color:#F34B2C"/>
			<stop  offset="1" style="stop-color:#D5CE47"/>
		</linearGradient>
		<path style="fill:url(#SVGID_00000018919731109266433160000010353609932218419635_);" d="M34.1,81.6c0.9,0.3,1.2,0.4,0.9,0.2
			c-0.1,0-0.3-0.1-0.6-0.2c-0.1,0-0.3-0.1-0.4-0.1c-0.1-0.1-0.3-0.1-0.4-0.1c-0.4-0.1-0.8-0.3-1.3-0.5c-0.4-0.2-0.9-0.4-1.3-0.6
			c-0.4-0.2-0.8-0.4-1.2-0.5c-0.3-0.2-0.6-0.3-0.7-0.3c0.4,0.2,0.8,0.4,1.2,0.6l0.2,0.1l0.2,0.1c0.1,0,0.2,0.1,0.3,0.1
			c0.2,0.1,0.4,0.2,0.6,0.3l0.6,0.3c0.2,0.1,0.4,0.2,0.6,0.2C33.2,81.2,33.6,81.4,34.1,81.6z"/>
		
			<linearGradient id="SVGID_00000124128770816136009790000013950944702844933543_" gradientUnits="userSpaceOnUse" x1="-13.8955" y1="19.2873" x2="40.4785" y2="95.3053">
			<stop  offset="0" style="stop-color:#F34B2C"/>
			<stop  offset="1" style="stop-color:#D5CE47"/>
		</linearGradient>
		<path style="fill:url(#SVGID_00000124128770816136009790000013950944702844933543_);" d="M29.1,79.4
			C29.1,79.4,29.1,79.4,29.1,79.4C29.1,79.4,29.1,79.4,29.1,79.4L29.1,79.4C29.1,79.4,29.1,79.4,29.1,79.4L29.1,79.4z"/>
		
			<linearGradient id="SVGID_00000062188743463575775430000000772234409768030391_" gradientUnits="userSpaceOnUse" x1="-8.6872" y1="15.562" x2="45.6867" y2="91.5799">
			<stop  offset="0" style="stop-color:#F34B2C"/>
			<stop  offset="1" style="stop-color:#D5CE47"/>
		</linearGradient>
		<path style="fill:url(#SVGID_00000062188743463575775430000000772234409768030391_);" d="M42.8,87.2c1,0.1,1.5,0.1,1.3,0.1
			c-0.1,0-0.2-0.1-0.5-0.1c-0.3,0-0.7-0.1-1.3-0.2c-1-0.1-1.3-0.1-1.5-0.1C41.1,87,41.6,87.1,42.8,87.2z"/>
		
			<linearGradient id="SVGID_00000016037321260366492010000009995923475260837006_" gradientUnits="userSpaceOnUse" x1="32.8864" y1="-14.1747" x2="87.2604" y2="61.8432">
			<stop  offset="0" style="stop-color:#F34B2C"/>
			<stop  offset="1" style="stop-color:#D5CE47"/>
		</linearGradient>
		<path style="fill:url(#SVGID_00000016037321260366492010000009995923475260837006_);" d="M84.6,58c0.1-0.4,0.3-0.9,0.4-1.3
			c0.1-0.2,0.1-0.3,0.1-0.5c0-0.1,0-0.2,0-0.2c0,0-0.1,0.2-0.2,0.5c-0.1,0.3-0.3,0.8-0.4,1.2c-0.2,0.6-0.4,1.1-0.5,1.4
			c-0.1,0.4-0.2,0.6-0.2,0.6c0,0.1,0.1-0.1,0.2-0.4c0.1-0.2,0.2-0.4,0.3-0.6c0-0.1,0.1-0.3,0.2-0.4C84.5,58.3,84.5,58.1,84.6,58z"/>
		
			<linearGradient id="SVGID_00000142876352040075040890000005689890096116477324_" gradientUnits="userSpaceOnUse" x1="44.7761" y1="-22.6791" x2="99.15" y2="53.3388">
			<stop  offset="0" style="stop-color:#F34B2C"/>
			<stop  offset="1" style="stop-color:#D5CE47"/>
		</linearGradient>
		<path style="fill:url(#SVGID_00000142876352040075040890000005689890096116477324_);" d="M71.8,14.9c-0.5-0.4-0.9-0.7-1.2-0.9
			c-0.3-0.2-0.5-0.3-0.4-0.2c0.1,0.1,0.3,0.2,0.6,0.5c0.3,0.3,0.7,0.6,1.2,1c0.8,0.7,1.3,1.1,1.3,1.1c-0.1-0.1-0.2-0.2-0.5-0.5
			c-0.1-0.1-0.3-0.2-0.4-0.4c-0.1-0.1-0.2-0.2-0.3-0.3C72,15.1,71.9,15,71.8,14.9z"/>
		
			<linearGradient id="SVGID_00000178885856604992671700000005320697078922391684_" gradientUnits="userSpaceOnUse" x1="46.8168" y1="-24.1389" x2="101.1908" y2="51.8791">
			<stop  offset="0" style="stop-color:#F34B2C"/>
			<stop  offset="1" style="stop-color:#D5CE47"/>
		</linearGradient>
		<path style="fill:url(#SVGID_00000178885856604992671700000005320697078922391684_);" d="M86.3,31.1c0.2,0.6,0.3,1,0.4,1.2
			c0.1,0.3,0.1,0.4,0.2,0.4c0,0,0-0.1-0.1-0.4c0-0.1-0.1-0.3-0.2-0.6c0-0.1,0-0.1-0.1-0.2c0-0.1,0-0.1-0.1-0.2
			c-0.1-0.1-0.1-0.3-0.2-0.5c-0.2-0.4-0.3-0.8-0.4-1c-0.1-0.3-0.2-0.4-0.2-0.4c0,0,0,0.1,0.1,0.4C86,30.2,86.1,30.6,86.3,31.1z"/>
		
			<linearGradient id="SVGID_00000121256514819533801480000010120288448628417668_" gradientUnits="userSpaceOnUse" x1="-15.7993" y1="20.6491" x2="38.5747" y2="96.667">
			<stop  offset="0" style="stop-color:#F34B2C"/>
			<stop  offset="1" style="stop-color:#D5CE47"/>
		</linearGradient>
		<path style="fill:url(#SVGID_00000121256514819533801480000010120288448628417668_);" d="M31.1,84.5c0.1,0-0.1-0.1-0.3-0.2
			c-0.3-0.1-0.7-0.3-1.2-0.6c-0.3-0.1-0.5-0.2-0.7-0.3c-0.2-0.1-0.4-0.2-0.6-0.3c-0.3-0.2-0.5-0.2-0.7-0.3c-0.2-0.1,0.3,0.2,1.2,0.7
			c0.7,0.3,1.2,0.5,1.6,0.7c0.2,0.1,0.3,0.1,0.5,0.2C30.9,84.5,31,84.5,31.1,84.5z"/>
		
			<linearGradient id="SVGID_00000156582488619175624790000005609979408129286784_" gradientUnits="userSpaceOnUse" x1="21.4387" y1="-5.9864" x2="75.8126" y2="70.0315">
			<stop  offset="0" style="stop-color:#F34B2C"/>
			<stop  offset="1" style="stop-color:#D5CE47"/>
		</linearGradient>
		<path style="fill:url(#SVGID_00000156582488619175624790000005609979408129286784_);" d="M29.2,4.3c0.9-0.4,1.2-0.5,1.3-0.6
			c0.2-0.1,0-0.1-1.3,0.4c-0.2,0.1-0.4,0.2-0.6,0.3c-0.2,0.1-0.4,0.2-0.6,0.3c-0.3,0.2-0.6,0.3-0.7,0.4c-0.2,0.1,0.1,0,0.5-0.2
			c0.2-0.1,0.4-0.2,0.7-0.3C28.7,4.6,28.9,4.4,29.2,4.3z"/>
		
			<linearGradient id="SVGID_00000062893988001967339460000003460109543903040392_" gradientUnits="userSpaceOnUse" x1="44.2132" y1="-22.2765" x2="98.5871" y2="53.7415">
			<stop  offset="0" style="stop-color:#F34B2C"/>
			<stop  offset="1" style="stop-color:#D5CE47"/>
		</linearGradient>
		<path style="fill:url(#SVGID_00000062893988001967339460000003460109543903040392_);" d="M63.4,4.5c0.2,0.1,0.5,0.2,0.7,0.3
			c0.2,0.1,0.3,0.1,0.5,0.2c0.2,0.1,0.4,0.1,0.3,0.1c-0.1-0.1-0.6-0.4-1.6-0.7c-0.5-0.2-0.9-0.3-1.1-0.4c-0.3-0.1-0.4-0.1-0.4-0.1
			c0.1,0,0.2,0.1,0.5,0.2C62.6,4.2,63,4.3,63.4,4.5z"/>
		
			<linearGradient id="SVGID_00000005249974837830583670000005603757595700201404_" gradientUnits="userSpaceOnUse" x1="31.1307" y1="-12.9189" x2="85.5046" y2="63.0991">
			<stop  offset="0" style="stop-color:#F34B2C"/>
			<stop  offset="1" style="stop-color:#D5CE47"/>
		</linearGradient>
		<path style="fill:url(#SVGID_00000005249974837830583670000005603757595700201404_);" d="M41.2,1.4c0.9-0.1,1.5-0.2,1.7-0.2
			c0.3-0.1-0.3,0-1.5,0.1c-0.8,0.1-1.5,0.2-1.6,0.3C39.4,1.6,40.1,1.5,41.2,1.4z"/>
		
			<linearGradient id="SVGID_00000036940394430213685060000014468136253600449166_" gradientUnits="userSpaceOnUse" x1="5.7784" y1="5.215" x2="60.1524" y2="81.233">
			<stop  offset="0" style="stop-color:#F34B2C"/>
			<stop  offset="1" style="stop-color:#D5CE47"/>
		</linearGradient>
		<path style="fill:url(#SVGID_00000036940394430213685060000014468136253600449166_);" d="M59.1,82.5c0,0,0.1,0,0.3-0.1
			c0.1,0,0.2-0.1,0.4-0.1c0.1,0,0.1,0,0.2-0.1c0.1,0,0.2-0.1,0.2-0.1c0.7-0.2,1.2-0.5,1.6-0.6c0.3-0.2,0.5-0.2,0.4-0.2
			c0,0-0.2,0.1-0.4,0.2c-0.2,0.1-0.6,0.2-0.9,0.3c-0.3,0.1-0.5,0.2-0.7,0.3c-0.1,0-0.1,0-0.2,0.1c-0.1,0-0.1,0-0.1,0
			c-0.1,0-0.2,0.1-0.3,0.1C59.2,82.4,59.1,82.4,59.1,82.5z"/>
		
			<linearGradient id="SVGID_00000085250821265700452210000000267547736127250093_" gradientUnits="userSpaceOnUse" x1="14.2666" y1="-0.8564" x2="68.6405" y2="75.1616">
			<stop  offset="0" style="stop-color:#F34B2C"/>
			<stop  offset="1" style="stop-color:#D5CE47"/>
		</linearGradient>
		<path style="fill:url(#SVGID_00000085250821265700452210000000267547736127250093_);" d="M79.5,22.2c-0.3-0.3,0.1,0.3-1.1-1.2
			c-1.6-1.9-3.3-3.7-5.1-5.3c-0.2-0.2-0.4-0.4-0.6-0.6c-0.1-0.1-0.2-0.2-0.3-0.3c-0.1-0.1-0.2-0.2-0.3-0.3c-0.4-0.4-0.8-0.7-1.3-1
			c-0.4-0.3-0.8-0.6-1.2-0.9c-0.1-0.1-0.2-0.1-0.3-0.2c-0.1-0.1-0.2-0.1-0.3-0.2c-0.2-0.1-0.4-0.3-0.5-0.4c-0.2-0.1-0.3-0.2-0.5-0.3
			c-0.2-0.1-0.3-0.2-0.5-0.3c-0.3-0.2-0.7-0.4-1-0.6c-0.3-0.2-0.6-0.4-0.8-0.5c-0.2-0.1-0.3-0.2-0.4-0.2c-0.1-0.1,0.1,0,0.5,0.2
			c1.1,0.5,1.6,0.8,1.6,0.8c0,0-0.2-0.2-0.6-0.4c-0.2-0.1-0.4-0.2-0.7-0.4c-0.3-0.2-0.6-0.3-1-0.5c0,0-0.1,0-0.1,0
			c0,0-0.2,0-0.6-0.2c-0.2-0.1-0.5-0.2-0.8-0.4c-0.4-0.2-0.8-0.4-1.3-0.6C62,8.2,61.6,8,61.3,7.9c-0.2-0.1-0.3-0.1-0.5-0.2
			c-0.1-0.1-0.3-0.1-0.4-0.1c-0.5-0.2-0.8-0.3-1-0.4C58.9,7.1,59,7,59.1,7c-1.9-0.6-1.8-0.6-1.4-0.5l-0.5-0.2l-0.5-0.1
			c-1.3-0.3-1.5-0.3-0.8,0c0.4,0.1,0.5,0.2-0.4,0c-0.1,0-0.2,0-0.3-0.1c-0.1,0-0.2,0-0.3,0c-0.2,0-0.3-0.1-0.5-0.1
			c-0.3-0.1-0.5-0.1-0.7-0.2c-0.1,0-0.2-0.1-0.4-0.1c-0.1,0-0.3,0-0.4-0.1c-0.3,0-0.5-0.1-0.8-0.1c-0.1,0-0.3,0-0.4,0
			c-0.1,0-0.2,0-0.3,0c-0.1,0-0.2,0-0.3,0c-0.2,0-0.6,0-0.9,0c-0.2,0-0.4,0-0.6,0c-0.2,0-0.5,0-0.8,0c-0.7,0-1,0-1.1,0
			c0,0-0.1,0-0.1,0c0,0-0.2,0.1-1.1,0.1c-0.2,0-0.5,0-0.8,0c-0.3,0-0.6,0-0.8,0c-0.5,0-1,0.1-1,0.1c0,0-0.3,0.1-0.2,0.1
			c0.1,0,0.5,0,1.7,0c0.1,0,0.3,0,0.4,0c0.1,0,0.3,0,0.4,0c0.3,0,0.5,0,0.7,0c0.4,0,0.7,0,0.4,0.1c-0.2,0-0.5,0-0.9,0
			c-0.3,0-0.7,0-1.1,0c-0.3,0-0.6,0-0.9,0c-0.3,0-0.6,0-0.9,0.1C43.2,6,42.9,6,42.6,6c-0.3,0-0.6,0.1-0.9,0.1
			c-1.3,0.2-2.6,0.4-4,0.8L37,7.1l-0.3,0.1c-0.1,0-0.2,0.1-0.3,0.1c-0.4,0.2-1,0.4-1.7,0.6c-0.3,0.1-0.7,0.3-1.1,0.4
			c-0.2,0.1-0.4,0.1-0.6,0.2c-0.2,0.1-0.4,0.1-0.6,0.2c-0.6,0.2-0.4,0.1,0.1-0.1C32.6,8.5,32,8.7,31.4,9C31.3,9,31.1,9.1,31,9.1
			c-0.1,0.1-0.2,0.1-0.3,0.1c-0.2,0.1-0.3,0.2-0.5,0.2c-0.2,0.1-0.3,0.1-0.3,0.1c0,0,0.2-0.2,0-0.1c0.1-0.1,0.3-0.1,0.5-0.3
			c0.2-0.1,0.4-0.2,0.6-0.4c0.3-0.1,0.7-0.3,1-0.4c0.3-0.1,0.7-0.3,1.1-0.4c-0.4,0.1-0.7,0.3-1.1,0.4l-1,0.4c-0.2,0-0.2,0-0.7,0.2
			c0.5-0.2,0.5-0.2,0.7-0.2c-0.2,0.1-0.4,0.2-0.6,0.4c-0.2,0.1-0.4,0.2-0.5,0.3l-0.4,0.2c-0.1,0-0.1,0.1-0.2,0.1L29,9.9l-0.9,0.5
			c-0.1,0.1,0,0.1-0.4,0.3c-0.2,0.1-0.3,0.2-0.5,0.3c-0.2,0.1-0.4,0.2-0.5,0.3c-0.4,0.2-0.7,0.4-0.9,0.5c-0.2,0.1-0.5,0.3-0.9,0.5
			c-0.2,0.1-0.4,0.3-0.6,0.4c-0.2,0.2-0.5,0.4-0.8,0.6c-0.2,0.1-0.5,0.4-0.7,0.5c-0.1,0.1-0.2,0.2-0.3,0.3c-0.1,0.1-0.2,0.2-0.4,0.3
			c-0.2,0.2-0.5,0.4-0.7,0.6c-0.2,0.2-0.4,0.4-0.6,0.5c-0.2,0.2-0.3,0.3-0.3,0.3c-0.2,0.3-0.1,0.3,0.6-0.3c0.1-0.1,0.1-0.1,0.2-0.2
			c0.1-0.1,0.1-0.1,0.2-0.2c0.1-0.1,0.3-0.2,0.4-0.3c0.3-0.2,0.6-0.5,0.9-0.7c0.3-0.2,0.6-0.5,0.9-0.7c0.3-0.2,0.6-0.5,0.9-0.7
			c0.2-0.2,0.3-0.3,1.1-0.8c0.2-0.1,0.3-0.2,0.4-0.2c0.1-0.1,0.2-0.1,0.3-0.2c0.1-0.1,0.2-0.1,0.3-0.1c0.1,0,0,0,0,0
			c0.3-0.2,0.6-0.3,0.8-0.5c0.2-0.1,0.4-0.2,0.5-0.2c0.2-0.1,0.2-0.1,0.1,0.1c0.2-0.1,0.4-0.2,0.5-0.2c0.1,0,0.1,0,0,0.1
			c-0.1,0.1-0.2,0.1-0.4,0.3c-0.1,0.1-0.2,0.1-0.4,0.2c-0.1,0.1-0.3,0.2-0.4,0.3c-1.3,0.8-1.4,0.8-1,0.5c0.1-0.1,0.4-0.3,0.6-0.4
			c-0.3,0.2-0.8,0.4-1,0.5c-0.3,0.2-0.6,0.3-0.9,0.5c-0.1,0.1-0.3,0.2-0.4,0.3c-0.1,0.1-0.3,0.2-0.4,0.3c-0.3,0.2-0.6,0.4-0.9,0.7
			c-0.1,0.1-0.3,0.2-0.5,0.4c-0.2,0.1-0.3,0.3-0.4,0.4c-0.3,0.3-0.6,0.6-1,0.9c-0.4,0.3-0.8,0.7-1.2,1.1c-0.2,0.2-0.3,0.3-0.5,0.5
			c0.3-0.3,0,0.1-0.4,0.6c0,0-0.1,0.2-0.3,0.4c-0.1,0.1-0.2,0.3-0.4,0.4c-0.2,0.2-0.3,0.4-0.5,0.6c-0.2,0.2-0.4,0.5-0.6,0.7l0.6-0.7
			c0.1-0.1,0.2-0.1,0.3-0.2c0.1-0.1,0.2-0.2,0.3-0.3c0.1-0.1,0.2-0.2,0.3-0.3c0.2-0.2,0.3-0.3,0.5-0.5c0.3-0.3,0.5-0.5,0.7-0.7
			c0.8-0.8,1.7-1.5,1.8-1.5c0,0-0.2,0.2-0.5,0.5c-0.3,0.3-0.8,0.7-1.1,1.1c-0.3,0.4-0.9,1-1.3,1.4c-0.2,0.2-0.3,0.4-0.3,0.4
			c0,0,0.1-0.1,0.4-0.3c0.3-0.3,1.3-1.2,0.1,0.1c-1.5,1.7-1.4,1.5-1.5,1.5c-0.7,0.8-1.1,1.3-1.1,1.3c-0.2,0.2-0.3,0.4-0.4,0.5
			c-0.1,0.2-0.2,0.3-0.3,0.4c-0.2,0.3-0.4,0.5-0.5,0.6c-0.1,0.1-0.2,0.2-0.3,0.3c-0.1,0.1-0.1,0.1-0.1,0.1c-0.3,0.4-0.5,0.8-0.8,1.2
			c-0.1,0.1-0.1,0.2-0.2,0.3c-0.1,0.1-0.1,0.2-0.2,0.3c-0.1,0.2-0.3,0.5-0.4,0.7c-0.1,0.2-0.2,0.4-0.2,0.5c0,0.1-0.1,0.2-0.1,0.3
			c-0.1,0.2-0.2,0.4-0.4,0.9c-0.1,0.2-0.2,0.4-0.2,0.5c-0.1,0.2-0.1,0.3-0.2,0.5c-0.1,0.3-0.3,0.7-0.5,1c-0.1,0.1-0.1,0.2-0.2,0.3
			c0,0.1-0.1,0.2-0.1,0.3c-0.3,0.7-0.5,1.1-0.4,0.9c0-0.1,0.1-0.3,0.3-0.7c0.1-0.4,0.4-0.9,0.7-1.6l0,0c0.1-0.3,0.3-0.6,0.4-0.9
			c0,0,0,0,0-0.1c0,0,0,0.1,0,0.1c-0.2,0.3-0.3,0.6-0.4,0.9c-0.1,0.3-0.3,0.5-0.4,0.8c-0.1,0.1-0.1,0.3-0.2,0.4
			c-0.1,0.1-0.1,0.3-0.2,0.4c-0.2,0.5-0.4,1-0.6,1.5c-0.2,0.5-0.3,0.9-0.4,1.4c0,0.1-0.1,0.2-0.1,0.3c0,0.1-0.1,0.2-0.1,0.3
			c-0.1,0.2-0.1,0.4-0.1,0.6c-0.1,0.3-0.1,0.6-0.2,1c-0.1,0.4-0.2,0.8-0.3,1.5c-0.1,0.3-0.1,0.5-0.2,0.8c-0.1,0.2-0.1,0.4-0.1,0.6
			c-0.1,0.3-0.1,0.3,0-0.1C9.4,36,9,37.9,8.9,37.8C8.7,38.6,8.6,39,8.6,39c0,0,0-0.5,0.2-1.5c0.1-0.4,0.1-0.5,0-0.5c0,0,0,0,0-0.1
			c-0.1,0.7-0.2,0.7-0.2,0.6c0,0.1-0.1,0.3-0.1,0.5c-0.1,0.4-0.2,0.8-0.2,1c0,0.2-0.1,0.3-0.1,0.1c0-0.2,0-0.4,0-0.5
			c0-0.1,0-0.1,0-0.1c0,0-0.1,0.1-0.2,0.1l0-0.2c0,0.1,0,0.1,0,0.2c-0.2,1.1-0.3,2.1-0.4,3.2c0,0.2,0,0.3,0,0.5c0,0.2,0,0.3,0,0.5
			c0,0.3,0,0.7,0,1.1c0,0.2,0,0.4,0,0.5c0,0.2,0,0.4,0,0.6c0,0.4,0,0.7,0,1.1c0,0.1,0,0.3,0,0.4c0,0.2,0,0.3,0,0.5
			c0,0.3,0.1,0.7,0.1,1c0,0.1,0,0.2,0,0.3c0,0.1,0,0.2,0,0.3c0,0.2,0,0.4,0.1,0.6c0,0.2,0,0.5,0.1,0.7c0,0.1,0,0.2,0,0.4
			c0,0.1,0,0.3,0.1,0.4c0.1,0.4,0.1,0.8,0.2,1.2c0,0.1,0,0.2,0,0.3c0,0.1,0,0.2,0.1,0.3c0,0.2,0.1,0.4,0.1,0.5
			c0.1,0.4,0.2,0.7,0.2,1.1c0.1,0.3,0.2,0.7,0.3,1.1c0,0,0.1,0,0-0.5c-0.2-0.6-0.3-1.2-0.4-1.8c-0.1-0.3-0.1-0.5-0.1-0.7
			c0-0.2,0-0.3,0-0.3c0,0,0,0.1,0,0.2c0,0,0,0.1,0,0.1c0,0.1,0,0.1,0,0.2c0.1,0.3,0.1,0.6,0.2,0.9c0.1,0.4,0.2,0.8,0.3,1.2
			C8.9,54.7,9,54.9,9,55.1c-0.1-0.4-0.2-0.8-0.3-1.1c-0.1-0.3-0.1-0.5,0-0.4c0.1,0.3,0.2,0.7,0.3,1.2c0.1,0.5,0.2,1,0.4,1.5
			c0,0,0.1,0.2,0.1,0.2c-0.1-0.6-0.1-0.9-0.1-0.7c0,0.1,0.1,0.3,0.3,0.7c0.1,0.2,0.1,0.4,0.2,0.7c0,0.1,0.1,0.3,0.1,0.4
			c0.1,0.1,0.1,0.3,0.2,0.5c0.4,0.8,0.4,0.9,1.8,3.9c0.1,0.2,0.3,0.5,0.4,0.8c0.2,0.3,0.4,0.7,0.6,1c-0.1-0.4-0.2-0.5,0.5,0.6
			l0.7,0.9c-0.1-0.2-0.4-0.8,0.2,0.2c0.1,0.1,0.2,0.2,0.2,0.4c0.1,0.1,0.1,0.2,0.2,0.3c0.1,0.2,0.2,0.3,0.3,0.4
			c0.1,0.2,0.2,0.3,0.2,0.4c0.1,0.2,0.3,0.4,0.4,0.6c0.1,0.2,0.3,0.4,0.4,0.6c0.1,0.2,0.3,0.4,0.4,0.6c0.1,0.2,0.3,0.4,0.4,0.5
			c0.5,0.6,0.9,1.1,1,1.3c0.3,0.3,0.5,0.6,0.8,0.9c0.3,0.3,0.5,0.5,0.6,0.7c0.1,0.1,0.2,0.2,0.2,0.2c0,0-0.1-0.1-0.2-0.2
			c-0.2-0.1-0.4-0.4-0.6-0.7c-0.2-0.2-0.4-0.4-0.6-0.6c1.3,1.4,1.3,1.5,0.3,0.5l0.7,0.8c0.4,0.4,0.8,0.8,1.2,1.2
			c0.1,0.1,0.2,0.2,0.3,0.2c0.1,0.1,0.2,0.2,0.3,0.2c0.2,0.2,0.4,0.3,0.6,0.5c0.4,0.3,0.7,0.6,1,0.9c0.2,0.2,0.1,0.2,0.1,0.1
			c-0.3-0.1-0.3,0,0.2,0.5c0.1,0.1,0.3,0.3,0.5,0.4c0.1,0.1,0.2,0.2,0.3,0.3c0.1,0.1,0.2,0.2,0.4,0.3c0.5,0.4,1.2,0.9,2,1.5
			c0.5,0.3,0.7,0.5,0.9,0.6c0.2,0.1,0.2,0.1,0,0.1l0.4,0.3c0.3,0.2,0.6,0.4,0.9,0.6c0.2,0.1,0.3,0.2,0.5,0.3
			c0.2,0.1,0.3,0.2,0.5,0.3c0.3,0.2,0.7,0.3,1,0.5c0.4,0.2,0.7,0.3,1.1,0.5c0.2,0.1,0.5,0.2,0.6,0.2c0.2,0.1,0.3,0.1,0.3,0
			c-0.3-0.1-0.4-0.2-0.4-0.2c0,0,0,0,0.1,0c0.2,0.1,0.8,0.3,1.4,0.5l0.5,0.2c0.2,0.1,0.3,0.1,0.5,0.1l0.9,0.3c0.1,0,0.2,0,0.4,0
			l0.2,0c0.1,0,0.1,0,0.2,0c0.3,0,0.4,0,0.4-0.1c0,0,0.2,0,1,0.2c0.1,0,0.2,0.1,0.3,0.1c0.1,0,0.2,0,0.3,0.1c0.2,0,0.4,0.1,0.5,0.1
			c0.3,0.1,0.6,0.2,0.8,0.2c0.2,0.1,0.3,0.1,0.5,0.1c0.2,0,0.4,0.1,0.7,0.1c0.2,0,0.5,0.1,0.8,0.2c0.3,0,0.6,0.1,0.9,0.1
			c-0.4-0.1-0.1-0.1,0.9,0c0.1,0,0.2,0,0.4,0c0.1,0,0.3,0,0.4,0c0.3,0,0.6,0,0.9,0.1c0.2,0,0.3,0,0.5,0c0.2,0,0.3,0,0.5,0
			c0.3,0,0.7,0,1,0c0.4,0,0.6,0,0.8,0c0.2,0,0.3,0,0.3,0c0,0-0.2,0.1-0.6,0.1c-0.1,0-0.3,0-0.4,0c-0.2,0-0.3,0-0.5,0
			c-0.3,0-0.7,0-1.1,0c-0.4,0-0.8-0.1-1.2-0.1c-0.2,0-0.4,0-0.6,0c-0.2,0-0.4,0-0.6-0.1c0.2,0-0.3,0-0.8-0.1l0.8,0.1l-0.8-0.1
			c-0.1,0-0.3,0-0.4,0c-0.2,0-0.3-0.1-0.5-0.1c-0.4-0.1-0.8-0.1-1.2-0.2c0,0-0.1,0-0.1,0c-0.1,0-0.1,0-0.1,0c0.8,0.2,1,0.3,0.6,0.4
			l0.9,0.2l0.4,0.1c0.1,0,0.3,0,0.4,0.1c0.3,0,0.8,0.1,1.3,0.1c0.2,0,0.5,0,0.7,0.1c0.2,0,0.4,0,0.5,0.1c0.2,0,0.3,0,0.5,0.1
			c0.1,0,0.2,0,0.3,0c0.1,0,0.2,0,0.3,0c0.4,0,0.8,0,1.3,0.1c0.2,0,0.4,0,0.6,0c0.2,0,0.4,0,0.6,0c0.4,0,0.7,0,0.9,0
			c0.3,0,0.6,0,0.9,0c0.5,0,1-0.1,1.4-0.1c0.4,0,0.8-0.1,1.1-0.1c0.3,0,0.6-0.1,0.8-0.1c0.2,0,0.3,0,0.4,0c0.2,0,0.1,0,0.1,0l0,0
			l0.9-0.1l0.5-0.1l0.5-0.1c0.5-0.1,1-0.2,1.5-0.3l1.5-0.4c0.3-0.1,0.6-0.2,0.8-0.3c0.2-0.1,0.5-0.1,0.6-0.2
			c0.4-0.1,0.7-0.2,0.8-0.3c0.4-0.1,0.5-0.1,0.5-0.1c0.7-0.2,1-0.3,1.2-0.4c0.3-0.1,0.5-0.2,0.8-0.3c0.4-0.2,0.7-0.3,1-0.4
			c0.2-0.1,0.3-0.1,0.3-0.1c0,0-0.1,0-0.2,0.1c-0.2,0.1-0.4,0.2-0.8,0.4c-0.3,0.2-0.7,0.3-0.9,0.4c-0.3,0.1-0.5,0.2-0.8,0.3
			c-0.5,0.2-0.8,0.3-1.1,0.4c-0.6,0.2-0.8,0.2-1.1,0.3l-0.7,0.2c-0.2,0.1-0.5,0.1-0.7,0.2L57,83.9c-0.2,0.1-0.5,0.1-0.7,0.2
			c-0.3,0.1-0.7,0.2-1,0.2c-0.3,0.1-0.6,0.2-0.9,0.2c-0.6,0.1-1.1,0.2-1.6,0.3c-0.5,0.1-0.9,0.2-1.3,0.2c-0.4,0.1-0.7,0.1-1,0.2
			c0.1,0,0.2,0,0.3,0c0.1,0,0.2,0,0.3,0c0.2,0,0.4,0,0.6,0c0.4,0,1-0.1,1.8-0.2c0.5-0.1,0.9-0.1,1.3-0.2c0.3-0.1,0.6-0.1,0.8-0.1
			c0.4-0.1,0.5-0.1,0.4,0c-0.1,0-0.3,0.1-0.6,0.2c-0.1,0-0.2,0.1-0.3,0.1c-0.1,0-0.3,0.1-0.4,0.1c-0.3,0.1-0.7,0.1-1.3,0.2
			c-0.2,0-0.4,0.1-0.6,0.1c-0.2,0-0.3,0-0.4,0c-0.2,0-0.4,0-0.5,0c-0.2,0-0.2,0-0.1-0.1c0.1,0-0.2,0-0.8,0c-0.5,0-1.1,0-1.5,0
			c-0.5,0-1,0-1.4,0.1c-0.2,0-0.5,0-0.7,0c-0.1,0-0.2,0-0.3,0c-0.1,0-0.2,0-0.3,0c-0.4,0-1.5,0-1.6,0c-0.1,0-0.5-0.1-1-0.2
			c-0.3,0-0.6-0.1-0.9-0.1c-0.3,0-0.7-0.1-1-0.2c-0.2,0-0.4-0.1-0.6-0.1c-0.2,0-0.4-0.1-0.6-0.1c-0.4-0.1-0.8-0.2-1.2-0.2
			c-0.2,0-0.4-0.1-0.6-0.1c-0.2,0-0.4-0.1-0.5-0.1c-0.4-0.1-0.7-0.2-1-0.3c-0.3-0.1-0.6-0.2-0.9-0.2c-0.3-0.1-0.6-0.2-0.9-0.3
			c-0.1,0-0.3-0.1-0.4-0.1c-0.1,0-0.3-0.1-0.4-0.1c-0.3-0.1-0.6-0.2-0.8-0.3c-0.3-0.1-0.2,0-0.3,0.1c0,0,0,0-0.2,0
			c-0.1,0-0.4-0.1-0.8-0.2l0,0.1c-0.1,0-0.1,0,0.2,0.2c0.1,0,0.2,0.1,0.3,0.1c0.1,0.1,0.3,0.1,0.5,0.2c0.2,0.1,0.5,0.2,0.7,0.3
			c0.3,0.1,0.6,0.2,1,0.3c-0.1-0.1,0-0.1,0.4,0c0.2,0,0.4,0.1,0.6,0.1c0.3,0.1,0.6,0.1,0.9,0.2c0.1,0,0.5,0.1,1.4,0.3
			c0.3,0.1,0.5,0.1,0.7,0.1c0.2,0,0.4,0.1,0.5,0.1c0.3,0.1,0.4,0.1,0.4,0.1c0.2,0,0.4,0.1,0.6,0.1l0.6,0.1c0.4,0.1,0.9,0.1,1.3,0.2
			c0.4,0,0.9,0.1,1.3,0.1c0.2,0,0.4,0,0.6,0.1c0.2,0,0.4,0,0.6,0c0.4,0,0.9,0,1.3,0.1c0.4,0,0.8,0,1.2,0c0.7,0,1.3,0,1.6,0
			c0.3,0,1.8,0-0.5,0.2c-2,0.1-3.5,0.1-5.3-0.1c-0.5-0.1-1-0.1-1.5-0.2c-0.3,0-0.5-0.1-0.8-0.1c-0.1,0-0.3,0-0.4-0.1
			c-0.1,0-0.3,0-0.4-0.1c-0.6-0.1-1.2-0.2-1.8-0.4c-0.3-0.1-0.7-0.2-1-0.3c-0.2,0-0.4-0.1-0.6-0.1c-0.1,0-0.2,0-0.3-0.1
			c-0.1,0-0.2-0.1-0.3-0.1c-0.3,0-0.8-0.2-1.6-0.4l-1.8-0.6c-0.6-0.2-1.2-0.4-1.7-0.7l0,0c0.6,0.2,1.2,0.5,1.7,0.7l1.8,0.6
			c0.4,0.1,0.4,0.2,0.2,0.2c0.1,0.1,0.4,0.1,0.7,0.2c0.2,0.1,0.4,0.1,0.5,0.2c0.1,0,0.2,0.1,0.3,0.1c0.1,0,0.2,0.1,0.3,0.1
			c0.8,0.2,1.4,0.4,1.2,0.4c0.1,0,0.2,0.1,0.4,0.1c1.2,0.3,2,0.4,0.2,0.2l0.1,0.1c0.6,0.1,0.7,0.1,0.5,0.1c0.5,0.2,0.6,0.2,0,0.1
			c-0.3,0-0.8-0.1-1.5-0.3c-0.4-0.1-0.8-0.2-1.3-0.3c-0.5-0.1-1-0.3-1.6-0.4c-0.1,0-0.3-0.1-0.4-0.1c-0.1,0-0.2,0-0.3-0.1
			c-0.2,0-0.3-0.1-0.5-0.1c-0.2,0-0.4-0.1-0.7-0.2c-0.1,0-0.3-0.1-0.5-0.2c-0.2-0.1-0.4-0.2-0.7-0.3c-0.3-0.1-0.5-0.2-0.8-0.3
			l-0.4-0.1c-0.1-0.1-0.3-0.1-0.4-0.2c-0.5-0.2-1-0.4-1.5-0.7c-0.5-0.3-1-0.5-1.5-0.8c-0.1-0.1-0.2-0.1-0.4-0.2
			c-0.1-0.1-0.2-0.1-0.3-0.2c-0.2-0.1-0.5-0.3-0.7-0.4c-0.4-0.2-0.7-0.4-0.8-0.5c-0.2-0.1-0.2-0.2-0.2-0.2c0,0,0.1,0,0.3,0.1
			c0.2,0.1,0.5,0.2,0.8,0.4c0.2,0.1,0.5,0.2,1.1,0.5c0.3,0.1,0.6,0.3,1,0.5c0.2,0.1,0.4,0.2,0.6,0.3c0.1,0.1,0.2,0.1,0.3,0.2
			c0.1,0.1,0.2,0.1,0.3,0.2l0.9,0.4c0.3,0.1,0.6,0.3,0.9,0.4c0,0,0,0,0.2,0c0-0.1-0.6-0.4,1.2,0.3l-0.1-0.1
			c-0.5-0.2-0.9-0.4-1.4-0.5c-0.4-0.2-0.9-0.4-1.3-0.6c-0.4-0.2-0.7-0.3-1-0.4c-0.3-0.1-0.5-0.2-0.6-0.3c-0.3-0.2-0.4-0.2-0.5-0.3
			c-0.1-0.1,0.2,0.1,0.2,0c0-0.1,0.2,0,0.6,0.2c0.2,0.1,0.5,0.2,0.8,0.4c0.3,0.1,0.7,0.3,1.1,0.5l0.6,0.2c0.2,0.1,0.4,0.1,0.6,0.2
			l-0.3-0.2c-0.6-0.2-1.1-0.5-1.7-0.7c-0.2-0.1-0.4-0.2-0.6-0.3c-0.2-0.1-0.3-0.2-0.4-0.2c-0.3-0.1-0.4-0.2-0.5-0.3
			c-0.2-0.1-0.1-0.1,0.2,0c1.3,0.6,1.5,0.6,3.3,1.3l-0.2-0.1l-0.2-0.1l-0.4-0.2l-0.8-0.4c-0.1-0.1-0.2-0.1-0.4-0.2
			c-0.1-0.1-0.2-0.1-0.3-0.2c-0.2-0.1-0.4-0.2-0.6-0.3c-0.4-0.2-0.7-0.3-1-0.5c-0.6-0.3-1-0.5-1.3-0.7c-0.2-0.1-0.3-0.2-0.5-0.3
			c-0.1-0.1-0.3-0.2-0.4-0.3c-0.3-0.2-0.6-0.4-0.9-0.7c-0.1-0.1-0.2-0.1-0.3-0.2c-0.1-0.1-0.2-0.2-0.4-0.3c-0.3-0.2-0.6-0.4-0.9-0.7
			c-0.1-0.1,0,0-0.1,0c0,0-0.2-0.1-0.8-0.6c0.4,0.4,0.2,0.3,0,0.2c-0.1-0.1-0.1,0,0.1,0.2c0.1,0.1,0.2,0.2,0.3,0.3
			c0.1,0.1,0.3,0.2,0.4,0.3c0.3,0.2,0.7,0.5,1.1,0.8c0.4,0.3,0.8,0.6,1.2,0.8c0.2,0.1,0.3,0.2,0.5,0.3c0.2,0.1,0.3,0.2,0.5,0.3
			c0.3,0.2,0.4,0.3,0.3,0.2c-0.1,0-0.3-0.1-0.6-0.3c-0.1,0-0.1-0.1-0.2-0.1c-0.1,0-0.2-0.1-0.2-0.1c-0.2-0.1-0.3-0.2-0.5-0.3
			c-0.3-0.2-0.7-0.4-1-0.7c-0.3-0.2-0.7-0.5-1-0.7c-0.7-0.5-1.2-0.9-1.7-1.4c-0.1-0.1-0.3-0.2-0.4-0.4c-0.2-0.1-0.3-0.3-0.5-0.4
			c-0.3-0.3-0.7-0.6-1.1-0.9c-0.5-0.5-0.9-0.8-1.2-1.1c-0.1-0.1-0.3-0.3-0.4-0.4c-0.1-0.1-0.2-0.2-0.2-0.3c-0.2-0.2-0.5-0.7-1-1.2
			c-0.1-0.1-0.1-0.1-0.2-0.2c-0.1-0.1-0.1-0.1-0.2-0.2c-0.1-0.1-0.3-0.3-0.4-0.5c-0.3-0.3-0.5-0.6-0.8-1c-0.2-0.2-0.4-0.5-0.5-0.7
			c0.2,0.2,0.4,0.4,0.5,0.6c0.1,0.2,0.3,0.3,0.5,0.6c-0.2-0.2-0.3-0.4-0.5-0.6c-0.1-0.2-0.3-0.3-0.5-0.6c0.2,0.2,0.3,0.5,0.5,0.7
			l-0.3-0.2c0.1,0.2,0.2,0.3,0.3,0.5c0.1,0.1,0.2,0.3,0.3,0.4c0.2,0.2,0.3,0.4,0.5,0.6c0.2,0.3,0.4,0.5,0.4,0.5
			c0.3,0.4,0.7,0.8,1.1,1.2c0.2,0.2,0.3,0.4,0.5,0.5c0.2,0.2,0.3,0.3,0.4,0.4c0.2,0.2,0.1,0.2-0.1,0c-0.1-0.1-0.3-0.3-0.5-0.5
			c-0.2-0.2-0.5-0.5-0.7-0.8c-1.1-1.1,0,0.2-0.2,0.2c0.1,0.2,0.3,0.4,0.6,0.7c0.1,0.2,0.3,0.3,0.5,0.5c0.2,0.2,0.3,0.4,0.5,0.5
			c0.2,0.2,0.5,0.4,0.7,0.7c0.4,0.3,0.9,0.8,1.4,1.2c0.2,0.2,0.4,0.4,0.6,0.5c0.2,0.1,0.2,0.2,0.3,0.2c0,0-0.1,0-0.2-0.1
			c-0.1-0.1-0.2-0.1-0.3-0.2c-0.1,0-0.1-0.1-0.2-0.1c-0.1,0-0.1-0.1-0.2-0.1c-0.5-0.4-1-0.9-1.4-1.3l-0.2,0c0.6,0.6,1.2,1.1,1.7,1.5
			c0.5,0.4,0.9,0.8,1.4,1.1c0.1,0.1,0.2,0.2,0.3,0.3c0.1,0.1,0.2,0.2,0.3,0.2c0.2,0.2,0.4,0.3,0.6,0.5c0.2,0.2,0.4,0.3,0.7,0.5
			c0.2,0.2,0.5,0.3,0.8,0.5c1,0.7,0.8,0.6,0.1,0.2c-1.3-0.8-0.1,0,0.3,0.4c0.1,0.1,0.2,0.1,0.3,0.2c0.1,0,0.1,0.1,0.2,0.1
			c0.1,0,0.1,0.1,0.1,0.1c0.2,0.1,0.4,0.2,0.5,0.3c0.3,0.2,0.6,0.4,0.8,0.5c0.2,0.1,0.4,0.2,0.5,0.3c0.1,0.1,0.2,0.1,0.2,0.1
			c0,0-0.1,0-0.2-0.1c-0.1,0-0.1-0.1-0.2-0.1c-0.1,0-0.2-0.1-0.3-0.2c-0.2-0.1-0.5-0.3-0.9-0.5c-0.2-0.1-0.4-0.2-0.6-0.3
			c-0.2-0.1-0.4-0.2-0.7-0.4c-0.6-0.3-1.3-0.7-2-1.2c-0.3-0.2-0.7-0.5-1.1-0.7c-0.3-0.3-0.7-0.5-1-0.8c-0.7-0.5-1.3-1.1-1.9-1.6
			c-0.1-0.1-0.3-0.2-0.4-0.4c-0.1-0.1-0.2-0.2-0.3-0.3c-0.2-0.2-0.4-0.4-0.6-0.6l-0.1-0.2c-0.4-0.4-0.6-0.6-0.6-0.7
			c-0.1-0.1,0-0.1,0-0.1l-1.3-1.4c-1.8-2-1.8-1.7-1.5-1.2c0.4,0.5,1,1.3,0.8,1c-0.1-0.1-0.2-0.3-0.4-0.5c-0.1-0.1-0.2-0.2-0.3-0.4
			c-0.1-0.1-0.2-0.3-0.3-0.4c-0.2-0.3-0.4-0.5-0.5-0.7c-0.2-0.3-0.4-0.6-0.6-0.8c-0.1-0.1-0.1-0.1-0.1-0.2c0,0,0.1,0.1,0.1,0.2
			c0.1,0.2,0.3,0.5,0.6,0.8c-0.1-0.1,0,0-0.1,0c0,0-0.1-0.1-0.2-0.2c-0.1-0.1-0.1-0.2-0.2-0.3c-0.1-0.1-0.2-0.2-0.3-0.4
			c0,0.1,0.5,0.8,0.9,1.4c0.1,0.1,0.2,0.2,0.3,0.4c0,0.1,0.1,0.1,0.1,0.2c0,0.1,0.1,0.1,0.1,0.2c0.2,0.2,0.3,0.4,0.5,0.6
			c0.3,0.3,0.4,0.5,0.3,0.4c-0.1-0.1-0.4-0.4-0.7-0.8c-0.1-0.1-0.2-0.2-0.3-0.3c-0.1-0.1-0.2-0.2-0.2-0.3c-0.2-0.2-0.3-0.4-0.5-0.6
			c-0.2-0.3-0.4-0.6-0.6-0.8c-0.2-0.3-0.4-0.5-0.5-0.8c-0.3-0.5-0.5-0.8-0.6-1c-0.1-0.2-0.2-0.4-0.4-0.6l-0.4-0.7
			c-0.1-0.2-0.3-0.5-0.4-0.7l-0.5-0.8c0.2,0.5,0.2,0.7,0.3,0.8c0,0.2,0.1,0.3,0.4,1c0.2,0.4,0,0.2-0.3-0.3c-0.2-0.3-0.4-0.7-0.7-1.1
			c-0.1-0.2-0.3-0.5-0.4-0.7c-0.1-0.3-0.3-0.5-0.4-0.8c-0.5-1-0.6-1-0.8-1.2c-0.1-0.2-0.2-0.3-0.4-0.8c-0.1-0.2-0.2-0.6-0.4-1.1
			c-0.2-0.5-0.4-1.1-0.7-2C5,56.6,5,56.5,5.6,58.2c-0.1-0.4-0.1-0.7-0.2-1.2c-0.1-0.4-0.2-0.9-0.3-1.5L5.4,56c0.1,0.3,0.2,0.7,0.3,1
			c0.1,0.3,0.2,0.6,0.3,0.9c0.1,0.3,0.2,0.6,0.3,0.8c0,0.1,0.1,0.3,0.1,0.4c0,0.1,0.1,0.3,0.1,0.4c0-0.1-0.1-0.3-0.1-0.4
			c-0.1-0.1-0.1-0.3-0.1-0.4c-0.1-0.3-0.2-0.5-0.3-0.8c-0.1-0.3-0.2-0.6-0.3-0.9c-0.1-0.3-0.2-0.6-0.3-1l-0.3-0.5
			c-0.2-0.6-0.3-1.1-0.4-1.7c0-0.2-0.1-0.4-0.1-0.6c0-0.2-0.1-0.4-0.1-0.6c-0.1-0.4-0.1-0.8-0.2-1.2c-0.1-0.7-0.2-1.4-0.2-2
			c0-0.3-0.1-0.5-0.1-0.8c0-0.2,0-0.4,0-0.6c0-0.3,0-0.4,0-0.3c0,0.1,0.1,0.4,0.1,0.8c0,0.4,0.1,0.8,0.1,1.3c0,0.2,0.1,0.5,0.1,0.7
			l0.1,0c0,0.2,0.1,0.4,0.1,0.6c0,0.2,0.1,0.4,0.1,0.6c0.1,0.4,0.1,0.7,0.1,1c0-0.3-0.1-0.6-0.1-1c0-0.2-0.1-0.4-0.1-0.6
			c0-0.2-0.1-0.4-0.1-0.6c0-0.3,0-0.6-0.1-0.9l-0.1-0.8c0-0.3,0-0.5-0.1-0.8l-0.1-0.8l0-0.4l0-0.2l0-0.2c0-0.4,0-0.8,0-1.3
			c0-0.2,0-0.5,0-0.7c0-0.2,0-0.5,0-0.8c0,0,0,0.1,0,0.6c0-0.5,0-0.6,0-0.6c0-1-0.1-0.8-0.1-0.2c-0.1,0.7-0.1,0.9-0.1,0.5
			c0-0.2,0-0.4,0-0.8c0-0.2,0-0.4,0-0.6c0-0.2,0-0.5,0-0.8c0,0.1-0.1,0.2-0.1,0.1c0-0.1,0-0.2,0-0.5c0-0.1,0-0.3,0-0.5
			c0-0.2,0-0.5,0.1-0.7c0.3-2.2,0.8-4.5,1.3-6.3l0.4-1.6c0.2-0.5,0.3-1,0.5-1.5c0-0.3,0.1-0.6,0.1-0.8c-0.1,0.3-0.2,0.6-0.3,0.9
			c-0.1,0.3-0.2,0.6-0.3,1c-0.1,0.2-0.1,0.3-0.2,0.5c0,0.1-0.1,0.3-0.1,0.4c-0.1,0.3-0.2,0.5-0.2,0.6c0.1-0.3,0.1-0.5,0.2-0.8
			c0-0.1,0.1-0.3,0.1-0.4l0.1-0.4c0.2-0.5,0.3-1,0.5-1.5c0.4-1,0.7-2,1.2-3c0.1-0.3,0.2-0.6,0.4-0.9c0.1-0.3,0.3-0.6,0.4-0.8
			c0.3-0.5,0.5-1,0.7-1.2c0.2-0.3,0.4-0.6,0.6-1c0.1-0.2,0.2-0.4,0.3-0.6c0.1-0.1,0.1-0.2,0.2-0.3c0.1-0.1,0.1-0.2,0.2-0.3
			c0.3-0.4,0.6-0.9,0.8-1.3l0.1-0.2l0.1-0.2c0.1-0.1,0.2-0.2,0.2-0.3c0.2-0.2,0.3-0.4,0.5-0.7c-0.5,0.6-0.7,0.8-0.8,0.9
			c-0.1,0.2-0.2,0.4-0.4,0.5c-0.1,0.2-0.2,0.4-0.3,0.5c-0.2,0.4-0.5,0.7-0.7,1.1c-0.3,0.6-0.6,1-0.6,0.9c0,0,0.1-0.2,0.2-0.5
			c0.1-0.1,0.1-0.3,0.2-0.4c0-0.1,0.1-0.2,0.1-0.2c0-0.1,0.1-0.2,0.1-0.2l1-1.5c0.3-0.5,0.7-1,1.1-1.5c0.1-0.1,0.2-0.3,0.3-0.4
			c0.1-0.1,0.2-0.2,0.3-0.3c0.2-0.2,0.3-0.4,0.4-0.5c0.3-0.3,0.4-0.5,0.5-0.6c0.2-0.3,0.3-0.3,0.5-0.4c0.5-0.5,0.9-1.1,1-1.1
			c0.1,0-0.4,0.5-0.9,1c-0.1,0.1-0.2,0.2-0.2,0.3c-0.1,0.1,0.2,0.3,0.3,0.2c0,0,0,0,0,0c0,0,0,0,0,0l0,0c0,0,0,0,0,0l0,0
			c0,0,0,0,0,0.1c0-0.1,0-0.1,0-0.1c1.1-1.3,2.3-2.6,3.6-3.7c0.2-0.2,0.5-0.4,0.7-0.6c0.1-0.1,0.2-0.2,0.3-0.3
			c0.1-0.1,0.2-0.2,0.3-0.3c0.4-0.4,0.8-0.7,1.2-1c0.5-0.4,0.7-0.6,0.6-0.5c-0.1,0.1-0.3,0.2-0.5,0.3c-0.2,0.2-0.5,0.4-0.8,0.6
			c-0.3,0.2-0.5,0.4-0.8,0.7c-0.2,0.2-0.4,0.4-0.6,0.6c-0.2,0.2-0.3,0.3-0.5,0.4c-0.3,0.2-0.4,0.4-0.5,0.4c-0.1,0,0.5-0.5,1.1-1.1
			c2.1-1.9,4.1-3.3,5.2-3.9c0.2-0.1,0.4-0.2,0.6-0.4l0.9-0.6l0.4-0.3c0.2-0.1,0.3-0.2,0.5-0.3l0.9-0.5l0.5-0.3
			c0.2-0.1,0.3-0.2,0.5-0.2c0.3-0.1,0.6-0.3,0.8-0.4c0.1-0.1,0.3-0.1,0.4-0.2c0.1-0.1,0.3-0.1,0.4-0.2c0.6-0.2,1.1-0.5,1.7-0.7
			c0.4-0.2,0.8-0.3,1.2-0.4c0.4-0.1,0.7-0.3,1-0.3C34,3.7,34.2,3.6,34,3.7c-0.4,0.2-0.4,0.2,0,0.2c0.2,0,0.5-0.1,0.9-0.2
			c0.2,0,0.4-0.1,0.6-0.2c0.2,0,0.5-0.1,0.7-0.2c0.3-0.1,0.7-0.2,1.3-0.3C38,3,38.6,2.9,39.1,2.8c2.3-0.5,4.7-0.8,7-0.9
			c0.5-0.1,0.9-0.1-0.6-0.1c-0.5,0-1.1,0.1-1.7,0.1c-0.1,0-0.3,0-0.4,0l-0.4,0c-0.3,0-0.6,0.1-0.8,0.1c-1.3,0.1,0.2-0.1,0.1-0.1
			c0,0,0.1,0,0.3-0.1c0.3,0,0.7-0.1,1.5-0.2l1.4-0.1l1.4,0c-0.2,0-1-0.1,0.7-0.1c0.5,0,0.9,0,1.4,0c0.2,0,0.5,0,0.7,0
			c0.2,0,0.5,0,0.7,0c0.2,0,0.5,0,0.7,0.1c0.1,0,0.2,0,0.4,0l0.2,0l0.2,0c0.5,0.1,1,0.1,1.5,0.2c0.3,0,0.6,0.1,0.8,0.1
			c0.2,0,0.3,0.1,0.4,0.1c0.1,0-0.1,0-0.8-0.1c-2.4-0.3-1.5-0.1-1,0c0.3,0,0.7,0.1,1,0.1l1,0.2c0.3,0,0.6,0.1,1,0.1
			c0.4,0.1,0.7,0.2,1.1,0.2c0.2,0,0.4,0.1,0.6,0.1c0.1,0,0.2,0,0.3,0.1c0.1,0,0.2,0.1,0.3,0.1c0.4,0.1,0.7,0.2,1.1,0.3
			c0,0,0.1,0,0.2,0c0.2,0,0.5,0.1,0.9,0.3c1.2,0.4,1.6,0.5,1.7,0.6c-0.1,0-0.3-0.1-0.5-0.1C61.5,4,61.4,4,61.3,4c-0.1,0,0,0,0.1,0.1
			c0.1,0,0.2,0.1,0.4,0.2c0.2,0.1,0.4,0.2,0.7,0.3c1.4,0.6,1.4,0.6,0.8,0.5c-1.2-0.3-0.8-0.3-4-1.1L58,3.5c0,0-0.1,0-0.1,0.1
			c0,0.1,0.1,0.2,0.9,0.4c0.4,0.1,0.9,0.2,1.6,0.5c0.4,0.1,0.8,0.3,1.2,0.4c0.5,0.2,1,0.4,1.6,0.6c0.2,0.1,0.3,0.1,0.5,0.2
			c0.1,0.1,0.3,0.1,0.4,0.2c0.2,0.1,0.5,0.2,0.6,0.3l0.5,0.2c0.2,0.1,0.3,0.1,0.5,0.2l0.9,0.5c0.3,0.2,0.6,0.3,0.9,0.5l0.9,0.5
			c0.2,0.1,0.5,0.3,0.8,0.4c0.3,0.2,0.6,0.4,0.9,0.6c0.3,0.2,0.7,0.4,1,0.6c0.3,0.2,0.7,0.5,1,0.7l0.8,0.5c0.1,0.1-0.3-0.4,1,0.6
			c0.1,0-0.1-0.1-0.4-0.4c-0.1-0.1-0.3-0.3-0.5-0.4c-0.2-0.1-0.4-0.3-0.6-0.5c-1.2-0.9-2.1-1.5-1.6-1.2c0.1,0.1,0.3,0.2,0.5,0.3
			c0.2,0.1,0.5,0.3,0.8,0.5c0.3,0.2,0.6,0.4,0.9,0.6c0.3,0.2,0.6,0.5,1,0.7c0.3,0.2,0.5,0.4,0.8,0.6c0.6,0.5,1.1,0.9,1.5,1.3
			c0.1,0.1,0.2,0.2,0.3,0.3c0.1,0.1,0.2,0.2,0.2,0.2c0.1,0.1,0.3,0.3,0.3,0.4c2,1.9,3.6,3.9,5,5.9c0.3,0.4,0.6,0.8,0.9,1.3
			c0.1,0.2,0.3,0.4,0.4,0.6c0.1,0.2,0.3,0.5,0.4,0.7c0.3,0.4,0.5,0.8,0.5,0.9c0,0.1-0.2-0.2-0.4-0.6c-0.1-0.2-0.3-0.4-0.4-0.7
			c-0.1-0.1-0.1-0.2-0.2-0.3c-0.1-0.1-0.1-0.2-0.2-0.3c0.2,0.3,0.3,0.5,0.3,0.7c0.1,0.2,0.1,0.3,0,0.3s-0.1-0.1-0.3-0.2
			c-0.1-0.2-0.4-0.4-0.7-0.8l0,0.2c0.3,0.4,0.6,0.9,0.7,1.2c0.2,0.3,0.2,0.4,0.2,0.4c-0.1-0.1-0.2-0.3-0.5-0.8
			c-0.1-0.1-0.2-0.3-0.2-0.4c-0.1-0.1-0.1-0.2-0.2-0.3c-0.1-0.2-0.2-0.3-0.3-0.4c-0.1-0.2-0.2-0.3-0.2-0.3c-0.2-0.4-0.4-0.6-0.5-0.8
			c-0.1-0.2-0.1-0.2-0.1-0.2c-0.3-0.4-0.6-0.8-0.9-1.2l-0.1-0.1l-0.1-0.1c-0.1-0.1-0.2-0.2-0.2-0.3c-0.2-0.2-0.3-0.4-0.4-0.5
			c-0.6-0.7-1.2-1.4-1.7-2c-0.3-0.3-0.6-0.6-0.8-0.9c-0.3-0.3-0.5-0.5-0.8-0.8c-0.1-0.1-0.1-0.1-0.2-0.2c-0.1-0.1-0.1-0.1-0.2-0.2
			c-0.1-0.1-0.2-0.2-0.4-0.3c-0.2-0.2-0.4-0.4-0.6-0.6c-0.1-0.1-0.2-0.2-0.4-0.4c-0.1-0.1-0.3-0.3-0.5-0.4c-0.4-0.3-0.8-0.6-1.2-1
			c-0.4-0.3-1-0.6-1.5-1.1c-0.3-0.2-0.6-0.4-0.9-0.6c-0.3-0.2-0.6-0.4-0.9-0.6c0.1,0.1,0.4,0.3,0,0.1c0.5,0.4-0.2-0.1-1.3-0.7
			c0,0,0,0,0.1,0.1L67.8,8c0.6,0.4,1,0.6,1.3,0.8c0.3,0.2,0.4,0.3,0.3,0.3c0,0-0.1,0-0.4-0.2c-0.2-0.1-0.5-0.3-0.9-0.4
			c-0.1,0-0.1,0-0.9-0.4C67.2,8,67.1,7.9,67,7.8c-0.1-0.1-0.2-0.1-0.3-0.2c-0.2-0.1-0.2-0.1-0.3-0.2c-0.2-0.1-0.3-0.2-0.6-0.3
			C65.7,7.1,65.5,7,65.4,7C65,6.8,64.4,6.5,64,6.4c-0.2-0.1-0.4-0.2-0.5-0.2C63.3,6,63.3,6,63.2,6c0-0.1,1.3,0.5,2.1,0.9
			c0.1,0,0.3,0.1,0.4,0.1c-0.1-0.1-0.2-0.1-0.3-0.2c-0.1,0-0.2-0.1-0.3-0.1c-0.2-0.1-0.4-0.2-0.7-0.3C64,6.2,63.5,6,63.1,5.8
			c-0.4-0.2-0.9-0.3-1.3-0.5c-0.2-0.1-0.4-0.1-0.6-0.2C61.1,5,60.9,5,60.8,4.9l0,0c-0.4-0.1-0.8-0.3-1.2-0.4l-1.2-0.3L57.8,4
			l-0.6-0.1l-1.2-0.3c-0.1,0-0.3,0-0.6-0.1c-0.3,0-0.6-0.1-1-0.2c-0.5-0.1,0,0,0.7,0.1l0-0.1c0,0-0.3-0.1-0.7-0.2
			c-0.2,0-0.4-0.1-0.7-0.1c-0.3,0-0.5-0.1-0.8-0.1l-1-0.1c-0.3,0-0.7-0.1-1-0.1l-1-0.1l-1,0c-0.1,0-0.3,0-0.4,0c0.1,0,0.3,0,0.4,0
			c-0.9,0-2.1,0-3.2,0c0,0.1,0.7,0.1-1.6,0.2c-0.1,0-0.2,0-0.2,0c-0.1,0-0.1,0-0.2,0c-0.1,0-0.2,0-0.3,0c-0.2,0-0.2,0-0.3,0
			c0,0,0.1,0,0.4,0c0.1,0,0.3,0,0.4,0c0.2,0,0.3,0,0.5,0c0.4,0,0.9,0,1.5-0.1c0.4,0,0.8,0,1.2,0c0.4,0,0.8,0,1.2,0
			c0.8,0,1.6,0,2.5,0.1c0.4,0,0.8,0.1,1.2,0.1c0.4,0.1,0.6,0.1,0.8,0.1c0.2,0-0.1,0-0.8,0c-1.1-0.1-1.5-0.1-2-0.1
			c-0.5,0-0.9,0-2.1,0c0,0,0.1,0.1,0.1,0.1c0.4,0,0.9,0,1.3,0.1c-0.4,0-0.7,0-1,0c-0.1,0-0.3,0-0.4,0c-0.1,0-0.3,0-0.4,0
			c0.1,0,0.2,0,0.4,0c0.1,0,0.3,0,0.4,0c0.3,0,0.6,0,1,0c0.6,0,1.2,0,1.8,0.1c-0.1,0-0.2-0.1,0-0.1c0.2,0,0.7,0,1.8,0.1l0,0
			c0,0,0.2,0,1,0.1c0.8,0.1,1.1,0.2,1.2,0.3c0.6,0.1,0.6,0.1,0.6,0.2c0,0,0.1,0,0.2,0.1c0.1,0,0.4,0.1,0.9,0.2
			c1.1,0.2,2.2,0.6,3.1,0.8c0.4,0.1,0.7,0.2,1.1,0.3c0.4,0.1,0.8,0.2,1.2,0.4c0.4,0.2,0.8,0.3,1.2,0.5c0.1,0,0.2,0.1,0.3,0.1
			c0.1,0,0.2,0.1,0.3,0.1c0.2,0.1,0.4,0.2,0.6,0.3c1.4,0.7,1.2,0.6-0.6-0.1c-0.1-0.1-0.2-0.1-0.4-0.2c-0.1-0.1-0.2-0.1-0.4-0.1
			c-0.2-0.1-0.5-0.2-0.7-0.3c-0.5-0.2-0.9-0.3-1.2-0.4c-0.6-0.2-0.8-0.2,0,0.1c0.3,0.1,0.6,0.2,0.8,0.3c0.2,0.1,0.4,0.1,0.5,0.2
			c0.3,0.1,0.5,0.2,0.8,0.3c0.6,0.2,1.1,0.4,1.5,0.6c0.4,0.2,0.8,0.4,1.1,0.6c0.3,0.2,0.3,0.2,0.7,0.4c0.1,0.1,0.3,0.2,0.4,0.2
			c0.2,0.1,0.3,0.2,0.5,0.3c0.4,0.2,0.8,0.5,1.2,0.7c1.4,0.9,0.4,0.2,0.4,0.2c0,0,0.4,0.2,1.1,0.6l0.4,0.2l0.4,0.2l0,0
			c-0.4-0.3-0.2-0.2,0.2,0c0.2,0.1,0.5,0.3,0.7,0.5c0.3,0.2,0.6,0.4,0.8,0.6c0.2,0.2,0.6,0.4,0.9,0.7c0.2,0.1,0.3,0.3,0.5,0.4
			c0.1,0.1,0.3,0.2,0.4,0.3c0.2,0.2,0.5,0.5,0.8,0.7c0.1,0.1,0.3,0.3,0.4,0.4c0.1,0.1,0.3,0.3,0.4,0.4c0.3,0.3,0.6,0.6,0.8,0.8
			c0.1,0.1,0.3,0.3,0.4,0.4c0.1,0.1,0.3,0.3,0.4,0.4c1,1.1,1.8,2.1,1.9,2.4l-0.1,0c0.1,0.1,0.2,0.2,0.3,0.4c0.1,0.1,0.2,0.3,0.3,0.4
			c0.2,0.3,0.4,0.5,0.6,0.9c0.1,0.2,0.2,0.3,0.4,0.5c0.1,0.2,0.3,0.4,0.4,0.6c0.3,0.5,0.7,1,1.1,1.7c0.2,0.3,0.3,0.6,0.5,0.8
			c0.1,0.2,0.2,0.4,0.3,0.5c0.1,0.3,0.2,0.4,0.1,0.3c0,0-0.1-0.1-0.1-0.2c-0.1-0.1-0.2-0.3-0.3-0.4c-0.2-0.4-0.6-0.9-1-1.6
			c0,0.1-0.5-0.6-1.1-1.3c-0.1-0.1-0.1-0.2-0.2-0.3c-0.1-0.1-0.1-0.2-0.2-0.3c-0.1-0.2-0.3-0.3-0.4-0.5c-0.2-0.3-0.4-0.4-0.4-0.4
			c0.3,0.5,0.7,1.1,0.9,1.4c0.1,0.2,0.1,0.3,0.1,0.2c0,0-0.1-0.1-0.1-0.1c0,0-0.1-0.1-0.1-0.1c0-0.1-0.1-0.1-0.2-0.2
			c-0.2-0.2,0,0,0.2,0.4c0.2,0.3,0.5,0.7,0.4,0.7c-0.2-0.2-0.3-0.4-0.4-0.6c-0.1-0.1-0.1-0.2-0.2-0.3c-0.1-0.1-0.1-0.2-0.2-0.3
			c-0.3-0.4-0.5-0.7-0.7-0.9c-0.2-0.3-0.4-0.5-0.6-0.7c-0.2-0.2-0.3-0.4-0.4-0.5c-0.4-0.5-0.5-0.6-0.3-0.5c0.1,0,0-0.1-0.2-0.3
			c-0.2-0.2-0.4-0.5-0.7-0.8c-0.2-0.3-0.5-0.6-0.7-0.7c-0.2-0.2-0.3-0.3-0.2-0.2c-0.2-0.2-0.5-0.5-0.7-0.7c-0.1-0.1-0.2-0.2-0.3-0.3
			c-0.1-0.1-0.2-0.2-0.3-0.3c-0.5-0.4-0.9-0.8-1.3-1.2c-0.4-0.4-0.9-0.7-1.3-1.1c-0.4-0.3-0.8-0.6-1.2-0.9c-0.2-0.1-0.4-0.3-0.6-0.4
			c-0.1-0.1-0.2-0.1-0.3-0.2c-0.1-0.1-0.2-0.1-0.3-0.2c-0.4-0.2-0.7-0.4-0.8-0.5c-0.4-0.2-0.2-0.1,0.8,0.6c0.2,0.1,0.2,0.2,0.2,0.2
			c0,0-0.1,0,0,0c0.6,0.4,1.1,0.8,1.7,1.2c0.3,0.2,0.7,0.5,1,0.8c0.2,0.1,0.3,0.3,0.5,0.4c0.1,0.1,0.3,0.2,0.4,0.3
			c0.2,0.2,0.1,0.1-0.2-0.1c-0.3-0.2-0.7-0.6-1-0.8c-0.1-0.1-0.2-0.1-0.3-0.2c0.4,0.4,0.5,0.5,0.1,0.3c-0.4-0.3-1.3-0.9-2.8-1.8
			c0.1,0.1,0.2,0.1,0.3,0.2c0.1,0.1,0.2,0.2,0.3,0.2c0.2,0.2,0.4,0.3,0.6,0.5c0.2,0.1,0.4,0.3,0.6,0.4c0,0,0.1,0.1,0.1,0.1
			c0,0,0.1,0.1,0.1,0.1c0.1,0.1,0.2,0.1,0.3,0.2c0.4,0.3,0.7,0.6,1.1,0.8c0,0,0.1,0.1,0.1,0.1c0,0,0.1,0.1,0.1,0.1
			c0.1,0.1,0.2,0.1,0.2,0.2c0.2,0.1,0.3,0.3,0.4,0.4c0.3,0.3,0.6,0.5,0.8,0.8c0.3,0.3,0.5,0.5,0.7,0.7c0.2,0.2,0.4,0.5,0.6,0.7
			c0.2,0.2,0.4,0.4,0.6,0.6c0.6,0.7,0.9,1-0.2,0l0,0.1c-0.1-0.1-0.4-0.3-1.4-1.4c-0.6-0.6-1.1-1-1.5-1.4c-0.2-0.2-0.4-0.4-0.7-0.5
			c-0.2-0.2-0.5-0.3-0.7-0.5c-0.2-0.1-0.3-0.1-0.5-0.2c-0.1,0-0.2-0.1-0.4-0.3c-0.2-0.2-0.5-0.4-0.9-0.6c-0.9-0.7-1.4-1-1.8-1.2
			c-0.6-0.5-0.4-0.4-0.5-0.6c-0.1-0.1-0.3-0.2-0.4-0.3c-0.5-0.3-0.9-0.5-0.9-0.5c0.1,0,0-0.1-0.3-0.3c-0.2-0.1-0.4-0.2-0.7-0.4
			c-0.3-0.1-0.7-0.3-1.1-0.6c-0.6-0.3-1.1-0.5-1.4-0.7C63,8,62.8,7.9,62.7,7.9c-0.2-0.1-0.3-0.1-0.5-0.2c-0.3-0.1-0.5-0.2-0.8-0.3
			C61.2,7.2,61,7.1,60.7,7c-0.5-0.2-0.9-0.3-1.3-0.5c-0.1,0-0.2-0.1-0.3-0.1c-0.1,0-0.2-0.1-0.3-0.1c-0.2-0.1-0.5-0.1-0.7-0.2
			C57.7,6.1,57.5,6,57.2,6c-0.3,0-0.6-0.1-0.9-0.2l-0.4,0c0.2,0.1,0.5,0.1,0.8,0.2c0.1,0,0.3,0.1,0.5,0.1c0.2,0,0.3,0.1,0.5,0.2
			c0.3,0.1,0.7,0.2,1.1,0.3c0.1,0,0.2,0.1,0.3,0.1c0.1,0,0.2,0.1,0.3,0.1c0.2,0.1,0.3,0.1,0.5,0.2c0.2,0.1,0.5,0.2,0.7,0.3
			c0.1,0,0.2,0.1,0.4,0.1c0.1,0,0.2,0.1,0.3,0.1c0.4,0.2,0.7,0.3,0.7,0.3L62.4,8l0.3,0.1l0.2,0.1l1,0.5c0.3,0.1,0.5,0.2,0.6,0.3
			c0.2,0.1,0.3,0.2,0.4,0.2c0.2,0.1,0.3,0.2,0.3,0.2c0.1,0.1-0.1,0-0.1,0c0.1,0.1,0.2,0.1,0.3,0.2c0.1,0.1,0.3,0.1,0.4,0.2
			C66,9.9,66.2,10,66.3,10c0.2,0.1,0.5,0.3,0.7,0.4c0.2,0.1,0.4,0.2,0.6,0.3c0.2,0.1,0.3,0.2,0.5,0.3c0.6,0.4,1,0.7,1.3,0.9
			c0.1,0.1,0.1,0.1,0.2,0.1c0.1,0,0.1,0.1,0.2,0.1c0.1,0.1,0.2,0.1,0.2,0.2c0.1,0.1,0.2,0.2,0.4,0.4l0,0c0.3,0.2,0.5,0.3,0.7,0.5
			c0.2,0.2,0.5,0.4,0.7,0.5c0.2,0.2,0.4,0.4,0.7,0.5c0.1,0.1,0.2,0.2,0.3,0.3c0.1,0.1,0.2,0.2,0.3,0.3c0.4,0.4,0.8,0.7,1.2,1
			c0.4,0.4,0.7,0.7,1,1c0.2,0.2,0.3,0.3,0.5,0.5c0.2,0.2,0.3,0.3,0.4,0.5c0.3,0.3,0.6,0.6,0.8,1c0.3,0.3,0.5,0.6,0.7,0.9
			c0.2,0.3,0.5,0.6,0.7,0.9c0.3,0.3,0.6,0.8,0.9,1.2C79.5,22.2,79.7,22.5,79.5,22.2z M72.3,13.3c0.2,0.2,0.4,0.3,0.6,0.4
			c0.1,0.1,0.2,0.1,0.3,0.2c0.1,0.1,0.2,0.1,0.2,0.2c-0.1-0.1-0.2-0.1-0.2-0.2c-0.1-0.1-0.2-0.1-0.3-0.2
			C72.7,13.6,72.5,13.5,72.3,13.3z M72.1,13.2c0.1,0.1,0.2,0.1,0.2,0.1C72.3,13.4,72.2,13.3,72.1,13.2z M75.9,14.9L75.9,14.9
			l0.2,0.1L75.9,14.9z M71.4,12.7c-0.5-0.3-0.9-0.6-1.3-0.9C70.5,12.1,70.9,12.4,71.4,12.7C71.4,12.7,71.3,12.7,71.4,12.7
			C71.3,12.7,71.4,12.7,71.4,12.7z M69.5,11c0.1,0,0.1,0.1,0.2,0.1l0,0C69.6,11.1,69.6,11,69.5,11z M71.2,10.9
			c0.3,0.2,0.6,0.5,1,0.8C71.8,11.4,71.5,11.2,71.2,10.9z M69.7,10.6c0.2,0.1,0.3,0.2,0.5,0.3c0.2,0.1,0.3,0.2,0.5,0.4
			c-0.2-0.1-0.3-0.2-0.5-0.4C70,10.8,69.8,10.7,69.7,10.6z M67.4,9.9c0.1,0.1,0.3,0.2,0.5,0.3c0.2,0.1,0.3,0.2,0.5,0.3
			c0.3,0.2,0.6,0.4,0.9,0.6c0.2,0.1,0.4,0.3,0.7,0.5c-0.2-0.2-0.5-0.3-0.7-0.5c-0.3-0.2-0.6-0.4-0.9-0.6c-0.2-0.1-0.3-0.2-0.5-0.3
			C67.7,10.1,67.5,10,67.4,9.9z M64.3,7.9C64.1,7.8,64.1,7.8,64.3,7.9c0.2,0,0.3,0.1,0.5,0.2c0.2,0.1,0.4,0.2,0.7,0.3
			c0,0,0.2,0.1,0.2,0.1l-0.2-0.1c-0.3-0.1-0.5-0.3-0.7-0.3C64.6,8,64.4,7.9,64.3,7.9C64.1,7.8,64.1,7.8,64.3,7.9z M61.1,5.9L61.4,6
			l0.2,0.1l0,0L61.4,6L61.1,5.9z M48,2.2c0.5,0,1,0,1.4,0.1c0.1,0,0.2,0,0.3,0c0.1,0,0.2,0,0.3,0c0.2,0,0.3,0,0.5,0.1
			c0.4,0,0.9,0.1,1.3,0.1l1.3,0.2l-1.3-0.2c-0.4,0-0.9-0.1-1.3-0.1c-0.1,0-0.3,0-0.5-0.1c-0.1,0-0.2,0-0.3,0c-0.1,0-0.2,0-0.3,0
			C49,2.3,48.5,2.2,48,2.2z M46.5,2.2c0.1,0,0.1,0,0.1,0C46.6,2.2,46.6,2.2,46.5,2.2z M46.3,2.2c0.2,0,0.4,0,0.6,0
			C46.7,2.2,46.5,2.2,46.3,2.2z M33.8,84.2l0.1-0.1c0.2,0.1,0.4,0.1,0.5,0.1c-0.1,0-0.2-0.1-0.5-0.1L33.8,84.2z M27,79.4l0.8,0.4
			c0.3,0.1,0.5,0.3,0.8,0.4c0.5,0.3,1.1,0.5,1.6,0.8c0.6,0.3,1.5,0.7,1.8,0.9c-0.3-0.2-1.2-0.6-1.8-0.9c-0.5-0.3-1.1-0.5-1.6-0.8
			c-0.3-0.1-0.5-0.3-0.8-0.4L27,79.4z M22.5,76.7c0.1,0.1,0.2,0.2,0.4,0.3c0.1,0.1,0.1,0.1,0.2,0.2c0.1,0.1,0.2,0.1,0.3,0.2
			c0.3,0.2,0.6,0.4,0.7,0.5c-0.2-0.1-0.4-0.3-0.7-0.5c-0.1-0.1-0.2-0.1-0.3-0.2C23,77.1,22.9,77,22.8,77
			C22.7,76.9,22.6,76.8,22.5,76.7z M21.5,76C21.6,76.1,21.6,76.1,21.5,76C21.6,76.1,21.6,76.1,21.5,76z M20.2,75.2l-0.4-0.3
			c-0.1,0-0.1,0-0.1,0c0,0,0,0,0.1,0L20.2,75.2z M20.2,74.8c0.1,0.1,0.1,0.1,0.1,0.1c0.3,0.2,0.5,0.5,0.7,0.6
			c-0.2-0.2-0.4-0.4-0.7-0.6L20.2,74.8z M19.8,74.5c0,0,0.1,0.1,0.1,0.1c0,0,0.1,0.1,0.1,0.1C19.9,74.6,19.9,74.6,19.8,74.5z
			 M19.6,74.2c0.2,0.2,0.1,0.2,0.2,0.3l0,0C19.7,74.4,19.7,74.3,19.6,74.2z M18.7,72.4c0.1,0.2,0.5,0.6,1,1.1
			c0.2,0.2,0.1,0.2-0.3-0.1c0.4,0.3,0.5,0.3,0.3,0.1C19.2,73,18.8,72.6,18.7,72.4z M7.2,58.7L7.2,58.7C7.1,58.5,7,58.4,7,58.5
			C7,58.4,7.1,58.5,7.2,58.7z M8.4,61.6c0,0,0-0.1,0-0.1C8.4,61.5,8.4,61.5,8.4,61.6L8.4,61.6z M9.9,62.5c0.5,1.1,0.7,1.5,0.4,0.9
			C10.6,64,10.4,63.6,9.9,62.5c-0.1-0.1-0.1-0.3-0.2-0.4c-0.1-0.1-0.1-0.3-0.2-0.4c-0.1-0.3-0.2-0.5-0.3-0.8
			c-0.1-0.3-0.2-0.6-0.3-0.9c-0.1-0.3-0.2-0.7-0.4-1c0.1,0.4,0.3,0.7,0.4,1c0.1,0.3,0.2,0.6,0.3,0.9c0.1,0.3,0.2,0.5,0.3,0.8
			c0,0.1,0.1,0.3,0.2,0.4C9.8,62.3,9.9,62.4,9.9,62.5z M12.4,67.9c-0.1-0.1-0.1-0.2-0.2-0.3c-0.1-0.1-0.1-0.2-0.2-0.3
			c-0.1-0.2-0.2-0.4-0.3-0.6c0-0.1,0-0.1,0.1,0c-0.1-0.1-0.2-0.2-0.1,0c0.1,0.2,0.2,0.4,0.3,0.6c0.1,0.1,0.1,0.2,0.2,0.3
			C12.3,67.7,12.3,67.8,12.4,67.9z M14.2,69.9c0-0.1-0.1-0.1-0.2-0.3c-0.1-0.2-0.2-0.3-0.3-0.5c-0.1-0.1-0.2-0.3-0.3-0.4
			c-0.2-0.2-0.3-0.4-0.4-0.6c-0.2-0.3-0.3-0.5-0.3-0.6c0.1,0.1,0.1,0.3,0.3,0.6c0.1,0.2,0.2,0.4,0.4,0.6c0.1,0.1,0.2,0.3,0.3,0.4
			c0.1,0.1,0.2,0.3,0.3,0.5C14.1,69.8,14.1,69.9,14.2,69.9z M13.8,68.6c-0.2-0.2-0.3-0.4-0.3-0.3c0,0,0,0.1,0.1,0.2
			c0.1,0.1,0.2,0.3,0.4,0.6c0.3,0.4,0.4,0.6,0.2,0.4c0.1,0.1,0,0-0.2-0.4c-0.2-0.3-0.3-0.5-0.4-0.6c-0.1-0.1-0.1-0.2-0.1-0.2
			C13.5,68.2,13.6,68.4,13.8,68.6z M13.8,70L13.8,70c0.2,0.3,0.5,0.6,0.7,0.9c0.2,0.3,0.5,0.6,0.7,0.8c0.2,0.3,0.5,0.5,0.7,0.8
			c0.2,0.3,0.5,0.5,0.7,0.8c-0.2-0.3-0.5-0.5-0.7-0.8c-0.2-0.3-0.5-0.5-0.7-0.8c-0.2-0.3-0.5-0.5-0.7-0.8C14.2,70.6,14,70.3,13.8,70
			z M13.1,65c0.2,0.2,0.5,0.6,1,1.4c0.3,0.4,0.5,0.7,0.7,1c0.1,0.2,0.2,0.3,0.3,0.4c0.1,0.1,0.2,0.3,0.3,0.4
			c0.4,0.5,0.6,0.8,0.9,1.1c-0.2-0.3-0.5-0.7-0.9-1.1c-0.1-0.1-0.2-0.2-0.3-0.4c-0.1-0.1-0.2-0.3-0.3-0.4c-0.2-0.3-0.5-0.6-0.7-1
			C13.5,65.6,13.2,65.2,13.1,65z M12.9,64.9l0.1,0.2c0.2,0.3,0.4,0.6,0.5,0.9c-0.2-0.3-0.4-0.6-0.5-0.9L12.9,64.9
			C12.9,64.9,12.9,64.9,12.9,64.9C12.9,64.9,12.9,64.9,12.9,64.9z M10.2,63.8c-0.4-0.9-0.3-0.9-0.3-1.1C9.9,63,9.8,62.9,10.2,63.8
			c0.2,0.5,0.4,0.8,0.6,1.2c0.1,0.2,0.2,0.3,0.2,0.5c0,0.1,0.1,0.2,0.1,0.2c0,0.1,0.1,0.2,0.1,0.2c0-0.1-0.1-0.2-0.1-0.2
			c0-0.1-0.1-0.2-0.1-0.2c-0.1-0.2-0.2-0.3-0.2-0.5C10.6,64.7,10.4,64.3,10.2,63.8z M12.2,64c0.1,0.3,0.3,0.5,0.4,0.6
			c0-0.1,0,0,0.1,0c-0.1-0.1-0.1-0.1-0.1,0C12.5,64.5,12.4,64.3,12.2,64z M12.3,62.9c0.2,0.3,0.3,0.6,0.5,0.9
			C12.6,63.5,12.5,63.2,12.3,62.9z M11,60.5C11.1,60.5,11.1,60.5,11,60.5C11.1,60.5,11.1,60.5,11,60.5z M10.7,59.4
			c0,0.1,0.1,0.1,0.1,0.1l0,0C10.7,59.5,10.7,59.5,10.7,59.4z M9.4,57c0,0.2,0.1,0.3,0.1,0.5c0,0.1,0,0.2,0.1,0.2
			c0,0.1,0.1,0.2,0.1,0.2c0.1,0.3,0.2,0.7,0.4,1c0.1,0.2,0.1,0.4,0.2,0.5c0.1,0.2,0.1,0.4,0.2,0.5c0.2,0.4,0.3,0.7,0.5,1.1
			c0.1,0.1,0.1,0.3,0.2,0.4l0.2,0.4l0.5,0.9c0.2,0.3,0.1-0.1,0-0.6l0,0c0.2,0.5,0.3,0.9,0,0.6L11.4,62l-0.2-0.4
			c-0.1-0.1-0.2-0.3-0.2-0.4c-0.2-0.4-0.3-0.8-0.5-1.1c-0.1-0.2-0.2-0.4-0.2-0.5c-0.1-0.2-0.1-0.4-0.2-0.5c-0.1-0.3-0.2-0.7-0.4-1
			c0-0.1-0.1-0.2-0.1-0.2c0-0.1,0-0.2-0.1-0.2C9.5,57.3,9.4,57.2,9.4,57z M5.6,55c0-0.2,0-0.3-0.1-0.6c-0.1-0.6-0.2-1.2-0.3-1.8
			c0.1,0.6,0.2,1.2,0.3,1.8C5.6,54.8,5.6,54.9,5.6,55z M7.9,56c0,0.1,0,0.1,0,0.1C8,56.1,8,56.1,7.9,56z M7.2,52.5
			c0-0.1-0.1-0.2-0.1-0.3c0.1,0.7,0.1,0.9,0.1,1c0,0,0-0.3-0.1-1C7.1,52.3,7.2,52.4,7.2,52.5c0.1,0.5,0.2,0.9,0.3,1.2
			c0,0.2,0.1,0.4,0.1,0.5c0,0.2,0.1,0.3,0.1,0.4c0.1,0.6,0.2,0.9,0.3,1.2c0-0.2-0.1-0.6-0.3-1.2c0-0.1-0.1-0.3-0.1-0.4
			c0-0.2-0.1-0.3-0.1-0.5C7.4,53.4,7.3,53,7.2,52.5c0-0.2,0-0.2,0-0.2c0,0.1,0.1,0.2,0.1,0.5l0,0c-0.1-0.3-0.1-0.4-0.1-0.5
			C7.2,52.3,7.2,52.3,7.2,52.5z M7.2,49.1c0,0.3,0.1,0.6,0.1,1c0-0.1,0-0.1-0.1-0.1c0-0.1,0,0,0.1,0.1C7.2,49.7,7.2,49.4,7.2,49.1z
			 M6.3,47.9c0,0.1,0,0.3,0,0.4c0,0.1,0,0.3,0,0.4c0,0.3,0.1,0.5,0.1,0.8c0,0.3,0.1,0.6,0.1,0.9c0,0.3,0.1,0.6,0.2,0.9
			c0,0.1,0,0.4,0.1,0.8c0,0.2,0.1,0.5,0.1,0.8C7,53.2,7,53.6,7.1,54c0.1,0.4,0.2,0.8,0.3,1.3c-0.1-0.5-0.2-0.9-0.3-1.3
			c-0.1-0.4-0.1-0.7-0.2-1c-0.1-0.3-0.1-0.6-0.1-0.8c-0.1-0.4-0.1-0.7-0.1-0.8c-0.1-0.3-0.1-0.6-0.2-0.9c0-0.3-0.1-0.6-0.1-0.9
			c0-0.3-0.1-0.6-0.1-0.8c0-0.1,0-0.3,0-0.4C6.3,48.1,6.3,48,6.3,47.9z M5.4,45.5L5.4,45.5c0-0.1,0,0.2,0,0.7
			C5.4,45.7,5.4,45.4,5.4,45.5z M6.4,42.1c0,0.1,0,0.2-0.1,0.2c0,0.1,0,0.2,0,0.3c0,0.1,0,0.2,0,0.3c0,0.2,0,0.3,0,0.5
			c0,0.3,0,0.7,0,1c0-0.3,0-0.6,0-1c0-0.2,0-0.3,0-0.5c0-0.1,0-0.2,0-0.3c0-0.1,0-0.2,0-0.3C6.3,42.3,6.3,42.2,6.4,42.1z M6.9,41.8
			c0,0.1,0,0.2,0,0.4C6.8,42.1,6.8,41.9,6.9,41.8z M5.7,36l-0.2,0L5.7,36c0,0.2-0.1,0.3-0.1,0.5L5.5,37l-0.2,1
			c-0.1,0.2-0.1,0.4-0.2,0.6C5,39.1,5,39.7,4.9,40.3c0,0,0,0,0,0.1C4.9,40,4.9,39.5,5,39c-0.1,0.6-0.1,1.1-0.2,1.4
			c0,0.5-0.1,1-0.1,1.5c0-0.5,0.1-1,0.1-1.5c0-0.1,0-0.1,0-0.1c0,0.2,0,0.3,0,0.5c0,0.2,0,0.3,0,0.5c0,0.3,0,0.7-0.1,1
			c0,0.7,0,1.4-0.1,2.1c0-0.7,0-1.4,0.1-2.1c0-0.4,0.1-0.7,0.1-1c0-0.2,0-0.3,0-0.5c0-0.2,0-0.3,0-0.5C5,39.7,5,39.1,5.1,38.6
			c0.1-0.2,0.1-0.4,0.2-0.6l0,0.2c0,0.2-0.1,0.4-0.1,0.5c0,0.1,0,0.3,0,0.3c0-0.1,0-0.2,0-0.3c0-0.1,0-0.3,0.1-0.5l0-0.2l0.2-1
			l0.1-0.5C5.6,36.4,5.6,36.2,5.7,36l0,0.1L5.7,36z M8.7,32.7c-0.1,0.3-0.1,0.7-0.2,1c-0.1,0.5-0.3,0.9-0.4,1.4l-0.3,1.4l0.3-1.4
			c0.1-0.5,0.2-0.9,0.4-1.4C8.5,33.4,8.6,33,8.7,32.7z M8.9,31.8L8.9,31.8c-0.1,0.3-0.2,0.8-0.2,0.9C8.7,32.6,8.8,32.1,8.9,31.8
			L8.9,31.8z M10.7,29.2c0,0.2-0.1,0.3-0.1,0.5C10.6,29.5,10.7,29.4,10.7,29.2L10.7,29.2z M11.6,27.7c0,0.1-0.1,0.1-0.1,0.2
			c0,0.1-0.1,0.1-0.1,0.2c-0.1,0.1-0.1,0.2-0.2,0.4c-0.1,0.2-0.2,0.4-0.3,0.6c0.1-0.2,0.2-0.4,0.3-0.6c0.1-0.1,0.1-0.2,0.2-0.4
			c0-0.1,0.1-0.1,0.1-0.2C11.5,27.8,11.6,27.7,11.6,27.7c0,0.1-0.1,0.1-0.1,0.2c0,0.1-0.1,0.2-0.1,0.2c0-0.1,0.1-0.2,0.1-0.2
			C11.5,27.8,11.6,27.7,11.6,27.7z M8.3,25.5c-0.1,0.1-0.2,0.3-0.3,0.4c-0.1,0.1-0.2,0.3-0.2,0.4C7.8,26.1,7.9,26,8,25.9
			C8.1,25.8,8.2,25.6,8.3,25.5L8.3,25.5z M32.9,6.6l0.2,0l0,0L32.9,6.6z M30,6.9c0.5-0.2,1.2-0.5,1.9-0.8c0.2,0,0.5-0.1,0.4-0.1
			c0.1,0-0.3,0-0.4,0.1C31.1,6.4,30.4,6.7,30,6.9z M30.6,6.8L30.6,6.8c0.3-0.1,0.6-0.3,0.8-0.3C31.2,6.5,30.9,6.6,30.6,6.8z
			 M30.2,7.5c0.2-0.1,0.4-0.2,0.8-0.3l0,0C30.7,7.4,30.4,7.5,30.2,7.5z M22.8,12c0.2-0.2,0.4-0.3,0.6-0.5c0.2-0.2,0.4-0.3,0.7-0.5
			c0.5-0.3,0.9-0.7,1.5-1c0.3-0.2,0.5-0.3,0.8-0.5c0.1-0.1,0.3-0.2,0.4-0.2c0.1-0.1,0.3-0.2,0.4-0.2C27.4,9,27.7,8.8,28,8.7
			c0.3-0.2,0.6-0.3,0.9-0.4c-0.3,0.1-0.6,0.3-0.9,0.4c-0.3,0.2-0.6,0.3-0.8,0.5c-0.1,0.1-0.3,0.1-0.4,0.2c-0.1,0.1-0.3,0.2-0.4,0.2
			c-0.3,0.2-0.5,0.3-0.8,0.5c-0.5,0.3-1,0.7-1.5,1c-0.2,0.2-0.5,0.3-0.7,0.5C23.2,11.7,23,11.9,22.8,12z M24.5,11.1L24,11.5
			c-0.2,0.1-0.4,0.3-0.6,0.4c0,0,0,0,0,0c0,0,0,0,0,0c0.2-0.2,0.4-0.3,0.6-0.4L24.5,11.1z M23.8,12.7L23.8,12.7c0,0,0.1-0.1,0.2-0.2
			C23.9,12.6,23.8,12.7,23.8,12.7z M23.7,8.8c0.1-0.1,0.2-0.1,0.3-0.2c0.1-0.1,0.2-0.1,0.3-0.2c0.2-0.1,0.5-0.3,0.7-0.4l0.4-0.4
			L24.9,8c-0.2,0.1-0.5,0.3-0.7,0.4c-0.1,0.1-0.2,0.1-0.3,0.2C23.8,8.6,23.7,8.7,23.7,8.8z M23.6,10.9L23.6,10.9
			c0.2-0.1,0.5-0.3,0.9-0.5C24.1,10.6,23.8,10.8,23.6,10.9C23.7,10.8,23.7,10.9,23.6,10.9z M18.9,14L18.9,14
			c0.1-0.1,0.3-0.3,0.4-0.4c0.1-0.1,0.2-0.2,0.4-0.3c0.3-0.2,0.5-0.4,0.7-0.6c-0.2,0.2-0.5,0.4-0.7,0.6c-0.1,0.1-0.3,0.2-0.4,0.3
			C19.2,13.7,19,13.9,18.9,14z M18.6,14.3l0.3-0.2C18.7,14.1,18.6,14.3,18.6,14.3z M19.8,15.9L19.8,15.9c0.2-0.3,0.3-0.3,0.7-0.7
			C20.1,15.6,20,15.7,19.8,15.9z M16.4,18c0.1-0.1,0.3-0.4,0.7-0.9c0.1-0.2,0.6-0.8,1.2-1.4c-0.6,0.7-1.1,1.2-1.2,1.4
			C16.7,17.6,16.5,17.9,16.4,18z M18.6,17L18.6,17l0.4-0.4L18.6,17z M16.2,20c0.1-0.1,0.2-0.2,0.3-0.4c0.1-0.1,0.2-0.2,0.3-0.3
			c0.2-0.2,0.3-0.4,0.5-0.6c0.3-0.3,0.5-0.6,0.7-0.9c-0.2,0.2-0.4,0.5-0.7,0.9c-0.1,0.2-0.3,0.4-0.5,0.6c-0.1,0.1-0.2,0.2-0.3,0.3
			C16.4,19.7,16.3,19.8,16.2,20c0.1-0.1,0.2-0.2,0.3-0.3c0.2-0.2,0.3-0.4,0.5-0.5c0.1-0.1,0.2-0.2,0.2-0.2c0.1-0.1,0.2-0.1,0.3-0.2
			c-0.1,0.1-0.2,0.1-0.3,0.2c-0.1,0-0.1,0.1-0.2,0.2c-0.1,0.1-0.3,0.3-0.5,0.5L16.2,20z M15.7,21.2c0.3-0.3,0.6-0.7,0.8-1
			C16.3,20.5,16,20.9,15.7,21.2z M13.9,19.4L13.9,19.4c-0.1,0.1-0.2,0.2-0.3,0.4c-0.1,0.1-0.2,0.2-0.2,0.3c-0.1,0.2-0.3,0.4-0.4,0.5
			c0.1-0.1,0.2-0.3,0.4-0.5c0.1-0.1,0.1-0.2,0.2-0.3C13.7,19.6,13.8,19.5,13.9,19.4z M14.5,18.5L14.5,18.5c-0.2,0.3-0.4,0.6-0.7,0.8
			C14.1,19.1,14.3,18.8,14.5,18.5z M13.6,18c0.1-0.2,0.3-0.4,0.4-0.6C13.8,17.6,13.7,17.8,13.6,18L13.6,18z M12.5,20.8
			c0.2-0.3,0.5-0.6,0.7-0.9c0.1-0.2,0.2-0.3,0.4-0.5c0.1-0.2,0.2-0.3,0.4-0.5c0.2-0.3,0.5-0.6,0.7-0.9l0.2-0.2l0.2-0.2
			c0.1-0.1,0.3-0.3,0.4-0.4c-0.1,0.1-0.3,0.3-0.4,0.4l-0.2,0.2l-0.2,0.2c-0.2,0.3-0.5,0.6-0.7,0.9c-0.1,0.2-0.2,0.3-0.4,0.5
			c-0.1,0.2-0.2,0.3-0.4,0.5C12.9,20.2,12.7,20.5,12.5,20.8c-0.1,0.1-0.2,0.1-0.1,0C12.3,21,12.3,21,12.5,20.8z M9,24
			c0.2-0.3,0.3-0.5,0.4-0.7C9.3,23.5,9.2,23.7,9,24z M11.2,24.5L11.2,24.5c-0.1,0.2-0.3,0.5-0.4,0.7c-0.1,0.3-0.3,0.5-0.4,0.7
			c0.1-0.2,0.3-0.5,0.4-0.7C10.9,25,11,24.8,11.2,24.5z M13.7,23.3c0,0-0.1,0,0-0.1C13.6,23.4,13.7,23.3,13.7,23.3
			c-0.2,0.3-0.4,0.7-0.6,1c-0.2,0.3-0.3,0.6-0.4,0.8c0.1-0.2,0.3-0.5,0.4-0.8C13.3,24,13.5,23.7,13.7,23.3z M16.5,21.2
			c-0.1,0.1-0.2,0.3-0.3,0.4l-0.3,0.4c-0.1,0.2-0.3,0.5-0.6,0.9c-0.1,0.1-0.1,0.2-0.2,0.3c-0.1,0.1-0.1,0.2-0.2,0.3
			c-0.1,0.2-0.3,0.4-0.4,0.6c0.1-0.2,0.3-0.4,0.4-0.6c0.1-0.1,0.1-0.2,0.2-0.3c0.1-0.1,0.1-0.2,0.2-0.3c0.2-0.4,0.5-0.7,0.6-0.9
			l0.3-0.4C16.3,21.5,16.4,21.4,16.5,21.2z M17.9,18.8c-0.3,0.3-0.6,0.6-0.8,0.9c-0.2,0.3-0.4,0.5-0.7,0.8c-0.3,0.4-0.6,0.8-0.9,1.3
			c0.3-0.4,0.6-0.8,0.9-1.3c0.2-0.3,0.5-0.5,0.7-0.8C17.3,19.4,17.6,19.2,17.9,18.8z M18.2,19.1L18.2,19.1c-0.1,0.1-0.3,0.3-0.4,0.5
			c-0.6,0.6-0.2,0.1,0.2-0.5c-0.4,0.5-0.8,1.1-0.2,0.5C17.9,19.4,18.1,19.2,18.2,19.1c0,0,0,0.1-0.1,0.2
			C18.1,19.2,18.2,19.1,18.2,19.1z M21,15.3c-0.5,0.5-1,0.9-1.4,1.4c-0.5,0.5-0.9,1-1.4,1.4l-0.9,1.1l0.9-1.1c0.5-0.5,0.9-1,1.4-1.4
			C20,16.2,20.5,15.8,21,15.3z M22.5,12.2c-0.2,0.1-0.3,0.3-0.5,0.4l-0.3,0.2L21.5,13c-0.3,0.3-0.6,0.6-1,0.8l0,0
			c0.3-0.3,0.6-0.6,1-0.8l0.2-0.2l0.3-0.2C22.1,12.4,22.3,12.3,22.5,12.2z M32.9,7.9c-0.1,0-0.2,0-0.2,0.1C32.6,8,32.6,8,32.5,8
			c-0.2,0.1-0.3,0.1-0.5,0.2c-0.3,0.1-0.7,0.3-1,0.4c-0.4,0.2-0.7,0.3-1.1,0.5c-0.4,0.2-0.7,0.3-1.1,0.5c-0.4,0.2-0.9,0.5-1.3,0.7
			c-0.4,0.2-0.8,0.5-1.2,0.7l-0.4,0.2l-0.2,0.1l-0.2,0.1l-0.7,0.5c-0.3,0.2-0.5,0.4-0.8,0.7c0,0.1-0.3,0.3-0.8,0.6
			c0.4-0.3,0.7-0.6,0.8-0.6c0.2-0.2,0.5-0.5,0.8-0.7l0.7-0.5l0.2-0.1l0.2-0.1l0.4-0.2c0.4-0.2,0.8-0.5,1.2-0.7
			c0.4-0.2,0.9-0.5,1.3-0.7c0.4-0.2,0.7-0.4,1.1-0.5c0.4-0.2,0.7-0.3,1.1-0.5c0.4-0.1,0.7-0.3,1-0.4c0.2-0.1,0.3-0.1,0.5-0.2
			C32.6,8,32.6,8,32.7,8C32.8,7.9,32.9,7.9,32.9,7.9c0.5-0.2,0.8-0.2,0.8-0.2C33.8,7.7,33.5,7.7,32.9,7.9z M34.9,6.8
			c-0.2,0.1-0.5,0.1-0.7,0.2C34.4,7,34.7,6.9,34.9,6.8z M42.7,4.4c0.1,0,0.2,0,0.4-0.1c0.1,0,0.2,0,0.4-0.1c0.1,0,0.2,0,0.2,0
			c0.1,0,0.2,0,0.3,0c-0.1,0-0.2,0-0.3,0c-0.1,0-0.2,0-0.2,0c-0.1,0-0.3,0-0.4,0.1C42.9,4.3,42.7,4.4,42.7,4.4z M42.7,4.5
			C42.7,4.5,42.7,4.4,42.7,4.5C42.7,4.4,42.7,4.5,42.7,4.5z M41.2,3.4c0,0,0.1,0,0.4,0C41.4,3.4,41.2,3.4,41.2,3.4L41.2,3.4z
			 M41.7,2.8L41.7,2.8c-0.1,0-0.3,0-0.4,0.1C41.4,2.9,41.5,2.8,41.7,2.8z M39.4,3.7c0.1,0,0.2,0,0.3-0.1C39.6,3.6,39.5,3.6,39.4,3.7
			z M37.4,3.5c0.1,0,0.1-0.1,0.2-0.1l0,0C37.5,3.4,37.4,3.4,37.4,3.5z M38.3,4C38.3,4,38.3,4,38.3,4C38.3,4,38.3,4,38.3,4
			c-0.8,0.1-0.9,0.2-0.9,0.1C37.4,4.2,37.5,4.2,38.3,4z M36.3,3.6c0.2,0,0.3-0.1,0.5-0.1l0,0C36.6,3.5,36.5,3.5,36.3,3.6z M38.5,5.1
			c0,0,0.1,0,0.1,0C38.6,5.1,38.5,5.1,38.5,5.1c-0.1,0-0.2,0-0.4,0.1c-0.1,0-0.2,0-0.3,0.1c-0.2,0-0.5,0.1-0.7,0.1
			c-0.5,0.1-1,0.2-1.7,0.4c0.7-0.2,1.3-0.3,1.7-0.4c0.2,0,0.5-0.1,0.7-0.1c0.1,0,0.1,0,0.2,0c0.1,0,0.1,0,0.2,0
			C38.2,5.2,38.4,5.2,38.5,5.1z M38.4,5.4c-0.4,0.1-0.7,0.1-0.9,0.2c-0.2,0-0.3,0.1-0.3,0.1c0,0,0.1,0,0.3-0.1
			C37.7,5.6,38,5.5,38.4,5.4l0.7-0.1C38.9,5.4,38.6,5.4,38.4,5.4z M36.7,5.6c0.1,0,0.3-0.1,0.6-0.1c0.1,0,0.3-0.1,0.4-0.1
			c0.2,0,0.3-0.1,0.5-0.1l0.1,0.1l-0.1-0.1c-0.2,0-0.3,0.1-0.5,0.1c-0.2,0-0.3,0.1-0.4,0.1C37,5.5,36.8,5.6,36.7,5.6z M41.1,5.5
			c-0.3,0-0.5,0.1-0.7,0.1c-0.1,0-0.2,0-0.3,0c-0.1,0-0.2,0-0.3,0.1c-0.4,0.1-0.8,0.2-1.2,0.2C38.4,6,38.2,6,38,6
			c-0.2,0-0.3,0.1-0.5,0.1c0.2,0,0.4-0.1,0.5-0.1c0.2,0,0.4-0.1,0.5-0.1c0.4-0.1,0.7-0.1,1.2-0.2c0.1,0,0.2,0,0.3-0.1
			c0.1,0,0.2,0,0.3,0C40.6,5.6,40.8,5.5,41.1,5.5z M43,5.6l-0.9,0.1c-0.3,0-0.6,0.1-0.9,0.1l0.3-0.3l-0.3,0.3c0.3,0,0.6-0.1,0.9-0.1
			L43,5.6L43,5.6z M43.5,4.5c-0.1,0-0.3,0.1-0.7,0.1c-0.6,0-1,0.1-1.3,0.1c0.3,0,0.7,0,1.3-0.1C43.2,4.6,43.4,4.5,43.5,4.5z
			 M43.7,5.2C43.6,5.2,43.6,5.2,43.7,5.2L43.7,5.2C43.6,5.2,43.6,5.2,43.7,5.2z M45.7,4c-0.2,0-0.5,0-0.8,0C45.2,4,45.5,4,45.7,4
			L45.7,4z M54.2,5.4c-0.3,0-0.5-0.1-0.8-0.1l-0.8-0.1l-0.8-0.1l-0.2,0l-0.2,0l-0.4,0c-0.3,0-0.6,0-1-0.1c-0.1,0-0.2,0-0.3,0
			c-0.1,0-0.2,0-0.3,0c-0.2,0-0.4,0-0.6,0c0.2,0,0.4,0,0.6,0c0.1,0,0.2,0,0.3,0c0.1,0,0.2,0,0.3,0c0.4,0,0.7,0,1,0.1l0.4,0l0.2,0
			l0.2,0l0.8,0.1l0.8,0.1C53.6,5.3,53.9,5.4,54.2,5.4z M54.6,5.3C54.7,5.3,54.6,5.3,54.6,5.3C54.6,5.3,54.7,5.3,54.6,5.3z M57.3,5.9
			C57,5.8,56.5,5.7,56,5.6c-0.2-0.1-0.5-0.1-0.7-0.2c-0.2,0-0.5-0.1-0.7-0.1l0,0c0.2,0,0.5,0.1,0.7,0.1c0.2,0,0.5,0.1,0.7,0.2
			C56.5,5.7,57,5.8,57.3,5.9z"/>
		
			<linearGradient id="SVGID_00000159428719131798361130000017822250739431671950_" gradientUnits="userSpaceOnUse" x1="-11.0497" y1="17.2518" x2="43.3243" y2="93.2697">
			<stop  offset="0" style="stop-color:#F34B2C"/>
			<stop  offset="1" style="stop-color:#D5CE47"/>
		</linearGradient>
		<path style="fill:url(#SVGID_00000159428719131798361130000017822250739431671950_);" d="M8.8,43.6c0,0-0.1,0.4-0.1,1.1
			c0,0.8,0,1.5,0.1,1.6c0,0.1,0-0.5,0-1.4c0-0.4,0-0.8,0-1C8.8,43.7,8.8,43.6,8.8,43.6z"/>
		
			<linearGradient id="SVGID_00000079474518736764650730000009279849714956720815_" gradientUnits="userSpaceOnUse" x1="22.0313" y1="-6.4103" x2="76.4052" y2="69.6077">
			<stop  offset="0" style="stop-color:#F34B2C"/>
			<stop  offset="1" style="stop-color:#D5CE47"/>
		</linearGradient>
		<path style="fill:url(#SVGID_00000079474518736764650730000009279849714956720815_);" d="M28.2,5.2c-0.1,0.1-0.1,0.1,0.1,0
			c0.1,0,0.2-0.1,0.4-0.2c0.2-0.1,0.4-0.2,0.6-0.3c0.5-0.2,1-0.4,1.4-0.6c0.4-0.2,0.7-0.3,0.8-0.4c0,0-0.2,0-0.4,0.1
			c-0.2,0.1-0.5,0.2-1,0.4c-0.3,0.1-0.6,0.2-0.8,0.3c-0.1,0.1-0.2,0.1-0.3,0.1c-0.1,0-0.2,0.1-0.3,0.1C28.5,5,28.3,5.1,28.2,5.2z"/>
		
			<linearGradient id="SVGID_00000088827467375427170630000010976816009258217402_" gradientUnits="userSpaceOnUse" x1="46.9494" y1="-24.2337" x2="101.3233" y2="51.7843">
			<stop  offset="0" style="stop-color:#F34B2C"/>
			<stop  offset="1" style="stop-color:#D5CE47"/>
		</linearGradient>
		<path style="fill:url(#SVGID_00000088827467375427170630000010976816009258217402_);" d="M84.9,28.4c-0.1-0.3-0.3-0.7-0.5-1
			c-0.2-0.4-0.4-0.7-0.5-0.9c-0.1-0.2-0.2-0.3-0.2-0.3c0,0,0,0,0,0.1c0,0.1,0.1,0.1,0.1,0.2c0.1,0.2,0.2,0.5,0.4,0.9
			c0.9,1.9,1.2,2.9,1.3,2.8c0.1,0.3,0.3,0.7,0.4,0.9c0.1,0.3,0.6,1.3,0.1,0c-0.1-0.4-0.3-0.8-0.4-1.1c-0.1-0.2-0.1-0.3-0.2-0.5
			c-0.1-0.1-0.1-0.3-0.2-0.4C85.1,28.7,85,28.6,84.9,28.4z"/>
		
			<linearGradient id="SVGID_00000163760886891313553390000015261949536988913838_" gradientUnits="userSpaceOnUse" x1="-8.2816" y1="15.2718" x2="46.0924" y2="91.2898">
			<stop  offset="0" style="stop-color:#F34B2C"/>
			<stop  offset="1" style="stop-color:#D5CE47"/>
		</linearGradient>
		<path style="fill:url(#SVGID_00000163760886891313553390000015261949536988913838_);" d="M44.7,88.9c-1.1-0.1-1.9-0.1-2.1-0.1
			c0,0,0.6,0.1,1.5,0.2c0.3,0,0.6,0.1,0.8,0.1c0.2,0,0.4,0,0.6,0c0.3,0,0.5,0,0.6,0C46.3,89,45.7,88.9,44.7,88.9z"/>
		
			<linearGradient id="SVGID_00000059279101920808755090000002700340838040258944_" gradientUnits="userSpaceOnUse" x1="19.3596" y1="-4.4993" x2="73.7336" y2="71.5186">
			<stop  offset="0" style="stop-color:#F34B2C"/>
			<stop  offset="1" style="stop-color:#D5CE47"/>
		</linearGradient>
		<path style="fill:url(#SVGID_00000059279101920808755090000002700340838040258944_);" d="M30.3,11.2c-0.1,0-0.1,0.1-0.2,0.1
			c-0.1,0-0.1,0.1-0.2,0.1c-0.1,0.1-0.2,0.1-0.3,0.2c-0.2,0.1-0.3,0.2-0.3,0.2c0,0,0.1,0,0.3-0.1c0.2-0.1,0.6-0.3,1-0.5
			c0.4-0.2,0.7-0.4,1-0.5c0.2-0.1,0.3-0.2,0.3-0.2C31.9,10.5,31.2,10.8,30.3,11.2z"/>
		
			<linearGradient id="SVGID_00000178887288815672900430000009048860943583008393_" gradientUnits="userSpaceOnUse" x1="-3.3534" y1="11.7468" x2="51.0206" y2="87.7647">
			<stop  offset="0" style="stop-color:#F34B2C"/>
			<stop  offset="1" style="stop-color:#D5CE47"/>
		</linearGradient>
		<path style="fill:url(#SVGID_00000178887288815672900430000009048860943583008393_);" d="M48,83.9c0.8,0,1.6-0.1,1.8-0.1
			c0.1,0-0.1,0-0.4,0c-0.1,0-0.3,0-0.5,0c-0.2,0-0.5,0-0.7,0c-0.5,0-0.9,0-1.2,0c-0.3,0-0.5,0-0.5,0c0,0,0.1,0,0.4,0
			C47.1,83.9,47.5,83.9,48,83.9z"/>
		
			<linearGradient id="SVGID_00000114035517484266218450000007808105328899947142_" gradientUnits="userSpaceOnUse" x1="48.0615" y1="-25.0292" x2="102.4355" y2="50.9888">
			<stop  offset="0" style="stop-color:#F34B2C"/>
			<stop  offset="1" style="stop-color:#D5CE47"/>
		</linearGradient>
		<path style="fill:url(#SVGID_00000114035517484266218450000007808105328899947142_);" d="M83.7,24.3c0.3,0.7,0.6,1.2,0.8,1.6
			c0.2,0.4,0.4,0.8,0.7,1.3l0.1,0.1c0.1,0.1,0.1,0.2,0.2,0.3c0.1,0.1,0.1,0.3,0.2,0.4c0.1,0.3,0.3,0.5,0.3,0.7
			c0.2,0.4,0.2,0.4-0.2-0.7c-0.2-0.5-0.4-0.9-0.5-1.2c-0.2-0.4-0.3-0.7-0.5-1c-0.1-0.1-0.2-0.3-0.2-0.4c-0.1-0.1-0.2-0.3-0.2-0.4
			c-0.1-0.2-0.3-0.5-0.4-0.7c0-0.1-0.1-0.1-0.1-0.1c-0.2-0.4-0.4-0.6-0.5-0.9c-0.1-0.2-0.2-0.4-0.3-0.5c-0.1-0.2-0.2-0.2-0.1-0.1
			c0.1,0.1,0.2,0.4,0.3,0.6C83.4,23.8,83.6,24.1,83.7,24.3z"/>
		
			<linearGradient id="SVGID_00000103950718675305268420000010695386200126915230_" gradientUnits="userSpaceOnUse" x1="-12.7695" y1="18.482" x2="41.6044" y2="94.4999">
			<stop  offset="0" style="stop-color:#F34B2C"/>
			<stop  offset="1" style="stop-color:#D5CE47"/>
		</linearGradient>
		<path style="fill:url(#SVGID_00000103950718675305268420000010695386200126915230_);" d="M3.4,40.7c0-0.4,0.1-0.8,0.1-1.1
			c0-0.3,0-0.4,0-0.3c-0.1,0.2-0.2,1-0.2,1.9c0,0.6-0.1,1.1-0.1,1.4c0,0.3,0,0.4,0,0.2c0-0.1,0-0.2,0-0.3c0-0.1,0-0.3,0-0.5
			C3.3,41.6,3.4,41.1,3.4,40.7z"/>
		
			<linearGradient id="SVGID_00000054246996040505727960000003005782671214729895_" gradientUnits="userSpaceOnUse" x1="-7.575218e-02" y1="9.4024" x2="54.2982" y2="85.4203">
			<stop  offset="0" style="stop-color:#F34B2C"/>
			<stop  offset="1" style="stop-color:#D5CE47"/>
		</linearGradient>
		<path style="fill:url(#SVGID_00000054246996040505727960000003005782671214729895_);" d="M53.3,84c0.4-0.1,0.7-0.1,1-0.2
			c0.2,0,0.4-0.1,0.3-0.1C54.5,83.7,53.9,83.8,53.3,84c-0.3,0-0.5,0-0.6,0c-0.2,0-0.3,0-0.4,0.1c-0.2,0-0.4,0.1-0.4,0.1
			c0.1,0,0.3,0,0.6,0c0.1,0,0.1,0,0.2,0c0.1,0,0.1,0,0.2,0C53,84,53.1,84,53.3,84z"/>
		
			<linearGradient id="SVGID_00000017513809185086032270000017546963477024263597_" gradientUnits="userSpaceOnUse" x1="19.9422" y1="-4.916" x2="74.3162" y2="71.1019">
			<stop  offset="0" style="stop-color:#F34B2C"/>
			<stop  offset="1" style="stop-color:#D5CE47"/>
		</linearGradient>
		<path style="fill:url(#SVGID_00000017513809185086032270000017546963477024263597_);" d="M76.6,73.6c0.5-0.5,0.9-0.9,0.8-0.9
			c-0.1,0.1-0.6,0.5-1.2,1.1c-0.1,0.1-0.2,0.2-0.3,0.3c-0.1,0.1-0.2,0.2-0.3,0.3c-0.2,0.2-0.3,0.3-0.4,0.4
			C75.4,74.8,75.8,74.4,76.6,73.6z"/>
		
			<linearGradient id="SVGID_00000067201101280945662910000007395670341658555529_" gradientUnits="userSpaceOnUse" x1="5.0773" y1="5.7165" x2="59.4513" y2="81.7344">
			<stop  offset="0" style="stop-color:#F34B2C"/>
			<stop  offset="1" style="stop-color:#D5CE47"/>
		</linearGradient>
		<path style="fill:url(#SVGID_00000067201101280945662910000007395670341658555529_);" d="M59.3,82.2c0.2-0.1,0.5-0.1,0.7-0.2
			c0.2-0.1,0.4-0.1,0.5-0.2c0.3-0.1,0.5-0.2,0.5-0.2c0,0-0.3,0.1-0.9,0.3c-0.3,0.1-0.5,0.2-0.7,0.2c-0.2,0.1-0.4,0.1-0.6,0.2
			c-0.3,0.1-0.5,0.2-0.5,0.2C58.3,82.5,58.7,82.4,59.3,82.2z"/>
		
			<linearGradient id="SVGID_00000110451949689940832990000016899539281705990021_" gradientUnits="userSpaceOnUse" x1="42.4839" y1="-21.0396" x2="96.8579" y2="54.9783">
			<stop  offset="0" style="stop-color:#F34B2C"/>
			<stop  offset="1" style="stop-color:#D5CE47"/>
		</linearGradient>
		<path style="fill:url(#SVGID_00000110451949689940832990000016899539281705990021_);" d="M87.4,41.5c-0.1-0.8-0.1-1.1-0.2-1.1
			c0,0,0,0.2,0,0.4c0,0.2,0.1,0.6,0.1,0.9c0.1,0.8,0.1,1,0.1,1.1C87.5,42.8,87.4,42.2,87.4,41.5z"/>
		
			<linearGradient id="SVGID_00000068661011703851806350000012181701467530322615_" gradientUnits="userSpaceOnUse" x1="-10.9797" y1="17.2017" x2="43.3943" y2="93.2197">
			<stop  offset="0" style="stop-color:#F34B2C"/>
			<stop  offset="1" style="stop-color:#D5CE47"/>
		</linearGradient>
		<path style="fill:url(#SVGID_00000068661011703851806350000012181701467530322615_);" d="M38.7,86.8c0.9,0.2,1.5,0.3,1.4,0.2
			C40,86.9,39.4,86.8,38.7,86.8c-0.9-0.3-1.5-0.4-1.4-0.4C37.4,86.4,38,86.6,38.7,86.8z"/>
		
			<linearGradient id="SVGID_00000165202412181473426010000009533204572804323206_" gradientUnits="userSpaceOnUse" x1="-12.9315" y1="18.5978" x2="41.4425" y2="94.6157">
			<stop  offset="0" style="stop-color:#F34B2C"/>
			<stop  offset="1" style="stop-color:#D5CE47"/>
		</linearGradient>
		<path style="fill:url(#SVGID_00000165202412181473426010000009533204572804323206_);" d="M22.8,75.3c-0.5-0.4-0.9-0.7-1.1-0.9
			c-0.2-0.2-0.2-0.1,0,0.1c0.1,0.1,0.2,0.2,0.4,0.3c0.1,0.1,0.1,0.1,0.2,0.2c0.1,0.1,0.2,0.1,0.3,0.2c0.1,0.1,0.3,0.3,0.5,0.4
			c0.1,0.1,0.2,0.2,0.4,0.3c0.1,0.1,0.1,0.1,0.2,0.2c0.1,0.1,0.2,0.1,0.3,0.2c-0.1,0,0,0.1,0.3,0.3c0.1,0.1,0.3,0.3,0.6,0.4
			c0.2,0.2,0.5,0.4,0.9,0.6c0.7,0.4,1.3,0.9,2,1.2c0.3,0.2,0.6,0.4,1,0.6c0.3,0.2,0.6,0.3,0.9,0.5c0.2,0.1,0.4,0.2,0.6,0.3
			c0.1,0.1,0.2,0.1,0.3,0.2c0.1,0,0.2,0.1,0.3,0.1c0.4,0.2,0.8,0.3,1.1,0.5c0.9,0.3,2.1,0.8,3.8,1.3c0.2,0.1,0.4,0.1,0.5,0.2
			c0.2,0,0.3,0.1,0.5,0.1c0.3,0.1,0.6,0.2,0.8,0.2c0.1,0,0.1,0,0.2,0c0.1,0,0.1,0,0.2,0c0.1,0,0.2,0,0.3,0.1c0.2,0,0.3,0,0.4,0.1
			c0.1,0-0.2-0.1-0.4-0.1c-0.2,0-0.3-0.1-0.5-0.1c-0.1,0-0.3-0.1-0.4-0.1c-0.3-0.1-0.6-0.2-0.8-0.2c-0.6-0.1-1.1-0.3-1.6-0.5
			c-0.2-0.1-0.4-0.1-0.7-0.2c-0.2-0.1-0.4-0.2-0.7-0.2c-0.2-0.1-0.4-0.2-0.7-0.2c-0.1,0-0.2-0.1-0.3-0.1l-0.2-0.1L32,81
			c-0.5-0.2-0.9-0.4-1.4-0.6c-0.1,0-0.1-0.1-0.2-0.1c-0.1,0-0.1-0.1-0.2-0.1c-0.1-0.1-0.2-0.1-0.4-0.2c-0.2-0.1-0.5-0.3-0.8-0.4
			l-0.1-0.2c-0.3-0.2-0.6-0.3-0.9-0.5c-0.3-0.1-0.5-0.3-0.6-0.4c-0.2-0.1-0.3-0.2-0.5-0.2c-0.1-0.1-0.2-0.1-0.3-0.2
			C26.5,78,26.5,78,26.3,78c-0.3-0.2-0.4-0.3-0.6-0.4l0.1,0.1l-0.1-0.1c-0.1-0.1-0.3-0.2-0.4-0.2L25,77.1c-0.1-0.1-0.2-0.2-0.5-0.4
			c-0.1-0.1-0.3-0.2-0.4-0.3c-0.1-0.1-0.2-0.1-0.2-0.2c-0.1-0.1-0.2-0.1-0.3-0.2C23.5,75.9,23.7,76,22.8,75.3z"/>
		
			<linearGradient id="SVGID_00000162332465630145057860000001691533918393765025_" gradientUnits="userSpaceOnUse" x1="-6.2369" y1="13.8093" x2="48.1371" y2="89.8272">
			<stop  offset="0" style="stop-color:#F34B2C"/>
			<stop  offset="1" style="stop-color:#D5CE47"/>
		</linearGradient>
		<path style="fill:url(#SVGID_00000162332465630145057860000001691533918393765025_);" d="M45.6,86.9c-0.5,0-0.7,0-0.7,0
			c0.2,0,0.8,0.1,1.5,0.1c0.2,0,0.4,0,0.5,0c0.1,0,0.2,0,0.3,0c0.1,0,0.1,0,0,0c-0.1,0-0.2,0-0.3,0c-0.1,0-0.2,0-0.4,0
			C46.3,86.9,45.9,86.9,45.6,86.9z"/>
		
			<linearGradient id="SVGID_00000040567938156320730970000004318456503455953841_" gradientUnits="userSpaceOnUse" x1="-9.2307" y1="15.9507" x2="45.1432" y2="91.9687">
			<stop  offset="0" style="stop-color:#F34B2C"/>
			<stop  offset="1" style="stop-color:#D5CE47"/>
		</linearGradient>
		<path style="fill:url(#SVGID_00000040567938156320730970000004318456503455953841_);" d="M3.5,35.7c0.1-0.2,0.1-0.4,0.2-0.7
			c0-0.1,0.1-0.3,0.1-0.6c0-0.1,0.1-0.2,0.1-0.4c0-0.1,0.1-0.3,0.1-0.4c0.3-1,0.2-1,0.2-1.1c0-0.2,0.1-0.3,0.1-0.3
			c0.3-1.2,0-0.3-0.3,0.8c-0.1,0.3-0.2,0.6-0.3,0.9c-0.1,0.3-0.1,0.5-0.2,0.8C3.5,35.2,3.4,35.5,3.5,35.7c-0.1,0.2-0.1,0.3-0.2,0.4
			c0,0.1,0,0.2,0,0.3c0,0.2,0,0.2,0,0.3c0,0,0-0.1,0.1-0.2c0-0.1,0-0.2,0.1-0.3c0-0.1,0-0.1,0-0.2C3.4,35.9,3.4,35.8,3.5,35.7z"/>
		
			<linearGradient id="SVGID_00000173157462973508053080000004724339813242602137_" gradientUnits="userSpaceOnUse" x1="-16.6283" y1="21.242" x2="37.7457" y2="97.26">
			<stop  offset="0" style="stop-color:#F34B2C"/>
			<stop  offset="1" style="stop-color:#D5CE47"/>
		</linearGradient>
		<path style="fill:url(#SVGID_00000173157462973508053080000004724339813242602137_);" d="M12.5,62.1c0.1,0.2,0.2,0.4,0.3,0.5
			c0.1,0.1,0.1,0.3,0.2,0.3c0.1,0.2,0.1,0.2,0.1,0.2c0.1,0.1,0.1,0.1,0.1,0c0-0.1-0.1-0.2-0.2-0.4c-0.1-0.2-0.2-0.4-0.3-0.7
			c-0.7-1.5-0.6-1.1-0.7-1.3c0,0,0,0,0,0.2C12.1,61.2,12.2,61.5,12.5,62.1z"/>
		
			<linearGradient id="SVGID_00000054239145205457167090000006766531819651005320_" gradientUnits="userSpaceOnUse" x1="41.1195" y1="-20.0637" x2="95.4935" y2="55.9543">
			<stop  offset="0" style="stop-color:#F34B2C"/>
			<stop  offset="1" style="stop-color:#D5CE47"/>
		</linearGradient>
		<path style="fill:url(#SVGID_00000054239145205457167090000006766531819651005320_);" d="M86.8,50l0,0.3c0,0.2,0,0.3,0,0.5
			c0,0.2,0,0.3,0,0.5c0,0.4-0.1,0.7,0,0.7c0,0,0-0.1,0.1-0.2c0-0.1,0-0.2,0.1-0.3c0-0.1,0.1-0.3,0.1-0.5c0.3-1.7,0.3-2.9,0.3-3.9
			l0.1-1.4c0-0.2,0-0.5,0-0.7l0-0.7c0-0.7,0-1.2,0-1.5c0-0.3-0.1-0.4-0.1-0.5c0-0.2,0-0.4-0.1-0.6c0-0.2-0.1-0.5-0.1-0.7
			c-0.1-0.5-0.1-1.1-0.3-1.7c-0.1-0.3-0.1-0.6-0.2-0.9c0-0.2-0.1-0.3-0.1-0.5l-0.1-0.5c-0.1-0.3-0.1-0.6-0.2-0.9
			c0-0.2-0.1-0.3-0.1-0.5c0-0.1-0.1-0.3-0.1-0.4c-0.2-0.6-0.3-1.1-0.4-1.4c0-0.1-0.1-0.2-0.1-0.1c0,0,0,0.1,0,0.2
			c0,0.1,0,0.2,0.1,0.4c0,0.1,0,0.3,0.2,1l0,0c0,0.1-0.1,0,0,0.5c0,0.3,0.1,0.7,0.2,1.2c0,0.1,0,0.3,0.1,0.4c0,0.1,0.1,0.3,0.1,0.5
			c0.1,0.4,0.1,0.8,0.2,1.3c0,0.2,0.1,0.3,0.1,0.5l0.1,0.5l0.1,1c0,0.3,0.1,0.7,0.1,1l0.1,1c0,0.1,0,0.2,0,0.2c0,0.1,0,0.2,0,0.3
			c0,0.2,0,0.3,0,0.5c0,0.3,0,0.6,0,0.7c0.1,0.5,0.2,0.9,0.2,1.3l0,0.9c0,0.3,0,0.6-0.1,0.9c-0.1,0.7-0.1,1.2-0.1,1.4
			C86.8,49.7,86.8,49.8,86.8,50z"/>
		
			<linearGradient id="SVGID_00000055672077970516494280000014026272471392113334_" gradientUnits="userSpaceOnUse" x1="3.5282" y1="6.8245" x2="57.9022" y2="82.8425">
			<stop  offset="0" style="stop-color:#F34B2C"/>
			<stop  offset="1" style="stop-color:#D5CE47"/>
		</linearGradient>
		<path style="fill:url(#SVGID_00000055672077970516494280000014026272471392113334_);" d="M11,19.9l0.6-0.8l0.3-0.4l0.2-0.2
			l0.2-0.2c0.2-0.3,0.5-0.6,0.8-0.9c0.1-0.2,0.3-0.3,0.4-0.5c0.1-0.2,0.3-0.3,0.4-0.5c0.2-0.3,0.2-0.2,0-0.1
			c-0.2,0.2-0.4,0.4-0.6,0.7c-0.3,0.3-0.6,0.7-0.9,1.1c-0.1,0.1-0.1,0.2-0.2,0.2c-0.1,0.1-0.1,0.2-0.2,0.3c-0.1,0.2-0.3,0.3-0.4,0.5
			c-0.3,0.4-0.5,0.7-0.7,1.1c-0.4,0.6-0.7,1.2-0.7,1.1c0,0,0.2-0.2,0.3-0.5c0.1-0.1,0.2-0.3,0.3-0.4C10.8,20.2,10.9,20.1,11,19.9z"
			/>
	</g>
	<g>
		<defs>
			<rect id="SVGID_00000075130607342368871340000012644236646076273025_" x="22.9" y="25.1" width="47.6" height="43.9"/>
		</defs>
		<clipPath id="SVGID_00000116228971030390795410000015753731519379826309_">
			<use xlink:href="#SVGID_00000075130607342368871340000012644236646076273025_"  style="overflow:visible;"/>
		</clipPath>
		<g style="clip-path:url(#SVGID_00000116228971030390795410000015753731519379826309_);">
			<path class="st60" d="M27.4,53.9c0.4-0.6,0.9-1.1,1.7-1.2c0-6,0.1-12,0.1-18c12.7,0,25.3,0,38-0.1v27.6H39.3
				c-0.3,0.4-0.6,0.7-0.9,1c0.4,0.7,0.4,1.4,0.2,2.2c0.1,0,0.3,0,0.4,0c4.8,0,9.6,0,14.3,0c2.6,0,5.3,0,7.9,0c1.3,0,2.7,0,4,0
				c1.1,0,2.4,0.2,3.5-0.2c2.1-0.9,1.6-3.8,1.6-5.6c0-7,0-14,0-21c0-3.4-0.1-6.8,0-10.2c0-0.9-0.1-1.8-0.7-2.5
				c-0.5-0.6-1.4-0.8-2.2-0.8c-2.6-0.1-5.3,0-7.9,0c-2.8,0-5.5,0-8.3,0c-2.8,0-5.5,0-8.3,0c-4.6,0-9.3,0.1-13.9,0
				c-0.8,0-1.7,0.1-2.3,0.7c-0.5,0.4-0.7,1.1-0.8,1.8c-0.1,1.1,0,2.4,0,3.5c0,1.3,0,2.5,0,3.8c0,2.5,0,4.9,0,7.4c0,3.7,0,7.3,0,11
				c0,0.1,0,0.3,0,0.4C26.5,53.8,26.9,53.9,27.4,53.9L27.4,53.9z M29.1,30.2c0-0.3,0.1-0.6,0.1-0.9c0.1-0.3,0.3-0.6,0.6-0.6
				c0.5-0.1,1-0.1,1.5,0c0.4,0.1,0.6,0.3,0.7,0.7c0.1,0.5,0.1,1.1,0,1.6c-0.1,0.4-0.4,0.7-0.8,0.8c-0.5,0.1-0.9,0-1.4-0.1
				c-0.3-0.1-0.6-0.3-0.6-0.6C29.2,30.7,29.2,30.5,29.1,30.2L29.1,30.2z M38.4,30.2C38.4,30.2,38.4,30.2,38.4,30.2
				c0-0.2,0-0.5,0-0.7c0-0.5,0.2-0.7,0.7-0.8c0.5-0.1,1-0.1,1.5,0c0.4,0.1,0.6,0.4,0.7,0.8c0,0.5,0,0.9,0,1.4c0,0.4-0.3,0.7-0.6,0.8
				c-0.6,0.2-1.2,0.2-1.7,0c-0.3-0.1-0.5-0.4-0.5-0.7C38.4,30.6,38.4,30.4,38.4,30.2L38.4,30.2z M35.3,28.6L35.3,28.6
				c0.2,0,0.4,0,0.5,0c0.5,0,0.9,0.4,0.9,0.9c0,0.4,0,0.8,0,1.2c0,0.5-0.2,0.8-0.7,0.9c-0.4,0.1-0.8,0.1-1.2,0
				c-0.6-0.1-0.9-0.4-0.9-1c0-0.4,0-0.8,0-1.2c0.1-0.5,0.4-0.8,1-0.9C34.9,28.6,35.1,28.6,35.3,28.6L35.3,28.6z"/>
			<path class="st60" d="M35.6,59.5c-0.3-0.3-0.5-0.6-0.7-1c-0.1-0.1,0-0.2,0.1-0.4c0.2-0.2,0.4-0.4,0.5-0.7
				c0.1-0.1,0.1-0.2,0.2-0.3c0.1-0.2,0.1-0.3,0-0.5c-0.4-0.4-0.9-0.8-1.3-1.1c-0.2-0.2-0.3-0.1-0.5,0c-0.2,0.2-0.4,0.4-0.6,0.7
				c-0.3,0.3-0.6,0.4-1,0.2c-0.2-0.1-0.4-0.2-0.7-0.2c0-0.3,0-0.7-0.1-1c0-0.1,0-0.2,0-0.3c0-0.4-0.2-0.6-0.6-0.6
				c-0.4,0-0.8,0-1.1,0c-0.1,0-0.2,0-0.3,0c-0.3,0-0.4,0.2-0.5,0.5c0,0.3,0,0.5,0,0.8c0,0.2,0,0.4,0,0.7c-0.4,0.2-0.9,0.3-1.3,0.5
				c-0.2-0.2-0.4-0.5-0.6-0.7c-0.2-0.2-0.4-0.4-0.6-0.6c-0.1,0-0.1,0-0.1,0c-0.5,0.3-1,0.7-1.4,1.2c-0.2,0.2-0.2,0.3,0,0.6
				c0.2,0.3,0.4,0.5,0.6,0.8c0.1,0.1,0.2,0.2,0.3,0.4c-0.2,0.3-0.4,0.7-0.6,1c-0.1,0.2-0.3,0.2-0.4,0.1c-0.4,0-0.7-0.1-1.1-0.1
				c-0.1,0-0.3,0-0.5,0c0,0.1-0.1,0.2-0.1,0.3c-0.1,0.5-0.2,1-0.3,1.5c-0.1,0.4,0.1,0.6,0.5,0.7c0.3,0.1,0.7,0.1,1,0.2
				c0.1,0,0.2,0,0.3,0.1c0.1,0.5,0.1,0.9,0.2,1.3c-0.3,0.2-0.7,0.4-1,0.6c-0.5,0.3-0.6,0.5-0.3,1c0.2,0.4,0.4,0.8,0.7,1.1
				c0.2,0.3,0.3,0.3,0.6,0.2c0.3-0.1,0.6-0.3,0.8-0.5c0.3-0.2,0.5-0.1,0.8,0.1c0.2,0.2,0.4,0.4,0.7,0.6c-0.1,0.4-0.3,0.7-0.4,1.1
				c-0.2,0.6-0.2,0.7,0.5,1c0.4,0.2,0.8,0.3,1.3,0.4c0.3,0.1,0.4,0,0.5-0.2c0.1-0.3,0.3-0.6,0.4-1c0-0.1,0.1-0.2,0.1-0.4H31
				c0.1,0.2,0.1,0.4,0.2,0.5c0.1,0.3,0.2,0.6,0.4,0.8C31.6,69,31.8,69,32,69c0.6-0.1,1.2-0.4,1.8-0.6c0.2-0.1,0.2-0.2,0.1-0.4
				c-0.1-0.4-0.2-0.8-0.4-1.1c0-0.1-0.1-0.2-0.1-0.3c0.3-0.3,0.7-0.6,1-0.9c0.3,0.2,0.6,0.3,0.9,0.5c0.2,0.1,0.4,0.2,0.6,0.3
				c0.1,0.1,0.2,0,0.3-0.1c0.4-0.5,0.7-1,0.9-1.6c0.1-0.3,0-0.4-0.2-0.6c-0.3-0.2-0.6-0.4-0.9-0.5c-0.3-0.2-0.3-0.2-0.2-0.5
				c0-0.2,0.1-0.5,0.1-0.7c0-0.2,0.1-0.3,0.3-0.4c0.3-0.1,0.6-0.1,0.9-0.2c0.1,0,0.2,0,0.3-0.1c0.3-0.1,0.4-0.2,0.3-0.5
				c-0.1-0.5-0.2-1.1-0.3-1.6c-0.1-0.3-0.2-0.4-0.4-0.3c-0.3,0-0.7,0.1-1,0.1C35.9,59.5,35.7,59.5,35.6,59.5L35.6,59.5z M30.3,59.5
				c1.1-0.1,2.3,1,2.3,2.2c0,1.4-1.2,2.3-2.2,2.3c-1.2,0-2.3-1-2.3-2.2C28,60.7,28.9,59.4,30.3,59.5L30.3,59.5z"/>
			<path class="st60" d="M50.6,55.2c0.4,0,0.8-0.2,1.1-0.6c0.2-0.3,0.3-0.6,0.2-1c-0.4-1.4-0.8-2.8-1.3-4.2c-1.1-3.4-2.2-6.7-3.3-10
				c-0.1-0.2-0.1-0.4-0.2-0.6c-0.2-0.5-0.8-0.9-1.3-0.9c-0.6,0.1-1.2,0.6-1.3,1.2c0,0.2,0,0.3,0.1,0.5c0.7,2.1,1.3,4.3,2,6.4
				c0.9,2.8,1.9,5.6,2.8,8.5C49.5,55,49.9,55.2,50.6,55.2z"/>
			<path class="st60" d="M57,46.6c-0.2,0.1-0.3,0.2-0.4,0.2c-1.2,0.6-2.4,1.1-3.5,1.7c-0.1,0.1-0.3,0.1-0.4,0.2
				c-0.4,0.2-0.6,0.5-0.7,0.9c-0.2,0.7,0.2,1.5,0.9,1.7c0.2,0.1,0.5,0,0.7,0c0.4-0.2,0.9-0.3,1.3-0.5c2-0.9,4.1-1.9,6.1-2.9
				c0.6-0.3,0.9-1,0.7-1.7c-0.1-0.3-0.3-0.6-0.6-0.8c-0.5-0.3-1.1-0.6-1.6-0.8c-1.6-0.7-3.2-1.5-4.8-2.2c-0.4-0.2-0.9-0.3-1.3-0.5
				c-0.2-0.1-0.4,0-0.6,0.1c-0.5,0.3-0.8,0.7-0.9,1.3c0,0.5,0.3,1,0.7,1.2c0.6,0.3,1.3,0.6,2,1c0.7,0.3,1.5,0.7,2.2,1
				C56.8,46.5,56.9,46.6,57,46.6z"/>
			<path class="st60" d="M39.5,46.6c0.3-0.1,0.6-0.3,0.9-0.4c1.1-0.6,2.3-1.1,3.4-1.7c0.1-0.1,0.3-0.2,0.4-0.3
				c0.4-0.4,0.5-0.9,0.3-1.4c-0.1-0.2-0.3-0.4-0.4-0.6c-0.3-0.3-0.7-0.4-1.1-0.3c-0.6,0.2-1.1,0.4-1.7,0.7c-2,0.9-3.9,1.8-5.9,2.7
				c-0.8,0.4-1,1.4-0.5,2.1c0.1,0.2,0.3,0.3,0.5,0.4c1.4,0.7,2.7,1.3,4.1,2c1,0.5,2.1,0.9,3.1,1.4c0.2,0.1,0.4,0.2,0.6,0.2
				c0.6,0,1-0.3,1.2-0.8c0.2-0.5,0.2-1-0.2-1.4c-0.1-0.1-0.3-0.2-0.4-0.3c-1.1-0.6-2.3-1.1-3.4-1.7C40.1,47,39.8,46.8,39.5,46.6
				C39.5,46.6,39.5,46.6,39.5,46.6L39.5,46.6z"/>
		</g>
	</g>
</g>
</svg>
