<svg width="99" height="90" viewBox="0 0 99 90" fill="none" xmlns="http://www.w3.org/2000/svg">
<g clip-path="url(#clip0_88_2)">
<path d="M9.98767 59.1178C10.8543 57.8788 11.9284 56.9336 13.4906 56.5692C13.5544 44.2974 13.616 32.0347 13.6798 19.69C39.6778 19.6513 65.6187 19.6148 91.5961 19.5761V76.143H34.4143C33.7781 76.8832 33.2171 77.5369 32.6241 78.227C33.4656 79.6118 33.5204 81.1492 33.0939 82.8027C33.3835 82.8027 33.623 82.8027 33.8602 82.8027C43.6505 82.7936 53.4384 82.7845 63.2287 82.7708C68.6472 82.764 74.068 82.7549 79.4866 82.7481C82.2369 82.7458 84.9895 82.7412 87.7398 82.739C89.9952 82.739 92.7273 83.1831 94.8596 82.329C99.2199 80.5843 98.18 74.5897 98.1868 70.8657C98.2096 56.5054 98.2233 42.145 98.2142 27.7824C98.2096 20.8174 97.977 13.832 98.1982 6.88296C98.2553 5.09048 98.0021 3.15222 96.782 1.83576C95.6714 0.640014 93.9588 0.189046 92.3259 0.107052C86.9804 -0.157151 81.5185 0.148049 76.1593 0.148049C70.4831 0.148049 64.8068 0.148049 59.1329 0.148049C53.4658 0.148049 47.801 0.141216 42.1339 0.15716C32.631 0.184491 23.1166 0.298372 13.6251 0.191324C11.9193 0.173103 10.0949 0.455527 8.83145 1.59889C7.8303 2.50538 7.31262 3.8469 7.14842 5.18614C6.86564 7.50247 7.1758 10.0215 7.17123 12.3652C7.16667 14.9412 7.16211 17.5149 7.15755 20.0909C7.14843 25.1586 7.14159 30.224 7.13246 35.2917C7.11877 42.8169 7.09825 50.3422 7.08229 57.8674C7.08229 58.1475 7.08229 58.4277 7.08229 58.6987C8.0766 58.8399 9.00933 58.9743 9.98995 59.1132L9.98767 59.1178ZM13.5407 10.4565C13.6114 9.89397 13.6456 9.28357 13.7733 8.69366C13.9216 8.00127 14.3936 7.56169 15.0846 7.3977C16.1086 7.15627 17.1394 7.15855 18.1656 7.39315C18.884 7.55713 19.3515 8.00582 19.5111 8.73011C19.7551 9.83247 19.7665 10.9417 19.5203 12.0486C19.3196 12.9483 18.7358 13.4653 17.8464 13.5883C16.9182 13.7158 15.9809 13.6862 15.0641 13.447C14.3754 13.2671 13.9193 12.8275 13.7733 12.1306C13.6616 11.5976 13.6205 11.051 13.5407 10.4588V10.4565ZM32.5261 10.4907C32.5055 10.4907 32.4873 10.4907 32.4668 10.4907C32.4896 10.0261 32.4941 9.55916 32.5397 9.0968C32.6333 8.14704 33.0255 7.65735 33.9423 7.41364C34.9571 7.14261 35.9902 7.14033 37.0096 7.3977C37.8214 7.60269 38.3254 8.12882 38.3824 8.97381C38.444 9.9008 38.4645 10.8323 38.4531 11.7616C38.444 12.5907 37.9241 13.1669 37.2103 13.4015C36.0381 13.7864 34.8134 13.8115 33.6367 13.3559C32.9616 13.0963 32.5557 12.5793 32.5306 11.8277C32.5147 11.3835 32.5284 10.9371 32.5284 10.493L32.5261 10.4907ZM26.0904 7.29976V7.29065C26.4553 7.29065 26.8225 7.26788 27.1851 7.29521C28.2318 7.37037 28.9525 8.08326 29.0004 9.14008C29.0392 9.96913 29.03 10.8005 29.0004 11.6295C28.9616 12.6635 28.4941 13.2307 27.4998 13.4972C26.6628 13.7226 25.8099 13.709 24.9684 13.545C23.7552 13.3081 23.144 12.6749 23.0437 11.4519C22.9798 10.6706 23.0026 9.87119 23.0938 9.09225C23.2193 8.01493 23.9741 7.37037 25.0596 7.30432C25.404 7.28382 25.7484 7.30204 26.0927 7.30204L26.0904 7.29976Z" fill="#C3C3C3"/>
<path d="M26.8294 70.6084C26.1954 70.0002 25.7826 69.2851 25.436 68.5243C25.3083 68.2442 25.3812 68.021 25.566 67.8001C25.9445 67.3491 26.3185 66.8958 26.6857 66.4358C26.8362 66.2467 26.9571 66.0304 27.1007 65.8368C27.3584 65.4883 27.3607 65.1489 27.0346 64.8619C26.1406 64.0693 25.2535 63.2699 24.3254 62.5183C23.9194 62.1903 23.6207 62.2313 23.233 62.5957C22.7769 63.0262 22.3687 63.5068 21.9513 63.9759C21.4055 64.5879 20.7563 64.7526 20.0038 64.4702C19.5682 64.3062 19.1303 64.1445 18.6651 63.9714C18.6286 63.2562 18.5944 62.5502 18.5602 61.8441C18.5511 61.6414 18.5419 61.4387 18.526 61.236C18.4598 60.4183 18.1839 60.0903 17.3698 60.022C16.6035 59.9582 15.8281 59.981 15.0573 59.9696C14.8338 59.9673 14.6103 59.9696 14.3891 59.9947C13.7346 60.0676 13.4838 60.3021 13.4336 60.9558C13.3925 61.4797 13.4039 62.0104 13.3971 62.5365C13.3925 62.9601 13.3971 63.386 13.3971 63.8871C12.5008 64.2151 11.6137 64.5408 10.7289 64.8642C10.2887 64.3791 9.89649 63.919 9.47459 63.4863C9.0527 63.0535 8.60344 62.6481 8.1861 62.2495C8.03559 62.286 7.94665 62.286 7.88279 62.3247C6.7927 63.0034 5.80296 63.812 4.93864 64.7617C4.53499 65.2036 4.52358 65.3698 4.8725 65.8937C5.23055 66.4335 5.63648 66.9414 6.02873 67.4584C6.22257 67.7158 6.4301 67.9595 6.66271 68.251C6.26818 68.9389 5.89418 69.6062 5.50421 70.2667C5.30581 70.6015 4.98653 70.5901 4.64445 70.5423C3.92153 70.4421 3.19632 70.3555 2.46883 70.2918C2.17236 70.2667 1.86905 70.3123 1.54294 70.3282C1.46312 70.5332 1.3719 70.6926 1.33769 70.8657C1.13245 71.8998 0.913519 72.9315 0.749321 73.9701C0.619331 74.7969 0.863346 75.1317 1.68889 75.3162C2.36165 75.4665 3.0458 75.5599 3.7254 75.6806C3.92381 75.7148 4.12221 75.7512 4.39359 75.799C4.52358 76.7215 4.65129 77.6348 4.78128 78.555C4.07888 78.9991 3.4449 79.3954 2.81319 79.8008C1.72538 80.4955 1.64557 80.746 2.26815 81.8598C2.70373 82.6387 3.15983 83.4063 3.65926 84.1442C4.0994 84.7956 4.27729 84.8207 4.97513 84.4699C5.55438 84.1784 6.12451 83.8641 6.6878 83.5429C7.25336 83.2172 7.76649 83.2651 8.25452 83.6955C8.70834 84.0964 9.169 84.4882 9.62511 84.8822C9.35373 85.6634 9.08234 86.3831 8.85429 87.1165C8.4438 88.4307 8.52362 88.6106 9.82808 89.0935C10.6833 89.4101 11.5567 89.6788 12.4347 89.9248C13.0094 90.0865 13.1987 89.9909 13.4473 89.4397C13.7392 88.7929 13.9741 88.1232 14.234 87.4627C14.3298 87.2213 14.4233 86.9776 14.5396 86.6815H17.3606C17.4883 87.0186 17.6252 87.4149 17.7848 87.8044C18.022 88.3852 18.2728 88.9614 18.5214 89.5376C18.6811 89.9043 18.9547 90.0546 19.3538 89.9658C20.6081 89.6857 21.8031 89.2438 22.9434 88.6516C23.3037 88.4649 23.3379 88.1528 23.2375 87.818C23.0049 87.0414 22.7518 86.2715 22.5055 85.4994C22.4439 85.3081 22.3823 85.1168 22.3071 84.8867C22.9867 84.2786 23.664 83.6728 24.3596 83.051C24.9913 83.4086 25.5842 83.757 26.1885 84.0782C26.5625 84.2786 26.9571 84.4426 27.3448 84.618C27.6025 84.7341 27.8214 84.6635 27.9901 84.4426C28.7496 83.4587 29.4132 82.4178 29.8647 81.2562C30.0723 80.721 29.9468 80.3657 29.42 80.0035C28.8362 79.6004 28.2159 79.2496 27.607 78.8875C27.0415 78.5504 27.0118 78.5071 27.1281 77.8694C27.2148 77.3911 27.3379 76.9174 27.3995 76.4368C27.4565 75.9995 27.6982 75.7945 28.0996 75.7193C28.6971 75.6077 29.2969 75.4961 29.8944 75.38C30.0745 75.3458 30.2524 75.3048 30.4257 75.2501C31.0415 75.0611 31.2194 74.8607 31.1327 74.2366C30.9776 73.1137 30.7861 71.9954 30.5671 70.8817C30.4554 70.3123 30.2456 70.1597 29.664 70.2098C28.9776 70.269 28.3003 70.4057 27.6184 70.5059C27.3607 70.5446 27.1007 70.5696 26.8385 70.6015L26.8294 70.6084ZM15.9422 70.4626C18.2227 70.2849 20.6035 72.4851 20.5876 75.0178C20.5671 77.9787 18.136 79.7029 15.9923 79.7234C13.4632 79.7462 11.2671 77.5824 11.2853 75.1294C11.3013 72.911 12.9912 70.3897 15.9422 70.4649V70.4626Z" fill="#C3C3C3"/>
<path d="M57.5297 61.8236C58.3347 61.7894 59.1877 61.466 59.8011 60.6734C60.2732 60.0653 60.4533 59.3865 60.2185 58.6167C59.3427 55.7492 58.5172 52.8657 57.5981 50.0119C55.386 43.1449 53.1306 36.2938 50.8911 29.4359C50.7474 28.994 50.5855 28.5545 50.4213 28.1194C50.0245 27.0558 48.7178 26.1903 47.6665 26.2905C46.4236 26.4112 45.1921 27.5409 45.053 28.7412C45.0165 29.051 45.0758 29.3903 45.1693 29.691C46.5171 34.0686 47.8375 38.453 49.2446 42.8101C51.1123 48.5952 53.0417 54.3598 54.9596 60.1268C55.3336 61.2496 56.1842 61.8168 57.5297 61.8236Z" fill="#C3C3C3"/>
<path d="M70.645 44.1812C70.2915 44.368 70.0361 44.516 69.7693 44.6413C67.3496 45.7846 64.9254 46.9257 62.5058 48.0691C62.2116 48.208 61.9311 48.3697 61.6369 48.5064C60.8707 48.8617 60.4077 49.4562 60.15 50.2533C59.6985 51.6472 60.5332 53.3258 61.9402 53.7768C62.4465 53.9385 62.9551 53.8611 63.434 53.688C64.3485 53.3554 65.2698 53.0297 66.1501 52.622C70.3462 50.6792 74.5219 48.6886 78.7226 46.7595C80.0248 46.1627 80.5698 44.6139 80.2095 43.3294C80.0134 42.6301 79.6211 42.0744 78.978 41.7396C77.8628 41.1588 76.7431 40.5848 75.6051 40.0564C72.3143 38.5236 69.019 36.9999 65.7099 35.5058C64.8456 35.1163 63.9311 34.8339 63.0326 34.5196C62.6084 34.3715 62.1842 34.4558 61.7897 34.6425C60.6814 35.1687 60.0588 36.1048 59.9904 37.2732C59.9265 38.3801 60.5309 39.2798 61.5115 39.7968C62.8388 40.496 64.2116 41.1064 65.5685 41.7487C67.0714 42.4593 68.5811 43.1586 70.0863 43.8669C70.2436 43.9398 70.3896 44.0354 70.645 44.1812Z" fill="#C3C3C3"/>
<path d="M34.8705 44.0969C35.4839 43.794 36.0951 43.4911 36.7086 43.1927C39.0415 42.0539 41.3768 40.9197 43.7075 39.7717C43.9948 39.6305 44.2845 39.4574 44.5194 39.2456C45.3403 38.5054 45.6117 37.362 45.1511 36.3576C44.9458 35.9089 44.6197 35.4967 44.2799 35.1322C43.671 34.4808 42.9116 34.2804 42.0587 34.6084C40.923 35.0434 39.7668 35.4397 38.663 35.9476C34.647 37.7993 30.6583 39.7125 26.6378 41.5528C24.9958 42.3045 24.5716 44.4659 25.591 45.8439C25.8464 46.1878 26.2159 46.4953 26.6013 46.6843C29.3881 48.0486 32.1817 49.4038 34.9959 50.7134C37.0917 51.6882 39.2194 52.597 41.3449 53.5103C41.7485 53.6834 42.2001 53.8451 42.6288 53.8406C43.7896 53.8224 44.6357 53.2279 45.1077 52.1734C45.5707 51.1416 45.4452 50.1417 44.7132 49.2717C44.4737 48.987 44.1294 48.7615 43.7919 48.5952C41.4452 47.4382 39.0872 46.3017 36.7337 45.1606C36.1156 44.8599 35.4976 44.5593 34.8796 44.2586C34.8773 44.2063 34.8728 44.1539 34.8705 44.1015V44.0969Z" fill="#C3C3C3"/>
</g>
<defs>
<clipPath id="clip0_88_2">
<rect width="97.5789" height="90" fill="white" transform="matrix(-1 0 0 1 98.2895 0)"/>
</clipPath>
</defs>
</svg>
