<?xml version="1.0" encoding="utf-8"?>
<!-- Generator: Adobe Illustrator 27.5.0, SVG Export Plug-In . SVG Version: 6.00 Build 0)  -->
<svg version="1.1" id="Layer_1" xmlns="http://www.w3.org/2000/svg" xmlns:xlink="http://www.w3.org/1999/xlink" x="0px" y="0px"
	 viewBox="0 0 91 90" style="enable-background:new 0 0 91 90;" xml:space="preserve">
<style type="text/css">
	.st0{fill:url(#SVGID_1_);}
	.st1{fill:url(#SVGID_00000144332982929426231410000006046167627199654303_);}
	.st2{fill:url(#SVGID_00000068643213538480717930000009833094552846154910_);}
	.st3{fill:url(#SVGID_00000094613175555512040110000013031154607975157688_);}
	.st4{fill:url(#SVGID_00000158006172623758463640000010303216242798043015_);}
	.st5{fill:url(#SVGID_00000116931911141942207660000008342447380316404413_);}
	.st6{fill:url(#SVGID_00000117636554364777138460000013603506907007870110_);}
	.st7{fill:url(#SVGID_00000137114832140830315460000018107542792969686147_);}
	.st8{fill:url(#SVGID_00000174562310665388517090000013434200128081150088_);}
	.st9{fill:url(#SVGID_00000177450049337207186930000015622702557685144482_);}
	.st10{fill:url(#SVGID_00000005957685115699580650000003726444880124573616_);}
	.st11{fill:url(#SVGID_00000112597727973493099980000004476507144393392779_);}
	.st12{fill:url(#SVGID_00000017504592388461316580000015865100220700458672_);}
	.st13{fill:url(#SVGID_00000008850733886831608520000016121913215378744996_);}
	.st14{fill:url(#SVGID_00000123420821479454098070000002943972004192046518_);}
	.st15{fill:url(#SVGID_00000168084103937379724900000011991662794267861148_);}
	.st16{fill:url(#SVGID_00000091703982166038777130000010870894811138892693_);}
	.st17{fill:url(#SVGID_00000078762622159789767200000015266191710631699886_);}
	.st18{fill:url(#SVGID_00000106138195658523614760000009270738814867447681_);}
	.st19{fill:url(#SVGID_00000155134278567341331560000006096184356938380693_);}
	.st20{fill:url(#SVGID_00000035529779319305202330000002380729274704163234_);}
	.st21{fill:url(#SVGID_00000052074211853204093140000014040396999013333137_);}
	.st22{fill:url(#SVGID_00000023993917509432075460000011999547893455195304_);}
	.st23{fill:url(#SVGID_00000142174303296056329970000013448246507384646039_);}
	.st24{fill:url(#SVGID_00000167372554184613874580000002280211029429061263_);}
	.st25{fill:url(#SVGID_00000171717475392007303330000012686167790383714475_);}
	.st26{fill:url(#SVGID_00000148635840395051633820000012074178642965659539_);}
	.st27{fill:url(#SVGID_00000103944288585766630690000004430463537372482688_);}
	.st28{fill:url(#SVGID_00000016077506639739046040000003407428628195486889_);}
	.st29{fill:url(#SVGID_00000176741778017420123070000007012261363677077162_);}
	.st30{fill:url(#SVGID_00000034792333511089079630000014691516192813649343_);}
	.st31{fill:url(#SVGID_00000170995631289277686230000003607997239968785569_);}
	.st32{fill:url(#SVGID_00000176021317325204470140000013082480585825931706_);}
	.st33{fill:url(#SVGID_00000074418002339183430270000010978080930288254350_);}
	.st34{fill:url(#SVGID_00000137826268937266587410000013083406839192247225_);}
	.st35{fill:url(#SVGID_00000096754239970135360130000000157992162148865951_);}
	.st36{fill:url(#SVGID_00000145764208702395142640000018420685016761783433_);}
	.st37{fill:url(#SVGID_00000095320769082879093770000012586238639638490815_);}
	.st38{fill:url(#SVGID_00000130626783801514326350000005701426247778394553_);}
	.st39{fill:url(#SVGID_00000026120936542455105040000001093754661287198855_);}
	.st40{fill:url(#SVGID_00000054264993524394096970000012132718768814285965_);}
	.st41{fill:url(#SVGID_00000178196582270705622500000016965366553217824934_);}
	.st42{fill:url(#SVGID_00000067217955667988722550000010853838509482782381_);}
	.st43{fill:url(#SVGID_00000039114036335603852310000015680028047799612811_);}
	.st44{fill:url(#SVGID_00000073685498946061970430000000673971168290095025_);}
	.st45{fill:url(#SVGID_00000111901072127213925310000014203675980690871461_);}
	.st46{fill:url(#SVGID_00000171679958911706955420000013124239394210527932_);}
	.st47{fill:url(#SVGID_00000129893962653259849360000015952969619875968155_);}
	.st48{fill:url(#SVGID_00000098218048632552691030000010364203301036606115_);}
	.st49{fill:url(#SVGID_00000025410098237020668180000002010663270990119340_);}
	.st50{fill:url(#SVGID_00000178919736372360613800000002021545597482038917_);}
	.st51{fill:url(#SVGID_00000084503187259250973210000014014917526895718538_);}
	.st52{fill:url(#SVGID_00000018932975054748916940000006400807087930263709_);}
	.st53{fill:url(#SVGID_00000144308333620063525630000010235643347093830017_);}
	.st54{fill:url(#SVGID_00000025444934449695134030000011243939773207048603_);}
	.st55{fill:url(#SVGID_00000105428896139453733340000001622120281380000923_);}
	.st56{fill:url(#SVGID_00000132798042456802182680000002910391129315201700_);}
	.st57{fill:url(#SVGID_00000003791865839591456110000009964065599918889610_);}
	.st58{fill:url(#SVGID_00000183942546278025864420000011932736857657111992_);}
	.st59{fill:#C0C4C9;}
</style>
<g>
	<g>
		
			<linearGradient id="SVGID_1_" gradientUnits="userSpaceOnUse" x1="-12.6527" y1="73.5658" x2="41.7213" y2="-2.4522" gradientTransform="matrix(1 0 0 -1 0 92)">
			<stop  offset="0" style="stop-color:#F34B2C"/>
			<stop  offset="1" style="stop-color:#D5CE47"/>
		</linearGradient>
		<path class="st0" d="M39.6,87.2c-0.3-0.1-0.6-0.1-0.8-0.2c-0.3-0.1-0.5-0.1-0.8-0.2s-0.5-0.1-0.7-0.2s-0.5-0.1-0.7-0.2
			c-0.9-0.2-1.5-0.4-1.9-0.5c-0.3-0.1-0.7-0.2-1.3-0.4c-0.1,0-0.3-0.1-0.4-0.1c-0.1,0-0.2,0-0.2-0.1c-0.1,0-0.2-0.1-0.2-0.1
			c-0.3-0.1-0.7-0.3-1.1-0.4c-0.2-0.1-0.4-0.1-0.6-0.2s-0.3-0.2-0.5-0.2c-0.3-0.1-0.6-0.3-0.9-0.4c-0.6-0.2-1-0.5-1.4-0.6
			c-0.4-0.2-0.7-0.3-0.9-0.4c-0.2-0.1-0.4-0.2-0.5-0.2c-0.2-0.1-0.1,0,0.3,0.3c0.4,0.2,1,0.5,1.7,0.9c0.2,0.1,0.4,0.2,0.6,0.3
			c0.2,0.1,0.4,0.2,0.6,0.3c0.4,0.2,0.8,0.3,1.1,0.5c0.4,0.1,0.8,0.3,1.2,0.4c0.2,0.1,0.4,0.1,0.6,0.2c0.2,0.1,0.4,0.1,0.6,0.2
			c0.5,0.2,1,0.3,1.5,0.5c0.4,0.1,0.8,0.2,1,0.2s0.4,0.1,0.7,0.1c0.2,0.1,0.5,0.1,0.9,0.2s0.8,0.2,1.3,0.3c0.1,0,0.3,0.1,0.4,0.1
			c0.1,0,0.3,0.1,0.5,0.1c0.3,0.1,0.7,0.1,1,0.2c0.2,0,0.3,0.1,0.5,0.1s0.3,0,0.5,0.1c0.3,0,0.6,0.1,0.9,0.1c0.3,0,0.5,0.1,0.8,0.1
			c0.2,0,0.4,0,0.5,0s0.1,0-0.1-0.1c-0.2,0-0.5-0.1-0.9-0.2s-0.9-0.2-1.4-0.2c-0.2,0-0.5-0.1-0.7-0.1C40.1,87.2,39.8,87.2,39.6,87.2
			z"/>
		
			<linearGradient id="SVGID_00000142883822215852092430000007893733356846476186_" gradientUnits="userSpaceOnUse" x1="-18.3004" y1="69.5262" x2="36.0735" y2="-6.4918" gradientTransform="matrix(1 0 0 -1 0 92)">
			<stop  offset="0" style="stop-color:#F34B2C"/>
			<stop  offset="1" style="stop-color:#D5CE47"/>
		</linearGradient>
		<path style="fill:url(#SVGID_00000142883822215852092430000007893733356846476186_);" d="M24.5,82.2c-0.5-0.3-0.9-0.6-1.3-0.8
			c-0.1-0.1-0.2-0.1-0.3-0.2c-0.1-0.1-0.2-0.1-0.3-0.2c-0.2-0.1-0.4-0.3-0.6-0.4c-0.3-0.2-0.6-0.4-0.8-0.6c-0.2-0.2-0.4-0.4-0.6-0.5
			c-0.4-0.3-0.7-0.6-1.1-0.9c-0.3-0.3-0.7-0.6-1-0.9s-0.7-0.6-1-0.9s-0.7-0.6-1-0.9l-0.4-0.4c-0.1-0.1-0.2-0.2-0.2-0.2
			c-0.2-0.2-0.3-0.3-0.5-0.5c-0.6-0.6-0.9-0.9-1-0.9c0,0,0,0,0,0.1c0.1,0.1,0.2,0.2,0.4,0.4c0.7,0.9,1.7,2,3.6,3.6
			c0.3,0.2,0.5,0.4,0.7,0.6s0.4,0.3,0.6,0.5c0.4,0.3,0.7,0.6,1,0.8c0.1,0.1,0.1,0.1,0.2,0.2s0.1,0.1,0.2,0.2s0.3,0.2,0.4,0.3
			c0.3,0.2,0.6,0.4,0.9,0.7c0.2,0.2,0.5,0.4,0.8,0.5c0.3,0.2,0.5,0.4,0.8,0.6c0.1,0.1,0.3,0.2,0.4,0.3c0.1,0.1,0.3,0.2,0.4,0.3
			c0.3,0.2,0.6,0.4,0.9,0.5l0.5,0.3c0.2,0.1,0.3,0.2,0.5,0.2c0.3,0.2,0.6,0.3,0.9,0.5c0.6,0.3,1.3,0.6,1.8,0.8
			c0.2,0.1,0.5,0.2,0.7,0.3c0.2,0.1,0.4,0.1,0.5,0.2c0.3,0.1,0.5,0.2,0.7,0.2s0-0.1-0.6-0.4c-0.2-0.1-0.4-0.2-0.6-0.3
			c-0.2-0.1-0.4-0.2-0.7-0.3c-0.2-0.1-0.5-0.2-0.8-0.4c-0.1-0.1-0.3-0.1-0.4-0.2s-0.3-0.1-0.4-0.2c-0.3-0.1-0.6-0.3-0.9-0.5
			c-0.1-0.1-0.3-0.2-0.5-0.2c-0.2-0.1-0.3-0.2-0.4-0.2c-0.3-0.2-0.6-0.3-0.9-0.5c-0.1-0.1-0.3-0.2-0.4-0.2s-0.1-0.1-0.2-0.1
			C24.7,82.3,24.6,82.3,24.5,82.2z"/>
		
			<linearGradient id="SVGID_00000072282214313944602610000014562773304775614611_" gradientUnits="userSpaceOnUse" x1="41.3162" y1="112.1687" x2="95.6902" y2="36.1507" gradientTransform="matrix(1 0 0 -1 0 92)">
			<stop  offset="0" style="stop-color:#F34B2C"/>
			<stop  offset="1" style="stop-color:#D5CE47"/>
		</linearGradient>
		<path style="fill:url(#SVGID_00000072282214313944602610000014562773304775614611_);" d="M62,8.8c-0.5-0.2-0.9-0.3-1.2-0.4
			c-0.1,0-0.2-0.1-0.2-0.1c-0.1,0-0.1,0-0.2-0.1c-0.1,0-0.2-0.1-0.3-0.1C59.7,8,59.5,8,59.4,8c-0.1,0,0.3,0.2,1.2,0.5
			c0.4,0.2,0.9,0.4,1.5,0.6c0.2,0.1,0.3,0.1,0.5,0.2c0.2,0.1,0.3,0.1,0.5,0.2c0.3,0.2,0.7,0.3,1.1,0.5c0.6,0.3,0.9,0.5,1.1,0.5
			c0.2,0.1,0.2,0.1,0.2,0.1C65.6,10.6,64.2,9.7,62,8.8z"/>
		
			<linearGradient id="SVGID_00000095298324568650193670000003976726708648110505_" gradientUnits="userSpaceOnUse" x1="46.812" y1="116.0996" x2="101.1859" y2="40.0817" gradientTransform="matrix(1 0 0 -1 0 92)">
			<stop  offset="0" style="stop-color:#F34B2C"/>
			<stop  offset="1" style="stop-color:#D5CE47"/>
		</linearGradient>
		<path style="fill:url(#SVGID_00000095298324568650193670000003976726708648110505_);" d="M82.2,25.8c0,0,0-0.1-0.1-0.3
			c0-0.1-0.1-0.2-0.2-0.3c0-0.1-0.1-0.1-0.1-0.2s-0.1-0.1-0.1-0.2c-0.2-0.3-0.4-0.6-0.5-1c-0.1-0.2-0.2-0.3-0.3-0.5
			c-0.1-0.2-0.2-0.3-0.3-0.5c-0.5-0.7-0.8-1.2-1.1-1.5c-0.3-0.3-0.4-0.4-0.4-0.4c0,0.1,0.2,0.4,0.5,0.8c0.2,0.2,0.3,0.5,0.5,0.8
			c0.1,0.1,0.2,0.3,0.3,0.5c0.1,0.1,0.1,0.2,0.2,0.2c0.1,0.1,0.1,0.2,0.2,0.3c0.3,0.5,0.7,1.1,1,1.5C82,25.5,82.2,25.8,82.2,25.8z"
			/>
		
			<linearGradient id="SVGID_00000127730718584931149750000006713537135487593915_" gradientUnits="userSpaceOnUse" x1="43.3976" y1="113.6574" x2="97.7716" y2="37.6395" gradientTransform="matrix(1 0 0 -1 0 92)">
			<stop  offset="0" style="stop-color:#F34B2C"/>
			<stop  offset="1" style="stop-color:#D5CE47"/>
		</linearGradient>
		<path style="fill:url(#SVGID_00000127730718584931149750000006713537135487593915_);" d="M87.5,40c0,0.3,0.1,0.7,0.1,1
			c0,0.2,0,0.3,0.1,0.5c0,0.1,0,0.3,0,0.4c0.1,0.5,0.1,0.8,0.1,0.8c0-0.1,0-0.4,0-0.9c0-0.3,0-0.6-0.1-0.9c0-0.3-0.1-0.7-0.1-1
			s-0.1-0.6-0.1-0.8c0-0.3-0.1-0.6-0.1-0.8c0-0.3-0.1-0.5-0.1-0.7s-0.1-0.3-0.1-0.4c0-0.1,0,0,0,0.2c0,0.1,0,0.2,0,0.3s0,0.3,0,0.4
			c0,0.3,0.1,0.6,0.1,1c0,0.2,0,0.3,0.1,0.5C87.5,39.6,87.5,39.8,87.5,40z"/>
		
			<linearGradient id="SVGID_00000177478800679223474000000007755067086202322864_" gradientUnits="userSpaceOnUse" x1="-13.8252" y1="72.7273" x2="40.5488" y2="-3.2907" gradientTransform="matrix(1 0 0 -1 0 92)">
			<stop  offset="0" style="stop-color:#F34B2C"/>
			<stop  offset="1" style="stop-color:#D5CE47"/>
		</linearGradient>
		<path style="fill:url(#SVGID_00000177478800679223474000000007755067086202322864_);" d="M8.7,50.1c0.1,0.5,0.1,0.9,0.2,1.3
			c0,0.2,0.1,0.4,0.1,0.7c0,0.2,0.1,0.4,0.1,0.7c0.1,0.3,0.1,0.5,0.2,0.7c0,0.1,0,0.2,0.1,0.3c0,0.1,0.1,0.2,0.1,0.3
			c0.1,0.3,0.2,0.6,0.2,0.8c0.1,0.5,0.3,0.8,0.3,0.9c0,0,0,0,0-0.1s-0.1-0.3-0.1-0.6c-0.1-0.3-0.1-0.6-0.2-0.8
			c0-0.1-0.1-0.3-0.1-0.4c0-0.1-0.1-0.3-0.1-0.4c-0.1-0.5-0.2-1-0.3-1.5c-0.1-0.8-0.2-1.7-0.4-3.1c-0.1-0.6-0.1-1.1-0.2-1.4
			c0-0.3-0.1-0.4-0.1-0.3c0,0.1,0,0.5,0,1.1C8.6,48.8,8.7,49.5,8.7,50.1z"/>
		
			<linearGradient id="SVGID_00000147917077032679606570000016438958249966947984_" gradientUnits="userSpaceOnUse" x1="36.4324" y1="108.6753" x2="90.8064" y2="32.6574" gradientTransform="matrix(1 0 0 -1 0 92)">
			<stop  offset="0" style="stop-color:#F34B2C"/>
			<stop  offset="1" style="stop-color:#D5CE47"/>
		</linearGradient>
		<path style="fill:url(#SVGID_00000147917077032679606570000016438958249966947984_);" d="M85.2,57.2c0,0,0.1-0.2,0.2-0.5
			c0.1-0.2,0.2-0.5,0.2-0.8c0.1-0.4,0.2-0.8,0.3-1.3c0.1-0.4,0.2-0.9,0.3-1.3c0-0.1,0-0.2,0.1-0.3c0-0.1,0-0.2,0.1-0.3
			c0-0.2,0.1-0.4,0.1-0.7c0-0.2,0.1-0.4,0.1-0.7c0-0.1,0-0.2,0.1-0.3c0-0.1,0-0.2,0-0.3c0.2-1.7,0.2-2.9,0.2-2.7c0,0,0,0.2-0.1,0.4
			c0,0.2,0,0.6-0.1,1.1c0,0.5-0.1,1-0.1,1.5c-0.1,0.5-0.2,1.1-0.3,1.7c-0.1,0.6-0.3,1.3-0.4,1.9c-0.1,0.3-0.2,0.7-0.3,1
			c0,0.2-0.1,0.4-0.1,0.5s-0.1,0.2-0.1,0.3s-0.1,0.2-0.1,0.3C85.2,57,85.1,57.3,85.2,57.2z"/>
		
			<linearGradient id="SVGID_00000068660527025996760070000000514126045959467658_" gradientUnits="userSpaceOnUse" x1="30.2656" y1="104.2643" x2="84.6395" y2="28.2464" gradientTransform="matrix(1 0 0 -1 0 92)">
			<stop  offset="0" style="stop-color:#F34B2C"/>
			<stop  offset="1" style="stop-color:#D5CE47"/>
		</linearGradient>
		<path style="fill:url(#SVGID_00000068660527025996760070000000514126045959467658_);" d="M83.6,61.6c0.1-0.3,0.3-0.6,0.4-0.9
			c0.1-0.1,0.1-0.3,0.2-0.4c0-0.1,0.1-0.2,0.1-0.3c0.1-0.4,0.2-0.6,0.1-0.5s-0.2,0.4-0.4,0.8c-0.2,0.5-0.5,1.1-0.8,1.8
			c-0.3,0.6-0.6,1.1-0.7,1.5c-0.1,0.2-0.2,0.3-0.2,0.4s-0.1,0.2-0.1,0.2c0.1-0.1,0.3-0.4,0.5-0.8c0.1-0.2,0.3-0.5,0.4-0.8
			c0.1-0.1,0.2-0.3,0.2-0.5C83.4,62,83.5,61.8,83.6,61.6z"/>
		
			<linearGradient id="SVGID_00000158020136172993070360000009703399339732609422_" gradientUnits="userSpaceOnUse" x1="46.1385" y1="115.6179" x2="100.5125" y2="39.6" gradientTransform="matrix(1 0 0 -1 0 92)">
			<stop  offset="0" style="stop-color:#F34B2C"/>
			<stop  offset="1" style="stop-color:#D5CE47"/>
		</linearGradient>
		<path style="fill:url(#SVGID_00000158020136172993070360000009703399339732609422_);" d="M86.4,34.2c0.3,0.9,0.3,0.7,0-0.4
			c-0.1-0.6-0.3-1.1-0.5-1.6c0-0.1-0.1-0.3-0.1-0.4s-0.1-0.3-0.1-0.4c-0.1-0.3-0.2-0.6-0.3-0.8c-0.1-0.2-0.2-0.5-0.2-0.7
			c-0.1-0.2-0.2-0.4-0.2-0.6c-0.2-0.3-0.3-0.6-0.4-0.8c0-0.1-0.1-0.2-0.1-0.3c0-0.1-0.1-0.1-0.1-0.2c-0.1-0.1-0.1-0.2-0.1-0.2
			c-0.1-0.1-0.1-0.1,0,0c0,0.1,0.1,0.1,0.1,0.3c0,0.1,0,0.1,0.1,0.2c0,0.1,0.1,0.1,0.1,0.2c0.1,0.3,0.3,0.6,0.4,1
			c0,0.1,0.1,0.3,0.1,0.4l0,0.1c0,0.1,0,0.1,0.1,0.2c0.1,0.3,0.2,0.5,0.3,0.9c0.1,0.3,0.2,0.6,0.3,0.9c0.1,0.3,0.2,0.6,0.3,0.8
			C86.1,33.3,86.2,33.8,86.4,34.2z"/>
		
			<linearGradient id="SVGID_00000033368892410268755910000001323617450938123947_" gradientUnits="userSpaceOnUse" x1="-12.6618" y1="73.5593" x2="41.7121" y2="-2.4587" gradientTransform="matrix(1 0 0 -1 0 92)">
			<stop  offset="0" style="stop-color:#F34B2C"/>
			<stop  offset="1" style="stop-color:#D5CE47"/>
		</linearGradient>
		<path style="fill:url(#SVGID_00000033368892410268755910000001323617450938123947_);" d="M33.1,81.6c-0.8-0.3-1.7-0.7-2.4-1
			c-0.2-0.1-0.4-0.2-0.5-0.2c-0.1-0.1-0.3-0.1-0.4-0.2c-0.2-0.1-0.3-0.1-0.3-0.1s0.2,0.1,0.5,0.3c0.1,0.1,0.3,0.2,0.5,0.3
			c0.2,0.1,0.4,0.2,0.7,0.3c0.2,0.1,0.4,0.2,0.6,0.3c0.1,0,0.2,0.1,0.3,0.1c0.1,0,0.1,0,0.2,0.1l0.2,0.1c0.4,0.2,0.9,0.3,1.3,0.5
			c0.4,0.2,0.8,0.2,1,0.3c0.3,0.1,0.4,0.1,0.4,0.1s-0.2-0.1-0.5-0.2c-0.3-0.3-0.6-0.3-0.8-0.4S33.4,81.7,33.1,81.6z"/>
		
			<linearGradient id="SVGID_00000055690197742651876610000005052217631293344687_" gradientUnits="userSpaceOnUse" x1="43.1774" y1="113.4998" x2="97.5513" y2="37.4818" gradientTransform="matrix(1 0 0 -1 0 92)">
			<stop  offset="0" style="stop-color:#F34B2C"/>
			<stop  offset="1" style="stop-color:#D5CE47"/>
		</linearGradient>
		<path style="fill:url(#SVGID_00000055690197742651876610000005052217631293344687_);" d="M86,38.3c-0.2-1.4-0.6-2.8-0.7-2.7
			c0,0,0,0.2,0.1,0.6c0.1,0.3,0.1,0.8,0.2,1.3c0,0.2,0.1,0.4,0.1,0.6c0,0.2,0.1,0.4,0.1,0.5c0.1,0.3,0.1,0.6,0.1,0.8
			s0.1,0.4,0.1,0.5s0.1,0.2,0.1,0.3c0-0.1,0-0.2,0-0.3s0-0.2,0-0.3C86.1,39.2,86.1,38.8,86,38.3z"/>
		
			<linearGradient id="SVGID_00000010313150823946166060000000134614757659245757_" gradientUnits="userSpaceOnUse" x1="26.5839" y1="101.6308" x2="80.9578" y2="25.613" gradientTransform="matrix(1 0 0 -1 0 92)">
			<stop  offset="0" style="stop-color:#F34B2C"/>
			<stop  offset="1" style="stop-color:#D5CE47"/>
		</linearGradient>
		<path style="fill:url(#SVGID_00000010313150823946166060000000134614757659245757_);" d="M33.4,3.5c0.4-0.1,1-0.3,1.5-0.5
			c0.1,0,0.3-0.1,0.4-0.1c0.2,0,0.3-0.1,0.5-0.1c0.3-0.1,0.6-0.2,0.9-0.3c0.6-0.2,1.1-0.3,1.6-0.4C38.7,2,39,1.9,39,1.9
			c0.1-0.1-0.6,0.1-1.5,0.3c-0.1,0-0.1,0-0.2,0c-0.1,0-0.2,0-0.3,0.1c-0.2,0.1-0.4,0.1-0.7,0.2c-0.3,0.1-0.6,0.2-0.9,0.2
			c-0.2,0-0.3,0.1-0.5,0.1c-0.2,0.1-0.3,0.1-0.5,0.2c-0.3,0.1-0.6,0.2-0.9,0.3c-0.1,0-0.3,0.1-0.4,0.1c-0.1,0-0.2,0.1-0.3,0.1
			C32.3,3.7,32,3.8,32,3.8C32.3,3.8,32.6,3.7,33.4,3.5z"/>
		
			<linearGradient id="SVGID_00000075858773941347278570000006852716789075935879_" gradientUnits="userSpaceOnUse" x1="-7.1531" y1="77.4996" x2="47.2209" y2="1.4816" gradientTransform="matrix(1 0 0 -1 0 92)">
			<stop  offset="0" style="stop-color:#F34B2C"/>
			<stop  offset="1" style="stop-color:#D5CE47"/>
		</linearGradient>
		<path style="fill:url(#SVGID_00000075858773941347278570000006852716789075935879_);" d="M10.3,39.1c-0.1,1.5-0.2,1.9-0.1,1.9
			c0,0,0.2-0.6,0.3-1.9c0.2-1.4,0.3-1.8,0.3-1.9c0,0,0,0.1-0.1,0.2c0,0.1-0.1,0.2-0.1,0.3C10.5,38.1,10.4,38.5,10.3,39.1z"/>
		
			<linearGradient id="SVGID_00000023960079045587845670000002121399747831318144_" gradientUnits="userSpaceOnUse" x1="40.2592" y1="111.4126" x2="94.6332" y2="35.3946" gradientTransform="matrix(1 0 0 -1 0 92)">
			<stop  offset="0" style="stop-color:#F34B2C"/>
			<stop  offset="1" style="stop-color:#D5CE47"/>
		</linearGradient>
		<path style="fill:url(#SVGID_00000023960079045587845670000002121399747831318144_);" d="M86.7,44.8c0-0.5,0-0.9,0-1.2
			c0-0.2,0-0.3-0.1-0.3c0,0,0,0.1,0,0.2c0,0.1,0,0.2,0,0.4c0,0.3,0,0.7,0,1.3c0,0.1,0,0.1,0,0.2c0,0.1,0,0.2,0,0.2
			c0,0.2,0,0.3,0,0.5c0,0.3,0,0.7-0.1,1.1c0,0.1,0.1,0.1,0.1,0s0.1-0.2,0.1-0.5c0-0.2,0.1-0.5,0.1-0.8c0-0.2,0-0.3,0-0.5
			S86.7,45,86.7,44.8z"/>
		
			<linearGradient id="SVGID_00000000938066277549199800000000156543653446045852_" gradientUnits="userSpaceOnUse" x1="46.7719" y1="116.0709" x2="101.1459" y2="40.053" gradientTransform="matrix(1 0 0 -1 0 92)">
			<stop  offset="0" style="stop-color:#F34B2C"/>
			<stop  offset="1" style="stop-color:#D5CE47"/>
		</linearGradient>
		<path style="fill:url(#SVGID_00000000938066277549199800000000156543653446045852_);" d="M82.9,26c-0.2-0.3-0.3-0.6-0.4-0.8
			c-0.1-0.2-0.2-0.4-0.3-0.5C82,24.5,82,24.4,82,24.5c0,0.1,0.2,0.3,0.4,0.7c0.2,0.4,0.5,0.9,0.8,1.4c0.3,0.6,0.6,1.2,0.8,1.7
			c0.2,0.5,0.4,0.9,0.5,1s-0.1-0.4-0.4-1.1c-0.2-0.3-0.3-0.7-0.5-1.1c-0.1-0.2-0.2-0.4-0.3-0.6C83.1,26.3,83,26.2,82.9,26z"/>
		
			<linearGradient id="SVGID_00000071526083060908455830000011641073556647458965_" gradientUnits="userSpaceOnUse" x1="35.2445" y1="107.8256" x2="89.6184" y2="31.8076" gradientTransform="matrix(1 0 0 -1 0 92)">
			<stop  offset="0" style="stop-color:#F34B2C"/>
			<stop  offset="1" style="stop-color:#D5CE47"/>
		</linearGradient>
		<path style="fill:url(#SVGID_00000071526083060908455830000011641073556647458965_);" d="M45.7,1.2c0.4,0,1.2,0,1.4,0
			c0.6,0,1.3,0,1.9,0c0.6,0,1,0,0.8-0.1c0.1,0-0.1,0-0.4-0.1c-0.2,0-0.4,0-0.8,0c-0.2,0-0.3,0-0.5,0s-0.4,0-0.6,0
			c-1.6,0-2,0.1-1.5,0.1c0.2,0,0.3,0,0.3,0c-0.1,0-0.3,0-0.8,0.1C44.9,1.2,44.9,1.3,45.7,1.2z"/>
		
			<linearGradient id="SVGID_00000044856274320931762280000018048676381840290974_" gradientUnits="userSpaceOnUse" x1="47.2404" y1="116.4061" x2="101.6144" y2="40.3882" gradientTransform="matrix(1 0 0 -1 0 92)">
			<stop  offset="0" style="stop-color:#F34B2C"/>
			<stop  offset="1" style="stop-color:#D5CE47"/>
		</linearGradient>
		<path style="fill:url(#SVGID_00000044856274320931762280000018048676381840290974_);" d="M79.9,21c-0.3-0.4-0.7-0.9-0.9-1.1
			c-0.2-0.3-0.4-0.4-0.3-0.3c0,0,0.1,0.1,0.1,0.2c0.1,0.1,0.2,0.2,0.3,0.4c0.2,0.3,0.5,0.7,0.9,1.3c0.2,0.2,0.3,0.5,0.5,0.7
			c0.1,0.2,0.3,0.4,0.4,0.5c0.2,0.3,0.3,0.4,0.3,0.4c0-0.1-0.1-0.3-0.3-0.6C80.5,21.9,80.2,21.5,79.9,21z"/>
		
			<linearGradient id="SVGID_00000081618181154305338130000018126464507152146617_" gradientUnits="userSpaceOnUse" x1="23.303" y1="99.2842" x2="77.6769" y2="23.2661" gradientTransform="matrix(1 0 0 -1 0 92)">
			<stop  offset="0" style="stop-color:#F34B2C"/>
			<stop  offset="1" style="stop-color:#D5CE47"/>
		</linearGradient>
		<path style="fill:url(#SVGID_00000081618181154305338130000018126464507152146617_);" d="M34.3,8.2c-0.3,0.1-0.5,0.2-0.8,0.3
			c-0.2,0.1-0.5,0.2-0.6,0.3C32.5,8.9,32.3,9,32.3,9s0.3-0.1,0.7-0.3c0.4-0.1,0.9-0.3,1.5-0.5c0.1-0.1,0.3-0.1,0.4-0.2
			c0.2,0.1,0.4,0,0.5,0c0.3-0.1,0.5-0.2,0.7-0.2c0.4-0.1,0.6-0.2,0.6-0.2s-0.4,0.1-0.9,0.2C35.4,7.8,34.8,8,34.3,8.2z"/>
		
			<linearGradient id="SVGID_00000018199840671175711630000000654694642001624756_" gradientUnits="userSpaceOnUse" x1="22.2439" y1="98.5266" x2="76.6179" y2="22.5086" gradientTransform="matrix(1 0 0 -1 0 92)">
			<stop  offset="0" style="stop-color:#F34B2C"/>
			<stop  offset="1" style="stop-color:#D5CE47"/>
		</linearGradient>
		<path style="fill:url(#SVGID_00000018199840671175711630000000654694642001624756_);" d="M33.5,9.6c-0.8,0.3-1.3,0.6-1.4,0.7
			c-0.1,0.1,0.2,0,0.6-0.2c0.2-0.1,0.5-0.2,0.7-0.3c0.3-0.1,0.6-0.2,0.9-0.3c0.4-0.1,0.7-0.3,0.9-0.4C35.4,9,35.5,9,35.6,8.9
			c0,0-0.1,0-0.2,0c-0.1,0-0.1,0-0.2,0c-0.1,0-0.2,0-0.2,0.1C34.6,9.2,34.1,9.4,33.5,9.6z"/>
		
			<linearGradient id="SVGID_00000061464102869580547870000016913224237426799528_" gradientUnits="userSpaceOnUse" x1="17.484" y1="95.1219" x2="71.8579" y2="19.104" gradientTransform="matrix(1 0 0 -1 0 92)">
			<stop  offset="0" style="stop-color:#F34B2C"/>
			<stop  offset="1" style="stop-color:#D5CE47"/>
		</linearGradient>
		<path style="fill:url(#SVGID_00000061464102869580547870000016913224237426799528_);" d="M29.6,10.8c-0.1,0-0.4,0.2-1.4,0.7
			c-1.1,0.7-1.5,1-1.6,1c0,0,0.4-0.2,1.1-0.6c0.1-0.1,0.3-0.2,0.4-0.2c0.1-0.1,0.2-0.1,0.3-0.2c0.2-0.1,0.4-0.2,0.5-0.3
			C29.3,11,29.5,10.9,29.6,10.8z"/>
		
			<linearGradient id="SVGID_00000136406215662197530990000016110951543503315588_" gradientUnits="userSpaceOnUse" x1="2.2823" y1="84.2485" x2="56.6562" y2="8.2305" gradientTransform="matrix(1 0 0 -1 0 92)">
			<stop  offset="0" style="stop-color:#F34B2C"/>
			<stop  offset="1" style="stop-color:#D5CE47"/>
		</linearGradient>
		<path style="fill:url(#SVGID_00000136406215662197530990000016110951543503315588_);" d="M58.1,85c-1.1,0.3-2.5,0.6-2.7,0.7
			c-0.1,0,0.5-0.1,1.2-0.2l0.3-0.1c0.1,0,0.2,0,0.3-0.1c0.2,0,0.4-0.1,0.5-0.1c0.4-0.1,0.7-0.2,1-0.3c0.6-0.2,1-0.4,1.2-0.4
			c0.1,0-0.1,0-0.4,0.1c-0.2,0-0.4,0.1-0.6,0.2C58.7,84.9,58.4,85,58.1,85z"/>
		
			<linearGradient id="SVGID_00000096781528552517624620000017041687665559572389_" gradientUnits="userSpaceOnUse" x1="46.2481" y1="115.6963" x2="100.622" y2="39.6783" gradientTransform="matrix(1 0 0 -1 0 92)">
			<stop  offset="0" style="stop-color:#F34B2C"/>
			<stop  offset="1" style="stop-color:#D5CE47"/>
		</linearGradient>
		<path style="fill:url(#SVGID_00000096781528552517624620000017041687665559572389_);" d="M82.1,26.1c-0.2-0.4-0.3-0.6-0.4-0.8
			c-0.1-0.2-0.2-0.3-0.2-0.3c-0.1-0.1,0,0-0.1,0c0,0.1,0,0,0,0.1c0,0,0,0.1,0.1,0.3c0.1,0.1,0.2,0.3,0.3,0.6
			c0.1,0.3,0.3,0.5,0.4,0.8c0.1,0.1,0.1,0.2,0.2,0.4c0.1,0.1,0.1,0.2,0.2,0.3c0.6,1.1,0.1,0,0.1-0.1C82.7,27.4,82.6,27.1,82.1,26.1z
			"/>
		
			<linearGradient id="SVGID_00000015347215982772093350000004378950301744659643_" gradientUnits="userSpaceOnUse" x1="22.7333" y1="98.8766" x2="77.1073" y2="22.8587" gradientTransform="matrix(1 0 0 -1 0 92)">
			<stop  offset="0" style="stop-color:#F34B2C"/>
			<stop  offset="1" style="stop-color:#D5CE47"/>
		</linearGradient>
		<path style="fill:url(#SVGID_00000015347215982772093350000004378950301744659643_);" d="M77.1,71c0.3-0.3,0.4-0.4,0.7-0.7
			c0.3-0.3,0.6-0.7,1.2-1.5c0.1-0.1,0.2-0.2,0.2-0.4c0-0.1,0.1-0.1,0.1-0.1v-0.1c0,0-0.1,0.1-0.4,0.4c-0.2,0.3-0.5,0.6-0.9,1
			c-0.1,0.1-0.2,0.3-0.4,0.4c-0.1,0.1-0.1,0.2-0.2,0.2c-0.1,0.1-0.1,0.2-0.2,0.2c-0.3,0.3-0.6,0.7-1.1,1.2
			C76.2,71.9,76.8,71.3,77.1,71z"/>
		
			<linearGradient id="SVGID_00000115479244779141836580000014675358688447772041_" gradientUnits="userSpaceOnUse" x1="-10.128" y1="75.3717" x2="44.246" y2="-0.6462" gradientTransform="matrix(1 0 0 -1 0 92)">
			<stop  offset="0" style="stop-color:#F34B2C"/>
			<stop  offset="1" style="stop-color:#D5CE47"/>
		</linearGradient>
		<path style="fill:url(#SVGID_00000115479244779141836580000014675358688447772041_);" d="M9.2,43.6c0,1,0,1.9,0,1.9s0-0.2,0.1-0.6
			c0-0.1,0-0.2,0-0.3s0-0.3,0-0.4c0-0.3,0-0.6,0-0.9c0-0.1,0-0.3,0-0.4c0-0.1,0-0.2,0-0.3c0-0.2,0-0.4,0-0.5c0-0.2,0-0.3,0-0.3
			s-0.1,0.1-0.1,0.4c0,0.2,0,0.4-0.1,0.6C9.2,43,9.2,43.3,9.2,43.6z"/>
		
			<linearGradient id="SVGID_00000102521502210703287630000007847821513801427344_" gradientUnits="userSpaceOnUse" x1="-2.6731" y1="80.704" x2="51.7009" y2="4.6861" gradientTransform="matrix(1 0 0 -1 0 92)">
			<stop  offset="0" style="stop-color:#F34B2C"/>
			<stop  offset="1" style="stop-color:#D5CE47"/>
		</linearGradient>
		<path style="fill:url(#SVGID_00000102521502210703287630000007847821513801427344_);" d="M11.9,31.2c-0.1,0.3-0.2,0.6-0.3,0.9
			c-0.1,0.3-0.1,0.5-0.2,0.6c-0.1,0.3-0.1,0.5-0.1,0.5s0.1-0.1,0.2-0.4c0.1-0.3,0.2-0.7,0.5-1.3c0.2-0.6,0.4-0.9,0.4-1.2
			c0.1-0.2,0.1-0.3,0.1-0.3s-0.1,0-0.2,0.2C12.3,30.4,12.1,30.7,11.9,31.2z"/>
		
			<linearGradient id="SVGID_00000143580822911073415780000002282409971540437163_" gradientUnits="userSpaceOnUse" x1="-14.0939" y1="72.5349" x2="40.2801" y2="-3.483" gradientTransform="matrix(1 0 0 -1 0 92)">
			<stop  offset="0" style="stop-color:#F34B2C"/>
			<stop  offset="1" style="stop-color:#D5CE47"/>
		</linearGradient>
		<path style="fill:url(#SVGID_00000143580822911073415780000002282409971540437163_);" d="M8.9,52.7c-0.1-0.6-0.2-1.1-0.3-1.7
			c0-0.3-0.1-0.6-0.1-0.9c0-0.3-0.1-0.6-0.1-0.9c0,0.5,0,1,0.1,1.5c0,0.2,0.1,0.4,0.1,0.7s0.1,0.6,0.2,0.9c0.1,0.7,0.2,1,0.3,1.1
			C9.1,53.6,9.1,53.3,8.9,52.7z"/>
		
			<linearGradient id="SVGID_00000047773589712938139990000001215040201371875751_" gradientUnits="userSpaceOnUse" x1="-15.7619" y1="71.3419" x2="38.612" y2="-4.676" gradientTransform="matrix(1 0 0 -1 0 92)">
			<stop  offset="0" style="stop-color:#F34B2C"/>
			<stop  offset="1" style="stop-color:#D5CE47"/>
		</linearGradient>
		<path style="fill:url(#SVGID_00000047773589712938139990000001215040201371875751_);" d="M22.9,74.7c0.8,0.6,1.5,1.2,1.5,1.1
			c0,0-0.2-0.2-0.6-0.5c-0.2-0.1-0.4-0.3-0.6-0.5c-0.1-0.1-0.2-0.2-0.4-0.3c-0.1-0.1-0.3-0.2-0.4-0.3c-0.8-0.7-1.1-1-1.2-1
			c0,0,0.2,0.2,0.5,0.5c0.1,0.1,0.3,0.3,0.5,0.5c0.1,0.1,0.2,0.2,0.3,0.3c0.1,0,0.1,0.1,0.2,0.1C22.7,74.6,22.8,74.7,22.9,74.7z"/>
		
			<linearGradient id="SVGID_00000092424393216609496950000017131276141382109357_" gradientUnits="userSpaceOnUse" x1="2.6698" y1="84.5257" x2="57.0438" y2="8.5077" gradientTransform="matrix(1 0 0 -1 0 92)">
			<stop  offset="0" style="stop-color:#F34B2C"/>
			<stop  offset="1" style="stop-color:#D5CE47"/>
		</linearGradient>
		<path style="fill:url(#SVGID_00000092424393216609496950000017131276141382109357_);" d="M59.6,83.5c-0.4,0.1-0.8,0.2-1.1,0.4
			c-0.4,0.1-0.8,0.2-1.2,0.3c-0.2,0.1-0.4,0.1-0.6,0.2c-0.2,0-0.4,0.1-0.7,0.1c-0.2,0.1-0.5,0.1-0.7,0.2s-0.5,0.1-0.7,0.2
			c0.2,0,0.5-0.1,0.7-0.1s0.5-0.1,0.7-0.1s0.4-0.1,0.7-0.1c0.2,0,0.4-0.1,0.7-0.2c0.4-0.1,0.9-0.2,1.3-0.3c0.4-0.1,0.9-0.3,1.3-0.4
			c0.3-0.1,0.6-0.2,0.6-0.2s-0.1,0-0.2,0.1C60.1,83.3,59.9,83.4,59.6,83.5z"/>
		
			<linearGradient id="SVGID_00000116921013522642762320000002119965486715182226_" gradientUnits="userSpaceOnUse" x1="-12.471" y1="73.6958" x2="41.903" y2="-2.3221" gradientTransform="matrix(1 0 0 -1 0 92)">
			<stop  offset="0" style="stop-color:#F34B2C"/>
			<stop  offset="1" style="stop-color:#D5CE47"/>
		</linearGradient>
		<path style="fill:url(#SVGID_00000116921013522642762320000002119965486715182226_);" d="M34.2,81.6c0.9,0.3,1.2,0.4,0.9,0.2
			c-0.1,0-0.3-0.1-0.6-0.2C34.4,81.6,34.2,81.5,34.2,81.6c-0.2-0.2-0.4-0.2-0.5-0.2c-0.4-0.1-0.8-0.3-1.3-0.5
			c-0.4-0.2-0.9-0.4-1.3-0.6s-0.8-0.4-1.2-0.5c-0.3-0.2-0.6-0.3-0.7-0.3c0.4,0.2,0.8,0.4,1.2,0.6l0.2,0.1l0.2,0.1
			c0.1,0,0.2,0.1,0.3,0.1c0.2,0.1,0.4,0.2,0.6,0.3l0.6,0.3c0.2,0.1,0.4,0.2,0.6,0.2C33.3,81.2,33.7,81.4,34.2,81.6z"/>
		
			<linearGradient id="SVGID_00000137132523972259472910000007217640971355315369_" gradientUnits="userSpaceOnUse" x1="29.15" y1="12.6" x2="29.15" y2="12.6" gradientTransform="matrix(1 0 0 -1 0 92)">
			<stop  offset="0" style="stop-color:#F34B2C"/>
			<stop  offset="1" style="stop-color:#D5CE47"/>
		</linearGradient>
		<path style="fill:url(#SVGID_00000137132523972259472910000007217640971355315369_);" d="M29.2,79.4L29.2,79.4L29.2,79.4
			L29.2,79.4L29.2,79.4L29.2,79.4z"/>
		
			<linearGradient id="SVGID_00000057126173787967885820000001621933450031717279_" gradientUnits="userSpaceOnUse" x1="-8.6441" y1="76.433" x2="45.7298" y2="0.4151" gradientTransform="matrix(1 0 0 -1 0 92)">
			<stop  offset="0" style="stop-color:#F34B2C"/>
			<stop  offset="1" style="stop-color:#D5CE47"/>
		</linearGradient>
		<path style="fill:url(#SVGID_00000057126173787967885820000001621933450031717279_);" d="M42.9,87.2c1,0.1,1.5,0.1,1.3,0.1
			c-0.1,0-0.2-0.1-0.5-0.1S43,87.1,42.4,87c-1-0.1-1.3-0.1-1.5-0.1C41.2,87,41.7,87.1,42.9,87.2z"/>
		
			<linearGradient id="SVGID_00000169522937228149347630000005769912331782132642_" gradientUnits="userSpaceOnUse" x1="32.9626" y1="106.1934" x2="87.3366" y2="30.1755" gradientTransform="matrix(1 0 0 -1 0 92)">
			<stop  offset="0" style="stop-color:#F34B2C"/>
			<stop  offset="1" style="stop-color:#D5CE47"/>
		</linearGradient>
		<path style="fill:url(#SVGID_00000169522937228149347630000005769912331782132642_);" d="M84.7,58c0.1-0.4,0.3-0.9,0.4-1.3
			c0.1-0.2,0.1-0.3,0.1-0.5c0-0.1,0-0.2,0-0.2s-0.1,0.2-0.2,0.5s-0.3,0.8-0.4,1.2c-0.2,0.6-0.4,1.1-0.5,1.4
			c-0.1,0.4-0.2,0.6-0.2,0.6c0,0.1,0.1-0.1,0.2-0.4c0.1-0.2,0.2-0.4,0.3-0.6c0-0.1,0.1-0.3,0.2-0.4C84.6,58.3,84.6,58.1,84.7,58z"/>
		
			<linearGradient id="SVGID_00000007414526326581696010000006688907543150011830_" gradientUnits="userSpaceOnUse" x1="44.7926" y1="114.6551" x2="99.1665" y2="38.6372" gradientTransform="matrix(1 0 0 -1 0 92)">
			<stop  offset="0" style="stop-color:#F34B2C"/>
			<stop  offset="1" style="stop-color:#D5CE47"/>
		</linearGradient>
		<path style="fill:url(#SVGID_00000007414526326581696010000006688907543150011830_);" d="M71.9,14.9c-0.5-0.4-0.9-0.7-1.2-0.9
			c-0.3-0.2-0.5-0.3-0.4-0.2s0.3,0.2,0.6,0.5c0.3,0.3,0.7,0.6,1.2,1c0.8,0.7,1.3,1.1,1.3,1.1c-0.1-0.1-0.2-0.2-0.5-0.5
			c-0.1-0.1-0.3-0.2-0.4-0.4c-0.1-0.1-0.2-0.2-0.3-0.3C72.1,15.1,72,15,71.9,14.9z"/>
		
			<linearGradient id="SVGID_00000069393056974807394950000012952641807482617517_" gradientUnits="userSpaceOnUse" x1="46.8242" y1="116.1084" x2="101.1982" y2="40.0904" gradientTransform="matrix(1 0 0 -1 0 92)">
			<stop  offset="0" style="stop-color:#F34B2C"/>
			<stop  offset="1" style="stop-color:#D5CE47"/>
		</linearGradient>
		<path style="fill:url(#SVGID_00000069393056974807394950000012952641807482617517_);" d="M86.4,31.1c0.2,0.6,0.3,1,0.4,1.2
			c0.1,0.3,0.1,0.4,0.2,0.4c0,0,0-0.1-0.1-0.4c0-0.1-0.1-0.3-0.2-0.6c0-0.1,0-0.1-0.1-0.2c0-0.1,0-0.1-0.1-0.2s-0.1-0.3-0.2-0.5
			c-0.2-0.4-0.3-0.8-0.4-1c-0.1-0.3-0.2-0.4-0.2-0.4s0,0.1,0.1,0.4C86.1,30.2,86.2,30.6,86.4,31.1z"/>
		
			<linearGradient id="SVGID_00000053520519727049905010000003185603244417821063_" gradientUnits="userSpaceOnUse" x1="-15.6906" y1="71.3929" x2="38.6834" y2="-4.625" gradientTransform="matrix(1 0 0 -1 0 92)">
			<stop  offset="0" style="stop-color:#F34B2C"/>
			<stop  offset="1" style="stop-color:#D5CE47"/>
		</linearGradient>
		<path style="fill:url(#SVGID_00000053520519727049905010000003185603244417821063_);" d="M31.2,84.5c0.1,0-0.1-0.1-0.3-0.2
			c-0.3-0.1-0.7-0.3-1.2-0.6c-0.3-0.1-0.5-0.2-0.7-0.3c-0.2-0.1-0.4-0.2-0.6-0.3c-0.3-0.2-0.5-0.2-0.7-0.3c-0.2-0.1,0.3,0.2,1.2,0.7
			c0.7,0.3,1.2,0.5,1.6,0.7c0.2,0.1,0.3,0.1,0.5,0.2C31,84.5,31.1,84.5,31.2,84.5z"/>
		
			<linearGradient id="SVGID_00000083091340672717265400000011574521450275369868_" gradientUnits="userSpaceOnUse" x1="21.5131" y1="98.0039" x2="75.887" y2="21.986" gradientTransform="matrix(1 0 0 -1 0 92)">
			<stop  offset="0" style="stop-color:#F34B2C"/>
			<stop  offset="1" style="stop-color:#D5CE47"/>
		</linearGradient>
		<path style="fill:url(#SVGID_00000083091340672717265400000011574521450275369868_);" d="M29.3,4.3c0.9-0.4,1.2-0.5,1.3-0.6
			c0.2-0.1,0-0.1-1.3,0.4c-0.2,0.1-0.4,0.2-0.6,0.3c-0.2,0.1-0.4,0.2-0.6,0.3c-0.3,0.2-0.6,0.3-0.7,0.4c-0.2,0.1,0.1,0,0.5-0.2
			c0.2-0.1,0.4-0.2,0.7-0.3C28.8,4.6,29,4.4,29.3,4.3z"/>
		
			<linearGradient id="SVGID_00000024709044172190038780000002393411942423672201_" gradientUnits="userSpaceOnUse" x1="44.2617" y1="114.2754" x2="98.6356" y2="38.2574" gradientTransform="matrix(1 0 0 -1 0 92)">
			<stop  offset="0" style="stop-color:#F34B2C"/>
			<stop  offset="1" style="stop-color:#D5CE47"/>
		</linearGradient>
		<path style="fill:url(#SVGID_00000024709044172190038780000002393411942423672201_);" d="M63.5,4.5c0.2,0.1,0.5,0.2,0.7,0.3
			c0.2,0.1,0.3,0.1,0.5,0.2s0.4,0.1,0.3,0.1C64.9,5,64.4,4.7,63.5,4.5c-0.6-0.3-1-0.4-1.2-0.5c-0.3-0.1-0.4-0.1-0.4-0.1
			c0.1,0,0.2,0.1,0.5,0.2C62.7,4.2,63.1,4.3,63.5,4.5z"/>
		
			<linearGradient id="SVGID_00000037682706259596371330000018053100587147934615_" gradientUnits="userSpaceOnUse" x1="31.1641" y1="104.9071" x2="85.538" y2="28.8891" gradientTransform="matrix(1 0 0 -1 0 92)">
			<stop  offset="0" style="stop-color:#F34B2C"/>
			<stop  offset="1" style="stop-color:#D5CE47"/>
		</linearGradient>
		<path style="fill:url(#SVGID_00000037682706259596371330000018053100587147934615_);" d="M41.3,1.4c0.9-0.1,1.5-0.2,1.7-0.2
			c0.3-0.1-0.3,0-1.5,0.1c-0.8,0.1-1.5,0.2-1.6,0.3C39.5,1.6,40.2,1.5,41.3,1.4z"/>
		
			<linearGradient id="SVGID_00000101795421238733382100000001088717127141551751_" gradientUnits="userSpaceOnUse" x1="5.8503" y1="86.8007" x2="60.2243" y2="10.7827" gradientTransform="matrix(1 0 0 -1 0 92)">
			<stop  offset="0" style="stop-color:#F34B2C"/>
			<stop  offset="1" style="stop-color:#D5CE47"/>
		</linearGradient>
		<path style="fill:url(#SVGID_00000101795421238733382100000001088717127141551751_);" d="M59.2,82.5c0,0,0.1,0,0.3-0.1
			c0.1,0,0.2-0.1,0.4-0.1c0.1,0,0.1,0,0.2-0.1c0.1,0,0.2-0.1,0.2-0.1c0.7-0.2,1.2-0.5,1.6-0.6c0.3-0.2,0.5-0.2,0.4-0.2
			c0,0-0.2,0.1-0.4,0.2s-0.6,0.2-0.9,0.3c-0.3,0.1-0.5,0.2-0.7,0.3c-0.1,0-0.1,0-0.2,0.1c-0.1,0-0.1,0-0.1,0c-0.1,0-0.2,0.1-0.3,0.1
			C59.3,82.4,59.2,82.4,59.2,82.5z"/>
		
			<linearGradient id="SVGID_00000103986433831567832210000007698684085028415124_" gradientUnits="userSpaceOnUse" x1="14.5395" y1="93.0158" x2="68.9134" y2="16.9978" gradientTransform="matrix(1 0 0 -1 0 92)">
			<stop  offset="0" style="stop-color:#F34B2C"/>
			<stop  offset="1" style="stop-color:#D5CE47"/>
		</linearGradient>
		<path style="fill:url(#SVGID_00000103986433831567832210000007698684085028415124_);" d="M79.6,22.2c-0.3-0.3,0.1,0.3-1.1-1.2
			c-1.6-1.9-3.3-3.7-5.1-5.3c-0.2-0.2-0.4-0.4-0.6-0.6c-0.1-0.1-0.2-0.2-0.3-0.3c-0.1-0.1-0.2-0.2-0.3-0.3c-0.4-0.4-0.8-0.7-1.3-1
			c-0.4-0.3-0.8-0.6-1.2-0.9c-0.1-0.1-0.2-0.1-0.3-0.2c-0.1-0.1-0.2-0.1-0.3-0.2c-0.2-0.1-0.4-0.3-0.5-0.4c-0.2-0.1-0.3-0.2-0.5-0.3
			s-0.3-0.2-0.5-0.3c-0.3-0.2-0.7-0.4-1-0.6c-0.3-0.2-0.6-0.4-0.8-0.5c-0.2-0.1-0.3-0.2-0.4-0.2c-0.1-0.1,0.1,0,0.5,0.2
			c1.1,0.5,1.6,0.8,1.6,0.8s-0.2-0.2-0.6-0.4c-0.2-0.1-0.4-0.2-0.7-0.4c-0.3-0.2-0.6-0.3-1-0.5H65c0,0-0.2,0-0.6-0.2
			c-0.2-0.1-0.5-0.2-0.8-0.4c-0.4-0.2-0.8-0.4-1.3-0.6c-0.3-0.2-0.7-0.4-1-0.5c-0.2-0.1-0.3-0.1-0.5-0.2c-0.1-0.1-0.3-0.1-0.4-0.1
			c-0.5-0.2-0.8-0.3-1-0.4C59,7.1,59.1,7,59.2,7c-1.9-0.6-1.8-0.6-1.4-0.5l-0.5-0.2l-0.5-0.1c-1.3-0.3-1.5-0.3-0.8,0
			c0.4,0.1,0.5,0.2-0.4,0c-0.1,0-0.2,0-0.3-0.1c-0.1,0-0.2,0-0.3,0c-0.2,0-0.3-0.1-0.5-0.1c-0.3-0.1-0.5-0.1-0.7-0.2
			c-0.1,0-0.2-0.1-0.4-0.1c-0.1,0-0.3,0-0.4-0.1c-0.3,0-0.5-0.1-0.8-0.1c-0.1,0-0.3,0-0.4,0c-0.1,0-0.2,0-0.3,0s-0.2,0-0.3,0
			c-0.2,0-0.6,0-0.9,0c-0.2,0-0.4,0-0.6,0c-0.2,0-0.5,0-0.8,0c-0.7,0-1,0-1.1,0h-0.1c0,0-0.2,0.1-1.1,0.1c-0.2,0-0.5,0-0.8,0
			s-0.6,0-0.8,0c-0.5,0-1,0.1-1,0.1s-0.3,0.1-0.2,0.1s0.5,0,1.7,0c0.1,0,0.3,0,0.4,0c0.1,0,0.3,0,0.4,0c0.3,0,0.5,0,0.7,0
			c0.4,0,0.7,0,0.4,0.1c-0.2,0-0.5,0-0.9,0c-0.3,0-0.7,0-1.1,0c-0.3,0-0.6,0-0.9,0c-0.3,0-0.6,0-0.9,0.1c-0.3,0-0.6,0-0.9,0
			c-0.3,0-0.6,0.1-0.9,0.1c-1.3,0.2-2.6,0.4-4,0.8l-0.7,0.2l-0.3,0.1c-0.1,0-0.2,0.1-0.3,0.1c-0.4,0.2-1,0.4-1.7,0.6
			c-0.3,0.1-0.7,0.3-1.1,0.4c-0.2,0.1-0.4,0.1-0.6,0.2c-0.2,0.1-0.4,0.1-0.6,0.2c-0.6,0.2-0.4,0.1,0.1-0.1c0.1-0.1-0.5,0.1-1.1,0.4
			c-0.1,0-0.3,0.1-0.4,0.1c-0.1,0.1-0.2,0.1-0.3,0.1c-0.2,0.1-0.3,0.2-0.5,0.2C30.1,9.5,30,9.5,30,9.5s0.2-0.2,0-0.1
			c0.1-0.1,0.3-0.1,0.5-0.3c0.2-0.1,0.4-0.2,0.6-0.4c0.3-0.1,0.7-0.3,1-0.4c0.3-0.1,0.7-0.3,1.1-0.4C32.8,8,32.5,8.2,32,8.3l-1,0.4
			c-0.2,0-0.2,0-0.7,0.2c0.5-0.2,0.5-0.2,0.7-0.2c-0.2,0.1-0.4,0.2-0.6,0.4c-0.2,0.1-0.4,0.2-0.5,0.3l-0.4,0.2
			c-0.1,0-0.1,0.1-0.2,0.1l-0.3,0.2l-0.9,0.5c-0.1,0.1,0,0.1-0.4,0.3c-0.2,0.1-0.3,0.2-0.5,0.3s-0.4,0.2-0.5,0.3
			c-0.4,0.2-0.7,0.4-0.9,0.5c-0.2,0.1-0.5,0.3-0.9,0.5c-0.2,0.1-0.4,0.3-0.6,0.4c-0.2,0.2-0.5,0.4-0.8,0.6c-0.2,0.1-0.5,0.4-0.7,0.5
			c-0.1,0.1-0.2,0.2-0.3,0.3c-0.1,0.1-0.2,0.2-0.4,0.3c-0.2,0.2-0.5,0.4-0.7,0.6c-0.2,0.2-0.4,0.4-0.6,0.5c-0.2,0.2-0.3,0.3-0.3,0.3
			c-0.2,0.3-0.1,0.3,0.6-0.3c0.1-0.1,0.1-0.1,0.2-0.2c0.1-0.1,0.1-0.1,0.2-0.2c0.1-0.1,0.3-0.2,0.4-0.3c0.3-0.2,0.6-0.5,0.9-0.7
			s0.6-0.5,0.9-0.7s0.6-0.5,0.9-0.7c0.2-0.2,0.3-0.3,1.1-0.8c0.2-0.1,0.3-0.2,0.4-0.2c0.1-0.1,0.2-0.1,0.3-0.2
			c0.1-0.1,0.2-0.1,0.3-0.1c0.1,0,0,0,0,0c0.3-0.2,0.6-0.3,0.8-0.5c0.2-0.1,0.4-0.2,0.5-0.2c0.2-0.1,0.2-0.1,0.1,0.1
			c0.2-0.1,0.4-0.2,0.5-0.2s0.1,0,0,0.1s-0.2,0.1-0.4,0.3c-0.1,0.1-0.2,0.1-0.4,0.2c-0.1,0.1-0.3,0.2-0.4,0.3
			c-1.3,0.8-1.4,0.8-1,0.5c0.1-0.1,0.4-0.3,0.6-0.4c-0.3,0.2-0.8,0.4-1,0.5c-0.3,0.2-0.6,0.3-0.9,0.5c-0.1,0.1-0.3,0.2-0.4,0.3
			s-0.3,0.2-0.4,0.3c-0.3,0.2-0.6,0.4-0.9,0.7c-0.1,0.1-0.3,0.2-0.5,0.4c-0.2,0.1-0.3,0.3-0.4,0.4c-0.3,0.3-0.6,0.6-1,0.9
			c-0.4,0.3-0.8,0.7-1.2,1.1c-0.2,0.2-0.3,0.3-0.5,0.5c0.3-0.3,0,0.1-0.4,0.6c0,0-0.1,0.2-0.3,0.4c-0.1,0.1-0.2,0.3-0.4,0.4
			c-0.2,0.2-0.3,0.4-0.5,0.6s-0.4,0.5-0.6,0.7l0.6-0.7c0.1-0.1,0.2-0.1,0.3-0.2c0.1-0.1,0.2-0.2,0.3-0.3c0.1-0.1,0.2-0.2,0.3-0.3
			c0.2-0.2,0.3-0.3,0.5-0.5c0.3-0.3,0.5-0.5,0.7-0.7c0.8-0.8,1.7-1.5,1.8-1.5c0,0-0.2,0.2-0.5,0.5c-0.3,0.3-0.8,0.7-1.1,1.1
			c-0.3,0.4-0.9,1-1.3,1.4c-0.2,0.2-0.3,0.4-0.3,0.4s0.1-0.1,0.4-0.3c0.3-0.3,1.3-1.2,0.1,0.1c-1.5,1.7-1.4,1.5-1.5,1.5
			c-0.7,0.8-1.1,1.3-1.1,1.3c-0.2,0.2-0.3,0.4-0.4,0.5c-0.1,0.2-0.2,0.3-0.3,0.4c-0.2,0.3-0.4,0.5-0.5,0.6s-0.2,0.2-0.3,0.3
			c-0.1,0.1-0.1,0.1-0.1,0.1c-0.3,0.4-0.5,0.8-0.8,1.2c-0.1,0.1-0.1,0.2-0.2,0.3c-0.1,0.1-0.1,0.2-0.2,0.3c-0.1,0.2-0.3,0.5-0.4,0.7
			c-0.1,0.2-0.2,0.4-0.2,0.5s-0.1,0.2-0.1,0.3c-0.1,0.2-0.2,0.4-0.4,0.9c-0.1,0.2-0.2,0.4-0.2,0.5c-0.1,0.2-0.1,0.3-0.2,0.5
			c-0.1,0.3-0.3,0.7-0.5,1C12,29.9,12,30,11.9,30.1c0,0.1-0.1,0.2-0.1,0.3c-0.3,0.7-0.5,1.1-0.4,0.9c0-0.1,0.1-0.3,0.3-0.7
			c0.1-0.4,0.4-0.9,0.7-1.6l0,0c0.1-0.3,0.3-0.6,0.4-0.9c0,0,0,0,0-0.1v0.1c-0.2,0.3-0.3,0.6-0.4,0.9c-0.1,0.3-0.3,0.5-0.4,0.8
			c-0.1,0.1-0.1,0.3-0.2,0.4c-0.1,0.1-0.1,0.3-0.2,0.4c-0.2,0.5-0.4,1-0.6,1.5c-0.2,0.5-0.3,0.9-0.4,1.4c0,0.1-0.1,0.2-0.1,0.3
			s-0.1,0.2-0.1,0.3c-0.1,0.2-0.1,0.4-0.1,0.6c-0.1,0.3-0.1,0.6-0.2,1c-0.1,0.4-0.2,0.8-0.3,1.5c-0.1,0.3-0.1,0.5-0.2,0.8
			c-0.1,0.2-0.1,0.4-0.1,0.6c-0.1,0.3-0.1,0.3,0-0.1c0-2.5-0.4-0.6-0.5-0.7C8.8,38.6,8.7,39,8.7,39s0-0.5,0.2-1.5
			C9,37.1,9,37,8.9,37c0,0,0,0,0-0.1c-0.1,0.7-0.2,0.7-0.2,0.6c0,0.1-0.1,0.3-0.1,0.5c-0.1,0.4-0.2,0.8-0.2,1s-0.1,0.3-0.1,0.1
			s0-0.4,0-0.5s0-0.1,0-0.1s-0.1,0.1-0.2,0.1v-0.2c0,0.1,0,0.1,0,0.2c-0.2,1.1-0.3,2.1-0.4,3.2c0,0.2,0,0.3,0,0.5s0,0.3,0,0.5
			c0,0.3,0,0.7,0,1.1c0,0.2,0,0.4,0,0.5c0,0.2,0,0.4,0,0.6c0,0.4,0,0.7,0,1.1c0,0.1,0,0.3,0,0.4c0,0.2,0,0.3,0,0.5
			c0,0.3,0.1,0.7,0.1,1c0,0.1,0,0.2,0,0.3s0,0.2,0,0.3c0,0.2,0,0.4,0.1,0.6c0,0.2,0,0.5,0.1,0.7c0,0.1,0,0.2,0,0.4
			c0,0.1,0,0.3,0.1,0.4c0.1,0.4,0.1,0.8,0.2,1.2c0,0.1,0,0.2,0,0.3s0,0.2,0.1,0.3c0,0.2,0.1,0.4,0.1,0.5c0.1,0.4,0.2,0.7,0.2,1.1
			c0.1,0.3,0.2,0.7,0.3,1.1c0,0,0.1,0,0-0.5c-0.2-0.6-0.3-1.2-0.4-1.8c-0.1-0.3-0.1-0.5-0.1-0.7s0-0.3,0-0.3s0,0.1,0,0.2v0.1
			c0,0.1,0,0.1,0,0.2c0.1,0.3,0.1,0.6,0.2,0.9c0.1,0.4,0.2,0.8,0.3,1.2c0,0.2,0.1,0.4,0.1,0.6C9,54.7,8.9,54.3,8.8,54
			s-0.1-0.5,0-0.4c0.1,0.3,0.2,0.7,0.3,1.2s0.2,1,0.4,1.5l0.1,0.2c-0.1-0.6-0.1-0.9-0.1-0.7c0,0.1,0.1,0.3,0.3,0.7
			c0.1,0.2,0.1,0.4,0.2,0.7c0,0.1,0.1,0.3,0.1,0.4c0.1,0.1,0.1,0.3,0.2,0.5c0.4,0.8,0.4,0.9,1.8,3.9c0.1,0.2,0.3,0.5,0.4,0.8
			c0.2,0.3,0.4,0.7,0.6,1c-0.1-0.4-0.2-0.5,0.5,0.6l0.7,0.9c-0.1-0.2-0.4-0.8,0.2,0.2c0.1,0.1,0.2,0.2,0.2,0.4
			c0.1,0.1,0.1,0.2,0.2,0.3c0.1,0.2,0.2,0.3,0.3,0.4c0.1,0.2,0.2,0.3,0.2,0.4c0.1,0.2,0.3,0.4,0.4,0.6c0.1,0.2,0.3,0.4,0.4,0.6
			c0.1,0.2,0.3,0.4,0.4,0.6s0.3,0.4,0.4,0.5c0.5,0.6,0.9,1.1,1,1.3c0.3,0.3,0.5,0.6,0.8,0.9s0.5,0.5,0.6,0.7
			c0.1,0.1,0.2,0.2,0.2,0.2s-0.1-0.1-0.2-0.2c-0.2-0.1-0.4-0.4-0.6-0.7c-0.2-0.2-0.4-0.4-0.6-0.6c1.3,1.4,1.3,1.5,0.3,0.5l0.7,0.8
			c0.4,0.4,0.8,0.8,1.2,1.2c0.1,0.1,0.2,0.2,0.3,0.2c0.1,0.1,0.2,0.2,0.3,0.2c0.2,0.2,0.4,0.3,0.6,0.5c0.4,0.3,0.7,0.6,1,0.9
			c0.2,0.2,0.1,0.2,0.1,0.1c-0.3-0.1-0.3,0,0.2,0.5c0.1,0.1,0.3,0.3,0.5,0.4c0.1,0.1,0.2,0.2,0.3,0.3c0.1,0.1,0.2,0.2,0.4,0.3
			c0.5,0.4,1.2,0.9,2,1.5c0.5,0.3,0.7,0.5,0.9,0.6c0.2,0.1,0.2,0.1,0,0.1l0.4,0.3c0.3,0.2,0.6,0.4,0.9,0.6c0.2,0.1,0.3,0.2,0.5,0.3
			c0.2,0.1,0.3,0.2,0.5,0.3c0.3,0.2,0.7,0.3,1,0.5c0.4,0.2,0.7,0.3,1.1,0.5c0.2,0.1,0.5,0.2,0.6,0.2c0.2,0.1,0.3,0.1,0.3,0
			c-0.3-0.1-0.4-0.2-0.4-0.2s0,0,0.1,0c0.2,0.1,0.8,0.3,1.4,0.5l0.5,0.2c0.2,0.1,0.3,0.1,0.5,0.1l0.9,0.3c0.1,0,0.2,0,0.4,0h0.2
			c0.1,0,0.1,0,0.2,0c0.3,0,0.4,0,0.4-0.1c0,0,0.2,0,1,0.2c0.1,0,0.2,0.1,0.3,0.1s0.2,0,0.3,0.1c0.2,0,0.4,0.1,0.5,0.1
			c0.3,0.1,0.6,0.2,0.8,0.2c0.2,0.1,0.3,0.1,0.5,0.1s0.4,0.1,0.7,0.1c0.2,0,0.5,0.1,0.8,0.2c0.3,0,0.6,0.1,0.9,0.1
			c-0.4-0.1-0.1-0.1,0.9,0c0.1,0,0.2,0,0.4,0c0.1,0,0.3,0,0.4,0c0.3,0,0.6,0,0.9,0.1c0.2,0,0.3,0,0.5,0s0.3,0,0.5,0c0.3,0,0.7,0,1,0
			c0.4,0,0.6,0,0.8,0s0.3,0,0.3,0s-0.2,0.1-0.6,0.1c-0.1,0-0.3,0-0.4,0c-0.2,0-0.3,0-0.5,0c-0.3,0-0.7,0-1.1,0
			c-0.4,0-0.8-0.1-1.2-0.1c-0.2,0-0.4,0-0.6,0c-0.2,0-0.4,0-0.6-0.1c0.2,0-0.3,0-0.8-0.1l0.8,0.1l-0.8-0.1c-0.1,0-0.3,0-0.4,0
			c-0.2,0-0.3-0.1-0.5-0.1c-0.4-0.1-0.8-0.1-1.2-0.2H40c-0.1,0-0.1,0-0.1,0c0.8,0.2,1,0.3,0.6,0.4l0.9,0.2l0.4,0.1
			c0.1,0,0.3,0,0.4,0.1c0.3,0,0.8,0.1,1.3,0.1c0.2,0,0.5,0,0.7,0.1c0.2,0,0.4,0,0.5,0.1c0.2,0,0.3,0,0.5,0.1c0.1,0,0.2,0,0.3,0
			s0.2,0,0.3,0c0.4,0,0.8,0,1.3,0.1c0.2,0,0.4,0,0.6,0c0.2,0,0.4,0,0.6,0c0.4,0,0.7,0,0.9,0c0.3,0,0.6,0,0.9,0c0.5,0,1-0.1,1.4-0.1
			s0.8-0.1,1.1-0.1s0.6-0.1,0.8-0.1s0.3,0,0.4,0c0.2,0,0.1,0,0.1,0l0,0l0.9-0.1l0.5-0.1l0.5-0.1c0.5-0.1,1-0.2,1.5-0.3l1.5-0.4
			c0.3-0.1,0.6-0.2,0.8-0.3c0.2-0.1,0.5-0.1,0.6-0.2c0.4-0.1,0.7-0.2,0.8-0.3c0.4-0.1,0.5-0.1,0.5-0.1c0.7-0.2,1-0.3,1.2-0.4
			c0.3-0.1,0.5-0.2,0.8-0.3c0.4-0.2,0.7-0.3,1-0.4c0.2-0.1,0.3-0.1,0.3-0.1s-0.1,0-0.2,0.1c-0.2,0.1-0.4,0.2-0.8,0.4
			c-0.3,0.2-0.7,0.3-0.9,0.4c-0.3,0.1-0.5,0.2-0.8,0.3c-0.5,0.2-0.8,0.3-1.1,0.4c-0.6,0.2-0.8,0.2-1.1,0.3l-0.7,0.2
			c-0.2,0.1-0.5,0.1-0.7,0.2l-1.4,0.4c-0.2,0.1-0.5,0.1-0.7,0.2c-0.3,0.1-0.7,0.2-1,0.2c-0.3,0.1-0.6,0.2-0.9,0.2
			c-0.6,0.1-1.1,0.2-1.6,0.3C52.4,84.9,52,85,51.6,85c-0.4,0.1-0.7,0.1-1,0.2c0.1,0,0.2,0,0.3,0s0.2,0,0.3,0c0.2,0,0.4,0,0.6,0
			c0.4,0,1-0.1,1.8-0.2c0.5-0.1,0.9-0.1,1.3-0.2c0.3-0.1,0.6-0.1,0.8-0.1c0.4-0.1,0.5-0.1,0.4,0c-0.1,0-0.3,0.1-0.6,0.2
			c-0.1,0-0.2,0.1-0.3,0.1s-0.3,0.1-0.4,0.1c-0.3,0.1-0.7,0.1-1.3,0.2c-0.2,0-0.4,0.1-0.6,0.1c-0.2,0-0.3,0-0.4,0
			c-0.2,0-0.4,0-0.5,0c-0.2,0-0.2,0-0.1-0.1c0.1,0-0.2,0-0.8,0c-0.5,0-1.1,0-1.5,0c-0.5,0-1,0-1.4,0.1c-0.2,0-0.5,0-0.7,0
			c-0.1,0-0.2,0-0.3,0s-0.2,0-0.3,0c-0.4,0-1.5,0-1.6,0s-0.5-0.1-1-0.2c-0.3,0-0.6-0.1-0.9-0.1c-0.3,0-0.7-0.1-1-0.2
			c-0.2,0-0.4-0.1-0.6-0.1c-0.2,0-0.4-0.1-0.6-0.1c-0.4-0.1-0.8-0.2-1.2-0.2c-0.2,0-0.4-0.1-0.6-0.1c-0.2,0-0.4-0.1-0.5-0.1
			c-0.4-0.1-0.7-0.2-1-0.3c-0.3-0.1-0.6-0.2-0.9-0.2c-0.3-0.1-0.6-0.2-0.9-0.3c-0.1,0-0.3-0.1-0.4-0.1c-0.1,0-0.3-0.1-0.4-0.1
			c-0.3-0.1-0.6-0.2-0.8-0.3c-0.3-0.1-0.2,0-0.3,0.1c0,0,0,0-0.2,0c-0.1,0-0.4-0.1-0.8-0.2V83c-0.1,0-0.1,0,0.2,0.2
			c0.1,0,0.2,0.1,0.3,0.1c0.1,0.1,0.3,0.1,0.5,0.2s0.5,0.2,0.7,0.3c0.3,0.1,0.6,0.2,1,0.3c-0.1-0.1,0-0.1,0.4,0
			c0.2,0,0.4,0.1,0.6,0.1c0.3,0.1,0.6,0.1,0.9,0.2c0.1,0,0.5,0.1,1.4,0.3c0.3,0.1,0.5,0.1,0.7,0.1s0.4,0.1,0.5,0.1
			c0.3,0.1,0.4,0.1,0.4,0.1c0.2,0,0.4,0.1,0.6,0.1l0.6,0.1c0.4,0.1,0.9,0.1,1.3,0.2c0.4,0,0.9,0.1,1.3,0.1c0.2,0,0.4,0,0.6,0.1
			c0.2,0,0.4,0,0.6,0c0.4,0,0.9,0,1.3,0.1c0.4,0,0.8,0,1.2,0c0.7,0,1.3,0,1.6,0s1.8,0-0.5,0.2c-2,0.1-3.5,0.1-5.3-0.1
			c-0.5-0.1-1-0.1-1.5-0.2c-0.3,0-0.5-0.1-0.8-0.1c-0.1,0-0.3,0-0.4-0.1c-0.1,0-0.3,0-0.4-0.1c-0.6-0.1-1.2-0.2-1.8-0.4
			c-0.3-0.1-0.7-0.2-1-0.3c-0.2,0-0.4-0.1-0.6-0.1c-0.1,0-0.2,0-0.3-0.1c-0.1,0-0.2-0.1-0.3-0.1c-0.3,0-0.8-0.2-1.6-0.4l-1.8-0.6
			c-0.6-0.2-1.2-0.4-1.7-0.7l0,0c0.6,0.2,1.2,0.5,1.7,0.7l1.8,0.6c0.4,0.1,0.4,0.2,0.2,0.2c0.1,0.1,0.4,0.1,0.7,0.2
			c0.2,0.1,0.4,0.1,0.5,0.2c0.1,0,0.2,0.1,0.3,0.1s0.2,0.1,0.3,0.1c0.8,0.2,1.4,0.4,1.2,0.4c0.1,0,0.2,0.1,0.4,0.1
			c1.2,0.3,2,0.4,0.2,0.2l0.1,0.1c0.6,0.1,0.7,0.1,0.5,0.1c0.5,0.2,0.6,0.2,0,0.1c-0.3,0-0.8-0.1-1.5-0.3c-0.4-0.1-0.8-0.2-1.3-0.3
			c-0.5-0.1-1-0.3-1.6-0.4c-0.1,0-0.3-0.1-0.4-0.1c-0.1,0-0.2,0-0.3-0.1c-0.2,0-0.3-0.1-0.5-0.1s-0.4-0.1-0.7-0.2
			c-0.1,0-0.3-0.1-0.5-0.2s-0.4-0.2-0.7-0.3c-0.3-0.1-0.5-0.2-0.8-0.3l-0.4-0.1c-0.1-0.1-0.3-0.1-0.4-0.2c-0.5-0.2-1-0.4-1.5-0.7
			c-0.5-0.3-1-0.5-1.5-0.8c-0.1-0.1-0.2-0.1-0.4-0.2c-0.1-0.1-0.2-0.1-0.3-0.2c-0.2-0.1-0.5-0.3-0.7-0.4c-0.4-0.2-0.7-0.4-0.8-0.5
			c-0.2-0.1-0.2-0.2-0.2-0.2s0.1,0,0.3,0.1c0.2,0.1,0.5,0.2,0.8,0.4c0.2,0.1,0.5,0.2,1.1,0.5c0.3,0.1,0.6,0.3,1,0.5
			c0.2,0.1,0.4,0.2,0.6,0.3c0.1,0.1,0.2,0.1,0.3,0.2c0.1,0.1,0.2,0.1,0.3,0.2l0.9,0.4c0.3,0.1,0.6,0.3,0.9,0.4c0,0,0,0,0.2,0
			c0-0.1-0.6-0.4,1.2,0.3l-0.1-0.1c-0.5-0.2-0.9-0.4-1.4-0.5c-0.4-0.2-0.9-0.4-1.3-0.6s-0.7-0.3-1-0.4s-0.5-0.2-0.6-0.3
			c-0.3-0.2-0.4-0.2-0.5-0.3c-0.1-0.1,0.2,0.1,0.2,0s0.2,0,0.6,0.2c0.2,0.1,0.5,0.2,0.8,0.4c0.3,0.1,0.7,0.3,1.1,0.5l0.6,0.2
			c0.2,0.1,0.4,0.1,0.6,0.2l-0.3-0.2c-0.6-0.2-1.1-0.5-1.7-0.7c-0.2-0.1-0.4-0.2-0.6-0.3c-0.2-0.1-0.3-0.2-0.4-0.2
			c-0.3-0.1-0.4-0.2-0.5-0.3c-0.2-0.1-0.1-0.1,0.2,0c1.3,0.6,1.5,0.6,3.3,1.3l-0.2-0.1l-0.2-0.1l-0.4-0.2l-0.8-0.4
			c-0.1-0.1-0.2-0.1-0.4-0.2c-0.1-0.1-0.2-0.1-0.3-0.2c-0.2-0.1-0.4-0.2-0.6-0.3c-0.4-0.2-0.7-0.3-1-0.5c-0.6-0.3-1-0.5-1.3-0.7
			c-0.2-0.1-0.3-0.2-0.5-0.3c-0.1-0.1-0.3-0.2-0.4-0.3c-0.3-0.2-0.6-0.4-0.9-0.7c-0.1-0.1-0.2-0.1-0.3-0.2c-0.1-0.1-0.2-0.2-0.4-0.3
			c-0.3-0.2-0.6-0.4-0.9-0.7c-0.1-0.1,0,0-0.1,0c0,0-0.2-0.1-0.8-0.6c0.4,0.4,0.2,0.3,0,0.2c-0.1-0.1-0.1,0,0.1,0.2
			c0.1,0.1,0.2,0.2,0.3,0.3c0.1,0.1,0.3,0.2,0.4,0.3c0.3,0.2,0.7,0.5,1.1,0.8s0.8,0.6,1.2,0.8c0.2,0.1,0.3,0.2,0.5,0.3
			c0.2,0.1,0.3,0.2,0.5,0.3c0.3,0.2,0.4,0.3,0.3,0.2c-0.1,0-0.3-0.1-0.6-0.3c-0.1,0-0.1-0.1-0.2-0.1s-0.2-0.1-0.2-0.1
			c-0.2-0.1-0.3-0.2-0.5-0.3c-0.3-0.2-0.7-0.4-1-0.7c-0.3-0.2-0.7-0.5-1-0.7c-0.7-0.5-1.2-0.9-1.7-1.4c-0.1-0.1-0.3-0.2-0.4-0.4
			c-0.2-0.1-0.3-0.3-0.5-0.4c-0.3-0.3-0.7-0.6-1.1-0.9c-0.5-0.5-0.9-0.8-1.2-1.1c-0.1-0.1-0.3-0.3-0.4-0.4s-0.2-0.2-0.2-0.3
			c-0.2-0.2-0.5-0.7-1-1.2c-0.1-0.1-0.1-0.1-0.2-0.2s-0.1-0.1-0.2-0.2s-0.3-0.3-0.4-0.5c-0.3-0.3-0.5-0.6-0.8-1
			c-0.2-0.2-0.4-0.5-0.5-0.7c0.2,0.2,0.4,0.4,0.5,0.6s0.3,0.3,0.5,0.6c-0.2-0.2-0.3-0.4-0.5-0.6c-0.1-0.2-0.3-0.3-0.5-0.6
			c0.2,0.2,0.3,0.5,0.5,0.7l-0.3-0.2c0.1,0.2,0.2,0.3,0.3,0.5c0.1,0.1,0.2,0.3,0.3,0.4c0.2,0.2,0.3,0.4,0.5,0.6
			c0.2,0.3,0.4,0.5,0.4,0.5c0.3,0.4,0.7,0.8,1.1,1.2c0.2,0.2,0.3,0.4,0.5,0.5c0.2,0.2,0.3,0.3,0.4,0.4c0.2,0.2,0.1,0.2-0.1,0
			c-0.1-0.1-0.3-0.3-0.5-0.5s-0.5-0.5-0.7-0.8c-1.1-1.1,0,0.2-0.2,0.2c0.1,0.2,0.3,0.4,0.6,0.7c0.1,0.2,0.3,0.3,0.5,0.5
			s0.3,0.4,0.5,0.5c0.2,0.2,0.5,0.4,0.7,0.7c0.4,0.3,0.9,0.8,1.4,1.2c0.2,0.2,0.4,0.4,0.6,0.5s0.2,0.2,0.3,0.2c0,0-0.1,0-0.2-0.1
			S21,76.6,21,76.5c-0.1,0-0.1-0.1-0.2-0.1s-0.1-0.1-0.2-0.1c-0.5-0.4-1-0.9-1.4-1.3h-0.2c0.6,0.6,1.2,1.1,1.7,1.5s0.9,0.8,1.4,1.1
			c0.1,0.1,0.2,0.2,0.3,0.3c0.1,0.1,0.2,0.2,0.3,0.2c0.2,0.2,0.4,0.3,0.6,0.5s0.4,0.3,0.7,0.5c0.2,0.2,0.5,0.3,0.8,0.5
			c1,0.7,0.8,0.6,0.1,0.2c-1.3-0.8-0.1,0,0.3,0.4c0.1,0.1,0.2,0.1,0.3,0.2c0.1,0,0.1,0.1,0.2,0.1s0.1,0.1,0.1,0.1
			c0.2,0.1,0.4,0.2,0.5,0.3c0.3,0.2,0.6,0.4,0.8,0.5c0.2,0.1,0.4,0.2,0.5,0.3c0.1,0.1,0.2,0.1,0.2,0.1s-0.1,0-0.2-0.1
			c-0.1,0-0.1-0.1-0.2-0.1s-0.2-0.1-0.3-0.2c-0.2-0.1-0.5-0.3-0.9-0.5c-0.2-0.1-0.4-0.2-0.6-0.3c-0.2-0.1-0.4-0.2-0.7-0.4
			c-0.6-0.3-1.3-0.7-2-1.2c-0.3-0.2-0.7-0.5-1.1-0.7c-0.3-0.3-0.7-0.5-1-0.8c-0.7-0.5-1.3-1.1-1.9-1.6c-0.1-0.1-0.3-0.2-0.4-0.4
			c-0.1-0.1-0.2-0.2-0.3-0.3c-0.2-0.2-0.4-0.4-0.6-0.6l-0.1-0.2c-0.4-0.4-0.6-0.6-0.6-0.7c-0.1-0.1,0-0.1,0-0.1l-1.3-1.4
			c-1.8-2-1.8-1.7-1.5-1.2c0.4,0.5,1,1.3,0.8,1c-0.1-0.1-0.2-0.3-0.4-0.5c-0.1-0.1-0.2-0.2-0.3-0.4c-0.1-0.1-0.2-0.3-0.3-0.4
			c-0.2-0.3-0.4-0.5-0.5-0.7c-0.2-0.3-0.4-0.6-0.6-0.8c-0.1-0.1-0.1-0.1-0.1-0.2c0,0,0.1,0.1,0.1,0.2c0.1,0.2,0.3,0.5,0.6,0.8
			c-0.1-0.1,0,0-0.1,0c0,0-0.1-0.1-0.2-0.2c-0.1-0.1-0.1-0.2-0.2-0.3c-0.1-0.1-0.2-0.2-0.3-0.4c0,0.1,0.5,0.8,0.9,1.4
			c0.1,0.1,0.2,0.2,0.3,0.4c0,0.1,0.1,0.1,0.1,0.2s0.1,0.1,0.1,0.2c0.2,0.2,0.3,0.4,0.5,0.6c0.3,0.3,0.4,0.5,0.3,0.4
			c-0.1-0.1-0.4-0.4-0.7-0.8c-0.1-0.1-0.2-0.2-0.3-0.3c-0.1-0.1-0.2-0.2-0.2-0.3c-0.2-0.2-0.3-0.4-0.5-0.6c-0.2-0.3-0.4-0.6-0.6-0.8
			c-0.2-0.3-0.4-0.5-0.5-0.8c-0.3-0.5-0.5-0.8-0.6-1s-0.2-0.4-0.4-0.6l-0.4-0.7c-0.1-0.2-0.3-0.5-0.4-0.7l-0.5-0.8
			c0.2,0.5,0.2,0.7,0.3,0.8c0,0.2,0.1,0.3,0.4,1c0.2,0.4,0,0.2-0.3-0.3c-0.2-0.3-0.4-0.7-0.7-1.1c-0.1-0.2-0.3-0.5-0.4-0.7
			c-0.1-0.3-0.3-0.5-0.4-0.8c-0.5-1-0.6-1-0.8-1.2c-0.1-0.2-0.2-0.3-0.4-0.8c-0.1-0.2-0.2-0.6-0.4-1.1c-0.2-0.5-0.4-1.1-0.7-2
			c-1.2-2.1-1.2-2.2-0.6-0.5c-0.1-0.4-0.1-0.7-0.2-1.2c-0.1-0.4-0.2-0.9-0.3-1.5L5.5,56c0.1,0.3,0.2,0.7,0.3,1
			c0.1,0.3,0.2,0.6,0.3,0.9c0.1,0.3,0.2,0.6,0.3,0.8c0,0.1,0.1,0.3,0.1,0.4c0,0.1,0.1,0.3,0.1,0.4c0-0.1-0.1-0.3-0.1-0.4
			c-0.1-0.1-0.1-0.3-0.1-0.4c-0.1-0.3-0.2-0.5-0.3-0.8C6,57.6,5.9,57.3,5.8,57c-0.1-0.3-0.2-0.6-0.3-1l-0.3-0.5
			c-0.2-0.6-0.3-1.1-0.4-1.7c0-0.2-0.1-0.4-0.1-0.6c0-0.2-0.1-0.4-0.1-0.6c-0.1-0.4-0.1-0.8-0.2-1.2c-0.1-0.7-0.2-1.4-0.2-2
			c0-0.3-0.1-0.5-0.1-0.8c0-0.2,0-0.4,0-0.6c0-0.3,0-0.4,0-0.3c0,0.1,0.1,0.4,0.1,0.8c0,0.4,0.1,0.8,0.1,1.3c0,0.2,0.1,0.5,0.1,0.7
			h0.1c0,0.2,0.1,0.4,0.1,0.6c0,0.2,0.1,0.4,0.1,0.6c0.1,0.4,0.1,0.7,0.1,1c0-0.3-0.1-0.6-0.1-1c0-0.2-0.1-0.4-0.1-0.6
			c0-0.2-0.1-0.4-0.1-0.6c0-0.3,0-0.6-0.1-0.9l-0.1-0.8c0-0.3,0-0.5-0.1-0.8l-0.1-0.8v-0.4v-0.2v-0.2c0-0.4,0-0.8,0-1.3
			c0-0.2,0-0.5,0-0.7s0-0.5,0-0.8c0,0,0,0.1,0,0.6c0-0.5,0-0.6,0-0.6c0-1-0.1-0.8-0.1-0.2c-0.1,0.7-0.1,0.9-0.1,0.5
			c0-0.2,0-0.4,0-0.8c0-0.2,0-0.4,0-0.6c0-0.2,0-0.5,0-0.8c0,0.1-0.1,0.2-0.1,0.1c0-0.1,0-0.2,0-0.5c0-0.1,0-0.3,0-0.5
			s0-0.5,0.1-0.7c0.3-2.2,0.8-4.5,1.3-6.3l0.4-1.6c0.2-0.5,0.3-1,0.5-1.5c0-0.3,0.1-0.6,0.1-0.8c-0.1,0.3-0.2,0.6-0.3,0.9
			c-0.1,0.3-0.2,0.6-0.3,1c-0.1,0.2-0.1,0.3-0.2,0.5c0,0.1-0.1,0.3-0.1,0.4c-0.1,0.3-0.2,0.5-0.2,0.6c0.1-0.3,0.1-0.5,0.2-0.8
			c0-0.1,0.1-0.3,0.1-0.4l0.1-0.4c0.2-0.5,0.3-1,0.5-1.5c0.4-1,0.7-2,1.2-3c0.1-0.3,0.2-0.6,0.4-0.9C7.7,26,7.9,25.7,8,25.5
			c0.3-0.5,0.5-1,0.7-1.2c0.2-0.3,0.4-0.6,0.6-1c0.1-0.2,0.2-0.4,0.3-0.6c0.1-0.1,0.1-0.2,0.2-0.3c0.1-0.1,0.1-0.2,0.2-0.3
			c0.3-0.4,0.6-0.9,0.8-1.3l0.1-0.2l0.1-0.2c0.1-0.1,0.2-0.2,0.2-0.3c0.2-0.2,0.3-0.4,0.5-0.7c-0.5,0.6-0.7,0.8-0.8,0.9
			c-0.1,0.2-0.2,0.4-0.4,0.5c-0.1,0.2-0.2,0.4-0.3,0.5C10,21.7,9.7,22,9.5,22.4c-0.3,0.6-0.6,1-0.6,0.9c0,0,0.1-0.2,0.2-0.5
			c0.1-0.1,0.1-0.3,0.2-0.4c0-0.1,0.1-0.2,0.1-0.2c0-0.1,0.1-0.2,0.1-0.2l1-1.5c0.3-0.5,0.7-1,1.1-1.5c0.1-0.1,0.2-0.3,0.3-0.4
			s0.2-0.2,0.3-0.3c0.2-0.2,0.3-0.4,0.4-0.5c0.3-0.3,0.4-0.5,0.5-0.6c0.2-0.3,0.3-0.3,0.5-0.4c0.5-0.5,0.9-1.1,1-1.1s-0.4,0.5-0.9,1
			c-0.1,0.1-0.2,0.2-0.2,0.3c-0.1,0.1,0.2,0.3,0.3,0.2l0,0l0,0l0,0l0,0l0,0c0,0,0,0,0,0.1c0-0.1,0-0.1,0-0.1
			c1.1-1.3,2.3-2.6,3.6-3.7c0.2-0.2,0.5-0.4,0.7-0.6c0.1-0.1,0.2-0.2,0.3-0.3c0.1-0.1,0.2-0.2,0.3-0.3c0.4-0.4,0.8-0.7,1.2-1
			c0.5-0.4,0.7-0.6,0.6-0.5S20.2,11,20,11.1c-0.2,0.2-0.5,0.4-0.8,0.6c-0.3,0.2-0.5,0.4-0.8,0.7c-0.2,0.2-0.4,0.4-0.6,0.6
			c-0.2,0.2-0.3,0.3-0.5,0.4c-0.3,0.2-0.4,0.4-0.5,0.4s0.5-0.5,1.1-1.1c2.1-1.9,4.1-3.3,5.2-3.9c0.2-0.1,0.4-0.2,0.6-0.4l0.9-0.6
			L25,7.5c0.2-0.1,0.3-0.2,0.5-0.3l0.9-0.5l0.5-0.3c0.2-0.1,0.3-0.2,0.5-0.2c0.3-0.1,0.6-0.3,0.8-0.4c0.1-0.1,0.3-0.1,0.4-0.2
			s0.3-0.1,0.4-0.2c0.6-0.2,1.1-0.5,1.7-0.7c0.4-0.2,0.8-0.3,1.2-0.4c0.4-0.1,0.7-0.3,1-0.3c1.2-0.3,1.4-0.4,1.2-0.3
			c-0.4,0.2-0.4,0.2,0,0.2c0.2,0,0.5-0.1,0.9-0.2c0.2,0,0.4-0.1,0.6-0.2c0.2,0,0.5-0.1,0.7-0.2C36.6,3.2,37,3.1,37.6,3
			c0.5,0,1.1-0.1,1.6-0.2c2.3-0.5,4.7-0.8,7-0.9c0.5-0.1,0.9-0.1-0.6-0.1c-0.5,0-1.1,0.1-1.7,0.1c-0.1,0-0.3,0-0.4,0H43
			c-0.3,0-0.6,0.1-0.8,0.1c-1.3,0.1,0.2-0.1,0.1-0.1c0,0,0.1,0,0.3-0.1c0.3,0,0.7-0.1,1.5-0.2l1.4-0.1H47c-0.2,0-1-0.1,0.7-0.1
			c0.5,0,0.9,0,1.4,0c0.2,0,0.5,0,0.7,0s0.5,0,0.7,0s0.5,0,0.7,0.1c0.1,0,0.2,0,0.4,0h0.2H52c0.5,0.1,1,0.1,1.5,0.2
			c0.3,0,0.6,0.1,0.8,0.1s0.3,0.1,0.4,0.1c0.1,0-0.1,0-0.8-0.1c-2.4-0.3-1.5-0.1-1,0c0.3,0,0.7,0.1,1,0.1l1,0.2c0.3,0,0.6,0.1,1,0.1
			c0.4,0.1,0.7,0.2,1.1,0.2c0.2,0,0.4,0.1,0.6,0.1c0.1,0,0.2,0,0.3,0.1c0.1,0,0.2,0.1,0.3,0.1c0.4,0.1,0.7,0.2,1.1,0.3
			c0,0,0.1,0,0.2,0c0.2,0,0.5,0.1,0.9,0.3c1.2,0.4,1.6,0.5,1.7,0.6c-0.1,0-0.3-0.1-0.5-0.1C61.6,4,61.5,4,61.4,4c-0.1,0,0,0,0.1,0.1
			c0.1,0,0.2,0.1,0.4,0.2s0.4,0.2,0.7,0.3C64,5.2,64,5.2,63.4,5.1c-1.2-0.3-0.8-0.3-4-1.1l-1.3-0.5c0,0-0.1,0-0.1,0.1
			s0.1,0.2,0.9,0.4c0.4,0.1,0.9,0.2,1.6,0.5c0.4,0.1,0.8,0.3,1.2,0.4c0.5,0.2,1,0.4,1.6,0.6c0.2,0.1,0.3,0.1,0.5,0.2
			c0.1,0.1,0.3,0.1,0.4,0.2c0.2,0.1,0.5,0.2,0.6,0.3l0.5,0.2c0.2,0.1,0.3,0.1,0.5,0.2l0.9,0.5c0.3,0.2,0.6,0.3,0.9,0.5l0.9,0.5
			c0.2,0.1,0.5,0.3,0.8,0.4c0.3,0.2,0.6,0.4,0.9,0.6c0.3,0.2,0.7,0.4,1,0.6c0.3,0.2,0.7,0.5,1,0.7l0.8,0.5c0.1,0.1-0.3-0.4,1,0.6
			c0.1,0-0.1-0.1-0.4-0.4c-0.1-0.1-0.3-0.3-0.5-0.4c-0.2-0.1-0.4-0.3-0.6-0.5c-1.2-0.9-2.1-1.5-1.6-1.2c0.1,0.1,0.3,0.2,0.5,0.3
			s0.5,0.3,0.8,0.5s0.6,0.4,0.9,0.6c0.3,0.2,0.6,0.5,1,0.7c0.3,0.2,0.5,0.4,0.8,0.6c0.6,0.5,1.1,0.9,1.5,1.3
			c0.1,0.1,0.2,0.2,0.3,0.3c0.1,0.1,0.2,0.2,0.2,0.2c0.1,0.1,0.3,0.3,0.3,0.4c2,1.9,3.6,3.9,5,5.9c0.3,0.4,0.6,0.8,0.9,1.3
			c0.1,0.2,0.3,0.4,0.4,0.6s0.3,0.5,0.4,0.7c0.3,0.4,0.5,0.8,0.5,0.9s-0.2-0.2-0.4-0.6c-0.1-0.2-0.3-0.4-0.4-0.7
			c-0.1-0.1-0.1-0.2-0.2-0.3c-0.1-0.1-0.1-0.2-0.2-0.3c0.2,0.3,0.3,0.5,0.3,0.7c0.1,0.2,0.1,0.3,0,0.3s-0.1-0.1-0.3-0.2
			c-0.1-0.2-0.4-0.4-0.7-0.8v0.2c0.3,0.4,0.6,0.9,0.7,1.2c0.2,0.3,0.2,0.4,0.2,0.4c-0.1-0.1-0.2-0.3-0.5-0.8
			c-0.1-0.1-0.2-0.3-0.2-0.4c-0.1-0.1-0.1-0.2-0.2-0.3c-0.1-0.2-0.2-0.3-0.3-0.4C82.1,21.1,82,21,82,21c-0.2-0.4-0.4-0.6-0.5-0.8
			C81.4,20,81.4,20,81.4,20c-0.3-0.4-0.6-0.8-0.9-1.2l-0.1-0.1l-0.1-0.1c-0.1-0.1-0.2-0.2-0.2-0.3c-0.2-0.2-0.3-0.4-0.4-0.5
			c-0.6-0.7-1.2-1.4-1.7-2c-0.3-0.3-0.6-0.6-0.8-0.9c-0.3-0.3-0.5-0.5-0.8-0.8c-0.1-0.1-0.1-0.1-0.2-0.2c-0.1-0.1-0.1-0.1-0.2-0.2
			c-0.1-0.1-0.2-0.2-0.4-0.3c-0.2-0.2-0.4-0.4-0.6-0.6c-0.1-0.1-0.2-0.2-0.4-0.4c-0.1-0.1-0.3-0.3-0.5-0.4c-0.4-0.3-0.8-0.6-1.2-1
			c-0.4-0.3-1-0.6-1.5-1.1c-0.3-0.2-0.6-0.4-0.9-0.6c-0.3-0.2-0.6-0.4-0.9-0.6c0.1,0.1,0.4,0.3,0,0.1c0.5,0.4-0.2-0.1-1.3-0.7
			c0,0,0,0,0.1,0.1L67.9,8c0.6,0.4,1,0.6,1.3,0.8s0.4,0.3,0.3,0.3c0,0-0.1,0-0.4-0.2c-0.2-0.1-0.5-0.3-0.9-0.4c-0.1,0-0.1,0-0.9-0.4
			c0-0.1-0.1-0.2-0.2-0.3s-0.2-0.1-0.3-0.2c-0.2-0.1-0.2-0.1-0.3-0.2c-0.2-0.1-0.3-0.2-0.6-0.3c-0.1,0-0.3-0.1-0.4-0.1
			c-0.4-0.2-1-0.5-1.4-0.6c-0.2-0.1-0.4-0.2-0.5-0.2C63.4,6,63.4,6,63.3,6c0-0.1,1.3,0.5,2.1,0.9c0.1,0,0.3,0.1,0.4,0.1
			c-0.1-0.1-0.2-0.1-0.3-0.2c-0.1,0-0.2-0.1-0.3-0.1c-0.2-0.1-0.4-0.2-0.7-0.3c-0.4-0.2-0.9-0.4-1.3-0.6s-0.9-0.3-1.3-0.5
			c-0.2-0.1-0.4-0.1-0.6-0.2C61.2,5,61,5,60.9,4.9l0,0c-0.4-0.1-0.8-0.3-1.2-0.4l-1.2-0.3L57.9,4l-0.6-0.1l-1.2-0.3
			c-0.1,0-0.3,0-0.6-0.1c-0.3,0-0.6-0.1-1-0.2c-0.5-0.1,0,0,0.7,0.1V3.3c0,0-0.3-0.1-0.7-0.2c-0.2,0-0.4-0.1-0.7-0.1
			S53.3,2.9,53,2.9l-1-0.1c-0.3,0-0.7-0.1-1-0.1l-1-0.1h-1c-0.1,0-0.3,0-0.4,0c0.1,0,0.3,0,0.4,0c-0.9,0-2.1,0-3.2,0
			c0,0.1,0.7,0.1-1.6,0.2c-0.1,0-0.2,0-0.2,0c-0.1,0-0.1,0-0.2,0c-0.1,0-0.2,0-0.3,0c-0.2,0-0.2,0-0.3,0c0,0,0.1,0,0.4,0
			c0.1,0,0.3,0,0.4,0c0.2,0,0.3,0,0.5,0c0.4,0,0.9,0,1.5-0.1c0.4,0,0.8,0,1.2,0s0.8,0,1.2,0c0.8,0,1.6,0,2.5,0.1
			c0.4,0,0.8,0.1,1.2,0.1C52.5,3,52.7,3,52.9,3s-0.1,0-0.8,0c-1.1-0.1-1.5-0.1-2-0.1s-0.9,0-2.1,0L48.1,3c0.4,0,0.9,0,1.3,0.1
			c-0.4,0-0.7,0-1,0c-0.1,0-0.3,0-0.4,0c-0.1,0-0.3,0-0.4,0c0.1,0,0.2,0,0.4,0c0.1,0,0.3,0,0.4,0c0.3,0,0.6,0,1,0
			c0.6,0,1.2,0,1.8,0.1c-0.1,0-0.2-0.1,0-0.1s0.7,0,1.8,0.1l0,0c0,0,0.2,0,1,0.1s1.1,0.2,1.2,0.3c0.6,0.1,0.6,0.1,0.6,0.2
			c0,0,0.1,0,0.2,0.1c0.1,0,0.4,0.1,0.9,0.2C58,4.3,59.1,4.7,60,4.9c0.4,0.1,0.7,0.2,1.1,0.3c0.4,0.1,0.8,0.2,1.2,0.4
			c0.4,0.2,0.8,0.3,1.2,0.5c0.1,0,0.2,0.1,0.3,0.1s0.2,0.1,0.3,0.1c0.2,0.1,0.4,0.2,0.6,0.3c1.4,0.7,1.2,0.6-0.6-0.1
			c-0.1-0.1-0.2-0.1-0.4-0.2c-0.1-0.1-0.2-0.1-0.4-0.1c-0.2-0.1-0.5-0.2-0.7-0.3c-0.5-0.2-0.9-0.3-1.2-0.4c-0.6-0.2-0.8-0.2,0,0.1
			c0.3,0.1,0.6,0.2,0.8,0.3C62.4,6,62.6,6,62.7,6.1c0.3,0.1,0.5,0.2,0.8,0.3C64.1,6.6,64.6,6.8,65,7s0.8,0.4,1.1,0.6
			c0.3,0.2,0.3,0.2,0.7,0.4c0.1,0.1,0.3,0.2,0.4,0.2c0.2,0.1,0.3,0.2,0.5,0.3c0.4,0.2,0.8,0.5,1.2,0.7c1.4,0.9,0.4,0.2,0.4,0.2
			s0.4,0.2,1.1,0.6l0.4,0.2l0.4,0.2l0,0c-0.4-0.3-0.2-0.2,0.2,0c0.2,0.1,0.5,0.3,0.7,0.5c0.3,0.2,0.6,0.4,0.8,0.6
			c0.2,0.2,0.6,0.4,0.9,0.7c0.2,0.1,0.3,0.3,0.5,0.4c0.1,0.1,0.3,0.2,0.4,0.3c0.2,0.2,0.5,0.5,0.8,0.7c0.1,0.1,0.3,0.3,0.4,0.4
			c0.1,0.1,0.3,0.3,0.4,0.4c0.3,0.3,0.6,0.6,0.8,0.8c0.1,0.1,0.3,0.3,0.4,0.4c0.1,0.1,0.3,0.3,0.4,0.4c1,1.1,1.8,2.1,1.9,2.4h-0.1
			c0.1,0.1,0.2,0.2,0.3,0.4c0.1,0.1,0.2,0.3,0.3,0.4c0.2,0.3,0.4,0.5,0.6,0.9c0.1,0.2,0.2,0.3,0.4,0.5c0.1,0.2,0.3,0.4,0.4,0.6
			c0.3,0.5,0.7,1,1.1,1.7c0.2,0.3,0.3,0.6,0.5,0.8c0.1,0.2,0.2,0.4,0.3,0.5c0.1,0.3,0.2,0.4,0.1,0.3c0,0-0.1-0.1-0.1-0.2
			c-0.1-0.1-0.2-0.3-0.3-0.4c-0.2-0.4-0.6-0.9-1-1.6c0,0.1-0.5-0.6-1.1-1.3c-0.1-0.1-0.1-0.2-0.2-0.3c-0.1-0.1-0.1-0.2-0.2-0.3
			c-0.1-0.2-0.3-0.3-0.4-0.5c-0.2-0.3-0.4-0.4-0.4-0.4c0.3,0.5,0.7,1.1,0.9,1.4c0.1,0.2,0.1,0.3,0.1,0.2L80.9,21l-0.1-0.1
			c0-0.1-0.1-0.1-0.2-0.2c-0.2-0.2,0,0,0.2,0.4c0.2,0.3,0.5,0.7,0.4,0.7c-0.2-0.2-0.3-0.4-0.4-0.6c-0.1-0.1-0.1-0.2-0.2-0.3
			c-0.1-0.1-0.1-0.2-0.2-0.3c-0.3-0.4-0.5-0.7-0.7-0.9c-0.2-0.3-0.4-0.5-0.6-0.7s-0.3-0.4-0.4-0.5c-0.4-0.5-0.5-0.6-0.3-0.5
			c0.1,0,0-0.1-0.2-0.3c-0.2-0.2-0.4-0.5-0.7-0.8c-0.2-0.3-0.5-0.6-0.7-0.7c-0.2-0.2-0.3-0.3-0.2-0.2c-0.2-0.2-0.5-0.5-0.7-0.7
			c-0.1-0.1-0.2-0.2-0.3-0.3c-0.1-0.1-0.2-0.2-0.3-0.3c-0.5-0.4-0.9-0.8-1.3-1.2s-0.9-0.7-1.3-1.1c-0.4-0.3-0.8-0.6-1.2-0.9
			c-0.2-0.1-0.4-0.3-0.6-0.4c-0.1-0.1-0.2-0.1-0.3-0.2c-0.1-0.1-0.2-0.1-0.3-0.2c-0.4-0.2-0.7-0.4-0.8-0.5c-0.4-0.2-0.2-0.1,0.8,0.6
			c0.2,0.1,0.2,0.2,0.2,0.2s-0.1,0,0,0c0.6,0.4,1.1,0.8,1.7,1.2c0.3,0.2,0.7,0.5,1,0.8c0.2,0.1,0.3,0.3,0.5,0.4
			c0.1,0.1,0.3,0.2,0.4,0.3c0.2,0.2,0.1,0.1-0.2-0.1c-0.3-0.2-0.7-0.6-1-0.8c-0.1-0.1-0.2-0.1-0.3-0.2c0.4,0.4,0.5,0.5,0.1,0.3
			c-0.4-0.3-1.3-0.9-2.8-1.8c0.1,0.1,0.2,0.1,0.3,0.2c0.1,0.1,0.2,0.2,0.3,0.2c0.2,0.2,0.4,0.3,0.6,0.5c0.2,0.1,0.4,0.3,0.6,0.4
			l0.1,0.1l0.1,0.1c0.1,0.1,0.2,0.1,0.3,0.2c0.4,0.3,0.7,0.6,1.1,0.8l0.1,0.1l0.1,0.1c0.1,0.1,0.2,0.1,0.2,0.2
			c0.2,0.1,0.3,0.3,0.4,0.4c0.3,0.3,0.6,0.5,0.8,0.8c0.3,0.3,0.5,0.5,0.7,0.7c0.2,0.2,0.4,0.5,0.6,0.7s0.4,0.4,0.6,0.6
			c0.6,0.7,0.9,1-0.2,0v0.1c-0.1-0.1-0.4-0.3-1.4-1.4c-0.6-0.6-1.1-1-1.5-1.4c-0.2-0.2-0.4-0.4-0.7-0.5c-0.2-0.2-0.5-0.3-0.7-0.5
			c-0.2-0.1-0.3-0.1-0.5-0.2c-0.1,0-0.2-0.1-0.4-0.3c-0.2-0.2-0.5-0.4-0.9-0.6c-0.9-0.7-1.4-1-1.8-1.2c-0.6-0.5-0.4-0.4-0.5-0.6
			c-0.1-0.1-0.3-0.2-0.4-0.3c-0.5-0.3-0.9-0.5-0.9-0.5c0.1,0,0-0.1-0.3-0.3c-0.2-0.1-0.4-0.2-0.7-0.4c-0.3-0.1-0.7-0.3-1.1-0.6
			c-0.6-0.3-1.1-0.5-1.4-0.7c-0.3,0.2-0.5,0.1-0.6,0.1c-0.2-0.1-0.3-0.1-0.5-0.2c-0.3-0.1-0.5-0.2-0.8-0.3c-0.2-0.2-0.4-0.3-0.7-0.4
			c-0.5-0.2-0.9-0.3-1.3-0.5c-0.1,0-0.2-0.1-0.3-0.1S59,6.3,58.9,6.3c-0.2-0.1-0.5-0.1-0.7-0.2c-0.4,0-0.6-0.1-0.9-0.1
			s-0.6-0.1-0.9-0.2H56c0.2,0.1,0.5,0.1,0.8,0.2c0.1,0,0.3,0.1,0.5,0.1s0.3,0.1,0.5,0.2c0.3,0.1,0.7,0.2,1.1,0.3
			c0.1,0,0.2,0.1,0.3,0.1s0.2,0.1,0.3,0.1c0.2,0.1,0.3,0.1,0.5,0.2s0.5,0.2,0.7,0.3c0.1,0,0.2,0.1,0.4,0.1c0.1,0,0.2,0.1,0.3,0.1
			C61.8,7.7,62,7.8,62,7.8L62.5,8l0.3,0.1L63,8.2l1,0.5c0.3,0.1,0.5,0.2,0.6,0.3c0.2,0.1,0.3,0.2,0.4,0.2c0.2,0.1,0.3,0.2,0.3,0.2
			c0.1,0.1-0.1,0-0.1,0c0.1,0.1,0.2,0.1,0.3,0.2c0.1,0.1,0.3,0.1,0.4,0.2c0.2,0.1,0.4,0.2,0.5,0.2c0.2,0.1,0.5,0.3,0.7,0.4
			c0.2,0.1,0.4,0.2,0.6,0.3s0.3,0.2,0.5,0.3c0.6,0.4,1,0.7,1.3,0.9c0.1,0.1,0.1,0.1,0.2,0.1s0.1,0.1,0.2,0.1
			c0.1,0.1,0.2,0.1,0.2,0.2c0.1,0.1,0.2,0.2,0.4,0.4l0,0c0.3,0.2,0.5,0.3,0.7,0.5s0.5,0.4,0.7,0.5c0.2,0.2,0.4,0.4,0.7,0.5
			c0.1,0.1,0.2,0.2,0.3,0.3c0.1,0.1,0.2,0.2,0.3,0.3c0.4,0.4,0.8,0.7,1.2,1c0.4,0.4,0.7,0.7,1,1c0.2,0.2,0.3,0.3,0.5,0.5
			s0.3,0.3,0.4,0.5c0.3,0.3,0.6,0.6,0.8,1c0.3,0.3,0.5,0.6,0.7,0.9s0.5,0.6,0.7,0.9c0.3,0.3,0.6,0.8,0.9,1.2
			C79.6,22.2,79.8,22.5,79.6,22.2z M72.4,13.3c0.2,0.2,0.4,0.3,0.6,0.4c0.1,0.1,0.2,0.1,0.3,0.2c0.1,0.1,0.2,0.1,0.2,0.2
			c-0.1-0.1-0.2-0.1-0.2-0.2c-0.1-0.1-0.2-0.1-0.3-0.2C72.8,13.6,72.6,13.5,72.4,13.3z M72.2,13.2c0.1,0.1,0.2,0.1,0.2,0.1
			C72.4,13.4,72.2,13.3,72.2,13.2z M76,14.9L76,14.9l0.2,0.1L76,14.9z M71.5,12.7c-0.5-0.3-0.9-0.6-1.3-0.9
			C70.6,12.1,71,12.4,71.5,12.7C71.5,12.7,71.4,12.7,71.5,12.7C71.4,12.7,71.5,12.7,71.5,12.7z M69.6,11c0.1,0,0.1,0.1,0.2,0.1l0,0
			C69.7,11.1,69.7,11,69.6,11z M71.2,10.9c0.3,0.2,0.6,0.5,1,0.8C71.9,11.4,71.6,11.2,71.2,10.9z M69.8,10.6
			c0.2,0.1,0.3,0.2,0.5,0.3s0.3,0.2,0.5,0.4c-0.2-0.1-0.3-0.2-0.5-0.4C70.1,10.8,69.9,10.7,69.8,10.6z M67.5,9.9
			c0.1,0.1,0.3,0.2,0.5,0.3s0.3,0.2,0.5,0.3c0.3,0.2,0.6,0.4,0.9,0.6c0.2,0.1,0.4,0.3,0.7,0.5c-0.2-0.2-0.5-0.3-0.7-0.5
			c-0.3-0.2-0.6-0.4-0.9-0.6c-0.2-0.1-0.3-0.2-0.5-0.3C67.8,10.1,67.6,10,67.5,9.9z M64.4,7.9C64.2,7.8,64.2,7.8,64.4,7.9
			c0.2,0,0.3,0.1,0.5,0.2s0.4,0.2,0.7,0.3l0.2,0.1l-0.2-0.1c-0.3-0.1-0.5-0.3-0.7-0.3C64.7,8,64.5,7.9,64.4,7.9
			C64.2,7.8,64.2,7.8,64.4,7.9z M61.2,5.9L61.5,6l0.2,0.1l0,0L61.5,6L61.2,5.9z M48.1,2.2c0.5,0,1,0,1.4,0.1c0.1,0,0.2,0,0.3,0
			s0.2,0,0.3,0c0.2,0,0.3,0,0.5,0.1c0.4,0,0.9,0.1,1.3,0.1l1.3,0.2l-1.3-0.2c-0.4,0-0.9-0.1-1.3-0.1c-0.1,0-0.3,0-0.5-0.1
			c-0.1,0-0.2,0-0.3,0s-0.2,0-0.3,0C49.1,2.3,48.6,2.2,48.1,2.2z M46.6,2.2C46.7,2.2,46.7,2.2,46.6,2.2C46.7,2.2,46.7,2.2,46.6,2.2z
			 M46.4,2.2c0.2,0,0.4,0,0.6,0C46.8,2.2,46.6,2.2,46.4,2.2z M33.9,84.2L33.9,84.2c0.3,0,0.5,0,0.6,0C34.4,84.2,34.2,84.1,33.9,84.2
			L33.9,84.2z M27.1,79.4l0.8,0.4c0.3,0.1,0.5,0.3,0.8,0.4c0.5,0.3,1.1,0.5,1.6,0.8c0.6,0.3,1.5,0.7,1.8,0.9
			c-0.3-0.2-1.2-0.6-1.8-0.9c-0.5-0.3-1.1-0.5-1.6-0.8c-0.3-0.1-0.5-0.3-0.8-0.4L27.1,79.4z M22.6,76.7c0.1,0.1,0.2,0.2,0.4,0.3
			c0.1,0.1,0.1,0.1,0.2,0.2s0.2,0.1,0.3,0.2c0.3,0.2,0.6,0.4,0.7,0.5c-0.2-0.1-0.4-0.3-0.7-0.5c-0.1-0.1-0.2-0.1-0.3-0.2
			C23.1,77.1,23,77,22.9,77C22.8,76.9,22.7,76.8,22.6,76.7z M21.6,76C21.7,76.1,21.7,76.1,21.6,76C21.7,76.1,21.7,76.1,21.6,76z
			 M20.3,75.2l-0.4-0.3c-0.1,0-0.1,0-0.1,0s0,0,0.1,0L20.3,75.2z M20.3,74.8c0.1,0.1,0.1,0.1,0.1,0.1c0.3,0.2,0.5,0.5,0.7,0.6
			c-0.2-0.2-0.4-0.4-0.7-0.6L20.3,74.8z M19.9,74.5l0.1,0.1l0.1,0.1C20,74.6,20,74.6,19.9,74.5z M19.7,74.2c0.2,0.2,0.1,0.2,0.2,0.3
			l0,0C19.8,74.4,19.8,74.3,19.7,74.2z M18.8,72.4c0.1,0.2,0.5,0.6,1,1.1c0.2,0.2,0.1,0.2-0.3-0.1c0.4,0.3,0.5,0.3,0.3,0.1
			C19.3,73,18.9,72.6,18.8,72.4z M7.3,58.7L7.3,58.7c-0.1-0.2-0.2-0.3-0.2-0.2C7.1,58.4,7.2,58.5,7.3,58.7z M8.5,61.6L8.5,61.6
			C8.5,61.5,8.5,61.5,8.5,61.6L8.5,61.6z M10,62.5c0.5,1.1,0.7,1.5,0.4,0.9C10.7,64,10.5,63.6,10,62.5c-0.1-0.1-0.1-0.3-0.2-0.4
			c-0.1-0.1-0.1-0.3-0.2-0.4c-0.1-0.3-0.2-0.5-0.3-0.8S9.1,60.3,9,60c-0.1-0.3-0.2-0.7-0.4-1c0.1,0.4,0.3,0.7,0.4,1
			c0.1,0.3,0.2,0.6,0.3,0.9c0.1,0.3,0.2,0.5,0.3,0.8c0,0.1,0.1,0.3,0.2,0.4C9.9,62.3,10,62.4,10,62.5z M12.5,67.9
			c-0.1-0.1-0.1-0.2-0.2-0.3c-0.1-0.1-0.1-0.2-0.2-0.3c-0.1-0.2-0.2-0.4-0.3-0.6c0-0.1,0-0.1,0.1,0c-0.1-0.1-0.2-0.2-0.1,0
			c0.1,0.2,0.2,0.4,0.3,0.6c0.1,0.1,0.1,0.2,0.2,0.3C12.4,67.7,12.4,67.8,12.5,67.9z M14.3,69.9c0-0.1-0.1-0.1-0.2-0.3
			c-0.1-0.2-0.2-0.3-0.3-0.5c-0.1-0.1-0.2-0.3-0.3-0.4c-0.2-0.2-0.3-0.4-0.4-0.6c-0.2-0.3-0.3-0.5-0.3-0.6c0.1,0.1,0.1,0.3,0.3,0.6
			c0.1,0.2,0.2,0.4,0.4,0.6c0.1,0.1,0.2,0.3,0.3,0.4s0.2,0.3,0.3,0.5C14.2,69.8,14.2,69.9,14.3,69.9z M13.9,68.6
			c-0.2-0.2-0.3-0.4-0.3-0.3c0,0,0,0.1,0.1,0.2s0.2,0.3,0.4,0.6c0.3,0.4,0.4,0.6,0.2,0.4c0.1,0.1,0,0-0.2-0.4
			c-0.2-0.3-0.3-0.5-0.4-0.6c-0.1-0.1-0.1-0.2-0.1-0.2C13.6,68.2,13.7,68.4,13.9,68.6z M13.9,70L13.9,70c0.2,0.3,0.5,0.6,0.7,0.9
			s0.5,0.6,0.7,0.8c0.2,0.3,0.5,0.5,0.7,0.8c0.2,0.3,0.5,0.5,0.7,0.8c-0.2-0.3-0.5-0.5-0.7-0.8s-0.5-0.5-0.7-0.8s-0.5-0.5-0.7-0.8
			C14.3,70.6,14.1,70.3,13.9,70z M13.2,65c0.2,0.2,0.5,0.6,1,1.4c0.3,0.4,0.5,0.7,0.7,1c0.1,0.2,0.2,0.3,0.3,0.4s0.2,0.3,0.3,0.4
			c0.4,0.5,0.6,0.8,0.9,1.1c-0.2-0.3-0.5-0.7-0.9-1.1c-0.1-0.1-0.2-0.2-0.3-0.4c-0.1-0.1-0.2-0.3-0.3-0.4c-0.2-0.3-0.5-0.6-0.7-1
			C13.6,65.6,13.3,65.2,13.2,65z M13,64.9l0.1,0.2c0.2,0.3,0.4,0.6,0.5,0.9c-0.2-0.3-0.4-0.6-0.5-0.9L13,64.9L13,64.9L13,64.9z
			 M10.3,63.8c-0.4-0.9-0.3-0.9-0.3-1.1C10,63,9.9,62.9,10.3,63.8c0.2,0.5,0.4,0.8,0.6,1.2c0.1,0.2,0.2,0.3,0.2,0.5
			c0,0.1,0.1,0.2,0.1,0.2c0,0.1,0.1,0.2,0.1,0.2c0-0.1-0.1-0.2-0.1-0.2c0-0.1-0.1-0.2-0.1-0.2c-0.1-0.2-0.2-0.3-0.2-0.5
			C10.7,64.7,10.5,64.3,10.3,63.8z M12.3,64c0.1,0.3,0.3,0.5,0.4,0.6c0-0.1,0,0,0.1,0c-0.1-0.1-0.1-0.1-0.1,0
			C12.6,64.5,12.5,64.3,12.3,64z M12.4,62.9c0.2,0.3,0.3,0.6,0.5,0.9C12.7,63.5,12.6,63.2,12.4,62.9z M11.1,60.5
			C11.2,60.5,11.2,60.5,11.1,60.5C11.2,60.5,11.2,60.5,11.1,60.5z M10.8,59.4c0,0.1,0.1,0.1,0.1,0.1l0,0
			C10.8,59.5,10.8,59.5,10.8,59.4z M9.5,57c0,0.2,0.1,0.3,0.1,0.5c0,0.1,0,0.2,0.1,0.2c0,0.1,0.1,0.2,0.1,0.2c0.1,0.3,0.2,0.7,0.4,1
			c0.1,0.2,0.1,0.4,0.2,0.5c0.1,0.2,0.1,0.4,0.2,0.5c0.2,0.4,0.3,0.7,0.5,1.1c0.1,0.1,0.1,0.3,0.2,0.4l0.2,0.4l0.5,0.9
			c0.2,0.3,0.1-0.1,0-0.6l0,0c0.2,0.5,0.3,0.9,0,0.6L11.5,62l-0.2-0.4c-0.1-0.1-0.2-0.3-0.2-0.4c-0.2-0.4-0.3-0.8-0.5-1.1
			c-0.1-0.2-0.2-0.4-0.2-0.5c-0.1-0.2-0.1-0.4-0.2-0.5c-0.1-0.3-0.2-0.7-0.4-1c0-0.1-0.1-0.2-0.1-0.2c0-0.1,0-0.2-0.1-0.2
			C9.6,57.3,9.5,57.2,9.5,57z M5.7,55c0-0.2,0-0.3-0.1-0.6c-0.1-0.6-0.2-1.2-0.3-1.8c0.1,0.6,0.2,1.2,0.3,1.8
			C5.7,54.8,5.7,54.9,5.7,55z M8,56C8,56.1,8,56.1,8,56C8.1,56.1,8.1,56.1,8,56z M7.3,52.5c0-0.1-0.1-0.2-0.1-0.3
			c0.1,0.7,0.1,0.9,0.1,1c0,0,0-0.3-0.1-1C7.2,52.3,7.3,52.4,7.3,52.5c0.1,0.5,0.2,0.9,0.3,1.2c0,0.2,0.1,0.4,0.1,0.5
			c0,0.2,0.1,0.3,0.1,0.4c0.1,0.6,0.2,0.9,0.3,1.2c0-0.2-0.1-0.6-0.3-1.2c0-0.1-0.1-0.3-0.1-0.4c0-0.2-0.1-0.3-0.1-0.5
			C7.5,53.4,7.4,53,7.3,52.5c0-0.2,0-0.2,0-0.2c0,0.1,0.1,0.2,0.1,0.5l0,0c-0.1-0.3-0.1-0.4-0.1-0.5C7.3,52.3,7.3,52.3,7.3,52.5z
			 M7.3,49.1c0,0.3,0.1,0.6,0.1,1c0-0.1,0-0.1-0.1-0.1c0-0.1,0,0,0.1,0.1C7.3,49.7,7.3,49.4,7.3,49.1z M6.4,47.9c0,0.1,0,0.3,0,0.4
			c0,0.1,0,0.3,0,0.4c0,0.3,0.1,0.5,0.1,0.8s0.1,0.6,0.1,0.9c0,0.3,0.1,0.6,0.2,0.9c0,0.1,0,0.4,0.1,0.8c0,0.2,0.1,0.5,0.1,0.8
			c0.1,0.3,0.1,0.7,0.2,1.1s0.2,0.8,0.3,1.3c-0.1-0.5-0.2-0.9-0.3-1.3c-0.1-0.4-0.1-0.7-0.2-1s-0.1-0.6-0.1-0.8
			c-0.1-0.4-0.1-0.7-0.1-0.8c-0.1-0.3-0.1-0.6-0.2-0.9c0-0.3-0.1-0.6-0.1-0.9c0-0.3-0.1-0.6-0.1-0.8c0-0.1,0-0.3,0-0.4
			C6.4,48.1,6.4,48,6.4,47.9z M5.5,45.5L5.5,45.5c0-0.1,0,0.2,0,0.7C5.5,45.7,5.5,45.4,5.5,45.5z M6.5,42.1c0,0.1,0,0.2-0.1,0.2
			c0,0.1,0,0.2,0,0.3s0,0.2,0,0.3c0,0.2,0,0.3,0,0.5c0,0.3,0,0.7,0,1c0-0.3,0-0.6,0-1c0-0.2,0-0.3,0-0.5c0-0.1,0-0.2,0-0.3
			s0-0.2,0-0.3C6.4,42.3,6.4,42.2,6.5,42.1z M7,41.8c0,0.1,0,0.2,0,0.4C6.9,42.1,6.9,41.9,7,41.8z M5.8,36H5.6H5.8
			c0,0.2-0.1,0.3-0.1,0.5L5.6,37l-0.2,1c-0.1,0.2-0.1,0.4-0.2,0.6c-0.1,0.5-0.1,1.1-0.2,1.7c0,0,0,0,0,0.1C5,40,5,39.5,5.1,39
			C5,39.6,5,40.1,4.9,40.4c0,0.5-0.1,1-0.1,1.5c0-0.5,0.1-1,0.1-1.5c0-0.1,0-0.1,0-0.1c0,0.2,0,0.3,0,0.5s0,0.3,0,0.5
			c0,0.3,0,0.7-0.1,1c0,0.7,0,1.4-0.1,2.1c0-0.7,0-1.4,0.1-2.1c0-0.4,0.1-0.7,0.1-1c0-0.2,0-0.3,0-0.5s0-0.3,0-0.5
			c0.2-0.6,0.2-1.2,0.3-1.7c0.1-0.2,0.1-0.4,0.2-0.6v0.2c0,0.2-0.1,0.4-0.1,0.5s0,0.3,0,0.3c0-0.1,0-0.2,0-0.3s0-0.3,0.1-0.5V38
			l0.2-1l0.1-0.5C5.7,36.4,5.7,36.2,5.8,36L5.8,36L5.8,36z M8.8,32.7c-0.1,0.3-0.1,0.7-0.2,1c-0.1,0.5-0.3,0.9-0.4,1.4l-0.3,1.4
			l0.3-1.4c0.1-0.5,0.2-0.9,0.4-1.4C8.6,33.4,8.7,33,8.8,32.7z M9,31.8L9,31.8c-0.1,0.3-0.2,0.8-0.2,0.9C8.8,32.6,8.9,32.1,9,31.8
			L9,31.8z M10.8,29.2c0,0.2-0.1,0.3-0.1,0.5C10.7,29.5,10.8,29.4,10.8,29.2L10.8,29.2z M11.7,27.7c0,0.1-0.1,0.1-0.1,0.2
			s-0.1,0.1-0.1,0.2c-0.1,0.1-0.1,0.2-0.2,0.4c-0.1,0.2-0.2,0.4-0.3,0.6c0.1-0.2,0.2-0.4,0.3-0.6c0.1-0.1,0.1-0.2,0.2-0.4
			c0-0.1,0.1-0.1,0.1-0.2C11.6,27.8,11.7,27.7,11.7,27.7c0,0.1-0.1,0.1-0.1,0.2s-0.1,0.2-0.1,0.2c0-0.1,0.1-0.2,0.1-0.2
			C11.6,27.8,11.7,27.7,11.7,27.7z M8.4,25.5c-0.1,0.1-0.2,0.3-0.3,0.4C8,26,7.9,26.2,7.9,26.3c0-0.2,0.1-0.3,0.2-0.4
			C8.2,25.8,8.3,25.6,8.4,25.5L8.4,25.5z M33,6.6h0.2l0,0H33z M30.1,6.9c0.5-0.2,1.2-0.5,1.9-0.8c0.2,0,0.5-0.1,0.4-0.1
			c0.1,0-0.3,0-0.4,0.1C31.2,6.4,30.5,6.7,30.1,6.9z M30.7,6.8L30.7,6.8c0.3-0.1,0.6-0.3,0.8-0.3C31.3,6.5,31,6.6,30.7,6.8z
			 M30.3,7.5c0.2-0.1,0.4-0.2,0.8-0.3l0,0C30.8,7.4,30.5,7.5,30.3,7.5z M22.9,12c0.2-0.2,0.4-0.3,0.6-0.5s0.4-0.3,0.7-0.5
			c0.5-0.3,0.9-0.7,1.5-1c0.3-0.2,0.5-0.3,0.8-0.5c0.1-0.1,0.3-0.2,0.4-0.2c0.1-0.1,0.3-0.2,0.4-0.2c0.2-0.1,0.5-0.3,0.8-0.4
			c0.3-0.2,0.6-0.3,0.9-0.4c-0.3,0.1-0.6,0.3-0.9,0.4c-0.3,0.2-0.6,0.3-0.8,0.5c-0.1,0.1-0.3,0.1-0.4,0.2c-0.1,0.1-0.3,0.2-0.4,0.2
			c-0.3,0.2-0.5,0.3-0.8,0.5c-0.5,0.3-1,0.7-1.5,1c-0.2,0.2-0.5,0.3-0.7,0.5C23.3,11.7,23.1,11.9,22.9,12z M24.6,11.1l-0.5,0.4
			c-0.2,0.1-0.4,0.3-0.6,0.4l0,0l0,0c0.2-0.2,0.4-0.3,0.6-0.4L24.6,11.1z M23.9,12.7L23.9,12.7c0,0,0.1-0.1,0.2-0.2
			C24,12.6,23.9,12.7,23.9,12.7z M23.8,8.8c0.1-0.1,0.2-0.1,0.3-0.2c0.1-0.1,0.2-0.1,0.3-0.2c0.2-0.1,0.5-0.3,0.7-0.4l0.4-0.4L25,8
			c-0.2,0.1-0.5,0.3-0.7,0.4C24.1,8.5,24,8.5,24,8.6C23.9,8.6,23.8,8.7,23.8,8.8z M23.7,10.9L23.7,10.9c0.2-0.1,0.5-0.3,0.9-0.5
			C24.2,10.6,23.9,10.8,23.7,10.9C23.8,10.8,23.8,10.9,23.7,10.9z M19,14L19,14c0.1-0.1,0.3-0.3,0.4-0.4c0.1-0.1,0.2-0.2,0.4-0.3
			c0.3-0.2,0.5-0.4,0.7-0.6c-0.2,0.2-0.5,0.4-0.7,0.6c-0.1,0.1-0.3,0.2-0.4,0.3C19.3,13.7,19.1,13.9,19,14z M18.7,14.3l0.3-0.2
			C18.8,14.1,18.7,14.3,18.7,14.3z M19.9,15.9L19.9,15.9c0.2-0.3,0.3-0.3,0.7-0.7C20.2,15.6,20.1,15.7,19.9,15.9z M16.5,18
			c0.1-0.1,0.3-0.4,0.7-0.9c0.1-0.2,0.6-0.8,1.2-1.4c-0.6,0.7-1.1,1.2-1.2,1.4C16.8,17.6,16.6,17.9,16.5,18z M18.7,17L18.7,17
			l0.4-0.4L18.7,17z M16.3,20c0.1-0.1,0.2-0.2,0.3-0.4c0.1-0.1,0.2-0.2,0.3-0.3c0.2-0.2,0.3-0.4,0.5-0.6c0.3-0.3,0.5-0.6,0.7-0.9
			c-0.2,0.2-0.4,0.5-0.7,0.9c-0.1,0.2-0.3,0.4-0.5,0.6c-0.1,0.1-0.2,0.2-0.3,0.3C16.5,19.7,16.4,19.8,16.3,20
			c0.1-0.1,0.2-0.2,0.3-0.3c0.2-0.2,0.3-0.4,0.5-0.5c0.1-0.1,0.2-0.2,0.2-0.2c0.1-0.1,0.2-0.1,0.3-0.2c-0.1,0.1-0.2,0.1-0.3,0.2
			c-0.1,0-0.1,0.1-0.2,0.2s-0.3,0.3-0.5,0.5L16.3,20z M15.8,21.2c0.3-0.3,0.6-0.7,0.8-1C16.4,20.5,16.1,20.9,15.8,21.2z M14,19.4
			L14,19.4c-0.1,0.1-0.2,0.2-0.3,0.4c-0.1,0.1-0.2,0.2-0.2,0.3c-0.1,0.2-0.3,0.4-0.4,0.5c0.1-0.1,0.2-0.3,0.4-0.5
			c0.1-0.1,0.1-0.2,0.2-0.3C13.8,19.6,13.9,19.5,14,19.4z M14.6,18.5L14.6,18.5c-0.2,0.3-0.4,0.6-0.7,0.8
			C14.2,19.1,14.4,18.8,14.6,18.5z M13.7,18c0.1-0.2,0.3-0.4,0.4-0.6C13.9,17.6,13.8,17.8,13.7,18L13.7,18z M12.6,20.8
			c0.2-0.3,0.5-0.6,0.7-0.9c0.1-0.2,0.2-0.3,0.4-0.5c0.1-0.2,0.2-0.3,0.4-0.5c0.2-0.3,0.5-0.6,0.7-0.9l0.2-0.2l0.2-0.2
			c0.1-0.1,0.3-0.3,0.4-0.4c-0.1,0.1-0.3,0.3-0.4,0.4l-0.2,0.2L14.8,18c-0.2,0.3-0.5,0.6-0.7,0.9c-0.1,0.2-0.2,0.3-0.4,0.5
			c-0.1,0.2-0.2,0.3-0.4,0.5C13,20.2,12.8,20.5,12.6,20.8c-0.1,0.1-0.2,0.1-0.1,0C12.4,21,12.4,21,12.6,20.8z M9.1,24
			c0.2-0.3,0.3-0.5,0.4-0.7C9.4,23.5,9.3,23.7,9.1,24z M11.3,24.5L11.3,24.5c-0.1,0.2-0.3,0.5-0.4,0.7c-0.1,0.3-0.3,0.5-0.4,0.7
			c0.1-0.2,0.3-0.5,0.4-0.7S11.1,24.8,11.3,24.5z M13.8,23.3c0,0-0.1,0,0-0.1C13.7,23.4,13.8,23.3,13.8,23.3c-0.2,0.3-0.4,0.7-0.6,1
			c-0.2,0.3-0.3,0.6-0.4,0.8c0.1-0.2,0.3-0.5,0.4-0.8C13.4,24,13.6,23.7,13.8,23.3z M16.6,21.2c-0.1,0.1-0.2,0.3-0.3,0.4L16,22
			c-0.1,0.2-0.3,0.5-0.6,0.9c-0.1,0.1-0.1,0.2-0.2,0.3c-0.1,0.1-0.1,0.2-0.2,0.3c-0.1,0.2-0.3,0.4-0.4,0.6c0.1-0.2,0.3-0.4,0.4-0.6
			c0.1-0.1,0.1-0.2,0.2-0.3c0.1-0.1,0.1-0.2,0.2-0.3c0.2-0.4,0.5-0.7,0.6-0.9l0.3-0.4C16.4,21.5,16.5,21.4,16.6,21.2z M18,18.8
			c-0.3,0.3-0.6,0.6-0.8,0.9c-0.2,0.3-0.4,0.5-0.7,0.8c-0.3,0.4-0.6,0.8-0.9,1.3c0.3-0.4,0.6-0.8,0.9-1.3c0.2-0.3,0.5-0.5,0.7-0.8
			C17.4,19.4,17.7,19.2,18,18.8z M18.3,19.1L18.3,19.1c-0.1,0.1-0.3,0.3-0.4,0.5c-0.6,0.6-0.2,0.1,0.2-0.5c-0.4,0.5-0.8,1.1-0.2,0.5
			C18,19.4,18.2,19.2,18.3,19.1c0,0,0,0.1-0.1,0.2C18.2,19.2,18.3,19.1,18.3,19.1z M21.1,15.3c-0.5,0.5-1,0.9-1.4,1.4
			c-0.5,0.5-0.9,1-1.4,1.4l-0.9,1.1l0.9-1.1c0.5-0.5,0.9-1,1.4-1.4C20.1,16.2,20.6,15.8,21.1,15.3z M22.6,12.2
			c-0.2,0.1-0.3,0.3-0.5,0.4l-0.3,0.2L21.6,13c-0.3,0.3-0.6,0.6-1,0.8l0,0c0.3-0.3,0.6-0.6,1-0.8l0.2-0.2l0.3-0.2
			C22.2,12.4,22.4,12.3,22.6,12.2z M33,7.9c-0.1,0-0.2,0-0.2,0.1c-0.1,0-0.1,0-0.2,0c-0.2,0.1-0.3,0.1-0.5,0.2
			c-0.3,0.1-0.7,0.3-1,0.4c-0.4,0.2-0.7,0.3-1.1,0.5s-0.7,0.3-1.1,0.5s-0.9,0.5-1.3,0.7s-0.8,0.5-1.2,0.7L26,11.2l-0.2,0.1l-0.2,0.1
			l-0.7,0.5c-0.3,0.2-0.5,0.4-0.8,0.7c0,0.1-0.3,0.3-0.8,0.6c0.4-0.3,0.7-0.6,0.8-0.6c0.2-0.2,0.5-0.5,0.8-0.7l0.7-0.5l0.2-0.1
			l0.2-0.1l0.4-0.2c0.4-0.2,0.8-0.5,1.2-0.7c0.4-0.2,0.9-0.5,1.3-0.7s0.7-0.4,1.1-0.5c0.4-0.2,0.7-0.3,1.1-0.5
			c0.4-0.1,0.7-0.3,1-0.4c0.2-0.1,0.3-0.1,0.5-0.2c0.1,0,0.1,0,0.2,0C32.9,7.9,33,7.9,33,7.9c0.5-0.2,0.8-0.2,0.8-0.2
			C33.9,7.7,33.6,7.7,33,7.9z M35,6.8c-0.2,0.1-0.5,0.1-0.7,0.2C34.5,7,34.8,6.9,35,6.8z M42.8,4.4c0.1,0,0.2,0,0.4-0.1
			c0.1,0,0.2,0,0.4-0.1c0.1,0,0.2,0,0.2,0c0.1,0,0.2,0,0.3,0c-0.1,0-0.2,0-0.3,0s-0.2,0-0.2,0c-0.1,0-0.3,0-0.4,0.1
			C43,4.3,42.8,4.4,42.8,4.4z M42.8,4.5C42.8,4.5,42.8,4.4,42.8,4.5C42.8,4.4,42.8,4.5,42.8,4.5z M41.3,3.4c0,0,0.1,0,0.4,0
			C41.5,3.4,41.3,3.4,41.3,3.4L41.3,3.4z M41.8,2.8L41.8,2.8c-0.1,0-0.3,0-0.4,0.1C41.5,2.9,41.6,2.8,41.8,2.8z M39.5,3.7
			c0.1,0,0.2,0,0.3-0.1C39.7,3.6,39.6,3.6,39.5,3.7z M37.5,3.5c0.1,0,0.1-0.1,0.2-0.1l0,0C37.6,3.4,37.5,3.4,37.5,3.5z M38.4,4
			L38.4,4L38.4,4c-0.8,0.1-0.9,0.2-0.9,0.1C37.5,4.2,37.6,4.2,38.4,4z M36.4,3.6c0.2,0,0.3-0.1,0.5-0.1l0,0
			C36.7,3.5,36.6,3.5,36.4,3.6z M38.6,5.1L38.6,5.1L38.6,5.1c-0.1,0-0.2,0-0.4,0.1c-0.1,0-0.2,0-0.3,0.1c-0.2,0-0.5,0.1-0.7,0.1
			c-0.5,0.1-1,0.2-1.7,0.4c0.7-0.2,1.3-0.3,1.7-0.4c0.2,0,0.5-0.1,0.7-0.1c0.1,0,0.1,0,0.2,0c0.1,0,0.1,0,0.2,0
			C38.3,5.2,38.5,5.2,38.6,5.1z M38.5,5.4c-0.4,0.1-0.7,0.1-0.9,0.2c-0.2,0-0.3,0.1-0.3,0.1s0.1,0,0.3-0.1
			C37.8,5.6,38.1,5.5,38.5,5.4l0.7-0.1C39,5.4,38.7,5.4,38.5,5.4z M36.8,5.6c0.1,0,0.3-0.1,0.6-0.1c0.1,0,0.3-0.1,0.4-0.1
			c0.2,0,0.3-0.1,0.5-0.1l0.1,0.1l-0.1-0.1c-0.2,0-0.3,0.1-0.5,0.1s-0.3,0.1-0.4,0.1C37.1,5.5,36.9,5.6,36.8,5.6z M41.2,5.5
			c-0.3,0-0.5,0.1-0.7,0.1c-0.1,0-0.2,0-0.3,0s-0.2,0-0.3,0.1c-0.4,0.1-0.8,0.2-1.2,0.2C38.5,6,38.3,6,38.1,6s-0.3,0.1-0.5,0.1
			C37.8,6.1,38,6,38.1,6c0.2,0,0.4-0.1,0.5-0.1c0.4-0.1,0.7-0.1,1.2-0.2c0.1,0,0.2,0,0.3-0.1c0.1,0,0.2,0,0.3,0
			C40.7,5.6,40.9,5.5,41.2,5.5z M43.1,5.6l-0.9,0.1c-0.3,0-0.6,0.1-0.9,0.1l0.3-0.3l-0.3,0.3c0.3,0,0.6-0.1,0.9-0.1L43.1,5.6
			L43.1,5.6z M43.6,4.5c-0.1,0-0.3,0.1-0.7,0.1c-0.6,0-1,0.1-1.3,0.1c0.3,0,0.7,0,1.3-0.1C43.3,4.6,43.5,4.5,43.6,4.5z M43.8,5.2
			C43.7,5.2,43.7,5.2,43.8,5.2L43.8,5.2C43.7,5.2,43.7,5.2,43.8,5.2z M45.8,4c-0.2,0-0.5,0-0.8,0C45.3,4,45.6,4,45.8,4L45.8,4z
			 M54.3,5.4c-0.3,0-0.5-0.1-0.8-0.1l-0.8-0.1l-0.8-0.1h-0.2h-0.2h-0.4c-0.3,0-0.6,0-1-0.1c-0.1,0-0.2,0-0.3,0s-0.2,0-0.3,0
			c-0.2,0-0.4,0-0.6,0c0.2,0,0.4,0,0.6,0c0.1,0,0.2,0,0.3,0s0.2,0,0.3,0c0.4,0,0.7,0,1,0.1h0.4h0.2h0.2l0.8,0.1l0.8,0.1
			C53.7,5.3,54,5.4,54.3,5.4z M54.7,5.3C54.8,5.3,54.7,5.3,54.7,5.3S54.8,5.3,54.7,5.3z M57.4,5.9c-0.3-0.1-0.8-0.2-1.3-0.3
			c-0.2-0.1-0.5-0.1-0.7-0.2c-0.2,0-0.5-0.1-0.7-0.1l0,0c0.2,0,0.5,0.1,0.7,0.1s0.5,0.1,0.7,0.2C56.6,5.7,57.1,5.8,57.4,5.9z"/>
		
			<linearGradient id="SVGID_00000181045969037452901100000003125131557103316140_" gradientUnits="userSpaceOnUse" x1="-10.9773" y1="74.7642" x2="43.3967" y2="-1.2537" gradientTransform="matrix(1 0 0 -1 0 92)">
			<stop  offset="0" style="stop-color:#F34B2C"/>
			<stop  offset="1" style="stop-color:#D5CE47"/>
		</linearGradient>
		<path style="fill:url(#SVGID_00000181045969037452901100000003125131557103316140_);" d="M8.9,43.6c0,0-0.1,0.4-0.1,1.1
			c0,0.8,0,1.5,0.1,1.6c0,0.1,0-0.5,0-1.4c0-0.4,0-0.8,0-1C8.9,43.7,8.9,43.6,8.9,43.6z"/>
		
			<linearGradient id="SVGID_00000152971868260185214410000007940979835565419395_" gradientUnits="userSpaceOnUse" x1="22.0756" y1="98.4062" x2="76.4495" y2="22.3883" gradientTransform="matrix(1 0 0 -1 0 92)">
			<stop  offset="0" style="stop-color:#F34B2C"/>
			<stop  offset="1" style="stop-color:#D5CE47"/>
		</linearGradient>
		<path style="fill:url(#SVGID_00000152971868260185214410000007940979835565419395_);" d="M28.3,5.2c-0.1,0.1-0.1,0.1,0.1,0
			c0.1,0,0.2-0.1,0.4-0.2c0.2-0.1,0.4-0.2,0.6-0.3c0.5-0.2,1-0.4,1.4-0.6c0.4-0.2,0.7-0.3,0.8-0.4c0,0-0.2,0-0.4,0.1
			c-0.2,0.1-0.5,0.2-1,0.4c-0.3,0.1-0.6,0.2-0.8,0.3c-0.1,0.1-0.2,0.1-0.3,0.1c-0.1,0-0.2,0.1-0.3,0.1C28.6,5,28.4,5.1,28.3,5.2z"/>
		
			<linearGradient id="SVGID_00000026857749399521293560000004449703523644925832_" gradientUnits="userSpaceOnUse" x1="46.9667" y1="116.2103" x2="101.3406" y2="40.1923" gradientTransform="matrix(1 0 0 -1 0 92)">
			<stop  offset="0" style="stop-color:#F34B2C"/>
			<stop  offset="1" style="stop-color:#D5CE47"/>
		</linearGradient>
		<path style="fill:url(#SVGID_00000026857749399521293560000004449703523644925832_);" d="M85,28.4c-0.1-0.3-0.3-0.7-0.5-1
			c-0.2-0.4-0.4-0.7-0.5-0.9c-0.1-0.2-0.2-0.3-0.2-0.3s0,0,0,0.1s0.1,0.1,0.1,0.2c0.1,0.2,0.2,0.5,0.4,0.9c0.9,1.9,1.2,2.9,1.3,2.8
			c0.1,0.3,0.3,0.7,0.4,0.9c0.1,0.3,0.6,1.3,0.1,0c-0.1-0.4-0.3-0.8-0.4-1.1c-0.1-0.2-0.1-0.3-0.2-0.5c-0.1-0.1-0.1-0.3-0.2-0.4
			C85.2,28.7,85.1,28.6,85,28.4z"/>
		
			<linearGradient id="SVGID_00000134950793625619505170000009809741103727607452_" gradientUnits="userSpaceOnUse" x1="-8.2537" y1="76.7124" x2="46.1203" y2="0.6944" gradientTransform="matrix(1 0 0 -1 0 92)">
			<stop  offset="0" style="stop-color:#F34B2C"/>
			<stop  offset="1" style="stop-color:#D5CE47"/>
		</linearGradient>
		<path style="fill:url(#SVGID_00000134950793625619505170000009809741103727607452_);" d="M44.8,88.9c-1.1-0.1-1.9-0.1-2.1-0.1
			c0,0,0.6,0.1,1.5,0.2c0.3,0,0.6,0.1,0.8,0.1s0.4,0,0.6,0c0.3,0,0.5,0,0.6,0C46.4,89,45.8,88.9,44.8,88.9z"/>
		
			<linearGradient id="SVGID_00000042006579956055231420000010051893297374878083_" gradientUnits="userSpaceOnUse" x1="19.4406" y1="96.5214" x2="73.8145" y2="20.5035" gradientTransform="matrix(1 0 0 -1 0 92)">
			<stop  offset="0" style="stop-color:#F34B2C"/>
			<stop  offset="1" style="stop-color:#D5CE47"/>
		</linearGradient>
		<path style="fill:url(#SVGID_00000042006579956055231420000010051893297374878083_);" d="M30.4,11.2c-0.1,0-0.1,0.1-0.2,0.1
			s-0.1,0.1-0.2,0.1c-0.1,0.1-0.2,0.1-0.3,0.2c-0.2,0.1-0.3,0.2-0.3,0.2s0.1,0,0.3-0.1c0.2-0.1,0.6-0.3,1-0.5s0.7-0.4,1-0.5
			c0.2-0.1,0.3-0.2,0.3-0.2C32,10.5,31.3,10.8,30.4,11.2z"/>
		
			<linearGradient id="SVGID_00000031191711194694986060000008425617363822773678_" gradientUnits="userSpaceOnUse" x1="-3.3178" y1="80.2429" x2="51.0562" y2="4.225" gradientTransform="matrix(1 0 0 -1 0 92)">
			<stop  offset="0" style="stop-color:#F34B2C"/>
			<stop  offset="1" style="stop-color:#D5CE47"/>
		</linearGradient>
		<path style="fill:url(#SVGID_00000031191711194694986060000008425617363822773678_);" d="M48.1,83.9c0.8,0,1.6-0.1,1.8-0.1
			c0.1,0-0.1,0-0.4,0c-0.1,0-0.3,0-0.5,0s-0.5,0-0.7,0c-0.5,0-0.9,0-1.2,0s-0.5,0-0.5,0s0.1,0,0.4,0C47.2,83.9,47.6,83.9,48.1,83.9z
			"/>
		
			<linearGradient id="SVGID_00000177467984001337268520000014344041861594243479_" gradientUnits="userSpaceOnUse" x1="48.2104" y1="117.1" x2="102.5844" y2="41.082" gradientTransform="matrix(1 0 0 -1 0 92)">
			<stop  offset="0" style="stop-color:#F34B2C"/>
			<stop  offset="1" style="stop-color:#D5CE47"/>
		</linearGradient>
		<path style="fill:url(#SVGID_00000177467984001337268520000014344041861594243479_);" d="M83.8,24.3c0.3,0.7,0.6,1.2,0.8,1.6
			c0.2,0.4,0.4,0.8,0.7,1.3l0.1,0.1c0.1,0.1,0.1,0.2,0.2,0.3c0.1,0.1,0.1,0.3,0.2,0.4c0.1,0.3,0.3,0.5,0.3,0.7
			c0.2,0.4,0.2,0.4-0.2-0.7c-0.2-0.5-0.4-0.9-0.5-1.2c-0.2-0.4-0.3-0.7-0.5-1c-0.1-0.1-0.2-0.3-0.2-0.4c-0.1-0.1-0.2-0.3-0.2-0.4
			c-0.1-0.2-0.3-0.5-0.4-0.7c0-0.1-0.1-0.1-0.1-0.1c-0.2-0.4-0.4-0.6-0.5-0.9c-0.1-0.2-0.2-0.4-0.3-0.5c-0.1-0.2-0.2-0.2-0.1-0.1
			s0.2,0.4,0.3,0.6C83.5,23.8,83.7,24.1,83.8,24.3z"/>
		
			<linearGradient id="SVGID_00000078723392495554016450000012286541411928986267_" gradientUnits="userSpaceOnUse" x1="-12.7504" y1="73.4959" x2="41.6235" y2="-2.522" gradientTransform="matrix(1 0 0 -1 0 92)">
			<stop  offset="0" style="stop-color:#F34B2C"/>
			<stop  offset="1" style="stop-color:#D5CE47"/>
		</linearGradient>
		<path style="fill:url(#SVGID_00000078723392495554016450000012286541411928986267_);" d="M3.5,40.7c0-0.4,0.1-0.8,0.1-1.1
			s0-0.4,0-0.3c-0.1,0.2-0.2,1-0.2,1.9c0,0.6-0.1,1.1-0.1,1.4c0,0.3,0,0.4,0,0.2c0-0.1,0-0.2,0-0.3s0-0.3,0-0.5
			C3.4,41.6,3.5,41.1,3.5,40.7z"/>
		
			<linearGradient id="SVGID_00000164508760309130582590000004381784813299811771_" gradientUnits="userSpaceOnUse" x1="-1.636377e-02" y1="82.6043" x2="54.3576" y2="6.5864" gradientTransform="matrix(1 0 0 -1 0 92)">
			<stop  offset="0" style="stop-color:#F34B2C"/>
			<stop  offset="1" style="stop-color:#D5CE47"/>
		</linearGradient>
		<path style="fill:url(#SVGID_00000164508760309130582590000004381784813299811771_);" d="M53.4,84c0.4-0.1,0.7-0.1,1-0.2
			c0.2,0,0.4-0.1,0.3-0.1C54.6,83.7,54,83.8,53.4,84c-0.3,0-0.5,0-0.6,0c-0.2,0-0.3,0-0.4,0.1c-0.2,0-0.4,0.1-0.4,0.1
			c0.1,0,0.3,0,0.6,0c0.1,0,0.1,0,0.2,0c0.1,0,0.1,0,0.2,0C53.1,84,53.2,84,53.4,84z"/>
		
			<linearGradient id="SVGID_00000180333739666060633770000008390439056364928187_" gradientUnits="userSpaceOnUse" x1="20.0547" y1="96.9607" x2="74.4287" y2="20.9428" gradientTransform="matrix(1 0 0 -1 0 92)">
			<stop  offset="0" style="stop-color:#F34B2C"/>
			<stop  offset="1" style="stop-color:#D5CE47"/>
		</linearGradient>
		<path style="fill:url(#SVGID_00000180333739666060633770000008390439056364928187_);" d="M76.7,73.6c0.5-0.5,0.9-0.9,0.8-0.9
			c-0.1,0.1-0.6,0.5-1.2,1.1c-0.1,0.1-0.2,0.2-0.3,0.3c-0.1,0.1-0.2,0.2-0.3,0.3c-0.2,0.2-0.3,0.3-0.4,0.4
			C75.5,74.8,75.9,74.4,76.7,73.6z"/>
		
			<linearGradient id="SVGID_00000039093306887096771710000015027128357266043293_" gradientUnits="userSpaceOnUse" x1="5.1094" y1="86.2707" x2="59.4834" y2="10.2528" gradientTransform="matrix(1 0 0 -1 0 92)">
			<stop  offset="0" style="stop-color:#F34B2C"/>
			<stop  offset="1" style="stop-color:#D5CE47"/>
		</linearGradient>
		<path style="fill:url(#SVGID_00000039093306887096771710000015027128357266043293_);" d="M59.4,82.2c0.2-0.1,0.5-0.1,0.7-0.2
			s0.4-0.1,0.5-0.2c0.3-0.1,0.5-0.2,0.5-0.2s-0.3,0.1-0.9,0.3C59.9,82,59.7,82.1,59.4,82.2c-0.1,0-0.3,0-0.5,0.1
			c-0.3,0.1-0.5,0.2-0.5,0.2S58.8,82.4,59.4,82.2z"/>
		
			<linearGradient id="SVGID_00000065773841045291863830000017956653369161372295_" gradientUnits="userSpaceOnUse" x1="42.5493" y1="113.0507" x2="96.9234" y2="37.0327" gradientTransform="matrix(1 0 0 -1 0 92)">
			<stop  offset="0" style="stop-color:#F34B2C"/>
			<stop  offset="1" style="stop-color:#D5CE47"/>
		</linearGradient>
		<path style="fill:url(#SVGID_00000065773841045291863830000017956653369161372295_);" d="M87.5,41.5c-0.1-0.8-0.1-1.1-0.2-1.1
			c0,0,0,0.2,0,0.4s0.1,0.6,0.1,0.9c0.1,0.8,0.1,1,0.1,1.1C87.6,42.8,87.5,42.2,87.5,41.5z"/>
		
			<linearGradient id="SVGID_00000066481686170825776900000007803266380159497347_" gradientUnits="userSpaceOnUse" x1="-10.9538" y1="74.7811" x2="43.4202" y2="-1.2369" gradientTransform="matrix(1 0 0 -1 0 92)">
			<stop  offset="0" style="stop-color:#F34B2C"/>
			<stop  offset="1" style="stop-color:#D5CE47"/>
		</linearGradient>
		<path style="fill:url(#SVGID_00000066481686170825776900000007803266380159497347_);" d="M38.8,86.8c0.9,0.2,1.5,0.3,1.4,0.2
			C40.1,86.9,39.5,86.8,38.8,86.8c-0.9-0.3-1.5-0.4-1.4-0.4C37.5,86.4,38.1,86.6,38.8,86.8z"/>
		
			<linearGradient id="SVGID_00000154421502327062834400000003383077405230355379_" gradientUnits="userSpaceOnUse" x1="-12.8103" y1="73.4531" x2="41.5637" y2="-2.5648" gradientTransform="matrix(1 0 0 -1 0 92)">
			<stop  offset="0" style="stop-color:#F34B2C"/>
			<stop  offset="1" style="stop-color:#D5CE47"/>
		</linearGradient>
		<path style="fill:url(#SVGID_00000154421502327062834400000003383077405230355379_);" d="M22.9,75.3c-0.5-0.4-0.9-0.7-1.1-0.9
			c-0.2-0.2-0.2-0.1,0,0.1c0.1,0.1,0.2,0.2,0.4,0.3c0.1,0.1,0.1,0.1,0.2,0.2s0.2,0.1,0.3,0.2c0.1,0.1,0.3,0.3,0.5,0.4
			c0.1,0.1,0.2,0.2,0.4,0.3c0.1,0.1,0.1,0.1,0.2,0.2s0.2,0.1,0.3,0.2c-0.1,0,0,0.1,0.3,0.3c0.1,0.1,0.3,0.3,0.6,0.4
			c0.2,0.2,0.5,0.4,0.9,0.6c0.7,0.4,1.3,0.9,2,1.2c0.3,0.2,0.6,0.4,1,0.6c0.3,0.2,0.6,0.3,0.9,0.5c0.2,0.1,0.4,0.2,0.6,0.3
			c0.1,0.1,0.2,0.1,0.3,0.2c0.1,0,0.2,0.1,0.3,0.1c0.4,0.2,0.8,0.3,1.1,0.5c0.9,0.3,2.1,0.8,3.8,1.3c0.2,0.1,0.4,0.1,0.5,0.2
			c0.2,0,0.3,0.1,0.5,0.1c0.3,0.1,0.6,0.2,0.8,0.2c0.1,0,0.1,0,0.2,0c0.1,0,0.1,0,0.2,0c0.1,0,0.2,0,0.3,0.1c0.2,0,0.3,0,0.4,0.1
			c0.1,0-0.2-0.1-0.4-0.1s-0.3-0.1-0.5-0.1c-0.1,0-0.3-0.1-0.4-0.1c-0.3-0.1-0.6-0.2-0.8-0.2C36,82.4,35.5,82.2,35,82
			c-0.2-0.1-0.4-0.1-0.7-0.2c-0.2-0.1-0.4-0.2-0.7-0.2c-0.2-0.1-0.4-0.2-0.7-0.2c-0.1,0-0.2-0.1-0.3-0.1l-0.2-0.1L32.1,81
			c-0.5-0.2-0.9-0.4-1.4-0.6c-0.1,0-0.1-0.1-0.2-0.1s-0.1-0.1-0.2-0.1c-0.1-0.1-0.2-0.1-0.4-0.2c-0.2-0.1-0.5-0.3-0.8-0.4L29,79.4
			c-0.3-0.2-0.6-0.3-0.9-0.5c-0.3-0.1-0.5-0.3-0.6-0.4c-0.2-0.1-0.3-0.2-0.5-0.2c-0.1-0.1-0.2-0.1-0.3-0.2C26.6,78,26.6,78,26.4,78
			c-0.3-0.2-0.4-0.3-0.6-0.4l0.1,0.1l-0.1-0.1c-0.1-0.1-0.3-0.2-0.4-0.2l-0.3-0.3c-0.1-0.1-0.2-0.2-0.5-0.4
			c-0.1-0.1-0.3-0.2-0.4-0.3c-0.1-0.1-0.2-0.1-0.2-0.2c-0.1-0.1-0.2-0.1-0.3-0.2C23.6,75.9,23.8,76,22.9,75.3z"/>
		
			<linearGradient id="SVGID_00000083082795782451040690000015830828003352702627_" gradientUnits="userSpaceOnUse" x1="-6.1813" y1="78.1947" x2="48.1927" y2="2.1768" gradientTransform="matrix(1 0 0 -1 0 92)">
			<stop  offset="0" style="stop-color:#F34B2C"/>
			<stop  offset="1" style="stop-color:#D5CE47"/>
		</linearGradient>
		<path style="fill:url(#SVGID_00000083082795782451040690000015830828003352702627_);" d="M45.7,86.9c-0.5,0-0.7,0-0.7,0
			c0.2,0,0.8,0.1,1.5,0.1c0.2,0,0.4,0,0.5,0s0.2,0,0.3,0s0.1,0,0,0S47,87,47,87s-0.2,0-0.4,0C46.4,86.9,46,86.9,45.7,86.9z"/>
		
			<linearGradient id="SVGID_00000000186408055628358880000006201364816366239383_" gradientUnits="userSpaceOnUse" x1="-9.1385" y1="76.0795" x2="45.2354" y2="6.151603e-02" gradientTransform="matrix(1 0 0 -1 0 92)">
			<stop  offset="0" style="stop-color:#F34B2C"/>
			<stop  offset="1" style="stop-color:#D5CE47"/>
		</linearGradient>
		<path style="fill:url(#SVGID_00000000186408055628358880000006201364816366239383_);" d="M3.6,35.7c0.1-0.2,0.1-0.4,0.2-0.7
			c0-0.1,0.1-0.3,0.1-0.6C3.9,34.3,4,34.2,4,34c0-0.1,0.1-0.3,0.1-0.4c0.3-1,0.2-1,0.2-1.1c0-0.2,0.1-0.3,0.1-0.3
			c0.3-1.2,0-0.3-0.3,0.8c-0.1,0.3-0.2,0.6-0.3,0.9c-0.1,0.3-0.1,0.5-0.2,0.8C3.6,35.2,3.5,35.5,3.6,35.7c-0.1,0.2-0.1,0.3-0.2,0.4
			c0,0.1,0,0.2,0,0.3c0,0.2,0,0.2,0,0.3c0,0,0-0.1,0.1-0.2c0-0.1,0-0.2,0.1-0.3c0-0.1,0-0.1,0-0.2C3.5,35.9,3.5,35.8,3.6,35.7z"/>
		
			<linearGradient id="SVGID_00000060004058752403984110000007889389881432385463_" gradientUnits="userSpaceOnUse" x1="-16.5113" y1="70.8059" x2="37.8627" y2="-5.2121" gradientTransform="matrix(1 0 0 -1 0 92)">
			<stop  offset="0" style="stop-color:#F34B2C"/>
			<stop  offset="1" style="stop-color:#D5CE47"/>
		</linearGradient>
		<path style="fill:url(#SVGID_00000060004058752403984110000007889389881432385463_);" d="M12.6,62.1c0.1,0.2,0.2,0.4,0.3,0.5
			s0.1,0.3,0.2,0.3c0.1,0.2,0.1,0.2,0.1,0.2c0.1,0.1,0.1,0.1,0.1,0s-0.1-0.2-0.2-0.4c-0.1-0.2-0.2-0.4-0.3-0.7
			c-0.7-1.5-0.6-1.1-0.7-1.3c0,0,0,0,0,0.2C12.2,61.2,12.3,61.5,12.6,62.1z"/>
		
			<linearGradient id="SVGID_00000103241723685306426970000010354137645571788462_" gradientUnits="userSpaceOnUse" x1="41.1445" y1="112.0458" x2="95.5185" y2="36.0278" gradientTransform="matrix(1 0 0 -1 0 92)">
			<stop  offset="0" style="stop-color:#F34B2C"/>
			<stop  offset="1" style="stop-color:#D5CE47"/>
		</linearGradient>
		<path style="fill:url(#SVGID_00000103241723685306426970000010354137645571788462_);" d="M86.9,50v0.3c0,0.2,0,0.3,0,0.5
			s0,0.3,0,0.5c0,0.4-0.1,0.7,0,0.7c0,0,0-0.1,0.1-0.2c0-0.1,0-0.2,0.1-0.3c0-0.1,0.1-0.3,0.1-0.5c0.3-1.7,0.3-2.9,0.3-3.9l0.1-1.4
			c0-0.2,0-0.5,0-0.7v-0.7c0-0.7,0-1.2,0-1.5s-0.1-0.4-0.1-0.5c0-0.2,0-0.4-0.1-0.6c0-0.2-0.1-0.5-0.1-0.7c-0.1-0.5-0.1-1.1-0.3-1.7
			c-0.1-0.3-0.1-0.6-0.2-0.9c0-0.2-0.1-0.3-0.1-0.5l-0.1-0.5c-0.1-0.3-0.1-0.6-0.2-0.9c0-0.2-0.1-0.3-0.1-0.5c0-0.1-0.1-0.3-0.1-0.4
			c-0.2-0.6-0.3-1.1-0.4-1.4c0-0.1-0.1-0.2-0.1-0.1c0,0,0,0.1,0,0.2c0,0.1,0,0.2,0.1,0.4c0,0.1,0,0.3,0.2,1l0,0c0,0.1-0.1,0,0,0.5
			c0,0.3,0.1,0.7,0.2,1.2c0,0.1,0,0.3,0.1,0.4c0,0.1,0.1,0.3,0.1,0.5c0.1,0.4,0.1,0.8,0.2,1.3c0,0.2,0.1,0.3,0.1,0.5l0.1,0.5l0.1,1
			c0,0.3,0.1,0.7,0.1,1l0.1,1c0,0.1,0,0.2,0,0.2c0,0.1,0,0.2,0,0.3c0,0.2,0,0.3,0,0.5c0,0.3,0,0.6,0,0.7c0.1,0.5,0.2,0.9,0.2,1.3
			v0.9c0,0.3,0,0.6-0.1,0.9C87,49.1,87,49.6,87,49.8C86.9,49.7,86.9,49.8,86.9,50z"/>
		
			<linearGradient id="SVGID_00000036232808748335845840000004869661362325913782_" gradientUnits="userSpaceOnUse" x1="3.6208" y1="85.2059" x2="57.9948" y2="9.1879" gradientTransform="matrix(1 0 0 -1 0 92)">
			<stop  offset="0" style="stop-color:#F34B2C"/>
			<stop  offset="1" style="stop-color:#D5CE47"/>
		</linearGradient>
		<path style="fill:url(#SVGID_00000036232808748335845840000004869661362325913782_);" d="M11.1,19.9l0.6-0.8l0.3-0.4l0.2-0.2
			l0.2-0.2c0.2-0.3,0.5-0.6,0.8-0.9c0.1-0.2,0.3-0.3,0.4-0.5c0.1-0.2,0.3-0.3,0.4-0.5c0.2-0.3,0.2-0.2,0-0.1
			c-0.2,0.2-0.4,0.4-0.6,0.7c-0.3,0.3-0.6,0.7-0.9,1.1c-0.1,0.1-0.1,0.2-0.2,0.2c-0.1,0.1-0.1,0.2-0.2,0.3c-0.1,0.2-0.3,0.3-0.4,0.5
			c-0.3,0.4-0.5,0.7-0.7,1.1c-0.4,0.6-0.7,1.2-0.7,1.1c0,0,0.2-0.2,0.3-0.5c0.1-0.1,0.2-0.3,0.3-0.4C10.9,20.2,11,20.1,11.1,19.9z"
			/>
	</g>
	<g>
		<path class="st59" d="M63.1,32.2c1-0.9,1.9-1.8,2.9-2.6c0.4,0.2,0.7,0.5,1,0.9c1,1.2,1.5,2.5,1.5,4c0,6.1,0,12.3,0,18.4
			c0,2-1.2,4.4-3.9,5.2c-0.7,0.2-1.4,0.3-2.1,0.3c-4.1,0-8.1,0-12.2,0c-6.4,0-12.7,0-19.1,0c-1,0-2-0.2-2.9-0.6
			c-1.8-0.9-2.8-2.4-3-4.4c-0.2-0.6-0.2-1.2-0.2-1.8c0-5.7,0-11.5,0-17.2c0-1.5,0.5-2.8,1.4-3.9c0.7-0.8,1.5-1.3,2.5-1.6
			c0.7-0.2,1.5-0.3,2.2-0.3c6.6,0,13.3,0,19.9,0c0.8,0,1.5,0,2.3,0c0.1,0,0.1,0,0.3,0c-0.6,0.6-1.1,1.2-1.7,1.8
			c-0.5,0.6-1.1,1.2-1.6,1.8c-0.2,0-0.3,0-0.5,0c-6.4,0-12.9,0-19.3,0c-1.3,0-2.1,0.8-2.1,2.1c0,0.7,0,1.4,0,2.1c0,5.3,0,10.7,0,16
			c0,0.2,0,0.5,0,0.7c0.2,1.1,1,1.7,2.2,1.7c6.2,0,12.5,0,18.7,0c4.3,0,8.6,0,12.9,0c0.3,0,0.6,0,0.8-0.1c0.9-0.3,1.5-1,1.5-1.9
			c0-0.2,0-0.3,0-0.5c0-5.9,0-11.8,0-17.7c0-0.3,0-0.5-0.1-0.8c-0.2-0.9-0.7-1.4-1.6-1.6C63.2,32.2,63.1,32.2,63.1,32.2L63.1,32.2z"
			/>
		<path class="st59" d="M46.8,61.5c6.1,0,12.3,0,18.4,0c0.4,0,0.8,0,1.3,0c0.7,0,1.2,0.2,1.6,0.8c0.7,0.9,0.3,2.2-0.7,2.7
			c-0.3,0.1-0.7,0.2-1,0.2c-0.1,0-0.2,0-0.2,0c-12.9,0-25.8,0-38.7,0c-0.3,0-0.7-0.1-1-0.1c-0.8-0.2-1.4-1-1.3-1.8s0.7-1.5,1.5-1.6
			c0.2,0,0.5-0.1,0.7-0.1C33.9,61.5,40.3,61.5,46.8,61.5L46.8,61.5L46.8,61.5z"/>
		<path class="st59" d="M60.3,24.8c0.5,0.4,3.5,3.4,3.6,3.7c-1.2,1.1-2.4,2.2-3.6,3.2c-1.2,1.1-2.5,2.2-3.7,3.4
			c-1.5,1.4-3.1,2.8-4.6,4.2c-0.4,0.3-0.8,0.3-1.2,0.2c-0.7-0.3-1.2-0.8-1.5-1.5c-0.2-0.5-0.1-0.9,0.2-1.3c0.7-0.7,1.4-1.5,2-2.2
			c0.8-0.9,1.6-1.8,2.4-2.7c2-2.2,3.9-4.3,5.9-6.5C60,25.1,60.1,25,60.3,24.8L60.3,24.8z"/>
		<path class="st59" d="M41.1,47.4c0-0.1,0-0.1,0-0.2c0.5-1.3,0.6-2.7,1-4c0.2-0.9,0.4-1.7,0.9-2.5c1.1-2.1,3.5-2.3,5.1-1.6
			c1.1,0.5,1.7,1.3,2.1,2.5c0.2,0.8,0,1.5-0.3,2.2c-0.7,1.3-1.7,2.1-3,2.6s-2.6,0.8-3.9,0.9C42.2,47.3,41.7,47.4,41.1,47.4
			L41.1,47.4z"/>
		<path class="st59" d="M60.8,24.3c1.1-1.2,2.1-2.3,3.1-3.4c0.3-0.3,0.6-0.4,1-0.3c0.3,0.1,0.5,0.2,0.8,0.4c0.8,0.6,1.6,1.3,2.1,2.2
			c0.2,0.3,0.3,0.6,0.4,0.8c0.1,0.3,0,0.6-0.2,0.9c-0.8,0.7-1.6,1.5-2.4,2.2c-0.3,0.3-0.7,0.6-1,0.9C63.3,26.7,62,25.5,60.8,24.3
			L60.8,24.3z"/>
	</g>
</g>
</svg>
