<svg width="24" height="23" viewBox="0 0 24 23" fill="none" xmlns="http://www.w3.org/2000/svg">
<path d="M6.97487 12.9395C7.03819 12.4318 7.10151 11.8923 7.16483 11.3846C7.29148 10.3691 7.54478 9.38536 7.8614 8.43335C7.95639 8.14775 8.1147 7.92561 8.39966 7.79868C9.72946 7.164 11.091 6.688 12.5474 6.37066C12.7374 6.33892 12.9273 6.27546 13.1173 6.33892C13.244 6.37066 13.3706 6.43413 13.4656 6.49759C14.7321 7.38614 15.8719 8.40162 16.8851 9.54403C17.0751 9.76617 17.1384 10.02 17.1067 10.3056C17.0434 10.7817 17.0118 11.2894 16.9484 11.7654C16.7901 12.8126 16.5685 13.8281 16.2519 14.8118C16.1569 15.0657 15.9986 15.2561 15.7453 15.383C14.4155 16.0177 13.0223 16.5255 11.5975 16.8111C11.4076 16.8428 11.2176 16.9063 11.0276 16.8428C10.9326 16.8428 10.806 16.7793 10.7426 16.7159C9.4445 15.8273 8.30467 14.8118 7.25982 13.6377C7.06984 13.4473 7.00654 13.2251 7.00654 12.9395H6.97487Z" fill="#A2A2A2"/>
<path d="M0.927399 13.1618C0.927399 12.9079 1.02239 12.7175 1.1807 12.5271C2.28888 11.2895 3.55537 10.1788 4.9485 9.29025C5.2018 9.13158 5.42342 8.97291 5.67672 8.84597C5.7717 8.78251 5.8667 8.75077 5.93002 8.84597C6.02501 8.90944 6.025 9.00464 5.99333 9.09984C5.80336 9.82972 5.61341 10.5913 5.51842 11.3529C5.42344 11.9559 5.3601 12.5906 5.32843 13.1935C5.29677 13.733 5.29677 14.3042 5.32843 14.8754C5.32843 15.5101 5.39177 16.1447 5.48675 16.7794C5.64506 18.0805 5.96168 19.3498 6.37329 20.6192C6.40495 20.7461 6.43662 20.8413 6.49994 20.9365C6.5316 21.0317 6.49995 21.1269 6.43663 21.1904C6.34164 21.2539 6.27831 21.2539 6.18332 21.1904C5.29678 20.6509 4.50523 20.0163 3.80866 19.2546C2.6055 17.9218 1.71895 16.3986 1.24402 14.6533C1.11737 14.209 1.05405 13.733 0.927399 13.2887C0.927399 13.257 0.927399 13.2252 0.927399 13.1935V13.1618Z" fill="#A2A2A2"/>
<path d="M23.2492 9.79784C23.2492 10.0834 23.1542 10.2738 22.9642 10.4643C21.6661 11.924 20.1463 13.1616 18.4682 14.1454C18.3732 14.2088 18.3099 14.2088 18.2149 14.1454C18.1199 14.0819 18.1199 13.9867 18.1516 13.8915C18.3099 13.1934 18.4999 12.4952 18.5949 11.7653C18.6898 11.0989 18.7532 10.4643 18.8165 9.79784C18.8481 9.25837 18.8481 8.7189 18.8165 8.17942C18.8165 7.54475 18.7215 6.87834 18.6582 6.24366C18.5315 5.16471 18.3099 4.1175 17.9933 3.10202C17.8983 2.75295 17.7716 2.43561 17.6766 2.11827C17.645 1.99134 17.6767 1.89614 17.74 1.8644C17.835 1.80093 17.8983 1.83267 17.9616 1.8644C18.4366 2.21347 18.9115 2.49908 19.3547 2.87988C21.1595 4.4031 22.331 6.33886 22.9642 8.62369C23.0592 8.97276 23.1225 9.35357 23.1859 9.73438C23.1859 9.76611 23.1859 9.79784 23.1859 9.82958L23.2492 9.79784Z" fill="#A2A2A2"/>
<path d="M12.2941 22.8088C10.7427 22.8088 9.41284 22.5867 8.14635 22.1107C7.82973 21.9837 7.63977 21.7933 7.51312 21.4443C7.22816 20.4922 6.97486 19.5402 6.81655 18.5882C6.72156 17.9535 6.65824 17.3189 6.59492 16.6525C6.59492 16.3351 6.59491 16.0495 6.56325 15.7322C6.56325 15.637 6.56325 15.5418 6.6899 15.4783C6.81655 15.4148 6.87988 15.4783 6.9432 15.5735C8.52631 17.1919 10.3311 18.4613 12.3891 19.445C13.8139 20.1432 15.3337 20.6509 16.8851 20.9682C17.0434 20.9682 17.2017 21.0317 17.36 21.0634C17.4867 21.0634 17.55 21.1586 17.5817 21.2539C17.5817 21.3808 17.5183 21.4125 17.4234 21.476C16.4418 22.0155 15.397 22.3963 14.2888 22.6184C13.5606 22.7453 12.8324 22.8088 12.2624 22.8405L12.2941 22.8088Z" fill="#A2A2A2"/>
<path d="M18.6582 20.4922C18.3732 20.4287 18.0883 20.3653 17.8033 20.3018C16.1252 19.8893 14.5104 19.2546 13.0223 18.3978C12.959 18.366 12.8957 18.3026 12.864 18.2708C12.8007 18.1439 12.864 18.0487 13.0223 17.9852C13.3389 17.89 13.6872 17.7948 14.0039 17.6996C16.1252 17.0332 18.0883 15.986 19.8613 14.6215C21.0012 13.7646 22.046 12.7492 22.9642 11.6702C23.0275 11.575 23.1225 11.5433 23.2175 11.575C23.3125 11.6067 23.3442 11.7019 23.3442 11.7971C23.2809 13.479 22.9009 15.0975 22.1094 16.6207C21.4445 17.9218 20.5579 19.0642 19.4497 20.0479C19.3547 20.1431 19.2281 20.2383 19.1015 20.3018C18.9748 20.397 18.7848 20.4605 18.6265 20.4605L18.6582 20.4922Z" fill="#A2A2A2"/>
<path d="M0.800751 11.0991C0.895737 8.52864 1.78229 6.27554 3.3654 4.30805C3.80867 3.73684 4.34692 3.2291 4.91684 2.78483C5.17013 2.56269 5.45508 2.53096 5.7717 2.59443C7.67143 3.00697 9.47619 3.67338 11.1859 4.62539C11.2809 4.68886 11.3442 4.72059 11.3442 4.84752C11.3442 4.97446 11.2809 5.00619 11.1543 5.03793C10.4577 5.26006 9.72949 5.45047 9.03292 5.73607C7.16486 6.43421 5.45509 7.44969 3.90365 8.68731C2.92212 9.48065 2.00392 10.3692 1.1807 11.3529C1.11738 11.4481 1.02239 11.5116 0.927402 11.4481C0.800754 11.4164 0.800751 11.2895 0.800751 11.1943C0.800751 11.1943 0.800751 11.1625 0.800751 11.1308V11.0991Z" fill="#A2A2A2"/>
<path d="M17.5817 6.87845C17.5817 6.87845 17.5817 7.10059 17.5817 7.22752C17.5817 7.32272 17.5817 7.44966 17.455 7.48139C17.3284 7.54486 17.2651 7.48139 17.1701 7.38619C16.0303 6.24378 14.7638 5.2283 13.4023 4.40322C11.5659 3.29254 9.57116 2.49919 7.48146 2.05492C7.25983 1.99145 7.00652 1.95972 6.78489 1.92798C6.6899 1.92798 6.59492 1.86452 6.59492 1.73758C6.59492 1.64238 6.62659 1.57891 6.72158 1.51545C7.67144 1.00771 8.65297 0.626901 9.69782 0.404764C10.6794 0.182628 11.6609 0.119161 12.6424 0.182628C13.8139 0.246096 14.9537 0.468232 16.0619 0.880771C16.3469 0.975972 16.5368 1.19811 16.6318 1.48371C16.9168 2.40399 17.1701 3.356 17.3284 4.30802C17.455 5.16483 17.55 6.02164 17.5817 6.87845Z" fill="#A2A2A2"/>
</svg>
