<svg width="21" height="23" viewBox="0 0 21 23" fill="none" xmlns="http://www.w3.org/2000/svg">
<path d="M10.9855 22.819C10.9855 22.5652 10.9855 22.3748 10.9855 22.1526C10.9855 18.4715 10.9855 14.7904 10.9855 11.1093C10.9855 10.8871 10.9222 10.7919 10.7322 10.6967C7.40766 8.7927 4.08313 6.85694 0.758604 4.95291C0.726942 4.95291 0.66362 4.88945 0.600296 4.85771C1.32853 4.44517 2.05676 4.0009 2.78499 3.58836C4.24145 2.73155 5.6979 1.87474 7.18603 1.04966C9.33905 -0.0927548 11.5237 -0.124489 13.6451 1.04966C16.0198 2.35075 18.3311 3.74703 20.6741 5.11158C20.7057 5.11158 20.7374 5.14332 20.8007 5.17505C20.8007 5.27025 20.8007 5.36545 20.8007 5.46065C20.8007 8.06282 20.8007 10.665 20.8007 13.2354C20.8007 15.1077 20.0725 16.6944 18.8377 18.0272C18.2994 18.6302 17.5712 19.011 16.9063 19.3918C15.0066 20.4707 13.1385 21.5814 11.2388 22.6604C11.1754 22.6921 11.0805 22.7556 10.9855 22.7873V22.819ZM13.5501 18.3763C13.8984 18.1859 14.215 17.9955 14.5316 17.8051C15.2599 17.3608 16.0831 17.0117 16.653 16.3453C17.6662 15.2347 18.2678 13.9336 18.2678 12.4103C18.2678 10.5698 18.2678 8.72923 18.2678 6.88867C18.2678 6.69827 18.2044 6.57134 18.0461 6.47613C16.5264 5.58759 14.9749 4.73078 13.4868 3.84223C12.6952 3.36623 11.872 3.08062 10.9538 3.01715C9.8773 2.95369 8.83245 3.08062 7.88258 3.6201C7.21768 3.96917 6.58444 4.38171 5.91953 4.73078C5.85621 4.73078 5.82455 4.79424 5.76123 4.85771C6.07785 5.04811 6.3628 5.20678 6.64776 5.39719C6.77441 5.46065 6.83774 5.46065 6.96439 5.39719C7.376 5.14332 7.81927 4.88945 8.26254 4.66731C9.719 3.9057 11.1754 3.87397 12.6319 4.66731C14.0884 5.46065 15.5448 6.3492 17.0013 7.17428C17.1596 7.26948 17.2229 7.36468 17.2229 7.55508C17.2229 9.23697 17.2229 10.8871 17.2229 12.569C17.1913 14.2192 16.4314 15.4885 15.0382 16.3453C14.6266 16.5992 14.1833 16.8213 13.7717 17.0752C13.7084 17.1069 13.6134 17.2021 13.6134 17.2973C13.6134 17.6464 13.6134 17.9955 13.6134 18.4398L13.5501 18.3763ZM13.5501 13.7749C13.5501 13.7749 13.5818 13.7749 13.6134 13.7749C14.1517 13.0768 14.5316 12.2834 14.595 11.3949C14.6266 10.5698 14.595 9.74471 14.6266 8.91963C14.6266 8.76097 14.5633 8.6975 14.4683 8.63403C13.9301 8.31669 13.3601 8.03109 12.8535 7.68202C11.967 7.14254 11.0171 6.95214 10.004 7.04734C9.90897 7.04734 9.81397 7.07908 9.68732 7.11081C9.78231 7.17428 9.81398 7.20601 9.84564 7.20601C11.0171 7.87242 12.1886 8.57056 13.3601 9.23697C13.5185 9.33217 13.5501 9.42737 13.5501 9.58604C13.5501 10.8871 13.5501 12.2199 13.5501 13.521C13.5501 13.6162 13.5501 13.6797 13.5501 13.7749Z" fill="#A2A2A2"/>
<path d="M7.34434 18.3763C7.34434 17.9637 7.34434 17.5829 7.34434 17.2021C7.34434 17.1386 7.24936 17.0752 7.18604 17.0117C5.06467 15.7741 2.97497 14.5682 0.853609 13.3306C0.790285 13.2989 0.726961 13.2671 0.631975 13.2037C1.48685 12.6959 2.34172 12.2199 3.1966 11.7439C4.55807 12.5372 5.91954 13.3306 7.376 14.1557C7.376 13.8701 7.376 13.6162 7.376 13.3623C7.40766 13.0132 7.28102 12.8546 6.99606 12.6642C4.74805 11.3948 2.50004 10.0937 0.28369 8.79266C0.220365 8.76092 0.125381 8.66572 0.125381 8.60225C0.125381 7.68198 0.125381 6.72996 0.125381 5.74622C0.25203 5.80968 0.347012 5.87315 0.441998 5.93662C3.51322 7.71371 6.61611 9.4908 9.719 11.2679C9.90898 11.3631 9.97229 11.49 9.97229 11.7122C9.97229 15.2981 9.97229 18.884 9.97229 22.4699C9.97229 22.5651 9.97229 22.6286 9.97229 22.7555C9.87731 22.7238 9.81398 22.692 9.75066 22.6603C7.66096 21.4544 5.57126 20.2485 3.48156 19.0427C1.70848 18.0272 0.726953 16.4405 0.252021 14.5047C0.252021 14.4095 0.252021 14.3143 0.252021 14.2191C2.65834 15.6154 5.033 16.98 7.43933 18.3763H7.34434Z" fill="#A2A2A2"/>
</svg>
