<svg width="24" height="23" viewBox="0 0 24 23" fill="none" xmlns="http://www.w3.org/2000/svg">
<path d="M0.527116 21.0943C0.527116 14.6871 0.527116 8.28 0.527116 1.87286C0.527116 1.84 0.55994 1.77429 0.592751 1.74143C0.789612 0.952857 1.28176 0.394286 2.0692 0.0985713C2.20045 0.0657142 2.29888 0.0328571 2.43012 0C8.82813 0 15.2262 0 21.6242 0C21.6242 0 21.6898 0.0328571 21.7226 0.0328571C22.7725 0.262857 23.4943 1.15 23.4943 2.23429C23.4943 8.41143 23.4943 14.5886 23.4943 20.7657C23.4943 22.0143 22.51 23 21.2632 23C15.0949 23 8.9266 23 2.72545 23C1.74114 23 0.855233 22.3429 0.592751 21.39C0.592751 21.2914 0.527134 21.2257 0.494324 21.1271L0.527116 21.0943ZM21.1648 11.0729C20.3774 10.7771 18.9993 10.6129 18.1791 10.6786C17.4572 10.7443 16.7682 10.8757 16.112 11.2371C14.3074 12.2229 14.4059 14.4571 15.423 15.5086C15.8496 15.9357 16.3417 16.2314 16.8995 16.4943C17.3588 16.6914 17.851 16.8886 18.3103 17.1514C18.5728 17.2829 18.8353 17.48 19.0321 17.6771C19.4587 18.1371 19.3274 18.7614 18.8025 19.0243C18.54 19.1557 18.2447 19.2543 17.9822 19.2543C16.8667 19.3529 15.8495 19.0571 14.9308 18.3671C14.9308 18.3671 14.8652 18.3343 14.7996 18.3014V20.5357C16.2761 21.1271 17.8182 21.2586 19.3602 20.8643C21.0664 20.4371 21.8538 19.2543 21.6242 17.5129C21.4929 16.6257 20.968 16.0343 20.2461 15.6071C19.7868 15.3443 19.2618 15.1143 18.8025 14.8843C18.3759 14.6543 17.9166 14.4243 17.5229 14.1614C17.162 13.8986 17.0635 13.5043 17.2276 13.1757C17.3916 12.8471 17.6869 12.6829 18.015 12.5843C18.5728 12.42 19.1306 12.42 19.6884 12.5843C20.2133 12.7157 20.7055 12.9129 21.2305 13.0771V11.1057L21.1648 11.0729ZM13.8481 10.9086H5.84242V12.7486H8.6969V20.93H10.9608V12.7157H13.8153V10.8757L13.8481 10.9086Z" fill="#A2A2A2"/>
</svg>
