<?xml version="1.0" encoding="utf-8"?>
<!-- Generator: Adobe Illustrator 27.5.0, SVG Export Plug-In . SVG Version: 6.00 Build 0)  -->
<svg version="1.1" id="Layer_1" xmlns="http://www.w3.org/2000/svg" xmlns:xlink="http://www.w3.org/1999/xlink" x="0px" y="0px"
	 viewBox="0 0 30 21" style="enable-background:new 0 0 30 21;" xml:space="preserve">
<style type="text/css">
	.st0{fill:#A2A2A2;}
</style>
<path class="st0" d="M23.3,20.4c-0.3-0.1-0.7-0.1-1.1-0.2c-1.5-0.3-2.8-0.9-3.9-2.1c-0.6-0.7-1-1.5-1.2-2.3c-0.4-1.5-0.5-3,0-4.5
	c0.9-2.7,2.8-4.3,5.4-4.9c0.7-0.2,1.5-0.2,2.3-0.2c0.3,0,0.6,0,0.9,0V0.6h3.8c0,0,0,0.3,0,0.4c0,5.3,0,10.5,0,15.8
	c0,0.7,0.1,1.5,0.2,2.2v0.2c0,0-0.2,0.3-0.3,0.3c-1,0.3-2,0.6-2.9,0.8c-0.6,0.1-1.2,0.2-1.8,0.2L23.3,20.4L23.3,20.4z M25.7,9.2
	c-0.5,0-1,0-1.5,0c-1.4,0.2-2.6,0.8-3.2,2.2c-0.5,1.2-0.5,2.5,0.1,3.7c0.3,0.7,0.8,1.2,1.5,1.5c0.5,0.2,1.1,0.4,1.7,0.4
	c0.5,0,0.9,0,1.4-0.1V9.2L25.7,9.2z"/>
<path class="st0" d="M5.8,11C4,8.1,2.3,5.1,0.6,2.2c0,0,0-0.1,0-0.2c0.1,0,0.2,0,0.3,0c1.2,0,2.5,0,3.7,0C4.9,2,5,2.2,5.1,2.3
	c0.8,1.7,1.7,3.3,2.7,5c0.3,0.5,0.5,1,0.8,1.5c0-0.1,0.1-0.1,0.1-0.2c0.8-1.9,2-3.7,2.9-5.6c0.1-0.2,0.2-0.4,0.3-0.7
	c0.1-0.2,0.2-0.3,0.5-0.3c1.1,0,2.3,0,3.4,0c0.1,0,0.3,0.1,0.4,0.1c-1.7,2.9-3.5,5.7-5.2,8.6c1.9,3.1,3.7,6.2,5.6,9.3
	c-0.2,0-0.3,0-0.5,0c-1.2,0-2.5,0-3.7,0c-0.3,0-0.6-0.1-0.7-0.4c-1-2-2.1-4-3.2-5.9c-0.1-0.1-0.1-0.2-0.2-0.3
	c-0.4,0.7-0.8,1.4-1.2,2.1c-0.8,1.4-1.5,2.9-2.2,4.3c-0.1,0.3-0.3,0.4-0.6,0.4c-1.1,0-2.3,0-3.5,0c-0.1,0-0.2,0-0.4,0
	C2.2,17,4,14.1,5.8,11L5.8,11z"/>
</svg>
