<svg width="29" height="23" viewBox="0 0 29 23" fill="none" xmlns="http://www.w3.org/2000/svg">
<path d="M0.631653 12.1347V10.8971C0.631653 10.8971 0.789987 10.8019 0.853311 10.8019C1.73985 10.6432 2.30976 10.072 2.72136 9.31038C3.22796 8.35836 3.48127 7.34288 3.57626 6.29567C3.67124 5.24845 3.67122 4.16951 3.70288 3.09056C3.70288 1.63081 4.93773 0.393188 6.39418 0.393188C11.8401 0.393188 17.286 0.393188 22.7319 0.393188C24.1883 0.393188 25.3915 1.59907 25.3915 3.05882C25.3915 4.29644 25.3915 5.53406 25.5814 6.77167C25.7714 7.91409 26.0564 8.99304 26.8162 9.91332C27.1645 10.3576 27.6394 10.6432 28.1777 10.7701C28.2727 10.7701 28.3677 10.8336 28.4943 10.8653V12.1029C28.4943 12.1029 28.3993 12.1664 28.336 12.1981C27.1962 12.4203 26.5629 13.2136 26.1197 14.2291C25.7081 15.2446 25.5181 16.3235 25.4548 17.4025C25.4231 18.291 25.4231 19.1796 25.3915 20.0681C25.3915 21.3692 24.125 22.6068 22.8268 22.6068C17.3176 22.6068 11.8084 22.6068 6.33085 22.6068C5.00104 22.6068 3.76624 21.3692 3.73458 20.0364C3.73458 19.1161 3.73456 18.1641 3.67124 17.2438C3.57625 16.0379 3.38627 14.8638 2.81635 13.7848C2.40474 12.9915 1.80317 12.3885 0.853311 12.1981C0.789987 12.1981 0.72667 12.1664 0.663346 12.1029L0.631653 12.1347ZM16.906 11.1509C18.1091 10.7701 18.8374 9.97678 18.9641 8.7709C19.0907 7.66022 18.6474 6.77167 17.6975 6.137C16.9693 5.66099 16.1778 5.53406 15.3229 5.50232C13.9614 5.50232 12.5683 5.50232 11.2068 5.50232C10.6685 5.50232 10.4786 5.69273 10.4786 6.2322C10.4786 9.69118 10.4786 13.1819 10.4786 16.6409C10.4786 17.3073 10.6369 17.466 11.3018 17.466C12.6 17.466 13.8981 17.466 15.1963 17.466C15.8295 17.466 16.4944 17.4025 17.1276 17.2121C18.8691 16.7043 19.7556 15.3715 19.5023 13.5627C19.344 12.2616 18.2991 11.3413 16.8743 11.1192L16.906 11.1509Z" fill="#A2A2A2"/>
<path d="M12.4733 15.8475V12.1029C12.4733 12.1029 12.6632 12.0712 12.7582 12.0712C13.6764 12.0712 14.5629 12.0712 15.4811 12.0712C16.0194 12.0712 16.526 12.2298 16.9376 12.5789C17.8558 13.2771 17.7292 14.9907 16.716 15.4984C16.3044 15.7205 15.7978 15.8475 15.3228 15.8792C14.4363 15.9427 13.5814 15.8792 12.6949 15.8792C12.6315 15.8792 12.5682 15.8792 12.4733 15.8475Z" fill="#A2A2A2"/>
<path d="M12.4733 10.6114V7.15247C12.4733 7.15247 12.6949 7.15247 12.8215 7.15247C13.5498 7.15247 14.3096 7.15247 15.0379 7.15247C15.2595 7.15247 15.5128 7.1842 15.7344 7.24767C16.5893 7.4698 17.0009 7.97754 17.0009 8.83436C17.0009 9.6277 16.526 10.2624 15.7344 10.4528C15.1012 10.5797 14.4363 10.6114 13.7714 10.6432C13.3598 10.6432 12.9482 10.6432 12.5049 10.6432L12.4733 10.6114Z" fill="#A2A2A2"/>
</svg>
