<svg width="16" height="23" viewBox="0 0 16 23" fill="none" xmlns="http://www.w3.org/2000/svg">
<path d="M3.93878 15.3152C1.82995 14.8326 0.570957 13.3204 0.633907 11.4221C0.696858 9.52374 1.95586 8.07587 4.00174 7.68977C3.68699 7.59325 3.46665 7.56108 3.24632 7.46455C1.57814 6.91758 0.445039 5.14797 0.665365 3.47488C0.948641 1.44787 2.42797 0.0321748 4.34795 0C6.89743 0 9.41546 0 11.9649 0C13.8849 0 15.3957 1.51222 15.616 3.5714C15.7734 5.21232 14.7348 7.07845 12.7518 7.5289C12.6259 7.5289 12.5315 7.59325 12.4371 7.62542C12.9407 7.85065 13.5387 8.01152 14.0108 8.39762C14.483 8.78372 14.9236 9.26634 15.2069 9.81331C15.4587 10.3603 15.616 11.036 15.616 11.6473C15.5846 13.4169 14.3256 14.9291 12.6889 15.2509C11.6502 15.4439 10.6745 15.283 9.79316 14.6717C8.91185 14.0604 8.47121 13.1917 8.12498 12.2264C8.12498 14.4787 8.12498 16.7309 8.12498 18.9831C8.12498 19.4979 8.06203 20.0449 7.90465 20.5275C7.27515 22.3293 5.54402 23.1658 4.06468 22.9728C2.11323 22.7154 0.822748 21.2675 0.696847 19.3049C0.602422 17.5996 1.79847 15.9587 3.46665 15.5082C3.62403 15.4761 3.81288 15.4117 4.0332 15.3474L3.93878 15.3152ZM8.0935 10.8107C8.53415 9.16982 9.54136 8.10805 11.1781 7.68977H8.0935V10.8107Z" fill="#A2A2A2"/>
</svg>
