<svg width="308" height="128" viewBox="0 0 308 128" fill="none" xmlns="http://www.w3.org/2000/svg">
<g clip-path="url(#clip0_1_7)">
<path d="M241.073 59.2103L232.381 37.7775L199.946 39.2126L198.76 15.2266L177.446 15.6366L178.632 60.6453L241.073 59.2103Z" fill="url(#paint0_linear_1_7)"/>
<path d="M247.434 52.8819L232.362 37.7267L181.46 88.9118L196.532 104.067L247.434 52.8819Z" fill="#6B6B6B"/>
<path d="M95.7843 88.3029L110.853 73.1322L90.7431 52.9109L127.96 15.4875L112.891 0.33548L60.5695 52.9482" fill="url(#paint1_linear_1_7)"/>
<path d="M198.667 15.152L183.599 0L144.029 39.7903L123.289 60.6453L112.984 71.0076L110.853 73.1322L95.7844 88.3029L110.871 103.529L128.089 86.1969L128.126 86.2341L198.741 15.2266L198.667 15.152Z" fill="#6B6B6B"/>
<path d="M45.3695 7.32236L0.0110168 52.933L15.1611 68.1673L60.5196 22.5567L45.3695 7.32236Z" fill="url(#paint2_linear_1_7)"/>
<path d="M60.5051 83.3356L15.1466 37.7249L-0.00343854 52.9592L45.355 98.5699L60.5051 83.3356Z" fill="#6B6B6B"/>
<path d="M262.644 98.5576L308.002 52.9469L292.852 37.7126L247.494 83.3233L262.644 98.5576Z" fill="url(#paint3_linear_1_7)"/>
<path d="M247.49 22.5399L292.848 68.1505L307.998 52.9162L262.64 7.30557L247.49 22.5399Z" fill="#6B6B6B"/>
<path d="M63.3867 126.714L63.7944 126.453C64.2022 127.161 64.6656 127.534 65.4625 127.534C66.2966 127.534 66.9267 126.9 66.9267 125.708V121.086H67.4271V125.67C67.4271 126.453 67.1862 127.068 66.8155 127.441C66.4634 127.795 65.9815 127.981 65.4255 127.981C64.4246 127.981 63.7944 127.46 63.3682 126.714H63.3867Z" fill="#6B6B6B"/>
<path d="M77.0834 121.086H81.9023V121.552H77.5838V124.235H81.4575V124.701H77.5838V127.441H81.9393V127.907H77.0649V121.104L77.0834 121.086Z" fill="#6B6B6B"/>
<path d="M91.2991 121.086H94.1348C94.9688 121.086 95.6361 121.347 96.0438 121.757C96.3589 122.073 96.5628 122.539 96.5628 123.024C96.5628 124.179 95.7287 124.832 94.5796 124.981L96.8222 127.888H96.1921L94.0421 125.074H91.818V127.888H91.3176V121.086H91.2991ZM94.0792 124.608C95.2098 124.608 96.0438 124.03 96.0438 123.042C96.0438 122.111 95.321 121.533 94.0977 121.533H91.781V124.589H94.0607L94.0792 124.608Z" fill="#6B6B6B"/>
<path d="M105.737 124.496C105.737 122.614 107.109 120.955 109.147 120.955C111.186 120.955 112.539 122.595 112.539 124.459C112.539 126.341 111.168 128 109.129 128C107.09 128 105.737 126.36 105.737 124.496ZM112.02 124.496C112.02 122.8 110.797 121.421 109.129 121.421C107.461 121.421 106.256 122.782 106.256 124.459C106.256 126.155 107.479 127.534 109.147 127.534C110.816 127.534 112.02 126.174 112.02 124.496Z" fill="#6B6B6B"/>
<path d="M121.992 121.086H122.473L125.198 125.111L127.922 121.086H128.404V127.888H127.904V121.98L125.217 125.894H125.179L122.492 121.98V127.888H122.01V121.086H121.992Z" fill="#6B6B6B"/>
<path d="M138.135 121.086H142.954V121.552H138.635V124.235H142.509V124.701H138.635V127.441H142.991V127.907H138.116V121.104L138.135 121.086Z" fill="#6B6B6B"/>
<path d="M162.989 121.086H163.471L166.195 125.111L168.92 121.086H169.402V127.888H168.901V121.98L166.214 125.894H166.177L163.489 121.98V127.888H163.008V121.086H162.989Z" fill="#6B6B6B"/>
<path d="M181.709 121.03H182.19L185.341 127.888H184.785L183.933 125.987H179.929L179.077 127.888H178.558L181.709 121.03ZM183.729 125.521L181.949 121.589L180.152 125.521H183.729Z" fill="#6B6B6B"/>
<path d="M194.516 121.086H194.997L199.668 127.012V121.086H200.15V127.888H199.779L195.016 121.831V127.888H194.534V121.086H194.516Z" fill="#6B6B6B"/>
<path d="M209.88 121.086H212.142C214.273 121.086 215.737 122.558 215.737 124.478C215.737 126.416 214.273 127.907 212.142 127.907H209.88V121.104V121.086ZM210.381 121.552V127.422H212.123C214.013 127.422 215.2 126.136 215.2 124.496C215.2 122.856 214.013 121.533 212.123 121.533H210.381V121.552Z" fill="#6B6B6B"/>
<path d="M227.321 121.03H227.803L230.954 127.888H230.398L229.545 125.987H225.542L224.689 127.888H224.17L227.321 121.03ZM229.341 125.521L227.562 121.589L225.764 125.521H229.341Z" fill="#6B6B6B"/>
<path d="M240.128 121.086H240.629V127.422H244.595V127.888H240.11V121.086H240.128Z" fill="#6B6B6B"/>
</g>
<defs>
<linearGradient id="paint0_linear_1_7" x1="185.508" y1="29.1112" x2="213.37" y2="56.8007" gradientUnits="userSpaceOnUse">
<stop stop-color="#3A3A3A"/>
<stop offset="0.01" stop-color="#3D3D3D"/>
<stop offset="0.1" stop-color="#515151"/>
<stop offset="0.19" stop-color="#606060"/>
<stop offset="0.31" stop-color="#686868"/>
<stop offset="0.5" stop-color="#6B6B6B"/>
<stop offset="0.69" stop-color="#686868"/>
<stop offset="0.81" stop-color="#606060"/>
<stop offset="0.9" stop-color="#515151"/>
<stop offset="0.99" stop-color="#3D3D3D"/>
<stop offset="1" stop-color="#3A3A3A"/>
</linearGradient>
<linearGradient id="paint1_linear_1_7" x1="87.1289" y1="27.0239" x2="122.26" y2="61.9788" gradientUnits="userSpaceOnUse">
<stop stop-color="#6B6B6B"/>
<stop offset="0.27" stop-color="#646464"/>
<stop offset="0.66" stop-color="#505050"/>
<stop offset="1" stop-color="#3A3A3A"/>
</linearGradient>
<linearGradient id="paint2_linear_1_7" x1="52.746" y1="15.1285" x2="22.6102" y2="45.0977" gradientUnits="userSpaceOnUse">
<stop stop-color="#6B6B6B"/>
<stop offset="0.27" stop-color="#646464"/>
<stop offset="0.66" stop-color="#505050"/>
<stop offset="1" stop-color="#3A3A3A"/>
</linearGradient>
<linearGradient id="paint3_linear_1_7" x1="255.278" y1="90.7533" x2="285.414" y2="60.7841" gradientUnits="userSpaceOnUse">
<stop stop-color="#6B6B6B"/>
<stop offset="0.39" stop-color="#686868"/>
<stop offset="0.62" stop-color="#606060"/>
<stop offset="0.81" stop-color="#515151"/>
<stop offset="0.98" stop-color="#3D3D3D"/>
<stop offset="1" stop-color="#3A3A3A"/>
</linearGradient>
<clipPath id="clip0_1_7">
<rect width="308" height="128" fill="white"/>
</clipPath>
</defs>
</svg>
