<?xml version="1.0" encoding="utf-8"?>
<!-- Generator: Adobe Illustrator 27.5.0, SVG Export Plug-In . SVG Version: 6.00 Build 0)  -->
<svg version="1.1" id="Layer_1" xmlns="http://www.w3.org/2000/svg" xmlns:xlink="http://www.w3.org/1999/xlink" x="0px" y="0px"
	 viewBox="0 0 22 23" style="enable-background:new 0 0 22 23;" xml:space="preserve">
<style type="text/css">
	.st0{fill:#A2A2A2;}
</style>
<path class="st0" d="M9,23c-1.1-0.1-2.3-0.2-3.4-0.4c-1.3-0.3-2.6-0.7-3.8-1.1c-0.8-0.3-1.1-0.9-1.1-1.8c0.1-4.3,0-8.6,0-12.9
	c0-0.2,0-0.4,0-0.6c3.7,2.2,7.8,2.2,11.9,2.1c2-0.1,4.1-0.5,6.1-0.9c0.9-0.2,1.7-0.7,2.6-1.1c0,1,0,2.2,0,3.3c0,3.4,0,6.8,0,10.2
	c0,0.8-0.3,1.3-1,1.6c-1.3,0.4-2.6,0.9-3.9,1.1c-1.1,0.2-2.3,0.3-3.4,0.4H9L9,23z M12.6,18c0,0,0.1-0.1,0.2-0.1
	c1.6-0.7,2.2-2.7,1.7-4.4c-0.4-1.5-1.7-2.3-3.5-2.2c-1.6,0.1-2.9,1.4-3.1,3.1c-0.2,1.8,0.8,3.4,2.4,3.7c0.6,0.1,1,0.4,1.4,0.8
	c0.9,1,2,1.6,3.4,1.1v-1.2C14.2,18.9,13.3,18.9,12.6,18L12.6,18z M2.5,17.8c1.1,0.4,2.1,0.5,3.2,0.2c0.8-0.2,1.3-0.6,1.5-1.5
	c0.1-1-0.2-1.7-1.1-2.2c-0.5-0.2-1-0.4-1.4-0.7c-0.2-0.1-0.5-0.5-0.4-0.7c0.1-0.2,0.4-0.5,0.7-0.5c0.6,0,1.3,0.1,1.9,0.2v-1.4
	c-0.9,0-1.7-0.1-2.5,0c-1.1,0.1-1.7,0.8-1.8,1.7c-0.1,0.8,0.4,1.6,1.3,2.1c0.3,0.1,0.6,0.2,0.8,0.4c0.4,0.2,1.1,0.4,0.8,1.1
	C5.3,17,4.7,17,4.2,17c-0.4,0-0.8-0.2-1.1-0.3c-0.2-0.1-0.3-0.2-0.5-0.2L2.5,17.8L2.5,17.8z M15.7,18.1h4v-1.3h-2.5v-5.5h-1.5
	L15.7,18.1L15.7,18.1z"/>
<path class="st0" d="M11,6.7C8.3,6.5,5.6,6.3,3,5.5C2.6,5.4,2.2,5.3,1.9,5.1C0.7,4.6,0.2,3.5,0.7,2.3c0.2-0.4,0.7-0.9,1.2-1
	c1.5-0.5,3.1-1,4.7-1.1C9.1,0,11.7,0,14.2,0.1c2,0.1,3.9,0.4,5.8,1.2c1.3,0.6,1.8,1.5,1.3,2.8c-0.1,0.4-0.6,0.8-1,0.9
	c-1.2,0.4-2.4,0.9-3.6,1.1C14.8,6.4,12.9,6.5,11,6.7L11,6.7z M19.6,2.5c-0.4-0.1-0.6-0.3-0.9-0.3c-1.5-0.2-3-0.4-4.5-0.5
	C10.8,1.6,7.3,1.6,3.8,2.1C3.3,2.2,2.9,2.4,2.3,2.5C4.2,3.8,17.7,3.8,19.6,2.5L19.6,2.5z"/>
<path class="st0" d="M13,14.5c0,1.6-0.7,2.4-1.9,2.3c-0.6-0.1-1.1-0.4-1.3-1c-0.3-0.8-0.3-1.5,0-2.3c0.3-0.7,0.9-1,1.7-1
	c0.8,0.1,1.1,0.5,1.3,1.2C12.9,14.1,13,14.4,13,14.5L13,14.5z"/>
</svg>
