<?xml version="1.0" encoding="utf-8"?>
<!-- Generator: Adobe Illustrator 27.5.0, SVG Export Plug-In . SVG Version: 6.00 Build 0)  -->
<svg version="1.1" id="Layer_1" xmlns="http://www.w3.org/2000/svg" xmlns:xlink="http://www.w3.org/1999/xlink" x="0px" y="0px"
	 viewBox="0 0 99 90" style="enable-background:new 0 0 99 90;" xml:space="preserve">
<style type="text/css">
	.st0{fill:url(#SVGID_1_);}
	.st1{fill:url(#SVGID_00000179635662826886418310000004804475663925990807_);}
	.st2{fill:url(#SVGID_00000045603648715656369380000005090170199719678399_);}
	.st3{fill:url(#SVGID_00000118372700812420246540000016966507365466372503_);}
	.st4{fill:url(#SVGID_00000119094467450573873900000006237000556772754610_);}
	.st5{fill:url(#SVGID_00000035490858687376603640000005701024331820387744_);}
	.st6{fill:url(#SVGID_00000102536224160540684990000001364870888805631141_);}
	.st7{fill:url(#SVGID_00000023251973691590138270000007156255458249968548_);}
	.st8{fill:url(#SVGID_00000036231921973618389490000004049952713086218931_);}
	.st9{fill:url(#SVGID_00000120553988977020778400000002278667964697470888_);}
	.st10{fill:url(#SVGID_00000075845326285803089600000004758891458801764504_);}
	.st11{fill:url(#SVGID_00000081639973333188604830000008152490712215496619_);}
	.st12{fill:url(#SVGID_00000152247362231410619050000009053347703812361351_);}
	.st13{fill:url(#SVGID_00000114787642124773067700000016118751512212253838_);}
	.st14{fill:url(#SVGID_00000119819886603667864130000009710024467620814220_);}
	.st15{fill:url(#SVGID_00000078731586897547900130000004372941548615668609_);}
	.st16{fill:url(#SVGID_00000084522130818135584900000016466245373982918810_);}
	.st17{fill:url(#SVGID_00000127762707349515783640000001355228929014507686_);}
	.st18{fill:url(#SVGID_00000130645144213930784050000002271436191367687564_);}
	.st19{fill:url(#SVGID_00000140712240025287800600000004724819306804986024_);}
	.st20{fill:url(#SVGID_00000083077641610738181730000017812578204868279742_);}
	.st21{fill:url(#SVGID_00000147921409049823047520000009542467619945603768_);}
	.st22{fill:url(#SVGID_00000150789285053384818140000018115994287286165165_);}
	.st23{fill:url(#SVGID_00000124153189996471914500000017999485392774035609_);}
	.st24{fill:url(#SVGID_00000069381534645105521780000008598675635198000571_);}
	.st25{fill:url(#SVGID_00000127007681690926545980000012929221842392228520_);}
	.st26{fill:url(#SVGID_00000045617935226274135380000003610250434699856050_);}
	.st27{fill:url(#SVGID_00000114785928236425646910000005621614699453035440_);}
	.st28{fill:url(#SVGID_00000052825602537751080450000006523682215122028950_);}
	.st29{fill:url(#SVGID_00000059283344128474032830000007697293989563236756_);}
	.st30{fill:url(#SVGID_00000121999110949726476360000010796451656645089185_);}
	.st31{fill:url(#SVGID_00000052788472931996336150000003892809127085543835_);}
	.st32{fill:url(#SVGID_00000057121420174940571940000016707296411851835557_);}
	.st33{fill:url(#SVGID_00000150795382192859252970000004001356923372511132_);}
	.st34{fill:url(#SVGID_00000178927765035672593210000011913503946980683683_);}
	.st35{fill:url(#SVGID_00000148636026531383888070000010420187666890484104_);}
	.st36{fill:url(#SVGID_00000129911737239268464250000012238357032010235043_);}
	.st37{fill:url(#SVGID_00000137853544919243042260000009690408844083468709_);}
	.st38{fill:url(#SVGID_00000065049459927684940710000015783332577316693653_);}
	.st39{fill:url(#SVGID_00000066496809164515427470000009071811240758175890_);}
	.st40{fill:url(#SVGID_00000042717849674756047470000017432584302755835053_);}
	.st41{fill:url(#SVGID_00000090257352723339315800000010632735971941470090_);}
	.st42{fill:url(#SVGID_00000124881060368418416900000017210681744106266294_);}
	.st43{fill:url(#SVGID_00000129925849585440025290000004102721874197803939_);}
	.st44{fill:url(#SVGID_00000170968242259426414650000003746631239431085753_);}
	.st45{fill:url(#SVGID_00000150095363349306165140000003003461631534240406_);}
	.st46{fill:url(#SVGID_00000122716316654695115560000007148526413066180008_);}
	.st47{fill:url(#SVGID_00000137828569837685610640000001161925811509611961_);}
	.st48{fill:url(#SVGID_00000117646049224569631720000013288198715752095404_);}
	.st49{fill:url(#SVGID_00000156547210776306871650000014265797520682980506_);}
	.st50{fill:url(#SVGID_00000173140147547300879180000016928784519436980625_);}
	.st51{fill:url(#SVGID_00000013904329682368750520000003968837177027998848_);}
	.st52{fill:url(#SVGID_00000119113723967356563730000006162671704632665758_);}
	.st53{fill:url(#SVGID_00000103245113622136187450000004974542379995269823_);}
	.st54{fill:url(#SVGID_00000021104592368092758270000005334821984152901259_);}
	.st55{fill:url(#SVGID_00000165231677167198369580000013275070634447072182_);}
	.st56{fill:url(#SVGID_00000093869719930018307510000010541227054424461748_);}
	.st57{fill:url(#SVGID_00000018951056463692698230000011107910633051892883_);}
	.st58{fill:url(#SVGID_00000060023897126958738550000011469107552695937966_);}
	.st59{clip-path:url(#SVGID_00000075123905408082057760000001172774209371924660_);}
	.st60{fill:#C3C3C3;}
</style>
<g>
	<g>
		
			<linearGradient id="SVGID_1_" gradientUnits="userSpaceOnUse" x1="-8.6527" y1="73.5658" x2="45.7213" y2="-2.4522" gradientTransform="matrix(1 0 0 -1 0 92)">
			<stop  offset="0" style="stop-color:#F34B2C"/>
			<stop  offset="1" style="stop-color:#D5CE47"/>
		</linearGradient>
		<path class="st0" d="M43.6,87.2c-0.3-0.1-0.6-0.1-0.8-0.2c-0.3-0.1-0.5-0.1-0.8-0.2s-0.5-0.1-0.7-0.2s-0.5-0.1-0.7-0.2
			c-0.9-0.2-1.5-0.4-1.9-0.5c-0.3-0.1-0.7-0.2-1.3-0.4c-0.1,0-0.3-0.1-0.4-0.1c-0.1,0-0.2,0-0.2-0.1c-0.1,0-0.2-0.1-0.2-0.1
			c-0.3-0.1-0.7-0.3-1.1-0.4c-0.2-0.1-0.4-0.1-0.6-0.2s-0.3-0.2-0.5-0.2c-0.3-0.1-0.6-0.3-0.9-0.4c-0.6-0.2-1-0.5-1.4-0.6
			c-0.4-0.2-0.7-0.3-0.9-0.4c-0.2-0.1-0.4-0.2-0.5-0.2c-0.2-0.1-0.1,0,0.3,0.3c0.4,0.2,1,0.5,1.7,0.9c0.2,0.1,0.4,0.2,0.6,0.3
			c0.2,0.1,0.4,0.2,0.6,0.3c0.4,0.2,0.8,0.3,1.1,0.5c0.4,0.1,0.8,0.3,1.2,0.4c0.2,0.1,0.4,0.1,0.6,0.2c0.2,0.1,0.4,0.1,0.6,0.2
			c0.5,0.2,1,0.3,1.5,0.5c0.4,0.1,0.8,0.2,1,0.2s0.4,0.1,0.7,0.1c0.2,0.1,0.5,0.1,0.9,0.2s0.8,0.2,1.3,0.3c0.1,0,0.3,0.1,0.4,0.1
			c0.1,0,0.3,0.1,0.5,0.1c0.3,0.1,0.7,0.1,1,0.2c0.2,0,0.3,0.1,0.5,0.1s0.3,0,0.5,0.1c0.3,0,0.6,0.1,0.9,0.1c0.3,0,0.5,0.1,0.8,0.1
			c0.2,0,0.4,0,0.5,0s0.1,0-0.1-0.1c-0.2,0-0.5-0.1-0.9-0.2s-0.9-0.2-1.4-0.2c-0.2,0-0.5-0.1-0.7-0.1C44.1,87.2,43.8,87.2,43.6,87.2
			z"/>
		
			<linearGradient id="SVGID_00000173138585687856237580000013469312644959855006_" gradientUnits="userSpaceOnUse" x1="-14.3004" y1="69.5262" x2="40.0735" y2="-6.4918" gradientTransform="matrix(1 0 0 -1 0 92)">
			<stop  offset="0" style="stop-color:#F34B2C"/>
			<stop  offset="1" style="stop-color:#D5CE47"/>
		</linearGradient>
		<path style="fill:url(#SVGID_00000173138585687856237580000013469312644959855006_);" d="M28.5,82.2c-0.5-0.3-0.9-0.6-1.3-0.8
			c-0.1-0.1-0.2-0.1-0.3-0.2c-0.1-0.1-0.2-0.1-0.3-0.2c-0.2-0.1-0.4-0.3-0.6-0.4c-0.3-0.2-0.6-0.4-0.8-0.6c-0.2-0.2-0.4-0.4-0.6-0.5
			c-0.4-0.3-0.7-0.6-1.1-0.9c-0.3-0.3-0.7-0.6-1-0.9s-0.7-0.6-1-0.9s-0.7-0.6-1-0.9l-0.4-0.4c-0.1-0.1-0.2-0.2-0.2-0.2
			c-0.2-0.2-0.3-0.3-0.5-0.5c-0.6-0.6-0.9-0.9-1-0.9c0,0,0,0,0,0.1c0.1,0.1,0.2,0.2,0.4,0.4c0.7,0.9,1.7,2,3.6,3.6
			c0.3,0.2,0.5,0.4,0.7,0.6s0.4,0.3,0.6,0.5c0.4,0.3,0.7,0.6,1,0.8c0.1,0.1,0.1,0.1,0.2,0.2s0.1,0.1,0.2,0.2s0.3,0.2,0.4,0.3
			c0.3,0.2,0.6,0.4,0.9,0.7c0.2,0.2,0.5,0.4,0.8,0.5c0.3,0.2,0.5,0.4,0.8,0.6c0.1,0.1,0.3,0.2,0.4,0.3c0.1,0.1,0.3,0.2,0.4,0.3
			c0.3,0.2,0.6,0.4,0.9,0.5l0.5,0.3c0.2,0.1,0.3,0.2,0.5,0.2c0.3,0.2,0.6,0.3,0.9,0.5c0.6,0.3,1.3,0.6,1.8,0.8
			c0.2,0.1,0.5,0.2,0.7,0.3c0.2,0.1,0.4,0.1,0.5,0.2c0.3,0.1,0.5,0.2,0.7,0.2s0-0.1-0.6-0.4c-0.2-0.1-0.4-0.2-0.6-0.3
			c-0.2-0.1-0.4-0.2-0.7-0.3c-0.2-0.1-0.5-0.2-0.8-0.4c-0.1-0.1-0.3-0.1-0.4-0.2c-0.1-0.1-0.3-0.1-0.4-0.2c-0.3-0.1-0.6-0.3-0.9-0.5
			c-0.1-0.1-0.3-0.2-0.5-0.2c-0.2-0.1-0.3-0.2-0.4-0.2c-0.3-0.2-0.6-0.3-0.9-0.5c-0.1-0.1-0.3-0.2-0.4-0.2s-0.1-0.1-0.2-0.1
			C28.7,82.3,28.6,82.3,28.5,82.2z"/>
		
			<linearGradient id="SVGID_00000106137265250092284770000010198425280743081876_" gradientUnits="userSpaceOnUse" x1="45.3162" y1="112.1687" x2="99.6902" y2="36.1507" gradientTransform="matrix(1 0 0 -1 0 92)">
			<stop  offset="0" style="stop-color:#F34B2C"/>
			<stop  offset="1" style="stop-color:#D5CE47"/>
		</linearGradient>
		<path style="fill:url(#SVGID_00000106137265250092284770000010198425280743081876_);" d="M66,8.8c-0.5-0.2-0.9-0.3-1.2-0.4
			c-0.1,0-0.2-0.1-0.2-0.1c-0.1,0-0.1,0-0.2-0.1c-0.1,0-0.2-0.1-0.3-0.1C63.7,8,63.5,8,63.4,8c-0.1,0,0.3,0.2,1.2,0.5
			c0.4,0.2,0.9,0.4,1.5,0.6c0.2,0.1,0.3,0.1,0.5,0.2c0.2,0.1,0.3,0.1,0.5,0.2c0.3,0.2,0.7,0.3,1.1,0.5c0.6,0.3,0.9,0.5,1.1,0.5
			c0.2,0.1,0.2,0.1,0.2,0.1C69.6,10.6,68.2,9.7,66,8.8z"/>
		
			<linearGradient id="SVGID_00000092415864690163525720000006328143214996655530_" gradientUnits="userSpaceOnUse" x1="50.812" y1="116.0996" x2="105.1859" y2="40.0817" gradientTransform="matrix(1 0 0 -1 0 92)">
			<stop  offset="0" style="stop-color:#F34B2C"/>
			<stop  offset="1" style="stop-color:#D5CE47"/>
		</linearGradient>
		<path style="fill:url(#SVGID_00000092415864690163525720000006328143214996655530_);" d="M86.2,25.8c0,0,0-0.1-0.1-0.3
			c0-0.1-0.1-0.2-0.2-0.3c0-0.1-0.1-0.1-0.1-0.2s-0.1-0.1-0.1-0.2c-0.2-0.3-0.4-0.6-0.5-1c-0.1-0.2-0.2-0.3-0.3-0.5
			c-0.1-0.2-0.2-0.3-0.3-0.5c-0.5-0.7-0.8-1.2-1.1-1.5c-0.3-0.3-0.4-0.4-0.4-0.4c0,0.1,0.2,0.4,0.5,0.8c0.2,0.2,0.3,0.5,0.5,0.8
			c0.1,0.1,0.2,0.3,0.3,0.5c0.1,0.1,0.1,0.2,0.2,0.2c0.1,0.1,0.1,0.2,0.2,0.3c0.3,0.5,0.7,1.1,1,1.5C86,25.5,86.2,25.8,86.2,25.8z"
			/>
		
			<linearGradient id="SVGID_00000018221063805289906380000013147369473227897771_" gradientUnits="userSpaceOnUse" x1="47.3976" y1="113.6574" x2="101.7716" y2="37.6395" gradientTransform="matrix(1 0 0 -1 0 92)">
			<stop  offset="0" style="stop-color:#F34B2C"/>
			<stop  offset="1" style="stop-color:#D5CE47"/>
		</linearGradient>
		<path style="fill:url(#SVGID_00000018221063805289906380000013147369473227897771_);" d="M91.5,40c0,0.3,0.1,0.7,0.1,1
			c0,0.2,0,0.3,0.1,0.5c0,0.1,0,0.3,0,0.4c0.1,0.5,0.1,0.8,0.1,0.8c0-0.1,0-0.4,0-0.9c0-0.3,0-0.6-0.1-0.9c0-0.3-0.1-0.7-0.1-1
			s-0.1-0.6-0.1-0.8c0-0.3-0.1-0.6-0.1-0.8c0-0.3-0.1-0.5-0.1-0.7s-0.1-0.3-0.1-0.4c0-0.1,0,0,0,0.2c0,0.1,0,0.2,0,0.3s0,0.3,0,0.4
			c0,0.3,0.1,0.6,0.1,1c0,0.2,0,0.3,0.1,0.5C91.5,39.6,91.5,39.8,91.5,40z"/>
		
			<linearGradient id="SVGID_00000152948869609775253320000012721425269815497908_" gradientUnits="userSpaceOnUse" x1="-9.8252" y1="72.7273" x2="44.5488" y2="-3.2907" gradientTransform="matrix(1 0 0 -1 0 92)">
			<stop  offset="0" style="stop-color:#F34B2C"/>
			<stop  offset="1" style="stop-color:#D5CE47"/>
		</linearGradient>
		<path style="fill:url(#SVGID_00000152948869609775253320000012721425269815497908_);" d="M12.7,50.1c0.1,0.5,0.1,0.9,0.2,1.3
			c0,0.2,0.1,0.4,0.1,0.7c0,0.2,0.1,0.4,0.1,0.7c0.1,0.3,0.1,0.5,0.2,0.7c0,0.1,0,0.2,0.1,0.3c0,0.1,0.1,0.2,0.1,0.3
			c0.1,0.3,0.2,0.6,0.2,0.8c0.1,0.5,0.3,0.8,0.3,0.9c0,0,0,0,0-0.1s-0.1-0.3-0.1-0.6c-0.1-0.3-0.1-0.6-0.2-0.8
			c0-0.1-0.1-0.3-0.1-0.4c0-0.1-0.1-0.3-0.1-0.4c-0.1-0.5-0.2-1-0.3-1.5c-0.1-0.8-0.2-1.7-0.4-3.1c-0.1-0.6-0.1-1.1-0.2-1.4
			c0-0.3-0.1-0.4-0.1-0.3c0,0.1,0,0.5,0,1.1C12.6,48.8,12.7,49.5,12.7,50.1z"/>
		
			<linearGradient id="SVGID_00000040577065007656829560000014031999815104192959_" gradientUnits="userSpaceOnUse" x1="40.4324" y1="108.6753" x2="94.8064" y2="32.6574" gradientTransform="matrix(1 0 0 -1 0 92)">
			<stop  offset="0" style="stop-color:#F34B2C"/>
			<stop  offset="1" style="stop-color:#D5CE47"/>
		</linearGradient>
		<path style="fill:url(#SVGID_00000040577065007656829560000014031999815104192959_);" d="M89.2,57.2c0,0,0.1-0.2,0.2-0.5
			c0.1-0.2,0.2-0.5,0.2-0.8c0.1-0.4,0.2-0.8,0.3-1.3c0.1-0.4,0.2-0.9,0.3-1.3c0-0.1,0-0.2,0.1-0.3c0-0.1,0-0.2,0.1-0.3
			c0-0.2,0.1-0.4,0.1-0.7c0-0.2,0.1-0.4,0.1-0.7c0-0.1,0-0.2,0.1-0.3c0-0.1,0-0.2,0-0.3c0.2-1.7,0.2-2.9,0.2-2.7c0,0,0,0.2-0.1,0.4
			c0,0.2,0,0.6-0.1,1.1c0,0.5-0.1,1-0.1,1.5c-0.1,0.5-0.2,1.1-0.3,1.7c-0.1,0.6-0.3,1.3-0.4,1.9c-0.1,0.3-0.2,0.7-0.3,1
			c0,0.2-0.1,0.4-0.1,0.5s-0.1,0.2-0.1,0.3s-0.1,0.2-0.1,0.3C89.2,57,89.1,57.3,89.2,57.2z"/>
		
			<linearGradient id="SVGID_00000054245563525013889300000003177640579043503259_" gradientUnits="userSpaceOnUse" x1="34.2656" y1="104.2643" x2="88.6395" y2="28.2464" gradientTransform="matrix(1 0 0 -1 0 92)">
			<stop  offset="0" style="stop-color:#F34B2C"/>
			<stop  offset="1" style="stop-color:#D5CE47"/>
		</linearGradient>
		<path style="fill:url(#SVGID_00000054245563525013889300000003177640579043503259_);" d="M87.6,61.6c0.1-0.3,0.3-0.6,0.4-0.9
			c0.1-0.1,0.1-0.3,0.2-0.4c0-0.1,0.1-0.2,0.1-0.3c0.1-0.4,0.2-0.6,0.1-0.5s-0.2,0.4-0.4,0.8c-0.2,0.5-0.5,1.1-0.8,1.8
			c-0.3,0.6-0.6,1.1-0.7,1.5c-0.1,0.2-0.2,0.3-0.2,0.4s-0.1,0.2-0.1,0.2c0.1-0.1,0.3-0.4,0.5-0.8c0.1-0.2,0.3-0.5,0.4-0.8
			c0.1-0.1,0.2-0.3,0.2-0.5C87.4,62,87.5,61.8,87.6,61.6z"/>
		
			<linearGradient id="SVGID_00000129200631928835649030000004947882897286451350_" gradientUnits="userSpaceOnUse" x1="50.1385" y1="115.6179" x2="104.5125" y2="39.6" gradientTransform="matrix(1 0 0 -1 0 92)">
			<stop  offset="0" style="stop-color:#F34B2C"/>
			<stop  offset="1" style="stop-color:#D5CE47"/>
		</linearGradient>
		<path style="fill:url(#SVGID_00000129200631928835649030000004947882897286451350_);" d="M90.4,34.2c0.3,0.9,0.3,0.7,0-0.4
			c-0.1-0.6-0.3-1.1-0.5-1.6c0-0.1-0.1-0.3-0.1-0.4s-0.1-0.3-0.1-0.4c-0.1-0.3-0.2-0.6-0.3-0.8c-0.1-0.2-0.2-0.5-0.2-0.7
			c-0.1-0.2-0.2-0.4-0.2-0.6c-0.2-0.3-0.3-0.6-0.4-0.8c0-0.1-0.1-0.2-0.1-0.3c0-0.1-0.1-0.1-0.1-0.2c-0.1-0.1-0.1-0.2-0.1-0.2
			c-0.1-0.1-0.1-0.1,0,0c0,0.1,0.1,0.1,0.1,0.3c0,0.1,0,0.1,0.1,0.2c0,0.1,0.1,0.1,0.1,0.2c0.1,0.3,0.3,0.6,0.4,1
			c0,0.1,0.1,0.3,0.1,0.4l0,0.1c0,0.1,0,0.1,0.1,0.2c0.1,0.3,0.2,0.5,0.3,0.9c0.1,0.3,0.2,0.6,0.3,0.9c0.1,0.3,0.2,0.6,0.3,0.8
			C90.1,33.3,90.2,33.8,90.4,34.2z"/>
		
			<linearGradient id="SVGID_00000075160104810254723160000007747964439673922691_" gradientUnits="userSpaceOnUse" x1="-8.6618" y1="73.5593" x2="45.7121" y2="-2.4587" gradientTransform="matrix(1 0 0 -1 0 92)">
			<stop  offset="0" style="stop-color:#F34B2C"/>
			<stop  offset="1" style="stop-color:#D5CE47"/>
		</linearGradient>
		<path style="fill:url(#SVGID_00000075160104810254723160000007747964439673922691_);" d="M37.1,81.6c-0.8-0.3-1.7-0.7-2.4-1
			c-0.2-0.1-0.4-0.2-0.5-0.2c-0.1-0.1-0.3-0.1-0.4-0.2c-0.2-0.1-0.3-0.1-0.3-0.1s0.2,0.1,0.5,0.3c0.1,0.1,0.3,0.2,0.5,0.3
			c0.2,0.1,0.4,0.2,0.7,0.3c0.2,0.1,0.4,0.2,0.6,0.3c0.1,0,0.2,0.1,0.3,0.1c0.1,0,0.1,0,0.2,0.1l0.2,0.1c0.4,0.2,0.9,0.3,1.3,0.5
			c0.4,0.2,0.8,0.2,1,0.3c0.3,0.1,0.4,0.1,0.4,0.1s-0.2-0.1-0.5-0.2c-0.3-0.3-0.6-0.3-0.8-0.4S37.4,81.7,37.1,81.6z"/>
		
			<linearGradient id="SVGID_00000156568735618873582810000013114956637665398183_" gradientUnits="userSpaceOnUse" x1="47.1774" y1="113.4998" x2="101.5513" y2="37.4818" gradientTransform="matrix(1 0 0 -1 0 92)">
			<stop  offset="0" style="stop-color:#F34B2C"/>
			<stop  offset="1" style="stop-color:#D5CE47"/>
		</linearGradient>
		<path style="fill:url(#SVGID_00000156568735618873582810000013114956637665398183_);" d="M90,38.3c-0.2-1.4-0.6-2.8-0.7-2.7
			c0,0,0,0.2,0.1,0.6c0.1,0.3,0.1,0.8,0.2,1.3c0,0.2,0.1,0.4,0.1,0.6c0,0.2,0.1,0.4,0.1,0.5c0.1,0.3,0.1,0.6,0.1,0.8
			s0.1,0.4,0.1,0.5s0.1,0.2,0.1,0.3c0-0.1,0-0.2,0-0.3s0-0.2,0-0.3C90.1,39.2,90.1,38.8,90,38.3z"/>
		
			<linearGradient id="SVGID_00000006687318086057757700000001695761162327739020_" gradientUnits="userSpaceOnUse" x1="30.5839" y1="101.6308" x2="84.9578" y2="25.613" gradientTransform="matrix(1 0 0 -1 0 92)">
			<stop  offset="0" style="stop-color:#F34B2C"/>
			<stop  offset="1" style="stop-color:#D5CE47"/>
		</linearGradient>
		<path style="fill:url(#SVGID_00000006687318086057757700000001695761162327739020_);" d="M37.4,3.5c0.4-0.1,1-0.3,1.5-0.5
			c0.1,0,0.3-0.1,0.4-0.1c0.2,0,0.3-0.1,0.5-0.1c0.3-0.1,0.6-0.2,0.9-0.3c0.6-0.2,1.1-0.3,1.6-0.4C42.7,2,43,1.9,43,1.9
			c0.1-0.1-0.6,0.1-1.5,0.3c-0.1,0-0.1,0-0.2,0c-0.1,0-0.2,0-0.3,0.1c-0.2,0.1-0.4,0.1-0.7,0.2c-0.3,0.1-0.6,0.2-0.9,0.2
			c-0.2,0-0.3,0.1-0.5,0.1c-0.2,0.1-0.3,0.1-0.5,0.2c-0.3,0.1-0.6,0.2-0.9,0.3c-0.1,0-0.3,0.1-0.4,0.1c-0.1,0-0.2,0.1-0.3,0.1
			C36.3,3.7,36,3.8,36,3.8C36.3,3.8,36.6,3.7,37.4,3.5z"/>
		
			<linearGradient id="SVGID_00000074406469336857834460000009983728945707105186_" gradientUnits="userSpaceOnUse" x1="-3.1531" y1="77.4996" x2="51.2209" y2="1.4816" gradientTransform="matrix(1 0 0 -1 0 92)">
			<stop  offset="0" style="stop-color:#F34B2C"/>
			<stop  offset="1" style="stop-color:#D5CE47"/>
		</linearGradient>
		<path style="fill:url(#SVGID_00000074406469336857834460000009983728945707105186_);" d="M14.3,39.1c-0.1,1.5-0.2,1.9-0.1,1.9
			c0,0,0.2-0.6,0.3-1.9c0.2-1.4,0.3-1.8,0.3-1.9c0,0,0,0.1-0.1,0.2c0,0.1-0.1,0.2-0.1,0.3C14.5,38.1,14.4,38.5,14.3,39.1z"/>
		
			<linearGradient id="SVGID_00000022538251635135087760000003916575044637404292_" gradientUnits="userSpaceOnUse" x1="44.2592" y1="111.4126" x2="98.6332" y2="35.3946" gradientTransform="matrix(1 0 0 -1 0 92)">
			<stop  offset="0" style="stop-color:#F34B2C"/>
			<stop  offset="1" style="stop-color:#D5CE47"/>
		</linearGradient>
		<path style="fill:url(#SVGID_00000022538251635135087760000003916575044637404292_);" d="M90.7,44.8c0-0.5,0-0.9,0-1.2
			c0-0.2,0-0.3-0.1-0.3c0,0,0,0.1,0,0.2c0,0.1,0,0.2,0,0.4c0,0.3,0,0.7,0,1.3c0,0.1,0,0.1,0,0.2c0,0.1,0,0.2,0,0.2
			c0,0.2,0,0.3,0,0.5c0,0.3,0,0.7-0.1,1.1c0,0.1,0.1,0.1,0.1,0s0.1-0.2,0.1-0.5c0-0.2,0.1-0.5,0.1-0.8c0-0.2,0-0.3,0-0.5
			S90.7,45,90.7,44.8z"/>
		
			<linearGradient id="SVGID_00000119106304195031568460000012685955971403667100_" gradientUnits="userSpaceOnUse" x1="50.7719" y1="116.0709" x2="105.1459" y2="40.053" gradientTransform="matrix(1 0 0 -1 0 92)">
			<stop  offset="0" style="stop-color:#F34B2C"/>
			<stop  offset="1" style="stop-color:#D5CE47"/>
		</linearGradient>
		<path style="fill:url(#SVGID_00000119106304195031568460000012685955971403667100_);" d="M86.9,26c-0.2-0.3-0.3-0.6-0.4-0.8
			c-0.1-0.2-0.2-0.4-0.3-0.5C86,24.5,86,24.4,86,24.5c0,0.1,0.2,0.3,0.4,0.7c0.2,0.4,0.5,0.9,0.8,1.4c0.3,0.6,0.6,1.2,0.8,1.7
			c0.2,0.5,0.4,0.9,0.5,1s-0.1-0.4-0.4-1.1c-0.2-0.3-0.3-0.7-0.5-1.1c-0.1-0.2-0.2-0.4-0.3-0.6C87.1,26.3,87,26.2,86.9,26z"/>
		
			<linearGradient id="SVGID_00000098918074678029964340000004266581556443147704_" gradientUnits="userSpaceOnUse" x1="39.2445" y1="107.8256" x2="93.6184" y2="31.8076" gradientTransform="matrix(1 0 0 -1 0 92)">
			<stop  offset="0" style="stop-color:#F34B2C"/>
			<stop  offset="1" style="stop-color:#D5CE47"/>
		</linearGradient>
		<path style="fill:url(#SVGID_00000098918074678029964340000004266581556443147704_);" d="M49.7,1.2c0.4,0,1.2,0,1.4,0
			c0.6,0,1.3,0,1.9,0c0.6,0,1,0,0.8-0.1c0.1,0-0.1,0-0.4-0.1c-0.2,0-0.4,0-0.8,0c-0.2,0-0.3,0-0.5,0s-0.4,0-0.6,0
			c-1.6,0-2,0.1-1.5,0.1c0.2,0,0.3,0,0.3,0c-0.1,0-0.3,0-0.8,0.1C48.9,1.2,48.9,1.3,49.7,1.2z"/>
		
			<linearGradient id="SVGID_00000043451165300134257120000005970690841608130481_" gradientUnits="userSpaceOnUse" x1="51.2404" y1="116.4061" x2="105.6144" y2="40.3882" gradientTransform="matrix(1 0 0 -1 0 92)">
			<stop  offset="0" style="stop-color:#F34B2C"/>
			<stop  offset="1" style="stop-color:#D5CE47"/>
		</linearGradient>
		<path style="fill:url(#SVGID_00000043451165300134257120000005970690841608130481_);" d="M83.9,21c-0.3-0.4-0.7-0.9-0.9-1.1
			c-0.2-0.3-0.4-0.4-0.3-0.3c0,0,0.1,0.1,0.1,0.2c0.1,0.1,0.2,0.2,0.3,0.4c0.2,0.3,0.5,0.7,0.9,1.3c0.2,0.2,0.3,0.5,0.5,0.7
			c0.1,0.2,0.3,0.4,0.4,0.5c0.2,0.3,0.3,0.4,0.3,0.4c0-0.1-0.1-0.3-0.3-0.6C84.5,21.9,84.2,21.5,83.9,21z"/>
		
			<linearGradient id="SVGID_00000031202830791440513800000003487051762007504012_" gradientUnits="userSpaceOnUse" x1="27.303" y1="99.2842" x2="81.6769" y2="23.2661" gradientTransform="matrix(1 0 0 -1 0 92)">
			<stop  offset="0" style="stop-color:#F34B2C"/>
			<stop  offset="1" style="stop-color:#D5CE47"/>
		</linearGradient>
		<path style="fill:url(#SVGID_00000031202830791440513800000003487051762007504012_);" d="M38.3,8.2c-0.3,0.1-0.5,0.2-0.8,0.3
			c-0.2,0.1-0.5,0.2-0.6,0.3C36.5,8.9,36.3,9,36.3,9s0.3-0.1,0.7-0.3c0.4-0.1,0.9-0.3,1.5-0.5c0.1-0.1,0.3-0.1,0.4-0.2
			c0.2,0.1,0.4,0,0.5,0c0.3-0.1,0.5-0.2,0.7-0.2c0.4-0.1,0.6-0.2,0.6-0.2s-0.4,0.1-0.9,0.2C39.4,7.8,38.8,8,38.3,8.2z"/>
		
			<linearGradient id="SVGID_00000101790627612354013870000013936592069684459173_" gradientUnits="userSpaceOnUse" x1="26.2439" y1="98.5266" x2="80.6179" y2="22.5086" gradientTransform="matrix(1 0 0 -1 0 92)">
			<stop  offset="0" style="stop-color:#F34B2C"/>
			<stop  offset="1" style="stop-color:#D5CE47"/>
		</linearGradient>
		<path style="fill:url(#SVGID_00000101790627612354013870000013936592069684459173_);" d="M37.5,9.6c-0.8,0.3-1.3,0.6-1.4,0.7
			c-0.1,0.1,0.2,0,0.6-0.2c0.2-0.1,0.5-0.2,0.7-0.3c0.3-0.1,0.6-0.2,0.9-0.3c0.4-0.1,0.7-0.3,0.9-0.4C39.4,9,39.5,9,39.6,8.9
			c0,0-0.1,0-0.2,0c-0.1,0-0.1,0-0.2,0c-0.1,0-0.2,0-0.2,0.1C38.6,9.2,38.1,9.4,37.5,9.6z"/>
		
			<linearGradient id="SVGID_00000099644067760985504010000015153251674181414540_" gradientUnits="userSpaceOnUse" x1="21.484" y1="95.1219" x2="75.8579" y2="19.104" gradientTransform="matrix(1 0 0 -1 0 92)">
			<stop  offset="0" style="stop-color:#F34B2C"/>
			<stop  offset="1" style="stop-color:#D5CE47"/>
		</linearGradient>
		<path style="fill:url(#SVGID_00000099644067760985504010000015153251674181414540_);" d="M33.6,10.8c-0.1,0-0.4,0.2-1.4,0.7
			c-1.1,0.7-1.5,1-1.6,1c0,0,0.4-0.2,1.1-0.6c0.1-0.1,0.3-0.2,0.4-0.2c0.1-0.1,0.2-0.1,0.3-0.2c0.2-0.1,0.4-0.2,0.5-0.3
			C33.3,11,33.5,10.9,33.6,10.8z"/>
		
			<linearGradient id="SVGID_00000003097757158001543930000014361619235656594307_" gradientUnits="userSpaceOnUse" x1="6.2823" y1="84.2485" x2="60.6562" y2="8.2305" gradientTransform="matrix(1 0 0 -1 0 92)">
			<stop  offset="0" style="stop-color:#F34B2C"/>
			<stop  offset="1" style="stop-color:#D5CE47"/>
		</linearGradient>
		<path style="fill:url(#SVGID_00000003097757158001543930000014361619235656594307_);" d="M62.1,85c-1.1,0.3-2.5,0.6-2.7,0.7
			c-0.1,0,0.5-0.1,1.2-0.2l0.3-0.1c0.1,0,0.2,0,0.3-0.1c0.2,0,0.4-0.1,0.5-0.1c0.4-0.1,0.7-0.2,1-0.3c0.6-0.2,1-0.4,1.2-0.4
			c0.1,0-0.1,0-0.4,0.1c-0.2,0-0.4,0.1-0.6,0.2C62.7,84.9,62.4,85,62.1,85z"/>
		
			<linearGradient id="SVGID_00000065038734800500307190000008347970109339931813_" gradientUnits="userSpaceOnUse" x1="50.2481" y1="115.6963" x2="104.622" y2="39.6783" gradientTransform="matrix(1 0 0 -1 0 92)">
			<stop  offset="0" style="stop-color:#F34B2C"/>
			<stop  offset="1" style="stop-color:#D5CE47"/>
		</linearGradient>
		<path style="fill:url(#SVGID_00000065038734800500307190000008347970109339931813_);" d="M86.1,26.1c-0.2-0.4-0.3-0.6-0.4-0.8
			c-0.1-0.2-0.2-0.3-0.2-0.3c-0.1-0.1,0,0-0.1,0c0,0.1,0,0,0,0.1c0,0,0,0.1,0.1,0.3c0.1,0.1,0.2,0.3,0.3,0.6
			c0.1,0.3,0.3,0.5,0.4,0.8c0.1,0.1,0.1,0.2,0.2,0.4c0.1,0.1,0.1,0.2,0.2,0.3c0.6,1.1,0.1,0,0.1-0.1C86.7,27.4,86.6,27.1,86.1,26.1z
			"/>
		
			<linearGradient id="SVGID_00000073687785213124219520000003529161108352019592_" gradientUnits="userSpaceOnUse" x1="26.7333" y1="98.8766" x2="81.1073" y2="22.8587" gradientTransform="matrix(1 0 0 -1 0 92)">
			<stop  offset="0" style="stop-color:#F34B2C"/>
			<stop  offset="1" style="stop-color:#D5CE47"/>
		</linearGradient>
		<path style="fill:url(#SVGID_00000073687785213124219520000003529161108352019592_);" d="M81.1,71c0.3-0.3,0.4-0.4,0.7-0.7
			c0.3-0.3,0.6-0.7,1.2-1.5c0.1-0.1,0.2-0.2,0.2-0.4c0-0.1,0.1-0.1,0.1-0.1v-0.1c0,0-0.1,0.1-0.4,0.4c-0.2,0.3-0.5,0.6-0.9,1
			c-0.1,0.1-0.2,0.3-0.4,0.4c-0.1,0.1-0.1,0.2-0.2,0.2c-0.1,0.1-0.1,0.2-0.2,0.2c-0.3,0.3-0.6,0.7-1.1,1.2
			C80.2,71.9,80.8,71.3,81.1,71z"/>
		
			<linearGradient id="SVGID_00000145760072271466712790000018421250545325962889_" gradientUnits="userSpaceOnUse" x1="-6.128" y1="75.3717" x2="48.246" y2="-0.6462" gradientTransform="matrix(1 0 0 -1 0 92)">
			<stop  offset="0" style="stop-color:#F34B2C"/>
			<stop  offset="1" style="stop-color:#D5CE47"/>
		</linearGradient>
		<path style="fill:url(#SVGID_00000145760072271466712790000018421250545325962889_);" d="M13.2,43.6c0,1,0,1.9,0,1.9
			s0-0.2,0.1-0.6c0-0.1,0-0.2,0-0.3s0-0.3,0-0.4c0-0.3,0-0.6,0-0.9c0-0.1,0-0.3,0-0.4c0-0.1,0-0.2,0-0.3c0-0.2,0-0.4,0-0.5
			c0-0.2,0-0.3,0-0.3s-0.1,0.1-0.1,0.4c0,0.2,0,0.4-0.1,0.6C13.2,43,13.2,43.3,13.2,43.6z"/>
		
			<linearGradient id="SVGID_00000144311639719046369540000002066217253005507741_" gradientUnits="userSpaceOnUse" x1="1.3269" y1="80.704" x2="55.7009" y2="4.6861" gradientTransform="matrix(1 0 0 -1 0 92)">
			<stop  offset="0" style="stop-color:#F34B2C"/>
			<stop  offset="1" style="stop-color:#D5CE47"/>
		</linearGradient>
		<path style="fill:url(#SVGID_00000144311639719046369540000002066217253005507741_);" d="M15.9,31.2c-0.1,0.3-0.2,0.6-0.3,0.9
			c-0.1,0.3-0.1,0.5-0.2,0.6c-0.1,0.3-0.1,0.5-0.1,0.5s0.1-0.1,0.2-0.4c0.1-0.3,0.2-0.7,0.5-1.3c0.2-0.6,0.4-0.9,0.4-1.2
			c0.1-0.2,0.1-0.3,0.1-0.3s-0.1,0-0.2,0.2C16.3,30.4,16.1,30.7,15.9,31.2z"/>
		
			<linearGradient id="SVGID_00000020381206848800254230000005808837279310864530_" gradientUnits="userSpaceOnUse" x1="-10.0939" y1="72.5349" x2="44.2801" y2="-3.483" gradientTransform="matrix(1 0 0 -1 0 92)">
			<stop  offset="0" style="stop-color:#F34B2C"/>
			<stop  offset="1" style="stop-color:#D5CE47"/>
		</linearGradient>
		<path style="fill:url(#SVGID_00000020381206848800254230000005808837279310864530_);" d="M12.9,52.7c-0.1-0.6-0.2-1.1-0.3-1.7
			c0-0.3-0.1-0.6-0.1-0.9c0-0.3-0.1-0.6-0.1-0.9c0,0.5,0,1,0.1,1.5c0,0.2,0.1,0.4,0.1,0.7s0.1,0.6,0.2,0.9c0.1,0.7,0.2,1,0.3,1.1
			C13.1,53.6,13.1,53.3,12.9,52.7z"/>
		
			<linearGradient id="SVGID_00000160884718560226742100000012222880905646410422_" gradientUnits="userSpaceOnUse" x1="-11.7619" y1="71.3419" x2="42.612" y2="-4.676" gradientTransform="matrix(1 0 0 -1 0 92)">
			<stop  offset="0" style="stop-color:#F34B2C"/>
			<stop  offset="1" style="stop-color:#D5CE47"/>
		</linearGradient>
		<path style="fill:url(#SVGID_00000160884718560226742100000012222880905646410422_);" d="M26.9,74.7c0.8,0.6,1.5,1.2,1.5,1.1
			c0,0-0.2-0.2-0.6-0.5c-0.2-0.1-0.4-0.3-0.6-0.5c-0.1-0.1-0.2-0.2-0.4-0.3c-0.1-0.1-0.3-0.2-0.4-0.3c-0.8-0.7-1.1-1-1.2-1
			c0,0,0.2,0.2,0.5,0.5c0.1,0.1,0.3,0.3,0.5,0.5c0.1,0.1,0.2,0.2,0.3,0.3c0.1,0,0.1,0.1,0.2,0.1C26.7,74.6,26.8,74.7,26.9,74.7z"/>
		
			<linearGradient id="SVGID_00000124130655878050211020000013454222901445207197_" gradientUnits="userSpaceOnUse" x1="6.6698" y1="84.5257" x2="61.0438" y2="8.5077" gradientTransform="matrix(1 0 0 -1 0 92)">
			<stop  offset="0" style="stop-color:#F34B2C"/>
			<stop  offset="1" style="stop-color:#D5CE47"/>
		</linearGradient>
		<path style="fill:url(#SVGID_00000124130655878050211020000013454222901445207197_);" d="M63.6,83.5c-0.4,0.1-0.8,0.2-1.1,0.4
			c-0.4,0.1-0.8,0.2-1.2,0.3c-0.2,0.1-0.4,0.1-0.6,0.2c-0.2,0-0.4,0.1-0.7,0.1c-0.2,0.1-0.5,0.1-0.7,0.2s-0.5,0.1-0.7,0.2
			c0.2,0,0.5-0.1,0.7-0.1s0.5-0.1,0.7-0.1s0.4-0.1,0.7-0.1c0.2,0,0.4-0.1,0.7-0.2c0.4-0.1,0.9-0.2,1.3-0.3c0.4-0.1,0.9-0.3,1.3-0.4
			c0.3-0.1,0.6-0.2,0.6-0.2s-0.1,0-0.2,0.1C64.1,83.3,63.9,83.4,63.6,83.5z"/>
		
			<linearGradient id="SVGID_00000071526662129387007540000005629600662560748982_" gradientUnits="userSpaceOnUse" x1="-8.471" y1="73.6958" x2="45.903" y2="-2.3221" gradientTransform="matrix(1 0 0 -1 0 92)">
			<stop  offset="0" style="stop-color:#F34B2C"/>
			<stop  offset="1" style="stop-color:#D5CE47"/>
		</linearGradient>
		<path style="fill:url(#SVGID_00000071526662129387007540000005629600662560748982_);" d="M38.2,81.6c0.9,0.3,1.2,0.4,0.9,0.2
			c-0.1,0-0.3-0.1-0.6-0.2C38.4,81.6,38.2,81.5,38.2,81.6c-0.2-0.2-0.4-0.2-0.5-0.2c-0.4-0.1-0.8-0.3-1.3-0.5
			c-0.4-0.2-0.9-0.4-1.3-0.6c-0.4-0.2-0.8-0.4-1.2-0.5c-0.3-0.2-0.6-0.3-0.7-0.3c0.4,0.2,0.8,0.4,1.2,0.6l0.2,0.1l0.2,0.1
			c0.1,0,0.2,0.1,0.3,0.1c0.2,0.1,0.4,0.2,0.6,0.3l0.6,0.3c0.2,0.1,0.4,0.2,0.6,0.2C37.3,81.2,37.7,81.4,38.2,81.6z"/>
		
			<linearGradient id="SVGID_00000052823312233474261230000003509619735975072905_" gradientUnits="userSpaceOnUse" x1="33.15" y1="12.6" x2="33.15" y2="12.6" gradientTransform="matrix(1 0 0 -1 0 92)">
			<stop  offset="0" style="stop-color:#F34B2C"/>
			<stop  offset="1" style="stop-color:#D5CE47"/>
		</linearGradient>
		<path style="fill:url(#SVGID_00000052823312233474261230000003509619735975072905_);" d="M33.2,79.4L33.2,79.4L33.2,79.4
			L33.2,79.4L33.2,79.4L33.2,79.4z"/>
		
			<linearGradient id="SVGID_00000096752704005489130240000017602717479947219099_" gradientUnits="userSpaceOnUse" x1="-4.6441" y1="76.433" x2="49.7298" y2="0.4151" gradientTransform="matrix(1 0 0 -1 0 92)">
			<stop  offset="0" style="stop-color:#F34B2C"/>
			<stop  offset="1" style="stop-color:#D5CE47"/>
		</linearGradient>
		<path style="fill:url(#SVGID_00000096752704005489130240000017602717479947219099_);" d="M46.9,87.2c1,0.1,1.5,0.1,1.3,0.1
			c-0.1,0-0.2-0.1-0.5-0.1S47,87.1,46.4,87c-1-0.1-1.3-0.1-1.5-0.1C45.2,87,45.7,87.1,46.9,87.2z"/>
		
			<linearGradient id="SVGID_00000017503015504644931470000003924621839760965017_" gradientUnits="userSpaceOnUse" x1="36.9626" y1="106.1934" x2="91.3366" y2="30.1755" gradientTransform="matrix(1 0 0 -1 0 92)">
			<stop  offset="0" style="stop-color:#F34B2C"/>
			<stop  offset="1" style="stop-color:#D5CE47"/>
		</linearGradient>
		<path style="fill:url(#SVGID_00000017503015504644931470000003924621839760965017_);" d="M88.7,58c0.1-0.4,0.3-0.9,0.4-1.3
			c0.1-0.2,0.1-0.3,0.1-0.5c0-0.1,0-0.2,0-0.2s-0.1,0.2-0.2,0.5s-0.3,0.8-0.4,1.2c-0.2,0.6-0.4,1.1-0.5,1.4
			c-0.1,0.4-0.2,0.6-0.2,0.6c0,0.1,0.1-0.1,0.2-0.4c0.1-0.2,0.2-0.4,0.3-0.6c0-0.1,0.1-0.3,0.2-0.4C88.6,58.3,88.6,58.1,88.7,58z"/>
		
			<linearGradient id="SVGID_00000062879435492560373880000009640300666232358313_" gradientUnits="userSpaceOnUse" x1="48.7926" y1="114.6551" x2="103.1665" y2="38.6372" gradientTransform="matrix(1 0 0 -1 0 92)">
			<stop  offset="0" style="stop-color:#F34B2C"/>
			<stop  offset="1" style="stop-color:#D5CE47"/>
		</linearGradient>
		<path style="fill:url(#SVGID_00000062879435492560373880000009640300666232358313_);" d="M75.9,14.9c-0.5-0.4-0.9-0.7-1.2-0.9
			c-0.3-0.2-0.5-0.3-0.4-0.2s0.3,0.2,0.6,0.5c0.3,0.3,0.7,0.6,1.2,1c0.8,0.7,1.3,1.1,1.3,1.1c-0.1-0.1-0.2-0.2-0.5-0.5
			c-0.1-0.1-0.3-0.2-0.4-0.4c-0.1-0.1-0.2-0.2-0.3-0.3C76.1,15.1,76,15,75.9,14.9z"/>
		
			<linearGradient id="SVGID_00000137126502344067916090000008195683149061102209_" gradientUnits="userSpaceOnUse" x1="50.8242" y1="116.1084" x2="105.1982" y2="40.0904" gradientTransform="matrix(1 0 0 -1 0 92)">
			<stop  offset="0" style="stop-color:#F34B2C"/>
			<stop  offset="1" style="stop-color:#D5CE47"/>
		</linearGradient>
		<path style="fill:url(#SVGID_00000137126502344067916090000008195683149061102209_);" d="M90.4,31.1c0.2,0.6,0.3,1,0.4,1.2
			c0.1,0.3,0.1,0.4,0.2,0.4c0,0,0-0.1-0.1-0.4c0-0.1-0.1-0.3-0.2-0.6c0-0.1,0-0.1-0.1-0.2c0-0.1,0-0.1-0.1-0.2s-0.1-0.3-0.2-0.5
			c-0.2-0.4-0.3-0.8-0.4-1c-0.1-0.3-0.2-0.4-0.2-0.4s0,0.1,0.1,0.4C90.1,30.2,90.2,30.6,90.4,31.1z"/>
		
			<linearGradient id="SVGID_00000111154834018665602310000017331400400962267566_" gradientUnits="userSpaceOnUse" x1="-11.6906" y1="71.3929" x2="42.6834" y2="-4.625" gradientTransform="matrix(1 0 0 -1 0 92)">
			<stop  offset="0" style="stop-color:#F34B2C"/>
			<stop  offset="1" style="stop-color:#D5CE47"/>
		</linearGradient>
		<path style="fill:url(#SVGID_00000111154834018665602310000017331400400962267566_);" d="M35.2,84.5c0.1,0-0.1-0.1-0.3-0.2
			c-0.3-0.1-0.7-0.3-1.2-0.6c-0.3-0.1-0.5-0.2-0.7-0.3c-0.2-0.1-0.4-0.2-0.6-0.3c-0.3-0.2-0.5-0.2-0.7-0.3c-0.2-0.1,0.3,0.2,1.2,0.7
			c0.7,0.3,1.2,0.5,1.6,0.7c0.2,0.1,0.3,0.1,0.5,0.2C35,84.5,35.1,84.5,35.2,84.5z"/>
		
			<linearGradient id="SVGID_00000006709428059277439110000006025831767864737155_" gradientUnits="userSpaceOnUse" x1="25.5131" y1="98.0039" x2="79.887" y2="21.986" gradientTransform="matrix(1 0 0 -1 0 92)">
			<stop  offset="0" style="stop-color:#F34B2C"/>
			<stop  offset="1" style="stop-color:#D5CE47"/>
		</linearGradient>
		<path style="fill:url(#SVGID_00000006709428059277439110000006025831767864737155_);" d="M33.3,4.3c0.9-0.4,1.2-0.5,1.3-0.6
			c0.2-0.1,0-0.1-1.3,0.4c-0.2,0.1-0.4,0.2-0.6,0.3c-0.2,0.1-0.4,0.2-0.6,0.3c-0.3,0.2-0.6,0.3-0.7,0.4c-0.2,0.1,0.1,0,0.5-0.2
			c0.2-0.1,0.4-0.2,0.7-0.3C32.8,4.6,33,4.4,33.3,4.3z"/>
		
			<linearGradient id="SVGID_00000011729324913436730600000003855134563487784383_" gradientUnits="userSpaceOnUse" x1="48.2617" y1="114.2754" x2="102.6356" y2="38.2574" gradientTransform="matrix(1 0 0 -1 0 92)">
			<stop  offset="0" style="stop-color:#F34B2C"/>
			<stop  offset="1" style="stop-color:#D5CE47"/>
		</linearGradient>
		<path style="fill:url(#SVGID_00000011729324913436730600000003855134563487784383_);" d="M67.5,4.5c0.2,0.1,0.5,0.2,0.7,0.3
			c0.2,0.1,0.3,0.1,0.5,0.2s0.4,0.1,0.3,0.1C68.9,5,68.4,4.7,67.5,4.5c-0.6-0.3-1-0.4-1.2-0.5c-0.3-0.1-0.4-0.1-0.4-0.1
			c0.1,0,0.2,0.1,0.5,0.2C66.7,4.2,67.1,4.3,67.5,4.5z"/>
		
			<linearGradient id="SVGID_00000129206596047487701590000007493227381279592612_" gradientUnits="userSpaceOnUse" x1="35.1641" y1="104.9071" x2="89.538" y2="28.8891" gradientTransform="matrix(1 0 0 -1 0 92)">
			<stop  offset="0" style="stop-color:#F34B2C"/>
			<stop  offset="1" style="stop-color:#D5CE47"/>
		</linearGradient>
		<path style="fill:url(#SVGID_00000129206596047487701590000007493227381279592612_);" d="M45.3,1.4c0.9-0.1,1.5-0.2,1.7-0.2
			c0.3-0.1-0.3,0-1.5,0.1c-0.8,0.1-1.5,0.2-1.6,0.3C43.5,1.6,44.2,1.5,45.3,1.4z"/>
		
			<linearGradient id="SVGID_00000035526598116167631570000013427969616308194732_" gradientUnits="userSpaceOnUse" x1="9.8503" y1="86.8007" x2="64.2243" y2="10.7827" gradientTransform="matrix(1 0 0 -1 0 92)">
			<stop  offset="0" style="stop-color:#F34B2C"/>
			<stop  offset="1" style="stop-color:#D5CE47"/>
		</linearGradient>
		<path style="fill:url(#SVGID_00000035526598116167631570000013427969616308194732_);" d="M63.2,82.5c0,0,0.1,0,0.3-0.1
			c0.1,0,0.2-0.1,0.4-0.1c0.1,0,0.1,0,0.2-0.1c0.1,0,0.2-0.1,0.2-0.1c0.7-0.2,1.2-0.5,1.6-0.6c0.3-0.2,0.5-0.2,0.4-0.2
			c0,0-0.2,0.1-0.4,0.2c-0.2,0.1-0.6,0.2-0.9,0.3c-0.3,0.1-0.5,0.2-0.7,0.3c-0.1,0-0.1,0-0.2,0.1c-0.1,0-0.1,0-0.1,0
			c-0.1,0-0.2,0.1-0.3,0.1C63.3,82.4,63.2,82.4,63.2,82.5z"/>
		
			<linearGradient id="SVGID_00000054228065110940456020000007821273758938905729_" gradientUnits="userSpaceOnUse" x1="18.5395" y1="93.0158" x2="72.9134" y2="16.9978" gradientTransform="matrix(1 0 0 -1 0 92)">
			<stop  offset="0" style="stop-color:#F34B2C"/>
			<stop  offset="1" style="stop-color:#D5CE47"/>
		</linearGradient>
		<path style="fill:url(#SVGID_00000054228065110940456020000007821273758938905729_);" d="M83.6,22.2c-0.3-0.3,0.1,0.3-1.1-1.2
			c-1.6-1.9-3.3-3.7-5.1-5.3c-0.2-0.2-0.4-0.4-0.6-0.6c-0.1-0.1-0.2-0.2-0.3-0.3c-0.1-0.1-0.2-0.2-0.3-0.3c-0.4-0.4-0.8-0.7-1.3-1
			c-0.4-0.3-0.8-0.6-1.2-0.9c-0.1-0.1-0.2-0.1-0.3-0.2c-0.1-0.1-0.2-0.1-0.3-0.2c-0.2-0.1-0.4-0.3-0.5-0.4c-0.2-0.1-0.3-0.2-0.5-0.3
			s-0.3-0.2-0.5-0.3c-0.3-0.2-0.7-0.4-1-0.6c-0.3-0.2-0.6-0.4-0.8-0.5c-0.2-0.1-0.3-0.2-0.4-0.2c-0.1-0.1,0.1,0,0.5,0.2
			c1.1,0.5,1.6,0.8,1.6,0.8s-0.2-0.2-0.6-0.4c-0.2-0.1-0.4-0.2-0.7-0.4c-0.3-0.2-0.6-0.3-1-0.5H69c0,0-0.2,0-0.6-0.2
			c-0.2-0.1-0.5-0.2-0.8-0.4c-0.4-0.2-0.8-0.4-1.3-0.6c-0.3-0.2-0.7-0.4-1-0.5c-0.2-0.1-0.3-0.1-0.5-0.2c-0.1-0.1-0.3-0.1-0.4-0.1
			c-0.5-0.2-0.8-0.3-1-0.4C63,7.1,63.1,7,63.2,7c-1.9-0.6-1.8-0.6-1.4-0.5l-0.5-0.2l-0.5-0.1c-1.3-0.3-1.5-0.3-0.8,0
			c0.4,0.1,0.5,0.2-0.4,0c-0.1,0-0.2,0-0.3-0.1c-0.1,0-0.2,0-0.3,0c-0.2,0-0.3-0.1-0.5-0.1c-0.3-0.1-0.5-0.1-0.7-0.2
			c-0.1,0-0.2-0.1-0.4-0.1c-0.1,0-0.3,0-0.4-0.1c-0.3,0-0.5-0.1-0.8-0.1c-0.1,0-0.3,0-0.4,0c-0.1,0-0.2,0-0.3,0s-0.2,0-0.3,0
			c-0.2,0-0.6,0-0.9,0c-0.2,0-0.4,0-0.6,0c-0.2,0-0.5,0-0.8,0c-0.7,0-1,0-1.1,0h-0.1c0,0-0.2,0.1-1.1,0.1c-0.2,0-0.5,0-0.8,0
			s-0.6,0-0.8,0c-0.5,0-1,0.1-1,0.1s-0.3,0.1-0.2,0.1s0.5,0,1.7,0c0.1,0,0.3,0,0.4,0c0.1,0,0.3,0,0.4,0c0.3,0,0.5,0,0.7,0
			c0.4,0,0.7,0,0.4,0.1c-0.2,0-0.5,0-0.9,0c-0.3,0-0.7,0-1.1,0c-0.3,0-0.6,0-0.9,0c-0.3,0-0.6,0-0.9,0.1c-0.3,0-0.6,0-0.9,0
			c-0.3,0-0.6,0.1-0.9,0.1c-1.3,0.2-2.6,0.4-4,0.8l-0.7,0.2l-0.3,0.1c-0.1,0-0.2,0.1-0.3,0.1c-0.4,0.2-1,0.4-1.7,0.6
			c-0.3,0.1-0.7,0.3-1.1,0.4c-0.2,0.1-0.4,0.1-0.6,0.2c-0.2,0.1-0.4,0.1-0.6,0.2c-0.6,0.2-0.4,0.1,0.1-0.1c0.1-0.1-0.5,0.1-1.1,0.4
			c-0.1,0-0.3,0.1-0.4,0.1c-0.1,0.1-0.2,0.1-0.3,0.1c-0.2,0.1-0.3,0.2-0.5,0.2C34.1,9.5,34,9.5,34,9.5s0.2-0.2,0-0.1
			c0.1-0.1,0.3-0.1,0.5-0.3c0.2-0.1,0.4-0.2,0.6-0.4c0.3-0.1,0.7-0.3,1-0.4c0.3-0.1,0.7-0.3,1.1-0.4C36.8,8,36.5,8.2,36,8.3l-1,0.4
			c-0.2,0-0.2,0-0.7,0.2c0.5-0.2,0.5-0.2,0.7-0.2c-0.2,0.1-0.4,0.2-0.6,0.4C34.2,9.2,34,9.3,34,9.4l-0.4,0.2c-0.1,0-0.1,0.1-0.2,0.1
			l-0.3,0.2l-0.9,0.5c-0.1,0.1,0,0.1-0.4,0.3c-0.2,0.1-0.3,0.2-0.5,0.3s-0.4,0.2-0.5,0.3c-0.4,0.2-0.7,0.4-0.9,0.5
			c-0.2,0.1-0.5,0.3-0.9,0.5c-0.2,0.1-0.4,0.3-0.6,0.4c-0.2,0.2-0.5,0.4-0.8,0.6c-0.2,0.1-0.5,0.4-0.7,0.5c-0.1,0.1-0.2,0.2-0.3,0.3
			c-0.1,0.1-0.2,0.2-0.4,0.3c-0.2,0.2-0.5,0.4-0.7,0.6c-0.2,0.2-0.4,0.4-0.6,0.5c-0.2,0.2-0.3,0.3-0.3,0.3c-0.2,0.3-0.1,0.3,0.6-0.3
			c0.1-0.1,0.1-0.1,0.2-0.2c0.1-0.1,0.1-0.1,0.2-0.2c0.1-0.1,0.3-0.2,0.4-0.3c0.3-0.2,0.6-0.5,0.9-0.7s0.6-0.5,0.9-0.7
			s0.6-0.5,0.9-0.7c0.2-0.2,0.3-0.3,1.1-0.8c0.2-0.1,0.3-0.2,0.4-0.2c0.1-0.1,0.2-0.1,0.3-0.2c0.1-0.1,0.2-0.1,0.3-0.1
			c0.1,0,0,0,0,0c0.3-0.2,0.6-0.3,0.8-0.5c0.2-0.1,0.4-0.2,0.5-0.2c0.2-0.1,0.2-0.1,0.1,0.1c0.2-0.1,0.4-0.2,0.5-0.2
			c0.1,0,0.1,0,0,0.1c-0.1,0.1-0.2,0.1-0.4,0.3c-0.1,0.1-0.2,0.1-0.4,0.2c-0.1,0.1-0.3,0.2-0.4,0.3c-1.3,0.8-1.4,0.8-1,0.5
			c0.1-0.1,0.4-0.3,0.6-0.4c-0.3,0.2-0.8,0.4-1,0.5c-0.3,0.2-0.6,0.3-0.9,0.5c-0.1,0.1-0.3,0.2-0.4,0.3s-0.3,0.2-0.4,0.3
			c-0.3,0.2-0.6,0.4-0.9,0.7c-0.1,0.1-0.3,0.2-0.5,0.4c-0.2,0.1-0.3,0.3-0.4,0.4c-0.3,0.3-0.6,0.6-1,0.9c-0.4,0.3-0.8,0.7-1.2,1.1
			c-0.2,0.2-0.3,0.3-0.5,0.5c0.3-0.3,0,0.1-0.4,0.6c0,0-0.1,0.2-0.3,0.4c-0.1,0.1-0.2,0.3-0.4,0.4c-0.2,0.2-0.3,0.4-0.5,0.6
			s-0.4,0.5-0.6,0.7l0.6-0.7c0.1-0.1,0.2-0.1,0.3-0.2c0.1-0.1,0.2-0.2,0.3-0.3c0.1-0.1,0.2-0.2,0.3-0.3c0.2-0.2,0.3-0.3,0.5-0.5
			c0.3-0.3,0.5-0.5,0.7-0.7c0.8-0.8,1.7-1.5,1.8-1.5c0,0-0.2,0.2-0.5,0.5c-0.3,0.3-0.8,0.7-1.1,1.1c-0.3,0.4-0.9,1-1.3,1.4
			c-0.2,0.2-0.3,0.4-0.3,0.4s0.1-0.1,0.4-0.3c0.3-0.3,1.3-1.2,0.1,0.1c-1.5,1.7-1.4,1.5-1.5,1.5c-0.7,0.8-1.1,1.3-1.1,1.3
			c-0.2,0.2-0.3,0.4-0.4,0.5c-0.1,0.2-0.2,0.3-0.3,0.4c-0.2,0.3-0.4,0.5-0.5,0.6s-0.2,0.2-0.3,0.3c-0.1,0.1-0.1,0.1-0.1,0.1
			c-0.3,0.4-0.5,0.8-0.8,1.2c-0.1,0.1-0.1,0.2-0.2,0.3c-0.1,0.1-0.1,0.2-0.2,0.3c-0.1,0.2-0.3,0.5-0.4,0.7s-0.2,0.4-0.2,0.5
			s-0.1,0.2-0.1,0.3c-0.1,0.2-0.2,0.4-0.4,0.9c-0.1,0.2-0.2,0.4-0.2,0.5c-0.1,0.2-0.1,0.3-0.2,0.5c-0.1,0.3-0.3,0.7-0.5,1
			C16,29.9,16,30,15.9,30.1c0,0.1-0.1,0.2-0.1,0.3c-0.3,0.7-0.5,1.1-0.4,0.9c0-0.1,0.1-0.3,0.3-0.7c0.1-0.4,0.4-0.9,0.7-1.6l0,0
			c0.1-0.3,0.3-0.6,0.4-0.9c0,0,0,0,0-0.1v0.1c-0.2,0.3-0.3,0.6-0.4,0.9s-0.3,0.5-0.4,0.8c-0.1,0.1-0.1,0.3-0.2,0.4
			c-0.1,0.1-0.1,0.3-0.2,0.4c-0.2,0.5-0.4,1-0.6,1.5c-0.2,0.5-0.3,0.9-0.4,1.4c0,0.1-0.1,0.2-0.1,0.3s-0.1,0.2-0.1,0.3
			c-0.1,0.2-0.1,0.4-0.1,0.6c-0.1,0.3-0.1,0.6-0.2,1c-0.1,0.4-0.2,0.8-0.3,1.5c-0.1,0.3-0.1,0.5-0.2,0.8c-0.1,0.2-0.1,0.4-0.1,0.6
			c-0.1,0.3-0.1,0.3,0-0.1c0-2.5-0.4-0.6-0.5-0.7c-0.2,0.8-0.3,1.2-0.3,1.2s0-0.5,0.2-1.5c0.1-0.4,0.1-0.5,0-0.5c0,0,0,0,0-0.1
			c-0.1,0.7-0.2,0.7-0.2,0.6c0,0.1-0.1,0.3-0.1,0.5c-0.1,0.4-0.2,0.8-0.2,1s-0.1,0.3-0.1,0.1s0-0.4,0-0.5s0-0.1,0-0.1
			s-0.1,0.1-0.2,0.1v-0.2c0,0.1,0,0.1,0,0.2c-0.2,1.1-0.3,2.1-0.4,3.2c0,0.2,0,0.3,0,0.5s0,0.3,0,0.5c0,0.3,0,0.7,0,1.1
			c0,0.2,0,0.4,0,0.5c0,0.2,0,0.4,0,0.6c0,0.4,0,0.7,0,1.1c0,0.1,0,0.3,0,0.4c0,0.2,0,0.3,0,0.5c0,0.3,0.1,0.7,0.1,1
			c0,0.1,0,0.2,0,0.3s0,0.2,0,0.3c0,0.2,0,0.4,0.1,0.6c0,0.2,0,0.5,0.1,0.7c0,0.1,0,0.2,0,0.4c0,0.1,0,0.3,0.1,0.4
			c0.1,0.4,0.1,0.8,0.2,1.2c0,0.1,0,0.2,0,0.3s0,0.2,0.1,0.3c0,0.2,0.1,0.4,0.1,0.5c0.1,0.4,0.2,0.7,0.2,1.1
			c0.1,0.3,0.2,0.7,0.3,1.1c0,0,0.1,0,0-0.5c-0.2-0.6-0.3-1.2-0.4-1.8c-0.1-0.3-0.1-0.5-0.1-0.7s0-0.3,0-0.3s0,0.1,0,0.2v0.1
			c0,0.1,0,0.1,0,0.2c0.1,0.3,0.1,0.6,0.2,0.9c0.1,0.4,0.2,0.8,0.3,1.2c0,0.2,0.1,0.4,0.1,0.6c-0.1-0.4-0.2-0.8-0.3-1.1
			s-0.1-0.5,0-0.4c0.1,0.3,0.2,0.7,0.3,1.2s0.2,1,0.4,1.5l0.1,0.2c-0.1-0.6-0.1-0.9-0.1-0.7c0,0.1,0.1,0.3,0.3,0.7
			c0.1,0.2,0.1,0.4,0.2,0.7c0,0.1,0.1,0.3,0.1,0.4c0.1,0.1,0.1,0.3,0.2,0.5c0.4,0.8,0.4,0.9,1.8,3.9c0.1,0.2,0.3,0.5,0.4,0.8
			c0.2,0.3,0.4,0.7,0.6,1c-0.1-0.4-0.2-0.5,0.5,0.6l0.7,0.9c-0.1-0.2-0.4-0.8,0.2,0.2c0.1,0.1,0.2,0.2,0.2,0.4
			c0.1,0.1,0.1,0.2,0.2,0.3c0.1,0.2,0.2,0.3,0.3,0.4c0.1,0.2,0.2,0.3,0.2,0.4c0.1,0.2,0.3,0.4,0.4,0.6c0.1,0.2,0.3,0.4,0.4,0.6
			c0.1,0.2,0.3,0.4,0.4,0.6s0.3,0.4,0.4,0.5c0.5,0.6,0.9,1.1,1,1.3c0.3,0.3,0.5,0.6,0.8,0.9s0.5,0.5,0.6,0.7
			c0.1,0.1,0.2,0.2,0.2,0.2s-0.1-0.1-0.2-0.2c-0.2-0.1-0.4-0.4-0.6-0.7c-0.2-0.2-0.4-0.4-0.6-0.6c1.3,1.4,1.3,1.5,0.3,0.5l0.7,0.8
			c0.4,0.4,0.8,0.8,1.2,1.2c0.1,0.1,0.2,0.2,0.3,0.2c0.1,0.1,0.2,0.2,0.3,0.2c0.2,0.2,0.4,0.3,0.6,0.5c0.4,0.3,0.7,0.6,1,0.9
			c0.2,0.2,0.1,0.2,0.1,0.1c-0.3-0.1-0.3,0,0.2,0.5c0.1,0.1,0.3,0.3,0.5,0.4c0.1,0.1,0.2,0.2,0.3,0.3c0.1,0.1,0.2,0.2,0.4,0.3
			c0.5,0.4,1.2,0.9,2,1.5c0.5,0.3,0.7,0.5,0.9,0.6c0.2,0.1,0.2,0.1,0,0.1l0.4,0.3c0.3,0.2,0.6,0.4,0.9,0.6c0.2,0.1,0.3,0.2,0.5,0.3
			c0.2,0.1,0.3,0.2,0.5,0.3c0.3,0.2,0.7,0.3,1,0.5c0.4,0.2,0.7,0.3,1.1,0.5c0.2,0.1,0.5,0.2,0.6,0.2c0.2,0.1,0.3,0.1,0.3,0
			c-0.3-0.1-0.4-0.2-0.4-0.2s0,0,0.1,0c0.2,0.1,0.8,0.3,1.4,0.5l0.5,0.2c0.2,0.1,0.3,0.1,0.5,0.1l0.9,0.3c0.1,0,0.2,0,0.4,0h0.2
			c0.1,0,0.1,0,0.2,0c0.3,0,0.4,0,0.4-0.1c0,0,0.2,0,1,0.2c0.1,0,0.2,0.1,0.3,0.1s0.2,0,0.3,0.1c0.2,0,0.4,0.1,0.5,0.1
			c0.3,0.1,0.6,0.2,0.8,0.2c0.2,0.1,0.3,0.1,0.5,0.1s0.4,0.1,0.7,0.1c0.2,0,0.5,0.1,0.8,0.2c0.3,0,0.6,0.1,0.9,0.1
			c-0.4-0.1-0.1-0.1,0.9,0c0.1,0,0.2,0,0.4,0c0.1,0,0.3,0,0.4,0c0.3,0,0.6,0,0.9,0.1c0.2,0,0.3,0,0.5,0s0.3,0,0.5,0c0.3,0,0.7,0,1,0
			c0.4,0,0.6,0,0.8,0s0.3,0,0.3,0s-0.2,0.1-0.6,0.1c-0.1,0-0.3,0-0.4,0c-0.2,0-0.3,0-0.5,0c-0.3,0-0.7,0-1.1,0
			c-0.4,0-0.8-0.1-1.2-0.1c-0.2,0-0.4,0-0.6,0c-0.2,0-0.4,0-0.6-0.1c0.2,0-0.3,0-0.8-0.1l0.8,0.1l-0.8-0.1c-0.1,0-0.3,0-0.4,0
			c-0.2,0-0.3-0.1-0.5-0.1c-0.4-0.1-0.8-0.1-1.2-0.2H44c-0.1,0-0.1,0-0.1,0c0.8,0.2,1,0.3,0.6,0.4l0.9,0.2l0.4,0.1
			c0.1,0,0.3,0,0.4,0.1c0.3,0,0.8,0.1,1.3,0.1c0.2,0,0.5,0,0.7,0.1c0.2,0,0.4,0,0.5,0.1c0.2,0,0.3,0,0.5,0.1c0.1,0,0.2,0,0.3,0
			s0.2,0,0.3,0c0.4,0,0.8,0,1.3,0.1c0.2,0,0.4,0,0.6,0c0.2,0,0.4,0,0.6,0c0.4,0,0.7,0,0.9,0c0.3,0,0.6,0,0.9,0c0.5,0,1-0.1,1.4-0.1
			s0.8-0.1,1.1-0.1s0.6-0.1,0.8-0.1s0.3,0,0.4,0c0.2,0,0.1,0,0.1,0l0,0l0.9-0.1l0.5-0.1l0.5-0.1c0.5-0.1,1-0.2,1.5-0.3l1.5-0.4
			c0.3-0.1,0.6-0.2,0.8-0.3c0.2-0.1,0.5-0.1,0.6-0.2c0.4-0.1,0.7-0.2,0.8-0.3c0.4-0.1,0.5-0.1,0.5-0.1c0.7-0.2,1-0.3,1.2-0.4
			c0.3-0.1,0.5-0.2,0.8-0.3c0.4-0.2,0.7-0.3,1-0.4c0.2-0.1,0.3-0.1,0.3-0.1s-0.1,0-0.2,0.1c-0.2,0.1-0.4,0.2-0.8,0.4
			c-0.3,0.2-0.7,0.3-0.9,0.4c-0.3,0.1-0.5,0.2-0.8,0.3c-0.5,0.2-0.8,0.3-1.1,0.4c-0.6,0.2-0.8,0.2-1.1,0.3l-0.7,0.2
			c-0.2,0.1-0.5,0.1-0.7,0.2l-1.4,0.4c-0.2,0.1-0.5,0.1-0.7,0.2c-0.3,0.1-0.7,0.2-1,0.2c-0.3,0.1-0.6,0.2-0.9,0.2
			c-0.6,0.1-1.1,0.2-1.6,0.3C56.4,84.9,56,85,55.6,85c-0.4,0.1-0.7,0.1-1,0.2c0.1,0,0.2,0,0.3,0s0.2,0,0.3,0c0.2,0,0.4,0,0.6,0
			c0.4,0,1-0.1,1.8-0.2c0.5-0.1,0.9-0.1,1.3-0.2c0.3-0.1,0.6-0.1,0.8-0.1c0.4-0.1,0.5-0.1,0.4,0c-0.1,0-0.3,0.1-0.6,0.2
			c-0.1,0-0.2,0.1-0.3,0.1s-0.3,0.1-0.4,0.1c-0.3,0.1-0.7,0.1-1.3,0.2c-0.2,0-0.4,0.1-0.6,0.1c-0.2,0-0.3,0-0.4,0
			c-0.2,0-0.4,0-0.5,0c-0.2,0-0.2,0-0.1-0.1c0.1,0-0.2,0-0.8,0c-0.5,0-1.1,0-1.5,0c-0.5,0-1,0-1.4,0.1c-0.2,0-0.5,0-0.7,0
			c-0.1,0-0.2,0-0.3,0s-0.2,0-0.3,0c-0.4,0-1.5,0-1.6,0s-0.5-0.1-1-0.2c-0.3,0-0.6-0.1-0.9-0.1c-0.3,0-0.7-0.1-1-0.2
			c-0.2,0-0.4-0.1-0.6-0.1c-0.2,0-0.4-0.1-0.6-0.1c-0.4-0.1-0.8-0.2-1.2-0.2c-0.2,0-0.4-0.1-0.6-0.1c-0.2,0-0.4-0.1-0.5-0.1
			c-0.4-0.1-0.7-0.2-1-0.3c-0.3-0.1-0.6-0.2-0.9-0.2c-0.3-0.1-0.6-0.2-0.9-0.3c-0.1,0-0.3-0.1-0.4-0.1c-0.1,0-0.3-0.1-0.4-0.1
			c-0.3-0.1-0.6-0.2-0.8-0.3c-0.3-0.1-0.2,0-0.3,0.1c0,0,0,0-0.2,0c-0.1,0-0.4-0.1-0.8-0.2V83c-0.1,0-0.1,0,0.2,0.2
			c0.1,0,0.2,0.1,0.3,0.1c0.1,0.1,0.3,0.1,0.5,0.2s0.5,0.2,0.7,0.3c0.3,0.1,0.6,0.2,1,0.3c-0.1-0.1,0-0.1,0.4,0
			c0.2,0,0.4,0.1,0.6,0.1c0.3,0.1,0.6,0.1,0.9,0.2c0.1,0,0.5,0.1,1.4,0.3c0.3,0.1,0.5,0.1,0.7,0.1s0.4,0.1,0.5,0.1
			c0.3,0.1,0.4,0.1,0.4,0.1c0.2,0,0.4,0.1,0.6,0.1l0.6,0.1c0.4,0.1,0.9,0.1,1.3,0.2c0.4,0,0.9,0.1,1.3,0.1c0.2,0,0.4,0,0.6,0.1
			c0.2,0,0.4,0,0.6,0c0.4,0,0.9,0,1.3,0.1c0.4,0,0.8,0,1.2,0c0.7,0,1.3,0,1.6,0s1.8,0-0.5,0.2c-2,0.1-3.5,0.1-5.3-0.1
			c-0.5-0.1-1-0.1-1.5-0.2c-0.3,0-0.5-0.1-0.8-0.1c-0.1,0-0.3,0-0.4-0.1c-0.1,0-0.3,0-0.4-0.1c-0.6-0.1-1.2-0.2-1.8-0.4
			c-0.3-0.1-0.7-0.2-1-0.3c-0.2,0-0.4-0.1-0.6-0.1c-0.1,0-0.2,0-0.3-0.1c-0.1,0-0.2-0.1-0.3-0.1c-0.3,0-0.8-0.2-1.6-0.4l-1.8-0.6
			c-0.6-0.2-1.2-0.4-1.7-0.7l0,0c0.6,0.2,1.2,0.5,1.7,0.7l1.8,0.6c0.4,0.1,0.4,0.2,0.2,0.2c0.1,0.1,0.4,0.1,0.7,0.2
			c0.2,0.1,0.4,0.1,0.5,0.2c0.1,0,0.2,0.1,0.3,0.1s0.2,0.1,0.3,0.1c0.8,0.2,1.4,0.4,1.2,0.4c0.1,0,0.2,0.1,0.4,0.1
			c1.2,0.3,2,0.4,0.2,0.2l0.1,0.1c0.6,0.1,0.7,0.1,0.5,0.1c0.5,0.2,0.6,0.2,0,0.1c-0.3,0-0.8-0.1-1.5-0.3c-0.4-0.1-0.8-0.2-1.3-0.3
			c-0.5-0.1-1-0.3-1.6-0.4c-0.1,0-0.3-0.1-0.4-0.1c-0.1,0-0.2,0-0.3-0.1c-0.2,0-0.3-0.1-0.5-0.1s-0.4-0.1-0.7-0.2
			c-0.1,0-0.3-0.1-0.5-0.2s-0.4-0.2-0.7-0.3c-0.3-0.1-0.5-0.2-0.8-0.3l-0.4-0.1c-0.1-0.1-0.3-0.1-0.4-0.2c-0.5-0.2-1-0.4-1.5-0.7
			c-0.5-0.3-1-0.5-1.5-0.8c-0.1-0.1-0.2-0.1-0.4-0.2c-0.1-0.1-0.2-0.1-0.3-0.2c-0.2-0.1-0.5-0.3-0.7-0.4c-0.4-0.2-0.7-0.4-0.8-0.5
			c-0.2-0.1-0.2-0.2-0.2-0.2s0.1,0,0.3,0.1c0.2,0.1,0.5,0.2,0.8,0.4c0.2,0.1,0.5,0.2,1.1,0.5c0.3,0.1,0.6,0.3,1,0.5
			c0.2,0.1,0.4,0.2,0.6,0.3c0.1,0.1,0.2,0.1,0.3,0.2c0.1,0.1,0.2,0.1,0.3,0.2l0.9,0.4c0.3,0.1,0.6,0.3,0.9,0.4c0,0,0,0,0.2,0
			c0-0.1-0.6-0.4,1.2,0.3l-0.1-0.1c-0.5-0.2-0.9-0.4-1.4-0.5c-0.4-0.2-0.9-0.4-1.3-0.6c-0.4-0.2-0.7-0.3-1-0.4s-0.5-0.2-0.6-0.3
			c-0.3-0.2-0.4-0.2-0.5-0.3c-0.1-0.1,0.2,0.1,0.2,0s0.2,0,0.6,0.2c0.2,0.1,0.5,0.2,0.8,0.4c0.3,0.1,0.7,0.3,1.1,0.5l0.6,0.2
			c0.2,0.1,0.4,0.1,0.6,0.2l-0.3-0.2c-0.6-0.2-1.1-0.5-1.7-0.7c-0.2-0.1-0.4-0.2-0.6-0.3c-0.2-0.1-0.3-0.2-0.4-0.2
			c-0.3-0.1-0.4-0.2-0.5-0.3c-0.2-0.1-0.1-0.1,0.2,0c1.3,0.6,1.5,0.6,3.3,1.3l-0.2-0.1l-0.2-0.1l-0.4-0.2l-0.8-0.4
			c-0.1-0.1-0.2-0.1-0.4-0.2c-0.1-0.1-0.2-0.1-0.3-0.2c-0.2-0.1-0.4-0.2-0.6-0.3c-0.4-0.2-0.7-0.3-1-0.5c-0.6-0.3-1-0.5-1.3-0.7
			c-0.2-0.1-0.3-0.2-0.5-0.3c-0.1-0.1-0.3-0.2-0.4-0.3c-0.3-0.2-0.6-0.4-0.9-0.7c-0.1-0.1-0.2-0.1-0.3-0.2c-0.1-0.1-0.2-0.2-0.4-0.3
			c-0.3-0.2-0.6-0.4-0.9-0.7c-0.1-0.1,0,0-0.1,0c0,0-0.2-0.1-0.8-0.6c0.4,0.4,0.2,0.3,0,0.2c-0.1-0.1-0.1,0,0.1,0.2
			c0.1,0.1,0.2,0.2,0.3,0.3c0.1,0.1,0.3,0.2,0.4,0.3c0.3,0.2,0.7,0.5,1.1,0.8s0.8,0.6,1.2,0.8c0.2,0.1,0.3,0.2,0.5,0.3
			c0.2,0.1,0.3,0.2,0.5,0.3c0.3,0.2,0.4,0.3,0.3,0.2c-0.1,0-0.3-0.1-0.6-0.3c-0.1,0-0.1-0.1-0.2-0.1s-0.2-0.1-0.2-0.1
			c-0.2-0.1-0.3-0.2-0.5-0.3c-0.3-0.2-0.7-0.4-1-0.7c-0.3-0.2-0.7-0.5-1-0.7c-0.7-0.5-1.2-0.9-1.7-1.4c-0.1-0.1-0.3-0.2-0.4-0.4
			c-0.2-0.1-0.3-0.3-0.5-0.4c-0.3-0.3-0.7-0.6-1.1-0.9c-0.5-0.5-0.9-0.8-1.2-1.1c-0.1-0.1-0.3-0.3-0.4-0.4s-0.2-0.2-0.2-0.3
			c-0.2-0.2-0.5-0.7-1-1.2c-0.1-0.1-0.1-0.1-0.2-0.2s-0.1-0.1-0.2-0.2s-0.3-0.3-0.4-0.5c-0.3-0.3-0.5-0.6-0.8-1
			c-0.2-0.2-0.4-0.5-0.5-0.7c0.2,0.2,0.4,0.4,0.5,0.6s0.3,0.3,0.5,0.6c-0.2-0.2-0.3-0.4-0.5-0.6c-0.1-0.2-0.3-0.3-0.5-0.6
			c0.2,0.2,0.3,0.5,0.5,0.7l-0.3-0.2c0.1,0.2,0.2,0.3,0.3,0.5c0.1,0.1,0.2,0.3,0.3,0.4c0.2,0.2,0.3,0.4,0.5,0.6
			c0.2,0.3,0.4,0.5,0.4,0.5c0.3,0.4,0.7,0.8,1.1,1.2c0.2,0.2,0.3,0.4,0.5,0.5c0.2,0.2,0.3,0.3,0.4,0.4c0.2,0.2,0.1,0.2-0.1,0
			c-0.1-0.1-0.3-0.3-0.5-0.5s-0.5-0.5-0.7-0.8c-1.1-1.1,0,0.2-0.2,0.2c0.1,0.2,0.3,0.4,0.6,0.7c0.1,0.2,0.3,0.3,0.5,0.5
			s0.3,0.4,0.5,0.5c0.2,0.2,0.5,0.4,0.7,0.7c0.4,0.3,0.9,0.8,1.4,1.2c0.2,0.2,0.4,0.4,0.6,0.5s0.2,0.2,0.3,0.2c0,0-0.1,0-0.2-0.1
			S25,76.6,25,76.5c-0.1,0-0.1-0.1-0.2-0.1s-0.1-0.1-0.2-0.1c-0.5-0.4-1-0.9-1.4-1.3h-0.2c0.6,0.6,1.2,1.1,1.7,1.5s0.9,0.8,1.4,1.1
			c0.1,0.1,0.2,0.2,0.3,0.3c0.1,0.1,0.2,0.2,0.3,0.2c0.2,0.2,0.4,0.3,0.6,0.5s0.4,0.3,0.7,0.5c0.2,0.2,0.5,0.3,0.8,0.5
			c1,0.7,0.8,0.6,0.1,0.2c-1.3-0.8-0.1,0,0.3,0.4c0.1,0.1,0.2,0.1,0.3,0.2c0.1,0,0.1,0.1,0.2,0.1s0.1,0.1,0.1,0.1
			c0.2,0.1,0.4,0.2,0.5,0.3c0.3,0.2,0.6,0.4,0.8,0.5c0.2,0.1,0.4,0.2,0.5,0.3c0.1,0.1,0.2,0.1,0.2,0.1s-0.1,0-0.2-0.1
			c-0.1,0-0.1-0.1-0.2-0.1s-0.2-0.1-0.3-0.2c-0.2-0.1-0.5-0.3-0.9-0.5c-0.2-0.1-0.4-0.2-0.6-0.3c-0.2-0.1-0.4-0.2-0.7-0.4
			c-0.6-0.3-1.3-0.7-2-1.2c-0.3-0.2-0.7-0.5-1.1-0.7c-0.3-0.3-0.7-0.5-1-0.8c-0.7-0.5-1.3-1.1-1.9-1.6c-0.1-0.1-0.3-0.2-0.4-0.4
			c-0.1-0.1-0.2-0.2-0.3-0.3c-0.2-0.2-0.4-0.4-0.6-0.6l-0.1-0.2c-0.4-0.4-0.6-0.6-0.6-0.7c-0.1-0.1,0-0.1,0-0.1l-1.3-1.4
			c-1.8-2-1.8-1.7-1.5-1.2c0.4,0.5,1,1.3,0.8,1c-0.1-0.1-0.2-0.3-0.4-0.5c-0.1-0.1-0.2-0.2-0.3-0.4c-0.1-0.1-0.2-0.3-0.3-0.4
			c-0.2-0.3-0.4-0.5-0.5-0.7c-0.2-0.3-0.4-0.6-0.6-0.8c-0.1-0.1-0.1-0.1-0.1-0.2c0,0,0.1,0.1,0.1,0.2c0.1,0.2,0.3,0.5,0.6,0.8
			c-0.1-0.1,0,0-0.1,0c0,0-0.1-0.1-0.2-0.2c-0.1-0.1-0.1-0.2-0.2-0.3c-0.1-0.1-0.2-0.2-0.3-0.4c0,0.1,0.5,0.8,0.9,1.4
			c0.1,0.1,0.2,0.2,0.3,0.4c0,0.1,0.1,0.1,0.1,0.2s0.1,0.1,0.1,0.2c0.2,0.2,0.3,0.4,0.5,0.6c0.3,0.3,0.4,0.5,0.3,0.4
			c-0.1-0.1-0.4-0.4-0.7-0.8c-0.1-0.1-0.2-0.2-0.3-0.3c-0.1-0.1-0.2-0.2-0.2-0.3c-0.2-0.2-0.3-0.4-0.5-0.6c-0.2-0.3-0.4-0.6-0.6-0.8
			c-0.2-0.3-0.4-0.5-0.5-0.8c-0.3-0.5-0.5-0.8-0.6-1s-0.2-0.4-0.4-0.6l-0.4-0.7c-0.1-0.2-0.3-0.5-0.4-0.7l-0.5-0.8
			c0.2,0.5,0.2,0.7,0.3,0.8c0,0.2,0.1,0.3,0.4,1c0.2,0.4,0,0.2-0.3-0.3c-0.2-0.3-0.4-0.7-0.7-1.1c-0.1-0.2-0.3-0.5-0.4-0.7
			c-0.1-0.3-0.3-0.5-0.4-0.8c-0.5-1-0.6-1-0.8-1.2c-0.1-0.2-0.2-0.3-0.4-0.8c-0.1-0.2-0.2-0.6-0.4-1.1c-0.2-0.5-0.4-1.1-0.7-2
			c-1.2-2.1-1.2-2.2-0.6-0.5c-0.1-0.4-0.1-0.7-0.2-1.2c-0.1-0.4-0.2-0.9-0.3-1.5L9.5,56c0.1,0.3,0.2,0.7,0.3,1
			c0.1,0.3,0.2,0.6,0.3,0.9c0.1,0.3,0.2,0.6,0.3,0.8c0,0.1,0.1,0.3,0.1,0.4c0,0.1,0.1,0.3,0.1,0.4c0-0.1-0.1-0.3-0.1-0.4
			c-0.1-0.1-0.1-0.3-0.1-0.4c-0.1-0.3-0.2-0.5-0.3-0.8S9.9,57.3,9.8,57c-0.1-0.3-0.2-0.6-0.3-1l-0.3-0.5c-0.2-0.6-0.3-1.1-0.4-1.7
			c0-0.2-0.1-0.4-0.1-0.6c0-0.2-0.1-0.4-0.1-0.6c-0.1-0.4-0.1-0.8-0.2-1.2c-0.1-0.7-0.2-1.4-0.2-2c0-0.3-0.1-0.5-0.1-0.8
			c0-0.2,0-0.4,0-0.6c0-0.3,0-0.4,0-0.3c0,0.1,0.1,0.4,0.1,0.8c0,0.4,0.1,0.8,0.1,1.3c0,0.2,0.1,0.5,0.1,0.7h0.1
			c0,0.2,0.1,0.4,0.1,0.6c0,0.2,0.1,0.4,0.1,0.6c0.1,0.4,0.1,0.7,0.1,1c0-0.3-0.1-0.6-0.1-1c0-0.2-0.1-0.4-0.1-0.6
			c0-0.2-0.1-0.4-0.1-0.6c0-0.3,0-0.6-0.1-0.9l-0.1-0.8c0-0.3,0-0.5-0.1-0.8l-0.1-0.8v-0.4v-0.2v-0.2c0-0.4,0-0.8,0-1.3
			c0-0.2,0-0.5,0-0.7s0-0.5,0-0.8c0,0,0,0.1,0,0.6c0-0.5,0-0.6,0-0.6c0-1-0.1-0.8-0.1-0.2c-0.1,0.7-0.1,0.9-0.1,0.5
			c0-0.2,0-0.4,0-0.8c0-0.2,0-0.4,0-0.6c0-0.2,0-0.5,0-0.8c0,0.1-0.1,0.2-0.1,0.1c0-0.1,0-0.2,0-0.5c0-0.1,0-0.3,0-0.5
			s0-0.5,0.1-0.7c0.3-2.2,0.8-4.5,1.3-6.3l0.4-1.6c0.2-0.5,0.3-1,0.5-1.5c0-0.3,0.1-0.6,0.1-0.8c-0.1,0.3-0.2,0.6-0.3,0.9
			c-0.1,0.3-0.2,0.6-0.3,1c-0.1,0.2-0.1,0.3-0.2,0.5c0,0.1-0.1,0.3-0.1,0.4c-0.1,0.3-0.2,0.5-0.2,0.6c0.1-0.3,0.1-0.5,0.2-0.8
			c0-0.1,0.1-0.3,0.1-0.4l0.1-0.4c0.2-0.5,0.3-1,0.5-1.5c0.4-1,0.7-2,1.2-3c0.1-0.3,0.2-0.6,0.4-0.9c0.1-0.3,0.3-0.6,0.4-0.8
			c0.3-0.5,0.5-1,0.7-1.2c0.2-0.3,0.4-0.6,0.6-1c0.1-0.2,0.2-0.4,0.3-0.6c0.1-0.1,0.1-0.2,0.2-0.3c0.1-0.1,0.1-0.2,0.2-0.3
			c0.3-0.4,0.6-0.9,0.8-1.3l0.1-0.2l0.1-0.2c0.1-0.1,0.2-0.2,0.2-0.3c0.2-0.2,0.3-0.4,0.5-0.7c-0.5,0.6-0.7,0.8-0.8,0.9
			c-0.1,0.2-0.2,0.4-0.4,0.5c-0.1,0.2-0.2,0.4-0.3,0.5c-0.2,0.4-0.5,0.7-0.7,1.1c-0.3,0.6-0.6,1-0.6,0.9c0,0,0.1-0.2,0.2-0.5
			c0.1-0.1,0.1-0.3,0.2-0.4c0-0.1,0.1-0.2,0.1-0.2c0-0.1,0.1-0.2,0.1-0.2l1-1.5c0.3-0.5,0.7-1,1.1-1.5c0.1-0.1,0.2-0.3,0.3-0.4
			s0.2-0.2,0.3-0.3c0.2-0.2,0.3-0.4,0.4-0.5c0.3-0.3,0.4-0.5,0.5-0.6c0.2-0.3,0.3-0.3,0.5-0.4c0.5-0.5,0.9-1.1,1-1.1s-0.4,0.5-0.9,1
			c-0.1,0.1-0.2,0.2-0.2,0.3c-0.1,0.1,0.2,0.3,0.3,0.2l0,0l0,0l0,0l0,0l0,0c0,0,0,0,0,0.1c0-0.1,0-0.1,0-0.1
			c1.1-1.3,2.3-2.6,3.6-3.7c0.2-0.2,0.5-0.4,0.7-0.6c0.1-0.1,0.2-0.2,0.3-0.3c0.1-0.1,0.2-0.2,0.3-0.3c0.4-0.4,0.8-0.7,1.2-1
			c0.5-0.4,0.7-0.6,0.6-0.5S24.2,11,24,11.1c-0.2,0.2-0.5,0.4-0.8,0.6c-0.3,0.2-0.5,0.4-0.8,0.7c-0.2,0.2-0.4,0.4-0.6,0.6
			c-0.2,0.2-0.3,0.3-0.5,0.4c-0.3,0.2-0.4,0.4-0.5,0.4s0.5-0.5,1.1-1.1c2.1-1.9,4.1-3.3,5.2-3.9c0.2-0.1,0.4-0.2,0.6-0.4l0.9-0.6
			L29,7.5c0.2-0.1,0.3-0.2,0.5-0.3l0.9-0.5l0.5-0.3c0.2-0.1,0.3-0.2,0.5-0.2c0.3-0.1,0.6-0.3,0.8-0.4c0.1-0.1,0.3-0.1,0.4-0.2
			c0.1-0.1,0.3-0.1,0.4-0.2c0.6-0.2,1.1-0.5,1.7-0.7c0.4-0.2,0.8-0.3,1.2-0.4s0.7-0.3,1-0.3c1.2-0.3,1.4-0.4,1.2-0.3
			c-0.4,0.2-0.4,0.2,0,0.2c0.2,0,0.5-0.1,0.9-0.2c0.2,0,0.4-0.1,0.6-0.2c0.2,0,0.5-0.1,0.7-0.2C40.6,3.2,41,3.1,41.6,3
			c0.5,0,1.1-0.1,1.6-0.2c2.3-0.5,4.7-0.8,7-0.9c0.5-0.1,0.9-0.1-0.6-0.1c-0.5,0-1.1,0.1-1.7,0.1c-0.1,0-0.3,0-0.4,0H47
			c-0.3,0-0.6,0.1-0.8,0.1c-1.3,0.1,0.2-0.1,0.1-0.1c0,0,0.1,0,0.3-0.1c0.3,0,0.7-0.1,1.5-0.2l1.4-0.1H51c-0.2,0-1-0.1,0.7-0.1
			c0.5,0,0.9,0,1.4,0c0.2,0,0.5,0,0.7,0s0.5,0,0.7,0s0.5,0,0.7,0.1c0.1,0,0.2,0,0.4,0h0.2H56c0.5,0.1,1,0.1,1.5,0.2
			c0.3,0,0.6,0.1,0.8,0.1s0.3,0.1,0.4,0.1c0.1,0-0.1,0-0.8-0.1c-2.4-0.3-1.5-0.1-1,0c0.3,0,0.7,0.1,1,0.1l1,0.2c0.3,0,0.6,0.1,1,0.1
			c0.4,0.1,0.7,0.2,1.1,0.2c0.2,0,0.4,0.1,0.6,0.1c0.1,0,0.2,0,0.3,0.1c0.1,0,0.2,0.1,0.3,0.1c0.4,0.1,0.7,0.2,1.1,0.3
			c0,0,0.1,0,0.2,0c0.2,0,0.5,0.1,0.9,0.3c1.2,0.4,1.6,0.5,1.7,0.6c-0.1,0-0.3-0.1-0.5-0.1C65.6,4,65.5,4,65.3,4c-0.1,0,0,0,0.1,0.1
			c0.1,0,0.2,0.1,0.4,0.2c0.2,0.1,0.4,0.2,0.7,0.3C68,5.2,68,5.2,67.3,5.1c-1.2-0.3-0.8-0.3-4-1.1l-1.3-0.5c0,0-0.1,0-0.1,0.1
			s0.1,0.2,0.9,0.4c0.4,0.1,0.9,0.2,1.6,0.5c0.4,0.1,0.8,0.3,1.2,0.4c0.5,0.2,1,0.4,1.6,0.6c0.2,0.1,0.3,0.1,0.5,0.2
			c0.1,0.1,0.3,0.1,0.4,0.2c0.2,0.1,0.5,0.2,0.6,0.3l0.5,0.2c0.2,0.1,0.3,0.1,0.5,0.2l0.9,0.5c0.3,0.2,0.6,0.3,0.9,0.5l0.9,0.5
			c0.2,0.1,0.5,0.3,0.8,0.4c0.3,0.2,0.6,0.4,0.9,0.6c0.3,0.2,0.7,0.4,1,0.6c0.3,0.2,0.7,0.5,1,0.7l0.8,0.5c0.1,0.1-0.3-0.4,1,0.6
			c0.1,0-0.1-0.1-0.4-0.4c-0.1-0.1-0.3-0.3-0.5-0.4c-0.2-0.1-0.4-0.3-0.6-0.5c-1.2-0.9-2.1-1.5-1.6-1.2c0.1,0.1,0.3,0.2,0.5,0.3
			s0.5,0.3,0.8,0.5s0.6,0.4,0.9,0.6c0.3,0.2,0.6,0.5,1,0.7c0.3,0.2,0.5,0.4,0.8,0.6c0.6,0.5,1.1,0.9,1.5,1.3
			c0.1,0.1,0.2,0.2,0.3,0.3c0.1,0.1,0.2,0.2,0.2,0.2c0.1,0.1,0.3,0.3,0.3,0.4c2,1.9,3.6,3.9,5,5.9c0.3,0.4,0.6,0.8,0.9,1.3
			c0.1,0.2,0.3,0.4,0.4,0.6s0.3,0.5,0.4,0.7c0.3,0.4,0.5,0.8,0.5,0.9s-0.2-0.2-0.4-0.6c-0.1-0.2-0.3-0.4-0.4-0.7
			c-0.1-0.1-0.1-0.2-0.2-0.3c-0.1-0.1-0.1-0.2-0.2-0.3c0.2,0.3,0.3,0.5,0.3,0.7c0.1,0.2,0.1,0.3,0,0.3s-0.1-0.1-0.3-0.2
			c-0.1-0.2-0.4-0.4-0.7-0.8v0.2c0.3,0.4,0.6,0.9,0.7,1.2c0.2,0.3,0.2,0.4,0.2,0.4c-0.1-0.1-0.2-0.3-0.5-0.8
			c-0.1-0.1-0.2-0.3-0.2-0.4c-0.1-0.1-0.1-0.2-0.2-0.3c-0.1-0.2-0.2-0.3-0.3-0.4C86.1,21.1,86,21,86,21c-0.2-0.4-0.4-0.6-0.5-0.8
			C85.4,20,85.4,20,85.4,20c-0.3-0.4-0.6-0.8-0.9-1.2l-0.1-0.1l-0.1-0.1c-0.1-0.1-0.2-0.2-0.2-0.3c-0.2-0.2-0.3-0.4-0.4-0.5
			c-0.6-0.7-1.2-1.4-1.7-2c-0.3-0.3-0.6-0.6-0.8-0.9c-0.3-0.3-0.5-0.5-0.8-0.8c-0.1-0.1-0.1-0.1-0.2-0.2c-0.1-0.1-0.1-0.1-0.2-0.2
			c-0.1-0.1-0.2-0.2-0.4-0.3c-0.2-0.2-0.4-0.4-0.6-0.6c-0.1-0.1-0.2-0.2-0.4-0.4c-0.1-0.1-0.3-0.3-0.5-0.4c-0.4-0.3-0.8-0.6-1.2-1
			c-0.4-0.3-1-0.6-1.5-1.1c-0.3-0.2-0.6-0.4-0.9-0.6c-0.3-0.2-0.6-0.4-0.9-0.6c0.1,0.1,0.4,0.3,0,0.1c0.5,0.4-0.2-0.1-1.3-0.7
			c0,0,0,0,0.1,0.1L71.9,8c0.6,0.4,1,0.6,1.3,0.8s0.4,0.3,0.3,0.3c0,0-0.1,0-0.4-0.2c-0.2-0.1-0.5-0.3-0.9-0.4c-0.1,0-0.1,0-0.9-0.4
			c0-0.1-0.1-0.2-0.2-0.3s-0.2-0.1-0.3-0.2c-0.2-0.1-0.2-0.1-0.3-0.2c-0.2-0.1-0.3-0.2-0.6-0.3c-0.1,0-0.3-0.1-0.4-0.1
			c-0.4-0.2-1-0.5-1.4-0.6c-0.2-0.1-0.4-0.2-0.5-0.2C67.3,6,67.3,6,67.2,6c0-0.1,1.3,0.5,2.1,0.9c0.1,0,0.3,0.1,0.4,0.1
			c-0.1-0.1-0.2-0.1-0.3-0.2c-0.1,0-0.2-0.1-0.3-0.1c-0.2-0.1-0.4-0.2-0.7-0.3c-0.4-0.2-0.9-0.4-1.3-0.6s-0.9-0.3-1.3-0.5
			c-0.2-0.1-0.4-0.1-0.6-0.2C65.2,5,65,5,64.8,4.9l0,0c-0.4-0.1-0.8-0.3-1.2-0.4l-1.2-0.3L61.9,4l-0.6-0.1l-1.2-0.3
			c-0.1,0-0.3,0-0.6-0.1c-0.3,0-0.6-0.1-1-0.2c-0.5-0.1,0,0,0.7,0.1V3.3c0,0-0.3-0.1-0.7-0.2c-0.2,0-0.4-0.1-0.7-0.1
			S57.3,2.9,57,2.9l-1-0.1c-0.3,0-0.7-0.1-1-0.1l-1-0.1h-1c-0.1,0-0.3,0-0.4,0c0.1,0,0.3,0,0.4,0c-0.9,0-2.1,0-3.2,0
			c0,0.1,0.7,0.1-1.6,0.2c-0.1,0-0.2,0-0.2,0c-0.1,0-0.1,0-0.2,0c-0.1,0-0.2,0-0.3,0c-0.2,0-0.2,0-0.3,0c0,0,0.1,0,0.4,0
			c0.1,0,0.3,0,0.4,0c0.2,0,0.3,0,0.5,0c0.4,0,0.9,0,1.5-0.1c0.4,0,0.8,0,1.2,0s0.8,0,1.2,0c0.8,0,1.6,0,2.5,0.1
			c0.4,0,0.8,0.1,1.2,0.1C56.5,3,56.7,3,56.9,3s-0.1,0-0.8,0c-1.1-0.1-1.5-0.1-2-0.1s-0.9,0-2.1,0L52.1,3c0.4,0,0.9,0,1.3,0.1
			c-0.4,0-0.7,0-1,0c-0.1,0-0.3,0-0.4,0c-0.1,0-0.3,0-0.4,0c0.1,0,0.2,0,0.4,0c0.1,0,0.3,0,0.4,0c0.3,0,0.6,0,1,0
			c0.6,0,1.2,0,1.8,0.1c-0.1,0-0.2-0.1,0-0.1s0.7,0,1.8,0.1l0,0c0,0,0.2,0,1,0.1s1.1,0.2,1.2,0.3c0.6,0.1,0.6,0.1,0.6,0.2
			c0,0,0.1,0,0.2,0.1c0.1,0,0.4,0.1,0.9,0.2C62,4.3,63.1,4.7,64,4.9c0.4,0.1,0.7,0.2,1.1,0.3c0.4,0.1,0.8,0.2,1.2,0.4
			c0.4,0.2,0.8,0.3,1.2,0.5c0.1,0,0.2,0.1,0.3,0.1s0.2,0.1,0.3,0.1c0.2,0.1,0.4,0.2,0.6,0.3c1.4,0.7,1.2,0.6-0.6-0.1
			c-0.1-0.1-0.2-0.1-0.4-0.2c-0.1-0.1-0.2-0.1-0.4-0.1c-0.2-0.1-0.5-0.2-0.7-0.3c-0.5-0.2-0.9-0.3-1.2-0.4c-0.6-0.2-0.8-0.2,0,0.1
			c0.3,0.1,0.6,0.2,0.8,0.3C66.4,6,66.6,6,66.7,6.1c0.3,0.1,0.5,0.2,0.8,0.3C68.1,6.6,68.6,6.8,69,7s0.8,0.4,1.1,0.6
			c0.3,0.2,0.3,0.2,0.7,0.4c0.1,0.1,0.3,0.2,0.4,0.2c0.2,0.1,0.3,0.2,0.5,0.3c0.4,0.2,0.8,0.5,1.2,0.7c1.4,0.9,0.4,0.2,0.4,0.2
			s0.4,0.2,1.1,0.6l0.4,0.2l0.4,0.2l0,0c-0.4-0.3-0.2-0.2,0.2,0c0.2,0.1,0.5,0.3,0.7,0.5c0.3,0.2,0.6,0.4,0.8,0.6
			c0.2,0.2,0.6,0.4,0.9,0.7c0.2,0.1,0.3,0.3,0.5,0.4c0.1,0.1,0.3,0.2,0.4,0.3c0.2,0.2,0.5,0.5,0.8,0.7c0.1,0.1,0.3,0.3,0.4,0.4
			c0.1,0.1,0.3,0.3,0.4,0.4c0.3,0.3,0.6,0.6,0.8,0.8c0.1,0.1,0.3,0.3,0.4,0.4c0.1,0.1,0.3,0.3,0.4,0.4c1,1.1,1.8,2.1,1.9,2.4h-0.1
			c0.1,0.1,0.2,0.2,0.3,0.4c0.1,0.1,0.2,0.3,0.3,0.4c0.2,0.3,0.4,0.5,0.6,0.9c0.1,0.2,0.2,0.3,0.4,0.5c0.1,0.2,0.3,0.4,0.4,0.6
			c0.3,0.5,0.7,1,1.1,1.7c0.2,0.3,0.3,0.6,0.5,0.8c0.1,0.2,0.2,0.4,0.3,0.5c0.1,0.3,0.2,0.4,0.1,0.3c0,0-0.1-0.1-0.1-0.2
			c-0.1-0.1-0.2-0.3-0.3-0.4c-0.2-0.4-0.6-0.9-1-1.6c0,0.1-0.5-0.6-1.1-1.3c-0.1-0.1-0.1-0.2-0.2-0.3c-0.1-0.1-0.1-0.2-0.2-0.3
			c-0.1-0.2-0.3-0.3-0.4-0.5c-0.2-0.3-0.4-0.4-0.4-0.4c0.3,0.5,0.7,1.1,0.9,1.4c0.1,0.2,0.1,0.3,0.1,0.2L84.9,21l-0.1-0.1
			c0-0.1-0.1-0.1-0.2-0.2c-0.2-0.2,0,0,0.2,0.4c0.2,0.3,0.5,0.7,0.4,0.7c-0.2-0.2-0.3-0.4-0.4-0.6c-0.1-0.1-0.1-0.2-0.2-0.3
			c-0.1-0.1-0.1-0.2-0.2-0.3c-0.3-0.4-0.5-0.7-0.7-0.9c-0.2-0.3-0.4-0.5-0.6-0.7s-0.3-0.4-0.4-0.5c-0.4-0.5-0.5-0.6-0.3-0.5
			c0.1,0,0-0.1-0.2-0.3c-0.2-0.2-0.4-0.5-0.7-0.8c-0.2-0.3-0.5-0.6-0.7-0.7c-0.2-0.2-0.3-0.3-0.2-0.2c-0.2-0.2-0.5-0.5-0.7-0.7
			c-0.1-0.1-0.2-0.2-0.3-0.3c-0.1-0.1-0.2-0.2-0.3-0.3c-0.5-0.4-0.9-0.8-1.3-1.2s-0.9-0.7-1.3-1.1c-0.4-0.3-0.8-0.6-1.2-0.9
			c-0.2-0.1-0.4-0.3-0.6-0.4c-0.1-0.1-0.2-0.1-0.3-0.2c-0.1-0.1-0.2-0.1-0.3-0.2c-0.4-0.2-0.7-0.4-0.8-0.5c-0.4-0.2-0.2-0.1,0.8,0.6
			c0.2,0.1,0.2,0.2,0.2,0.2s-0.1,0,0,0c0.6,0.4,1.1,0.8,1.7,1.2c0.3,0.2,0.7,0.5,1,0.8c0.2,0.1,0.3,0.3,0.5,0.4
			c0.1,0.1,0.3,0.2,0.4,0.3c0.2,0.2,0.1,0.1-0.2-0.1c-0.3-0.2-0.7-0.6-1-0.8c-0.1-0.1-0.2-0.1-0.3-0.2c0.4,0.4,0.5,0.5,0.1,0.3
			c-0.4-0.3-1.3-0.9-2.8-1.8c0.1,0.1,0.2,0.1,0.3,0.2c0.1,0.1,0.2,0.2,0.3,0.2c0.2,0.2,0.4,0.3,0.6,0.5c0.2,0.1,0.4,0.3,0.6,0.4
			l0.1,0.1l0.1,0.1c0.1,0.1,0.2,0.1,0.3,0.2c0.4,0.3,0.7,0.6,1.1,0.8l0.1,0.1l0.1,0.1c0.1,0.1,0.2,0.1,0.2,0.2
			c0.2,0.1,0.3,0.3,0.4,0.4c0.3,0.3,0.6,0.5,0.8,0.8c0.3,0.3,0.5,0.5,0.7,0.7c0.2,0.2,0.4,0.5,0.6,0.7s0.4,0.4,0.6,0.6
			c0.6,0.7,0.9,1-0.2,0v0.1c-0.1-0.1-0.4-0.3-1.4-1.4c-0.6-0.6-1.1-1-1.5-1.4c-0.2-0.2-0.4-0.4-0.7-0.5c-0.2-0.2-0.5-0.3-0.7-0.5
			c-0.2-0.1-0.3-0.1-0.5-0.2c-0.1,0-0.2-0.1-0.4-0.3c-0.2-0.2-0.5-0.4-0.9-0.6c-0.9-0.7-1.4-1-1.8-1.2c-0.6-0.5-0.4-0.4-0.5-0.6
			c-0.1-0.1-0.3-0.2-0.4-0.3c-0.5-0.3-0.9-0.5-0.9-0.5c0.1,0,0-0.1-0.3-0.3c-0.2-0.1-0.4-0.2-0.7-0.4c-0.3-0.1-0.7-0.3-1.1-0.6
			c-0.6-0.3-1.1-0.5-1.4-0.7c-0.3,0.2-0.5,0.1-0.6,0.1c-0.2-0.1-0.3-0.1-0.5-0.2c-0.3-0.1-0.5-0.2-0.8-0.3c-0.2-0.2-0.4-0.3-0.7-0.4
			c-0.5-0.2-0.9-0.3-1.3-0.5c-0.1,0-0.2-0.1-0.3-0.1S63,6.3,62.9,6.3c-0.2-0.1-0.5-0.1-0.7-0.2c-0.4,0-0.6-0.1-0.9-0.1
			s-0.6-0.1-0.9-0.2H60c0.2,0.1,0.5,0.1,0.8,0.2c0.1,0,0.3,0.1,0.5,0.1s0.3,0.1,0.5,0.2c0.3,0.1,0.7,0.2,1.1,0.3
			c0.1,0,0.2,0.1,0.3,0.1s0.2,0.1,0.3,0.1c0.2,0.1,0.3,0.1,0.5,0.2c0.2,0.1,0.5,0.2,0.7,0.3c0.1,0,0.2,0.1,0.4,0.1
			c0.1,0,0.2,0.1,0.3,0.1C65.8,7.7,66,7.8,66,7.8L66.5,8l0.3,0.1L67,8.2l1,0.5c0.3,0.1,0.5,0.2,0.6,0.3c0.2,0.1,0.3,0.2,0.4,0.2
			c0.2,0.1,0.3,0.2,0.3,0.2c0.1,0.1-0.1,0-0.1,0c0.1,0.1,0.2,0.1,0.3,0.2c0.1,0.1,0.3,0.1,0.4,0.2c0.2,0.1,0.4,0.2,0.5,0.2
			c0.2,0.1,0.5,0.3,0.7,0.4c0.2,0.1,0.4,0.2,0.6,0.3s0.3,0.2,0.5,0.3c0.6,0.4,1,0.7,1.3,0.9c0.1,0.1,0.1,0.1,0.2,0.1
			s0.1,0.1,0.2,0.1c0.1,0.1,0.2,0.1,0.2,0.2c0.1,0.1,0.2,0.2,0.4,0.4l0,0c0.3,0.2,0.5,0.3,0.7,0.5s0.5,0.4,0.7,0.5
			c0.2,0.2,0.4,0.4,0.7,0.5c0.1,0.1,0.2,0.2,0.3,0.3c0.1,0.1,0.2,0.2,0.3,0.3c0.4,0.4,0.8,0.7,1.2,1c0.4,0.4,0.7,0.7,1,1
			c0.2,0.2,0.3,0.3,0.5,0.5s0.3,0.3,0.4,0.5c0.3,0.3,0.6,0.6,0.8,1c0.3,0.3,0.5,0.6,0.7,0.9s0.5,0.6,0.7,0.9
			c0.3,0.3,0.6,0.8,0.9,1.2C83.6,22.2,83.8,22.5,83.6,22.2z M76.4,13.3c0.2,0.2,0.4,0.3,0.6,0.4c0.1,0.1,0.2,0.1,0.3,0.2
			c0.1,0.1,0.2,0.1,0.2,0.2c-0.1-0.1-0.2-0.1-0.2-0.2c-0.1-0.1-0.2-0.1-0.3-0.2C76.8,13.6,76.6,13.5,76.4,13.3z M76.2,13.2
			c0.1,0.1,0.2,0.1,0.2,0.1C76.4,13.4,76.2,13.3,76.2,13.2z M80,14.9L80,14.9l0.2,0.1L80,14.9z M75.5,12.7c-0.5-0.3-0.9-0.6-1.3-0.9
			C74.6,12.1,75,12.4,75.5,12.7C75.5,12.7,75.4,12.7,75.5,12.7C75.4,12.7,75.5,12.7,75.5,12.7z M73.6,11c0.1,0,0.1,0.1,0.2,0.1l0,0
			C73.7,11.1,73.7,11,73.6,11z M75.2,10.9c0.3,0.2,0.6,0.5,1,0.8C75.9,11.4,75.6,11.2,75.2,10.9z M73.8,10.6
			c0.2,0.1,0.3,0.2,0.5,0.3s0.3,0.2,0.5,0.4c-0.2-0.1-0.3-0.2-0.5-0.4C74.1,10.8,73.9,10.7,73.8,10.6z M71.5,9.9
			c0.1,0.1,0.3,0.2,0.5,0.3s0.3,0.2,0.5,0.3c0.3,0.2,0.6,0.4,0.9,0.6c0.2,0.1,0.4,0.3,0.7,0.5c-0.2-0.2-0.5-0.3-0.7-0.5
			c-0.3-0.2-0.6-0.4-0.9-0.6c-0.2-0.1-0.3-0.2-0.5-0.3C71.8,10.1,71.6,10,71.5,9.9z M68.4,7.9C68.2,7.8,68.2,7.8,68.4,7.9
			c0.2,0,0.3,0.1,0.5,0.2s0.4,0.2,0.7,0.3l0.2,0.1l-0.2-0.1c-0.3-0.1-0.5-0.3-0.7-0.3C68.7,8,68.5,7.9,68.4,7.9
			C68.2,7.8,68.2,7.8,68.4,7.9z M65.2,5.9L65.5,6l0.2,0.1l0,0L65.5,6L65.2,5.9z M52.1,2.2c0.5,0,1,0,1.4,0.1c0.1,0,0.2,0,0.3,0
			s0.2,0,0.3,0c0.2,0,0.3,0,0.5,0.1c0.4,0,0.9,0.1,1.3,0.1l1.3,0.2l-1.3-0.2c-0.4,0-0.9-0.1-1.3-0.1c-0.1,0-0.3,0-0.5-0.1
			c-0.1,0-0.2,0-0.3,0s-0.2,0-0.3,0C53.1,2.3,52.6,2.2,52.1,2.2z M50.6,2.2C50.7,2.2,50.7,2.2,50.6,2.2C50.7,2.2,50.7,2.2,50.6,2.2z
			 M50.4,2.2c0.2,0,0.4,0,0.6,0C50.8,2.2,50.6,2.2,50.4,2.2z M37.9,84.2L37.9,84.2c0.3,0,0.5,0,0.6,0C38.4,84.2,38.2,84.1,37.9,84.2
			L37.9,84.2z M31.1,79.4l0.8,0.4c0.3,0.1,0.5,0.3,0.8,0.4c0.5,0.3,1.1,0.5,1.6,0.8c0.6,0.3,1.5,0.7,1.8,0.9
			c-0.3-0.2-1.2-0.6-1.8-0.9c-0.5-0.3-1.1-0.5-1.6-0.8c-0.3-0.1-0.5-0.3-0.8-0.4L31.1,79.4z M26.6,76.7c0.1,0.1,0.2,0.2,0.4,0.3
			c0.1,0.1,0.1,0.1,0.2,0.2s0.2,0.1,0.3,0.2c0.3,0.2,0.6,0.4,0.7,0.5c-0.2-0.1-0.4-0.3-0.7-0.5c-0.1-0.1-0.2-0.1-0.3-0.2
			C27.1,77.1,27,77,26.9,77C26.8,76.9,26.7,76.8,26.6,76.7z M25.6,76C25.7,76.1,25.7,76.1,25.6,76C25.7,76.1,25.7,76.1,25.6,76z
			 M24.3,75.2l-0.4-0.3c-0.1,0-0.1,0-0.1,0s0,0,0.1,0L24.3,75.2z M24.3,74.8c0.1,0.1,0.1,0.1,0.1,0.1c0.3,0.2,0.5,0.5,0.7,0.6
			c-0.2-0.2-0.4-0.4-0.7-0.6L24.3,74.8z M23.9,74.5l0.1,0.1l0.1,0.1C24,74.6,24,74.6,23.9,74.5z M23.7,74.2c0.2,0.2,0.1,0.2,0.2,0.3
			l0,0C23.8,74.4,23.8,74.3,23.7,74.2z M22.8,72.4c0.1,0.2,0.5,0.6,1,1.1c0.2,0.2,0.1,0.2-0.3-0.1c0.4,0.3,0.5,0.3,0.3,0.1
			C23.3,73,22.9,72.6,22.8,72.4z M11.3,58.7L11.3,58.7c-0.1-0.2-0.2-0.3-0.2-0.2C11.1,58.4,11.2,58.5,11.3,58.7z M12.5,61.6
			L12.5,61.6C12.5,61.5,12.5,61.5,12.5,61.6L12.5,61.6z M14,62.5c0.5,1.1,0.7,1.5,0.4,0.9C14.7,64,14.5,63.6,14,62.5
			c-0.1-0.1-0.1-0.3-0.2-0.4c-0.1-0.1-0.1-0.3-0.2-0.4c-0.1-0.3-0.2-0.5-0.3-0.8S13.1,60.3,13,60c-0.1-0.3-0.2-0.7-0.4-1
			c0.1,0.4,0.3,0.7,0.4,1c0.1,0.3,0.2,0.6,0.3,0.9c0.1,0.3,0.2,0.5,0.3,0.8c0,0.1,0.1,0.3,0.2,0.4C13.9,62.3,14,62.4,14,62.5z
			 M16.5,67.9c-0.1-0.1-0.1-0.2-0.2-0.3c-0.1-0.1-0.1-0.2-0.2-0.3c-0.1-0.2-0.2-0.4-0.3-0.6c0-0.1,0-0.1,0.1,0
			c-0.1-0.1-0.2-0.2-0.1,0c0.1,0.2,0.2,0.4,0.3,0.6c0.1,0.1,0.1,0.2,0.2,0.3C16.4,67.7,16.4,67.8,16.5,67.9z M18.3,69.9
			c0-0.1-0.1-0.1-0.2-0.3c-0.1-0.2-0.2-0.3-0.3-0.5c-0.1-0.1-0.2-0.3-0.3-0.4c-0.2-0.2-0.3-0.4-0.4-0.6c-0.2-0.3-0.3-0.5-0.3-0.6
			c0.1,0.1,0.1,0.3,0.3,0.6c0.1,0.2,0.2,0.4,0.4,0.6c0.1,0.1,0.2,0.3,0.3,0.4s0.2,0.3,0.3,0.5C18.2,69.8,18.2,69.9,18.3,69.9z
			 M17.9,68.6c-0.2-0.2-0.3-0.4-0.3-0.3c0,0,0,0.1,0.1,0.2s0.2,0.3,0.4,0.6c0.3,0.4,0.4,0.6,0.2,0.4c0.1,0.1,0,0-0.2-0.4
			c-0.2-0.3-0.3-0.5-0.4-0.6s-0.1-0.2-0.1-0.2C17.6,68.2,17.7,68.4,17.9,68.6z M17.9,70L17.9,70c0.2,0.3,0.5,0.6,0.7,0.9
			c0.2,0.3,0.5,0.6,0.7,0.8c0.2,0.3,0.5,0.5,0.7,0.8c0.2,0.3,0.5,0.5,0.7,0.8c-0.2-0.3-0.5-0.5-0.7-0.8c-0.2-0.3-0.5-0.5-0.7-0.8
			c-0.2-0.3-0.5-0.5-0.7-0.8C18.3,70.6,18.1,70.3,17.9,70z M17.2,65c0.2,0.2,0.5,0.6,1,1.4c0.3,0.4,0.5,0.7,0.7,1
			c0.1,0.2,0.2,0.3,0.3,0.4s0.2,0.3,0.3,0.4c0.4,0.5,0.6,0.8,0.9,1.1c-0.2-0.3-0.5-0.7-0.9-1.1c-0.1-0.1-0.2-0.2-0.3-0.4
			c-0.1-0.1-0.2-0.3-0.3-0.4c-0.2-0.3-0.5-0.6-0.7-1C17.6,65.6,17.3,65.2,17.2,65z M17,64.9l0.1,0.2c0.2,0.3,0.4,0.6,0.5,0.9
			c-0.2-0.3-0.4-0.6-0.5-0.9L17,64.9L17,64.9L17,64.9z M14.3,63.8c-0.4-0.9-0.3-0.9-0.3-1.1C14,63,13.9,62.9,14.3,63.8
			c0.2,0.5,0.4,0.8,0.6,1.2c0.1,0.2,0.2,0.3,0.2,0.5c0,0.1,0.1,0.2,0.1,0.2c0,0.1,0.1,0.2,0.1,0.2c0-0.1-0.1-0.2-0.1-0.2
			c0-0.1-0.1-0.2-0.1-0.2c-0.1-0.2-0.2-0.3-0.2-0.5C14.7,64.7,14.5,64.3,14.3,63.8z M16.3,64c0.1,0.3,0.3,0.5,0.4,0.6
			c0-0.1,0,0,0.1,0c-0.1-0.1-0.1-0.1-0.1,0C16.6,64.5,16.5,64.3,16.3,64z M16.4,62.9c0.2,0.3,0.3,0.6,0.5,0.9
			C16.7,63.5,16.6,63.2,16.4,62.9z M15.1,60.5C15.2,60.5,15.2,60.5,15.1,60.5C15.2,60.5,15.2,60.5,15.1,60.5z M14.8,59.4
			c0,0.1,0.1,0.1,0.1,0.1l0,0C14.8,59.5,14.8,59.5,14.8,59.4z M13.5,57c0,0.2,0.1,0.3,0.1,0.5c0,0.1,0,0.2,0.1,0.2
			c0,0.1,0.1,0.2,0.1,0.2c0.1,0.3,0.2,0.7,0.4,1c0.1,0.2,0.1,0.4,0.2,0.5c0.1,0.2,0.1,0.4,0.2,0.5c0.2,0.4,0.3,0.7,0.5,1.1
			c0.1,0.1,0.1,0.3,0.2,0.4l0.2,0.4l0.5,0.9c0.2,0.3,0.1-0.1,0-0.6l0,0c0.2,0.5,0.3,0.9,0,0.6L15.5,62l-0.2-0.4
			c-0.1-0.1-0.2-0.3-0.2-0.4c-0.2-0.4-0.3-0.8-0.5-1.1c-0.1-0.2-0.2-0.4-0.2-0.5c-0.1-0.2-0.1-0.4-0.2-0.5c-0.1-0.3-0.2-0.7-0.4-1
			c0-0.1-0.1-0.2-0.1-0.2c0-0.1,0-0.2-0.1-0.2C13.6,57.3,13.5,57.2,13.5,57z M9.7,55c0-0.2,0-0.3-0.1-0.6c-0.1-0.6-0.2-1.2-0.3-1.8
			c0.1,0.6,0.2,1.2,0.3,1.8C9.7,54.8,9.7,54.9,9.7,55z M12,56C12,56.1,12,56.1,12,56C12.1,56.1,12.1,56.1,12,56z M11.3,52.5
			c0-0.1-0.1-0.2-0.1-0.3c0.1,0.7,0.1,0.9,0.1,1c0,0,0-0.3-0.1-1C11.2,52.3,11.3,52.4,11.3,52.5c0.1,0.5,0.2,0.9,0.3,1.2
			c0,0.2,0.1,0.4,0.1,0.5c0,0.2,0.1,0.3,0.1,0.4c0.1,0.6,0.2,0.9,0.3,1.2c0-0.2-0.1-0.6-0.3-1.2c0-0.1-0.1-0.3-0.1-0.4
			c0-0.2-0.1-0.3-0.1-0.5C11.5,53.4,11.4,53,11.3,52.5c0-0.2,0-0.2,0-0.2c0,0.1,0.1,0.2,0.1,0.5l0,0c-0.1-0.3-0.1-0.4-0.1-0.5
			C11.3,52.3,11.3,52.3,11.3,52.5z M11.3,49.1c0,0.3,0.1,0.6,0.1,1c0-0.1,0-0.1-0.1-0.1c0-0.1,0,0,0.1,0.1
			C11.3,49.7,11.3,49.4,11.3,49.1z M10.4,47.9c0,0.1,0,0.3,0,0.4c0,0.1,0,0.3,0,0.4c0,0.3,0.1,0.5,0.1,0.8s0.1,0.6,0.1,0.9
			c0,0.3,0.1,0.6,0.2,0.9c0,0.1,0,0.4,0.1,0.8c0,0.2,0.1,0.5,0.1,0.8c0.1,0.3,0.1,0.7,0.2,1.1c0.1,0.4,0.2,0.8,0.3,1.3
			c-0.1-0.5-0.2-0.9-0.3-1.3c-0.1-0.4-0.1-0.7-0.2-1c-0.1-0.3-0.1-0.6-0.1-0.8c-0.1-0.4-0.1-0.7-0.1-0.8c-0.1-0.3-0.1-0.6-0.2-0.9
			c0-0.3-0.1-0.6-0.1-0.9c0-0.3-0.1-0.6-0.1-0.8c0-0.1,0-0.3,0-0.4C10.4,48.1,10.4,48,10.4,47.9z M9.5,45.5L9.5,45.5
			c0-0.1,0,0.2,0,0.7C9.5,45.7,9.5,45.4,9.5,45.5z M10.5,42.1c0,0.1,0,0.2-0.1,0.2c0,0.1,0,0.2,0,0.3s0,0.2,0,0.3c0,0.2,0,0.3,0,0.5
			c0,0.3,0,0.7,0,1c0-0.3,0-0.6,0-1c0-0.2,0-0.3,0-0.5c0-0.1,0-0.2,0-0.3s0-0.2,0-0.3C10.4,42.3,10.4,42.2,10.5,42.1z M11,41.8
			c0,0.1,0,0.2,0,0.4C10.9,42.1,10.9,41.9,11,41.8z M9.8,36H9.6H9.8c0,0.2-0.1,0.3-0.1,0.5L9.6,37l-0.2,1c-0.1,0.2-0.1,0.4-0.2,0.6
			c-0.1,0.5-0.1,1.1-0.2,1.7c0,0,0,0,0,0.1C9,40,9,39.5,9.1,39C9,39.6,9,40.1,8.9,40.4c0,0.5-0.1,1-0.1,1.5c0-0.5,0.1-1,0.1-1.5
			c0-0.1,0-0.1,0-0.1c0,0.2,0,0.3,0,0.5s0,0.3,0,0.5c0,0.3,0,0.7-0.1,1c0,0.7,0,1.4-0.1,2.1c0-0.7,0-1.4,0.1-2.1
			c0-0.4,0.1-0.7,0.1-1c0-0.2,0-0.3,0-0.5s0-0.3,0-0.5c0.2-0.6,0.2-1.2,0.3-1.7c0.1-0.2,0.1-0.4,0.2-0.6v0.2c0,0.2-0.1,0.4-0.1,0.5
			s0,0.3,0,0.3c0-0.1,0-0.2,0-0.3s0-0.3,0.1-0.5V38l0.2-1l0.1-0.5C9.7,36.4,9.7,36.2,9.8,36L9.8,36L9.8,36z M12.8,32.7
			c-0.1,0.3-0.1,0.7-0.2,1c-0.1,0.5-0.3,0.9-0.4,1.4l-0.3,1.4l0.3-1.4c0.1-0.5,0.2-0.9,0.4-1.4C12.6,33.4,12.7,33,12.8,32.7z
			 M13,31.8L13,31.8c-0.1,0.3-0.2,0.8-0.2,0.9C12.8,32.6,12.9,32.1,13,31.8L13,31.8z M14.8,29.2c0,0.2-0.1,0.3-0.1,0.5
			C14.7,29.5,14.8,29.4,14.8,29.2L14.8,29.2z M15.7,27.7c0,0.1-0.1,0.1-0.1,0.2s-0.1,0.1-0.1,0.2c-0.1,0.1-0.1,0.2-0.2,0.4
			c-0.1,0.2-0.2,0.4-0.3,0.6c0.1-0.2,0.2-0.4,0.3-0.6c0.1-0.1,0.1-0.2,0.2-0.4c0-0.1,0.1-0.1,0.1-0.2C15.6,27.8,15.7,27.7,15.7,27.7
			c0,0.1-0.1,0.1-0.1,0.2s-0.1,0.2-0.1,0.2c0-0.1,0.1-0.2,0.1-0.2C15.6,27.8,15.7,27.7,15.7,27.7z M12.4,25.5
			c-0.1,0.1-0.2,0.3-0.3,0.4c-0.1,0.1-0.2,0.3-0.2,0.4c0-0.2,0.1-0.3,0.2-0.4C12.2,25.8,12.3,25.6,12.4,25.5L12.4,25.5z M37,6.6h0.2
			l0,0H37z M34.1,6.9c0.5-0.2,1.2-0.5,1.9-0.8c0.2,0,0.5-0.1,0.4-0.1c0.1,0-0.3,0-0.4,0.1C35.2,6.4,34.5,6.7,34.1,6.9z M34.7,6.8
			L34.7,6.8c0.3-0.1,0.6-0.3,0.8-0.3C35.3,6.5,35,6.6,34.7,6.8z M34.3,7.5c0.2-0.1,0.4-0.2,0.8-0.3l0,0C34.8,7.4,34.5,7.5,34.3,7.5z
			 M26.9,12c0.2-0.2,0.4-0.3,0.6-0.5s0.4-0.3,0.7-0.5c0.5-0.3,0.9-0.7,1.5-1c0.3-0.2,0.5-0.3,0.8-0.5c0.1-0.1,0.3-0.2,0.4-0.2
			c0.1-0.1,0.3-0.2,0.4-0.2c0.2-0.1,0.5-0.3,0.8-0.4c0.3-0.2,0.6-0.3,0.9-0.4c-0.3,0.1-0.6,0.3-0.9,0.4c-0.3,0.2-0.6,0.3-0.8,0.5
			c-0.1,0.1-0.3,0.1-0.4,0.2c-0.1,0.1-0.3,0.2-0.4,0.2c-0.3,0.2-0.5,0.3-0.8,0.5c-0.5,0.3-1,0.7-1.5,1c-0.2,0.2-0.5,0.3-0.7,0.5
			C27.3,11.7,27.1,11.9,26.9,12z M28.6,11.1l-0.5,0.4c-0.2,0.1-0.4,0.3-0.6,0.4l0,0l0,0c0.2-0.2,0.4-0.3,0.6-0.4L28.6,11.1z
			 M27.9,12.7L27.9,12.7c0,0,0.1-0.1,0.2-0.2C28,12.6,27.9,12.7,27.9,12.7z M27.8,8.8c0.1-0.1,0.2-0.1,0.3-0.2
			c0.1-0.1,0.2-0.1,0.3-0.2c0.2-0.1,0.5-0.3,0.7-0.4l0.4-0.4L29,8c-0.2,0.1-0.5,0.3-0.7,0.4C28.1,8.5,28,8.5,28,8.6
			C27.9,8.6,27.8,8.7,27.8,8.8z M27.7,10.9L27.7,10.9c0.2-0.1,0.5-0.3,0.9-0.5C28.2,10.6,27.9,10.8,27.7,10.9
			C27.8,10.8,27.8,10.9,27.7,10.9z M23,14L23,14c0.1-0.1,0.3-0.3,0.4-0.4c0.1-0.1,0.2-0.2,0.4-0.3c0.3-0.2,0.5-0.4,0.7-0.6
			c-0.2,0.2-0.5,0.4-0.7,0.6c-0.1,0.1-0.3,0.2-0.4,0.3C23.3,13.7,23.1,13.9,23,14z M22.7,14.3l0.3-0.2
			C22.8,14.1,22.7,14.3,22.7,14.3z M23.9,15.9L23.9,15.9c0.2-0.3,0.3-0.3,0.7-0.7C24.2,15.6,24.1,15.7,23.9,15.9z M20.5,18
			c0.1-0.1,0.3-0.4,0.7-0.9c0.1-0.2,0.6-0.8,1.2-1.4c-0.6,0.7-1.1,1.2-1.2,1.4C20.8,17.6,20.6,17.9,20.5,18z M22.7,17L22.7,17
			l0.4-0.4L22.7,17z M20.3,20c0.1-0.1,0.2-0.2,0.3-0.4c0.1-0.1,0.2-0.2,0.3-0.3c0.2-0.2,0.3-0.4,0.5-0.6c0.3-0.3,0.5-0.6,0.7-0.9
			c-0.2,0.2-0.4,0.5-0.7,0.9c-0.1,0.2-0.3,0.4-0.5,0.6c-0.1,0.1-0.2,0.2-0.3,0.3C20.5,19.7,20.4,19.8,20.3,20
			c0.1-0.1,0.2-0.2,0.3-0.3c0.2-0.2,0.3-0.4,0.5-0.5c0.1-0.1,0.2-0.2,0.2-0.2c0.1-0.1,0.2-0.1,0.3-0.2c-0.1,0.1-0.2,0.1-0.3,0.2
			c-0.1,0-0.1,0.1-0.2,0.2s-0.3,0.3-0.5,0.5L20.3,20z M19.8,21.2c0.3-0.3,0.6-0.7,0.8-1C20.4,20.5,20.1,20.9,19.8,21.2z M18,19.4
			L18,19.4c-0.1,0.1-0.2,0.2-0.3,0.4c-0.1,0.1-0.2,0.2-0.2,0.3c-0.1,0.2-0.3,0.4-0.4,0.5c0.1-0.1,0.2-0.3,0.4-0.5
			c0.1-0.1,0.1-0.2,0.2-0.3C17.8,19.6,17.9,19.5,18,19.4z M18.6,18.5L18.6,18.5c-0.2,0.3-0.4,0.6-0.7,0.8
			C18.2,19.1,18.4,18.8,18.6,18.5z M17.7,18c0.1-0.2,0.3-0.4,0.4-0.6C17.9,17.6,17.8,17.8,17.7,18L17.7,18z M16.6,20.8
			c0.2-0.3,0.5-0.6,0.7-0.9c0.1-0.2,0.2-0.3,0.4-0.5c0.1-0.2,0.2-0.3,0.4-0.5c0.2-0.3,0.5-0.6,0.7-0.9l0.2-0.2l0.2-0.2
			c0.1-0.1,0.3-0.3,0.4-0.4c-0.1,0.1-0.3,0.3-0.4,0.4L19,17.8L18.8,18c-0.2,0.3-0.5,0.6-0.7,0.9c-0.1,0.2-0.2,0.3-0.4,0.5
			c-0.1,0.2-0.2,0.3-0.4,0.5C17,20.2,16.8,20.5,16.6,20.8c-0.1,0.1-0.2,0.1-0.1,0C16.4,21,16.4,21,16.6,20.8z M13.1,24
			c0.2-0.3,0.3-0.5,0.4-0.7C13.4,23.5,13.3,23.7,13.1,24z M15.3,24.5L15.3,24.5c-0.1,0.2-0.3,0.5-0.4,0.7c-0.1,0.3-0.3,0.5-0.4,0.7
			c0.1-0.2,0.3-0.5,0.4-0.7S15.1,24.8,15.3,24.5z M17.8,23.3c0,0-0.1,0,0-0.1C17.7,23.4,17.8,23.3,17.8,23.3c-0.2,0.3-0.4,0.7-0.6,1
			s-0.3,0.6-0.4,0.8c0.1-0.2,0.3-0.5,0.4-0.8C17.4,24,17.6,23.7,17.8,23.3z M20.6,21.2c-0.1,0.1-0.2,0.3-0.3,0.4L20,22
			c-0.1,0.2-0.3,0.5-0.6,0.9c-0.1,0.1-0.1,0.2-0.2,0.3c-0.1,0.1-0.1,0.2-0.2,0.3c-0.1,0.2-0.3,0.4-0.4,0.6c0.1-0.2,0.3-0.4,0.4-0.6
			c0.1-0.1,0.1-0.2,0.2-0.3c0.1-0.1,0.1-0.2,0.2-0.3c0.2-0.4,0.5-0.7,0.6-0.9l0.3-0.4C20.4,21.5,20.5,21.4,20.6,21.2z M22,18.8
			c-0.3,0.3-0.6,0.6-0.8,0.9c-0.2,0.3-0.4,0.5-0.7,0.8c-0.3,0.4-0.6,0.8-0.9,1.3c0.3-0.4,0.6-0.8,0.9-1.3c0.2-0.3,0.5-0.5,0.7-0.8
			C21.4,19.4,21.7,19.2,22,18.8z M22.3,19.1L22.3,19.1c-0.1,0.1-0.3,0.3-0.4,0.5c-0.6,0.6-0.2,0.1,0.2-0.5c-0.4,0.5-0.8,1.1-0.2,0.5
			C22,19.4,22.2,19.2,22.3,19.1c0,0,0,0.1-0.1,0.2C22.2,19.2,22.3,19.1,22.3,19.1z M25.1,15.3c-0.5,0.5-1,0.9-1.4,1.4
			c-0.5,0.5-0.9,1-1.4,1.4l-0.9,1.1l0.9-1.1c0.5-0.5,0.9-1,1.4-1.4C24.1,16.2,24.6,15.8,25.1,15.3z M26.6,12.2
			c-0.2,0.1-0.3,0.3-0.5,0.4l-0.3,0.2L25.6,13c-0.3,0.3-0.6,0.6-1,0.8l0,0c0.3-0.3,0.6-0.6,1-0.8l0.2-0.2l0.3-0.2
			C26.2,12.4,26.4,12.3,26.6,12.2z M37,7.9c-0.1,0-0.2,0-0.2,0.1c-0.1,0-0.1,0-0.2,0c-0.2,0.1-0.3,0.1-0.5,0.2
			c-0.3,0.1-0.7,0.3-1,0.4c-0.4,0.2-0.7,0.3-1.1,0.5c-0.4,0.2-0.7,0.3-1.1,0.5c-0.4,0.2-0.9,0.5-1.3,0.7s-0.8,0.5-1.2,0.7L30,11.2
			l-0.2,0.1l-0.2,0.1l-0.7,0.5c-0.3,0.2-0.5,0.4-0.8,0.7c0,0.1-0.3,0.3-0.8,0.6c0.4-0.3,0.7-0.6,0.8-0.6c0.2-0.2,0.5-0.5,0.8-0.7
			l0.7-0.5l0.2-0.1l0.2-0.1l0.4-0.2c0.4-0.2,0.8-0.5,1.2-0.7c0.4-0.2,0.9-0.5,1.3-0.7c0.4-0.2,0.7-0.4,1.1-0.5
			c0.4-0.2,0.7-0.3,1.1-0.5c0.4-0.1,0.7-0.3,1-0.4c0.2-0.1,0.3-0.1,0.5-0.2c0.1,0,0.1,0,0.2,0C36.9,7.9,37,7.9,37,7.9
			c0.5-0.2,0.8-0.2,0.8-0.2C37.9,7.7,37.6,7.7,37,7.9z M39,6.8c-0.2,0.1-0.5,0.1-0.7,0.2C38.5,7,38.8,6.9,39,6.8z M46.8,4.4
			c0.1,0,0.2,0,0.4-0.1c0.1,0,0.2,0,0.4-0.1c0.1,0,0.2,0,0.2,0c0.1,0,0.2,0,0.3,0c-0.1,0-0.2,0-0.3,0s-0.2,0-0.2,0
			c-0.1,0-0.3,0-0.4,0.1C47,4.3,46.8,4.4,46.8,4.4z M46.8,4.5C46.8,4.5,46.8,4.4,46.8,4.5C46.8,4.4,46.8,4.5,46.8,4.5z M45.3,3.4
			c0,0,0.1,0,0.4,0C45.5,3.4,45.3,3.4,45.3,3.4L45.3,3.4z M45.8,2.8L45.8,2.8c-0.1,0-0.3,0-0.4,0.1C45.5,2.9,45.6,2.8,45.8,2.8z
			 M43.5,3.7c0.1,0,0.2,0,0.3-0.1C43.7,3.6,43.6,3.6,43.5,3.7z M41.5,3.5c0.1,0,0.1-0.1,0.2-0.1l0,0C41.6,3.4,41.5,3.4,41.5,3.5z
			 M42.4,4L42.4,4L42.4,4c-0.8,0.1-0.9,0.2-0.9,0.1C41.5,4.2,41.6,4.2,42.4,4z M40.4,3.6c0.2,0,0.3-0.1,0.5-0.1l0,0
			C40.7,3.5,40.6,3.5,40.4,3.6z M42.6,5.1L42.6,5.1L42.6,5.1c-0.1,0-0.2,0-0.4,0.1c-0.1,0-0.2,0-0.3,0.1c-0.2,0-0.5,0.1-0.7,0.1
			c-0.5,0.1-1,0.2-1.7,0.4c0.7-0.2,1.3-0.3,1.7-0.4c0.2,0,0.5-0.1,0.7-0.1c0.1,0,0.1,0,0.2,0c0.1,0,0.1,0,0.2,0
			C42.3,5.2,42.5,5.2,42.6,5.1z M42.5,5.4c-0.4,0.1-0.7,0.1-0.9,0.2c-0.2,0-0.3,0.1-0.3,0.1s0.1,0,0.3-0.1
			C41.8,5.6,42.1,5.5,42.5,5.4l0.7-0.1C43,5.4,42.7,5.4,42.5,5.4z M40.8,5.6c0.1,0,0.3-0.1,0.6-0.1c0.1,0,0.3-0.1,0.4-0.1
			c0.2,0,0.3-0.1,0.5-0.1l0.1,0.1l-0.1-0.1c-0.2,0-0.3,0.1-0.5,0.1s-0.3,0.1-0.4,0.1C41.1,5.5,40.9,5.6,40.8,5.6z M45.2,5.5
			c-0.3,0-0.5,0.1-0.7,0.1c-0.1,0-0.2,0-0.3,0s-0.2,0-0.3,0.1c-0.4,0.1-0.8,0.2-1.2,0.2C42.5,6,42.3,6,42.1,6s-0.3,0.1-0.5,0.1
			C41.8,6.1,42,6,42.1,6c0.2,0,0.4-0.1,0.5-0.1c0.4-0.1,0.7-0.1,1.2-0.2c0.1,0,0.2,0,0.3-0.1c0.1,0,0.2,0,0.3,0
			C44.7,5.6,44.9,5.5,45.2,5.5z M47.1,5.6l-0.9,0.1c-0.3,0-0.6,0.1-0.9,0.1l0.3-0.3l-0.3,0.3c0.3,0,0.6-0.1,0.9-0.1L47.1,5.6
			L47.1,5.6z M47.6,4.5c-0.1,0-0.3,0.1-0.7,0.1c-0.6,0-1,0.1-1.3,0.1c0.3,0,0.7,0,1.3-0.1C47.3,4.6,47.5,4.5,47.6,4.5z M47.8,5.2
			C47.7,5.2,47.7,5.2,47.8,5.2L47.8,5.2C47.7,5.2,47.7,5.2,47.8,5.2z M49.8,4c-0.2,0-0.5,0-0.8,0C49.3,4,49.6,4,49.8,4L49.8,4z
			 M58.3,5.4c-0.3,0-0.5-0.1-0.8-0.1l-0.8-0.1l-0.8-0.1h-0.2h-0.2h-0.4c-0.3,0-0.6,0-1-0.1c-0.1,0-0.2,0-0.3,0s-0.2,0-0.3,0
			c-0.2,0-0.4,0-0.6,0c0.2,0,0.4,0,0.6,0c0.1,0,0.2,0,0.3,0s0.2,0,0.3,0c0.4,0,0.7,0,1,0.1h0.4h0.2h0.2l0.8,0.1l0.8,0.1
			C57.7,5.3,58,5.4,58.3,5.4z M58.7,5.3C58.8,5.3,58.7,5.3,58.7,5.3S58.8,5.3,58.7,5.3z M61.4,5.9c-0.3-0.1-0.8-0.2-1.3-0.3
			c-0.2-0.1-0.5-0.1-0.7-0.2c-0.2,0-0.5-0.1-0.7-0.1l0,0c0.2,0,0.5,0.1,0.7,0.1s0.5,0.1,0.7,0.2C60.6,5.7,61.1,5.8,61.4,5.9z"/>
		
			<linearGradient id="SVGID_00000013157083070283851720000013425900342973697154_" gradientUnits="userSpaceOnUse" x1="-6.9773" y1="74.7642" x2="47.3967" y2="-1.2537" gradientTransform="matrix(1 0 0 -1 0 92)">
			<stop  offset="0" style="stop-color:#F34B2C"/>
			<stop  offset="1" style="stop-color:#D5CE47"/>
		</linearGradient>
		<path style="fill:url(#SVGID_00000013157083070283851720000013425900342973697154_);" d="M12.9,43.6c0,0-0.1,0.4-0.1,1.1
			c0,0.8,0,1.5,0.1,1.6c0,0.1,0-0.5,0-1.4c0-0.4,0-0.8,0-1C12.9,43.7,12.9,43.6,12.9,43.6z"/>
		
			<linearGradient id="SVGID_00000023960814456405228500000012312957580076536999_" gradientUnits="userSpaceOnUse" x1="26.0756" y1="98.4062" x2="80.4495" y2="22.3883" gradientTransform="matrix(1 0 0 -1 0 92)">
			<stop  offset="0" style="stop-color:#F34B2C"/>
			<stop  offset="1" style="stop-color:#D5CE47"/>
		</linearGradient>
		<path style="fill:url(#SVGID_00000023960814456405228500000012312957580076536999_);" d="M32.3,5.2C32.2,5.3,32.2,5.3,32.3,5.2
			c0.2,0,0.3-0.1,0.5-0.2s0.4-0.2,0.6-0.3c0.5-0.2,1-0.4,1.4-0.6c0.4-0.2,0.7-0.3,0.8-0.4c0,0-0.2,0-0.4,0.1s-0.5,0.2-1,0.4
			c-0.3,0.1-0.6,0.2-0.8,0.3c-0.1,0.1-0.2,0.1-0.3,0.1s-0.2,0.1-0.3,0.1C32.6,5,32.4,5.1,32.3,5.2z"/>
		
			<linearGradient id="SVGID_00000154427775546022765620000003328129617520291473_" gradientUnits="userSpaceOnUse" x1="50.9667" y1="116.2103" x2="105.3406" y2="40.1923" gradientTransform="matrix(1 0 0 -1 0 92)">
			<stop  offset="0" style="stop-color:#F34B2C"/>
			<stop  offset="1" style="stop-color:#D5CE47"/>
		</linearGradient>
		<path style="fill:url(#SVGID_00000154427775546022765620000003328129617520291473_);" d="M89,28.4c-0.1-0.3-0.3-0.7-0.5-1
			c-0.2-0.4-0.4-0.7-0.5-0.9c-0.1-0.2-0.2-0.3-0.2-0.3s0,0,0,0.1s0.1,0.1,0.1,0.2c0.1,0.2,0.2,0.5,0.4,0.9c0.9,1.9,1.2,2.9,1.3,2.8
			c0.1,0.3,0.3,0.7,0.4,0.9c0.1,0.3,0.6,1.3,0.1,0c-0.1-0.4-0.3-0.8-0.4-1.1c-0.1-0.2-0.1-0.3-0.2-0.5c-0.1-0.1-0.1-0.3-0.2-0.4
			C89.2,28.7,89.1,28.6,89,28.4z"/>
		
			<linearGradient id="SVGID_00000121259628476793600380000000580680629006897331_" gradientUnits="userSpaceOnUse" x1="-4.2537" y1="76.7124" x2="50.1203" y2="0.6944" gradientTransform="matrix(1 0 0 -1 0 92)">
			<stop  offset="0" style="stop-color:#F34B2C"/>
			<stop  offset="1" style="stop-color:#D5CE47"/>
		</linearGradient>
		<path style="fill:url(#SVGID_00000121259628476793600380000000580680629006897331_);" d="M48.8,88.9c-1.1-0.1-1.9-0.1-2.1-0.1
			c0,0,0.6,0.1,1.5,0.2c0.3,0,0.6,0.1,0.8,0.1s0.4,0,0.6,0c0.3,0,0.5,0,0.6,0C50.4,89,49.8,88.9,48.8,88.9z"/>
		
			<linearGradient id="SVGID_00000012455608084112026450000007006903568448511123_" gradientUnits="userSpaceOnUse" x1="23.4406" y1="96.5214" x2="77.8145" y2="20.5035" gradientTransform="matrix(1 0 0 -1 0 92)">
			<stop  offset="0" style="stop-color:#F34B2C"/>
			<stop  offset="1" style="stop-color:#D5CE47"/>
		</linearGradient>
		<path style="fill:url(#SVGID_00000012455608084112026450000007006903568448511123_);" d="M34.4,11.2c-0.1,0-0.1,0.1-0.2,0.1
			c-0.1,0-0.1,0.1-0.2,0.1c-0.1,0.1-0.2,0.1-0.3,0.2c-0.2,0.1-0.3,0.2-0.3,0.2s0.1,0,0.3-0.1s0.6-0.3,1-0.5c0.4-0.2,0.7-0.4,1-0.5
			c0.2-0.1,0.3-0.2,0.3-0.2S35.3,10.8,34.4,11.2z"/>
		
			<linearGradient id="SVGID_00000025415510337273432850000012517058440647045792_" gradientUnits="userSpaceOnUse" x1="0.6822" y1="80.2429" x2="55.0562" y2="4.225" gradientTransform="matrix(1 0 0 -1 0 92)">
			<stop  offset="0" style="stop-color:#F34B2C"/>
			<stop  offset="1" style="stop-color:#D5CE47"/>
		</linearGradient>
		<path style="fill:url(#SVGID_00000025415510337273432850000012517058440647045792_);" d="M52.1,83.9c0.8,0,1.6-0.1,1.8-0.1
			c0.1,0-0.1,0-0.4,0c-0.1,0-0.3,0-0.5,0s-0.5,0-0.7,0c-0.5,0-0.9,0-1.2,0s-0.5,0-0.5,0s0.1,0,0.4,0C51.2,83.9,51.6,83.9,52.1,83.9z
			"/>
		
			<linearGradient id="SVGID_00000088111490027871110390000012369728280773439406_" gradientUnits="userSpaceOnUse" x1="52.2104" y1="117.1" x2="106.5844" y2="41.082" gradientTransform="matrix(1 0 0 -1 0 92)">
			<stop  offset="0" style="stop-color:#F34B2C"/>
			<stop  offset="1" style="stop-color:#D5CE47"/>
		</linearGradient>
		<path style="fill:url(#SVGID_00000088111490027871110390000012369728280773439406_);" d="M87.8,24.3c0.3,0.7,0.6,1.2,0.8,1.6
			c0.2,0.4,0.4,0.8,0.7,1.3l0.1,0.1c0.1,0.1,0.1,0.2,0.2,0.3c0.1,0.1,0.1,0.3,0.2,0.4c0.1,0.3,0.3,0.5,0.3,0.7
			c0.2,0.4,0.2,0.4-0.2-0.7c-0.2-0.5-0.4-0.9-0.5-1.2c-0.2-0.4-0.3-0.7-0.5-1c-0.1-0.1-0.2-0.3-0.2-0.4c-0.1-0.1-0.2-0.3-0.2-0.4
			c-0.1-0.2-0.3-0.5-0.4-0.7c0-0.1-0.1-0.1-0.1-0.1c-0.2-0.4-0.4-0.6-0.5-0.9c-0.1-0.2-0.2-0.4-0.3-0.5c-0.1-0.2-0.2-0.2-0.1-0.1
			s0.2,0.4,0.3,0.6C87.5,23.8,87.7,24.1,87.8,24.3z"/>
		
			<linearGradient id="SVGID_00000103230862570791132880000009345697870400903565_" gradientUnits="userSpaceOnUse" x1="-8.7504" y1="73.4959" x2="45.6235" y2="-2.522" gradientTransform="matrix(1 0 0 -1 0 92)">
			<stop  offset="0" style="stop-color:#F34B2C"/>
			<stop  offset="1" style="stop-color:#D5CE47"/>
		</linearGradient>
		<path style="fill:url(#SVGID_00000103230862570791132880000009345697870400903565_);" d="M7.5,40.7c0-0.4,0.1-0.8,0.1-1.1
			s0-0.4,0-0.3c-0.1,0.2-0.2,1-0.2,1.9c0,0.6-0.1,1.1-0.1,1.4c0,0.3,0,0.4,0,0.2c0-0.1,0-0.2,0-0.3s0-0.3,0-0.5
			C7.4,41.6,7.5,41.1,7.5,40.7z"/>
		
			<linearGradient id="SVGID_00000160876076630728514800000001747261327923153822_" gradientUnits="userSpaceOnUse" x1="3.9836" y1="82.6043" x2="58.3576" y2="6.5864" gradientTransform="matrix(1 0 0 -1 0 92)">
			<stop  offset="0" style="stop-color:#F34B2C"/>
			<stop  offset="1" style="stop-color:#D5CE47"/>
		</linearGradient>
		<path style="fill:url(#SVGID_00000160876076630728514800000001747261327923153822_);" d="M57.4,84c0.4-0.1,0.7-0.1,1-0.2
			c0.2,0,0.4-0.1,0.3-0.1C58.6,83.7,58,83.8,57.4,84c-0.3,0-0.5,0-0.6,0c-0.2,0-0.3,0-0.4,0.1c-0.2,0-0.4,0.1-0.4,0.1
			c0.1,0,0.3,0,0.6,0c0.1,0,0.1,0,0.2,0c0.1,0,0.1,0,0.2,0C57.1,84,57.2,84,57.4,84z"/>
		
			<linearGradient id="SVGID_00000172421064615095139710000017827159258412180105_" gradientUnits="userSpaceOnUse" x1="24.0547" y1="96.9607" x2="78.4287" y2="20.9428" gradientTransform="matrix(1 0 0 -1 0 92)">
			<stop  offset="0" style="stop-color:#F34B2C"/>
			<stop  offset="1" style="stop-color:#D5CE47"/>
		</linearGradient>
		<path style="fill:url(#SVGID_00000172421064615095139710000017827159258412180105_);" d="M80.7,73.6c0.5-0.5,0.9-0.9,0.8-0.9
			c-0.1,0.1-0.6,0.5-1.2,1.1c-0.1,0.1-0.2,0.2-0.3,0.3c-0.1,0.1-0.2,0.2-0.3,0.3c-0.2,0.2-0.3,0.3-0.4,0.4
			C79.5,74.8,79.9,74.4,80.7,73.6z"/>
		
			<linearGradient id="SVGID_00000105409061439688177190000001178669578452612781_" gradientUnits="userSpaceOnUse" x1="9.1094" y1="86.2707" x2="63.4834" y2="10.2528" gradientTransform="matrix(1 0 0 -1 0 92)">
			<stop  offset="0" style="stop-color:#F34B2C"/>
			<stop  offset="1" style="stop-color:#D5CE47"/>
		</linearGradient>
		<path style="fill:url(#SVGID_00000105409061439688177190000001178669578452612781_);" d="M63.4,82.2c0.2-0.1,0.5-0.1,0.7-0.2
			c0.2-0.1,0.4-0.1,0.5-0.2c0.3-0.1,0.5-0.2,0.5-0.2s-0.3,0.1-0.9,0.3C63.9,82,63.7,82.1,63.4,82.2c-0.1,0-0.3,0-0.5,0.1
			c-0.3,0.1-0.5,0.2-0.5,0.2S62.8,82.4,63.4,82.2z"/>
		
			<linearGradient id="SVGID_00000026163713564429579380000017803576292135852462_" gradientUnits="userSpaceOnUse" x1="46.5493" y1="113.0507" x2="100.9234" y2="37.0327" gradientTransform="matrix(1 0 0 -1 0 92)">
			<stop  offset="0" style="stop-color:#F34B2C"/>
			<stop  offset="1" style="stop-color:#D5CE47"/>
		</linearGradient>
		<path style="fill:url(#SVGID_00000026163713564429579380000017803576292135852462_);" d="M91.5,41.5c-0.1-0.8-0.1-1.1-0.2-1.1
			c0,0,0,0.2,0,0.4s0.1,0.6,0.1,0.9c0.1,0.8,0.1,1,0.1,1.1C91.6,42.8,91.5,42.2,91.5,41.5z"/>
		
			<linearGradient id="SVGID_00000119796808823222447580000012619056354038530690_" gradientUnits="userSpaceOnUse" x1="-6.9538" y1="74.7811" x2="47.4202" y2="-1.2369" gradientTransform="matrix(1 0 0 -1 0 92)">
			<stop  offset="0" style="stop-color:#F34B2C"/>
			<stop  offset="1" style="stop-color:#D5CE47"/>
		</linearGradient>
		<path style="fill:url(#SVGID_00000119796808823222447580000012619056354038530690_);" d="M42.8,86.8c0.9,0.2,1.5,0.3,1.4,0.2
			C44.1,86.9,43.5,86.8,42.8,86.8c-0.9-0.3-1.5-0.4-1.4-0.4C41.5,86.4,42.1,86.6,42.8,86.8z"/>
		
			<linearGradient id="SVGID_00000028317161057050302470000011383429394947452310_" gradientUnits="userSpaceOnUse" x1="-8.8103" y1="73.4531" x2="45.5637" y2="-2.5648" gradientTransform="matrix(1 0 0 -1 0 92)">
			<stop  offset="0" style="stop-color:#F34B2C"/>
			<stop  offset="1" style="stop-color:#D5CE47"/>
		</linearGradient>
		<path style="fill:url(#SVGID_00000028317161057050302470000011383429394947452310_);" d="M26.9,75.3c-0.5-0.4-0.9-0.7-1.1-0.9
			c-0.2-0.2-0.2-0.1,0,0.1c0.1,0.1,0.2,0.2,0.4,0.3c0.1,0.1,0.1,0.1,0.2,0.2s0.2,0.1,0.3,0.2c0.1,0.1,0.3,0.3,0.5,0.4
			c0.1,0.1,0.2,0.2,0.4,0.3c0.1,0.1,0.1,0.1,0.2,0.2s0.2,0.1,0.3,0.2c-0.1,0,0,0.1,0.3,0.3c0.1,0.1,0.3,0.3,0.6,0.4
			c0.2,0.2,0.5,0.4,0.9,0.6c0.7,0.4,1.3,0.9,2,1.2c0.3,0.2,0.6,0.4,1,0.6c0.3,0.2,0.6,0.3,0.9,0.5c0.2,0.1,0.4,0.2,0.6,0.3
			c0.1,0.1,0.2,0.1,0.3,0.2c0.1,0,0.2,0.1,0.3,0.1c0.4,0.2,0.8,0.3,1.1,0.5c0.9,0.3,2.1,0.8,3.8,1.3c0.2,0.1,0.4,0.1,0.5,0.2
			c0.2,0,0.3,0.1,0.5,0.1c0.3,0.1,0.6,0.2,0.8,0.2c0.1,0,0.1,0,0.2,0c0.1,0,0.1,0,0.2,0c0.1,0,0.2,0,0.3,0.1c0.2,0,0.3,0,0.4,0.1
			c0.1,0-0.2-0.1-0.4-0.1s-0.3-0.1-0.5-0.1c-0.1,0-0.3-0.1-0.4-0.1c-0.3-0.1-0.6-0.2-0.8-0.2C40,82.4,39.5,82.2,39,82
			c-0.2-0.1-0.4-0.1-0.7-0.2c-0.2-0.1-0.4-0.2-0.7-0.2c-0.2-0.1-0.4-0.2-0.7-0.2c-0.1,0-0.2-0.1-0.3-0.1l-0.2-0.1L36.1,81
			c-0.5-0.2-0.9-0.4-1.4-0.6c-0.1,0-0.1-0.1-0.2-0.1c-0.1,0-0.1-0.1-0.2-0.1c-0.1-0.1-0.2-0.1-0.4-0.2c-0.2-0.1-0.5-0.3-0.8-0.4
			L33,79.4c-0.3-0.2-0.6-0.3-0.9-0.5c-0.3-0.1-0.5-0.3-0.6-0.4c-0.2-0.1-0.3-0.2-0.5-0.2c-0.1-0.1-0.2-0.1-0.3-0.2
			C30.6,78,30.6,78,30.4,78c-0.3-0.2-0.4-0.3-0.6-0.4l0.1,0.1l-0.1-0.1c-0.1-0.1-0.3-0.2-0.4-0.2l-0.3-0.3c-0.1-0.1-0.2-0.2-0.5-0.4
			c-0.1-0.1-0.3-0.2-0.4-0.3c-0.1-0.1-0.2-0.1-0.2-0.2c-0.1-0.1-0.2-0.1-0.3-0.2C27.6,75.9,27.8,76,26.9,75.3z"/>
		
			<linearGradient id="SVGID_00000047023070842704055710000005294453028239668406_" gradientUnits="userSpaceOnUse" x1="-2.1813" y1="78.1947" x2="52.1927" y2="2.1768" gradientTransform="matrix(1 0 0 -1 0 92)">
			<stop  offset="0" style="stop-color:#F34B2C"/>
			<stop  offset="1" style="stop-color:#D5CE47"/>
		</linearGradient>
		<path style="fill:url(#SVGID_00000047023070842704055710000005294453028239668406_);" d="M49.7,86.9c-0.5,0-0.7,0-0.7,0
			c0.2,0,0.8,0.1,1.5,0.1c0.2,0,0.4,0,0.5,0s0.2,0,0.3,0s0.1,0,0,0S51,87,51,87s-0.2,0-0.4,0C50.4,86.9,50,86.9,49.7,86.9z"/>
		
			<linearGradient id="SVGID_00000129883882491407472420000001795766621217794212_" gradientUnits="userSpaceOnUse" x1="-5.1385" y1="76.0795" x2="49.2354" y2="6.151603e-02" gradientTransform="matrix(1 0 0 -1 0 92)">
			<stop  offset="0" style="stop-color:#F34B2C"/>
			<stop  offset="1" style="stop-color:#D5CE47"/>
		</linearGradient>
		<path style="fill:url(#SVGID_00000129883882491407472420000001795766621217794212_);" d="M7.6,35.7c0.1-0.2,0.1-0.4,0.2-0.7
			c0-0.1,0.1-0.3,0.1-0.6C7.9,34.3,8,34.2,8,34c0-0.1,0.1-0.3,0.1-0.4c0.3-1,0.2-1,0.2-1.1c0-0.2,0.1-0.3,0.1-0.3
			c0.3-1.2,0-0.3-0.3,0.8c-0.1,0.3-0.2,0.6-0.3,0.9c-0.1,0.3-0.1,0.5-0.2,0.8C7.6,35.2,7.5,35.5,7.6,35.7c-0.1,0.2-0.1,0.3-0.2,0.4
			c0,0.1,0,0.2,0,0.3c0,0.2,0,0.2,0,0.3c0,0,0-0.1,0.1-0.2c0-0.1,0-0.2,0.1-0.3c0-0.1,0-0.1,0-0.2C7.5,35.9,7.5,35.8,7.6,35.7z"/>
		
			<linearGradient id="SVGID_00000078005806484311463590000016721871810420610995_" gradientUnits="userSpaceOnUse" x1="-12.5113" y1="70.8059" x2="41.8627" y2="-5.2121" gradientTransform="matrix(1 0 0 -1 0 92)">
			<stop  offset="0" style="stop-color:#F34B2C"/>
			<stop  offset="1" style="stop-color:#D5CE47"/>
		</linearGradient>
		<path style="fill:url(#SVGID_00000078005806484311463590000016721871810420610995_);" d="M16.6,62.1c0.1,0.2,0.2,0.4,0.3,0.5
			s0.1,0.3,0.2,0.3c0.1,0.2,0.1,0.2,0.1,0.2c0.1,0.1,0.1,0.1,0.1,0s-0.1-0.2-0.2-0.4c-0.1-0.2-0.2-0.4-0.3-0.7
			c-0.7-1.5-0.6-1.1-0.7-1.3c0,0,0,0,0,0.2C16.2,61.2,16.3,61.5,16.6,62.1z"/>
		
			<linearGradient id="SVGID_00000063602547020100665420000002843550599887595172_" gradientUnits="userSpaceOnUse" x1="45.1445" y1="112.0458" x2="99.5185" y2="36.0278" gradientTransform="matrix(1 0 0 -1 0 92)">
			<stop  offset="0" style="stop-color:#F34B2C"/>
			<stop  offset="1" style="stop-color:#D5CE47"/>
		</linearGradient>
		<path style="fill:url(#SVGID_00000063602547020100665420000002843550599887595172_);" d="M90.9,50v0.3c0,0.2,0,0.3,0,0.5
			s0,0.3,0,0.5c0,0.4-0.1,0.7,0,0.7c0,0,0-0.1,0.1-0.2c0-0.1,0-0.2,0.1-0.3c0-0.1,0.1-0.3,0.1-0.5c0.3-1.7,0.3-2.9,0.3-3.9l0.1-1.4
			c0-0.2,0-0.5,0-0.7v-0.7c0-0.7,0-1.2,0-1.5s-0.1-0.4-0.1-0.5c0-0.2,0-0.4-0.1-0.6c0-0.2-0.1-0.5-0.1-0.7c-0.1-0.5-0.1-1.1-0.3-1.7
			c-0.1-0.3-0.1-0.6-0.2-0.9c0-0.2-0.1-0.3-0.1-0.5l-0.1-0.5c-0.1-0.3-0.1-0.6-0.2-0.9c0-0.2-0.1-0.3-0.1-0.5c0-0.1-0.1-0.3-0.1-0.4
			c-0.2-0.6-0.3-1.1-0.4-1.4c0-0.1-0.1-0.2-0.1-0.1c0,0,0,0.1,0,0.2c0,0.1,0,0.2,0.1,0.4c0,0.1,0,0.3,0.2,1l0,0c0,0.1-0.1,0,0,0.5
			c0,0.3,0.1,0.7,0.2,1.2c0,0.1,0,0.3,0.1,0.4c0,0.1,0.1,0.3,0.1,0.5c0.1,0.4,0.1,0.8,0.2,1.3c0,0.2,0.1,0.3,0.1,0.5l0.1,0.5l0.1,1
			c0,0.3,0.1,0.7,0.1,1l0.1,1c0,0.1,0,0.2,0,0.2c0,0.1,0,0.2,0,0.3c0,0.2,0,0.3,0,0.5c0,0.3,0,0.6,0,0.7c0.1,0.5,0.2,0.9,0.2,1.3
			v0.9c0,0.3,0,0.6-0.1,0.9C91,49.1,91,49.6,91,49.8C90.9,49.7,90.9,49.8,90.9,50z"/>
		
			<linearGradient id="SVGID_00000129186887701694924870000002045998945358614950_" gradientUnits="userSpaceOnUse" x1="7.6208" y1="85.2059" x2="61.9948" y2="9.1879" gradientTransform="matrix(1 0 0 -1 0 92)">
			<stop  offset="0" style="stop-color:#F34B2C"/>
			<stop  offset="1" style="stop-color:#D5CE47"/>
		</linearGradient>
		<path style="fill:url(#SVGID_00000129186887701694924870000002045998945358614950_);" d="M15.1,19.9l0.6-0.8l0.3-0.4l0.2-0.2
			l0.2-0.2c0.2-0.3,0.5-0.6,0.8-0.9c0.1-0.2,0.3-0.3,0.4-0.5c0.1-0.2,0.3-0.3,0.4-0.5c0.2-0.3,0.2-0.2,0-0.1
			c-0.2,0.2-0.4,0.4-0.6,0.7c-0.3,0.3-0.6,0.7-0.9,1.1c-0.1,0.1-0.1,0.2-0.2,0.2c-0.1,0.1-0.1,0.2-0.2,0.3c-0.1,0.2-0.3,0.3-0.4,0.5
			c-0.3,0.4-0.5,0.7-0.7,1.1c-0.4,0.6-0.7,1.2-0.7,1.1c0,0,0.2-0.2,0.3-0.5c0.1-0.1,0.2-0.3,0.3-0.4C14.9,20.2,15,20.1,15.1,19.9z"
			/>
	</g>
	<g>
		<g>
			<defs>
				<rect id="SVGID_00000021838006368638843110000014433123356872843187_" x="27" y="25.1" width="47.6" height="43.9"/>
			</defs>
			<clipPath id="SVGID_00000141416392816918896650000004234423369687053197_">
				<use xlink:href="#SVGID_00000021838006368638843110000014433123356872843187_"  style="overflow:visible;"/>
			</clipPath>
			<g style="clip-path:url(#SVGID_00000141416392816918896650000004234423369687053197_);">
				<path class="st60" d="M31.5,53.9c0.4-0.6,0.9-1.1,1.7-1.2c0-6,0.1-12,0.1-18c12.7,0,25.3,0,38-0.1v27.6H43.4
					c-0.3,0.4-0.6,0.7-0.9,1c0.4,0.7,0.4,1.4,0.2,2.2c0.1,0,0.3,0,0.4,0c4.8,0,9.6,0,14.3,0c2.6,0,5.3,0,7.9,0c1.3,0,2.7,0,4,0
					c1.1,0,2.4,0.2,3.5-0.2c2.1-0.9,1.6-3.8,1.6-5.6c0-7,0-14,0-21c0-3.4-0.1-6.8,0-10.2c0-0.9-0.1-1.8-0.7-2.5
					c-0.5-0.6-1.4-0.8-2.2-0.8c-2.6-0.1-5.3,0-7.9,0c-2.8,0-5.5,0-8.3,0s-5.5,0-8.3,0c-4.6,0-9.3,0.1-13.9,0c-0.8,0-1.7,0.1-2.3,0.7
					c-0.5,0.4-0.7,1.1-0.8,1.8c-0.1,1.1,0,2.4,0,3.5c0,1.3,0,2.5,0,3.8c0,2.5,0,4.9,0,7.4c0,3.7,0,7.3,0,11c0,0.1,0,0.3,0,0.4
					C30.6,53.8,31,53.9,31.5,53.9L31.5,53.9z M33.2,30.2c0-0.3,0.1-0.6,0.1-0.9c0.1-0.3,0.3-0.6,0.6-0.6c0.5-0.1,1-0.1,1.5,0
					c0.4,0.1,0.6,0.3,0.7,0.7c0.1,0.5,0.1,1.1,0,1.6c-0.1,0.4-0.4,0.7-0.8,0.8c-0.5,0.1-0.9,0-1.4-0.1c-0.3-0.1-0.6-0.3-0.6-0.6
					C33.3,30.7,33.3,30.5,33.2,30.2L33.2,30.2z M39.4,28.6L39.4,28.6c0.2,0,0.4,0,0.5,0c0.5,0,0.9,0.4,0.9,0.9c0,0.4,0,0.8,0,1.2
					c0,0.5-0.2,0.8-0.7,0.9c-0.4,0.1-0.8,0.1-1.2,0c-0.6-0.1-0.9-0.4-0.9-1c0-0.4,0-0.8,0-1.2c0.1-0.5,0.4-0.8,1-0.9
					C39,28.6,39.2,28.6,39.4,28.6L39.4,28.6z"/>
				<path class="st60" d="M39.7,59.5c-0.3-0.3-0.5-0.6-0.7-1c-0.1-0.1,0-0.2,0.1-0.4c0.2-0.2,0.4-0.4,0.5-0.7
					c0.1-0.1,0.1-0.2,0.2-0.3c0.1-0.2,0.1-0.3,0-0.5c-0.4-0.4-0.9-0.8-1.3-1.1c-0.2-0.2-0.3-0.1-0.5,0c-0.2,0.2-0.4,0.4-0.6,0.7
					c-0.3,0.3-0.6,0.4-1,0.2c-0.2-0.1-0.4-0.2-0.7-0.2c0-0.3,0-0.7-0.1-1c0-0.1,0-0.2,0-0.3c0-0.4-0.2-0.6-0.6-0.6
					c-0.4,0-0.8,0-1.1,0c-0.1,0-0.2,0-0.3,0c-0.3,0-0.4,0.2-0.5,0.5c0,0.3,0,0.5,0,0.8c0,0.2,0,0.4,0,0.7c-0.4,0.2-0.9,0.3-1.3,0.5
					c-0.2-0.2-0.4-0.5-0.6-0.7s-0.4-0.4-0.6-0.6c-0.1,0-0.1,0-0.1,0c-0.5,0.3-1,0.7-1.4,1.2c-0.2,0.2-0.2,0.3,0,0.6s0.4,0.5,0.6,0.8
					c0.1,0.1,0.2,0.2,0.3,0.4c-0.2,0.3-0.4,0.7-0.6,1c-0.1,0.2-0.3,0.2-0.4,0.1c-0.4,0-0.7-0.1-1.1-0.1c-0.1,0-0.3,0-0.5,0
					c0,0.1-0.1,0.2-0.1,0.3c-0.1,0.5-0.2,1-0.3,1.5c-0.1,0.4,0.1,0.6,0.5,0.7c0.3,0.1,0.7,0.1,1,0.2c0.1,0,0.2,0,0.3,0.1
					c0.1,0.5,0.1,0.9,0.2,1.3c-0.3,0.2-0.7,0.4-1,0.6c-0.5,0.3-0.6,0.5-0.3,1c0.2,0.4,0.4,0.8,0.7,1.1c0.2,0.3,0.3,0.3,0.6,0.2
					c0.3-0.1,0.6-0.3,0.8-0.5c0.3-0.2,0.5-0.1,0.8,0.1c0.2,0.2,0.4,0.4,0.7,0.6c-0.1,0.4-0.3,0.7-0.4,1.1c-0.2,0.6-0.2,0.7,0.5,1
					c0.4,0.2,0.8,0.3,1.3,0.4c0.3,0.1,0.4,0,0.5-0.2c0.1-0.3,0.3-0.6,0.4-1c0-0.1,0.1-0.2,0.1-0.4h1.4c0.1,0.2,0.1,0.4,0.2,0.5
					c0.1,0.3,0.2,0.6,0.4,0.8c0,0.1,0.2,0.1,0.4,0.1c0.6-0.1,1.2-0.4,1.8-0.6c0.2-0.1,0.2-0.2,0.1-0.4c-0.1-0.4-0.2-0.8-0.4-1.1
					c0-0.1-0.1-0.2-0.1-0.3c0.3-0.3,0.7-0.6,1-0.9c0.3,0.2,0.6,0.3,0.9,0.5c0.2,0.1,0.4,0.2,0.6,0.3c0.1,0.1,0.2,0,0.3-0.1
					c0.4-0.5,0.7-1,0.9-1.6c0.1-0.3,0-0.4-0.2-0.6c-0.3-0.2-0.6-0.4-0.9-0.5c-0.3-0.2-0.3-0.2-0.2-0.5c0-0.2,0.1-0.5,0.1-0.7
					s0.1-0.3,0.3-0.4c0.3-0.1,0.6-0.1,0.9-0.2c0.1,0,0.2,0,0.3-0.1c0.3-0.1,0.4-0.2,0.3-0.5c-0.1-0.5-0.2-1.1-0.3-1.6
					c-0.1-0.3-0.2-0.4-0.4-0.3c-0.3,0-0.7,0.1-1,0.1C40,59.5,39.8,59.5,39.7,59.5L39.7,59.5z M34.4,59.5c1.1-0.1,2.3,1,2.3,2.2
					c0,1.4-1.2,2.3-2.2,2.3c-1.2,0-2.3-1-2.3-2.2C32.1,60.7,33,59.4,34.4,59.5L34.4,59.5z"/>
				<path class="st60" d="M54.7,55.2c0.4,0,0.8-0.2,1.1-0.6c0.2-0.3,0.3-0.6,0.2-1c-0.4-1.4-0.8-2.8-1.3-4.2
					c-1.1-3.4-2.2-6.7-3.3-10c-0.1-0.2-0.1-0.4-0.2-0.6c-0.2-0.5-0.8-0.9-1.3-0.9c-0.6,0.1-1.2,0.6-1.3,1.2c0,0.2,0,0.3,0.1,0.5
					c0.7,2.1,1.3,4.3,2,6.4c0.9,2.8,1.9,5.6,2.8,8.5C53.6,55,54,55.2,54.7,55.2z"/>
				<path class="st60" d="M61.1,46.6c-0.2,0.1-0.3,0.2-0.4,0.2c-1.2,0.6-2.4,1.1-3.5,1.7c-0.1,0.1-0.3,0.1-0.4,0.2
					c-0.4,0.2-0.6,0.5-0.7,0.9c-0.2,0.7,0.2,1.5,0.9,1.7c0.2,0.1,0.5,0,0.7,0c0.4-0.2,0.9-0.3,1.3-0.5c2-0.9,4.1-1.9,6.1-2.9
					c0.6-0.3,0.9-1,0.7-1.7c-0.1-0.3-0.3-0.6-0.6-0.8c-0.5-0.3-1.1-0.6-1.6-0.8c-1.6-0.7-3.2-1.5-4.8-2.2c-0.4-0.2-0.9-0.3-1.3-0.5
					c-0.2-0.1-0.4,0-0.6,0.1c-0.5,0.3-0.8,0.7-0.9,1.3c0,0.5,0.3,1,0.7,1.2c0.6,0.3,1.3,0.6,2,1c0.7,0.3,1.5,0.7,2.2,1
					C60.9,46.5,61,46.6,61.1,46.6z"/>
				<path class="st60" d="M43.6,46.6c0.3-0.1,0.6-0.3,0.9-0.4c1.1-0.6,2.3-1.1,3.4-1.7c0.1-0.1,0.3-0.2,0.4-0.3
					c0.4-0.4,0.5-0.9,0.3-1.4c-0.1-0.2-0.3-0.4-0.4-0.6c-0.3-0.3-0.7-0.4-1.1-0.3c-0.6,0.2-1.1,0.4-1.7,0.7c-2,0.9-3.9,1.8-5.9,2.7
					c-0.8,0.4-1,1.4-0.5,2.1c0.1,0.2,0.3,0.3,0.5,0.4c1.4,0.7,2.7,1.3,4.1,2c1,0.5,2.1,0.9,3.1,1.4c0.2,0.1,0.4,0.2,0.6,0.2
					c0.6,0,1-0.3,1.2-0.8s0.2-1-0.2-1.4c-0.1-0.1-0.3-0.2-0.4-0.3c-1.1-0.6-2.3-1.1-3.4-1.7C44.2,47,43.9,46.8,43.6,46.6L43.6,46.6
					L43.6,46.6z"/>
			</g>
		</g>
	</g>
</g>
</svg>
