<?xml version="1.0" encoding="utf-8"?>
<!-- Generator: Adobe Illustrator 28.2.0, SVG Export Plug-In . SVG Version: 6.00 Build 0)  -->
<svg version="1.1" id="Layer_1" xmlns="http://www.w3.org/2000/svg" xmlns:xlink="http://www.w3.org/1999/xlink" x="0px" y="0px"
	 viewBox="0 0 443.4 409.4" style="enable-background:new 0 0 443.4 409.4;" xml:space="preserve">
<style type="text/css">
	.st0{fill:#C3C3C3;}
</style>
<g>
	<path class="st0" d="M370.6,6.3c-1.6,1-3.4,1.6-4.7,2.9c-18.7,18.6-37.2,37.2-56,55.8c-2.3,2.3-2.9,4.4-2.1,7.4
		c4,15.5,7.8,31,11.8,46.4c0.4,1.7,1.8,4,3.1,4.4c17.4,4.5,34.8,8.8,52.5,13.2c20.9-20.9,41.7-41.7,62.9-63
		c3.8,10.8,5.3,21.5,5.1,32.2c-0.6,32.9-13.3,60.2-38.8,81.1c-24.4,20-51.7,22.6-80.8,11.7c-0.8-0.3-1.5-0.6-2.3-0.9
		c-0.6-0.2-1.2-0.5-3.1-1.9c-1.1,1.7-1.9,3.6-3.3,5c-63.9,64-128,128-191.9,192c-8.8,8.8-18.8,14.6-31.3,16.3
		c-20.9,2.9-41.7-7.6-51.9-26.4c-10-18.4-7.6-41.5,6.1-57.5c1.7-2,3.6-3.9,5.5-5.8c63.5-63.5,127-127,190.6-190.5
		c1.4-1.4,3-2.6,4.5-3.9c-1.8-5.2-3.6-9.8-4.9-14.5c-7.6-27.9-2.2-53.1,17.2-74.4C288,4.1,323.8-6.3,365.6,3.6
		c1.3,0.3,2.5,0.8,3.7,1.2C369.7,5.3,370.2,5.8,370.6,6.3z M85.2,341.2c-9.5-0.1-17.2,7.6-17.2,17c0,9.3,8,17.2,17.2,17.1
		c9.2-0.1,16.7-7.7,16.9-16.9C102.2,349,94.7,341.3,85.2,341.2z"/>
	<path class="st0" d="M251.8,314.5c21.8-21.8,43-43,64.4-64.4c0.5,0.4,1.2,1,1.9,1.7c26.3,26.3,52.6,52.5,78.8,78.8
		c16.1,16.1,19.1,38.2,8,56.6c-14.3,24-46.5,29.5-67.9,11.6c-1.9-1.6-3.7-3.4-5.5-5.1c-25.4-25.4-50.9-50.9-76.3-76.3
		C254.1,316.4,252.9,315.5,251.8,314.5z"/>
	<path class="st0" d="M0,34.4C11.6,22.8,22.8,11.7,34.3,0.2c0.9,0.4,2.3,0.9,3.6,1.6C58,11.8,78,21.9,98.1,31.8
		c2.9,1.4,4.5,3.4,5.5,6.5c4.5,13.9,9.1,27.8,13.9,41.6c1.2,3.3,3.2,6.6,5.6,9.1c17.1,17.3,34.3,34.5,51.5,51.6c1.3,1.3,2.9,2.2,4,3
		c-11.9,11.9-23.1,23.1-34.6,34.6c-0.6-0.6-1.9-1.8-3.2-3c-17.6-17.5-35.1-35.1-52.7-52.6c-2.1-2.1-5-3.8-7.9-4.8
		c-14.1-4.9-28.4-9.5-42.5-14.3c-1.9-0.6-4.1-1.9-5-3.5C21.7,78.1,10.9,56.2,0,34.4z"/>
</g>
</svg>
