<svg width="20" height="23" viewBox="0 0 20 23" fill="none" xmlns="http://www.w3.org/2000/svg">
<path d="M19.6317 0C19.0513 6.96323 18.4709 13.8608 17.8905 20.7911C15.63 21.4809 13.4001 22.105 11.1702 22.8276C10.4371 23.0575 9.79562 23.0575 9.0625 22.8276C6.8326 22.1378 4.60271 21.4809 2.34226 20.7911C1.76187 13.8608 1.18149 6.96323 0.631653 0H19.6011H19.6317ZM5.2747 17.2438C6.86313 17.7037 8.3905 18.1635 9.94838 18.6233C10.04 18.6233 10.1622 18.689 10.2538 18.6233C11.8422 18.1635 13.4001 17.7037 15.0191 17.211C15.2329 14.5834 15.4468 12.0214 15.6606 9.39379H7.01588C6.95479 8.50696 6.89368 7.65298 6.80204 6.73331H15.8744C15.9355 5.87933 15.9966 5.09104 16.0577 4.2699H4.2056C4.41943 6.83185 4.63323 9.36094 4.84705 11.9557H13.0641C12.9725 13.1053 12.8808 14.1564 12.7892 15.2403C12.2394 15.4045 11.72 15.5687 11.2008 15.7001C10.8342 15.7986 10.4371 16.0286 10.0705 15.9629C9.18469 15.7986 8.32937 15.503 7.47407 15.2403C7.41297 14.5505 7.35189 13.8936 7.29079 13.2367H4.93874C5.06092 14.5505 5.15252 15.8643 5.2747 17.1782V17.2438Z" fill="#A2A2A2"/>
</svg>
