<svg width="22" height="21" viewBox="0 0 22 21" fill="none" xmlns="http://www.w3.org/2000/svg">
<path d="M0.418345 1.68699C0.418345 1.68699 0.639982 1.52832 0.76663 1.52832C2.06478 1.52832 3.36292 1.52832 4.66107 1.52832C4.94603 1.52832 5.00936 1.62352 5.00936 1.90913C5.00936 7.87507 5.00936 13.841 5.00936 19.807C5.00936 20.0926 4.91437 20.1878 4.62942 20.1878C3.36293 20.1878 2.06478 20.1878 0.798299 20.1878C0.671651 20.1878 0.544999 20.0926 0.386688 20.0608C0.386688 13.9362 0.386688 7.84334 0.386688 1.71872L0.418345 1.68699Z" fill="#A2A2A2"/>
<path d="M16.9143 18.6962C16.756 18.8548 16.5977 18.9818 16.4394 19.1404C15.3312 20.1242 14.0331 20.505 12.5766 20.4098C10.4552 20.2511 8.96713 19.1404 7.9856 17.2999C7.3207 16.0305 7.06739 14.666 7.09905 13.2379C7.09905 12.0321 7.32069 10.8579 7.82728 9.77896C8.71382 7.90667 10.1386 6.70079 12.165 6.31998C13.3998 6.09785 14.603 6.19305 15.7428 6.79599C15.9961 6.92292 16.2178 7.11333 16.4711 7.272V7.01813C16.4711 5.0189 16.4711 3.01967 16.4711 1.02044C16.4711 0.63964 16.5344 0.576172 16.9143 0.576172C18.1491 0.576172 19.3523 0.576172 20.5871 0.576172C21.0304 0.576172 21.0621 0.607906 21.0621 1.05218C21.0621 5.3997 21.0621 9.74723 21.0621 14.1265C21.0621 15.3958 21.0621 16.6652 21.0621 17.9345C21.0621 18.5692 21.1254 19.2039 21.1254 19.8068C21.1254 20.0607 21.0621 20.1559 20.7771 20.1559C19.6373 20.1559 18.4658 20.1559 17.3259 20.1559C17.0726 20.1559 17.0093 20.0607 16.9776 19.8386C16.946 19.4578 16.9143 19.077 16.851 18.6962H16.9143ZM16.5027 13.2062C16.5027 13.2062 16.5027 13.2062 16.4711 13.2062C16.4711 12.8254 16.4711 12.4763 16.4711 12.0955C16.4394 11.2705 16.0911 10.5723 15.3629 10.128C14.2547 9.49336 12.9249 9.9059 12.2916 11.0166C11.9434 11.6513 11.8167 12.3494 11.7534 13.0475C11.7217 13.8092 11.8167 14.539 12.1017 15.2372C12.5449 16.2209 13.4631 16.7921 14.4763 16.6652C15.4895 16.57 16.1861 15.8718 16.3761 14.7929C16.471 14.2852 16.471 13.7457 16.5027 13.2062Z" fill="#A2A2A2"/>
</svg>
