<svg width="21" height="23" viewBox="0 0 21 23" fill="none" xmlns="http://www.w3.org/2000/svg">
<path d="M10.5103 0C13.6451 0 16.7479 0 19.8827 0C20.3625 0 20.5224 0.197213 20.4904 0.657378C20.3624 2.33369 20.2025 4.01 20.0426 5.65345C19.9146 7.06681 19.8187 8.4473 19.6907 9.86066C19.5628 11.4384 19.4029 13.0161 19.2749 14.6267C19.147 16.0071 19.051 17.4205 18.923 18.801C18.8911 19.2612 18.8271 19.7213 18.7951 20.1815C18.7951 20.5102 18.5712 20.6745 18.2833 20.7731C16.7479 21.2333 15.2125 21.6606 13.6451 22.1208C12.6535 22.4166 11.6939 22.7124 10.7023 22.9753C10.5423 23.0082 10.3824 23.0082 10.2225 22.9753C7.69546 22.2522 5.16842 21.4962 2.64142 20.7731C2.35353 20.6745 2.19361 20.5431 2.16163 20.2144C2.06566 19.1626 1.9697 18.1436 1.90572 17.0918C1.80976 15.8757 1.68184 14.6267 1.58588 13.4105C1.48991 12.2272 1.39393 11.0111 1.26598 9.8278C1.17002 8.57878 1.04205 7.36263 0.94609 6.11361C0.850127 5.09468 0.786195 4.10861 0.690233 3.08967C0.626258 2.26795 0.562243 1.44623 0.498268 0.657378C0.46628 0.197213 0.626243 0 1.07407 0C4.20883 0 7.34361 0 10.4784 0H10.5103ZM14.7647 14.298C13.6451 14.6267 12.5575 14.9225 11.47 15.2183V17.5191C13.1013 17.0589 14.7007 16.5988 16.3321 16.1386C16.492 14.1007 16.6839 12.0629 16.8438 10.025C15.6603 10.1894 14.5728 10.3537 13.4212 10.518V6.50804H17.1318C17.1957 5.85066 17.2277 5.19328 17.2917 4.53591H11.47V13.0161C12.5895 12.8189 13.7411 12.6216 14.8606 12.4244C14.8286 13.0818 14.7647 13.6735 14.7327 14.298H14.7647ZM4.17685 16.0071C5.96814 16.533 7.72745 17.0261 9.51874 17.5191V4.53591H7.56751V14.4952C6.41596 14.1665 5.29641 13.8378 4.17685 13.542V16.0071Z" fill="#A2A2A2"/>
</svg>
