<?xml version="1.0" encoding="utf-8"?>
<!-- Generator: Adobe Illustrator 27.5.0, SVG Export Plug-In . SVG Version: 6.00 Build 0)  -->
<svg version="1.1" id="Layer_1" xmlns="http://www.w3.org/2000/svg" xmlns:xlink="http://www.w3.org/1999/xlink" x="0px" y="0px"
	 viewBox="0 0 23 25" style="enable-background:new 0 0 23 25;" xml:space="preserve">
<style type="text/css">
	.st0{fill:#A2A2A2;}
</style>
<path class="st0" d="M12.3,24.2h-1.7c0-0.1-0.1,0-0.1,0c-0.3,0-0.6-0.1-0.9-0.1c-0.5-0.1-1.1-0.2-1.6-0.4c-0.7-0.2-1.3-0.5-1.9-0.9
	c-0.9-0.5-1.7-1.2-2.4-1.9c-0.4-0.4-0.8-0.9-1.2-1.5c-0.7-1-1.3-2.1-1.6-3.3c-0.2-0.8-0.4-1.6-0.5-2.5c0,0,0-0.1,0-0.1v-1.9
	c0.1,0,0-0.1,0-0.1c0-0.1,0-0.2,0-0.3c0.1-0.5,0.1-1,0.3-1.5c0.2-0.9,0.5-1.8,0.9-2.6C1.6,7,1.7,6.8,1.8,6.7c0,0,0,0,0,0
	c0,0,0-0.1,0-0.1c0.4-0.8,1-1.5,1.6-2.2C3.7,4,4,3.8,4.3,3.5c0.5-0.4,1-0.9,1.6-1.2c0,0,0,0,0,0c0.6-0.4,1.2-0.7,1.9-0.9
	C8.6,1.1,9.4,1,10.2,0.9c0.5,0,0.9-0.1,1.4-0.1c0.2,0,0.4,0,0.6,0c0.3,0,0.6,0,1,0.1C13.6,1,14,1.1,14.4,1.3
	c0.6,0.2,1.1,0.4,1.6,0.6c0.5,0.3,1.1,0.6,1.6,0.9c0.3,0.2,0.6,0.5,0.9,0.7c0.3,0.3,0.5,0.6,0.8,0.8c0.2,0.2,0.4,0.4,0.5,0.6
	c0.3,0.3,0.5,0.7,0.8,1.1c0.4,0.7,0.8,1.5,1.1,2.3c0.3,0.9,0.6,1.9,0.6,2.9c0,0.4,0.1,0.8,0.1,1.3c0,0.4,0,0.8-0.1,1.1
	c0,0.5-0.1,1-0.2,1.5c-0.3,1.2-0.7,2.3-1.3,3.3c-0.4,0.6-0.8,1.2-1.3,1.8c-0.6,0.6-1.2,1.3-1.9,1.8c-0.4,0.3-0.8,0.6-1.2,0.8
	c-0.7,0.4-1.5,0.7-2.2,0.9c-0.6,0.2-1.3,0.3-2,0.4C12.3,24.1,12.3,24.1,12.3,24.2L12.3,24.2z M8.9,14.2C8.9,14.2,8.9,14.2,8.9,14.2
	c-0.1-0.3-0.1-0.6,0-0.8c-0.1-0.1-0.1-0.2-0.1-0.4c0-0.2,0-0.4,0-0.7c0-0.3-0.1-0.7-0.1-1c0-0.2,0-0.4-0.1-0.5
	C8.4,9.9,7.9,9.2,7.1,8.9C6.8,8.7,6.5,8.6,6.2,8.7c0.1,0.3,0.1,0.7,0.2,1.1c0,0.1,0,0.1,0,0.2c0.1,0.2,0.1,0.4,0.1,0.7
	c0,0.3,0.1,0.6,0.1,1c0.1,0.6,0.2,1.2,0.3,1.8C7,13.8,7,14.2,7.1,14.6c0,0.1,0,0.3,0.1,0.4c0.1,0.7,0.2,1.4,0.3,2c0.1,0,0.2,0,0.3,0
	c0.7-0.1,1.3-0.4,1.8-0.9c0.4-0.4,0.6-0.9,0.8-1.4c0.3-0.9,0.6-1.7,1-2.6c0-0.1,0-0.2,0.1-0.2c0.3,1.7,0.4,3.5,0.7,5.2
	c0.2,0.1,0.3,0,0.4,0c0.3,0,0.6-0.1,0.8-0.3c0.4-0.2,0.8-0.5,1.1-0.8c0.2-0.2,0.4-0.5,0.5-0.8c0.3-0.7,0.5-1.3,0.8-2
	c0.2-0.4,0.4-0.9,0.5-1.3c0.1-0.3,0.3-0.5,0.3-0.8c0.1-0.3,0.2-0.5,0.3-0.8c0.1-0.3,0.2-0.6,0.3-0.9c0.1-0.2,0.2-0.4,0.2-0.6
	c0,0,0,0,0,0c-0.2,0.1-0.4,0.1-0.6,0.1c-0.6,0.1-1,0.4-1.4,0.8c-0.4,0.4-0.7,0.9-0.8,1.5c-0.1,0.4-0.2,0.9-0.4,1.3
	c0,0-0.1,0-0.1,0.1c0,0.1,0,0.1,0,0.2c-0.1,0.3-0.2,0.6-0.3,1c-0.1,0.2-0.1,0.4-0.2,0.6c-0.1-0.2-0.2-0.7-0.1-0.8
	c-0.1-0.8-0.2-1.6-0.3-2.4c-0.1-0.8-0.2-1.5-0.3-2.3c-0.2,0-0.3,0-0.4,0c-0.6,0.1-1.2,0.4-1.6,0.9c-0.4,0.4-0.6,0.9-0.8,1.4
	c-0.2,0.4-0.3,0.9-0.5,1.3c-0.1,0-0.1,0.1-0.1,0.1c0,0,0,0.1,0,0.1c0,0,0,0,0,0c0,0.1-0.1,0.3-0.1,0.4c-0.1,0.2-0.2,0.5-0.3,0.7
	c0,0-0.1,0,0,0.1C9,13.9,9,14.1,8.9,14.2L8.9,14.2z"/>
</svg>
